999
Created By Ucan
  0
SECTION
  2
HEADER
  9
$ACADVER
  1
AC1009
  9
$INSBASE
 10
0.000000
 20
0.000000
 30
0.000000
  9
$EXTMIN
 10
-19106.248583
 20
5671.748084
  9
$EXTMNAX
 10
-17743.237952
 20
8253.903966
  0
ENDSEC
  0
SECTION
  2
TABLES
  0
TABLE
  2
LAYER
 70
1
  0
LAYER
  2
Page1
 70
0
 62
7
  6
CONTINUOUS
  0
ENDTAB
  0
ENDSEC
  0
SECTION
  2
ENTITIES
  0
POLYLINE
  8
Page1
 10
0
 20
0
 30
0
 66
1
  0
VERTEX
  8
Page1
 10
-18738.581809
 20
7648.343278
 30
0.000000
  0
VERTEX
  8
Page1
 10
-19061.289863
 20
7648.343278
 30
0.000000
  0
VERTEX
  8
Page1
 10
-19061.289863
 20
7648.343278
 30
0.000000
  0
VERTEX
  8
Page1
 10
-19062.287334
 20
7648.355900
 30
0.000000
  0
VERTEX
  8
Page1
 10
-19063.278582
 20
7648.393564
 30
0.000000
  0
VERTEX
  8
Page1
 10
-19064.263303
 20
7648.455966
 30
0.000000
  0
VERTEX
  8
Page1
 10
-19065.241194
 20
7648.542802
 30
0.000000
  0
VERTEX
  8
Page1
 10
-19066.211952
 20
7648.653770
 30
0.000000
  0
VERTEX
  8
Page1
 10
-19067.175271
 20
7648.788565
 30
0.000000
  0
VERTEX
  8
Page1
 10
-19068.130850
 20
7648.946884
 30
0.000000
  0
VERTEX
  8
Page1
 10
-19069.078385
 20
7649.128424
 30
0.000000
  0
VERTEX
  8
Page1
 10
-19070.017571
 20
7649.332881
 30
0.000000
  0
VERTEX
  8
Page1
 10
-19070.948106
 20
7649.559951
 30
0.000000
  0
VERTEX
  8
Page1
 10
-19071.869686
 20
7649.809332
 30
0.000000
  0
VERTEX
  8
Page1
 10
-19072.782008
 20
7650.080719
 30
0.000000
  0
VERTEX
  8
Page1
 10
-19073.684767
 20
7650.373808
 30
0.000000
  0
VERTEX
  8
Page1
 10
-19074.577661
 20
7650.688298
 30
0.000000
  0
VERTEX
  8
Page1
 10
-19075.460386
 20
7651.023883
 30
0.000000
  0
VERTEX
  8
Page1
 10
-19076.332639
 20
7651.380260
 30
0.000000
  0
VERTEX
  8
Page1
 10
-19077.194115
 20
7651.757126
 30
0.000000
  0
VERTEX
  8
Page1
 10
-19078.044511
 20
7652.154178
 30
0.000000
  0
VERTEX
  8
Page1
 10
-19078.883524
 20
7652.571112
 30
0.000000
  0
VERTEX
  8
Page1
 10
-19079.710851
 20
7653.007624
 30
0.000000
  0
VERTEX
  8
Page1
 10
-19080.526187
 20
7653.463410
 30
0.000000
  0
VERTEX
  8
Page1
 10
-19081.329230
 20
7653.938168
 30
0.000000
  0
VERTEX
  8
Page1
 10
-19082.119675
 20
7654.431594
 30
0.000000
  0
VERTEX
  8
Page1
 10
-19082.897219
 20
7654.943383
 30
0.000000
  0
VERTEX
  8
Page1
 10
-19083.661560
 20
7655.473234
 30
0.000000
  0
VERTEX
  8
Page1
 10
-19084.412392
 20
7656.020842
 30
0.000000
  0
VERTEX
  8
Page1
 10
-19085.149413
 20
7656.585903
 30
0.000000
  0
VERTEX
  8
Page1
 10
-19085.872319
 20
7657.168114
 30
0.000000
  0
VERTEX
  8
Page1
 10
-19086.580806
 20
7657.767172
 30
0.000000
  0
VERTEX
  8
Page1
 10
-19087.274572
 20
7658.382774
 30
0.000000
  0
VERTEX
  8
Page1
 10
-19087.953312
 20
7659.014614
 30
0.000000
  0
VERTEX
  8
Page1
 10
-19088.616723
 20
7659.662391
 30
0.000000
  0
VERTEX
  8
Page1
 10
-19089.264502
 20
7660.325800
 30
0.000000
  0
VERTEX
  8
Page1
 10
-19089.896344
 20
7661.004539
 30
0.000000
  0
VERTEX
  8
Page1
 10
-19090.511947
 20
7661.698303
 30
0.000000
  0
VERTEX
  8
Page1
 10
-19091.111007
 20
7662.406788
 30
0.000000
  0
VERTEX
  8
Page1
 10
-19091.693220
 20
7663.129693
 30
0.000000
  0
VERTEX
  8
Page1
 10
-19092.258283
 20
7663.866712
 30
0.000000
  0
VERTEX
  8
Page1
 10
-19092.805893
 20
7664.617542
 30
0.000000
  0
VERTEX
  8
Page1
 10
-19093.335745
 20
7665.381881
 30
0.000000
  0
VERTEX
  8
Page1
 10
-19093.847536
 20
7666.159423
 30
0.000000
  0
VERTEX
  8
Page1
 10
-19094.340964
 20
7666.949867
 30
0.000000
  0
VERTEX
  8
Page1
 10
-19094.815723
 20
7667.752908
 30
0.000000
  0
VERTEX
  8
Page1
 10
-19095.271511
 20
7668.568243
 30
0.000000
  0
VERTEX
  8
Page1
 10
-19095.708024
 20
7669.395568
 30
0.000000
  0
VERTEX
  8
Page1
 10
-19096.124959
 20
7670.234580
 30
0.000000
  0
VERTEX
  8
Page1
 10
-19096.522013
 20
7671.084975
 30
0.000000
  0
VERTEX
  8
Page1
 10
-19096.898880
 20
7671.946449
 30
0.000000
  0
VERTEX
  8
Page1
 10
-19097.255259
 20
7672.818700
 30
0.000000
  0
VERTEX
  8
Page1
 10
-19097.590845
 20
7673.701424
 30
0.000000
  0
VERTEX
  8
Page1
 10
-19097.905336
 20
7674.594317
 30
0.000000
  0
VERTEX
  8
Page1
 10
-19098.198427
 20
7675.497075
 30
0.000000
  0
VERTEX
  8
Page1
 10
-19098.469815
 20
7676.409396
 30
0.000000
  0
VERTEX
  8
Page1
 10
-19098.719196
 20
7677.330975
 30
0.000000
  0
VERTEX
  8
Page1
 10
-19098.946267
 20
7678.261509
 30
0.000000
  0
VERTEX
  8
Page1
 10
-19099.150725
 20
7679.200695
 30
0.000000
  0
VERTEX
  8
Page1
 10
-19099.332265
 20
7680.148228
 30
0.000000
  0
VERTEX
  8
Page1
 10
-19099.490585
 20
7681.103807
 30
0.000000
  0
VERTEX
  8
Page1
 10
-19099.625381
 20
7682.067126
 30
0.000000
  0
VERTEX
  8
Page1
 10
-19099.736349
 20
7683.037882
 30
0.000000
  0
VERTEX
  8
Page1
 10
-19099.823186
 20
7684.015773
 30
0.000000
  0
VERTEX
  8
Page1
 10
-19099.885588
 20
7685.000494
 30
0.000000
  0
VERTEX
  8
Page1
 10
-19099.923252
 20
7685.991742
 30
0.000000
  0
VERTEX
  8
Page1
 10
-19099.935874
 20
7686.989213
 30
0.000000
  0
VERTEX
  8
Page1
 10
-19099.935874
 20
7686.989213
 30
0.000000
  0
VERTEX
  8
Page1
 10
-19099.935874
 20
7909.697343
 30
0.000000
  0
VERTEX
  8
Page1
 10
-19099.935874
 20
7909.697343
 30
0.000000
  0
VERTEX
  8
Page1
 10
-19099.923252
 20
7910.694811
 30
0.000000
  0
VERTEX
  8
Page1
 10
-19099.885588
 20
7911.686056
 30
0.000000
  0
VERTEX
  8
Page1
 10
-19099.823186
 20
7912.670774
 30
0.000000
  0
VERTEX
  8
Page1
 10
-19099.736349
 20
7913.648662
 30
0.000000
  0
VERTEX
  8
Page1
 10
-19099.625381
 20
7914.619416
 30
0.000000
  0
VERTEX
  8
Page1
 10
-19099.490585
 20
7915.582732
 30
0.000000
  0
VERTEX
  8
Page1
 10
-19099.332265
 20
7916.538308
 30
0.000000
  0
VERTEX
  8
Page1
 10
-19099.150725
 20
7917.485840
 30
0.000000
  0
VERTEX
  8
Page1
 10
-19098.946267
 20
7918.425024
 30
0.000000
  0
VERTEX
  8
Page1
 10
-19098.719196
 20
7919.355556
 30
0.000000
  0
VERTEX
  8
Page1
 10
-19098.469815
 20
7920.277134
 30
0.000000
  0
VERTEX
  8
Page1
 10
-19098.198427
 20
7921.189453
 30
0.000000
  0
VERTEX
  8
Page1
 10
-19097.905336
 20
7922.092210
 30
0.000000
  0
VERTEX
  8
Page1
 10
-19097.590846
 20
7922.985102
 30
0.000000
  0
VERTEX
  8
Page1
 10
-19097.255260
 20
7923.867825
 30
0.000000
  0
VERTEX
  8
Page1
 10
-19096.898881
 20
7924.740075
 30
0.000000
  0
VERTEX
  8
Page1
 10
-19096.522014
 20
7925.601549
 30
0.000000
  0
VERTEX
  8
Page1
 10
-19096.124961
 20
7926.451944
 30
0.000000
  0
VERTEX
  8
Page1
 10
-19095.708026
 20
7927.290955
 30
0.000000
  0
VERTEX
  8
Page1
 10
-19095.271513
 20
7928.118280
 30
0.000000
  0
VERTEX
  8
Page1
 10
-19094.815726
 20
7928.933615
 30
0.000000
  0
VERTEX
  8
Page1
 10
-19094.340967
 20
7929.736656
 30
0.000000
  0
VERTEX
  8
Page1
 10
-19093.847540
 20
7930.527099
 30
0.000000
  0
VERTEX
  8
Page1
 10
-19093.335749
 20
7931.304642
 30
0.000000
  0
VERTEX
  8
Page1
 10
-19092.805897
 20
7932.068981
 30
0.000000
  0
VERTEX
  8
Page1
 10
-19092.258288
 20
7932.819812
 30
0.000000
  0
VERTEX
  8
Page1
 10
-19091.693226
 20
7933.556832
 30
0.000000
  0
VERTEX
  8
Page1
 10
-19091.111013
 20
7934.279737
 30
0.000000
  0
VERTEX
  8
Page1
 10
-19090.511954
 20
7934.988223
 30
0.000000
  0
VERTEX
  8
Page1
 10
-19089.896352
 20
7935.681988
 30
0.000000
  0
VERTEX
  8
Page1
 10
-19089.264510
 20
7936.360727
 30
0.000000
  0
VERTEX
  8
Page1
 10
-19088.616733
 20
7937.024137
 30
0.000000
  0
VERTEX
  8
Page1
 10
-19087.953322
 20
7937.671915
 30
0.000000
  0
VERTEX
  8
Page1
 10
-19087.274583
 20
7938.303756
 30
0.000000
  0
VERTEX
  8
Page1
 10
-19086.580819
 20
7938.919359
 30
0.000000
  0
VERTEX
  8
Page1
 10
-19085.872332
 20
7939.518418
 30
0.000000
  0
VERTEX
  8
Page1
 10
-19085.149428
 20
7940.100630
 30
0.000000
  0
VERTEX
  8
Page1
 10
-19084.412408
 20
7940.665693
 30
0.000000
  0
VERTEX
  8
Page1
 10
-19083.661577
 20
7941.213302
 30
0.000000
  0
VERTEX
  8
Page1
 10
-19082.897238
 20
7941.743153
 30
0.000000
  0
VERTEX
  8
Page1
 10
-19082.119695
 20
7942.254944
 30
0.000000
  0
VERTEX
  8
Page1
 10
-19081.329251
 20
7942.748371
 30
0.000000
  0
VERTEX
  8
Page1
 10
-19080.526210
 20
7943.223130
 30
0.000000
  0
VERTEX
  8
Page1
 10
-19079.710876
 20
7943.678918
 30
0.000000
  0
VERTEX
  8
Page1
 10
-19078.883551
 20
7944.115431
 30
0.000000
  0
VERTEX
  8
Page1
 10
-19078.044539
 20
7944.532365
 30
0.000000
  0
VERTEX
  8
Page1
 10
-19077.194145
 20
7944.929418
 30
0.000000
  0
VERTEX
  8
Page1
 10
-19076.332671
 20
7945.306286
 30
0.000000
  0
VERTEX
  8
Page1
 10
-19075.460421
 20
7945.662664
 30
0.000000
  0
VERTEX
  8
Page1
 10
-19074.577698
 20
7945.998251
 30
0.000000
  0
VERTEX
  8
Page1
 10
-19073.684806
 20
7946.312741
 30
0.000000
  0
VERTEX
  8
Page1
 10
-19072.782049
 20
7946.605831
 30
0.000000
  0
VERTEX
  8
Page1
 10
-19071.869730
 20
7946.877219
 30
0.000000
  0
VERTEX
  8
Page1
 10
-19070.948152
 20
7947.126600
 30
0.000000
  0
VERTEX
  8
Page1
 10
-19070.017620
 20
7947.353672
 30
0.000000
  0
VERTEX
  8
Page1
 10
-19069.078436
 20
7947.558129
 30
0.000000
  0
VERTEX
  8
Page1
 10
-19068.130904
 20
7947.739670
 30
0.000000
  0
VERTEX
  8
Page1
 10
-19067.175328
 20
7947.897990
 30
0.000000
  0
VERTEX
  8
Page1
 10
-19066.212011
 20
7948.032785
 30
0.000000
  0
VERTEX
  8
Page1
 10
-19065.241257
 20
7948.143753
 30
0.000000
  0
VERTEX
  8
Page1
 10
-19064.263370
 20
7948.230590
 30
0.000000
  0
VERTEX
  8
Page1
 10
-19063.278652
 20
7948.292992
 30
0.000000
  0
VERTEX
  8
Page1
 10
-19062.287407
 20
7948.330656
 30
0.000000
  0
VERTEX
  8
Page1
 10
-19061.289939
 20
7948.343278
 30
0.000000
  0
VERTEX
  8
Page1
 10
-19061.289939
 20
7948.343278
 30
0.000000
  0
VERTEX
  8
Page1
 10
-18738.581809
 20
7948.343278
 30
0.000000
  0
VERTEX
  8
Page1
 10
-18738.581809
 20
7948.343278
 30
0.000000
  0
VERTEX
  8
Page1
 10
-18737.584341
 20
7948.330656
 30
0.000000
  0
VERTEX
  8
Page1
 10
-18736.593097
 20
7948.292992
 30
0.000000
  0
VERTEX
  8
Page1
 10
-18735.608379
 20
7948.230590
 30
0.000000
  0
VERTEX
  8
Page1
 10
-18734.630491
 20
7948.143753
 30
0.000000
  0
VERTEX
  8
Page1
 10
-18733.659737
 20
7948.032785
 30
0.000000
  0
VERTEX
  8
Page1
 10
-18732.696420
 20
7947.897990
 30
0.000000
  0
VERTEX
  8
Page1
 10
-18731.740844
 20
7947.739670
 30
0.000000
  0
VERTEX
  8
Page1
 10
-18730.793312
 20
7947.558129
 30
0.000000
  0
VERTEX
  8
Page1
 10
-18729.854128
 20
7947.353671
 30
0.000000
  0
VERTEX
  8
Page1
 10
-18728.923596
 20
7947.126600
 30
0.000000
  0
VERTEX
  8
Page1
 10
-18728.002018
 20
7946.877219
 30
0.000000
  0
VERTEX
  8
Page1
 10
-18727.089699
 20
7946.605831
 30
0.000000
  0
VERTEX
  8
Page1
 10
-18726.186942
 20
7946.312740
 30
0.000000
  0
VERTEX
  8
Page1
 10
-18725.294050
 20
7945.998250
 30
0.000000
  0
VERTEX
  8
Page1
 10
-18724.411328
 20
7945.662663
 30
0.000000
  0
VERTEX
  8
Page1
 10
-18723.539077
 20
7945.306285
 30
0.000000
  0
VERTEX
  8
Page1
 10
-18722.677603
 20
7944.929417
 30
0.000000
  0
VERTEX
  8
Page1
 10
-18721.827209
 20
7944.532364
 30
0.000000
  0
VERTEX
  8
Page1
 10
-18720.988197
 20
7944.115429
 30
0.000000
  0
VERTEX
  8
Page1
 10
-18720.160872
 20
7943.678915
 30
0.000000
  0
VERTEX
  8
Page1
 10
-18719.345538
 20
7943.223127
 30
0.000000
  0
VERTEX
  8
Page1
 10
-18718.542497
 20
7942.748368
 30
0.000000
  0
VERTEX
  8
Page1
 10
-18717.752053
 20
7942.254941
 30
0.000000
  0
VERTEX
  8
Page1
 10
-18716.974510
 20
7941.743149
 30
0.000000
  0
VERTEX
  8
Page1
 10
-18716.210171
 20
7941.213297
 30
0.000000
  0
VERTEX
  8
Page1
 10
-18715.459340
 20
7940.665688
 30
0.000000
  0
VERTEX
  8
Page1
 10
-18714.722321
 20
7940.100625
 30
0.000000
  0
VERTEX
  8
Page1
 10
-18713.999416
 20
7939.518411
 30
0.000000
  0
VERTEX
  8
Page1
 10
-18713.290929
 20
7938.919351
 30
0.000000
  0
VERTEX
  8
Page1
 10
-18712.597165
 20
7938.303749
 30
0.000000
  0
VERTEX
  8
Page1
 10
-18711.918426
 20
7937.671906
 30
0.000000
  0
VERTEX
  8
Page1
 10
-18711.255015
 20
7937.024127
 30
0.000000
  0
VERTEX
  8
Page1
 10
-18710.607238
 20
7936.360716
 30
0.000000
  0
VERTEX
  8
Page1
 10
-18709.975396
 20
7935.681976
 30
0.000000
  0
VERTEX
  8
Page1
 10
-18709.359794
 20
7934.988211
 30
0.000000
  0
VERTEX
  8
Page1
 10
-18708.760735
 20
7934.279723
 30
0.000000
  0
VERTEX
  8
Page1
 10
-18708.178522
 20
7933.556817
 30
0.000000
  0
VERTEX
  8
Page1
 10
-18707.613460
 20
7932.819796
 30
0.000000
  0
VERTEX
  8
Page1
 10
-18707.065851
 20
7932.068964
 30
0.000000
  0
VERTEX
  8
Page1
 10
-18706.535999
 20
7931.304624
 30
0.000000
  0
VERTEX
  8
Page1
 10
-18706.024208
 20
7930.527079
 30
0.000000
  0
VERTEX
  8
Page1
 10
-18705.530781
 20
7929.736634
 30
0.000000
  0
VERTEX
  8
Page1
 10
-18705.056022
 20
7928.933592
 30
0.000000
  0
VERTEX
  8
Page1
 10
-18704.600235
 20
7928.118255
 30
0.000000
  0
VERTEX
  8
Page1
 10
-18704.163722
 20
7927.290929
 30
0.000000
  0
VERTEX
  8
Page1
 10
-18703.746787
 20
7926.451915
 30
0.000000
  0
VERTEX
  8
Page1
 10
-18703.349734
 20
7925.601519
 30
0.000000
  0
VERTEX
  8
Page1
 10
-18702.972867
 20
7924.740043
 30
0.000000
  0
VERTEX
  8
Page1
 10
-18702.616488
 20
7923.867791
 30
0.000000
  0
VERTEX
  8
Page1
 10
-18702.280902
 20
7922.985066
 30
0.000000
  0
VERTEX
  8
Page1
 10
-18701.966412
 20
7922.092172
 30
0.000000
  0
VERTEX
  8
Page1
 10
-18701.673321
 20
7921.189412
 30
0.000000
  0
VERTEX
  8
Page1
 10
-18701.401933
 20
7920.277091
 30
0.000000
  0
VERTEX
  8
Page1
 10
-18701.152552
 20
7919.355511
 30
0.000000
  0
VERTEX
  8
Page1
 10
-18700.925481
 20
7918.424976
 30
0.000000
  0
VERTEX
  8
Page1
 10
-18700.721023
 20
7917.485789
 30
0.000000
  0
VERTEX
  8
Page1
 10
-18700.539483
 20
7916.538255
 30
0.000000
  0
VERTEX
  8
Page1
 10
-18700.381163
 20
7915.582676
 30
0.000000
  0
VERTEX
  8
Page1
 10
-18700.246367
 20
7914.619356
 30
0.000000
  0
VERTEX
  8
Page1
 10
-18700.135399
 20
7913.648599
 30
0.000000
  0
VERTEX
  8
Page1
 10
-18700.048562
 20
7912.670708
 30
0.000000
  0
VERTEX
  8
Page1
 10
-18699.986160
 20
7911.685986
 30
0.000000
  0
VERTEX
  8
Page1
 10
-18699.948496
 20
7910.694738
 30
0.000000
  0
VERTEX
  8
Page1
 10
-18699.935874
 20
7909.697267
 30
0.000000
  0
VERTEX
  8
Page1
 10
-18699.935874
 20
7909.697267
 30
0.000000
  0
VERTEX
  8
Page1
 10
-18699.935874
 20
7686.989213
 30
0.000000
  0
VERTEX
  8
Page1
 10
-18699.935874
 20
7686.989213
 30
0.000000
  0
VERTEX
  8
Page1
 10
-18699.948496
 20
7685.991742
 30
0.000000
  0
VERTEX
  8
Page1
 10
-18699.986160
 20
7685.000494
 30
0.000000
  0
VERTEX
  8
Page1
 10
-18700.048562
 20
7684.015773
 30
0.000000
  0
VERTEX
  8
Page1
 10
-18700.135399
 20
7683.037882
 30
0.000000
  0
VERTEX
  8
Page1
 10
-18700.246367
 20
7682.067126
 30
0.000000
  0
VERTEX
  8
Page1
 10
-18700.381163
 20
7681.103807
 30
0.000000
  0
VERTEX
  8
Page1
 10
-18700.539483
 20
7680.148228
 30
0.000000
  0
VERTEX
  8
Page1
 10
-18700.721023
 20
7679.200695
 30
0.000000
  0
VERTEX
  8
Page1
 10
-18700.925481
 20
7678.261509
 30
0.000000
  0
VERTEX
  8
Page1
 10
-18701.152552
 20
7677.330975
 30
0.000000
  0
VERTEX
  8
Page1
 10
-18701.401933
 20
7676.409396
 30
0.000000
  0
VERTEX
  8
Page1
 10
-18701.673321
 20
7675.497075
 30
0.000000
  0
VERTEX
  8
Page1
 10
-18701.966412
 20
7674.594317
 30
0.000000
  0
VERTEX
  8
Page1
 10
-18702.280902
 20
7673.701424
 30
0.000000
  0
VERTEX
  8
Page1
 10
-18702.616488
 20
7672.818700
 30
0.000000
  0
VERTEX
  8
Page1
 10
-18702.972867
 20
7671.946449
 30
0.000000
  0
VERTEX
  8
Page1
 10
-18703.349734
 20
7671.084975
 30
0.000000
  0
VERTEX
  8
Page1
 10
-18703.746787
 20
7670.234580
 30
0.000000
  0
VERTEX
  8
Page1
 10
-18704.163722
 20
7669.395568
 30
0.000000
  0
VERTEX
  8
Page1
 10
-18704.600235
 20
7668.568243
 30
0.000000
  0
VERTEX
  8
Page1
 10
-18705.056022
 20
7667.752908
 30
0.000000
  0
VERTEX
  8
Page1
 10
-18705.530781
 20
7666.949867
 30
0.000000
  0
VERTEX
  8
Page1
 10
-18706.024208
 20
7666.159424
 30
0.000000
  0
VERTEX
  8
Page1
 10
-18706.535999
 20
7665.381881
 30
0.000000
  0
VERTEX
  8
Page1
 10
-18707.065851
 20
7664.617542
 30
0.000000
  0
VERTEX
  8
Page1
 10
-18707.613460
 20
7663.866712
 30
0.000000
  0
VERTEX
  8
Page1
 10
-18708.178522
 20
7663.129693
 30
0.000000
  0
VERTEX
  8
Page1
 10
-18708.760735
 20
7662.406788
 30
0.000000
  0
VERTEX
  8
Page1
 10
-18709.359794
 20
7661.698303
 30
0.000000
  0
VERTEX
  8
Page1
 10
-18709.975396
 20
7661.004539
 30
0.000000
  0
VERTEX
  8
Page1
 10
-18710.607238
 20
7660.325800
 30
0.000000
  0
VERTEX
  8
Page1
 10
-18711.255015
 20
7659.662391
 30
0.000000
  0
VERTEX
  8
Page1
 10
-18711.918426
 20
7659.014614
 30
0.000000
  0
VERTEX
  8
Page1
 10
-18712.597165
 20
7658.382774
 30
0.000000
  0
VERTEX
  8
Page1
 10
-18713.290929
 20
7657.767172
 30
0.000000
  0
VERTEX
  8
Page1
 10
-18713.999416
 20
7657.168114
 30
0.000000
  0
VERTEX
  8
Page1
 10
-18714.722321
 20
7656.585903
 30
0.000000
  0
VERTEX
  8
Page1
 10
-18715.459340
 20
7656.020842
 30
0.000000
  0
VERTEX
  8
Page1
 10
-18716.210171
 20
7655.473234
 30
0.000000
  0
VERTEX
  8
Page1
 10
-18716.974510
 20
7654.943383
 30
0.000000
  0
VERTEX
  8
Page1
 10
-18717.752053
 20
7654.431594
 30
0.000000
  0
VERTEX
  8
Page1
 10
-18718.542497
 20
7653.938168
 30
0.000000
  0
VERTEX
  8
Page1
 10
-18719.345538
 20
7653.463410
 30
0.000000
  0
VERTEX
  8
Page1
 10
-18720.160872
 20
7653.007624
 30
0.000000
  0
VERTEX
  8
Page1
 10
-18720.988197
 20
7652.571112
 30
0.000000
  0
VERTEX
  8
Page1
 10
-18721.827209
 20
7652.154178
 30
0.000000
  0
VERTEX
  8
Page1
 10
-18722.677603
 20
7651.757126
 30
0.000000
  0
VERTEX
  8
Page1
 10
-18723.539077
 20
7651.380260
 30
0.000000
  0
VERTEX
  8
Page1
 10
-18724.411328
 20
7651.023883
 30
0.000000
  0
VERTEX
  8
Page1
 10
-18725.294050
 20
7650.688298
 30
0.000000
  0
VERTEX
  8
Page1
 10
-18726.186942
 20
7650.373808
 30
0.000000
  0
VERTEX
  8
Page1
 10
-18727.089699
 20
7650.080719
 30
0.000000
  0
VERTEX
  8
Page1
 10
-18728.002018
 20
7649.809332
 30
0.000000
  0
VERTEX
  8
Page1
 10
-18728.923596
 20
7649.559951
 30
0.000000
  0
VERTEX
  8
Page1
 10
-18729.854128
 20
7649.332881
 30
0.000000
  0
VERTEX
  8
Page1
 10
-18730.793312
 20
7649.128424
 30
0.000000
  0
VERTEX
  8
Page1
 10
-18731.740844
 20
7648.946884
 30
0.000000
  0
VERTEX
  8
Page1
 10
-18732.696420
 20
7648.788565
 30
0.000000
  0
VERTEX
  8
Page1
 10
-18733.659737
 20
7648.653770
 30
0.000000
  0
VERTEX
  8
Page1
 10
-18734.630491
 20
7648.542802
 30
0.000000
  0
VERTEX
  8
Page1
 10
-18735.608379
 20
7648.455966
 30
0.000000
  0
VERTEX
  8
Page1
 10
-18736.593097
 20
7648.393564
 30
0.000000
  0
VERTEX
  8
Page1
 10
-18737.584341
 20
7648.355900
 30
0.000000
  0
VERTEX
  8
Page1
 10
-18738.581809
 20
7648.343278
 30
0.000000
  0
SEQEND
  8
Page1
  0
POLYLINE
  8
Page1
 10
0
 20
0
 30
0
 66
1
  0
VERTEX
  8
Page1
 10
-19106.248583
 20
5710.396080
 30
0.000000
  0
VERTEX
  8
Page1
 10
-19106.248583
 20
6613.104095
 30
0.000000
  0
VERTEX
  8
Page1
 10
-19106.248583
 20
6613.104095
 30
0.000000
  0
VERTEX
  8
Page1
 10
-19106.235961
 20
6614.101565
 30
0.000000
  0
VERTEX
  8
Page1
 10
-19106.198297
 20
6615.092811
 30
0.000000
  0
VERTEX
  8
Page1
 10
-19106.135895
 20
6616.077531
 30
0.000000
  0
VERTEX
  8
Page1
 10
-19106.049059
 20
6617.055420
 30
0.000000
  0
VERTEX
  8
Page1
 10
-19105.938091
 20
6618.026176
 30
0.000000
  0
VERTEX
  8
Page1
 10
-19105.803296
 20
6618.989494
 30
0.000000
  0
VERTEX
  8
Page1
 10
-19105.644977
 20
6619.945072
 30
0.000000
  0
VERTEX
  8
Page1
 10
-19105.463437
 20
6620.892605
 30
0.000000
  0
VERTEX
  8
Page1
 10
-19105.258980
 20
6621.831790
 30
0.000000
  0
VERTEX
  8
Page1
 10
-19105.031910
 20
6622.762324
 30
0.000000
  0
VERTEX
  8
Page1
 10
-19104.782529
 20
6623.683902
 30
0.000000
  0
VERTEX
  8
Page1
 10
-19104.511142
 20
6624.596223
 30
0.000000
  0
VERTEX
  8
Page1
 10
-19104.218053
 20
6625.498981
 30
0.000000
  0
VERTEX
  8
Page1
 10
-19103.903563
 20
6626.391874
 30
0.000000
  0
VERTEX
  8
Page1
 10
-19103.567978
 20
6627.274598
 30
0.000000
  0
VERTEX
  8
Page1
 10
-19103.211601
 20
6628.146849
 30
0.000000
  0
VERTEX
  8
Page1
 10
-19102.834734
 20
6629.008324
 30
0.000000
  0
VERTEX
  8
Page1
 10
-19102.437683
 20
6629.858720
 30
0.000000
  0
VERTEX
  8
Page1
 10
-19102.020749
 20
6630.697732
 30
0.000000
  0
VERTEX
  8
Page1
 10
-19101.584237
 20
6631.525058
 30
0.000000
  0
VERTEX
  8
Page1
 10
-19101.128451
 20
6632.340393
 30
0.000000
  0
VERTEX
  8
Page1
 10
-19100.653693
 20
6633.143435
 30
0.000000
  0
VERTEX
  8
Page1
 10
-19100.160267
 20
6633.933879
 30
0.000000
  0
VERTEX
  8
Page1
 10
-19099.648478
 20
6634.711423
 30
0.000000
  0
VERTEX
  8
Page1
 10
-19099.118627
 20
6635.475763
 30
0.000000
  0
VERTEX
  8
Page1
 10
-19098.571019
 20
6636.226594
 30
0.000000
  0
VERTEX
  8
Page1
 10
-19098.005958
 20
6636.963615
 30
0.000000
  0
VERTEX
  8
Page1
 10
-19097.423747
 20
6637.686520
 30
0.000000
  0
VERTEX
  8
Page1
 10
-19096.824689
 20
6638.395007
 30
0.000000
  0
VERTEX
  8
Page1
 10
-19096.209087
 20
6639.088772
 30
0.000000
  0
VERTEX
  8
Page1
 10
-19095.577247
 20
6639.767512
 30
0.000000
  0
VERTEX
  8
Page1
 10
-19094.929470
 20
6640.430922
 30
0.000000
  0
VERTEX
  8
Page1
 10
-19094.266061
 20
6641.078700
 30
0.000000
  0
VERTEX
  8
Page1
 10
-19093.587322
 20
6641.710543
 30
0.000000
  0
VERTEX
  8
Page1
 10
-19092.893558
 20
6642.326145
 30
0.000000
  0
VERTEX
  8
Page1
 10
-19092.185073
 20
6642.925205
 30
0.000000
  0
VERTEX
  8
Page1
 10
-19091.462168
 20
6643.507417
 30
0.000000
  0
VERTEX
  8
Page1
 10
-19090.725149
 20
6644.072480
 30
0.000000
  0
VERTEX
  8
Page1
 10
-19089.974319
 20
6644.620089
 30
0.000000
  0
VERTEX
  8
Page1
 10
-19089.209980
 20
6645.149941
 30
0.000000
  0
VERTEX
  8
Page1
 10
-19088.432437
 20
6645.661732
 30
0.000000
  0
VERTEX
  8
Page1
 10
-19087.641994
 20
6646.155159
 30
0.000000
  0
VERTEX
  8
Page1
 10
-19086.838953
 20
6646.629919
 30
0.000000
  0
VERTEX
  8
Page1
 10
-19086.023618
 20
6647.085707
 30
0.000000
  0
VERTEX
  8
Page1
 10
-19085.196293
 20
6647.522220
 30
0.000000
  0
VERTEX
  8
Page1
 10
-19084.357281
 20
6647.939155
 30
0.000000
  0
VERTEX
  8
Page1
 10
-19083.506886
 20
6648.336208
 30
0.000000
  0
VERTEX
  8
Page1
 10
-19082.645412
 20
6648.713075
 30
0.000000
  0
VERTEX
  8
Page1
 10
-19081.773161
 20
6649.069454
 30
0.000000
  0
VERTEX
  8
Page1
 10
-19080.890437
 20
6649.405040
 30
0.000000
  0
VERTEX
  8
Page1
 10
-19079.997544
 20
6649.719531
 30
0.000000
  0
VERTEX
  8
Page1
 10
-19079.094786
 20
6650.012621
 30
0.000000
  0
VERTEX
  8
Page1
 10
-19078.182465
 20
6650.284009
 30
0.000000
  0
VERTEX
  8
Page1
 10
-19077.260886
 20
6650.533390
 30
0.000000
  0
VERTEX
  8
Page1
 10
-19076.330352
 20
6650.760462
 30
0.000000
  0
VERTEX
  8
Page1
 10
-19075.391166
 20
6650.964919
 30
0.000000
  0
VERTEX
  8
Page1
 10
-19074.443633
 20
6651.146460
 30
0.000000
  0
VERTEX
  8
Page1
 10
-19073.488054
 20
6651.304780
 30
0.000000
  0
VERTEX
  8
Page1
 10
-19072.524735
 20
6651.439575
 30
0.000000
  0
VERTEX
  8
Page1
 10
-19071.553979
 20
6651.550544
 30
0.000000
  0
VERTEX
  8
Page1
 10
-19070.576088
 20
6651.637380
 30
0.000000
  0
VERTEX
  8
Page1
 10
-19069.591367
 20
6651.699782
 30
0.000000
  0
VERTEX
  8
Page1
 10
-19068.600119
 20
6651.737446
 30
0.000000
  0
VERTEX
  8
Page1
 10
-19067.602648
 20
6651.750068
 30
0.000000
  0
VERTEX
  8
Page1
 10
-19067.602648
 20
6651.750068
 30
0.000000
  0
VERTEX
  8
Page1
 10
-18464.894556
 20
6651.750068
 30
0.000000
  0
VERTEX
  8
Page1
 10
-18464.894556
 20
6651.750068
 30
0.000000
  0
VERTEX
  8
Page1
 10
-18463.897086
 20
6651.737446
 30
0.000000
  0
VERTEX
  8
Page1
 10
-18462.905840
 20
6651.699782
 30
0.000000
  0
VERTEX
  8
Page1
 10
-18461.921120
 20
6651.637380
 30
0.000000
  0
VERTEX
  8
Page1
 10
-18460.943231
 20
6651.550544
 30
0.000000
  0
VERTEX
  8
Page1
 10
-18459.972476
 20
6651.439575
 30
0.000000
  0
VERTEX
  8
Page1
 10
-18459.009158
 20
6651.304780
 30
0.000000
  0
VERTEX
  8
Page1
 10
-18458.053581
 20
6651.146460
 30
0.000000
  0
VERTEX
  8
Page1
 10
-18457.106048
 20
6650.964919
 30
0.000000
  0
VERTEX
  8
Page1
 10
-18456.166863
 20
6650.760462
 30
0.000000
  0
VERTEX
  8
Page1
 10
-18455.236330
 20
6650.533391
 30
0.000000
  0
VERTEX
  8
Page1
 10
-18454.314752
 20
6650.284009
 30
0.000000
  0
VERTEX
  8
Page1
 10
-18453.402432
 20
6650.012622
 30
0.000000
  0
VERTEX
  8
Page1
 10
-18452.499674
 20
6649.719531
 30
0.000000
  0
VERTEX
  8
Page1
 10
-18451.606782
 20
6649.405041
 30
0.000000
  0
VERTEX
  8
Page1
 10
-18450.724059
 20
6649.069454
 30
0.000000
  0
VERTEX
  8
Page1
 10
-18449.851808
 20
6648.713076
 30
0.000000
  0
VERTEX
  8
Page1
 10
-18448.990334
 20
6648.336208
 30
0.000000
  0
VERTEX
  8
Page1
 10
-18448.139939
 20
6647.939156
 30
0.000000
  0
VERTEX
  8
Page1
 10
-18447.300927
 20
6647.522221
 30
0.000000
  0
VERTEX
  8
Page1
 10
-18446.473602
 20
6647.085708
 30
0.000000
  0
VERTEX
  8
Page1
 10
-18445.658267
 20
6646.629920
 30
0.000000
  0
VERTEX
  8
Page1
 10
-18444.855227
 20
6646.155161
 30
0.000000
  0
VERTEX
  8
Page1
 10
-18444.064783
 20
6645.661734
 30
0.000000
  0
VERTEX
  8
Page1
 10
-18443.287240
 20
6645.149943
 30
0.000000
  0
VERTEX
  8
Page1
 10
-18442.522901
 20
6644.620092
 30
0.000000
  0
VERTEX
  8
Page1
 10
-18441.772071
 20
6644.072483
 30
0.000000
  0
VERTEX
  8
Page1
 10
-18441.035051
 20
6643.507420
 30
0.000000
  0
VERTEX
  8
Page1
 10
-18440.312147
 20
6642.925208
 30
0.000000
  0
VERTEX
  8
Page1
 10
-18439.603661
 20
6642.326149
 30
0.000000
  0
VERTEX
  8
Page1
 10
-18438.909896
 20
6641.710546
 30
0.000000
  0
VERTEX
  8
Page1
 10
-18438.231158
 20
6641.078705
 30
0.000000
  0
VERTEX
  8
Page1
 10
-18437.567748
 20
6640.430927
 30
0.000000
  0
VERTEX
  8
Page1
 10
-18436.919971
 20
6639.767517
 30
0.000000
  0
VERTEX
  8
Page1
 10
-18436.288129
 20
6639.088778
 30
0.000000
  0
VERTEX
  8
Page1
 10
-18435.672528
 20
6638.395013
 30
0.000000
  0
VERTEX
  8
Page1
 10
-18435.073469
 20
6637.686527
 30
0.000000
  0
VERTEX
  8
Page1
 10
-18434.491257
 20
6636.963622
 30
0.000000
  0
VERTEX
  8
Page1
 10
-18433.926195
 20
6636.226602
 30
0.000000
  0
VERTEX
  8
Page1
 10
-18433.378587
 20
6635.475771
 30
0.000000
  0
VERTEX
  8
Page1
 10
-18432.848736
 20
6634.711432
 30
0.000000
  0
VERTEX
  8
Page1
 10
-18432.336945
 20
6633.933889
 30
0.000000
  0
VERTEX
  8
Page1
 10
-18431.843519
 20
6633.143446
 30
0.000000
  0
VERTEX
  8
Page1
 10
-18431.368761
 20
6632.340405
 30
0.000000
  0
VERTEX
  8
Page1
 10
-18430.912974
 20
6631.525070
 30
0.000000
  0
VERTEX
  8
Page1
 10
-18430.476461
 20
6630.697745
 30
0.000000
  0
VERTEX
  8
Page1
 10
-18430.059527
 20
6629.858734
 30
0.000000
  0
VERTEX
  8
Page1
 10
-18429.662475
 20
6629.008339
 30
0.000000
  0
VERTEX
  8
Page1
 10
-18429.285608
 20
6628.146865
 30
0.000000
  0
VERTEX
  8
Page1
 10
-18428.929230
 20
6627.274615
 30
0.000000
  0
VERTEX
  8
Page1
 10
-18428.593644
 20
6626.391892
 30
0.000000
  0
VERTEX
  8
Page1
 10
-18428.279155
 20
6625.499000
 30
0.000000
  0
VERTEX
  8
Page1
 10
-18427.986064
 20
6624.596243
 30
0.000000
  0
VERTEX
  8
Page1
 10
-18427.714677
 20
6623.683924
 30
0.000000
  0
VERTEX
  8
Page1
 10
-18427.465296
 20
6622.762347
 30
0.000000
  0
VERTEX
  8
Page1
 10
-18427.238225
 20
6621.831814
 30
0.000000
  0
VERTEX
  8
Page1
 10
-18427.033768
 20
6620.892630
 30
0.000000
  0
VERTEX
  8
Page1
 10
-18426.852228
 20
6619.945099
 30
0.000000
  0
VERTEX
  8
Page1
 10
-18426.693909
 20
6618.989523
 30
0.000000
  0
VERTEX
  8
Page1
 10
-18426.559113
 20
6618.026206
 30
0.000000
  0
VERTEX
  8
Page1
 10
-18426.448145
 20
6617.055452
 30
0.000000
  0
VERTEX
  8
Page1
 10
-18426.361309
 20
6616.077564
 30
0.000000
  0
VERTEX
  8
Page1
 10
-18426.298907
 20
6615.092846
 30
0.000000
  0
VERTEX
  8
Page1
 10
-18426.261243
 20
6614.101601
 30
0.000000
  0
VERTEX
  8
Page1
 10
-18426.248621
 20
6613.104133
 30
0.000000
  0
VERTEX
  8
Page1
 10
-18426.248621
 20
6613.104133
 30
0.000000
  0
VERTEX
  8
Page1
 10
-18426.248621
 20
5710.396080
 30
0.000000
  0
VERTEX
  8
Page1
 10
-18426.248621
 20
5710.396080
 30
0.000000
  0
VERTEX
  8
Page1
 10
-18426.261243
 20
5709.398605
 30
0.000000
  0
VERTEX
  8
Page1
 10
-18426.298907
 20
5708.407353
 30
0.000000
  0
VERTEX
  8
Page1
 10
-18426.361309
 20
5707.422629
 30
0.000000
  0
VERTEX
  8
Page1
 10
-18426.448146
 20
5706.444735
 30
0.000000
  0
VERTEX
  8
Page1
 10
-18426.559114
 20
5705.473974
 30
0.000000
  0
VERTEX
  8
Page1
 10
-18426.693909
 20
5704.510652
 30
0.000000
  0
VERTEX
  8
Page1
 10
-18426.852229
 20
5703.555070
 30
0.000000
  0
VERTEX
  8
Page1
 10
-18427.033770
 20
5702.607532
 30
0.000000
  0
VERTEX
  8
Page1
 10
-18427.238228
 20
5701.668343
 30
0.000000
  0
VERTEX
  8
Page1
 10
-18427.465299
 20
5700.737806
 30
0.000000
  0
VERTEX
  8
Page1
 10
-18427.714680
 20
5699.816223
 30
0.000000
  0
VERTEX
  8
Page1
 10
-18427.986068
 20
5698.903899
 30
0.000000
  0
VERTEX
  8
Page1
 10
-18428.279159
 20
5698.001137
 30
0.000000
  0
VERTEX
  8
Page1
 10
-18428.593649
 20
5697.108241
 30
0.000000
  0
VERTEX
  8
Page1
 10
-18428.929235
 20
5696.225514
 30
0.000000
  0
VERTEX
  8
Page1
 10
-18429.285614
 20
5695.353260
 30
0.000000
  0
VERTEX
  8
Page1
 10
-18429.662482
 20
5694.491782
 30
0.000000
  0
VERTEX
  8
Page1
 10
-18430.059534
 20
5693.641383
 30
0.000000
  0
VERTEX
  8
Page1
 10
-18430.476469
 20
5692.802368
 30
0.000000
  0
VERTEX
  8
Page1
 10
-18430.912982
 20
5691.975040
 30
0.000000
  0
VERTEX
  8
Page1
 10
-18431.368770
 20
5691.159702
 30
0.000000
  0
VERTEX
  8
Page1
 10
-18431.843530
 20
5690.356658
 30
0.000000
  0
VERTEX
  8
Page1
 10
-18432.336957
 20
5689.566211
 30
0.000000
  0
VERTEX
  8
Page1
 10
-18432.848748
 20
5688.788665
 30
0.000000
  0
VERTEX
  8
Page1
 10
-18433.378600
 20
5688.024324
 30
0.000000
  0
VERTEX
  8
Page1
 10
-18433.926209
 20
5687.273490
 30
0.000000
  0
VERTEX
  8
Page1
 10
-18434.491272
 20
5686.536468
 30
0.000000
  0
VERTEX
  8
Page1
 10
-18435.073485
 20
5685.813561
 30
0.000000
  0
VERTEX
  8
Page1
 10
-18435.672544
 20
5685.105072
 30
0.000000
  0
VERTEX
  8
Page1
 10
-18436.288147
 20
5684.411306
 30
0.000000
  0
VERTEX
  8
Page1
 10
-18436.919989
 20
5683.732565
 30
0.000000
  0
VERTEX
  8
Page1
 10
-18437.567767
 20
5683.069153
 30
0.000000
  0
VERTEX
  8
Page1
 10
-18438.231178
 20
5682.421373
 30
0.000000
  0
VERTEX
  8
Page1
 10
-18438.909917
 20
5681.789530
 30
0.000000
  0
VERTEX
  8
Page1
 10
-18439.603682
 20
5681.173926
 30
0.000000
  0
VERTEX
  8
Page1
 10
-18440.312169
 20
5680.574866
 30
0.000000
  0
VERTEX
  8
Page1
 10
-18441.035075
 20
5679.992652
 30
0.000000
  0
VERTEX
  8
Page1
 10
-18441.772095
 20
5679.427588
 30
0.000000
  0
VERTEX
  8
Page1
 10
-18442.522927
 20
5678.879978
 30
0.000000
  0
VERTEX
  8
Page1
 10
-18443.287266
 20
5678.350125
 30
0.000000
  0
VERTEX
  8
Page1
 10
-18444.064810
 20
5677.838333
 30
0.000000
  0
VERTEX
  8
Page1
 10
-18444.855254
 20
5677.344906
 30
0.000000
  0
VERTEX
  8
Page1
 10
-18445.658296
 20
5676.870146
 30
0.000000
  0
VERTEX
  8
Page1
 10
-18446.473632
 20
5676.414357
 30
0.000000
  0
VERTEX
  8
Page1
 10
-18447.300957
 20
5675.977844
 30
0.000000
  0
VERTEX
  8
Page1
 10
-18448.139970
 20
5675.560908
 30
0.000000
  0
VERTEX
  8
Page1
 10
-18448.990365
 20
5675.163855
 30
0.000000
  0
VERTEX
  8
Page1
 10
-18449.851840
 20
5674.786987
 30
0.000000
  0
VERTEX
  8
Page1
 10
-18450.724091
 20
5674.430608
 30
0.000000
  0
VERTEX
  8
Page1
 10
-18451.606815
 20
5674.095022
 30
0.000000
  0
VERTEX
  8
Page1
 10
-18452.499708
 20
5673.780531
 30
0.000000
  0
VERTEX
  8
Page1
 10
-18453.402466
 20
5673.487440
 30
0.000000
  0
VERTEX
  8
Page1
 10
-18454.314787
 20
5673.216052
 30
0.000000
  0
VERTEX
  8
Page1
 10
-18455.236366
 20
5672.966671
 30
0.000000
  0
VERTEX
  8
Page1
 10
-18456.166899
 20
5672.739599
 30
0.000000
  0
VERTEX
  8
Page1
 10
-18457.106084
 20
5672.535141
 30
0.000000
  0
VERTEX
  8
Page1
 10
-18458.053618
 20
5672.353601
 30
0.000000
  0
VERTEX
  8
Page1
 10
-18459.009195
 20
5672.195281
 30
0.000000
  0
VERTEX
  8
Page1
 10
-18459.972513
 20
5672.060485
 30
0.000000
  0
VERTEX
  8
Page1
 10
-18460.943269
 20
5671.949517
 30
0.000000
  0
VERTEX
  8
Page1
 10
-18461.921158
 20
5671.862680
 30
0.000000
  0
VERTEX
  8
Page1
 10
-18462.905878
 20
5671.800278
 30
0.000000
  0
VERTEX
  8
Page1
 10
-18463.897124
 20
5671.762614
 30
0.000000
  0
VERTEX
  8
Page1
 10
-18464.894594
 20
5671.749992
 30
0.000000
  0
VERTEX
  8
Page1
 10
-18464.894594
 20
5671.749992
 30
0.000000
  0
VERTEX
  8
Page1
 10
-19067.602648
 20
5671.749992
 30
0.000000
  0
VERTEX
  8
Page1
 10
-19067.602648
 20
5671.749992
 30
0.000000
  0
VERTEX
  8
Page1
 10
-19068.600119
 20
5671.762614
 30
0.000000
  0
VERTEX
  8
Page1
 10
-19069.591367
 20
5671.800278
 30
0.000000
  0
VERTEX
  8
Page1
 10
-19070.576088
 20
5671.862680
 30
0.000000
  0
VERTEX
  8
Page1
 10
-19071.553979
 20
5671.949517
 30
0.000000
  0
VERTEX
  8
Page1
 10
-19072.524735
 20
5672.060485
 30
0.000000
  0
VERTEX
  8
Page1
 10
-19073.488054
 20
5672.195281
 30
0.000000
  0
VERTEX
  8
Page1
 10
-19074.443633
 20
5672.353601
 30
0.000000
  0
VERTEX
  8
Page1
 10
-19075.391166
 20
5672.535141
 30
0.000000
  0
VERTEX
  8
Page1
 10
-19076.330352
 20
5672.739599
 30
0.000000
  0
VERTEX
  8
Page1
 10
-19077.260886
 20
5672.966671
 30
0.000000
  0
VERTEX
  8
Page1
 10
-19078.182465
 20
5673.216052
 30
0.000000
  0
VERTEX
  8
Page1
 10
-19079.094786
 20
5673.487440
 30
0.000000
  0
VERTEX
  8
Page1
 10
-19079.997544
 20
5673.780531
 30
0.000000
  0
VERTEX
  8
Page1
 10
-19080.890437
 20
5674.095022
 30
0.000000
  0
VERTEX
  8
Page1
 10
-19081.773161
 20
5674.430608
 30
0.000000
  0
VERTEX
  8
Page1
 10
-19082.645412
 20
5674.786987
 30
0.000000
  0
VERTEX
  8
Page1
 10
-19083.506886
 20
5675.163855
 30
0.000000
  0
VERTEX
  8
Page1
 10
-19084.357281
 20
5675.560908
 30
0.000000
  0
VERTEX
  8
Page1
 10
-19085.196293
 20
5675.977844
 30
0.000000
  0
VERTEX
  8
Page1
 10
-19086.023618
 20
5676.414357
 30
0.000000
  0
VERTEX
  8
Page1
 10
-19086.838953
 20
5676.870146
 30
0.000000
  0
VERTEX
  8
Page1
 10
-19087.641994
 20
5677.344906
 30
0.000000
  0
VERTEX
  8
Page1
 10
-19088.432437
 20
5677.838333
 30
0.000000
  0
VERTEX
  8
Page1
 10
-19089.209980
 20
5678.350125
 30
0.000000
  0
VERTEX
  8
Page1
 10
-19089.974319
 20
5678.879978
 30
0.000000
  0
VERTEX
  8
Page1
 10
-19090.725149
 20
5679.427588
 30
0.000000
  0
VERTEX
  8
Page1
 10
-19091.462168
 20
5679.992652
 30
0.000000
  0
VERTEX
  8
Page1
 10
-19092.185073
 20
5680.574866
 30
0.000000
  0
VERTEX
  8
Page1
 10
-19092.893558
 20
5681.173926
 30
0.000000
  0
VERTEX
  8
Page1
 10
-19093.587322
 20
5681.789530
 30
0.000000
  0
VERTEX
  8
Page1
 10
-19094.266061
 20
5682.421373
 30
0.000000
  0
VERTEX
  8
Page1
 10
-19094.929470
 20
5683.069153
 30
0.000000
  0
VERTEX
  8
Page1
 10
-19095.577247
 20
5683.732565
 30
0.000000
  0
VERTEX
  8
Page1
 10
-19096.209087
 20
5684.411306
 30
0.000000
  0
VERTEX
  8
Page1
 10
-19096.824689
 20
5685.105072
 30
0.000000
  0
VERTEX
  8
Page1
 10
-19097.423747
 20
5685.813561
 30
0.000000
  0
VERTEX
  8
Page1
 10
-19098.005958
 20
5686.536468
 30
0.000000
  0
VERTEX
  8
Page1
 10
-19098.571019
 20
5687.273490
 30
0.000000
  0
VERTEX
  8
Page1
 10
-19099.118627
 20
5688.024324
 30
0.000000
  0
VERTEX
  8
Page1
 10
-19099.648478
 20
5688.788665
 30
0.000000
  0
VERTEX
  8
Page1
 10
-19100.160267
 20
5689.566211
 30
0.000000
  0
VERTEX
  8
Page1
 10
-19100.653693
 20
5690.356658
 30
0.000000
  0
VERTEX
  8
Page1
 10
-19101.128451
 20
5691.159702
 30
0.000000
  0
VERTEX
  8
Page1
 10
-19101.584237
 20
5691.975040
 30
0.000000
  0
VERTEX
  8
Page1
 10
-19102.020749
 20
5692.802368
 30
0.000000
  0
VERTEX
  8
Page1
 10
-19102.437683
 20
5693.641383
 30
0.000000
  0
VERTEX
  8
Page1
 10
-19102.834734
 20
5694.491782
 30
0.000000
  0
VERTEX
  8
Page1
 10
-19103.211601
 20
5695.353260
 30
0.000000
  0
VERTEX
  8
Page1
 10
-19103.567978
 20
5696.225514
 30
0.000000
  0
VERTEX
  8
Page1
 10
-19103.903563
 20
5697.108241
 30
0.000000
  0
VERTEX
  8
Page1
 10
-19104.218053
 20
5698.001137
 30
0.000000
  0
VERTEX
  8
Page1
 10
-19104.511142
 20
5698.903899
 30
0.000000
  0
VERTEX
  8
Page1
 10
-19104.782529
 20
5699.816223
 30
0.000000
  0
VERTEX
  8
Page1
 10
-19105.031910
 20
5700.737806
 30
0.000000
  0
VERTEX
  8
Page1
 10
-19105.258980
 20
5701.668343
 30
0.000000
  0
VERTEX
  8
Page1
 10
-19105.463437
 20
5702.607532
 30
0.000000
  0
VERTEX
  8
Page1
 10
-19105.644977
 20
5703.555070
 30
0.000000
  0
VERTEX
  8
Page1
 10
-19105.803296
 20
5704.510652
 30
0.000000
  0
VERTEX
  8
Page1
 10
-19105.938091
 20
5705.473974
 30
0.000000
  0
VERTEX
  8
Page1
 10
-19106.049059
 20
5706.444735
 30
0.000000
  0
VERTEX
  8
Page1
 10
-19106.135895
 20
5707.422629
 30
0.000000
  0
VERTEX
  8
Page1
 10
-19106.198297
 20
5708.407353
 30
0.000000
  0
VERTEX
  8
Page1
 10
-19106.235961
 20
5709.398605
 30
0.000000
  0
VERTEX
  8
Page1
 10
-19106.248583
 20
5710.396080
 30
0.000000
  0
SEQEND
  8
Page1
  0
POLYLINE
  8
Page1
 10
0
 20
0
 30
0
 66
1
  0
VERTEX
  8
Page1
 10
-17743.250572
 20
6613.111039
 30
0.000000
  0
VERTEX
  8
Page1
 10
-17743.237952
 20
5710.403024
 30
0.000000
  0
VERTEX
  8
Page1
 10
-17743.237952
 20
5710.403024
 30
0.000000
  0
VERTEX
  8
Page1
 10
-17743.250560
 20
5709.405554
 30
0.000000
  0
VERTEX
  8
Page1
 10
-17743.288210
 20
5708.414307
 30
0.000000
  0
VERTEX
  8
Page1
 10
-17743.350598
 20
5707.429587
 30
0.000000
  0
VERTEX
  8
Page1
 10
-17743.437421
 20
5706.451696
 30
0.000000
  0
VERTEX
  8
Page1
 10
-17743.548375
 20
5705.480939
 30
0.000000
  0
VERTEX
  8
Page1
 10
-17743.683157
 20
5704.517619
 30
0.000000
  0
VERTEX
  8
Page1
 10
-17743.841463
 20
5703.562039
 30
0.000000
  0
VERTEX
  8
Page1
 10
-17744.022989
 20
5702.614504
 30
0.000000
  0
VERTEX
  8
Page1
 10
-17744.227433
 20
5701.675316
 30
0.000000
  0
VERTEX
  8
Page1
 10
-17744.454490
 20
5700.744779
 30
0.000000
  0
VERTEX
  8
Page1
 10
-17744.703858
 20
5699.823196
 30
0.000000
  0
VERTEX
  8
Page1
 10
-17744.975232
 20
5698.910872
 30
0.000000
  0
VERTEX
  8
Page1
 10
-17745.268309
 20
5698.008110
 30
0.000000
  0
VERTEX
  8
Page1
 10
-17745.582786
 20
5697.115213
 30
0.000000
  0
VERTEX
  8
Page1
 10
-17745.918358
 20
5696.232484
 30
0.000000
  0
VERTEX
  8
Page1
 10
-17746.274724
 20
5695.360228
 30
0.000000
  0
VERTEX
  8
Page1
 10
-17746.651578
 20
5694.498747
 30
0.000000
  0
VERTEX
  8
Page1
 10
-17747.048618
 20
5693.648346
 30
0.000000
  0
VERTEX
  8
Page1
 10
-17747.465540
 20
5692.809328
 30
0.000000
  0
VERTEX
  8
Page1
 10
-17747.902040
 20
5691.981996
 30
0.000000
  0
VERTEX
  8
Page1
 10
-17748.357815
 20
5691.166655
 30
0.000000
  0
VERTEX
  8
Page1
 10
-17748.832562
 20
5690.363606
 30
0.000000
  0
VERTEX
  8
Page1
 10
-17749.325976
 20
5689.573155
 30
0.000000
  0
VERTEX
  8
Page1
 10
-17749.837755
 20
5688.795604
 30
0.000000
  0
VERTEX
  8
Page1
 10
-17750.367595
 20
5688.031257
 30
0.000000
  0
VERTEX
  8
Page1
 10
-17750.915192
 20
5687.280418
 30
0.000000
  0
VERTEX
  8
Page1
 10
-17751.480243
 20
5686.543390
 30
0.000000
  0
VERTEX
  8
Page1
 10
-17752.062444
 20
5685.820476
 30
0.000000
  0
VERTEX
  8
Page1
 10
-17752.661493
 20
5685.111981
 30
0.000000
  0
VERTEX
  8
Page1
 10
-17753.277084
 20
5684.418207
 30
0.000000
  0
VERTEX
  8
Page1
 10
-17753.908915
 20
5683.739459
 30
0.000000
  0
VERTEX
  8
Page1
 10
-17754.556683
 20
5683.076039
 30
0.000000
  0
VERTEX
  8
Page1
 10
-17755.220083
 20
5682.428251
 30
0.000000
  0
VERTEX
  8
Page1
 10
-17755.898813
 20
5681.796400
 30
0.000000
  0
VERTEX
  8
Page1
 10
-17756.592568
 20
5681.180788
 30
0.000000
  0
VERTEX
  8
Page1
 10
-17757.301045
 20
5680.581718
 30
0.000000
  0
VERTEX
  8
Page1
 10
-17758.023941
 20
5679.999495
 30
0.000000
  0
VERTEX
  8
Page1
 10
-17758.760953
 20
5679.434422
 30
0.000000
  0
VERTEX
  8
Page1
 10
-17759.511775
 20
5678.886802
 30
0.000000
  0
VERTEX
  8
Page1
 10
-17760.276106
 20
5678.356940
 30
0.000000
  0
VERTEX
  8
Page1
 10
-17761.053642
 20
5677.845138
 30
0.000000
  0
VERTEX
  8
Page1
 10
-17761.844079
 20
5677.351700
 30
0.000000
  0
VERTEX
  8
Page1
 10
-17762.647113
 20
5676.876929
 30
0.000000
  0
VERTEX
  8
Page1
 10
-17763.462442
 20
5676.421130
 30
0.000000
  0
VERTEX
  8
Page1
 10
-17764.289760
 20
5675.984605
 30
0.000000
  0
VERTEX
  8
Page1
 10
-17765.128766
 20
5675.567659
 30
0.000000
  0
VERTEX
  8
Page1
 10
-17765.979156
 20
5675.170594
 30
0.000000
  0
VERTEX
  8
Page1
 10
-17766.840625
 20
5674.793714
 30
0.000000
  0
VERTEX
  8
Page1
 10
-17767.712871
 20
5674.437323
 30
0.000000
  0
VERTEX
  8
Page1
 10
-17768.595590
 20
5674.101725
 30
0.000000
  0
VERTEX
  8
Page1
 10
-17769.488479
 20
5673.787222
 30
0.000000
  0
VERTEX
  8
Page1
 10
-17770.391233
 20
5673.494118
 30
0.000000
  0
VERTEX
  8
Page1
 10
-17771.303550
 20
5673.222718
 30
0.000000
  0
VERTEX
  8
Page1
 10
-17772.225125
 20
5672.973324
 30
0.000000
  0
VERTEX
  8
Page1
 10
-17773.155656
 20
5672.746239
 30
0.000000
  0
VERTEX
  8
Page1
 10
-17774.094839
 20
5672.541769
 30
0.000000
  0
VERTEX
  8
Page1
 10
-17775.042370
 20
5672.360215
 30
0.000000
  0
VERTEX
  8
Page1
 10
-17775.997946
 20
5672.201882
 30
0.000000
  0
VERTEX
  8
Page1
 10
-17776.961264
 20
5672.067072
 30
0.000000
  0
VERTEX
  8
Page1
 10
-17777.932019
 20
5671.956091
 30
0.000000
  0
VERTEX
  8
Page1
 10
-17778.909908
 20
5671.869240
 30
0.000000
  0
VERTEX
  8
Page1
 10
-17779.894628
 20
5671.806824
 30
0.000000
  0
VERTEX
  8
Page1
 10
-17780.885876
 20
5671.769147
 30
0.000000
  0
VERTEX
  8
Page1
 10
-17781.883347
 20
5671.756511
 30
0.000000
  0
VERTEX
  8
Page1
 10
-17781.883347
 20
5671.756511
 30
0.000000
  0
VERTEX
  8
Page1
 10
-18384.591439
 20
5671.748084
 30
0.000000
  0
VERTEX
  8
Page1
 10
-18384.591439
 20
5671.748084
 30
0.000000
  0
VERTEX
  8
Page1
 10
-18385.588908
 20
5671.760693
 30
0.000000
  0
VERTEX
  8
Page1
 10
-18386.580155
 20
5671.798343
 30
0.000000
  0
VERTEX
  8
Page1
 10
-18387.564876
 20
5671.860731
 30
0.000000
  0
VERTEX
  8
Page1
 10
-18388.542766
 20
5671.947554
 30
0.000000
  0
VERTEX
  8
Page1
 10
-18389.513523
 20
5672.058509
 30
0.000000
  0
VERTEX
  8
Page1
 10
-18390.476843
 20
5672.193291
 30
0.000000
  0
VERTEX
  8
Page1
 10
-18391.432422
 20
5672.351597
 30
0.000000
  0
VERTEX
  8
Page1
 10
-18392.379957
 20
5672.533125
 30
0.000000
  0
VERTEX
  8
Page1
 10
-18393.319145
 20
5672.737569
 30
0.000000
  0
VERTEX
  8
Page1
 10
-18394.249682
 20
5672.964627
 30
0.000000
  0
VERTEX
  8
Page1
 10
-18395.171263
 20
5673.213996
 30
0.000000
  0
VERTEX
  8
Page1
 10
-18396.083587
 20
5673.485371
 30
0.000000
  0
VERTEX
  8
Page1
 10
-18396.986349
 20
5673.778449
 30
0.000000
  0
VERTEX
  8
Page1
 10
-18397.879245
 20
5674.092926
 30
0.000000
  0
VERTEX
  8
Page1
 10
-18398.761973
 20
5674.428500
 30
0.000000
  0
VERTEX
  8
Page1
 10
-18399.634229
 20
5674.784867
 30
0.000000
  0
VERTEX
  8
Page1
 10
-18400.495709
 20
5675.161722
 30
0.000000
  0
VERTEX
  8
Page1
 10
-18401.346109
 20
5675.558763
 30
0.000000
  0
VERTEX
  8
Page1
 10
-18402.185126
 20
5675.975686
 30
0.000000
  0
VERTEX
  8
Page1
 10
-18403.012457
 20
5676.412187
 30
0.000000
  0
VERTEX
  8
Page1
 10
-18403.827798
 20
5676.867964
 30
0.000000
  0
VERTEX
  8
Page1
 10
-18404.630846
 20
5677.342712
 30
0.000000
  0
VERTEX
  8
Page1
 10
-18405.421297
 20
5677.836127
 30
0.000000
  0
VERTEX
  8
Page1
 10
-18406.198847
 20
5678.347908
 30
0.000000
  0
VERTEX
  8
Page1
 10
-18406.963193
 20
5678.877748
 30
0.000000
  0
VERTEX
  8
Page1
 10
-18407.714031
 20
5679.425347
 30
0.000000
  0
VERTEX
  8
Page1
 10
-18408.451058
 20
5679.990399
 30
0.000000
  0
VERTEX
  8
Page1
 10
-18409.173971
 20
5680.572601
 30
0.000000
  0
VERTEX
  8
Page1
 10
-18409.882466
 20
5681.171651
 30
0.000000
  0
VERTEX
  8
Page1
 10
-18410.576238
 20
5681.787243
 30
0.000000
  0
VERTEX
  8
Page1
 10
-18411.254986
 20
5682.419075
 30
0.000000
  0
VERTEX
  8
Page1
 10
-18411.918405
 20
5683.066844
 30
0.000000
  0
VERTEX
  8
Page1
 10
-18412.566191
 20
5683.730245
 30
0.000000
  0
VERTEX
  8
Page1
 10
-18413.198042
 20
5684.408975
 30
0.000000
  0
VERTEX
  8
Page1
 10
-18413.813653
 20
5685.102731
 30
0.000000
  0
VERTEX
  8
Page1
 10
-18414.412722
 20
5685.811209
 30
0.000000
  0
VERTEX
  8
Page1
 10
-18414.994944
 20
5686.534106
 30
0.000000
  0
VERTEX
  8
Page1
 10
-18415.560016
 20
5687.271118
 30
0.000000
  0
VERTEX
  8
Page1
 10
-18416.107635
 20
5688.021941
 30
0.000000
  0
VERTEX
  8
Page1
 10
-18416.637497
 20
5688.786272
 30
0.000000
  0
VERTEX
  8
Page1
 10
-18417.149298
 20
5689.563808
 30
0.000000
  0
VERTEX
  8
Page1
 10
-18417.642735
 20
5690.354245
 30
0.000000
  0
VERTEX
  8
Page1
 10
-18418.117505
 20
5691.157279
 30
0.000000
  0
VERTEX
  8
Page1
 10
-18418.573303
 20
5691.972608
 30
0.000000
  0
VERTEX
  8
Page1
 10
-18419.009827
 20
5692.799926
 30
0.000000
  0
VERTEX
  8
Page1
 10
-18419.426773
 20
5693.638932
 30
0.000000
  0
VERTEX
  8
Page1
 10
-18419.823837
 20
5694.489321
 30
0.000000
  0
VERTEX
  8
Page1
 10
-18420.200716
 20
5695.350790
 30
0.000000
  0
VERTEX
  8
Page1
 10
-18420.557107
 20
5696.223035
 30
0.000000
  0
VERTEX
  8
Page1
 10
-18420.892705
 20
5697.105753
 30
0.000000
  0
VERTEX
  8
Page1
 10
-18421.207207
 20
5697.998640
 30
0.000000
  0
VERTEX
  8
Page1
 10
-18421.500310
 20
5698.901394
 30
0.000000
  0
VERTEX
  8
Page1
 10
-18421.771710
 20
5699.813709
 30
0.000000
  0
VERTEX
  8
Page1
 10
-18422.021103
 20
5700.735283
 30
0.000000
  0
VERTEX
  8
Page1
 10
-18422.248187
 20
5701.665812
 30
0.000000
  0
VERTEX
  8
Page1
 10
-18422.452658
 20
5702.604993
 30
0.000000
  0
VERTEX
  8
Page1
 10
-18422.634211
 20
5703.552522
 30
0.000000
  0
VERTEX
  8
Page1
 10
-18422.792544
 20
5704.508096
 30
0.000000
  0
VERTEX
  8
Page1
 10
-18422.927353
 20
5705.471411
 30
0.000000
  0
VERTEX
  8
Page1
 10
-18423.038334
 20
5706.442164
 30
0.000000
  0
VERTEX
  8
Page1
 10
-18423.125185
 20
5707.420050
 30
0.000000
  0
VERTEX
  8
Page1
 10
-18423.187600
 20
5708.404767
 30
0.000000
  0
VERTEX
  8
Page1
 10
-18423.225278
 20
5709.396012
 30
0.000000
  0
VERTEX
  8
Page1
 10
-18423.237914
 20
5710.393479
 30
0.000000
  0
VERTEX
  8
Page1
 10
-18423.237914
 20
5710.393479
 30
0.000000
  0
VERTEX
  8
Page1
 10
-18423.250534
 20
6613.101533
 30
0.000000
  0
VERTEX
  8
Page1
 10
-18423.250534
 20
6613.101533
 30
0.000000
  0
VERTEX
  8
Page1
 10
-18423.237926
 20
6614.099008
 30
0.000000
  0
VERTEX
  8
Page1
 10
-18423.200276
 20
6615.090260
 30
0.000000
  0
VERTEX
  8
Page1
 10
-18423.137888
 20
6616.074985
 30
0.000000
  0
VERTEX
  8
Page1
 10
-18423.051065
 20
6617.052881
 30
0.000000
  0
VERTEX
  8
Page1
 10
-18422.940110
 20
6618.023643
 30
0.000000
  0
VERTEX
  8
Page1
 10
-18422.805328
 20
6618.986967
 30
0.000000
  0
VERTEX
  8
Page1
 10
-18422.647021
 20
6619.942551
 30
0.000000
  0
VERTEX
  8
Page1
 10
-18422.465494
 20
6620.890091
 30
0.000000
  0
VERTEX
  8
Page1
 10
-18422.261049
 20
6621.829283
 30
0.000000
  0
VERTEX
  8
Page1
 10
-18422.033991
 20
6622.759824
 30
0.000000
  0
VERTEX
  8
Page1
 10
-18421.784623
 20
6623.681410
 30
0.000000
  0
VERTEX
  8
Page1
 10
-18421.513248
 20
6624.593738
 30
0.000000
  0
VERTEX
  8
Page1
 10
-18421.220170
 20
6625.496504
 30
0.000000
  0
VERTEX
  8
Page1
 10
-18420.905692
 20
6626.389404
 30
0.000000
  0
VERTEX
  8
Page1
 10
-18420.570118
 20
6627.272136
 30
0.000000
  0
VERTEX
  8
Page1
 10
-18420.213751
 20
6628.144395
 30
0.000000
  0
VERTEX
  8
Page1
 10
-18419.836896
 20
6629.005879
 30
0.000000
  0
VERTEX
  8
Page1
 10
-18419.439855
 20
6629.856282
 30
0.000000
  0
VERTEX
  8
Page1
 10
-18419.022932
 20
6630.695303
 30
0.000000
  0
VERTEX
  8
Page1
 10
-18418.586430
 20
6631.522638
 30
0.000000
  0
VERTEX
  8
Page1
 10
-18418.130653
 20
6632.337982
 30
0.000000
  0
VERTEX
  8
Page1
 10
-18417.655905
 20
6633.141033
 30
0.000000
  0
VERTEX
  8
Page1
 10
-18417.162490
 20
6633.931486
 30
0.000000
  0
VERTEX
  8
Page1
 10
-18416.650709
 20
6634.709039
 30
0.000000
  0
VERTEX
  8
Page1
 10
-18416.120868
 20
6635.473388
 30
0.000000
  0
VERTEX
  8
Page1
 10
-18415.573269
 20
6636.224230
 30
0.000000
  0
VERTEX
  8
Page1
 10
-18415.008217
 20
6636.961260
 30
0.000000
  0
VERTEX
  8
Page1
 10
-18414.426014
 20
6637.684175
 30
0.000000
  0
VERTEX
  8
Page1
 10
-18413.826964
 20
6638.392672
 30
0.000000
  0
VERTEX
  8
Page1
 10
-18413.211372
 20
6639.086447
 30
0.000000
  0
VERTEX
  8
Page1
 10
-18412.579539
 20
6639.765197
 30
0.000000
  0
VERTEX
  8
Page1
 10
-18411.931770
 20
6640.428618
 30
0.000000
  0
VERTEX
  8
Page1
 10
-18411.268369
 20
6641.076407
 30
0.000000
  0
VERTEX
  8
Page1
 10
-18410.589638
 20
6641.708260
 30
0.000000
  0
VERTEX
  8
Page1
 10
-18409.895881
 20
6642.323873
 30
0.000000
  0
VERTEX
  8
Page1
 10
-18409.187403
 20
6642.922944
 30
0.000000
  0
VERTEX
  8
Page1
 10
-18408.464505
 20
6643.505168
 30
0.000000
  0
VERTEX
  8
Page1
 10
-18407.727493
 20
6644.070242
 30
0.000000
  0
VERTEX
  8
Page1
 10
-18406.976669
 20
6644.617862
 30
0.000000
  0
VERTEX
  8
Page1
 10
-18406.212337
 20
6645.147725
 30
0.000000
  0
VERTEX
  8
Page1
 10
-18405.434800
 20
6645.659528
 30
0.000000
  0
VERTEX
  8
Page1
 10
-18404.644363
 20
6646.152967
 30
0.000000
  0
VERTEX
  8
Page1
 10
-18403.841328
 20
6646.627738
 30
0.000000
  0
VERTEX
  8
Page1
 10
-18403.025999
 20
6647.083538
 30
0.000000
  0
VERTEX
  8
Page1
 10
-18402.198679
 20
6647.520063
 30
0.000000
  0
VERTEX
  8
Page1
 10
-18401.359672
 20
6647.937010
 30
0.000000
  0
VERTEX
  8
Page1
 10
-18400.509283
 20
6648.334075
 30
0.000000
  0
VERTEX
  8
Page1
 10
-18399.647813
 20
6648.710955
 30
0.000000
  0
VERTEX
  8
Page1
 10
-18398.775566
 20
6649.067347
 30
0.000000
  0
VERTEX
  8
Page1
 10
-18397.892847
 20
6649.402945
 30
0.000000
  0
VERTEX
  8
Page1
 10
-18396.999959
 20
6649.717449
 30
0.000000
  0
VERTEX
  8
Page1
 10
-18396.097205
 20
6650.010552
 30
0.000000
  0
VERTEX
  8
Page1
 10
-18395.184888
 20
6650.281953
 30
0.000000
  0
VERTEX
  8
Page1
 10
-18394.263313
 20
6650.531347
 30
0.000000
  0
VERTEX
  8
Page1
 10
-18393.332782
 20
6650.758432
 30
0.000000
  0
VERTEX
  8
Page1
 10
-18392.393600
 20
6650.962902
 30
0.000000
  0
VERTEX
  8
Page1
 10
-18391.446069
 20
6651.144456
 30
0.000000
  0
VERTEX
  8
Page1
 10
-18390.490494
 20
6651.302790
 30
0.000000
  0
VERTEX
  8
Page1
 10
-18389.527178
 20
6651.437599
 30
0.000000
  0
VERTEX
  8
Page1
 10
-18388.556424
 20
6651.548581
 30
0.000000
  0
VERTEX
  8
Page1
 10
-18387.578535
 20
6651.635431
 30
0.000000
  0
VERTEX
  8
Page1
 10
-18386.593817
 20
6651.697847
 30
0.000000
  0
VERTEX
  8
Page1
 10
-18385.602571
 20
6651.735525
 30
0.000000
  0
VERTEX
  8
Page1
 10
-18384.605101
 20
6651.748161
 30
0.000000
  0
VERTEX
  8
Page1
 10
-18384.605101
 20
6651.748161
 30
0.000000
  0
VERTEX
  8
Page1
 10
-17781.897048
 20
6651.756587
 30
0.000000
  0
VERTEX
  8
Page1
 10
-17781.897048
 20
6651.756587
 30
0.000000
  0
VERTEX
  8
Page1
 10
-17780.899576
 20
6651.743979
 30
0.000000
  0
VERTEX
  8
Page1
 10
-17779.908328
 20
6651.706329
 30
0.000000
  0
VERTEX
  8
Page1
 10
-17778.923606
 20
6651.643940
 30
0.000000
  0
VERTEX
  8
Page1
 10
-17777.945714
 20
6651.557117
 30
0.000000
  0
VERTEX
  8
Page1
 10
-17776.974956
 20
6651.446163
 30
0.000000
  0
VERTEX
  8
Page1
 10
-17776.011635
 20
6651.311380
 30
0.000000
  0
VERTEX
  8
Page1
 10
-17775.056054
 20
6651.153074
 30
0.000000
  0
VERTEX
  8
Page1
 10
-17774.108518
 20
6650.971546
 30
0.000000
  0
VERTEX
  8
Page1
 10
-17773.169329
 20
6650.767102
 30
0.000000
  0
VERTEX
  8
Page1
 10
-17772.238792
 20
6650.540043
 30
0.000000
  0
VERTEX
  8
Page1
 10
-17771.317210
 20
6650.290675
 30
0.000000
  0
VERTEX
  8
Page1
 10
-17770.404885
 20
6650.019300
 30
0.000000
  0
VERTEX
  8
Page1
 10
-17769.502123
 20
6649.726221
 30
0.000000
  0
VERTEX
  8
Page1
 10
-17768.609226
 20
6649.411743
 30
0.000000
  0
VERTEX
  8
Page1
 10
-17767.726497
 20
6649.076169
 30
0.000000
  0
VERTEX
  8
Page1
 10
-17766.854241
 20
6648.719802
 30
0.000000
  0
VERTEX
  8
Page1
 10
-17765.992761
 20
6648.342946
 30
0.000000
  0
VERTEX
  8
Page1
 10
-17765.142361
 20
6647.945905
 30
0.000000
  0
VERTEX
  8
Page1
 10
-17764.303343
 20
6647.528981
 30
0.000000
  0
VERTEX
  8
Page1
 10
-17763.476012
 20
6647.092479
 30
0.000000
  0
VERTEX
  8
Page1
 10
-17762.660671
 20
6646.636702
 30
0.000000
  0
VERTEX
  8
Page1
 10
-17761.857623
 20
6646.161953
 30
0.000000
  0
VERTEX
  8
Page1
 10
-17761.067173
 20
6645.668537
 30
0.000000
  0
VERTEX
  8
Page1
 10
-17760.289623
 20
6645.156756
 30
0.000000
  0
VERTEX
  8
Page1
 10
-17759.525277
 20
6644.626914
 30
0.000000
  0
VERTEX
  8
Page1
 10
-17758.774439
 20
6644.079314
 30
0.000000
  0
VERTEX
  8
Page1
 10
-17758.037412
 20
6643.514261
 30
0.000000
  0
VERTEX
  8
Page1
 10
-17757.314499
 20
6642.932057
 30
0.000000
  0
VERTEX
  8
Page1
 10
-17756.606005
 20
6642.333006
 30
0.000000
  0
VERTEX
  8
Page1
 10
-17755.912233
 20
6641.717412
 30
0.000000
  0
VERTEX
  8
Page1
 10
-17755.233486
 20
6641.085579
 30
0.000000
  0
VERTEX
  8
Page1
 10
-17754.570067
 20
6640.437808
 30
0.000000
  0
VERTEX
  8
Page1
 10
-17753.922281
 20
6639.774405
 30
0.000000
  0
VERTEX
  8
Page1
 10
-17753.290431
 20
6639.095673
 30
0.000000
  0
VERTEX
  8
Page1
 10
-17752.674820
 20
6638.401915
 30
0.000000
  0
VERTEX
  8
Page1
 10
-17752.075752
 20
6637.693435
 30
0.000000
  0
VERTEX
  8
Page1
 10
-17751.493531
 20
6636.970536
 30
0.000000
  0
VERTEX
  8
Page1
 10
-17750.928459
 20
6636.233522
 30
0.000000
  0
VERTEX
  8
Page1
 10
-17750.380841
 20
6635.482696
 30
0.000000
  0
VERTEX
  8
Page1
 10
-17749.850980
 20
6634.718362
 30
0.000000
  0
VERTEX
  8
Page1
 10
-17749.339179
 20
6633.940823
 30
0.000000
  0
VERTEX
  8
Page1
 10
-17748.845742
 20
6633.150383
 30
0.000000
  0
VERTEX
  8
Page1
 10
-17748.370973
 20
6632.347346
 30
0.000000
  0
VERTEX
  8
Page1
 10
-17747.915175
 20
6631.532014
 30
0.000000
  0
VERTEX
  8
Page1
 10
-17747.478652
 20
6630.704692
 30
0.000000
  0
VERTEX
  8
Page1
 10
-17747.061707
 20
6629.865683
 30
0.000000
  0
VERTEX
  8
Page1
 10
-17746.664643
 20
6629.015290
 30
0.000000
  0
VERTEX
  8
Page1
 10
-17746.287765
 20
6628.153817
 30
0.000000
  0
VERTEX
  8
Page1
 10
-17745.931375
 20
6627.281568
 30
0.000000
  0
VERTEX
  8
Page1
 10
-17745.595777
 20
6626.398845
 30
0.000000
  0
VERTEX
  8
Page1
 10
-17745.281276
 20
6625.505954
 30
0.000000
  0
VERTEX
  8
Page1
 10
-17744.988173
 20
6624.603196
 30
0.000000
  0
VERTEX
  8
Page1
 10
-17744.716774
 20
6623.690876
 30
0.000000
  0
VERTEX
  8
Page1
 10
-17744.467381
 20
6622.769297
 30
0.000000
  0
VERTEX
  8
Page1
 10
-17744.240297
 20
6621.838762
 30
0.000000
  0
VERTEX
  8
Page1
 10
-17744.035827
 20
6620.899576
 30
0.000000
  0
VERTEX
  8
Page1
 10
-17743.854274
 20
6619.952041
 30
0.000000
  0
VERTEX
  8
Page1
 10
-17743.695942
 20
6618.996461
 30
0.000000
  0
VERTEX
  8
Page1
 10
-17743.561133
 20
6618.033141
 30
0.000000
  0
VERTEX
  8
Page1
 10
-17743.450152
 20
6617.062382
 30
0.000000
  0
VERTEX
  8
Page1
 10
-17743.363302
 20
6616.084489
 30
0.000000
  0
VERTEX
  8
Page1
 10
-17743.300886
 20
6615.099765
 30
0.000000
  0
VERTEX
  8
Page1
 10
-17743.263208
 20
6614.108514
 30
0.000000
  0
VERTEX
  8
Page1
 10
-17743.250572
 20
6613.111039
 30
0.000000
  0
SEQEND
  8
Page1
  0
POLYLINE
  8
Page1
 10
0
 20
0
 30
0
 66
1
  0
VERTEX
  8
Page1
 10
-19106.248583
 20
6693.196080
 30
0.000000
  0
VERTEX
  8
Page1
 10
-19106.248583
 20
7595.904095
 30
0.000000
  0
VERTEX
  8
Page1
 10
-19106.248583
 20
7595.904095
 30
0.000000
  0
VERTEX
  8
Page1
 10
-19106.235961
 20
7596.901565
 30
0.000000
  0
VERTEX
  8
Page1
 10
-19106.198297
 20
7597.892811
 30
0.000000
  0
VERTEX
  8
Page1
 10
-19106.135895
 20
7598.877531
 30
0.000000
  0
VERTEX
  8
Page1
 10
-19106.049059
 20
7599.855420
 30
0.000000
  0
VERTEX
  8
Page1
 10
-19105.938091
 20
7600.826176
 30
0.000000
  0
VERTEX
  8
Page1
 10
-19105.803296
 20
7601.789494
 30
0.000000
  0
VERTEX
  8
Page1
 10
-19105.644977
 20
7602.745072
 30
0.000000
  0
VERTEX
  8
Page1
 10
-19105.463437
 20
7603.692605
 30
0.000000
  0
VERTEX
  8
Page1
 10
-19105.258980
 20
7604.631790
 30
0.000000
  0
VERTEX
  8
Page1
 10
-19105.031910
 20
7605.562324
 30
0.000000
  0
VERTEX
  8
Page1
 10
-19104.782529
 20
7606.483902
 30
0.000000
  0
VERTEX
  8
Page1
 10
-19104.511142
 20
7607.396223
 30
0.000000
  0
VERTEX
  8
Page1
 10
-19104.218053
 20
7608.298981
 30
0.000000
  0
VERTEX
  8
Page1
 10
-19103.903563
 20
7609.191874
 30
0.000000
  0
VERTEX
  8
Page1
 10
-19103.567978
 20
7610.074598
 30
0.000000
  0
VERTEX
  8
Page1
 10
-19103.211601
 20
7610.946849
 30
0.000000
  0
VERTEX
  8
Page1
 10
-19102.834734
 20
7611.808324
 30
0.000000
  0
VERTEX
  8
Page1
 10
-19102.437683
 20
7612.658720
 30
0.000000
  0
VERTEX
  8
Page1
 10
-19102.020749
 20
7613.497732
 30
0.000000
  0
VERTEX
  8
Page1
 10
-19101.584237
 20
7614.325058
 30
0.000000
  0
VERTEX
  8
Page1
 10
-19101.128451
 20
7615.140393
 30
0.000000
  0
VERTEX
  8
Page1
 10
-19100.653693
 20
7615.943435
 30
0.000000
  0
VERTEX
  8
Page1
 10
-19100.160267
 20
7616.733879
 30
0.000000
  0
VERTEX
  8
Page1
 10
-19099.648478
 20
7617.511423
 30
0.000000
  0
VERTEX
  8
Page1
 10
-19099.118627
 20
7618.275763
 30
0.000000
  0
VERTEX
  8
Page1
 10
-19098.571019
 20
7619.026594
 30
0.000000
  0
VERTEX
  8
Page1
 10
-19098.005958
 20
7619.763615
 30
0.000000
  0
VERTEX
  8
Page1
 10
-19097.423747
 20
7620.486520
 30
0.000000
  0
VERTEX
  8
Page1
 10
-19096.824689
 20
7621.195007
 30
0.000000
  0
VERTEX
  8
Page1
 10
-19096.209087
 20
7621.888772
 30
0.000000
  0
VERTEX
  8
Page1
 10
-19095.577247
 20
7622.567512
 30
0.000000
  0
VERTEX
  8
Page1
 10
-19094.929470
 20
7623.230922
 30
0.000000
  0
VERTEX
  8
Page1
 10
-19094.266061
 20
7623.878700
 30
0.000000
  0
VERTEX
  8
Page1
 10
-19093.587322
 20
7624.510543
 30
0.000000
  0
VERTEX
  8
Page1
 10
-19092.893558
 20
7625.126145
 30
0.000000
  0
VERTEX
  8
Page1
 10
-19092.185073
 20
7625.725205
 30
0.000000
  0
VERTEX
  8
Page1
 10
-19091.462168
 20
7626.307417
 30
0.000000
  0
VERTEX
  8
Page1
 10
-19090.725149
 20
7626.872480
 30
0.000000
  0
VERTEX
  8
Page1
 10
-19089.974319
 20
7627.420089
 30
0.000000
  0
VERTEX
  8
Page1
 10
-19089.209980
 20
7627.949941
 30
0.000000
  0
VERTEX
  8
Page1
 10
-19088.432437
 20
7628.461732
 30
0.000000
  0
VERTEX
  8
Page1
 10
-19087.641994
 20
7628.955159
 30
0.000000
  0
VERTEX
  8
Page1
 10
-19086.838953
 20
7629.429919
 30
0.000000
  0
VERTEX
  8
Page1
 10
-19086.023618
 20
7629.885707
 30
0.000000
  0
VERTEX
  8
Page1
 10
-19085.196293
 20
7630.322220
 30
0.000000
  0
VERTEX
  8
Page1
 10
-19084.357281
 20
7630.739155
 30
0.000000
  0
VERTEX
  8
Page1
 10
-19083.506886
 20
7631.136208
 30
0.000000
  0
VERTEX
  8
Page1
 10
-19082.645412
 20
7631.513075
 30
0.000000
  0
VERTEX
  8
Page1
 10
-19081.773161
 20
7631.869454
 30
0.000000
  0
VERTEX
  8
Page1
 10
-19080.890437
 20
7632.205040
 30
0.000000
  0
VERTEX
  8
Page1
 10
-19079.997544
 20
7632.519531
 30
0.000000
  0
VERTEX
  8
Page1
 10
-19079.094786
 20
7632.812621
 30
0.000000
  0
VERTEX
  8
Page1
 10
-19078.182465
 20
7633.084009
 30
0.000000
  0
VERTEX
  8
Page1
 10
-19077.260886
 20
7633.333390
 30
0.000000
  0
VERTEX
  8
Page1
 10
-19076.330352
 20
7633.560462
 30
0.000000
  0
VERTEX
  8
Page1
 10
-19075.391166
 20
7633.764919
 30
0.000000
  0
VERTEX
  8
Page1
 10
-19074.443633
 20
7633.946460
 30
0.000000
  0
VERTEX
  8
Page1
 10
-19073.488054
 20
7634.104780
 30
0.000000
  0
VERTEX
  8
Page1
 10
-19072.524735
 20
7634.239575
 30
0.000000
  0
VERTEX
  8
Page1
 10
-19071.553979
 20
7634.350544
 30
0.000000
  0
VERTEX
  8
Page1
 10
-19070.576088
 20
7634.437380
 30
0.000000
  0
VERTEX
  8
Page1
 10
-19069.591367
 20
7634.499782
 30
0.000000
  0
VERTEX
  8
Page1
 10
-19068.600119
 20
7634.537446
 30
0.000000
  0
VERTEX
  8
Page1
 10
-19067.602648
 20
7634.550068
 30
0.000000
  0
VERTEX
  8
Page1
 10
-19067.602648
 20
7634.550068
 30
0.000000
  0
VERTEX
  8
Page1
 10
-18464.894556
 20
7634.550068
 30
0.000000
  0
VERTEX
  8
Page1
 10
-18464.894556
 20
7634.550068
 30
0.000000
  0
VERTEX
  8
Page1
 10
-18463.897086
 20
7634.537446
 30
0.000000
  0
VERTEX
  8
Page1
 10
-18462.905840
 20
7634.499782
 30
0.000000
  0
VERTEX
  8
Page1
 10
-18461.921120
 20
7634.437380
 30
0.000000
  0
VERTEX
  8
Page1
 10
-18460.943231
 20
7634.350544
 30
0.000000
  0
VERTEX
  8
Page1
 10
-18459.972476
 20
7634.239575
 30
0.000000
  0
VERTEX
  8
Page1
 10
-18459.009158
 20
7634.104780
 30
0.000000
  0
VERTEX
  8
Page1
 10
-18458.053581
 20
7633.946460
 30
0.000000
  0
VERTEX
  8
Page1
 10
-18457.106048
 20
7633.764919
 30
0.000000
  0
VERTEX
  8
Page1
 10
-18456.166863
 20
7633.560462
 30
0.000000
  0
VERTEX
  8
Page1
 10
-18455.236330
 20
7633.333391
 30
0.000000
  0
VERTEX
  8
Page1
 10
-18454.314752
 20
7633.084009
 30
0.000000
  0
VERTEX
  8
Page1
 10
-18453.402432
 20
7632.812622
 30
0.000000
  0
VERTEX
  8
Page1
 10
-18452.499674
 20
7632.519531
 30
0.000000
  0
VERTEX
  8
Page1
 10
-18451.606782
 20
7632.205041
 30
0.000000
  0
VERTEX
  8
Page1
 10
-18450.724059
 20
7631.869454
 30
0.000000
  0
VERTEX
  8
Page1
 10
-18449.851808
 20
7631.513076
 30
0.000000
  0
VERTEX
  8
Page1
 10
-18448.990334
 20
7631.136208
 30
0.000000
  0
VERTEX
  8
Page1
 10
-18448.139939
 20
7630.739156
 30
0.000000
  0
VERTEX
  8
Page1
 10
-18447.300927
 20
7630.322221
 30
0.000000
  0
VERTEX
  8
Page1
 10
-18446.473602
 20
7629.885708
 30
0.000000
  0
VERTEX
  8
Page1
 10
-18445.658267
 20
7629.429920
 30
0.000000
  0
VERTEX
  8
Page1
 10
-18444.855227
 20
7628.955161
 30
0.000000
  0
VERTEX
  8
Page1
 10
-18444.064783
 20
7628.461734
 30
0.000000
  0
VERTEX
  8
Page1
 10
-18443.287240
 20
7627.949943
 30
0.000000
  0
VERTEX
  8
Page1
 10
-18442.522901
 20
7627.420092
 30
0.000000
  0
VERTEX
  8
Page1
 10
-18441.772071
 20
7626.872483
 30
0.000000
  0
VERTEX
  8
Page1
 10
-18441.035051
 20
7626.307420
 30
0.000000
  0
VERTEX
  8
Page1
 10
-18440.312147
 20
7625.725208
 30
0.000000
  0
VERTEX
  8
Page1
 10
-18439.603661
 20
7625.126149
 30
0.000000
  0
VERTEX
  8
Page1
 10
-18438.909896
 20
7624.510546
 30
0.000000
  0
VERTEX
  8
Page1
 10
-18438.231158
 20
7623.878705
 30
0.000000
  0
VERTEX
  8
Page1
 10
-18437.567748
 20
7623.230927
 30
0.000000
  0
VERTEX
  8
Page1
 10
-18436.919971
 20
7622.567517
 30
0.000000
  0
VERTEX
  8
Page1
 10
-18436.288129
 20
7621.888778
 30
0.000000
  0
VERTEX
  8
Page1
 10
-18435.672528
 20
7621.195013
 30
0.000000
  0
VERTEX
  8
Page1
 10
-18435.073469
 20
7620.486527
 30
0.000000
  0
VERTEX
  8
Page1
 10
-18434.491257
 20
7619.763622
 30
0.000000
  0
VERTEX
  8
Page1
 10
-18433.926195
 20
7619.026602
 30
0.000000
  0
VERTEX
  8
Page1
 10
-18433.378587
 20
7618.275771
 30
0.000000
  0
VERTEX
  8
Page1
 10
-18432.848736
 20
7617.511432
 30
0.000000
  0
VERTEX
  8
Page1
 10
-18432.336945
 20
7616.733889
 30
0.000000
  0
VERTEX
  8
Page1
 10
-18431.843519
 20
7615.943446
 30
0.000000
  0
VERTEX
  8
Page1
 10
-18431.368761
 20
7615.140405
 30
0.000000
  0
VERTEX
  8
Page1
 10
-18430.912974
 20
7614.325070
 30
0.000000
  0
VERTEX
  8
Page1
 10
-18430.476461
 20
7613.497745
 30
0.000000
  0
VERTEX
  8
Page1
 10
-18430.059527
 20
7612.658734
 30
0.000000
  0
VERTEX
  8
Page1
 10
-18429.662475
 20
7611.808339
 30
0.000000
  0
VERTEX
  8
Page1
 10
-18429.285608
 20
7610.946865
 30
0.000000
  0
VERTEX
  8
Page1
 10
-18428.929230
 20
7610.074615
 30
0.000000
  0
VERTEX
  8
Page1
 10
-18428.593644
 20
7609.191892
 30
0.000000
  0
VERTEX
  8
Page1
 10
-18428.279155
 20
7608.299000
 30
0.000000
  0
VERTEX
  8
Page1
 10
-18427.986064
 20
7607.396243
 30
0.000000
  0
VERTEX
  8
Page1
 10
-18427.714677
 20
7606.483924
 30
0.000000
  0
VERTEX
  8
Page1
 10
-18427.465296
 20
7605.562347
 30
0.000000
  0
VERTEX
  8
Page1
 10
-18427.238225
 20
7604.631814
 30
0.000000
  0
VERTEX
  8
Page1
 10
-18427.033768
 20
7603.692630
 30
0.000000
  0
VERTEX
  8
Page1
 10
-18426.852228
 20
7602.745099
 30
0.000000
  0
VERTEX
  8
Page1
 10
-18426.693909
 20
7601.789523
 30
0.000000
  0
VERTEX
  8
Page1
 10
-18426.559113
 20
7600.826206
 30
0.000000
  0
VERTEX
  8
Page1
 10
-18426.448145
 20
7599.855452
 30
0.000000
  0
VERTEX
  8
Page1
 10
-18426.361309
 20
7598.877564
 30
0.000000
  0
VERTEX
  8
Page1
 10
-18426.298907
 20
7597.892846
 30
0.000000
  0
VERTEX
  8
Page1
 10
-18426.261243
 20
7596.901601
 30
0.000000
  0
VERTEX
  8
Page1
 10
-18426.248621
 20
7595.904133
 30
0.000000
  0
VERTEX
  8
Page1
 10
-18426.248621
 20
7595.904133
 30
0.000000
  0
VERTEX
  8
Page1
 10
-18426.248621
 20
6693.196080
 30
0.000000
  0
VERTEX
  8
Page1
 10
-18426.248621
 20
6693.196080
 30
0.000000
  0
VERTEX
  8
Page1
 10
-18426.261243
 20
6692.198605
 30
0.000000
  0
VERTEX
  8
Page1
 10
-18426.298907
 20
6691.207353
 30
0.000000
  0
VERTEX
  8
Page1
 10
-18426.361309
 20
6690.222629
 30
0.000000
  0
VERTEX
  8
Page1
 10
-18426.448146
 20
6689.244735
 30
0.000000
  0
VERTEX
  8
Page1
 10
-18426.559114
 20
6688.273974
 30
0.000000
  0
VERTEX
  8
Page1
 10
-18426.693909
 20
6687.310652
 30
0.000000
  0
VERTEX
  8
Page1
 10
-18426.852229
 20
6686.355070
 30
0.000000
  0
VERTEX
  8
Page1
 10
-18427.033770
 20
6685.407532
 30
0.000000
  0
VERTEX
  8
Page1
 10
-18427.238228
 20
6684.468343
 30
0.000000
  0
VERTEX
  8
Page1
 10
-18427.465299
 20
6683.537806
 30
0.000000
  0
VERTEX
  8
Page1
 10
-18427.714680
 20
6682.616223
 30
0.000000
  0
VERTEX
  8
Page1
 10
-18427.986068
 20
6681.703899
 30
0.000000
  0
VERTEX
  8
Page1
 10
-18428.279159
 20
6680.801137
 30
0.000000
  0
VERTEX
  8
Page1
 10
-18428.593649
 20
6679.908241
 30
0.000000
  0
VERTEX
  8
Page1
 10
-18428.929235
 20
6679.025514
 30
0.000000
  0
VERTEX
  8
Page1
 10
-18429.285614
 20
6678.153260
 30
0.000000
  0
VERTEX
  8
Page1
 10
-18429.662482
 20
6677.291782
 30
0.000000
  0
VERTEX
  8
Page1
 10
-18430.059534
 20
6676.441383
 30
0.000000
  0
VERTEX
  8
Page1
 10
-18430.476469
 20
6675.602368
 30
0.000000
  0
VERTEX
  8
Page1
 10
-18430.912982
 20
6674.775040
 30
0.000000
  0
VERTEX
  8
Page1
 10
-18431.368770
 20
6673.959702
 30
0.000000
  0
VERTEX
  8
Page1
 10
-18431.843530
 20
6673.156658
 30
0.000000
  0
VERTEX
  8
Page1
 10
-18432.336957
 20
6672.366211
 30
0.000000
  0
VERTEX
  8
Page1
 10
-18432.848748
 20
6671.588665
 30
0.000000
  0
VERTEX
  8
Page1
 10
-18433.378600
 20
6670.824324
 30
0.000000
  0
VERTEX
  8
Page1
 10
-18433.926209
 20
6670.073490
 30
0.000000
  0
VERTEX
  8
Page1
 10
-18434.491272
 20
6669.336468
 30
0.000000
  0
VERTEX
  8
Page1
 10
-18435.073485
 20
6668.613561
 30
0.000000
  0
VERTEX
  8
Page1
 10
-18435.672544
 20
6667.905072
 30
0.000000
  0
VERTEX
  8
Page1
 10
-18436.288147
 20
6667.211306
 30
0.000000
  0
VERTEX
  8
Page1
 10
-18436.919989
 20
6666.532565
 30
0.000000
  0
VERTEX
  8
Page1
 10
-18437.567767
 20
6665.869153
 30
0.000000
  0
VERTEX
  8
Page1
 10
-18438.231178
 20
6665.221373
 30
0.000000
  0
VERTEX
  8
Page1
 10
-18438.909917
 20
6664.589530
 30
0.000000
  0
VERTEX
  8
Page1
 10
-18439.603682
 20
6663.973926
 30
0.000000
  0
VERTEX
  8
Page1
 10
-18440.312169
 20
6663.374866
 30
0.000000
  0
VERTEX
  8
Page1
 10
-18441.035075
 20
6662.792652
 30
0.000000
  0
VERTEX
  8
Page1
 10
-18441.772095
 20
6662.227588
 30
0.000000
  0
VERTEX
  8
Page1
 10
-18442.522927
 20
6661.679978
 30
0.000000
  0
VERTEX
  8
Page1
 10
-18443.287266
 20
6661.150125
 30
0.000000
  0
VERTEX
  8
Page1
 10
-18444.064810
 20
6660.638333
 30
0.000000
  0
VERTEX
  8
Page1
 10
-18444.855254
 20
6660.144906
 30
0.000000
  0
VERTEX
  8
Page1
 10
-18445.658296
 20
6659.670146
 30
0.000000
  0
VERTEX
  8
Page1
 10
-18446.473632
 20
6659.214357
 30
0.000000
  0
VERTEX
  8
Page1
 10
-18447.300957
 20
6658.777844
 30
0.000000
  0
VERTEX
  8
Page1
 10
-18448.139970
 20
6658.360908
 30
0.000000
  0
VERTEX
  8
Page1
 10
-18448.990365
 20
6657.963855
 30
0.000000
  0
VERTEX
  8
Page1
 10
-18449.851840
 20
6657.586987
 30
0.000000
  0
VERTEX
  8
Page1
 10
-18450.724091
 20
6657.230608
 30
0.000000
  0
VERTEX
  8
Page1
 10
-18451.606815
 20
6656.895022
 30
0.000000
  0
VERTEX
  8
Page1
 10
-18452.499708
 20
6656.580531
 30
0.000000
  0
VERTEX
  8
Page1
 10
-18453.402466
 20
6656.287440
 30
0.000000
  0
VERTEX
  8
Page1
 10
-18454.314787
 20
6656.016052
 30
0.000000
  0
VERTEX
  8
Page1
 10
-18455.236366
 20
6655.766671
 30
0.000000
  0
VERTEX
  8
Page1
 10
-18456.166899
 20
6655.539599
 30
0.000000
  0
VERTEX
  8
Page1
 10
-18457.106084
 20
6655.335141
 30
0.000000
  0
VERTEX
  8
Page1
 10
-18458.053618
 20
6655.153601
 30
0.000000
  0
VERTEX
  8
Page1
 10
-18459.009195
 20
6654.995281
 30
0.000000
  0
VERTEX
  8
Page1
 10
-18459.972513
 20
6654.860485
 30
0.000000
  0
VERTEX
  8
Page1
 10
-18460.943269
 20
6654.749517
 30
0.000000
  0
VERTEX
  8
Page1
 10
-18461.921158
 20
6654.662680
 30
0.000000
  0
VERTEX
  8
Page1
 10
-18462.905878
 20
6654.600278
 30
0.000000
  0
VERTEX
  8
Page1
 10
-18463.897124
 20
6654.562614
 30
0.000000
  0
VERTEX
  8
Page1
 10
-18464.894594
 20
6654.549992
 30
0.000000
  0
VERTEX
  8
Page1
 10
-18464.894594
 20
6654.549992
 30
0.000000
  0
VERTEX
  8
Page1
 10
-19067.602648
 20
6654.549992
 30
0.000000
  0
VERTEX
  8
Page1
 10
-19067.602648
 20
6654.549992
 30
0.000000
  0
VERTEX
  8
Page1
 10
-19068.600119
 20
6654.562614
 30
0.000000
  0
VERTEX
  8
Page1
 10
-19069.591367
 20
6654.600278
 30
0.000000
  0
VERTEX
  8
Page1
 10
-19070.576088
 20
6654.662680
 30
0.000000
  0
VERTEX
  8
Page1
 10
-19071.553979
 20
6654.749517
 30
0.000000
  0
VERTEX
  8
Page1
 10
-19072.524735
 20
6654.860485
 30
0.000000
  0
VERTEX
  8
Page1
 10
-19073.488054
 20
6654.995281
 30
0.000000
  0
VERTEX
  8
Page1
 10
-19074.443633
 20
6655.153601
 30
0.000000
  0
VERTEX
  8
Page1
 10
-19075.391166
 20
6655.335141
 30
0.000000
  0
VERTEX
  8
Page1
 10
-19076.330352
 20
6655.539599
 30
0.000000
  0
VERTEX
  8
Page1
 10
-19077.260886
 20
6655.766671
 30
0.000000
  0
VERTEX
  8
Page1
 10
-19078.182465
 20
6656.016052
 30
0.000000
  0
VERTEX
  8
Page1
 10
-19079.094786
 20
6656.287440
 30
0.000000
  0
VERTEX
  8
Page1
 10
-19079.997544
 20
6656.580531
 30
0.000000
  0
VERTEX
  8
Page1
 10
-19080.890437
 20
6656.895022
 30
0.000000
  0
VERTEX
  8
Page1
 10
-19081.773161
 20
6657.230608
 30
0.000000
  0
VERTEX
  8
Page1
 10
-19082.645412
 20
6657.586987
 30
0.000000
  0
VERTEX
  8
Page1
 10
-19083.506886
 20
6657.963855
 30
0.000000
  0
VERTEX
  8
Page1
 10
-19084.357281
 20
6658.360908
 30
0.000000
  0
VERTEX
  8
Page1
 10
-19085.196293
 20
6658.777844
 30
0.000000
  0
VERTEX
  8
Page1
 10
-19086.023618
 20
6659.214357
 30
0.000000
  0
VERTEX
  8
Page1
 10
-19086.838953
 20
6659.670146
 30
0.000000
  0
VERTEX
  8
Page1
 10
-19087.641994
 20
6660.144906
 30
0.000000
  0
VERTEX
  8
Page1
 10
-19088.432437
 20
6660.638333
 30
0.000000
  0
VERTEX
  8
Page1
 10
-19089.209980
 20
6661.150125
 30
0.000000
  0
VERTEX
  8
Page1
 10
-19089.974319
 20
6661.679978
 30
0.000000
  0
VERTEX
  8
Page1
 10
-19090.725149
 20
6662.227588
 30
0.000000
  0
VERTEX
  8
Page1
 10
-19091.462168
 20
6662.792652
 30
0.000000
  0
VERTEX
  8
Page1
 10
-19092.185073
 20
6663.374866
 30
0.000000
  0
VERTEX
  8
Page1
 10
-19092.893558
 20
6663.973926
 30
0.000000
  0
VERTEX
  8
Page1
 10
-19093.587322
 20
6664.589530
 30
0.000000
  0
VERTEX
  8
Page1
 10
-19094.266061
 20
6665.221373
 30
0.000000
  0
VERTEX
  8
Page1
 10
-19094.929470
 20
6665.869153
 30
0.000000
  0
VERTEX
  8
Page1
 10
-19095.577247
 20
6666.532565
 30
0.000000
  0
VERTEX
  8
Page1
 10
-19096.209087
 20
6667.211306
 30
0.000000
  0
VERTEX
  8
Page1
 10
-19096.824689
 20
6667.905072
 30
0.000000
  0
VERTEX
  8
Page1
 10
-19097.423747
 20
6668.613561
 30
0.000000
  0
VERTEX
  8
Page1
 10
-19098.005958
 20
6669.336468
 30
0.000000
  0
VERTEX
  8
Page1
 10
-19098.571019
 20
6670.073490
 30
0.000000
  0
VERTEX
  8
Page1
 10
-19099.118627
 20
6670.824324
 30
0.000000
  0
VERTEX
  8
Page1
 10
-19099.648478
 20
6671.588665
 30
0.000000
  0
VERTEX
  8
Page1
 10
-19100.160267
 20
6672.366211
 30
0.000000
  0
VERTEX
  8
Page1
 10
-19100.653693
 20
6673.156658
 30
0.000000
  0
VERTEX
  8
Page1
 10
-19101.128451
 20
6673.959702
 30
0.000000
  0
VERTEX
  8
Page1
 10
-19101.584237
 20
6674.775040
 30
0.000000
  0
VERTEX
  8
Page1
 10
-19102.020749
 20
6675.602368
 30
0.000000
  0
VERTEX
  8
Page1
 10
-19102.437683
 20
6676.441383
 30
0.000000
  0
VERTEX
  8
Page1
 10
-19102.834734
 20
6677.291782
 30
0.000000
  0
VERTEX
  8
Page1
 10
-19103.211601
 20
6678.153260
 30
0.000000
  0
VERTEX
  8
Page1
 10
-19103.567978
 20
6679.025514
 30
0.000000
  0
VERTEX
  8
Page1
 10
-19103.903563
 20
6679.908241
 30
0.000000
  0
VERTEX
  8
Page1
 10
-19104.218053
 20
6680.801137
 30
0.000000
  0
VERTEX
  8
Page1
 10
-19104.511142
 20
6681.703899
 30
0.000000
  0
VERTEX
  8
Page1
 10
-19104.782529
 20
6682.616223
 30
0.000000
  0
VERTEX
  8
Page1
 10
-19105.031910
 20
6683.537806
 30
0.000000
  0
VERTEX
  8
Page1
 10
-19105.258980
 20
6684.468343
 30
0.000000
  0
VERTEX
  8
Page1
 10
-19105.463437
 20
6685.407532
 30
0.000000
  0
VERTEX
  8
Page1
 10
-19105.644977
 20
6686.355070
 30
0.000000
  0
VERTEX
  8
Page1
 10
-19105.803296
 20
6687.310652
 30
0.000000
  0
VERTEX
  8
Page1
 10
-19105.938091
 20
6688.273974
 30
0.000000
  0
VERTEX
  8
Page1
 10
-19106.049059
 20
6689.244735
 30
0.000000
  0
VERTEX
  8
Page1
 10
-19106.135895
 20
6690.222629
 30
0.000000
  0
VERTEX
  8
Page1
 10
-19106.198297
 20
6691.207353
 30
0.000000
  0
VERTEX
  8
Page1
 10
-19106.235961
 20
6692.198605
 30
0.000000
  0
VERTEX
  8
Page1
 10
-19106.248583
 20
6693.196080
 30
0.000000
  0
SEQEND
  8
Page1
  0
POLYLINE
  8
Page1
 10
0
 20
0
 30
0
 66
1
  0
VERTEX
  8
Page1
 10
-17743.250572
 20
7595.911039
 30
0.000000
  0
VERTEX
  8
Page1
 10
-17743.237952
 20
6693.203024
 30
0.000000
  0
VERTEX
  8
Page1
 10
-17743.237952
 20
6693.203024
 30
0.000000
  0
VERTEX
  8
Page1
 10
-17743.250560
 20
6692.205554
 30
0.000000
  0
VERTEX
  8
Page1
 10
-17743.288210
 20
6691.214307
 30
0.000000
  0
VERTEX
  8
Page1
 10
-17743.350598
 20
6690.229587
 30
0.000000
  0
VERTEX
  8
Page1
 10
-17743.437421
 20
6689.251696
 30
0.000000
  0
VERTEX
  8
Page1
 10
-17743.548375
 20
6688.280939
 30
0.000000
  0
VERTEX
  8
Page1
 10
-17743.683157
 20
6687.317619
 30
0.000000
  0
VERTEX
  8
Page1
 10
-17743.841463
 20
6686.362039
 30
0.000000
  0
VERTEX
  8
Page1
 10
-17744.022989
 20
6685.414504
 30
0.000000
  0
VERTEX
  8
Page1
 10
-17744.227433
 20
6684.475316
 30
0.000000
  0
VERTEX
  8
Page1
 10
-17744.454490
 20
6683.544779
 30
0.000000
  0
VERTEX
  8
Page1
 10
-17744.703858
 20
6682.623196
 30
0.000000
  0
VERTEX
  8
Page1
 10
-17744.975232
 20
6681.710872
 30
0.000000
  0
VERTEX
  8
Page1
 10
-17745.268309
 20
6680.808110
 30
0.000000
  0
VERTEX
  8
Page1
 10
-17745.582786
 20
6679.915213
 30
0.000000
  0
VERTEX
  8
Page1
 10
-17745.918358
 20
6679.032484
 30
0.000000
  0
VERTEX
  8
Page1
 10
-17746.274724
 20
6678.160228
 30
0.000000
  0
VERTEX
  8
Page1
 10
-17746.651578
 20
6677.298747
 30
0.000000
  0
VERTEX
  8
Page1
 10
-17747.048618
 20
6676.448346
 30
0.000000
  0
VERTEX
  8
Page1
 10
-17747.465540
 20
6675.609328
 30
0.000000
  0
VERTEX
  8
Page1
 10
-17747.902040
 20
6674.781996
 30
0.000000
  0
VERTEX
  8
Page1
 10
-17748.357815
 20
6673.966655
 30
0.000000
  0
VERTEX
  8
Page1
 10
-17748.832562
 20
6673.163606
 30
0.000000
  0
VERTEX
  8
Page1
 10
-17749.325976
 20
6672.373155
 30
0.000000
  0
VERTEX
  8
Page1
 10
-17749.837755
 20
6671.595604
 30
0.000000
  0
VERTEX
  8
Page1
 10
-17750.367595
 20
6670.831257
 30
0.000000
  0
VERTEX
  8
Page1
 10
-17750.915192
 20
6670.080418
 30
0.000000
  0
VERTEX
  8
Page1
 10
-17751.480243
 20
6669.343390
 30
0.000000
  0
VERTEX
  8
Page1
 10
-17752.062444
 20
6668.620476
 30
0.000000
  0
VERTEX
  8
Page1
 10
-17752.661493
 20
6667.911981
 30
0.000000
  0
VERTEX
  8
Page1
 10
-17753.277084
 20
6667.218207
 30
0.000000
  0
VERTEX
  8
Page1
 10
-17753.908915
 20
6666.539459
 30
0.000000
  0
VERTEX
  8
Page1
 10
-17754.556683
 20
6665.876039
 30
0.000000
  0
VERTEX
  8
Page1
 10
-17755.220083
 20
6665.228251
 30
0.000000
  0
VERTEX
  8
Page1
 10
-17755.898813
 20
6664.596400
 30
0.000000
  0
VERTEX
  8
Page1
 10
-17756.592568
 20
6663.980788
 30
0.000000
  0
VERTEX
  8
Page1
 10
-17757.301045
 20
6663.381718
 30
0.000000
  0
VERTEX
  8
Page1
 10
-17758.023941
 20
6662.799495
 30
0.000000
  0
VERTEX
  8
Page1
 10
-17758.760953
 20
6662.234422
 30
0.000000
  0
VERTEX
  8
Page1
 10
-17759.511775
 20
6661.686802
 30
0.000000
  0
VERTEX
  8
Page1
 10
-17760.276106
 20
6661.156940
 30
0.000000
  0
VERTEX
  8
Page1
 10
-17761.053642
 20
6660.645138
 30
0.000000
  0
VERTEX
  8
Page1
 10
-17761.844079
 20
6660.151700
 30
0.000000
  0
VERTEX
  8
Page1
 10
-17762.647113
 20
6659.676929
 30
0.000000
  0
VERTEX
  8
Page1
 10
-17763.462442
 20
6659.221130
 30
0.000000
  0
VERTEX
  8
Page1
 10
-17764.289760
 20
6658.784605
 30
0.000000
  0
VERTEX
  8
Page1
 10
-17765.128766
 20
6658.367659
 30
0.000000
  0
VERTEX
  8
Page1
 10
-17765.979156
 20
6657.970594
 30
0.000000
  0
VERTEX
  8
Page1
 10
-17766.840625
 20
6657.593714
 30
0.000000
  0
VERTEX
  8
Page1
 10
-17767.712871
 20
6657.237323
 30
0.000000
  0
VERTEX
  8
Page1
 10
-17768.595590
 20
6656.901725
 30
0.000000
  0
VERTEX
  8
Page1
 10
-17769.488479
 20
6656.587222
 30
0.000000
  0
VERTEX
  8
Page1
 10
-17770.391233
 20
6656.294118
 30
0.000000
  0
VERTEX
  8
Page1
 10
-17771.303550
 20
6656.022718
 30
0.000000
  0
VERTEX
  8
Page1
 10
-17772.225125
 20
6655.773324
 30
0.000000
  0
VERTEX
  8
Page1
 10
-17773.155656
 20
6655.546239
 30
0.000000
  0
VERTEX
  8
Page1
 10
-17774.094839
 20
6655.341769
 30
0.000000
  0
VERTEX
  8
Page1
 10
-17775.042370
 20
6655.160215
 30
0.000000
  0
VERTEX
  8
Page1
 10
-17775.997946
 20
6655.001882
 30
0.000000
  0
VERTEX
  8
Page1
 10
-17776.961264
 20
6654.867072
 30
0.000000
  0
VERTEX
  8
Page1
 10
-17777.932019
 20
6654.756091
 30
0.000000
  0
VERTEX
  8
Page1
 10
-17778.909908
 20
6654.669240
 30
0.000000
  0
VERTEX
  8
Page1
 10
-17779.894628
 20
6654.606824
 30
0.000000
  0
VERTEX
  8
Page1
 10
-17780.885876
 20
6654.569147
 30
0.000000
  0
VERTEX
  8
Page1
 10
-17781.883347
 20
6654.556511
 30
0.000000
  0
VERTEX
  8
Page1
 10
-17781.883347
 20
6654.556511
 30
0.000000
  0
VERTEX
  8
Page1
 10
-18384.591439
 20
6654.548084
 30
0.000000
  0
VERTEX
  8
Page1
 10
-18384.591439
 20
6654.548084
 30
0.000000
  0
VERTEX
  8
Page1
 10
-18385.588908
 20
6654.560693
 30
0.000000
  0
VERTEX
  8
Page1
 10
-18386.580155
 20
6654.598343
 30
0.000000
  0
VERTEX
  8
Page1
 10
-18387.564876
 20
6654.660731
 30
0.000000
  0
VERTEX
  8
Page1
 10
-18388.542766
 20
6654.747554
 30
0.000000
  0
VERTEX
  8
Page1
 10
-18389.513523
 20
6654.858509
 30
0.000000
  0
VERTEX
  8
Page1
 10
-18390.476843
 20
6654.993291
 30
0.000000
  0
VERTEX
  8
Page1
 10
-18391.432422
 20
6655.151597
 30
0.000000
  0
VERTEX
  8
Page1
 10
-18392.379957
 20
6655.333125
 30
0.000000
  0
VERTEX
  8
Page1
 10
-18393.319145
 20
6655.537569
 30
0.000000
  0
VERTEX
  8
Page1
 10
-18394.249682
 20
6655.764627
 30
0.000000
  0
VERTEX
  8
Page1
 10
-18395.171263
 20
6656.013996
 30
0.000000
  0
VERTEX
  8
Page1
 10
-18396.083587
 20
6656.285371
 30
0.000000
  0
VERTEX
  8
Page1
 10
-18396.986349
 20
6656.578449
 30
0.000000
  0
VERTEX
  8
Page1
 10
-18397.879245
 20
6656.892926
 30
0.000000
  0
VERTEX
  8
Page1
 10
-18398.761973
 20
6657.228500
 30
0.000000
  0
VERTEX
  8
Page1
 10
-18399.634229
 20
6657.584867
 30
0.000000
  0
VERTEX
  8
Page1
 10
-18400.495709
 20
6657.961722
 30
0.000000
  0
VERTEX
  8
Page1
 10
-18401.346109
 20
6658.358763
 30
0.000000
  0
VERTEX
  8
Page1
 10
-18402.185126
 20
6658.775686
 30
0.000000
  0
VERTEX
  8
Page1
 10
-18403.012457
 20
6659.212187
 30
0.000000
  0
VERTEX
  8
Page1
 10
-18403.827798
 20
6659.667964
 30
0.000000
  0
VERTEX
  8
Page1
 10
-18404.630846
 20
6660.142712
 30
0.000000
  0
VERTEX
  8
Page1
 10
-18405.421297
 20
6660.636127
 30
0.000000
  0
VERTEX
  8
Page1
 10
-18406.198847
 20
6661.147908
 30
0.000000
  0
VERTEX
  8
Page1
 10
-18406.963193
 20
6661.677748
 30
0.000000
  0
VERTEX
  8
Page1
 10
-18407.714031
 20
6662.225347
 30
0.000000
  0
VERTEX
  8
Page1
 10
-18408.451058
 20
6662.790399
 30
0.000000
  0
VERTEX
  8
Page1
 10
-18409.173971
 20
6663.372601
 30
0.000000
  0
VERTEX
  8
Page1
 10
-18409.882466
 20
6663.971651
 30
0.000000
  0
VERTEX
  8
Page1
 10
-18410.576238
 20
6664.587243
 30
0.000000
  0
VERTEX
  8
Page1
 10
-18411.254986
 20
6665.219075
 30
0.000000
  0
VERTEX
  8
Page1
 10
-18411.918405
 20
6665.866844
 30
0.000000
  0
VERTEX
  8
Page1
 10
-18412.566191
 20
6666.530245
 30
0.000000
  0
VERTEX
  8
Page1
 10
-18413.198042
 20
6667.208975
 30
0.000000
  0
VERTEX
  8
Page1
 10
-18413.813653
 20
6667.902731
 30
0.000000
  0
VERTEX
  8
Page1
 10
-18414.412722
 20
6668.611209
 30
0.000000
  0
VERTEX
  8
Page1
 10
-18414.994944
 20
6669.334106
 30
0.000000
  0
VERTEX
  8
Page1
 10
-18415.560016
 20
6670.071118
 30
0.000000
  0
VERTEX
  8
Page1
 10
-18416.107635
 20
6670.821941
 30
0.000000
  0
VERTEX
  8
Page1
 10
-18416.637497
 20
6671.586272
 30
0.000000
  0
VERTEX
  8
Page1
 10
-18417.149298
 20
6672.363808
 30
0.000000
  0
VERTEX
  8
Page1
 10
-18417.642735
 20
6673.154245
 30
0.000000
  0
VERTEX
  8
Page1
 10
-18418.117505
 20
6673.957279
 30
0.000000
  0
VERTEX
  8
Page1
 10
-18418.573303
 20
6674.772608
 30
0.000000
  0
VERTEX
  8
Page1
 10
-18419.009827
 20
6675.599926
 30
0.000000
  0
VERTEX
  8
Page1
 10
-18419.426773
 20
6676.438932
 30
0.000000
  0
VERTEX
  8
Page1
 10
-18419.823837
 20
6677.289321
 30
0.000000
  0
VERTEX
  8
Page1
 10
-18420.200716
 20
6678.150790
 30
0.000000
  0
VERTEX
  8
Page1
 10
-18420.557107
 20
6679.023035
 30
0.000000
  0
VERTEX
  8
Page1
 10
-18420.892705
 20
6679.905753
 30
0.000000
  0
VERTEX
  8
Page1
 10
-18421.207207
 20
6680.798640
 30
0.000000
  0
VERTEX
  8
Page1
 10
-18421.500310
 20
6681.701394
 30
0.000000
  0
VERTEX
  8
Page1
 10
-18421.771710
 20
6682.613709
 30
0.000000
  0
VERTEX
  8
Page1
 10
-18422.021103
 20
6683.535283
 30
0.000000
  0
VERTEX
  8
Page1
 10
-18422.248187
 20
6684.465812
 30
0.000000
  0
VERTEX
  8
Page1
 10
-18422.452658
 20
6685.404993
 30
0.000000
  0
VERTEX
  8
Page1
 10
-18422.634211
 20
6686.352522
 30
0.000000
  0
VERTEX
  8
Page1
 10
-18422.792544
 20
6687.308096
 30
0.000000
  0
VERTEX
  8
Page1
 10
-18422.927353
 20
6688.271411
 30
0.000000
  0
VERTEX
  8
Page1
 10
-18423.038334
 20
6689.242164
 30
0.000000
  0
VERTEX
  8
Page1
 10
-18423.125185
 20
6690.220050
 30
0.000000
  0
VERTEX
  8
Page1
 10
-18423.187600
 20
6691.204767
 30
0.000000
  0
VERTEX
  8
Page1
 10
-18423.225278
 20
6692.196012
 30
0.000000
  0
VERTEX
  8
Page1
 10
-18423.237914
 20
6693.193479
 30
0.000000
  0
VERTEX
  8
Page1
 10
-18423.237914
 20
6693.193479
 30
0.000000
  0
VERTEX
  8
Page1
 10
-18423.250534
 20
7595.901533
 30
0.000000
  0
VERTEX
  8
Page1
 10
-18423.250534
 20
7595.901533
 30
0.000000
  0
VERTEX
  8
Page1
 10
-18423.237926
 20
7596.899008
 30
0.000000
  0
VERTEX
  8
Page1
 10
-18423.200276
 20
7597.890260
 30
0.000000
  0
VERTEX
  8
Page1
 10
-18423.137888
 20
7598.874985
 30
0.000000
  0
VERTEX
  8
Page1
 10
-18423.051065
 20
7599.852881
 30
0.000000
  0
VERTEX
  8
Page1
 10
-18422.940110
 20
7600.823643
 30
0.000000
  0
VERTEX
  8
Page1
 10
-18422.805328
 20
7601.786967
 30
0.000000
  0
VERTEX
  8
Page1
 10
-18422.647021
 20
7602.742551
 30
0.000000
  0
VERTEX
  8
Page1
 10
-18422.465494
 20
7603.690091
 30
0.000000
  0
VERTEX
  8
Page1
 10
-18422.261049
 20
7604.629283
 30
0.000000
  0
VERTEX
  8
Page1
 10
-18422.033991
 20
7605.559824
 30
0.000000
  0
VERTEX
  8
Page1
 10
-18421.784623
 20
7606.481410
 30
0.000000
  0
VERTEX
  8
Page1
 10
-18421.513248
 20
7607.393738
 30
0.000000
  0
VERTEX
  8
Page1
 10
-18421.220170
 20
7608.296504
 30
0.000000
  0
VERTEX
  8
Page1
 10
-18420.905692
 20
7609.189404
 30
0.000000
  0
VERTEX
  8
Page1
 10
-18420.570118
 20
7610.072136
 30
0.000000
  0
VERTEX
  8
Page1
 10
-18420.213751
 20
7610.944395
 30
0.000000
  0
VERTEX
  8
Page1
 10
-18419.836896
 20
7611.805879
 30
0.000000
  0
VERTEX
  8
Page1
 10
-18419.439855
 20
7612.656282
 30
0.000000
  0
VERTEX
  8
Page1
 10
-18419.022932
 20
7613.495303
 30
0.000000
  0
VERTEX
  8
Page1
 10
-18418.586430
 20
7614.322638
 30
0.000000
  0
VERTEX
  8
Page1
 10
-18418.130653
 20
7615.137982
 30
0.000000
  0
VERTEX
  8
Page1
 10
-18417.655905
 20
7615.941033
 30
0.000000
  0
VERTEX
  8
Page1
 10
-18417.162490
 20
7616.731486
 30
0.000000
  0
VERTEX
  8
Page1
 10
-18416.650709
 20
7617.509039
 30
0.000000
  0
VERTEX
  8
Page1
 10
-18416.120868
 20
7618.273388
 30
0.000000
  0
VERTEX
  8
Page1
 10
-18415.573269
 20
7619.024230
 30
0.000000
  0
VERTEX
  8
Page1
 10
-18415.008217
 20
7619.761260
 30
0.000000
  0
VERTEX
  8
Page1
 10
-18414.426014
 20
7620.484175
 30
0.000000
  0
VERTEX
  8
Page1
 10
-18413.826964
 20
7621.192672
 30
0.000000
  0
VERTEX
  8
Page1
 10
-18413.211372
 20
7621.886447
 30
0.000000
  0
VERTEX
  8
Page1
 10
-18412.579539
 20
7622.565197
 30
0.000000
  0
VERTEX
  8
Page1
 10
-18411.931770
 20
7623.228618
 30
0.000000
  0
VERTEX
  8
Page1
 10
-18411.268369
 20
7623.876407
 30
0.000000
  0
VERTEX
  8
Page1
 10
-18410.589638
 20
7624.508260
 30
0.000000
  0
VERTEX
  8
Page1
 10
-18409.895881
 20
7625.123873
 30
0.000000
  0
VERTEX
  8
Page1
 10
-18409.187403
 20
7625.722944
 30
0.000000
  0
VERTEX
  8
Page1
 10
-18408.464505
 20
7626.305168
 30
0.000000
  0
VERTEX
  8
Page1
 10
-18407.727493
 20
7626.870242
 30
0.000000
  0
VERTEX
  8
Page1
 10
-18406.976669
 20
7627.417862
 30
0.000000
  0
VERTEX
  8
Page1
 10
-18406.212337
 20
7627.947725
 30
0.000000
  0
VERTEX
  8
Page1
 10
-18405.434800
 20
7628.459528
 30
0.000000
  0
VERTEX
  8
Page1
 10
-18404.644363
 20
7628.952967
 30
0.000000
  0
VERTEX
  8
Page1
 10
-18403.841328
 20
7629.427738
 30
0.000000
  0
VERTEX
  8
Page1
 10
-18403.025999
 20
7629.883538
 30
0.000000
  0
VERTEX
  8
Page1
 10
-18402.198679
 20
7630.320063
 30
0.000000
  0
VERTEX
  8
Page1
 10
-18401.359672
 20
7630.737010
 30
0.000000
  0
VERTEX
  8
Page1
 10
-18400.509283
 20
7631.134075
 30
0.000000
  0
VERTEX
  8
Page1
 10
-18399.647813
 20
7631.510955
 30
0.000000
  0
VERTEX
  8
Page1
 10
-18398.775566
 20
7631.867347
 30
0.000000
  0
VERTEX
  8
Page1
 10
-18397.892847
 20
7632.202945
 30
0.000000
  0
VERTEX
  8
Page1
 10
-18396.999959
 20
7632.517449
 30
0.000000
  0
VERTEX
  8
Page1
 10
-18396.097205
 20
7632.810552
 30
0.000000
  0
VERTEX
  8
Page1
 10
-18395.184888
 20
7633.081953
 30
0.000000
  0
VERTEX
  8
Page1
 10
-18394.263313
 20
7633.331347
 30
0.000000
  0
VERTEX
  8
Page1
 10
-18393.332782
 20
7633.558432
 30
0.000000
  0
VERTEX
  8
Page1
 10
-18392.393600
 20
7633.762902
 30
0.000000
  0
VERTEX
  8
Page1
 10
-18391.446069
 20
7633.944456
 30
0.000000
  0
VERTEX
  8
Page1
 10
-18390.490494
 20
7634.102790
 30
0.000000
  0
VERTEX
  8
Page1
 10
-18389.527178
 20
7634.237599
 30
0.000000
  0
VERTEX
  8
Page1
 10
-18388.556424
 20
7634.348581
 30
0.000000
  0
VERTEX
  8
Page1
 10
-18387.578535
 20
7634.435431
 30
0.000000
  0
VERTEX
  8
Page1
 10
-18386.593817
 20
7634.497847
 30
0.000000
  0
VERTEX
  8
Page1
 10
-18385.602571
 20
7634.535525
 30
0.000000
  0
VERTEX
  8
Page1
 10
-18384.605101
 20
7634.548161
 30
0.000000
  0
VERTEX
  8
Page1
 10
-18384.605101
 20
7634.548161
 30
0.000000
  0
VERTEX
  8
Page1
 10
-17781.897048
 20
7634.556587
 30
0.000000
  0
VERTEX
  8
Page1
 10
-17781.897048
 20
7634.556587
 30
0.000000
  0
VERTEX
  8
Page1
 10
-17780.899576
 20
7634.543979
 30
0.000000
  0
VERTEX
  8
Page1
 10
-17779.908328
 20
7634.506329
 30
0.000000
  0
VERTEX
  8
Page1
 10
-17778.923606
 20
7634.443940
 30
0.000000
  0
VERTEX
  8
Page1
 10
-17777.945714
 20
7634.357117
 30
0.000000
  0
VERTEX
  8
Page1
 10
-17776.974956
 20
7634.246163
 30
0.000000
  0
VERTEX
  8
Page1
 10
-17776.011635
 20
7634.111380
 30
0.000000
  0
VERTEX
  8
Page1
 10
-17775.056054
 20
7633.953074
 30
0.000000
  0
VERTEX
  8
Page1
 10
-17774.108518
 20
7633.771546
 30
0.000000
  0
VERTEX
  8
Page1
 10
-17773.169329
 20
7633.567102
 30
0.000000
  0
VERTEX
  8
Page1
 10
-17772.238792
 20
7633.340043
 30
0.000000
  0
VERTEX
  8
Page1
 10
-17771.317210
 20
7633.090675
 30
0.000000
  0
VERTEX
  8
Page1
 10
-17770.404885
 20
7632.819300
 30
0.000000
  0
VERTEX
  8
Page1
 10
-17769.502123
 20
7632.526221
 30
0.000000
  0
VERTEX
  8
Page1
 10
-17768.609226
 20
7632.211743
 30
0.000000
  0
VERTEX
  8
Page1
 10
-17767.726497
 20
7631.876169
 30
0.000000
  0
VERTEX
  8
Page1
 10
-17766.854241
 20
7631.519802
 30
0.000000
  0
VERTEX
  8
Page1
 10
-17765.992761
 20
7631.142946
 30
0.000000
  0
VERTEX
  8
Page1
 10
-17765.142361
 20
7630.745905
 30
0.000000
  0
VERTEX
  8
Page1
 10
-17764.303343
 20
7630.328981
 30
0.000000
  0
VERTEX
  8
Page1
 10
-17763.476012
 20
7629.892479
 30
0.000000
  0
VERTEX
  8
Page1
 10
-17762.660671
 20
7629.436702
 30
0.000000
  0
VERTEX
  8
Page1
 10
-17761.857623
 20
7628.961953
 30
0.000000
  0
VERTEX
  8
Page1
 10
-17761.067173
 20
7628.468537
 30
0.000000
  0
VERTEX
  8
Page1
 10
-17760.289623
 20
7627.956756
 30
0.000000
  0
VERTEX
  8
Page1
 10
-17759.525277
 20
7627.426914
 30
0.000000
  0
VERTEX
  8
Page1
 10
-17758.774439
 20
7626.879314
 30
0.000000
  0
VERTEX
  8
Page1
 10
-17758.037412
 20
7626.314261
 30
0.000000
  0
VERTEX
  8
Page1
 10
-17757.314499
 20
7625.732057
 30
0.000000
  0
VERTEX
  8
Page1
 10
-17756.606005
 20
7625.133006
 30
0.000000
  0
VERTEX
  8
Page1
 10
-17755.912233
 20
7624.517412
 30
0.000000
  0
VERTEX
  8
Page1
 10
-17755.233486
 20
7623.885579
 30
0.000000
  0
VERTEX
  8
Page1
 10
-17754.570067
 20
7623.237808
 30
0.000000
  0
VERTEX
  8
Page1
 10
-17753.922281
 20
7622.574405
 30
0.000000
  0
VERTEX
  8
Page1
 10
-17753.290431
 20
7621.895673
 30
0.000000
  0
VERTEX
  8
Page1
 10
-17752.674820
 20
7621.201915
 30
0.000000
  0
VERTEX
  8
Page1
 10
-17752.075752
 20
7620.493435
 30
0.000000
  0
VERTEX
  8
Page1
 10
-17751.493531
 20
7619.770536
 30
0.000000
  0
VERTEX
  8
Page1
 10
-17750.928459
 20
7619.033522
 30
0.000000
  0
VERTEX
  8
Page1
 10
-17750.380841
 20
7618.282696
 30
0.000000
  0
VERTEX
  8
Page1
 10
-17749.850980
 20
7617.518362
 30
0.000000
  0
VERTEX
  8
Page1
 10
-17749.339179
 20
7616.740823
 30
0.000000
  0
VERTEX
  8
Page1
 10
-17748.845742
 20
7615.950383
 30
0.000000
  0
VERTEX
  8
Page1
 10
-17748.370973
 20
7615.147346
 30
0.000000
  0
VERTEX
  8
Page1
 10
-17747.915175
 20
7614.332014
 30
0.000000
  0
VERTEX
  8
Page1
 10
-17747.478652
 20
7613.504692
 30
0.000000
  0
VERTEX
  8
Page1
 10
-17747.061707
 20
7612.665683
 30
0.000000
  0
VERTEX
  8
Page1
 10
-17746.664643
 20
7611.815290
 30
0.000000
  0
VERTEX
  8
Page1
 10
-17746.287765
 20
7610.953817
 30
0.000000
  0
VERTEX
  8
Page1
 10
-17745.931375
 20
7610.081568
 30
0.000000
  0
VERTEX
  8
Page1
 10
-17745.595777
 20
7609.198845
 30
0.000000
  0
VERTEX
  8
Page1
 10
-17745.281276
 20
7608.305954
 30
0.000000
  0
VERTEX
  8
Page1
 10
-17744.988173
 20
7607.403196
 30
0.000000
  0
VERTEX
  8
Page1
 10
-17744.716774
 20
7606.490876
 30
0.000000
  0
VERTEX
  8
Page1
 10
-17744.467381
 20
7605.569297
 30
0.000000
  0
VERTEX
  8
Page1
 10
-17744.240297
 20
7604.638762
 30
0.000000
  0
VERTEX
  8
Page1
 10
-17744.035827
 20
7603.699576
 30
0.000000
  0
VERTEX
  8
Page1
 10
-17743.854274
 20
7602.752041
 30
0.000000
  0
VERTEX
  8
Page1
 10
-17743.695942
 20
7601.796461
 30
0.000000
  0
VERTEX
  8
Page1
 10
-17743.561133
 20
7600.833141
 30
0.000000
  0
VERTEX
  8
Page1
 10
-17743.450152
 20
7599.862382
 30
0.000000
  0
VERTEX
  8
Page1
 10
-17743.363302
 20
7598.884489
 30
0.000000
  0
VERTEX
  8
Page1
 10
-17743.300886
 20
7597.899765
 30
0.000000
  0
VERTEX
  8
Page1
 10
-17743.263208
 20
7596.908514
 30
0.000000
  0
VERTEX
  8
Page1
 10
-17743.250572
 20
7595.911039
 30
0.000000
  0
SEQEND
  8
Page1
  0
POLYLINE
  8
Page1
 10
0
 20
0
 30
0
 66
1
  0
VERTEX
  8
Page1
 10
-18737.717781
 20
7953.903966
 30
0.000000
  0
VERTEX
  8
Page1
 10
-19060.425835
 20
7953.903966
 30
0.000000
  0
VERTEX
  8
Page1
 10
-19060.425835
 20
7953.903966
 30
0.000000
  0
VERTEX
  8
Page1
 10
-19061.423306
 20
7953.916588
 30
0.000000
  0
VERTEX
  8
Page1
 10
-19062.414554
 20
7953.954252
 30
0.000000
  0
VERTEX
  8
Page1
 10
-19063.399275
 20
7954.016654
 30
0.000000
  0
VERTEX
  8
Page1
 10
-19064.377166
 20
7954.103490
 30
0.000000
  0
VERTEX
  8
Page1
 10
-19065.347924
 20
7954.214458
 30
0.000000
  0
VERTEX
  8
Page1
 10
-19066.311243
 20
7954.349253
 30
0.000000
  0
VERTEX
  8
Page1
 10
-19067.266822
 20
7954.507572
 30
0.000000
  0
VERTEX
  8
Page1
 10
-19068.214357
 20
7954.689112
 30
0.000000
  0
VERTEX
  8
Page1
 10
-19069.153543
 20
7954.893569
 30
0.000000
  0
VERTEX
  8
Page1
 10
-19070.084078
 20
7955.120639
 30
0.000000
  0
VERTEX
  8
Page1
 10
-19071.005658
 20
7955.370020
 30
0.000000
  0
VERTEX
  8
Page1
 10
-19071.917980
 20
7955.641407
 30
0.000000
  0
VERTEX
  8
Page1
 10
-19072.820739
 20
7955.934496
 30
0.000000
  0
VERTEX
  8
Page1
 10
-19073.713633
 20
7956.248985
 30
0.000000
  0
VERTEX
  8
Page1
 10
-19074.596358
 20
7956.584571
 30
0.000000
  0
VERTEX
  8
Page1
 10
-19075.468611
 20
7956.940948
 30
0.000000
  0
VERTEX
  8
Page1
 10
-19076.330087
 20
7957.317814
 30
0.000000
  0
VERTEX
  8
Page1
 10
-19077.180483
 20
7957.714866
 30
0.000000
  0
VERTEX
  8
Page1
 10
-19078.019496
 20
7958.131800
 30
0.000000
  0
VERTEX
  8
Page1
 10
-19078.846823
 20
7958.568311
 30
0.000000
  0
VERTEX
  8
Page1
 10
-19079.662159
 20
7959.024098
 30
0.000000
  0
VERTEX
  8
Page1
 10
-19080.465202
 20
7959.498856
 30
0.000000
  0
VERTEX
  8
Page1
 10
-19081.255647
 20
7959.992281
 30
0.000000
  0
VERTEX
  8
Page1
 10
-19082.033191
 20
7960.504071
 30
0.000000
  0
VERTEX
  8
Page1
 10
-19082.797532
 20
7961.033922
 30
0.000000
  0
VERTEX
  8
Page1
 10
-19083.548364
 20
7961.581529
 30
0.000000
  0
VERTEX
  8
Page1
 10
-19084.285385
 20
7962.146591
 30
0.000000
  0
VERTEX
  8
Page1
 10
-19085.008291
 20
7962.728802
 30
0.000000
  0
VERTEX
  8
Page1
 10
-19085.716778
 20
7963.327860
 30
0.000000
  0
VERTEX
  8
Page1
 10
-19086.410544
 20
7963.943461
 30
0.000000
  0
VERTEX
  8
Page1
 10
-19087.089284
 20
7964.575302
 30
0.000000
  0
VERTEX
  8
Page1
 10
-19087.752695
 20
7965.223079
 30
0.000000
  0
VERTEX
  8
Page1
 10
-19088.400474
 20
7965.886488
 30
0.000000
  0
VERTEX
  8
Page1
 10
-19089.032316
 20
7966.565227
 30
0.000000
  0
VERTEX
  8
Page1
 10
-19089.647919
 20
7967.258990
 30
0.000000
  0
VERTEX
  8
Page1
 10
-19090.246979
 20
7967.967476
 30
0.000000
  0
VERTEX
  8
Page1
 10
-19090.829192
 20
7968.690380
 30
0.000000
  0
VERTEX
  8
Page1
 10
-19091.394255
 20
7969.427400
 30
0.000000
  0
VERTEX
  8
Page1
 10
-19091.941865
 20
7970.178230
 30
0.000000
  0
VERTEX
  8
Page1
 10
-19092.471717
 20
7970.942569
 30
0.000000
  0
VERTEX
  8
Page1
 10
-19092.983508
 20
7971.720111
 30
0.000000
  0
VERTEX
  8
Page1
 10
-19093.476936
 20
7972.510555
 30
0.000000
  0
VERTEX
  8
Page1
 10
-19093.951695
 20
7973.313596
 30
0.000000
  0
VERTEX
  8
Page1
 10
-19094.407483
 20
7974.128931
 30
0.000000
  0
VERTEX
  8
Page1
 10
-19094.843996
 20
7974.956256
 30
0.000000
  0
VERTEX
  8
Page1
 10
-19095.260931
 20
7975.795268
 30
0.000000
  0
VERTEX
  8
Page1
 10
-19095.657985
 20
7976.645663
 30
0.000000
  0
VERTEX
  8
Page1
 10
-19096.034852
 20
7977.507137
 30
0.000000
  0
VERTEX
  8
Page1
 10
-19096.391231
 20
7978.379388
 30
0.000000
  0
VERTEX
  8
Page1
 10
-19096.726817
 20
7979.262112
 30
0.000000
  0
VERTEX
  8
Page1
 10
-19097.041308
 20
7980.155005
 30
0.000000
  0
VERTEX
  8
Page1
 10
-19097.334399
 20
7981.057763
 30
0.000000
  0
VERTEX
  8
Page1
 10
-19097.605787
 20
7981.970084
 30
0.000000
  0
VERTEX
  8
Page1
 10
-19097.855168
 20
7982.891663
 30
0.000000
  0
VERTEX
  8
Page1
 10
-19098.082239
 20
7983.822197
 30
0.000000
  0
VERTEX
  8
Page1
 10
-19098.286697
 20
7984.761382
 30
0.000000
  0
VERTEX
  8
Page1
 10
-19098.468237
 20
7985.708916
 30
0.000000
  0
VERTEX
  8
Page1
 10
-19098.626557
 20
7986.664494
 30
0.000000
  0
VERTEX
  8
Page1
 10
-19098.761353
 20
7987.627814
 30
0.000000
  0
VERTEX
  8
Page1
 10
-19098.872321
 20
7988.598570
 30
0.000000
  0
VERTEX
  8
Page1
 10
-19098.959158
 20
7989.576461
 30
0.000000
  0
VERTEX
  8
Page1
 10
-19099.021560
 20
7990.561182
 30
0.000000
  0
VERTEX
  8
Page1
 10
-19099.059224
 20
7991.552430
 30
0.000000
  0
VERTEX
  8
Page1
 10
-19099.071846
 20
7992.549901
 30
0.000000
  0
VERTEX
  8
Page1
 10
-19099.071846
 20
7992.549901
 30
0.000000
  0
VERTEX
  8
Page1
 10
-19099.071846
 20
8215.258031
 30
0.000000
  0
VERTEX
  8
Page1
 10
-19099.071846
 20
8215.258031
 30
0.000000
  0
VERTEX
  8
Page1
 10
-19099.059224
 20
8216.255499
 30
0.000000
  0
VERTEX
  8
Page1
 10
-19099.021560
 20
8217.246744
 30
0.000000
  0
VERTEX
  8
Page1
 10
-19098.959158
 20
8218.231462
 30
0.000000
  0
VERTEX
  8
Page1
 10
-19098.872321
 20
8219.209350
 30
0.000000
  0
VERTEX
  8
Page1
 10
-19098.761353
 20
8220.180104
 30
0.000000
  0
VERTEX
  8
Page1
 10
-19098.626557
 20
8221.143420
 30
0.000000
  0
VERTEX
  8
Page1
 10
-19098.468237
 20
8222.098996
 30
0.000000
  0
VERTEX
  8
Page1
 10
-19098.286697
 20
8223.046528
 30
0.000000
  0
VERTEX
  8
Page1
 10
-19098.082239
 20
8223.985712
 30
0.000000
  0
VERTEX
  8
Page1
 10
-19097.855168
 20
8224.916244
 30
0.000000
  0
VERTEX
  8
Page1
 10
-19097.605787
 20
8225.837822
 30
0.000000
  0
VERTEX
  8
Page1
 10
-19097.334399
 20
8226.750141
 30
0.000000
  0
VERTEX
  8
Page1
 10
-19097.041308
 20
8227.652898
 30
0.000000
  0
VERTEX
  8
Page1
 10
-19096.726818
 20
8228.545790
 30
0.000000
  0
VERTEX
  8
Page1
 10
-19096.391232
 20
8229.428513
 30
0.000000
  0
VERTEX
  8
Page1
 10
-19096.034853
 20
8230.300763
 30
0.000000
  0
VERTEX
  8
Page1
 10
-19095.657986
 20
8231.162237
 30
0.000000
  0
VERTEX
  8
Page1
 10
-19095.260933
 20
8232.012632
 30
0.000000
  0
VERTEX
  8
Page1
 10
-19094.843998
 20
8232.851643
 30
0.000000
  0
VERTEX
  8
Page1
 10
-19094.407485
 20
8233.678968
 30
0.000000
  0
VERTEX
  8
Page1
 10
-19093.951698
 20
8234.494303
 30
0.000000
  0
VERTEX
  8
Page1
 10
-19093.476939
 20
8235.297344
 30
0.000000
  0
VERTEX
  8
Page1
 10
-19092.983512
 20
8236.087787
 30
0.000000
  0
VERTEX
  8
Page1
 10
-19092.471721
 20
8236.865330
 30
0.000000
  0
VERTEX
  8
Page1
 10
-19091.941869
 20
8237.629669
 30
0.000000
  0
VERTEX
  8
Page1
 10
-19091.394260
 20
8238.380500
 30
0.000000
  0
VERTEX
  8
Page1
 10
-19090.829198
 20
8239.117520
 30
0.000000
  0
VERTEX
  8
Page1
 10
-19090.246985
 20
8239.840425
 30
0.000000
  0
VERTEX
  8
Page1
 10
-19089.647926
 20
8240.548911
 30
0.000000
  0
VERTEX
  8
Page1
 10
-19089.032324
 20
8241.242676
 30
0.000000
  0
VERTEX
  8
Page1
 10
-19088.400482
 20
8241.921415
 30
0.000000
  0
VERTEX
  8
Page1
 10
-19087.752705
 20
8242.584825
 30
0.000000
  0
VERTEX
  8
Page1
 10
-19087.089294
 20
8243.232603
 30
0.000000
  0
VERTEX
  8
Page1
 10
-19086.410555
 20
8243.864444
 30
0.000000
  0
VERTEX
  8
Page1
 10
-19085.716791
 20
8244.480046
 30
0.000000
  0
VERTEX
  8
Page1
 10
-19085.008304
 20
8245.079106
 30
0.000000
  0
VERTEX
  8
Page1
 10
-19084.285399
 20
8245.661318
 30
0.000000
  0
VERTEX
  8
Page1
 10
-19083.548380
 20
8246.226381
 30
0.000000
  0
VERTEX
  8
Page1
 10
-19082.797549
 20
8246.773989
 30
0.000000
  0
VERTEX
  8
Page1
 10
-19082.033210
 20
8247.303841
 30
0.000000
  0
VERTEX
  8
Page1
 10
-19081.255667
 20
8247.815632
 30
0.000000
  0
VERTEX
  8
Page1
 10
-19080.465223
 20
8248.309059
 30
0.000000
  0
VERTEX
  8
Page1
 10
-19079.662182
 20
8248.783818
 30
0.000000
  0
VERTEX
  8
Page1
 10
-19078.846848
 20
8249.239606
 30
0.000000
  0
VERTEX
  8
Page1
 10
-19078.019523
 20
8249.676119
 30
0.000000
  0
VERTEX
  8
Page1
 10
-19077.180511
 20
8250.093053
 30
0.000000
  0
VERTEX
  8
Page1
 10
-19076.330117
 20
8250.490106
 30
0.000000
  0
VERTEX
  8
Page1
 10
-19075.468643
 20
8250.866974
 30
0.000000
  0
VERTEX
  8
Page1
 10
-19074.596393
 20
8251.223352
 30
0.000000
  0
VERTEX
  8
Page1
 10
-19073.713670
 20
8251.558938
 30
0.000000
  0
VERTEX
  8
Page1
 10
-19072.820778
 20
8251.873429
 30
0.000000
  0
VERTEX
  8
Page1
 10
-19071.918021
 20
8252.166519
 30
0.000000
  0
VERTEX
  8
Page1
 10
-19071.005702
 20
8252.437907
 30
0.000000
  0
VERTEX
  8
Page1
 10
-19070.084124
 20
8252.687288
 30
0.000000
  0
VERTEX
  8
Page1
 10
-19069.153592
 20
8252.914360
 30
0.000000
  0
VERTEX
  8
Page1
 10
-19068.214408
 20
8253.118817
 30
0.000000
  0
VERTEX
  8
Page1
 10
-19067.266876
 20
8253.300358
 30
0.000000
  0
VERTEX
  8
Page1
 10
-19066.311300
 20
8253.458678
 30
0.000000
  0
VERTEX
  8
Page1
 10
-19065.347983
 20
8253.593473
 30
0.000000
  0
VERTEX
  8
Page1
 10
-19064.377229
 20
8253.704441
 30
0.000000
  0
VERTEX
  8
Page1
 10
-19063.399342
 20
8253.791278
 30
0.000000
  0
VERTEX
  8
Page1
 10
-19062.414623
 20
8253.853680
 30
0.000000
  0
VERTEX
  8
Page1
 10
-19061.423379
 20
8253.891344
 30
0.000000
  0
VERTEX
  8
Page1
 10
-19060.425911
 20
8253.903966
 30
0.000000
  0
VERTEX
  8
Page1
 10
-19060.425911
 20
8253.903966
 30
0.000000
  0
VERTEX
  8
Page1
 10
-18737.717781
 20
8253.903966
 30
0.000000
  0
VERTEX
  8
Page1
 10
-18737.717781
 20
8253.903966
 30
0.000000
  0
VERTEX
  8
Page1
 10
-18736.720313
 20
8253.891344
 30
0.000000
  0
VERTEX
  8
Page1
 10
-18735.729068
 20
8253.853680
 30
0.000000
  0
VERTEX
  8
Page1
 10
-18734.744350
 20
8253.791278
 30
0.000000
  0
VERTEX
  8
Page1
 10
-18733.766463
 20
8253.704441
 30
0.000000
  0
VERTEX
  8
Page1
 10
-18732.795709
 20
8253.593473
 30
0.000000
  0
VERTEX
  8
Page1
 10
-18731.832392
 20
8253.458678
 30
0.000000
  0
VERTEX
  8
Page1
 10
-18730.876816
 20
8253.300358
 30
0.000000
  0
VERTEX
  8
Page1
 10
-18729.929284
 20
8253.118817
 30
0.000000
  0
VERTEX
  8
Page1
 10
-18728.990100
 20
8252.914359
 30
0.000000
  0
VERTEX
  8
Page1
 10
-18728.059568
 20
8252.687288
 30
0.000000
  0
VERTEX
  8
Page1
 10
-18727.137990
 20
8252.437907
 30
0.000000
  0
VERTEX
  8
Page1
 10
-18726.225671
 20
8252.166519
 30
0.000000
  0
VERTEX
  8
Page1
 10
-18725.322914
 20
8251.873428
 30
0.000000
  0
VERTEX
  8
Page1
 10
-18724.430022
 20
8251.558938
 30
0.000000
  0
VERTEX
  8
Page1
 10
-18723.547299
 20
8251.223351
 30
0.000000
  0
VERTEX
  8
Page1
 10
-18722.675049
 20
8250.866972
 30
0.000000
  0
VERTEX
  8
Page1
 10
-18721.813575
 20
8250.490105
 30
0.000000
  0
VERTEX
  8
Page1
 10
-18720.963181
 20
8250.093052
 30
0.000000
  0
VERTEX
  8
Page1
 10
-18720.124169
 20
8249.676117
 30
0.000000
  0
VERTEX
  8
Page1
 10
-18719.296844
 20
8249.239603
 30
0.000000
  0
VERTEX
  8
Page1
 10
-18718.481510
 20
8248.783815
 30
0.000000
  0
VERTEX
  8
Page1
 10
-18717.678469
 20
8248.309056
 30
0.000000
  0
VERTEX
  8
Page1
 10
-18716.888025
 20
8247.815629
 30
0.000000
  0
VERTEX
  8
Page1
 10
-18716.110482
 20
8247.303837
 30
0.000000
  0
VERTEX
  8
Page1
 10
-18715.346143
 20
8246.773985
 30
0.000000
  0
VERTEX
  8
Page1
 10
-18714.595312
 20
8246.226375
 30
0.000000
  0
VERTEX
  8
Page1
 10
-18713.858293
 20
8245.661312
 30
0.000000
  0
VERTEX
  8
Page1
 10
-18713.135388
 20
8245.079099
 30
0.000000
  0
VERTEX
  8
Page1
 10
-18712.426901
 20
8244.480039
 30
0.000000
  0
VERTEX
  8
Page1
 10
-18711.733137
 20
8243.864436
 30
0.000000
  0
VERTEX
  8
Page1
 10
-18711.054398
 20
8243.232594
 30
0.000000
  0
VERTEX
  8
Page1
 10
-18710.390987
 20
8242.584815
 30
0.000000
  0
VERTEX
  8
Page1
 10
-18709.743210
 20
8241.921404
 30
0.000000
  0
VERTEX
  8
Page1
 10
-18709.111368
 20
8241.242664
 30
0.000000
  0
VERTEX
  8
Page1
 10
-18708.495766
 20
8240.548898
 30
0.000000
  0
VERTEX
  8
Page1
 10
-18707.896707
 20
8239.840411
 30
0.000000
  0
VERTEX
  8
Page1
 10
-18707.314494
 20
8239.117505
 30
0.000000
  0
VERTEX
  8
Page1
 10
-18706.749432
 20
8238.380484
 30
0.000000
  0
VERTEX
  8
Page1
 10
-18706.201823
 20
8237.629652
 30
0.000000
  0
VERTEX
  8
Page1
 10
-18705.671971
 20
8236.865312
 30
0.000000
  0
VERTEX
  8
Page1
 10
-18705.160180
 20
8236.087767
 30
0.000000
  0
VERTEX
  8
Page1
 10
-18704.666753
 20
8235.297322
 30
0.000000
  0
VERTEX
  8
Page1
 10
-18704.191994
 20
8234.494279
 30
0.000000
  0
VERTEX
  8
Page1
 10
-18703.736207
 20
8233.678943
 30
0.000000
  0
VERTEX
  8
Page1
 10
-18703.299694
 20
8232.851617
 30
0.000000
  0
VERTEX
  8
Page1
 10
-18702.882759
 20
8232.012603
 30
0.000000
  0
VERTEX
  8
Page1
 10
-18702.485706
 20
8231.162207
 30
0.000000
  0
VERTEX
  8
Page1
 10
-18702.108839
 20
8230.300731
 30
0.000000
  0
VERTEX
  8
Page1
 10
-18701.752460
 20
8229.428479
 30
0.000000
  0
VERTEX
  8
Page1
 10
-18701.416874
 20
8228.545754
 30
0.000000
  0
VERTEX
  8
Page1
 10
-18701.102384
 20
8227.652860
 30
0.000000
  0
VERTEX
  8
Page1
 10
-18700.809293
 20
8226.750100
 30
0.000000
  0
VERTEX
  8
Page1
 10
-18700.537905
 20
8225.837779
 30
0.000000
  0
VERTEX
  8
Page1
 10
-18700.288524
 20
8224.916199
 30
0.000000
  0
VERTEX
  8
Page1
 10
-18700.061453
 20
8223.985663
 30
0.000000
  0
VERTEX
  8
Page1
 10
-18699.856995
 20
8223.046477
 30
0.000000
  0
VERTEX
  8
Page1
 10
-18699.675455
 20
8222.098943
 30
0.000000
  0
VERTEX
  8
Page1
 10
-18699.517135
 20
8221.143364
 30
0.000000
  0
VERTEX
  8
Page1
 10
-18699.382339
 20
8220.180044
 30
0.000000
  0
VERTEX
  8
Page1
 10
-18699.271371
 20
8219.209287
 30
0.000000
  0
VERTEX
  8
Page1
 10
-18699.184534
 20
8218.231396
 30
0.000000
  0
VERTEX
  8
Page1
 10
-18699.122132
 20
8217.246674
 30
0.000000
  0
VERTEX
  8
Page1
 10
-18699.084468
 20
8216.255426
 30
0.000000
  0
VERTEX
  8
Page1
 10
-18699.071846
 20
8215.257955
 30
0.000000
  0
VERTEX
  8
Page1
 10
-18699.071846
 20
8215.257955
 30
0.000000
  0
VERTEX
  8
Page1
 10
-18699.071846
 20
7992.549901
 30
0.000000
  0
VERTEX
  8
Page1
 10
-18699.071846
 20
7992.549901
 30
0.000000
  0
VERTEX
  8
Page1
 10
-18699.084468
 20
7991.552430
 30
0.000000
  0
VERTEX
  8
Page1
 10
-18699.122132
 20
7990.561182
 30
0.000000
  0
VERTEX
  8
Page1
 10
-18699.184534
 20
7989.576461
 30
0.000000
  0
VERTEX
  8
Page1
 10
-18699.271371
 20
7988.598570
 30
0.000000
  0
VERTEX
  8
Page1
 10
-18699.382339
 20
7987.627814
 30
0.000000
  0
VERTEX
  8
Page1
 10
-18699.517135
 20
7986.664494
 30
0.000000
  0
VERTEX
  8
Page1
 10
-18699.675455
 20
7985.708916
 30
0.000000
  0
VERTEX
  8
Page1
 10
-18699.856995
 20
7984.761382
 30
0.000000
  0
VERTEX
  8
Page1
 10
-18700.061453
 20
7983.822197
 30
0.000000
  0
VERTEX
  8
Page1
 10
-18700.288524
 20
7982.891663
 30
0.000000
  0
VERTEX
  8
Page1
 10
-18700.537905
 20
7981.970084
 30
0.000000
  0
VERTEX
  8
Page1
 10
-18700.809293
 20
7981.057763
 30
0.000000
  0
VERTEX
  8
Page1
 10
-18701.102384
 20
7980.155005
 30
0.000000
  0
VERTEX
  8
Page1
 10
-18701.416874
 20
7979.262112
 30
0.000000
  0
VERTEX
  8
Page1
 10
-18701.752460
 20
7978.379388
 30
0.000000
  0
VERTEX
  8
Page1
 10
-18702.108839
 20
7977.507137
 30
0.000000
  0
VERTEX
  8
Page1
 10
-18702.485706
 20
7976.645663
 30
0.000000
  0
VERTEX
  8
Page1
 10
-18702.882759
 20
7975.795268
 30
0.000000
  0
VERTEX
  8
Page1
 10
-18703.299694
 20
7974.956256
 30
0.000000
  0
VERTEX
  8
Page1
 10
-18703.736207
 20
7974.128931
 30
0.000000
  0
VERTEX
  8
Page1
 10
-18704.191994
 20
7973.313596
 30
0.000000
  0
VERTEX
  8
Page1
 10
-18704.666753
 20
7972.510555
 30
0.000000
  0
VERTEX
  8
Page1
 10
-18705.160180
 20
7971.720111
 30
0.000000
  0
VERTEX
  8
Page1
 10
-18705.671971
 20
7970.942569
 30
0.000000
  0
VERTEX
  8
Page1
 10
-18706.201823
 20
7970.178230
 30
0.000000
  0
VERTEX
  8
Page1
 10
-18706.749432
 20
7969.427400
 30
0.000000
  0
VERTEX
  8
Page1
 10
-18707.314494
 20
7968.690380
 30
0.000000
  0
VERTEX
  8
Page1
 10
-18707.896707
 20
7967.967476
 30
0.000000
  0
VERTEX
  8
Page1
 10
-18708.495766
 20
7967.258990
 30
0.000000
  0
VERTEX
  8
Page1
 10
-18709.111368
 20
7966.565227
 30
0.000000
  0
VERTEX
  8
Page1
 10
-18709.743210
 20
7965.886488
 30
0.000000
  0
VERTEX
  8
Page1
 10
-18710.390987
 20
7965.223079
 30
0.000000
  0
VERTEX
  8
Page1
 10
-18711.054398
 20
7964.575302
 30
0.000000
  0
VERTEX
  8
Page1
 10
-18711.733137
 20
7963.943461
 30
0.000000
  0
VERTEX
  8
Page1
 10
-18712.426901
 20
7963.327860
 30
0.000000
  0
VERTEX
  8
Page1
 10
-18713.135388
 20
7962.728802
 30
0.000000
  0
VERTEX
  8
Page1
 10
-18713.858293
 20
7962.146591
 30
0.000000
  0
VERTEX
  8
Page1
 10
-18714.595312
 20
7961.581529
 30
0.000000
  0
VERTEX
  8
Page1
 10
-18715.346143
 20
7961.033922
 30
0.000000
  0
VERTEX
  8
Page1
 10
-18716.110482
 20
7960.504071
 30
0.000000
  0
VERTEX
  8
Page1
 10
-18716.888025
 20
7959.992281
 30
0.000000
  0
VERTEX
  8
Page1
 10
-18717.678469
 20
7959.498856
 30
0.000000
  0
VERTEX
  8
Page1
 10
-18718.481510
 20
7959.024098
 30
0.000000
  0
VERTEX
  8
Page1
 10
-18719.296844
 20
7958.568311
 30
0.000000
  0
VERTEX
  8
Page1
 10
-18720.124169
 20
7958.131800
 30
0.000000
  0
VERTEX
  8
Page1
 10
-18720.963181
 20
7957.714866
 30
0.000000
  0
VERTEX
  8
Page1
 10
-18721.813575
 20
7957.317814
 30
0.000000
  0
VERTEX
  8
Page1
 10
-18722.675049
 20
7956.940948
 30
0.000000
  0
VERTEX
  8
Page1
 10
-18723.547299
 20
7956.584571
 30
0.000000
  0
VERTEX
  8
Page1
 10
-18724.430022
 20
7956.248985
 30
0.000000
  0
VERTEX
  8
Page1
 10
-18725.322914
 20
7955.934496
 30
0.000000
  0
VERTEX
  8
Page1
 10
-18726.225671
 20
7955.641407
 30
0.000000
  0
VERTEX
  8
Page1
 10
-18727.137990
 20
7955.370020
 30
0.000000
  0
VERTEX
  8
Page1
 10
-18728.059568
 20
7955.120639
 30
0.000000
  0
VERTEX
  8
Page1
 10
-18728.990100
 20
7954.893569
 30
0.000000
  0
VERTEX
  8
Page1
 10
-18729.929284
 20
7954.689112
 30
0.000000
  0
VERTEX
  8
Page1
 10
-18730.876816
 20
7954.507572
 30
0.000000
  0
VERTEX
  8
Page1
 10
-18731.832392
 20
7954.349253
 30
0.000000
  0
VERTEX
  8
Page1
 10
-18732.795709
 20
7954.214458
 30
0.000000
  0
VERTEX
  8
Page1
 10
-18733.766463
 20
7954.103490
 30
0.000000
  0
VERTEX
  8
Page1
 10
-18734.744350
 20
7954.016654
 30
0.000000
  0
VERTEX
  8
Page1
 10
-18735.729068
 20
7953.954252
 30
0.000000
  0
VERTEX
  8
Page1
 10
-18736.720313
 20
7953.916588
 30
0.000000
  0
VERTEX
  8
Page1
 10
-18737.717781
 20
7953.903966
 30
0.000000
  0
SEQEND
  8
Page1
  0
POLYLINE
  8
Page1
 10
0
 20
0
 30
0
 66
1
  0
VERTEX
  8
Page1
 10
-18327.619261
 20
7646.455175
 30
0.000000
  0
VERTEX
  8
Page1
 10
-18650.327314
 20
7646.455175
 30
0.000000
  0
VERTEX
  8
Page1
 10
-18650.327314
 20
7646.455175
 30
0.000000
  0
VERTEX
  8
Page1
 10
-18651.324786
 20
7646.467797
 30
0.000000
  0
VERTEX
  8
Page1
 10
-18652.316034
 20
7646.505460
 30
0.000000
  0
VERTEX
  8
Page1
 10
-18653.300755
 20
7646.567862
 30
0.000000
  0
VERTEX
  8
Page1
 10
-18654.278646
 20
7646.654699
 30
0.000000
  0
VERTEX
  8
Page1
 10
-18655.249403
 20
7646.765666
 30
0.000000
  0
VERTEX
  8
Page1
 10
-18656.212723
 20
7646.900462
 30
0.000000
  0
VERTEX
  8
Page1
 10
-18657.168302
 20
7647.058781
 30
0.000000
  0
VERTEX
  8
Page1
 10
-18658.115836
 20
7647.240321
 30
0.000000
  0
VERTEX
  8
Page1
 10
-18659.055023
 20
7647.444777
 30
0.000000
  0
VERTEX
  8
Page1
 10
-18659.985558
 20
7647.671848
 30
0.000000
  0
VERTEX
  8
Page1
 10
-18660.907138
 20
7647.921228
 30
0.000000
  0
VERTEX
  8
Page1
 10
-18661.819460
 20
7648.192615
 30
0.000000
  0
VERTEX
  8
Page1
 10
-18662.722219
 20
7648.485705
 30
0.000000
  0
VERTEX
  8
Page1
 10
-18663.615113
 20
7648.800194
 30
0.000000
  0
VERTEX
  8
Page1
 10
-18664.497838
 20
7649.135779
 30
0.000000
  0
VERTEX
  8
Page1
 10
-18665.370090
 20
7649.492157
 30
0.000000
  0
VERTEX
  8
Page1
 10
-18666.231566
 20
7649.869023
 30
0.000000
  0
VERTEX
  8
Page1
 10
-18667.081963
 20
7650.266075
 30
0.000000
  0
VERTEX
  8
Page1
 10
-18667.920976
 20
7650.683008
 30
0.000000
  0
VERTEX
  8
Page1
 10
-18668.748302
 20
7651.119520
 30
0.000000
  0
VERTEX
  8
Page1
 10
-18669.563639
 20
7651.575306
 30
0.000000
  0
VERTEX
  8
Page1
 10
-18670.366681
 20
7652.050064
 30
0.000000
  0
VERTEX
  8
Page1
 10
-18671.157127
 20
7652.543490
 30
0.000000
  0
VERTEX
  8
Page1
 10
-18671.934671
 20
7653.055280
 30
0.000000
  0
VERTEX
  8
Page1
 10
-18672.699011
 20
7653.585130
 30
0.000000
  0
VERTEX
  8
Page1
 10
-18673.449843
 20
7654.132738
 30
0.000000
  0
VERTEX
  8
Page1
 10
-18674.186864
 20
7654.697799
 30
0.000000
  0
VERTEX
  8
Page1
 10
-18674.909770
 20
7655.280011
 30
0.000000
  0
VERTEX
  8
Page1
 10
-18675.618258
 20
7655.879069
 30
0.000000
  0
VERTEX
  8
Page1
 10
-18676.312023
 20
7656.494670
 30
0.000000
  0
VERTEX
  8
Page1
 10
-18676.990764
 20
7657.126511
 30
0.000000
  0
VERTEX
  8
Page1
 10
-18677.654175
 20
7657.774287
 30
0.000000
  0
VERTEX
  8
Page1
 10
-18678.301953
 20
7658.437697
 30
0.000000
  0
VERTEX
  8
Page1
 10
-18678.933796
 20
7659.116435
 30
0.000000
  0
VERTEX
  8
Page1
 10
-18679.549399
 20
7659.810199
 30
0.000000
  0
VERTEX
  8
Page1
 10
-18680.148459
 20
7660.518685
 30
0.000000
  0
VERTEX
  8
Page1
 10
-18680.730672
 20
7661.241589
 30
0.000000
  0
VERTEX
  8
Page1
 10
-18681.295735
 20
7661.978608
 30
0.000000
  0
VERTEX
  8
Page1
 10
-18681.843344
 20
7662.729439
 30
0.000000
  0
VERTEX
  8
Page1
 10
-18682.373196
 20
7663.493777
 30
0.000000
  0
VERTEX
  8
Page1
 10
-18682.884988
 20
7664.271320
 30
0.000000
  0
VERTEX
  8
Page1
 10
-18683.378415
 20
7665.061763
 30
0.000000
  0
VERTEX
  8
Page1
 10
-18683.853175
 20
7665.864804
 30
0.000000
  0
VERTEX
  8
Page1
 10
-18684.308963
 20
7666.680139
 30
0.000000
  0
VERTEX
  8
Page1
 10
-18684.745476
 20
7667.507464
 30
0.000000
  0
VERTEX
  8
Page1
 10
-18685.162411
 20
7668.346476
 30
0.000000
  0
VERTEX
  8
Page1
 10
-18685.559464
 20
7669.196871
 30
0.000000
  0
VERTEX
  8
Page1
 10
-18685.936332
 20
7670.058346
 30
0.000000
  0
VERTEX
  8
Page1
 10
-18686.292711
 20
7670.930597
 30
0.000000
  0
VERTEX
  8
Page1
 10
-18686.628297
 20
7671.813320
 30
0.000000
  0
VERTEX
  8
Page1
 10
-18686.942787
 20
7672.706213
 30
0.000000
  0
VERTEX
  8
Page1
 10
-18687.235878
 20
7673.608971
 30
0.000000
  0
VERTEX
  8
Page1
 10
-18687.507266
 20
7674.521292
 30
0.000000
  0
VERTEX
  8
Page1
 10
-18687.756647
 20
7675.442871
 30
0.000000
  0
VERTEX
  8
Page1
 10
-18687.983719
 20
7676.373405
 30
0.000000
  0
VERTEX
  8
Page1
 10
-18688.188176
 20
7677.312591
 30
0.000000
  0
VERTEX
  8
Page1
 10
-18688.369717
 20
7678.260125
 30
0.000000
  0
VERTEX
  8
Page1
 10
-18688.528037
 20
7679.215703
 30
0.000000
  0
VERTEX
  8
Page1
 10
-18688.662833
 20
7680.179022
 30
0.000000
  0
VERTEX
  8
Page1
 10
-18688.773801
 20
7681.149779
 30
0.000000
  0
VERTEX
  8
Page1
 10
-18688.860638
 20
7682.127669
 30
0.000000
  0
VERTEX
  8
Page1
 10
-18688.923040
 20
7683.112390
 30
0.000000
  0
VERTEX
  8
Page1
 10
-18688.960704
 20
7684.103638
 30
0.000000
  0
VERTEX
  8
Page1
 10
-18688.973326
 20
7685.101110
 30
0.000000
  0
VERTEX
  8
Page1
 10
-18688.973326
 20
7685.101110
 30
0.000000
  0
VERTEX
  8
Page1
 10
-18688.973326
 20
7907.809240
 30
0.000000
  0
VERTEX
  8
Page1
 10
-18688.973326
 20
7907.809240
 30
0.000000
  0
VERTEX
  8
Page1
 10
-18688.960704
 20
7908.806707
 30
0.000000
  0
VERTEX
  8
Page1
 10
-18688.923040
 20
7909.797952
 30
0.000000
  0
VERTEX
  8
Page1
 10
-18688.860638
 20
7910.782670
 30
0.000000
  0
VERTEX
  8
Page1
 10
-18688.773801
 20
7911.760558
 30
0.000000
  0
VERTEX
  8
Page1
 10
-18688.662833
 20
7912.731312
 30
0.000000
  0
VERTEX
  8
Page1
 10
-18688.528037
 20
7913.694629
 30
0.000000
  0
VERTEX
  8
Page1
 10
-18688.369717
 20
7914.650205
 30
0.000000
  0
VERTEX
  8
Page1
 10
-18688.188177
 20
7915.597737
 30
0.000000
  0
VERTEX
  8
Page1
 10
-18687.983719
 20
7916.536920
 30
0.000000
  0
VERTEX
  8
Page1
 10
-18687.756648
 20
7917.467453
 30
0.000000
  0
VERTEX
  8
Page1
 10
-18687.507267
 20
7918.389030
 30
0.000000
  0
VERTEX
  8
Page1
 10
-18687.235879
 20
7919.301350
 30
0.000000
  0
VERTEX
  8
Page1
 10
-18686.942788
 20
7920.204107
 30
0.000000
  0
VERTEX
  8
Page1
 10
-18686.628298
 20
7921.096998
 30
0.000000
  0
VERTEX
  8
Page1
 10
-18686.292712
 20
7921.979721
 30
0.000000
  0
VERTEX
  8
Page1
 10
-18685.936333
 20
7922.851971
 30
0.000000
  0
VERTEX
  8
Page1
 10
-18685.559466
 20
7923.713446
 30
0.000000
  0
VERTEX
  8
Page1
 10
-18685.162413
 20
7924.563840
 30
0.000000
  0
VERTEX
  8
Page1
 10
-18684.745478
 20
7925.402852
 30
0.000000
  0
VERTEX
  8
Page1
 10
-18684.308965
 20
7926.230176
 30
0.000000
  0
VERTEX
  8
Page1
 10
-18683.853177
 20
7927.045511
 30
0.000000
  0
VERTEX
  8
Page1
 10
-18683.378418
 20
7927.848552
 30
0.000000
  0
VERTEX
  8
Page1
 10
-18682.884991
 20
7928.638996
 30
0.000000
  0
VERTEX
  8
Page1
 10
-18682.373200
 20
7929.416539
 30
0.000000
  0
VERTEX
  8
Page1
 10
-18681.843349
 20
7930.180878
 30
0.000000
  0
VERTEX
  8
Page1
 10
-18681.295740
 20
7930.931709
 30
0.000000
  0
VERTEX
  8
Page1
 10
-18680.730678
 20
7931.668728
 30
0.000000
  0
VERTEX
  8
Page1
 10
-18680.148465
 20
7932.391633
 30
0.000000
  0
VERTEX
  8
Page1
 10
-18679.549406
 20
7933.100119
 30
0.000000
  0
VERTEX
  8
Page1
 10
-18678.933804
 20
7933.793884
 30
0.000000
  0
VERTEX
  8
Page1
 10
-18678.301962
 20
7934.472623
 30
0.000000
  0
VERTEX
  8
Page1
 10
-18677.654184
 20
7935.136033
 30
0.000000
  0
VERTEX
  8
Page1
 10
-18676.990774
 20
7935.783811
 30
0.000000
  0
VERTEX
  8
Page1
 10
-18676.312035
 20
7936.415653
 30
0.000000
  0
VERTEX
  8
Page1
 10
-18675.618270
 20
7937.031255
 30
0.000000
  0
VERTEX
  8
Page1
 10
-18674.909784
 20
7937.630314
 30
0.000000
  0
VERTEX
  8
Page1
 10
-18674.186879
 20
7938.212527
 30
0.000000
  0
VERTEX
  8
Page1
 10
-18673.449859
 20
7938.777589
 30
0.000000
  0
VERTEX
  8
Page1
 10
-18672.699028
 20
7939.325198
 30
0.000000
  0
VERTEX
  8
Page1
 10
-18671.934690
 20
7939.855050
 30
0.000000
  0
VERTEX
  8
Page1
 10
-18671.157147
 20
7940.366841
 30
0.000000
  0
VERTEX
  8
Page1
 10
-18670.366703
 20
7940.860267
 30
0.000000
  0
VERTEX
  8
Page1
 10
-18669.563662
 20
7941.335026
 30
0.000000
  0
VERTEX
  8
Page1
 10
-18668.748327
 20
7941.790814
 30
0.000000
  0
VERTEX
  8
Page1
 10
-18667.921002
 20
7942.227327
 30
0.000000
  0
VERTEX
  8
Page1
 10
-18667.081991
 20
7942.644262
 30
0.000000
  0
VERTEX
  8
Page1
 10
-18666.231596
 20
7943.041315
 30
0.000000
  0
VERTEX
  8
Page1
 10
-18665.370122
 20
7943.418182
 30
0.000000
  0
VERTEX
  8
Page1
 10
-18664.497872
 20
7943.774561
 30
0.000000
  0
VERTEX
  8
Page1
 10
-18663.615149
 20
7944.110147
 30
0.000000
  0
VERTEX
  8
Page1
 10
-18662.722258
 20
7944.424637
 30
0.000000
  0
VERTEX
  8
Page1
 10
-18661.819500
 20
7944.717728
 30
0.000000
  0
VERTEX
  8
Page1
 10
-18660.907181
 20
7944.989116
 30
0.000000
  0
VERTEX
  8
Page1
 10
-18659.985604
 20
7945.238497
 30
0.000000
  0
VERTEX
  8
Page1
 10
-18659.055071
 20
7945.465568
 30
0.000000
  0
VERTEX
  8
Page1
 10
-18658.115887
 20
7945.670026
 30
0.000000
  0
VERTEX
  8
Page1
 10
-18657.168356
 20
7945.851566
 30
0.000000
  0
VERTEX
  8
Page1
 10
-18656.212780
 20
7946.009886
 30
0.000000
  0
VERTEX
  8
Page1
 10
-18655.249463
 20
7946.144682
 30
0.000000
  0
VERTEX
  8
Page1
 10
-18654.278709
 20
7946.255650
 30
0.000000
  0
VERTEX
  8
Page1
 10
-18653.300821
 20
7946.342487
 30
0.000000
  0
VERTEX
  8
Page1
 10
-18652.316103
 20
7946.404889
 30
0.000000
  0
VERTEX
  8
Page1
 10
-18651.324858
 20
7946.442553
 30
0.000000
  0
VERTEX
  8
Page1
 10
-18650.327391
 20
7946.455175
 30
0.000000
  0
VERTEX
  8
Page1
 10
-18650.327391
 20
7946.455175
 30
0.000000
  0
VERTEX
  8
Page1
 10
-18327.619261
 20
7946.455175
 30
0.000000
  0
VERTEX
  8
Page1
 10
-18327.619261
 20
7946.455175
 30
0.000000
  0
VERTEX
  8
Page1
 10
-18326.621793
 20
7946.442553
 30
0.000000
  0
VERTEX
  8
Page1
 10
-18325.630548
 20
7946.404889
 30
0.000000
  0
VERTEX
  8
Page1
 10
-18324.645830
 20
7946.342487
 30
0.000000
  0
VERTEX
  8
Page1
 10
-18323.667942
 20
7946.255650
 30
0.000000
  0
VERTEX
  8
Page1
 10
-18322.697188
 20
7946.144682
 30
0.000000
  0
VERTEX
  8
Page1
 10
-18321.733871
 20
7946.009886
 30
0.000000
  0
VERTEX
  8
Page1
 10
-18320.778295
 20
7945.851566
 30
0.000000
  0
VERTEX
  8
Page1
 10
-18319.830764
 20
7945.670025
 30
0.000000
  0
VERTEX
  8
Page1
 10
-18318.891580
 20
7945.465568
 30
0.000000
  0
VERTEX
  8
Page1
 10
-18317.961047
 20
7945.238497
 30
0.000000
  0
VERTEX
  8
Page1
 10
-18317.039470
 20
7944.989115
 30
0.000000
  0
VERTEX
  8
Page1
 10
-18316.127151
 20
7944.717727
 30
0.000000
  0
VERTEX
  8
Page1
 10
-18315.224394
 20
7944.424636
 30
0.000000
  0
VERTEX
  8
Page1
 10
-18314.331502
 20
7944.110146
 30
0.000000
  0
VERTEX
  8
Page1
 10
-18313.448779
 20
7943.774560
 30
0.000000
  0
VERTEX
  8
Page1
 10
-18312.576529
 20
7943.418181
 30
0.000000
  0
VERTEX
  8
Page1
 10
-18311.715055
 20
7943.041313
 30
0.000000
  0
VERTEX
  8
Page1
 10
-18310.864660
 20
7942.644260
 30
0.000000
  0
VERTEX
  8
Page1
 10
-18310.025649
 20
7942.227325
 30
0.000000
  0
VERTEX
  8
Page1
 10
-18309.198324
 20
7941.790812
 30
0.000000
  0
VERTEX
  8
Page1
 10
-18308.382989
 20
7941.335024
 30
0.000000
  0
VERTEX
  8
Page1
 10
-18307.579948
 20
7940.860264
 30
0.000000
  0
VERTEX
  8
Page1
 10
-18306.789505
 20
7940.366837
 30
0.000000
  0
VERTEX
  8
Page1
 10
-18306.011962
 20
7939.855046
 30
0.000000
  0
VERTEX
  8
Page1
 10
-18305.247623
 20
7939.325193
 30
0.000000
  0
VERTEX
  8
Page1
 10
-18304.496792
 20
7938.777584
 30
0.000000
  0
VERTEX
  8
Page1
 10
-18303.759772
 20
7938.212521
 30
0.000000
  0
VERTEX
  8
Page1
 10
-18303.036867
 20
7937.630308
 30
0.000000
  0
VERTEX
  8
Page1
 10
-18302.328381
 20
7937.031248
 30
0.000000
  0
VERTEX
  8
Page1
 10
-18301.634616
 20
7936.415645
 30
0.000000
  0
VERTEX
  8
Page1
 10
-18300.955877
 20
7935.783802
 30
0.000000
  0
VERTEX
  8
Page1
 10
-18300.292467
 20
7935.136024
 30
0.000000
  0
VERTEX
  8
Page1
 10
-18299.644689
 20
7934.472613
 30
0.000000
  0
VERTEX
  8
Page1
 10
-18299.012848
 20
7933.793873
 30
0.000000
  0
VERTEX
  8
Page1
 10
-18298.397245
 20
7933.100107
 30
0.000000
  0
VERTEX
  8
Page1
 10
-18297.798186
 20
7932.391619
 30
0.000000
  0
VERTEX
  8
Page1
 10
-18297.215974
 20
7931.668713
 30
0.000000
  0
VERTEX
  8
Page1
 10
-18296.650911
 20
7930.931693
 30
0.000000
  0
VERTEX
  8
Page1
 10
-18296.103302
 20
7930.180860
 30
0.000000
  0
VERTEX
  8
Page1
 10
-18295.573451
 20
7929.416520
 30
0.000000
  0
VERTEX
  8
Page1
 10
-18295.061660
 20
7928.638976
 30
0.000000
  0
VERTEX
  8
Page1
 10
-18294.568233
 20
7927.848530
 30
0.000000
  0
VERTEX
  8
Page1
 10
-18294.093474
 20
7927.045488
 30
0.000000
  0
VERTEX
  8
Page1
 10
-18293.637686
 20
7926.230152
 30
0.000000
  0
VERTEX
  8
Page1
 10
-18293.201173
 20
7925.402825
 30
0.000000
  0
VERTEX
  8
Page1
 10
-18292.784238
 20
7924.563812
 30
0.000000
  0
VERTEX
  8
Page1
 10
-18292.387186
 20
7923.713415
 30
0.000000
  0
VERTEX
  8
Page1
 10
-18292.010318
 20
7922.851939
 30
0.000000
  0
VERTEX
  8
Page1
 10
-18291.653940
 20
7921.979687
 30
0.000000
  0
VERTEX
  8
Page1
 10
-18291.318353
 20
7921.096962
 30
0.000000
  0
VERTEX
  8
Page1
 10
-18291.003863
 20
7920.204068
 30
0.000000
  0
VERTEX
  8
Page1
 10
-18290.710772
 20
7919.301309
 30
0.000000
  0
VERTEX
  8
Page1
 10
-18290.439385
 20
7918.388987
 30
0.000000
  0
VERTEX
  8
Page1
 10
-18290.190003
 20
7917.467407
 30
0.000000
  0
VERTEX
  8
Page1
 10
-18289.962932
 20
7916.536872
 30
0.000000
  0
VERTEX
  8
Page1
 10
-18289.758475
 20
7915.597685
 30
0.000000
  0
VERTEX
  8
Page1
 10
-18289.576934
 20
7914.650151
 30
0.000000
  0
VERTEX
  8
Page1
 10
-18289.418614
 20
7913.694572
 30
0.000000
  0
VERTEX
  8
Page1
 10
-18289.283819
 20
7912.731252
 30
0.000000
  0
VERTEX
  8
Page1
 10
-18289.172850
 20
7911.760495
 30
0.000000
  0
VERTEX
  8
Page1
 10
-18289.086014
 20
7910.782604
 30
0.000000
  0
VERTEX
  8
Page1
 10
-18289.023612
 20
7909.797883
 30
0.000000
  0
VERTEX
  8
Page1
 10
-18288.985948
 20
7908.806635
 30
0.000000
  0
VERTEX
  8
Page1
 10
-18288.973326
 20
7907.809163
 30
0.000000
  0
VERTEX
  8
Page1
 10
-18288.973326
 20
7907.809163
 30
0.000000
  0
VERTEX
  8
Page1
 10
-18288.973326
 20
7685.101110
 30
0.000000
  0
VERTEX
  8
Page1
 10
-18288.973326
 20
7685.101110
 30
0.000000
  0
VERTEX
  8
Page1
 10
-18288.985948
 20
7684.103638
 30
0.000000
  0
VERTEX
  8
Page1
 10
-18289.023612
 20
7683.112390
 30
0.000000
  0
VERTEX
  8
Page1
 10
-18289.086014
 20
7682.127669
 30
0.000000
  0
VERTEX
  8
Page1
 10
-18289.172850
 20
7681.149779
 30
0.000000
  0
VERTEX
  8
Page1
 10
-18289.283819
 20
7680.179022
 30
0.000000
  0
VERTEX
  8
Page1
 10
-18289.418614
 20
7679.215703
 30
0.000000
  0
VERTEX
  8
Page1
 10
-18289.576934
 20
7678.260125
 30
0.000000
  0
VERTEX
  8
Page1
 10
-18289.758475
 20
7677.312591
 30
0.000000
  0
VERTEX
  8
Page1
 10
-18289.962932
 20
7676.373405
 30
0.000000
  0
VERTEX
  8
Page1
 10
-18290.190003
 20
7675.442871
 30
0.000000
  0
VERTEX
  8
Page1
 10
-18290.439385
 20
7674.521292
 30
0.000000
  0
VERTEX
  8
Page1
 10
-18290.710772
 20
7673.608971
 30
0.000000
  0
VERTEX
  8
Page1
 10
-18291.003863
 20
7672.706213
 30
0.000000
  0
VERTEX
  8
Page1
 10
-18291.318353
 20
7671.813320
 30
0.000000
  0
VERTEX
  8
Page1
 10
-18291.653940
 20
7670.930597
 30
0.000000
  0
VERTEX
  8
Page1
 10
-18292.010318
 20
7670.058346
 30
0.000000
  0
VERTEX
  8
Page1
 10
-18292.387186
 20
7669.196871
 30
0.000000
  0
VERTEX
  8
Page1
 10
-18292.784238
 20
7668.346476
 30
0.000000
  0
VERTEX
  8
Page1
 10
-18293.201173
 20
7667.507464
 30
0.000000
  0
VERTEX
  8
Page1
 10
-18293.637686
 20
7666.680139
 30
0.000000
  0
VERTEX
  8
Page1
 10
-18294.093474
 20
7665.864804
 30
0.000000
  0
VERTEX
  8
Page1
 10
-18294.568233
 20
7665.061763
 30
0.000000
  0
VERTEX
  8
Page1
 10
-18295.061660
 20
7664.271320
 30
0.000000
  0
VERTEX
  8
Page1
 10
-18295.573451
 20
7663.493777
 30
0.000000
  0
VERTEX
  8
Page1
 10
-18296.103302
 20
7662.729439
 30
0.000000
  0
VERTEX
  8
Page1
 10
-18296.650911
 20
7661.978608
 30
0.000000
  0
VERTEX
  8
Page1
 10
-18297.215974
 20
7661.241589
 30
0.000000
  0
VERTEX
  8
Page1
 10
-18297.798186
 20
7660.518685
 30
0.000000
  0
VERTEX
  8
Page1
 10
-18298.397245
 20
7659.810199
 30
0.000000
  0
VERTEX
  8
Page1
 10
-18299.012848
 20
7659.116435
 30
0.000000
  0
VERTEX
  8
Page1
 10
-18299.644689
 20
7658.437697
 30
0.000000
  0
VERTEX
  8
Page1
 10
-18300.292467
 20
7657.774287
 30
0.000000
  0
VERTEX
  8
Page1
 10
-18300.955877
 20
7657.126511
 30
0.000000
  0
VERTEX
  8
Page1
 10
-18301.634616
 20
7656.494670
 30
0.000000
  0
VERTEX
  8
Page1
 10
-18302.328381
 20
7655.879069
 30
0.000000
  0
VERTEX
  8
Page1
 10
-18303.036867
 20
7655.280011
 30
0.000000
  0
VERTEX
  8
Page1
 10
-18303.759772
 20
7654.697799
 30
0.000000
  0
VERTEX
  8
Page1
 10
-18304.496792
 20
7654.132738
 30
0.000000
  0
VERTEX
  8
Page1
 10
-18305.247623
 20
7653.585130
 30
0.000000
  0
VERTEX
  8
Page1
 10
-18306.011962
 20
7653.055280
 30
0.000000
  0
VERTEX
  8
Page1
 10
-18306.789505
 20
7652.543490
 30
0.000000
  0
VERTEX
  8
Page1
 10
-18307.579948
 20
7652.050064
 30
0.000000
  0
VERTEX
  8
Page1
 10
-18308.382989
 20
7651.575306
 30
0.000000
  0
VERTEX
  8
Page1
 10
-18309.198324
 20
7651.119520
 30
0.000000
  0
VERTEX
  8
Page1
 10
-18310.025649
 20
7650.683008
 30
0.000000
  0
VERTEX
  8
Page1
 10
-18310.864660
 20
7650.266075
 30
0.000000
  0
VERTEX
  8
Page1
 10
-18311.715055
 20
7649.869023
 30
0.000000
  0
VERTEX
  8
Page1
 10
-18312.576529
 20
7649.492157
 30
0.000000
  0
VERTEX
  8
Page1
 10
-18313.448779
 20
7649.135779
 30
0.000000
  0
VERTEX
  8
Page1
 10
-18314.331502
 20
7648.800194
 30
0.000000
  0
VERTEX
  8
Page1
 10
-18315.224394
 20
7648.485705
 30
0.000000
  0
VERTEX
  8
Page1
 10
-18316.127151
 20
7648.192615
 30
0.000000
  0
VERTEX
  8
Page1
 10
-18317.039470
 20
7647.921228
 30
0.000000
  0
VERTEX
  8
Page1
 10
-18317.961047
 20
7647.671848
 30
0.000000
  0
VERTEX
  8
Page1
 10
-18318.891580
 20
7647.444777
 30
0.000000
  0
VERTEX
  8
Page1
 10
-18319.830764
 20
7647.240321
 30
0.000000
  0
VERTEX
  8
Page1
 10
-18320.778295
 20
7647.058781
 30
0.000000
  0
VERTEX
  8
Page1
 10
-18321.733871
 20
7646.900462
 30
0.000000
  0
VERTEX
  8
Page1
 10
-18322.697188
 20
7646.765666
 30
0.000000
  0
VERTEX
  8
Page1
 10
-18323.667942
 20
7646.654699
 30
0.000000
  0
VERTEX
  8
Page1
 10
-18324.645830
 20
7646.567862
 30
0.000000
  0
VERTEX
  8
Page1
 10
-18325.630548
 20
7646.505460
 30
0.000000
  0
VERTEX
  8
Page1
 10
-18326.621793
 20
7646.467797
 30
0.000000
  0
VERTEX
  8
Page1
 10
-18327.619261
 20
7646.455175
 30
0.000000
  0
SEQEND
  8
Page1
  0
POLYLINE
  8
Page1
 10
0
 20
0
 30
0
 66
1
  0
VERTEX
  8
Page1
 10
-18326.755233
 20
7952.015863
 30
0.000000
  0
VERTEX
  8
Page1
 10
-18649.463286
 20
7952.015863
 30
0.000000
  0
VERTEX
  8
Page1
 10
-18649.463286
 20
7952.015863
 30
0.000000
  0
VERTEX
  8
Page1
 10
-18650.460758
 20
7952.028485
 30
0.000000
  0
VERTEX
  8
Page1
 10
-18651.452006
 20
7952.066148
 30
0.000000
  0
VERTEX
  8
Page1
 10
-18652.436727
 20
7952.128550
 30
0.000000
  0
VERTEX
  8
Page1
 10
-18653.414618
 20
7952.215387
 30
0.000000
  0
VERTEX
  8
Page1
 10
-18654.385375
 20
7952.326354
 30
0.000000
  0
VERTEX
  8
Page1
 10
-18655.348695
 20
7952.461149
 30
0.000000
  0
VERTEX
  8
Page1
 10
-18656.304274
 20
7952.619469
 30
0.000000
  0
VERTEX
  8
Page1
 10
-18657.251808
 20
7952.801009
 30
0.000000
  0
VERTEX
  8
Page1
 10
-18658.190995
 20
7953.005465
 30
0.000000
  0
VERTEX
  8
Page1
 10
-18659.121530
 20
7953.232536
 30
0.000000
  0
VERTEX
  8
Page1
 10
-18660.043110
 20
7953.481916
 30
0.000000
  0
VERTEX
  8
Page1
 10
-18660.955432
 20
7953.753303
 30
0.000000
  0
VERTEX
  8
Page1
 10
-18661.858191
 20
7954.046393
 30
0.000000
  0
VERTEX
  8
Page1
 10
-18662.751085
 20
7954.360882
 30
0.000000
  0
VERTEX
  8
Page1
 10
-18663.633810
 20
7954.696467
 30
0.000000
  0
VERTEX
  8
Page1
 10
-18664.506062
 20
7955.052844
 30
0.000000
  0
VERTEX
  8
Page1
 10
-18665.367538
 20
7955.429711
 30
0.000000
  0
VERTEX
  8
Page1
 10
-18666.217935
 20
7955.826762
 30
0.000000
  0
VERTEX
  8
Page1
 10
-18667.056948
 20
7956.243696
 30
0.000000
  0
VERTEX
  8
Page1
 10
-18667.884274
 20
7956.680208
 30
0.000000
  0
VERTEX
  8
Page1
 10
-18668.699611
 20
7957.135994
 30
0.000000
  0
VERTEX
  8
Page1
 10
-18669.502653
 20
7957.610752
 30
0.000000
  0
VERTEX
  8
Page1
 10
-18670.293099
 20
7958.104178
 30
0.000000
  0
VERTEX
  8
Page1
 10
-18671.070643
 20
7958.615968
 30
0.000000
  0
VERTEX
  8
Page1
 10
-18671.834983
 20
7959.145818
 30
0.000000
  0
VERTEX
  8
Page1
 10
-18672.585815
 20
7959.693426
 30
0.000000
  0
VERTEX
  8
Page1
 10
-18673.322836
 20
7960.258487
 30
0.000000
  0
VERTEX
  8
Page1
 10
-18674.045742
 20
7960.840699
 30
0.000000
  0
VERTEX
  8
Page1
 10
-18674.754230
 20
7961.439757
 30
0.000000
  0
VERTEX
  8
Page1
 10
-18675.447995
 20
7962.055358
 30
0.000000
  0
VERTEX
  8
Page1
 10
-18676.126736
 20
7962.687199
 30
0.000000
  0
VERTEX
  8
Page1
 10
-18676.790147
 20
7963.334975
 30
0.000000
  0
VERTEX
  8
Page1
 10
-18677.437925
 20
7963.998385
 30
0.000000
  0
VERTEX
  8
Page1
 10
-18678.069768
 20
7964.677123
 30
0.000000
  0
VERTEX
  8
Page1
 10
-18678.685371
 20
7965.370887
 30
0.000000
  0
VERTEX
  8
Page1
 10
-18679.284431
 20
7966.079373
 30
0.000000
  0
VERTEX
  8
Page1
 10
-18679.866644
 20
7966.802277
 30
0.000000
  0
VERTEX
  8
Page1
 10
-18680.431707
 20
7967.539296
 30
0.000000
  0
VERTEX
  8
Page1
 10
-18680.979316
 20
7968.290127
 30
0.000000
  0
VERTEX
  8
Page1
 10
-18681.509168
 20
7969.054465
 30
0.000000
  0
VERTEX
  8
Page1
 10
-18682.020960
 20
7969.832008
 30
0.000000
  0
VERTEX
  8
Page1
 10
-18682.514387
 20
7970.622451
 30
0.000000
  0
VERTEX
  8
Page1
 10
-18682.989147
 20
7971.425492
 30
0.000000
  0
VERTEX
  8
Page1
 10
-18683.444935
 20
7972.240827
 30
0.000000
  0
VERTEX
  8
Page1
 10
-18683.881448
 20
7973.068152
 30
0.000000
  0
VERTEX
  8
Page1
 10
-18684.298383
 20
7973.907164
 30
0.000000
  0
VERTEX
  8
Page1
 10
-18684.695436
 20
7974.757559
 30
0.000000
  0
VERTEX
  8
Page1
 10
-18685.072304
 20
7975.619034
 30
0.000000
  0
VERTEX
  8
Page1
 10
-18685.428683
 20
7976.491285
 30
0.000000
  0
VERTEX
  8
Page1
 10
-18685.764269
 20
7977.374008
 30
0.000000
  0
VERTEX
  8
Page1
 10
-18686.078759
 20
7978.266901
 30
0.000000
  0
VERTEX
  8
Page1
 10
-18686.371850
 20
7979.169659
 30
0.000000
  0
VERTEX
  8
Page1
 10
-18686.643238
 20
7980.081980
 30
0.000000
  0
VERTEX
  8
Page1
 10
-18686.892619
 20
7981.003559
 30
0.000000
  0
VERTEX
  8
Page1
 10
-18687.119691
 20
7981.934093
 30
0.000000
  0
VERTEX
  8
Page1
 10
-18687.324148
 20
7982.873279
 30
0.000000
  0
VERTEX
  8
Page1
 10
-18687.505689
 20
7983.820813
 30
0.000000
  0
VERTEX
  8
Page1
 10
-18687.664009
 20
7984.776391
 30
0.000000
  0
VERTEX
  8
Page1
 10
-18687.798805
 20
7985.739710
 30
0.000000
  0
VERTEX
  8
Page1
 10
-18687.909773
 20
7986.710467
 30
0.000000
  0
VERTEX
  8
Page1
 10
-18687.996610
 20
7987.688357
 30
0.000000
  0
VERTEX
  8
Page1
 10
-18688.059012
 20
7988.673078
 30
0.000000
  0
VERTEX
  8
Page1
 10
-18688.096676
 20
7989.664326
 30
0.000000
  0
VERTEX
  8
Page1
 10
-18688.109298
 20
7990.661798
 30
0.000000
  0
VERTEX
  8
Page1
 10
-18688.109298
 20
7990.661798
 30
0.000000
  0
VERTEX
  8
Page1
 10
-18688.109298
 20
8213.369928
 30
0.000000
  0
VERTEX
  8
Page1
 10
-18688.109298
 20
8213.369928
 30
0.000000
  0
VERTEX
  8
Page1
 10
-18688.096676
 20
8214.367395
 30
0.000000
  0
VERTEX
  8
Page1
 10
-18688.059012
 20
8215.358640
 30
0.000000
  0
VERTEX
  8
Page1
 10
-18687.996610
 20
8216.343358
 30
0.000000
  0
VERTEX
  8
Page1
 10
-18687.909773
 20
8217.321246
 30
0.000000
  0
VERTEX
  8
Page1
 10
-18687.798805
 20
8218.292000
 30
0.000000
  0
VERTEX
  8
Page1
 10
-18687.664009
 20
8219.255317
 30
0.000000
  0
VERTEX
  8
Page1
 10
-18687.505689
 20
8220.210893
 30
0.000000
  0
VERTEX
  8
Page1
 10
-18687.324149
 20
8221.158424
 30
0.000000
  0
VERTEX
  8
Page1
 10
-18687.119691
 20
8222.097608
 30
0.000000
  0
VERTEX
  8
Page1
 10
-18686.892620
 20
8223.028141
 30
0.000000
  0
VERTEX
  8
Page1
 10
-18686.643239
 20
8223.949718
 30
0.000000
  0
VERTEX
  8
Page1
 10
-18686.371851
 20
8224.862037
 30
0.000000
  0
VERTEX
  8
Page1
 10
-18686.078760
 20
8225.764795
 30
0.000000
  0
VERTEX
  8
Page1
 10
-18685.764270
 20
8226.657686
 30
0.000000
  0
VERTEX
  8
Page1
 10
-18685.428684
 20
8227.540409
 30
0.000000
  0
VERTEX
  8
Page1
 10
-18685.072305
 20
8228.412659
 30
0.000000
  0
VERTEX
  8
Page1
 10
-18684.695438
 20
8229.274133
 30
0.000000
  0
VERTEX
  8
Page1
 10
-18684.298385
 20
8230.124528
 30
0.000000
  0
VERTEX
  8
Page1
 10
-18683.881450
 20
8230.963539
 30
0.000000
  0
VERTEX
  8
Page1
 10
-18683.444937
 20
8231.790864
 30
0.000000
  0
VERTEX
  8
Page1
 10
-18682.989149
 20
8232.606199
 30
0.000000
  0
VERTEX
  8
Page1
 10
-18682.514390
 20
8233.409240
 30
0.000000
  0
VERTEX
  8
Page1
 10
-18682.020963
 20
8234.199684
 30
0.000000
  0
VERTEX
  8
Page1
 10
-18681.509172
 20
8234.977227
 30
0.000000
  0
VERTEX
  8
Page1
 10
-18680.979321
 20
8235.741565
 30
0.000000
  0
VERTEX
  8
Page1
 10
-18680.431712
 20
8236.492396
 30
0.000000
  0
VERTEX
  8
Page1
 10
-18679.866650
 20
8237.229416
 30
0.000000
  0
VERTEX
  8
Page1
 10
-18679.284437
 20
8237.952321
 30
0.000000
  0
VERTEX
  8
Page1
 10
-18678.685378
 20
8238.660807
 30
0.000000
  0
VERTEX
  8
Page1
 10
-18678.069776
 20
8239.354572
 30
0.000000
  0
VERTEX
  8
Page1
 10
-18677.437934
 20
8240.033311
 30
0.000000
  0
VERTEX
  8
Page1
 10
-18676.790156
 20
8240.696721
 30
0.000000
  0
VERTEX
  8
Page1
 10
-18676.126746
 20
8241.344499
 30
0.000000
  0
VERTEX
  8
Page1
 10
-18675.448007
 20
8241.976341
 30
0.000000
  0
VERTEX
  8
Page1
 10
-18674.754242
 20
8242.591943
 30
0.000000
  0
VERTEX
  8
Page1
 10
-18674.045756
 20
8243.191002
 30
0.000000
  0
VERTEX
  8
Page1
 10
-18673.322851
 20
8243.773215
 30
0.000000
  0
VERTEX
  8
Page1
 10
-18672.585831
 20
8244.338277
 30
0.000000
  0
VERTEX
  8
Page1
 10
-18671.835000
 20
8244.885886
 30
0.000000
  0
VERTEX
  8
Page1
 10
-18671.070662
 20
8245.415737
 30
0.000000
  0
VERTEX
  8
Page1
 10
-18670.293119
 20
8245.927528
 30
0.000000
  0
VERTEX
  8
Page1
 10
-18669.502675
 20
8246.420955
 30
0.000000
  0
VERTEX
  8
Page1
 10
-18668.699634
 20
8246.895714
 30
0.000000
  0
VERTEX
  8
Page1
 10
-18667.884299
 20
8247.351502
 30
0.000000
  0
VERTEX
  8
Page1
 10
-18667.056974
 20
8247.788015
 30
0.000000
  0
VERTEX
  8
Page1
 10
-18666.217963
 20
8248.204950
 30
0.000000
  0
VERTEX
  8
Page1
 10
-18665.367568
 20
8248.602003
 30
0.000000
  0
VERTEX
  8
Page1
 10
-18664.506094
 20
8248.978870
 30
0.000000
  0
VERTEX
  8
Page1
 10
-18663.633844
 20
8249.335249
 30
0.000000
  0
VERTEX
  8
Page1
 10
-18662.751121
 20
8249.670835
 30
0.000000
  0
VERTEX
  8
Page1
 10
-18661.858230
 20
8249.985325
 30
0.000000
  0
VERTEX
  8
Page1
 10
-18660.955472
 20
8250.278416
 30
0.000000
  0
VERTEX
  8
Page1
 10
-18660.043153
 20
8250.549804
 30
0.000000
  0
VERTEX
  8
Page1
 10
-18659.121576
 20
8250.799185
 30
0.000000
  0
VERTEX
  8
Page1
 10
-18658.191043
 20
8251.026256
 30
0.000000
  0
VERTEX
  8
Page1
 10
-18657.251859
 20
8251.230714
 30
0.000000
  0
VERTEX
  8
Page1
 10
-18656.304328
 20
8251.412254
 30
0.000000
  0
VERTEX
  8
Page1
 10
-18655.348752
 20
8251.570574
 30
0.000000
  0
VERTEX
  8
Page1
 10
-18654.385435
 20
8251.705370
 30
0.000000
  0
VERTEX
  8
Page1
 10
-18653.414681
 20
8251.816338
 30
0.000000
  0
VERTEX
  8
Page1
 10
-18652.436793
 20
8251.903175
 30
0.000000
  0
VERTEX
  8
Page1
 10
-18651.452075
 20
8251.965577
 30
0.000000
  0
VERTEX
  8
Page1
 10
-18650.460830
 20
8252.003241
 30
0.000000
  0
VERTEX
  8
Page1
 10
-18649.463363
 20
8252.015863
 30
0.000000
  0
VERTEX
  8
Page1
 10
-18649.463363
 20
8252.015863
 30
0.000000
  0
VERTEX
  8
Page1
 10
-18326.755233
 20
8252.015863
 30
0.000000
  0
VERTEX
  8
Page1
 10
-18326.755233
 20
8252.015863
 30
0.000000
  0
VERTEX
  8
Page1
 10
-18325.757765
 20
8252.003241
 30
0.000000
  0
VERTEX
  8
Page1
 10
-18324.766520
 20
8251.965577
 30
0.000000
  0
VERTEX
  8
Page1
 10
-18323.781802
 20
8251.903175
 30
0.000000
  0
VERTEX
  8
Page1
 10
-18322.803914
 20
8251.816338
 30
0.000000
  0
VERTEX
  8
Page1
 10
-18321.833160
 20
8251.705370
 30
0.000000
  0
VERTEX
  8
Page1
 10
-18320.869843
 20
8251.570574
 30
0.000000
  0
VERTEX
  8
Page1
 10
-18319.914267
 20
8251.412254
 30
0.000000
  0
VERTEX
  8
Page1
 10
-18318.966736
 20
8251.230713
 30
0.000000
  0
VERTEX
  8
Page1
 10
-18318.027552
 20
8251.026256
 30
0.000000
  0
VERTEX
  8
Page1
 10
-18317.097019
 20
8250.799184
 30
0.000000
  0
VERTEX
  8
Page1
 10
-18316.175442
 20
8250.549803
 30
0.000000
  0
VERTEX
  8
Page1
 10
-18315.263123
 20
8250.278415
 30
0.000000
  0
VERTEX
  8
Page1
 10
-18314.360366
 20
8249.985324
 30
0.000000
  0
VERTEX
  8
Page1
 10
-18313.467474
 20
8249.670834
 30
0.000000
  0
VERTEX
  8
Page1
 10
-18312.584751
 20
8249.335248
 30
0.000000
  0
VERTEX
  8
Page1
 10
-18311.712501
 20
8248.978869
 30
0.000000
  0
VERTEX
  8
Page1
 10
-18310.851027
 20
8248.602001
 30
0.000000
  0
VERTEX
  8
Page1
 10
-18310.000632
 20
8248.204948
 30
0.000000
  0
VERTEX
  8
Page1
 10
-18309.161621
 20
8247.788013
 30
0.000000
  0
VERTEX
  8
Page1
 10
-18308.334296
 20
8247.351500
 30
0.000000
  0
VERTEX
  8
Page1
 10
-18307.518961
 20
8246.895712
 30
0.000000
  0
VERTEX
  8
Page1
 10
-18306.715920
 20
8246.420952
 30
0.000000
  0
VERTEX
  8
Page1
 10
-18305.925477
 20
8245.927525
 30
0.000000
  0
VERTEX
  8
Page1
 10
-18305.147934
 20
8245.415733
 30
0.000000
  0
VERTEX
  8
Page1
 10
-18304.383595
 20
8244.885881
 30
0.000000
  0
VERTEX
  8
Page1
 10
-18303.632764
 20
8244.338272
 30
0.000000
  0
VERTEX
  8
Page1
 10
-18302.895744
 20
8243.773209
 30
0.000000
  0
VERTEX
  8
Page1
 10
-18302.172839
 20
8243.190996
 30
0.000000
  0
VERTEX
  8
Page1
 10
-18301.464353
 20
8242.591936
 30
0.000000
  0
VERTEX
  8
Page1
 10
-18300.770588
 20
8241.976333
 30
0.000000
  0
VERTEX
  8
Page1
 10
-18300.091849
 20
8241.344490
 30
0.000000
  0
VERTEX
  8
Page1
 10
-18299.428439
 20
8240.696712
 30
0.000000
  0
VERTEX
  8
Page1
 10
-18298.780661
 20
8240.033301
 30
0.000000
  0
VERTEX
  8
Page1
 10
-18298.148820
 20
8239.354560
 30
0.000000
  0
VERTEX
  8
Page1
 10
-18297.533217
 20
8238.660795
 30
0.000000
  0
VERTEX
  8
Page1
 10
-18296.934158
 20
8237.952307
 30
0.000000
  0
VERTEX
  8
Page1
 10
-18296.351946
 20
8237.229401
 30
0.000000
  0
VERTEX
  8
Page1
 10
-18295.786883
 20
8236.492380
 30
0.000000
  0
VERTEX
  8
Page1
 10
-18295.239274
 20
8235.741548
 30
0.000000
  0
VERTEX
  8
Page1
 10
-18294.709423
 20
8234.977208
 30
0.000000
  0
VERTEX
  8
Page1
 10
-18294.197632
 20
8234.199664
 30
0.000000
  0
VERTEX
  8
Page1
 10
-18293.704205
 20
8233.409218
 30
0.000000
  0
VERTEX
  8
Page1
 10
-18293.229446
 20
8232.606176
 30
0.000000
  0
VERTEX
  8
Page1
 10
-18292.773658
 20
8231.790839
 30
0.000000
  0
VERTEX
  8
Page1
 10
-18292.337145
 20
8230.963513
 30
0.000000
  0
VERTEX
  8
Page1
 10
-18291.920210
 20
8230.124500
 30
0.000000
  0
VERTEX
  8
Page1
 10
-18291.523158
 20
8229.274103
 30
0.000000
  0
VERTEX
  8
Page1
 10
-18291.146290
 20
8228.412627
 30
0.000000
  0
VERTEX
  8
Page1
 10
-18290.789912
 20
8227.540375
 30
0.000000
  0
VERTEX
  8
Page1
 10
-18290.454325
 20
8226.657650
 30
0.000000
  0
VERTEX
  8
Page1
 10
-18290.139835
 20
8225.764756
 30
0.000000
  0
VERTEX
  8
Page1
 10
-18289.846744
 20
8224.861997
 30
0.000000
  0
VERTEX
  8
Page1
 10
-18289.575357
 20
8223.949675
 30
0.000000
  0
VERTEX
  8
Page1
 10
-18289.325975
 20
8223.028095
 30
0.000000
  0
VERTEX
  8
Page1
 10
-18289.098904
 20
8222.097560
 30
0.000000
  0
VERTEX
  8
Page1
 10
-18288.894447
 20
8221.158373
 30
0.000000
  0
VERTEX
  8
Page1
 10
-18288.712906
 20
8220.210839
 30
0.000000
  0
VERTEX
  8
Page1
 10
-18288.554586
 20
8219.255260
 30
0.000000
  0
VERTEX
  8
Page1
 10
-18288.419791
 20
8218.291940
 30
0.000000
  0
VERTEX
  8
Page1
 10
-18288.308822
 20
8217.321183
 30
0.000000
  0
VERTEX
  8
Page1
 10
-18288.221986
 20
8216.343292
 30
0.000000
  0
VERTEX
  8
Page1
 10
-18288.159584
 20
8215.358571
 30
0.000000
  0
VERTEX
  8
Page1
 10
-18288.121920
 20
8214.367323
 30
0.000000
  0
VERTEX
  8
Page1
 10
-18288.109298
 20
8213.369851
 30
0.000000
  0
VERTEX
  8
Page1
 10
-18288.109298
 20
8213.369851
 30
0.000000
  0
VERTEX
  8
Page1
 10
-18288.109298
 20
7990.661798
 30
0.000000
  0
VERTEX
  8
Page1
 10
-18288.109298
 20
7990.661798
 30
0.000000
  0
VERTEX
  8
Page1
 10
-18288.121920
 20
7989.664326
 30
0.000000
  0
VERTEX
  8
Page1
 10
-18288.159584
 20
7988.673078
 30
0.000000
  0
VERTEX
  8
Page1
 10
-18288.221986
 20
7987.688357
 30
0.000000
  0
VERTEX
  8
Page1
 10
-18288.308822
 20
7986.710467
 30
0.000000
  0
VERTEX
  8
Page1
 10
-18288.419791
 20
7985.739710
 30
0.000000
  0
VERTEX
  8
Page1
 10
-18288.554586
 20
7984.776391
 30
0.000000
  0
VERTEX
  8
Page1
 10
-18288.712906
 20
7983.820813
 30
0.000000
  0
VERTEX
  8
Page1
 10
-18288.894447
 20
7982.873279
 30
0.000000
  0
VERTEX
  8
Page1
 10
-18289.098904
 20
7981.934093
 30
0.000000
  0
VERTEX
  8
Page1
 10
-18289.325975
 20
7981.003559
 30
0.000000
  0
VERTEX
  8
Page1
 10
-18289.575357
 20
7980.081980
 30
0.000000
  0
VERTEX
  8
Page1
 10
-18289.846744
 20
7979.169659
 30
0.000000
  0
VERTEX
  8
Page1
 10
-18290.139835
 20
7978.266901
 30
0.000000
  0
VERTEX
  8
Page1
 10
-18290.454325
 20
7977.374008
 30
0.000000
  0
VERTEX
  8
Page1
 10
-18290.789912
 20
7976.491285
 30
0.000000
  0
VERTEX
  8
Page1
 10
-18291.146290
 20
7975.619034
 30
0.000000
  0
VERTEX
  8
Page1
 10
-18291.523158
 20
7974.757559
 30
0.000000
  0
VERTEX
  8
Page1
 10
-18291.920210
 20
7973.907164
 30
0.000000
  0
VERTEX
  8
Page1
 10
-18292.337145
 20
7973.068152
 30
0.000000
  0
VERTEX
  8
Page1
 10
-18292.773658
 20
7972.240827
 30
0.000000
  0
VERTEX
  8
Page1
 10
-18293.229446
 20
7971.425492
 30
0.000000
  0
VERTEX
  8
Page1
 10
-18293.704205
 20
7970.622451
 30
0.000000
  0
VERTEX
  8
Page1
 10
-18294.197632
 20
7969.832008
 30
0.000000
  0
VERTEX
  8
Page1
 10
-18294.709423
 20
7969.054465
 30
0.000000
  0
VERTEX
  8
Page1
 10
-18295.239274
 20
7968.290127
 30
0.000000
  0
VERTEX
  8
Page1
 10
-18295.786883
 20
7967.539296
 30
0.000000
  0
VERTEX
  8
Page1
 10
-18296.351946
 20
7966.802277
 30
0.000000
  0
VERTEX
  8
Page1
 10
-18296.934158
 20
7966.079373
 30
0.000000
  0
VERTEX
  8
Page1
 10
-18297.533217
 20
7965.370887
 30
0.000000
  0
VERTEX
  8
Page1
 10
-18298.148820
 20
7964.677123
 30
0.000000
  0
VERTEX
  8
Page1
 10
-18298.780661
 20
7963.998385
 30
0.000000
  0
VERTEX
  8
Page1
 10
-18299.428439
 20
7963.334975
 30
0.000000
  0
VERTEX
  8
Page1
 10
-18300.091849
 20
7962.687199
 30
0.000000
  0
VERTEX
  8
Page1
 10
-18300.770588
 20
7962.055358
 30
0.000000
  0
VERTEX
  8
Page1
 10
-18301.464353
 20
7961.439757
 30
0.000000
  0
VERTEX
  8
Page1
 10
-18302.172839
 20
7960.840699
 30
0.000000
  0
VERTEX
  8
Page1
 10
-18302.895744
 20
7960.258487
 30
0.000000
  0
VERTEX
  8
Page1
 10
-18303.632764
 20
7959.693426
 30
0.000000
  0
VERTEX
  8
Page1
 10
-18304.383595
 20
7959.145818
 30
0.000000
  0
VERTEX
  8
Page1
 10
-18305.147934
 20
7958.615968
 30
0.000000
  0
VERTEX
  8
Page1
 10
-18305.925477
 20
7958.104178
 30
0.000000
  0
VERTEX
  8
Page1
 10
-18306.715920
 20
7957.610752
 30
0.000000
  0
VERTEX
  8
Page1
 10
-18307.518961
 20
7957.135994
 30
0.000000
  0
VERTEX
  8
Page1
 10
-18308.334296
 20
7956.680208
 30
0.000000
  0
VERTEX
  8
Page1
 10
-18309.161621
 20
7956.243696
 30
0.000000
  0
VERTEX
  8
Page1
 10
-18310.000632
 20
7955.826762
 30
0.000000
  0
VERTEX
  8
Page1
 10
-18310.851027
 20
7955.429711
 30
0.000000
  0
VERTEX
  8
Page1
 10
-18311.712501
 20
7955.052844
 30
0.000000
  0
VERTEX
  8
Page1
 10
-18312.584751
 20
7954.696467
 30
0.000000
  0
VERTEX
  8
Page1
 10
-18313.467474
 20
7954.360882
 30
0.000000
  0
VERTEX
  8
Page1
 10
-18314.360366
 20
7954.046393
 30
0.000000
  0
VERTEX
  8
Page1
 10
-18315.263123
 20
7953.753303
 30
0.000000
  0
VERTEX
  8
Page1
 10
-18316.175442
 20
7953.481916
 30
0.000000
  0
VERTEX
  8
Page1
 10
-18317.097019
 20
7953.232536
 30
0.000000
  0
VERTEX
  8
Page1
 10
-18318.027552
 20
7953.005465
 30
0.000000
  0
VERTEX
  8
Page1
 10
-18318.966736
 20
7952.801009
 30
0.000000
  0
VERTEX
  8
Page1
 10
-18319.914267
 20
7952.619469
 30
0.000000
  0
VERTEX
  8
Page1
 10
-18320.869843
 20
7952.461149
 30
0.000000
  0
VERTEX
  8
Page1
 10
-18321.833160
 20
7952.326354
 30
0.000000
  0
VERTEX
  8
Page1
 10
-18322.803914
 20
7952.215387
 30
0.000000
  0
VERTEX
  8
Page1
 10
-18323.781802
 20
7952.128550
 30
0.000000
  0
VERTEX
  8
Page1
 10
-18324.766520
 20
7952.066148
 30
0.000000
  0
VERTEX
  8
Page1
 10
-18325.757765
 20
7952.028485
 30
0.000000
  0
VERTEX
  8
Page1
 10
-18326.755233
 20
7952.015863
 30
0.000000
  0
SEQEND
  8
Page1
  0
POLYLINE
  8
Page1
 10
0
 20
0
 30
0
 66
1
  0
VERTEX
  8
Page1
 10
-17910.443844
 20
7643.911422
 30
0.000000
  0
VERTEX
  8
Page1
 10
-18233.151897
 20
7643.911422
 30
0.000000
  0
VERTEX
  8
Page1
 10
-18233.151897
 20
7643.911422
 30
0.000000
  0
VERTEX
  8
Page1
 10
-18234.149368
 20
7643.924044
 30
0.000000
  0
VERTEX
  8
Page1
 10
-18235.140617
 20
7643.961708
 30
0.000000
  0
VERTEX
  8
Page1
 10
-18236.125338
 20
7644.024110
 30
0.000000
  0
VERTEX
  8
Page1
 10
-18237.103229
 20
7644.110946
 30
0.000000
  0
VERTEX
  8
Page1
 10
-18238.073986
 20
7644.221914
 30
0.000000
  0
VERTEX
  8
Page1
 10
-18239.037306
 20
7644.356709
 30
0.000000
  0
VERTEX
  8
Page1
 10
-18239.992885
 20
7644.515028
 30
0.000000
  0
VERTEX
  8
Page1
 10
-18240.940419
 20
7644.696568
 30
0.000000
  0
VERTEX
  8
Page1
 10
-18241.879606
 20
7644.901025
 30
0.000000
  0
VERTEX
  8
Page1
 10
-18242.810141
 20
7645.128095
 30
0.000000
  0
VERTEX
  8
Page1
 10
-18243.731721
 20
7645.377476
 30
0.000000
  0
VERTEX
  8
Page1
 10
-18244.644042
 20
7645.648862
 30
0.000000
  0
VERTEX
  8
Page1
 10
-18245.546802
 20
7645.941952
 30
0.000000
  0
VERTEX
  8
Page1
 10
-18246.439696
 20
7646.256441
 30
0.000000
  0
VERTEX
  8
Page1
 10
-18247.322421
 20
7646.592026
 30
0.000000
  0
VERTEX
  8
Page1
 10
-18248.194673
 20
7646.948404
 30
0.000000
  0
VERTEX
  8
Page1
 10
-18249.056149
 20
7647.325270
 30
0.000000
  0
VERTEX
  8
Page1
 10
-18249.906546
 20
7647.722322
 30
0.000000
  0
VERTEX
  8
Page1
 10
-18250.745559
 20
7648.139256
 30
0.000000
  0
VERTEX
  8
Page1
 10
-18251.572885
 20
7648.575767
 30
0.000000
  0
VERTEX
  8
Page1
 10
-18252.388222
 20
7649.031554
 30
0.000000
  0
VERTEX
  8
Page1
 10
-18253.191264
 20
7649.506312
 30
0.000000
  0
VERTEX
  8
Page1
 10
-18253.981709
 20
7649.999737
 30
0.000000
  0
VERTEX
  8
Page1
 10
-18254.759254
 20
7650.511527
 30
0.000000
  0
VERTEX
  8
Page1
 10
-18255.523594
 20
7651.041378
 30
0.000000
  0
VERTEX
  8
Page1
 10
-18256.274426
 20
7651.588985
 30
0.000000
  0
VERTEX
  8
Page1
 10
-18257.011447
 20
7652.154047
 30
0.000000
  0
VERTEX
  8
Page1
 10
-18257.734353
 20
7652.736258
 30
0.000000
  0
VERTEX
  8
Page1
 10
-18258.442841
 20
7653.335316
 30
0.000000
  0
VERTEX
  8
Page1
 10
-18259.136606
 20
7653.950917
 30
0.000000
  0
VERTEX
  8
Page1
 10
-18259.815346
 20
7654.582758
 30
0.000000
  0
VERTEX
  8
Page1
 10
-18260.478758
 20
7655.230535
 30
0.000000
  0
VERTEX
  8
Page1
 10
-18261.126536
 20
7655.893944
 30
0.000000
  0
VERTEX
  8
Page1
 10
-18261.758379
 20
7656.572683
 30
0.000000
  0
VERTEX
  8
Page1
 10
-18262.373982
 20
7657.266446
 30
0.000000
  0
VERTEX
  8
Page1
 10
-18262.973041
 20
7657.974932
 30
0.000000
  0
VERTEX
  8
Page1
 10
-18263.555255
 20
7658.697836
 30
0.000000
  0
VERTEX
  8
Page1
 10
-18264.120318
 20
7659.434856
 30
0.000000
  0
VERTEX
  8
Page1
 10
-18264.667927
 20
7660.185686
 30
0.000000
  0
VERTEX
  8
Page1
 10
-18265.197779
 20
7660.950025
 30
0.000000
  0
VERTEX
  8
Page1
 10
-18265.709571
 20
7661.727567
 30
0.000000
  0
VERTEX
  8
Page1
 10
-18266.202998
 20
7662.518011
 30
0.000000
  0
VERTEX
  8
Page1
 10
-18266.677757
 20
7663.321052
 30
0.000000
  0
VERTEX
  8
Page1
 10
-18267.133546
 20
7664.136387
 30
0.000000
  0
VERTEX
  8
Page1
 10
-18267.570059
 20
7664.963712
 30
0.000000
  0
VERTEX
  8
Page1
 10
-18267.986994
 20
7665.802723
 30
0.000000
  0
VERTEX
  8
Page1
 10
-18268.384047
 20
7666.653119
 30
0.000000
  0
VERTEX
  8
Page1
 10
-18268.760915
 20
7667.514593
 30
0.000000
  0
VERTEX
  8
Page1
 10
-18269.117294
 20
7668.386844
 30
0.000000
  0
VERTEX
  8
Page1
 10
-18269.452880
 20
7669.269568
 30
0.000000
  0
VERTEX
  8
Page1
 10
-18269.767370
 20
7670.162461
 30
0.000000
  0
VERTEX
  8
Page1
 10
-18270.060461
 20
7671.065219
 30
0.000000
  0
VERTEX
  8
Page1
 10
-18270.331849
 20
7671.977539
 30
0.000000
  0
VERTEX
  8
Page1
 10
-18270.581230
 20
7672.899119
 30
0.000000
  0
VERTEX
  8
Page1
 10
-18270.808302
 20
7673.829653
 30
0.000000
  0
VERTEX
  8
Page1
 10
-18271.012759
 20
7674.768838
 30
0.000000
  0
VERTEX
  8
Page1
 10
-18271.194300
 20
7675.716372
 30
0.000000
  0
VERTEX
  8
Page1
 10
-18271.352620
 20
7676.671950
 30
0.000000
  0
VERTEX
  8
Page1
 10
-18271.487415
 20
7677.635270
 30
0.000000
  0
VERTEX
  8
Page1
 10
-18271.598384
 20
7678.606026
 30
0.000000
  0
VERTEX
  8
Page1
 10
-18271.685220
 20
7679.583917
 30
0.000000
  0
VERTEX
  8
Page1
 10
-18271.747623
 20
7680.568638
 30
0.000000
  0
VERTEX
  8
Page1
 10
-18271.785286
 20
7681.559886
 30
0.000000
  0
VERTEX
  8
Page1
 10
-18271.797908
 20
7682.557357
 30
0.000000
  0
VERTEX
  8
Page1
 10
-18271.797908
 20
7682.557357
 30
0.000000
  0
VERTEX
  8
Page1
 10
-18271.797908
 20
7905.265487
 30
0.000000
  0
VERTEX
  8
Page1
 10
-18271.797908
 20
7905.265487
 30
0.000000
  0
VERTEX
  8
Page1
 10
-18271.785286
 20
7906.262955
 30
0.000000
  0
VERTEX
  8
Page1
 10
-18271.747623
 20
7907.254200
 30
0.000000
  0
VERTEX
  8
Page1
 10
-18271.685220
 20
7908.238918
 30
0.000000
  0
VERTEX
  8
Page1
 10
-18271.598384
 20
7909.216805
 30
0.000000
  0
VERTEX
  8
Page1
 10
-18271.487416
 20
7910.187560
 30
0.000000
  0
VERTEX
  8
Page1
 10
-18271.352620
 20
7911.150876
 30
0.000000
  0
VERTEX
  8
Page1
 10
-18271.194300
 20
7912.106452
 30
0.000000
  0
VERTEX
  8
Page1
 10
-18271.012759
 20
7913.053984
 30
0.000000
  0
VERTEX
  8
Page1
 10
-18270.808302
 20
7913.993168
 30
0.000000
  0
VERTEX
  8
Page1
 10
-18270.581231
 20
7914.923700
 30
0.000000
  0
VERTEX
  8
Page1
 10
-18270.331849
 20
7915.845278
 30
0.000000
  0
VERTEX
  8
Page1
 10
-18270.060462
 20
7916.757597
 30
0.000000
  0
VERTEX
  8
Page1
 10
-18269.767371
 20
7917.660354
 30
0.000000
  0
VERTEX
  8
Page1
 10
-18269.452881
 20
7918.553246
 30
0.000000
  0
VERTEX
  8
Page1
 10
-18269.117294
 20
7919.435969
 30
0.000000
  0
VERTEX
  8
Page1
 10
-18268.760916
 20
7920.308219
 30
0.000000
  0
VERTEX
  8
Page1
 10
-18268.384048
 20
7921.169693
 30
0.000000
  0
VERTEX
  8
Page1
 10
-18267.986996
 20
7922.020088
 30
0.000000
  0
VERTEX
  8
Page1
 10
-18267.570061
 20
7922.859099
 30
0.000000
  0
VERTEX
  8
Page1
 10
-18267.133548
 20
7923.686424
 30
0.000000
  0
VERTEX
  8
Page1
 10
-18266.677760
 20
7924.501758
 30
0.000000
  0
VERTEX
  8
Page1
 10
-18266.203001
 20
7925.304799
 30
0.000000
  0
VERTEX
  8
Page1
 10
-18265.709574
 20
7926.095243
 30
0.000000
  0
VERTEX
  8
Page1
 10
-18265.197783
 20
7926.872786
 30
0.000000
  0
VERTEX
  8
Page1
 10
-18264.667932
 20
7927.637125
 30
0.000000
  0
VERTEX
  8
Page1
 10
-18264.120323
 20
7928.387956
 30
0.000000
  0
VERTEX
  8
Page1
 10
-18263.555260
 20
7929.124976
 30
0.000000
  0
VERTEX
  8
Page1
 10
-18262.973048
 20
7929.847880
 30
0.000000
  0
VERTEX
  8
Page1
 10
-18262.373989
 20
7930.556367
 30
0.000000
  0
VERTEX
  8
Page1
 10
-18261.758386
 20
7931.250131
 30
0.000000
  0
VERTEX
  8
Page1
 10
-18261.126545
 20
7931.928871
 30
0.000000
  0
VERTEX
  8
Page1
 10
-18260.478767
 20
7932.592281
 30
0.000000
  0
VERTEX
  8
Page1
 10
-18259.815357
 20
7933.240058
 30
0.000000
  0
VERTEX
  8
Page1
 10
-18259.136618
 20
7933.871900
 30
0.000000
  0
VERTEX
  8
Page1
 10
-18258.442853
 20
7934.487502
 30
0.000000
  0
VERTEX
  8
Page1
 10
-18257.734367
 20
7935.086561
 30
0.000000
  0
VERTEX
  8
Page1
 10
-18257.011462
 20
7935.668774
 30
0.000000
  0
VERTEX
  8
Page1
 10
-18256.274442
 20
7936.233837
 30
0.000000
  0
VERTEX
  8
Page1
 10
-18255.523611
 20
7936.781445
 30
0.000000
  0
VERTEX
  8
Page1
 10
-18254.759273
 20
7937.311297
 30
0.000000
  0
VERTEX
  8
Page1
 10
-18253.981730
 20
7937.823088
 30
0.000000
  0
VERTEX
  8
Page1
 10
-18253.191286
 20
7938.316515
 30
0.000000
  0
VERTEX
  8
Page1
 10
-18252.388245
 20
7938.791274
 30
0.000000
  0
VERTEX
  8
Page1
 10
-18251.572910
 20
7939.247062
 30
0.000000
  0
VERTEX
  8
Page1
 10
-18250.745585
 20
7939.683575
 30
0.000000
  0
VERTEX
  8
Page1
 10
-18249.906574
 20
7940.100509
 30
0.000000
  0
VERTEX
  8
Page1
 10
-18249.056179
 20
7940.497562
 30
0.000000
  0
VERTEX
  8
Page1
 10
-18248.194705
 20
7940.874430
 30
0.000000
  0
VERTEX
  8
Page1
 10
-18247.322455
 20
7941.230808
 30
0.000000
  0
VERTEX
  8
Page1
 10
-18246.439732
 20
7941.566394
 30
0.000000
  0
VERTEX
  8
Page1
 10
-18245.546841
 20
7941.880885
 30
0.000000
  0
VERTEX
  8
Page1
 10
-18244.644083
 20
7942.173975
 30
0.000000
  0
VERTEX
  8
Page1
 10
-18243.731764
 20
7942.445363
 30
0.000000
  0
VERTEX
  8
Page1
 10
-18242.810187
 20
7942.694744
 30
0.000000
  0
VERTEX
  8
Page1
 10
-18241.879654
 20
7942.921815
 30
0.000000
  0
VERTEX
  8
Page1
 10
-18240.940470
 20
7943.126273
 30
0.000000
  0
VERTEX
  8
Page1
 10
-18239.992939
 20
7943.307814
 30
0.000000
  0
VERTEX
  8
Page1
 10
-18239.037363
 20
7943.466133
 30
0.000000
  0
VERTEX
  8
Page1
 10
-18238.074046
 20
7943.600929
 30
0.000000
  0
VERTEX
  8
Page1
 10
-18237.103292
 20
7943.711897
 30
0.000000
  0
VERTEX
  8
Page1
 10
-18236.125404
 20
7943.798734
 30
0.000000
  0
VERTEX
  8
Page1
 10
-18235.140686
 20
7943.861136
 30
0.000000
  0
VERTEX
  8
Page1
 10
-18234.149441
 20
7943.898800
 30
0.000000
  0
VERTEX
  8
Page1
 10
-18233.151973
 20
7943.911422
 30
0.000000
  0
VERTEX
  8
Page1
 10
-18233.151973
 20
7943.911422
 30
0.000000
  0
VERTEX
  8
Page1
 10
-17910.443844
 20
7943.911422
 30
0.000000
  0
VERTEX
  8
Page1
 10
-17910.443844
 20
7943.911422
 30
0.000000
  0
VERTEX
  8
Page1
 10
-17909.446376
 20
7943.898800
 30
0.000000
  0
VERTEX
  8
Page1
 10
-17908.455131
 20
7943.861136
 30
0.000000
  0
VERTEX
  8
Page1
 10
-17907.470413
 20
7943.798734
 30
0.000000
  0
VERTEX
  8
Page1
 10
-17906.492525
 20
7943.711897
 30
0.000000
  0
VERTEX
  8
Page1
 10
-17905.521771
 20
7943.600929
 30
0.000000
  0
VERTEX
  8
Page1
 10
-17904.558454
 20
7943.466133
 30
0.000000
  0
VERTEX
  8
Page1
 10
-17903.602878
 20
7943.307814
 30
0.000000
  0
VERTEX
  8
Page1
 10
-17902.655347
 20
7943.126273
 30
0.000000
  0
VERTEX
  8
Page1
 10
-17901.716163
 20
7942.921815
 30
0.000000
  0
VERTEX
  8
Page1
 10
-17900.785630
 20
7942.694744
 30
0.000000
  0
VERTEX
  8
Page1
 10
-17899.864053
 20
7942.445363
 30
0.000000
  0
VERTEX
  8
Page1
 10
-17898.951734
 20
7942.173975
 30
0.000000
  0
VERTEX
  8
Page1
 10
-17898.048976
 20
7941.880884
 30
0.000000
  0
VERTEX
  8
Page1
 10
-17897.156085
 20
7941.566394
 30
0.000000
  0
VERTEX
  8
Page1
 10
-17896.273362
 20
7941.230807
 30
0.000000
  0
VERTEX
  8
Page1
 10
-17895.401112
 20
7940.874428
 30
0.000000
  0
VERTEX
  8
Page1
 10
-17894.539638
 20
7940.497561
 30
0.000000
  0
VERTEX
  8
Page1
 10
-17893.689243
 20
7940.100508
 30
0.000000
  0
VERTEX
  8
Page1
 10
-17892.850232
 20
7939.683573
 30
0.000000
  0
VERTEX
  8
Page1
 10
-17892.022907
 20
7939.247059
 30
0.000000
  0
VERTEX
  8
Page1
 10
-17891.207572
 20
7938.791271
 30
0.000000
  0
VERTEX
  8
Page1
 10
-17890.404531
 20
7938.316512
 30
0.000000
  0
VERTEX
  8
Page1
 10
-17889.614087
 20
7937.823084
 30
0.000000
  0
VERTEX
  8
Page1
 10
-17888.836544
 20
7937.311293
 30
0.000000
  0
VERTEX
  8
Page1
 10
-17888.072206
 20
7936.781441
 30
0.000000
  0
VERTEX
  8
Page1
 10
-17887.321375
 20
7936.233831
 30
0.000000
  0
VERTEX
  8
Page1
 10
-17886.584355
 20
7935.668768
 30
0.000000
  0
VERTEX
  8
Page1
 10
-17885.861450
 20
7935.086555
 30
0.000000
  0
VERTEX
  8
Page1
 10
-17885.152964
 20
7934.487495
 30
0.000000
  0
VERTEX
  8
Page1
 10
-17884.459199
 20
7933.871892
 30
0.000000
  0
VERTEX
  8
Page1
 10
-17883.780460
 20
7933.240050
 30
0.000000
  0
VERTEX
  8
Page1
 10
-17883.117050
 20
7932.592271
 30
0.000000
  0
VERTEX
  8
Page1
 10
-17882.469272
 20
7931.928860
 30
0.000000
  0
VERTEX
  8
Page1
 10
-17881.837430
 20
7931.250120
 30
0.000000
  0
VERTEX
  8
Page1
 10
-17881.221828
 20
7930.556354
 30
0.000000
  0
VERTEX
  8
Page1
 10
-17880.622769
 20
7929.847867
 30
0.000000
  0
VERTEX
  8
Page1
 10
-17880.040557
 20
7929.124961
 30
0.000000
  0
VERTEX
  8
Page1
 10
-17879.475494
 20
7928.387940
 30
0.000000
  0
VERTEX
  8
Page1
 10
-17878.927885
 20
7927.637108
 30
0.000000
  0
VERTEX
  8
Page1
 10
-17878.398034
 20
7926.872768
 30
0.000000
  0
VERTEX
  8
Page1
 10
-17877.886243
 20
7926.095223
 30
0.000000
  0
VERTEX
  8
Page1
 10
-17877.392816
 20
7925.304778
 30
0.000000
  0
VERTEX
  8
Page1
 10
-17876.918057
 20
7924.501735
 30
0.000000
  0
VERTEX
  8
Page1
 10
-17876.462269
 20
7923.686399
 30
0.000000
  0
VERTEX
  8
Page1
 10
-17876.025756
 20
7922.859072
 30
0.000000
  0
VERTEX
  8
Page1
 10
-17875.608821
 20
7922.020059
 30
0.000000
  0
VERTEX
  8
Page1
 10
-17875.211768
 20
7921.169663
 30
0.000000
  0
VERTEX
  8
Page1
 10
-17874.834901
 20
7920.308187
 30
0.000000
  0
VERTEX
  8
Page1
 10
-17874.478522
 20
7919.435934
 30
0.000000
  0
VERTEX
  8
Page1
 10
-17874.142936
 20
7918.553210
 30
0.000000
  0
VERTEX
  8
Page1
 10
-17873.828446
 20
7917.660316
 30
0.000000
  0
VERTEX
  8
Page1
 10
-17873.535355
 20
7916.757556
 30
0.000000
  0
VERTEX
  8
Page1
 10
-17873.263968
 20
7915.845235
 30
0.000000
  0
VERTEX
  8
Page1
 10
-17873.014586
 20
7914.923654
 30
0.000000
  0
VERTEX
  8
Page1
 10
-17872.787515
 20
7913.993119
 30
0.000000
  0
VERTEX
  8
Page1
 10
-17872.583057
 20
7913.053933
 30
0.000000
  0
VERTEX
  8
Page1
 10
-17872.401517
 20
7912.106398
 30
0.000000
  0
VERTEX
  8
Page1
 10
-17872.243197
 20
7911.150820
 30
0.000000
  0
VERTEX
  8
Page1
 10
-17872.108401
 20
7910.187500
 30
0.000000
  0
VERTEX
  8
Page1
 10
-17871.997433
 20
7909.216743
 30
0.000000
  0
VERTEX
  8
Page1
 10
-17871.910596
 20
7908.238852
 30
0.000000
  0
VERTEX
  8
Page1
 10
-17871.848194
 20
7907.254130
 30
0.000000
  0
VERTEX
  8
Page1
 10
-17871.810531
 20
7906.262882
 30
0.000000
  0
VERTEX
  8
Page1
 10
-17871.797908
 20
7905.265411
 30
0.000000
  0
VERTEX
  8
Page1
 10
-17871.797908
 20
7905.265411
 30
0.000000
  0
VERTEX
  8
Page1
 10
-17871.797908
 20
7682.557357
 30
0.000000
  0
VERTEX
  8
Page1
 10
-17871.797908
 20
7682.557357
 30
0.000000
  0
VERTEX
  8
Page1
 10
-17871.810531
 20
7681.559886
 30
0.000000
  0
VERTEX
  8
Page1
 10
-17871.848194
 20
7680.568638
 30
0.000000
  0
VERTEX
  8
Page1
 10
-17871.910596
 20
7679.583917
 30
0.000000
  0
VERTEX
  8
Page1
 10
-17871.997433
 20
7678.606026
 30
0.000000
  0
VERTEX
  8
Page1
 10
-17872.108401
 20
7677.635270
 30
0.000000
  0
VERTEX
  8
Page1
 10
-17872.243197
 20
7676.671950
 30
0.000000
  0
VERTEX
  8
Page1
 10
-17872.401517
 20
7675.716372
 30
0.000000
  0
VERTEX
  8
Page1
 10
-17872.583057
 20
7674.768838
 30
0.000000
  0
VERTEX
  8
Page1
 10
-17872.787515
 20
7673.829653
 30
0.000000
  0
VERTEX
  8
Page1
 10
-17873.014586
 20
7672.899119
 30
0.000000
  0
VERTEX
  8
Page1
 10
-17873.263968
 20
7671.977539
 30
0.000000
  0
VERTEX
  8
Page1
 10
-17873.535355
 20
7671.065219
 30
0.000000
  0
VERTEX
  8
Page1
 10
-17873.828446
 20
7670.162461
 30
0.000000
  0
VERTEX
  8
Page1
 10
-17874.142936
 20
7669.269568
 30
0.000000
  0
VERTEX
  8
Page1
 10
-17874.478522
 20
7668.386844
 30
0.000000
  0
VERTEX
  8
Page1
 10
-17874.834901
 20
7667.514593
 30
0.000000
  0
VERTEX
  8
Page1
 10
-17875.211768
 20
7666.653119
 30
0.000000
  0
VERTEX
  8
Page1
 10
-17875.608821
 20
7665.802723
 30
0.000000
  0
VERTEX
  8
Page1
 10
-17876.025756
 20
7664.963712
 30
0.000000
  0
VERTEX
  8
Page1
 10
-17876.462269
 20
7664.136387
 30
0.000000
  0
VERTEX
  8
Page1
 10
-17876.918057
 20
7663.321052
 30
0.000000
  0
VERTEX
  8
Page1
 10
-17877.392816
 20
7662.518011
 30
0.000000
  0
VERTEX
  8
Page1
 10
-17877.886243
 20
7661.727567
 30
0.000000
  0
VERTEX
  8
Page1
 10
-17878.398034
 20
7660.950025
 30
0.000000
  0
VERTEX
  8
Page1
 10
-17878.927885
 20
7660.185686
 30
0.000000
  0
VERTEX
  8
Page1
 10
-17879.475494
 20
7659.434856
 30
0.000000
  0
VERTEX
  8
Page1
 10
-17880.040557
 20
7658.697836
 30
0.000000
  0
VERTEX
  8
Page1
 10
-17880.622769
 20
7657.974932
 30
0.000000
  0
VERTEX
  8
Page1
 10
-17881.221828
 20
7657.266446
 30
0.000000
  0
VERTEX
  8
Page1
 10
-17881.837430
 20
7656.572683
 30
0.000000
  0
VERTEX
  8
Page1
 10
-17882.469272
 20
7655.893944
 30
0.000000
  0
VERTEX
  8
Page1
 10
-17883.117050
 20
7655.230535
 30
0.000000
  0
VERTEX
  8
Page1
 10
-17883.780460
 20
7654.582758
 30
0.000000
  0
VERTEX
  8
Page1
 10
-17884.459199
 20
7653.950917
 30
0.000000
  0
VERTEX
  8
Page1
 10
-17885.152964
 20
7653.335316
 30
0.000000
  0
VERTEX
  8
Page1
 10
-17885.861450
 20
7652.736258
 30
0.000000
  0
VERTEX
  8
Page1
 10
-17886.584355
 20
7652.154047
 30
0.000000
  0
VERTEX
  8
Page1
 10
-17887.321375
 20
7651.588985
 30
0.000000
  0
VERTEX
  8
Page1
 10
-17888.072206
 20
7651.041378
 30
0.000000
  0
VERTEX
  8
Page1
 10
-17888.836544
 20
7650.511527
 30
0.000000
  0
VERTEX
  8
Page1
 10
-17889.614087
 20
7649.999737
 30
0.000000
  0
VERTEX
  8
Page1
 10
-17890.404531
 20
7649.506312
 30
0.000000
  0
VERTEX
  8
Page1
 10
-17891.207572
 20
7649.031554
 30
0.000000
  0
VERTEX
  8
Page1
 10
-17892.022907
 20
7648.575767
 30
0.000000
  0
VERTEX
  8
Page1
 10
-17892.850232
 20
7648.139256
 30
0.000000
  0
VERTEX
  8
Page1
 10
-17893.689243
 20
7647.722322
 30
0.000000
  0
VERTEX
  8
Page1
 10
-17894.539638
 20
7647.325270
 30
0.000000
  0
VERTEX
  8
Page1
 10
-17895.401112
 20
7646.948404
 30
0.000000
  0
VERTEX
  8
Page1
 10
-17896.273362
 20
7646.592026
 30
0.000000
  0
VERTEX
  8
Page1
 10
-17897.156085
 20
7646.256441
 30
0.000000
  0
VERTEX
  8
Page1
 10
-17898.048976
 20
7645.941952
 30
0.000000
  0
VERTEX
  8
Page1
 10
-17898.951734
 20
7645.648862
 30
0.000000
  0
VERTEX
  8
Page1
 10
-17899.864053
 20
7645.377476
 30
0.000000
  0
VERTEX
  8
Page1
 10
-17900.785630
 20
7645.128095
 30
0.000000
  0
VERTEX
  8
Page1
 10
-17901.716163
 20
7644.901025
 30
0.000000
  0
VERTEX
  8
Page1
 10
-17902.655347
 20
7644.696568
 30
0.000000
  0
VERTEX
  8
Page1
 10
-17903.602878
 20
7644.515028
 30
0.000000
  0
VERTEX
  8
Page1
 10
-17904.558454
 20
7644.356709
 30
0.000000
  0
VERTEX
  8
Page1
 10
-17905.521771
 20
7644.221914
 30
0.000000
  0
VERTEX
  8
Page1
 10
-17906.492525
 20
7644.110946
 30
0.000000
  0
VERTEX
  8
Page1
 10
-17907.470413
 20
7644.024110
 30
0.000000
  0
VERTEX
  8
Page1
 10
-17908.455131
 20
7643.961708
 30
0.000000
  0
VERTEX
  8
Page1
 10
-17909.446376
 20
7643.924044
 30
0.000000
  0
VERTEX
  8
Page1
 10
-17910.443844
 20
7643.911422
 30
0.000000
  0
SEQEND
  8
Page1
  0
POLYLINE
  8
Page1
 10
0
 20
0
 30
0
 66
1
  0
VERTEX
  8
Page1
 10
-17909.579815
 20
7949.472110
 30
0.000000
  0
VERTEX
  8
Page1
 10
-18232.287869
 20
7949.472110
 30
0.000000
  0
VERTEX
  8
Page1
 10
-18232.287869
 20
7949.472110
 30
0.000000
  0
VERTEX
  8
Page1
 10
-18233.285340
 20
7949.484732
 30
0.000000
  0
VERTEX
  8
Page1
 10
-18234.276589
 20
7949.522396
 30
0.000000
  0
VERTEX
  8
Page1
 10
-18235.261310
 20
7949.584798
 30
0.000000
  0
VERTEX
  8
Page1
 10
-18236.239201
 20
7949.671634
 30
0.000000
  0
VERTEX
  8
Page1
 10
-18237.209958
 20
7949.782602
 30
0.000000
  0
VERTEX
  8
Page1
 10
-18238.173278
 20
7949.917397
 30
0.000000
  0
VERTEX
  8
Page1
 10
-18239.128857
 20
7950.075716
 30
0.000000
  0
VERTEX
  8
Page1
 10
-18240.076391
 20
7950.257256
 30
0.000000
  0
VERTEX
  8
Page1
 10
-18241.015578
 20
7950.461713
 30
0.000000
  0
VERTEX
  8
Page1
 10
-18241.946113
 20
7950.688783
 30
0.000000
  0
VERTEX
  8
Page1
 10
-18242.867693
 20
7950.938164
 30
0.000000
  0
VERTEX
  8
Page1
 10
-18243.780014
 20
7951.209550
 30
0.000000
  0
VERTEX
  8
Page1
 10
-18244.682774
 20
7951.502640
 30
0.000000
  0
VERTEX
  8
Page1
 10
-18245.575668
 20
7951.817129
 30
0.000000
  0
VERTEX
  8
Page1
 10
-18246.458393
 20
7952.152714
 30
0.000000
  0
VERTEX
  8
Page1
 10
-18247.330645
 20
7952.509092
 30
0.000000
  0
VERTEX
  8
Page1
 10
-18248.192121
 20
7952.885958
 30
0.000000
  0
VERTEX
  8
Page1
 10
-18249.042517
 20
7953.283010
 30
0.000000
  0
VERTEX
  8
Page1
 10
-18249.881531
 20
7953.699943
 30
0.000000
  0
VERTEX
  8
Page1
 10
-18250.708857
 20
7954.136455
 30
0.000000
  0
VERTEX
  8
Page1
 10
-18251.524194
 20
7954.592242
 30
0.000000
  0
VERTEX
  8
Page1
 10
-18252.327236
 20
7955.067000
 30
0.000000
  0
VERTEX
  8
Page1
 10
-18253.117681
 20
7955.560425
 30
0.000000
  0
VERTEX
  8
Page1
 10
-18253.895226
 20
7956.072215
 30
0.000000
  0
VERTEX
  8
Page1
 10
-18254.659566
 20
7956.602066
 30
0.000000
  0
VERTEX
  8
Page1
 10
-18255.410398
 20
7957.149673
 30
0.000000
  0
VERTEX
  8
Page1
 10
-18256.147419
 20
7957.714735
 30
0.000000
  0
VERTEX
  8
Page1
 10
-18256.870325
 20
7958.296946
 30
0.000000
  0
VERTEX
  8
Page1
 10
-18257.578813
 20
7958.896004
 30
0.000000
  0
VERTEX
  8
Page1
 10
-18258.272578
 20
7959.511605
 30
0.000000
  0
VERTEX
  8
Page1
 10
-18258.951318
 20
7960.143446
 30
0.000000
  0
VERTEX
  8
Page1
 10
-18259.614729
 20
7960.791223
 30
0.000000
  0
VERTEX
  8
Page1
 10
-18260.262508
 20
7961.454632
 30
0.000000
  0
VERTEX
  8
Page1
 10
-18260.894351
 20
7962.133370
 30
0.000000
  0
VERTEX
  8
Page1
 10
-18261.509954
 20
7962.827134
 30
0.000000
  0
VERTEX
  8
Page1
 10
-18262.109013
 20
7963.535620
 30
0.000000
  0
VERTEX
  8
Page1
 10
-18262.691227
 20
7964.258524
 30
0.000000
  0
VERTEX
  8
Page1
 10
-18263.256290
 20
7964.995543
 30
0.000000
  0
VERTEX
  8
Page1
 10
-18263.803899
 20
7965.746374
 30
0.000000
  0
VERTEX
  8
Page1
 10
-18264.333751
 20
7966.510712
 30
0.000000
  0
VERTEX
  8
Page1
 10
-18264.845543
 20
7967.288255
 30
0.000000
  0
VERTEX
  8
Page1
 10
-18265.338970
 20
7968.078699
 30
0.000000
  0
VERTEX
  8
Page1
 10
-18265.813729
 20
7968.881740
 30
0.000000
  0
VERTEX
  8
Page1
 10
-18266.269518
 20
7969.697075
 30
0.000000
  0
VERTEX
  8
Page1
 10
-18266.706031
 20
7970.524400
 30
0.000000
  0
VERTEX
  8
Page1
 10
-18267.122966
 20
7971.363411
 30
0.000000
  0
VERTEX
  8
Page1
 10
-18267.520019
 20
7972.213806
 30
0.000000
  0
VERTEX
  8
Page1
 10
-18267.896887
 20
7973.075281
 30
0.000000
  0
VERTEX
  8
Page1
 10
-18268.253265
 20
7973.947532
 30
0.000000
  0
VERTEX
  8
Page1
 10
-18268.588852
 20
7974.830256
 30
0.000000
  0
VERTEX
  8
Page1
 10
-18268.903342
 20
7975.723148
 30
0.000000
  0
VERTEX
  8
Page1
 10
-18269.196433
 20
7976.625907
 30
0.000000
  0
VERTEX
  8
Page1
 10
-18269.467821
 20
7977.538227
 30
0.000000
  0
VERTEX
  8
Page1
 10
-18269.717202
 20
7978.459806
 30
0.000000
  0
VERTEX
  8
Page1
 10
-18269.944274
 20
7979.390341
 30
0.000000
  0
VERTEX
  8
Page1
 10
-18270.148731
 20
7980.329526
 30
0.000000
  0
VERTEX
  8
Page1
 10
-18270.330272
 20
7981.277060
 30
0.000000
  0
VERTEX
  8
Page1
 10
-18270.488592
 20
7982.232638
 30
0.000000
  0
VERTEX
  8
Page1
 10
-18270.623387
 20
7983.195957
 30
0.000000
  0
VERTEX
  8
Page1
 10
-18270.734356
 20
7984.166714
 30
0.000000
  0
VERTEX
  8
Page1
 10
-18270.821192
 20
7985.144605
 30
0.000000
  0
VERTEX
  8
Page1
 10
-18270.883594
 20
7986.129326
 30
0.000000
  0
VERTEX
  8
Page1
 10
-18270.921258
 20
7987.120574
 30
0.000000
  0
VERTEX
  8
Page1
 10
-18270.933880
 20
7988.118045
 30
0.000000
  0
VERTEX
  8
Page1
 10
-18270.933880
 20
7988.118045
 30
0.000000
  0
VERTEX
  8
Page1
 10
-18270.933880
 20
8210.826175
 30
0.000000
  0
VERTEX
  8
Page1
 10
-18270.933880
 20
8210.826175
 30
0.000000
  0
VERTEX
  8
Page1
 10
-18270.921258
 20
8211.823643
 30
0.000000
  0
VERTEX
  8
Page1
 10
-18270.883595
 20
8212.814888
 30
0.000000
  0
VERTEX
  8
Page1
 10
-18270.821192
 20
8213.799606
 30
0.000000
  0
VERTEX
  8
Page1
 10
-18270.734356
 20
8214.777493
 30
0.000000
  0
VERTEX
  8
Page1
 10
-18270.623387
 20
8215.748247
 30
0.000000
  0
VERTEX
  8
Page1
 10
-18270.488592
 20
8216.711564
 30
0.000000
  0
VERTEX
  8
Page1
 10
-18270.330272
 20
8217.667140
 30
0.000000
  0
VERTEX
  8
Page1
 10
-18270.148731
 20
8218.614672
 30
0.000000
  0
VERTEX
  8
Page1
 10
-18269.944274
 20
8219.553856
 30
0.000000
  0
VERTEX
  8
Page1
 10
-18269.717203
 20
8220.484388
 30
0.000000
  0
VERTEX
  8
Page1
 10
-18269.467821
 20
8221.405966
 30
0.000000
  0
VERTEX
  8
Page1
 10
-18269.196434
 20
8222.318285
 30
0.000000
  0
VERTEX
  8
Page1
 10
-18268.903343
 20
8223.221042
 30
0.000000
  0
VERTEX
  8
Page1
 10
-18268.588853
 20
8224.113934
 30
0.000000
  0
VERTEX
  8
Page1
 10
-18268.253266
 20
8224.996657
 30
0.000000
  0
VERTEX
  8
Page1
 10
-18267.896888
 20
8225.868907
 30
0.000000
  0
VERTEX
  8
Page1
 10
-18267.520020
 20
8226.730381
 30
0.000000
  0
VERTEX
  8
Page1
 10
-18267.122968
 20
8227.580775
 30
0.000000
  0
VERTEX
  8
Page1
 10
-18266.706033
 20
8228.419787
 30
0.000000
  0
VERTEX
  8
Page1
 10
-18266.269520
 20
8229.247112
 30
0.000000
  0
VERTEX
  8
Page1
 10
-18265.813732
 20
8230.062446
 30
0.000000
  0
VERTEX
  8
Page1
 10
-18265.338973
 20
8230.865487
 30
0.000000
  0
VERTEX
  8
Page1
 10
-18264.845546
 20
8231.655931
 30
0.000000
  0
VERTEX
  8
Page1
 10
-18264.333755
 20
8232.433474
 30
0.000000
  0
VERTEX
  8
Page1
 10
-18263.803904
 20
8233.197813
 30
0.000000
  0
VERTEX
  8
Page1
 10
-18263.256295
 20
8233.948644
 30
0.000000
  0
VERTEX
  8
Page1
 10
-18262.691232
 20
8234.685664
 30
0.000000
  0
VERTEX
  8
Page1
 10
-18262.109020
 20
8235.408568
 30
0.000000
  0
VERTEX
  8
Page1
 10
-18261.509961
 20
8236.117055
 30
0.000000
  0
VERTEX
  8
Page1
 10
-18260.894358
 20
8236.810819
 30
0.000000
  0
VERTEX
  8
Page1
 10
-18260.262517
 20
8237.489558
 30
0.000000
  0
VERTEX
  8
Page1
 10
-18259.614739
 20
8238.152969
 30
0.000000
  0
VERTEX
  8
Page1
 10
-18258.951329
 20
8238.800746
 30
0.000000
  0
VERTEX
  8
Page1
 10
-18258.272590
 20
8239.432588
 30
0.000000
  0
VERTEX
  8
Page1
 10
-18257.578825
 20
8240.048190
 30
0.000000
  0
VERTEX
  8
Page1
 10
-18256.870339
 20
8240.647249
 30
0.000000
  0
VERTEX
  8
Page1
 10
-18256.147434
 20
8241.229462
 30
0.000000
  0
VERTEX
  8
Page1
 10
-18255.410414
 20
8241.794524
 30
0.000000
  0
VERTEX
  8
Page1
 10
-18254.659583
 20
8242.342133
 30
0.000000
  0
VERTEX
  8
Page1
 10
-18253.895245
 20
8242.871985
 30
0.000000
  0
VERTEX
  8
Page1
 10
-18253.117701
 20
8243.383776
 30
0.000000
  0
VERTEX
  8
Page1
 10
-18252.327258
 20
8243.877203
 30
0.000000
  0
VERTEX
  8
Page1
 10
-18251.524217
 20
8244.351962
 30
0.000000
  0
VERTEX
  8
Page1
 10
-18250.708882
 20
8244.807750
 30
0.000000
  0
VERTEX
  8
Page1
 10
-18249.881557
 20
8245.244262
 30
0.000000
  0
VERTEX
  8
Page1
 10
-18249.042546
 20
8245.661197
 30
0.000000
  0
VERTEX
  8
Page1
 10
-18248.192151
 20
8246.058250
 30
0.000000
  0
VERTEX
  8
Page1
 10
-18247.330677
 20
8246.435117
 30
0.000000
  0
VERTEX
  8
Page1
 10
-18246.458427
 20
8246.791496
 30
0.000000
  0
VERTEX
  8
Page1
 10
-18245.575704
 20
8247.127082
 30
0.000000
  0
VERTEX
  8
Page1
 10
-18244.682812
 20
8247.441572
 30
0.000000
  0
VERTEX
  8
Page1
 10
-18243.780055
 20
8247.734663
 30
0.000000
  0
VERTEX
  8
Page1
 10
-18242.867736
 20
8248.006051
 30
0.000000
  0
VERTEX
  8
Page1
 10
-18241.946159
 20
8248.255432
 30
0.000000
  0
VERTEX
  8
Page1
 10
-18241.015626
 20
8248.482503
 30
0.000000
  0
VERTEX
  8
Page1
 10
-18240.076442
 20
8248.686961
 30
0.000000
  0
VERTEX
  8
Page1
 10
-18239.128911
 20
8248.868502
 30
0.000000
  0
VERTEX
  8
Page1
 10
-18238.173335
 20
8249.026821
 30
0.000000
  0
VERTEX
  8
Page1
 10
-18237.210018
 20
8249.161617
 30
0.000000
  0
VERTEX
  8
Page1
 10
-18236.239264
 20
8249.272585
 30
0.000000
  0
VERTEX
  8
Page1
 10
-18235.261376
 20
8249.359422
 30
0.000000
  0
VERTEX
  8
Page1
 10
-18234.276658
 20
8249.421824
 30
0.000000
  0
VERTEX
  8
Page1
 10
-18233.285413
 20
8249.459488
 30
0.000000
  0
VERTEX
  8
Page1
 10
-18232.287945
 20
8249.472110
 30
0.000000
  0
VERTEX
  8
Page1
 10
-18232.287945
 20
8249.472110
 30
0.000000
  0
VERTEX
  8
Page1
 10
-17909.579815
 20
8249.472110
 30
0.000000
  0
VERTEX
  8
Page1
 10
-17909.579815
 20
8249.472110
 30
0.000000
  0
VERTEX
  8
Page1
 10
-17908.582348
 20
8249.459488
 30
0.000000
  0
VERTEX
  8
Page1
 10
-17907.591103
 20
8249.421824
 30
0.000000
  0
VERTEX
  8
Page1
 10
-17906.606385
 20
8249.359422
 30
0.000000
  0
VERTEX
  8
Page1
 10
-17905.628497
 20
8249.272585
 30
0.000000
  0
VERTEX
  8
Page1
 10
-17904.657743
 20
8249.161617
 30
0.000000
  0
VERTEX
  8
Page1
 10
-17903.694426
 20
8249.026821
 30
0.000000
  0
VERTEX
  8
Page1
 10
-17902.738850
 20
8248.868501
 30
0.000000
  0
VERTEX
  8
Page1
 10
-17901.791319
 20
8248.686961
 30
0.000000
  0
VERTEX
  8
Page1
 10
-17900.852135
 20
8248.482503
 30
0.000000
  0
VERTEX
  8
Page1
 10
-17899.921602
 20
8248.255432
 30
0.000000
  0
VERTEX
  8
Page1
 10
-17899.000025
 20
8248.006051
 30
0.000000
  0
VERTEX
  8
Page1
 10
-17898.087706
 20
8247.734663
 30
0.000000
  0
VERTEX
  8
Page1
 10
-17897.184948
 20
8247.441572
 30
0.000000
  0
VERTEX
  8
Page1
 10
-17896.292057
 20
8247.127081
 30
0.000000
  0
VERTEX
  8
Page1
 10
-17895.409334
 20
8246.791495
 30
0.000000
  0
VERTEX
  8
Page1
 10
-17894.537084
 20
8246.435116
 30
0.000000
  0
VERTEX
  8
Page1
 10
-17893.675610
 20
8246.058249
 30
0.000000
  0
VERTEX
  8
Page1
 10
-17892.825215
 20
8245.661195
 30
0.000000
  0
VERTEX
  8
Page1
 10
-17891.986204
 20
8245.244261
 30
0.000000
  0
VERTEX
  8
Page1
 10
-17891.158879
 20
8244.807747
 30
0.000000
  0
VERTEX
  8
Page1
 10
-17890.343544
 20
8244.351959
 30
0.000000
  0
VERTEX
  8
Page1
 10
-17889.540503
 20
8243.877200
 30
0.000000
  0
VERTEX
  8
Page1
 10
-17888.750059
 20
8243.383772
 30
0.000000
  0
VERTEX
  8
Page1
 10
-17887.972516
 20
8242.871981
 30
0.000000
  0
VERTEX
  8
Page1
 10
-17887.208178
 20
8242.342129
 30
0.000000
  0
VERTEX
  8
Page1
 10
-17886.457347
 20
8241.794519
 30
0.000000
  0
VERTEX
  8
Page1
 10
-17885.720327
 20
8241.229456
 30
0.000000
  0
VERTEX
  8
Page1
 10
-17884.997422
 20
8240.647243
 30
0.000000
  0
VERTEX
  8
Page1
 10
-17884.288936
 20
8240.048183
 30
0.000000
  0
VERTEX
  8
Page1
 10
-17883.595171
 20
8239.432580
 30
0.000000
  0
VERTEX
  8
Page1
 10
-17882.916432
 20
8238.800738
 30
0.000000
  0
VERTEX
  8
Page1
 10
-17882.253022
 20
8238.152959
 30
0.000000
  0
VERTEX
  8
Page1
 10
-17881.605244
 20
8237.489548
 30
0.000000
  0
VERTEX
  8
Page1
 10
-17880.973402
 20
8236.810808
 30
0.000000
  0
VERTEX
  8
Page1
 10
-17880.357800
 20
8236.117042
 30
0.000000
  0
VERTEX
  8
Page1
 10
-17879.758741
 20
8235.408555
 30
0.000000
  0
VERTEX
  8
Page1
 10
-17879.176529
 20
8234.685649
 30
0.000000
  0
VERTEX
  8
Page1
 10
-17878.611466
 20
8233.948628
 30
0.000000
  0
VERTEX
  8
Page1
 10
-17878.063857
 20
8233.197796
 30
0.000000
  0
VERTEX
  8
Page1
 10
-17877.534006
 20
8232.433456
 30
0.000000
  0
VERTEX
  8
Page1
 10
-17877.022215
 20
8231.655911
 30
0.000000
  0
VERTEX
  8
Page1
 10
-17876.528788
 20
8230.865466
 30
0.000000
  0
VERTEX
  8
Page1
 10
-17876.054029
 20
8230.062423
 30
0.000000
  0
VERTEX
  8
Page1
 10
-17875.598241
 20
8229.247087
 30
0.000000
  0
VERTEX
  8
Page1
 10
-17875.161728
 20
8228.419760
 30
0.000000
  0
VERTEX
  8
Page1
 10
-17874.744793
 20
8227.580747
 30
0.000000
  0
VERTEX
  8
Page1
 10
-17874.347740
 20
8226.730351
 30
0.000000
  0
VERTEX
  8
Page1
 10
-17873.970873
 20
8225.868875
 30
0.000000
  0
VERTEX
  8
Page1
 10
-17873.614494
 20
8224.996622
 30
0.000000
  0
VERTEX
  8
Page1
 10
-17873.278908
 20
8224.113897
 30
0.000000
  0
VERTEX
  8
Page1
 10
-17872.964418
 20
8223.221004
 30
0.000000
  0
VERTEX
  8
Page1
 10
-17872.671327
 20
8222.318244
 30
0.000000
  0
VERTEX
  8
Page1
 10
-17872.399939
 20
8221.405922
 30
0.000000
  0
VERTEX
  8
Page1
 10
-17872.150558
 20
8220.484342
 30
0.000000
  0
VERTEX
  8
Page1
 10
-17871.923487
 20
8219.553807
 30
0.000000
  0
VERTEX
  8
Page1
 10
-17871.719029
 20
8218.614621
 30
0.000000
  0
VERTEX
  8
Page1
 10
-17871.537489
 20
8217.667086
 30
0.000000
  0
VERTEX
  8
Page1
 10
-17871.379169
 20
8216.711507
 30
0.000000
  0
VERTEX
  8
Page1
 10
-17871.244373
 20
8215.748188
 30
0.000000
  0
VERTEX
  8
Page1
 10
-17871.133405
 20
8214.777431
 30
0.000000
  0
VERTEX
  8
Page1
 10
-17871.046568
 20
8213.799540
 30
0.000000
  0
VERTEX
  8
Page1
 10
-17870.984166
 20
8212.814818
 30
0.000000
  0
VERTEX
  8
Page1
 10
-17870.946502
 20
8211.823570
 30
0.000000
  0
VERTEX
  8
Page1
 10
-17870.933880
 20
8210.826099
 30
0.000000
  0
VERTEX
  8
Page1
 10
-17870.933880
 20
8210.826099
 30
0.000000
  0
VERTEX
  8
Page1
 10
-17870.933880
 20
7988.118045
 30
0.000000
  0
VERTEX
  8
Page1
 10
-17870.933880
 20
7988.118045
 30
0.000000
  0
VERTEX
  8
Page1
 10
-17870.946502
 20
7987.120574
 30
0.000000
  0
VERTEX
  8
Page1
 10
-17870.984166
 20
7986.129326
 30
0.000000
  0
VERTEX
  8
Page1
 10
-17871.046568
 20
7985.144605
 30
0.000000
  0
VERTEX
  8
Page1
 10
-17871.133405
 20
7984.166714
 30
0.000000
  0
VERTEX
  8
Page1
 10
-17871.244373
 20
7983.195957
 30
0.000000
  0
VERTEX
  8
Page1
 10
-17871.379169
 20
7982.232638
 30
0.000000
  0
VERTEX
  8
Page1
 10
-17871.537489
 20
7981.277060
 30
0.000000
  0
VERTEX
  8
Page1
 10
-17871.719029
 20
7980.329526
 30
0.000000
  0
VERTEX
  8
Page1
 10
-17871.923487
 20
7979.390341
 30
0.000000
  0
VERTEX
  8
Page1
 10
-17872.150558
 20
7978.459806
 30
0.000000
  0
VERTEX
  8
Page1
 10
-17872.399939
 20
7977.538227
 30
0.000000
  0
VERTEX
  8
Page1
 10
-17872.671327
 20
7976.625907
 30
0.000000
  0
VERTEX
  8
Page1
 10
-17872.964418
 20
7975.723148
 30
0.000000
  0
VERTEX
  8
Page1
 10
-17873.278908
 20
7974.830256
 30
0.000000
  0
VERTEX
  8
Page1
 10
-17873.614494
 20
7973.947532
 30
0.000000
  0
VERTEX
  8
Page1
 10
-17873.970873
 20
7973.075281
 30
0.000000
  0
VERTEX
  8
Page1
 10
-17874.347740
 20
7972.213806
 30
0.000000
  0
VERTEX
  8
Page1
 10
-17874.744793
 20
7971.363411
 30
0.000000
  0
VERTEX
  8
Page1
 10
-17875.161728
 20
7970.524400
 30
0.000000
  0
VERTEX
  8
Page1
 10
-17875.598241
 20
7969.697075
 30
0.000000
  0
VERTEX
  8
Page1
 10
-17876.054029
 20
7968.881740
 30
0.000000
  0
VERTEX
  8
Page1
 10
-17876.528788
 20
7968.078699
 30
0.000000
  0
VERTEX
  8
Page1
 10
-17877.022215
 20
7967.288255
 30
0.000000
  0
VERTEX
  8
Page1
 10
-17877.534006
 20
7966.510712
 30
0.000000
  0
VERTEX
  8
Page1
 10
-17878.063857
 20
7965.746374
 30
0.000000
  0
VERTEX
  8
Page1
 10
-17878.611466
 20
7964.995543
 30
0.000000
  0
VERTEX
  8
Page1
 10
-17879.176529
 20
7964.258524
 30
0.000000
  0
VERTEX
  8
Page1
 10
-17879.758741
 20
7963.535620
 30
0.000000
  0
VERTEX
  8
Page1
 10
-17880.357800
 20
7962.827134
 30
0.000000
  0
VERTEX
  8
Page1
 10
-17880.973402
 20
7962.133370
 30
0.000000
  0
VERTEX
  8
Page1
 10
-17881.605244
 20
7961.454632
 30
0.000000
  0
VERTEX
  8
Page1
 10
-17882.253022
 20
7960.791223
 30
0.000000
  0
VERTEX
  8
Page1
 10
-17882.916432
 20
7960.143446
 30
0.000000
  0
VERTEX
  8
Page1
 10
-17883.595171
 20
7959.511605
 30
0.000000
  0
VERTEX
  8
Page1
 10
-17884.288936
 20
7958.896004
 30
0.000000
  0
VERTEX
  8
Page1
 10
-17884.997422
 20
7958.296946
 30
0.000000
  0
VERTEX
  8
Page1
 10
-17885.720327
 20
7957.714735
 30
0.000000
  0
VERTEX
  8
Page1
 10
-17886.457347
 20
7957.149673
 30
0.000000
  0
VERTEX
  8
Page1
 10
-17887.208178
 20
7956.602066
 30
0.000000
  0
VERTEX
  8
Page1
 10
-17887.972516
 20
7956.072215
 30
0.000000
  0
VERTEX
  8
Page1
 10
-17888.750059
 20
7955.560425
 30
0.000000
  0
VERTEX
  8
Page1
 10
-17889.540503
 20
7955.067000
 30
0.000000
  0
VERTEX
  8
Page1
 10
-17890.343544
 20
7954.592242
 30
0.000000
  0
VERTEX
  8
Page1
 10
-17891.158879
 20
7954.136455
 30
0.000000
  0
VERTEX
  8
Page1
 10
-17891.986204
 20
7953.699943
 30
0.000000
  0
VERTEX
  8
Page1
 10
-17892.825215
 20
7953.283010
 30
0.000000
  0
VERTEX
  8
Page1
 10
-17893.675610
 20
7952.885958
 30
0.000000
  0
VERTEX
  8
Page1
 10
-17894.537084
 20
7952.509092
 30
0.000000
  0
VERTEX
  8
Page1
 10
-17895.409334
 20
7952.152714
 30
0.000000
  0
VERTEX
  8
Page1
 10
-17896.292057
 20
7951.817129
 30
0.000000
  0
VERTEX
  8
Page1
 10
-17897.184948
 20
7951.502640
 30
0.000000
  0
VERTEX
  8
Page1
 10
-17898.087706
 20
7951.209550
 30
0.000000
  0
VERTEX
  8
Page1
 10
-17899.000025
 20
7950.938164
 30
0.000000
  0
VERTEX
  8
Page1
 10
-17899.921602
 20
7950.688783
 30
0.000000
  0
VERTEX
  8
Page1
 10
-17900.852135
 20
7950.461713
 30
0.000000
  0
VERTEX
  8
Page1
 10
-17901.791319
 20
7950.257256
 30
0.000000
  0
VERTEX
  8
Page1
 10
-17902.738850
 20
7950.075716
 30
0.000000
  0
VERTEX
  8
Page1
 10
-17903.694426
 20
7949.917397
 30
0.000000
  0
VERTEX
  8
Page1
 10
-17904.657743
 20
7949.782602
 30
0.000000
  0
VERTEX
  8
Page1
 10
-17905.628497
 20
7949.671634
 30
0.000000
  0
VERTEX
  8
Page1
 10
-17906.606385
 20
7949.584798
 30
0.000000
  0
VERTEX
  8
Page1
 10
-17907.591103
 20
7949.522396
 30
0.000000
  0
VERTEX
  8
Page1
 10
-17908.582348
 20
7949.484732
 30
0.000000
  0
VERTEX
  8
Page1
 10
-17909.579815
 20
7949.472110
 30
0.000000
  0
SEQEND
  8
Page1
  0
ENDSEC
  0
EOF
