  0
SECTION
  2
HEADER
  9
$ACADVER
  1
AC1032
  9
$ACADMAINTVER
 90
      155
  9
$DWGCODEPAGE
  3
ANSI_1251
  9
$REQUIREDVERSIONS
160
                 0
  9
$INSBASE
 10
0.0
 20
0.0
 30
0.0
  9
$EXTMIN
 10
1.000000000000000E+20
 20
1.000000000000000E+20
 30
1.000000000000000E+20
  9
$EXTMAX
 10
-1.000000000000000E+20
 20
-1.000000000000000E+20
 30
-1.000000000000000E+20
  9
$LIMMIN
 10
0.0
 20
0.0
  9
$LIMMAX
 10
12.0
 20
9.0
  9
$ORTHOMODE
 70
     0
  9
$REGENMODE
 70
     1
  9
$FILLMODE
 70
     1
  9
$QTEXTMODE
 70
     0
  9
$MIRRTEXT
 70
     0
  9
$LTSCALE
 40
1.0
  9
$ATTMODE
 70
     1
  9
$TEXTSIZE
 40
0.2
  9
$TRACEWID
 40
0.05
  9
$TEXTSTYLE
  7
Standard
  9
$CLAYER
  8
0
  9
$CELTYPE
  6
ByLayer
  9
$CECOLOR
 62
   256
  9
$CELTSCALE
 40
1.0
  9
$DISPSILH
 70
     0
  9
$DIMSCALE
 40
1.0
  9
$DIMASZ
 40
0.18
  9
$DIMEXO
 40
0.0625
  9
$DIMDLI
 40
0.38
  9
$DIMRND
 40
0.0
  9
$DIMDLE
 40
0.0
  9
$DIMEXE
 40
0.18
  9
$DIMTP
 40
0.0
  9
$DIMTM
 40
0.0
  9
$DIMTXT
 40
0.18
  9
$DIMCEN
 40
0.09
  9
$DIMTSZ
 40
0.0
  9
$DIMTOL
 70
     0
  9
$DIMLIM
 70
     0
  9
$DIMTIH
 70
     1
  9
$DIMTOH
 70
     1
  9
$DIMSE1
 70
     0
  9
$DIMSE2
 70
     0
  9
$DIMTAD
 70
     0
  9
$DIMZIN
 70
     0
  9
$DIMBLK
  1

  9
$DIMASO
 70
     1
  9
$DIMSHO
 70
     1
  9
$DIMPOST
  1

  9
$DIMAPOST
  1

  9
$DIMALT
 70
     0
  9
$DIMALTD
 70
     2
  9
$DIMALTF
 40
25.4
  9
$DIMLFAC
 40
1.0
  9
$DIMTOFL
 70
     0
  9
$DIMTVP
 40
0.0
  9
$DIMTIX
 70
     0
  9
$DIMSOXD
 70
     0
  9
$DIMSAH
 70
     0
  9
$DIMBLK1
  1

  9
$DIMBLK2
  1

  9
$DIMSTYLE
  2
Standard
  9
$DIMCLRD
 70
     0
  9
$DIMCLRE
 70
     0
  9
$DIMCLRT
 70
     0
  9
$DIMTFAC
 40
1.0
  9
$DIMGAP
 40
0.09
  9
$DIMJUST
 70
     0
  9
$DIMSD1
 70
     0
  9
$DIMSD2
 70
     0
  9
$DIMTOLJ
 70
     1
  9
$DIMTZIN
 70
     0
  9
$DIMALTZ
 70
     0
  9
$DIMALTTZ
 70
     0
  9
$DIMUPT
 70
     0
  9
$DIMDEC
 70
     4
  9
$DIMTDEC
 70
     4
  9
$DIMALTU
 70
     2
  9
$DIMALTTD
 70
     2
  9
$DIMTXSTY
  7
Standard
  9
$DIMAUNIT
 70
     0
  9
$DIMADEC
 70
     0
  9
$DIMALTRND
 40
0.0
  9
$DIMAZIN
 70
     0
  9
$DIMDSEP
 70
    46
  9
$DIMATFIT
 70
     3
  9
$DIMFRAC
 70
     0
  9
$DIMLDRBLK
  1

  9
$DIMLUNIT
 70
     2
  9
$DIMLWD
 70
    -2
  9
$DIMLWE
 70
    -2
  9
$DIMTMOVE
 70
     0
  9
$DIMFXL
 40
1.0
  9
$DIMFXLON
 70
     0
  9
$DIMJOGANG
 40
0.7853981633974483
  9
$DIMTFILL
 70
     0
  9
$DIMTFILLCLR
 70
     0
  9
$DIMARCSYM
 70
     0
  9
$DIMLTYPE
  6

  9
$DIMLTEX1
  6

  9
$DIMLTEX2
  6

  9
$DIMTXTDIRECTION
 70
     0
  9
$LUNITS
 70
     2
  9
$LUPREC
 70
     4
  9
$SKETCHINC
 40
0.1
  9
$FILLETRAD
 40
0.0
  9
$AUNITS
 70
     0
  9
$AUPREC
 70
     0
  9
$MENU
  1
.
  9
$ELEVATION
 40
0.0
  9
$PELEVATION
 40
0.0
  9
$THICKNESS
 40
0.0
  9
$LIMCHECK
 70
     0
  9
$CHAMFERA
 40
0.0
  9
$CHAMFERB
 40
0.0
  9
$CHAMFERC
 40
0.0
  9
$CHAMFERD
 40
0.0
  9
$SKPOLY
 70
     0
  9
$TDCREATE
 40
2459977.568530093
  9
$TDUCREATE
 40
2459977.526863426
  9
$TDUPDATE
 40
2459977.568530093
  9
$TDUUPDATE
 40
2459977.526863426
  9
$TDINDWG
 40
0.0000000000
  9
$TDUSRTIMER
 40
0.0000000000
  9
$USRTIMER
 70
     1
  9
$ANGBASE
 50
0.0
  9
$ANGDIR
 70
     0
  9
$PDMODE
 70
     0
  9
$PDSIZE
 40
0.0
  9
$PLINEWID
 40
0.0
  9
$SPLFRAME
 70
     0
  9
$SPLINETYPE
 70
     6
  9
$SPLINESEGS
 70
     8
  9
$HANDSEED
  5
83
  9
$SURFTAB1
 70
     6
  9
$SURFTAB2
 70
     6
  9
$SURFTYPE
 70
     6
  9
$SURFU
 70
     6
  9
$SURFV
 70
     6
  9
$UCSBASE
  2

  9
$UCSNAME
  2

  9
$UCSORG
 10
0.0
 20
0.0
 30
0.0
  9
$UCSXDIR
 10
1.0
 20
0.0
 30
0.0
  9
$UCSYDIR
 10
0.0
 20
1.0
 30
0.0
  9
$UCSORTHOREF
  2

  9
$UCSORTHOVIEW
 70
     0
  9
$UCSORGTOP
 10
0.0
 20
0.0
 30
0.0
  9
$UCSORGBOTTOM
 10
0.0
 20
0.0
 30
0.0
  9
$UCSORGLEFT
 10
0.0
 20
0.0
 30
0.0
  9
$UCSORGRIGHT
 10
0.0
 20
0.0
 30
0.0
  9
$UCSORGFRONT
 10
0.0
 20
0.0
 30
0.0
  9
$UCSORGBACK
 10
0.0
 20
0.0
 30
0.0
  9
$PUCSBASE
  2

  9
$PUCSNAME
  2

  9
$PUCSORG
 10
0.0
 20
0.0
 30
0.0
  9
$PUCSXDIR
 10
1.0
 20
0.0
 30
0.0
  9
$PUCSYDIR
 10
0.0
 20
1.0
 30
0.0
  9
$PUCSORTHOREF
  2

  9
$PUCSORTHOVIEW
 70
     0
  9
$PUCSORGTOP
 10
0.0
 20
0.0
 30
0.0
  9
$PUCSORGBOTTOM
 10
0.0
 20
0.0
 30
0.0
  9
$PUCSORGLEFT
 10
0.0
 20
0.0
 30
0.0
  9
$PUCSORGRIGHT
 10
0.0
 20
0.0
 30
0.0
  9
$PUCSORGFRONT
 10
0.0
 20
0.0
 30
0.0
  9
$PUCSORGBACK
 10
0.0
 20
0.0
 30
0.0
  9
$USERI1
 70
     0
  9
$USERI2
 70
     0
  9
$USERI3
 70
     0
  9
$USERI4
 70
     0
  9
$USERI5
 70
     0
  9
$USERR1
 40
0.0
  9
$USERR2
 40
0.0
  9
$USERR3
 40
0.0
  9
$USERR4
 40
0.0
  9
$USERR5
 40
0.0
  9
$WORLDVIEW
 70
     1
  9
$SHADEDGE
 70
     3
  9
$SHADEDIF
 70
    70
  9
$TILEMODE
 70
     1
  9
$MAXACTVP
 70
    64
  9
$PINSBASE
 10
0.0
 20
0.0
 30
0.0
  9
$PLIMCHECK
 70
     0
  9
$PEXTMIN
 10
1.000000000000000E+20
 20
1.000000000000000E+20
 30
1.000000000000000E+20
  9
$PEXTMAX
 10
-1.000000000000000E+20
 20
-1.000000000000000E+20
 30
-1.000000000000000E+20
  9
$PLIMMIN
 10
0.0
 20
0.0
  9
$PLIMMAX
 10
12.0
 20
9.0
  9
$UNITMODE
 70
     0
  9
$VISRETAIN
 70
     1
  9
$PLINEGEN
 70
     0
  9
$PSLTSCALE
 70
     1
  9
$TREEDEPTH
 70
  3020
  9
$CMLSTYLE
  2
Standard
  9
$CMLJUST
 70
     0
  9
$CMLSCALE
 40
1.0
  9
$PROXYGRAPHICS
 70
     1
  9
$MEASUREMENT
 70
     0
  9
$CELWEIGHT
370
    -1
  9
$ENDCAPS
280
     0
  9
$JOINSTYLE
280
     0
  9
$LWDISPLAY
290
     1
  9
$INSUNITS
 70
     5
  9
$HYPERLINKBASE
  1

  9
$STYLESHEET
  1

  9
$XEDIT
290
     1
  9
$CEPSNTYPE
380
     0
  9
$PSTYLEMODE
290
     1
  9
$FINGERPRINTGUID
  2
{87F2E807-60E8-3C4B-BCA6-942D7E8E6160}
  9
$VERSIONGUID
  2
{000EF7ED-CF4D-934B-AF5B-DCA7124A927C}
  9
$EXTNAMES
290
     1
  9
$PSVPSCALE
 40
0.0
  9
$OLESTARTUP
290
     0
  9
$SORTENTS
280
   127
  9
$INDEXCTL
280
     0
  9
$HIDETEXT
280
     1
  9
$XCLIPFRAME
280
     2
  9
$HALOGAP
280
     0
  9
$OBSCOLOR
 70
   257
  9
$OBSLTYPE
280
     0
  9
$INTERSECTIONDISPLAY
280
     0
  9
$INTERSECTIONCOLOR
 70
   257
  9
$DIMASSOC
280
     2
  9
$PROJECTNAME
  1

  9
$CAMERADISPLAY
290
     0
  9
$LENSLENGTH
 40
50.0
  9
$CAMERAHEIGHT
 40
0.0
  9
$STEPSPERSEC
 40
2.0
  9
$STEPSIZE
 40
6.0
  9
$3DDWFPREC
 40
2.0
  9
$PSOLWIDTH
 40
0.25
  9
$PSOLHEIGHT
 40
4.0
  9
$LOFTANG1
 40
1.570796326794896
  9
$LOFTANG2
 40
1.570796326794896
  9
$LOFTMAG1
 40
0.0
  9
$LOFTMAG2
 40
0.0
  9
$LOFTPARAM
 70
     7
  9
$LOFTNORMALS
280
     1
  9
$LATITUDE
 40
37.795
  9
$LONGITUDE
 40
-122.394
  9
$NORTHDIRECTION
 40
0.0
  9
$TIMEZONE
 70
 -8000
  9
$LIGHTGLYPHDISPLAY
280
     1
  9
$TILEMODELIGHTSYNCH
280
     1
  9
$CMATERIAL
347
11
  9
$SOLIDHIST
280
     0
  9
$SHOWHIST
280
     1
  9
$DWFFRAME
280
     2
  9
$DGNFRAME
280
     0
  9
$REALWORLDSCALE
290
     1
  9
$INTERFERECOLOR
 62
     1
  9
$INTERFEREOBJVS
345
33
  9
$INTERFEREVPVS
346
30
  9
$CSHADOW
280
     0
  9
$SHADOWPLANELOCATION
 40
0.0
  0
ENDSEC
  0
SECTION
  2
CLASSES
  0
CLASS
  1
ACDBDICTIONARYWDFLT
  2
AcDbDictionaryWithDefault
  3
ObjectDBX Classes
 90
        0
 91
        1
280
     0
281
     0
  0
CLASS
  1
MATERIAL
  2
AcDbMaterial
  3
ObjectDBX Classes
 90
     1153
 91
        3
280
     0
281
     0
  0
CLASS
  1
VISUALSTYLE
  2
AcDbVisualStyle
  3
ObjectDBX Classes
 90
     4095
 91
       24
280
     0
281
     0
  0
CLASS
  1
SCALE
  2
AcDbScale
  3
ObjectDBX Classes
 90
     1153
 91
       17
280
     0
281
     0
  0
CLASS
  1
TABLESTYLE
  2
AcDbTableStyle
  3
ObjectDBX Classes
 90
     4095
 91
        1
280
     0
281
     0
  0
CLASS
  1
MLEADERSTYLE
  2
AcDbMLeaderStyle
  3
ACDB_MLEADERSTYLE_CLASS
 90
     4095
 91
        1
280
     0
281
     0
  0
CLASS
  1
ACDBSECTIONVIEWSTYLE
  2
AcDbSectionViewStyle
  3
ObjectDBX Classes
 90
     1025
 91
        1
280
     0
281
     0
  0
CLASS
  1
ACDBDETAILVIEWSTYLE
  2
AcDbDetailViewStyle
  3
ObjectDBX Classes
 90
     1025
 91
        1
280
     0
281
     0
  0
CLASS
  1
DICTIONARYVAR
  2
AcDbDictionaryVar
  3
ObjectDBX Classes
 90
        0
 91
        5
280
     0
281
     0
  0
CLASS
  1
CELLSTYLEMAP
  2
AcDbCellStyleMap
  3
ObjectDBX Classes
 90
     1152
 91
        1
280
     0
281
     0
  0
ENDSEC
  0
SECTION
  2
TABLES
  0
TABLE
  2
VPORT
  5
8
330
0
100
AcDbSymbolTable
 70
     1
  0
VPORT
  5
57
330
8
100
AcDbSymbolTableRecord
100
AcDbViewportTableRecord
  2
*Active
 70
     0
 10
0.0
 20
0.0
 11
1.0
 21
1.0
 12
0.0
 22
0.0
 13
0.0
 23
0.0
 14
1.0
 24
1.0
 15
0.0
 25
0.0
 16
0.0
 26
0.0
 36
1.0
 17
39.99999999000053
 27
-54.99999998625049
 37
0.0
 40
112.199999971951
 41
0.7272727272727304
 42
50.0
 43
0.0
 44
0.0
 50
0.0
 51
0.0
 71
     0
 72
   100
 73
     1
 74
     0
 75
     1
 76
     0
 77
     0
 78
     0
281
     0
 65
     1
110
0.0
120
0.0
130
0.0
111
1.0
121
0.0
131
0.0
112
0.0
122
1.0
132
0.0
 79
     0
146
0.0
 60
     3
 61
     5
292
     1
282
     1
141
0.0
142
0.0
 63
   250
421
  3355443
  0
ENDTAB
  0
TABLE
  2
LTYPE
  5
5
330
0
100
AcDbSymbolTable
 70
     1
  0
LTYPE
  5
5B
330
5
100
AcDbSymbolTableRecord
100
AcDbLinetypeTableRecord
  2
ByBlock
 70
     0
  3

 72
    65
 73
     0
 40
0.0
  0
LTYPE
  5
5C
330
5
100
AcDbSymbolTableRecord
100
AcDbLinetypeTableRecord
  2
ByLayer
 70
     0
  3

 72
    65
 73
     0
 40
0.0
  0
LTYPE
  5
5D
330
5
100
AcDbSymbolTableRecord
100
AcDbLinetypeTableRecord
  2
Continuous
 70
     0
  3
Solid line
 72
    65
 73
     0
 40
0.0
  0
ENDTAB
  0
TABLE
  2
LAYER
  5
2
330
0
100
AcDbSymbolTable
 70
     2
  0
LAYER
  5
54
330
2
100
AcDbSymbolTableRecord
100
AcDbLayerTableRecord
  2
0
 70
     0
 62
     7
  6
Continuous
370
    -3
390
F
347
21
348
0
  0
LAYER
  5
78
330
2
100
AcDbSymbolTableRecord
100
AcDbLayerTableRecord
  2
Слой 1
 70
     0
 62
     7
  6
Continuous
370
     0
390
F
347
21
348
0
  0
ENDTAB
  0
TABLE
  2
STYLE
  5
3
330
0
100
AcDbSymbolTable
 70
     2
  0
STYLE
  5
55
330
3
100
AcDbSymbolTableRecord
100
AcDbTextStyleTableRecord
  2
Standard
 70
     0
 40
0.0
 41
1.0
 50
0.0
 71
     0
 42
0.2
  3
txt
  4

  0
STYLE
  5
5A
330
3
100
AcDbSymbolTableRecord
100
AcDbTextStyleTableRecord
  2
Annotative
 70
     0
 40
0.0
 41
1.0
 50
0.0
 71
     0
 42
0.2
  3
txt
  4

1001
AcadAnnotative
1000
AnnotativeData
1002
{
1070
     1
1070
     1
1002
}
  0
ENDTAB
  0
TABLE
  2
VIEW
  5
6
330
0
100
AcDbSymbolTable
 70
     0
  0
ENDTAB
  0
TABLE
  2
UCS
  5
7
330
0
100
AcDbSymbolTable
 70
     0
  0
ENDTAB
  0
TABLE
  2
APPID
  5
9
330
0
100
AcDbSymbolTable
 70
     2
  0
APPID
  5
56
330
9
100
AcDbSymbolTableRecord
100
AcDbRegAppTableRecord
  2
ACAD
 70
     0
  0
APPID
  5
5E
330
9
100
AcDbSymbolTableRecord
100
AcDbRegAppTableRecord
  2
AcadAnnotative
 70
     0
  0
ENDTAB
  0
TABLE
  2
DIMSTYLE
  5
A
330
0
100
AcDbSymbolTable
 70
     2
100
AcDbDimStyleTable
 71
     0
  0
DIMSTYLE
105
58
330
A
100
AcDbSymbolTableRecord
100
AcDbDimStyleTableRecord
  2
Standard
 70
     0
340
55
  0
DIMSTYLE
105
59
330
A
100
AcDbSymbolTableRecord
100
AcDbDimStyleTableRecord
  2
Annotative
 70
     0
340
55
1001
AcadAnnotative
1000
AnnotativeData
1002
{
1070
     1
1070
     1
1002
}
  0
ENDTAB
  0
TABLE
  2
BLOCK_RECORD
  5
1
330
0
100
AcDbSymbolTable
 70
     1
  0
BLOCK_RECORD
  5
70
330
1
100
AcDbSymbolTableRecord
100
AcDbBlockTableRecord
  2
*Model_Space
340
73
 70
     0
280
     1
281
     0
  0
BLOCK_RECORD
  5
6C
330
1
100
AcDbSymbolTableRecord
100
AcDbBlockTableRecord
  2
*Paper_Space
340
6F
 70
     0
280
     1
281
     0
  0
BLOCK_RECORD
  5
74
330
1
100
AcDbSymbolTableRecord
100
AcDbBlockTableRecord
  2
*Paper_Space0
340
77
 70
     0
280
     1
281
     0
  0
ENDTAB
  0
ENDSEC
  0
SECTION
  2
BLOCKS
  0
BLOCK
  5
71
330
70
100
AcDbEntity
  8
0
100
AcDbBlockBegin
  2
*Model_Space
 70
     0
 10
0.0
 20
0.0
 30
0.0
  3
*Model_Space
  1

  0
ENDBLK
  5
72
330
70
100
AcDbEntity
  8
0
100
AcDbBlockEnd
  0
BLOCK
  5
6D
330
6C
100
AcDbEntity
 67
     1
  8
0
100
AcDbBlockBegin
  2
*Paper_Space
 70
     0
 10
0.0
 20
0.0
 30
0.0
  3
*Paper_Space
  1

  0
ENDBLK
  5
6E
330
6C
100
AcDbEntity
 67
     1
  8
0
100
AcDbBlockEnd
  0
BLOCK
  5
75
330
74
100
AcDbEntity
 67
     1
  8
0
100
AcDbBlockBegin
  2
*Paper_Space0
 70
     0
 10
0.0
 20
0.0
 30
0.0
  3
*Paper_Space0
  1

  0
ENDBLK
  5
76
330
74
100
AcDbEntity
 67
     1
  8
0
100
AcDbBlockEnd
  0
ENDSEC
  0
SECTION
  2
ENTITIES
  0
SPLINE
  5
79
330
70
100
AcDbEntity
  8
Слой 1
 62
     7
370
    35
100
AcDbSpline
210
0.0
220
0.0
230
1.0
 70
     9
 71
     3
 72
  1286
 73
  1282
 74
     0
 42
0.0000000001
 43
0.0000000001
 40
0.0
 40
0.0
 40
0.0
 40
0.0
 40
1.0
 40
1.0
 40
1.0
 40
2.0
 40
2.0
 40
2.0
 40
3.0
 40
3.0
 40
3.0
 40
4.0
 40
4.0
 40
4.0
 40
5.0
 40
5.0
 40
5.0
 40
6.0
 40
6.0
 40
6.0
 40
7.0
 40
7.0
 40
7.0
 40
8.0
 40
8.0
 40
8.0
 40
9.0
 40
9.0
 40
9.0
 40
10.0
 40
10.0
 40
10.0
 40
11.0
 40
11.0
 40
11.0
 40
12.0
 40
12.0
 40
12.0
 40
13.0
 40
13.0
 40
13.0
 40
14.0
 40
14.0
 40
14.0
 40
15.0
 40
15.0
 40
15.0
 40
16.0
 40
16.0
 40
16.0
 40
17.0
 40
17.0
 40
17.0
 40
18.0
 40
18.0
 40
18.0
 40
19.0
 40
19.0
 40
19.0
 40
20.0
 40
20.0
 40
20.0
 40
21.0
 40
21.0
 40
21.0
 40
22.0
 40
22.0
 40
22.0
 40
23.0
 40
23.0
 40
23.0
 40
24.0
 40
24.0
 40
24.0
 40
25.0
 40
25.0
 40
25.0
 40
26.0
 40
26.0
 40
26.0
 40
27.0
 40
27.0
 40
27.0
 40
28.0
 40
28.0
 40
28.0
 40
29.0
 40
29.0
 40
29.0
 40
30.0
 40
30.0
 40
30.0
 40
31.0
 40
31.0
 40
31.0
 40
32.0
 40
32.0
 40
32.0
 40
33.0
 40
33.0
 40
33.0
 40
34.0
 40
34.0
 40
34.0
 40
35.0
 40
35.0
 40
35.0
 40
36.0
 40
36.0
 40
36.0
 40
37.0
 40
37.0
 40
37.0
 40
38.0
 40
38.0
 40
38.0
 40
39.0
 40
39.0
 40
39.0
 40
40.0
 40
40.0
 40
40.0
 40
41.0
 40
41.0
 40
41.0
 40
42.0
 40
42.0
 40
42.0
 40
43.0
 40
43.0
 40
43.0
 40
44.0
 40
44.0
 40
44.0
 40
45.0
 40
45.0
 40
45.0
 40
46.0
 40
46.0
 40
46.0
 40
47.0
 40
47.0
 40
47.0
 40
48.0
 40
48.0
 40
48.0
 40
49.0
 40
49.0
 40
49.0
 40
50.0
 40
50.0
 40
50.0
 40
51.0
 40
51.0
 40
51.0
 40
52.0
 40
52.0
 40
52.0
 40
53.0
 40
53.0
 40
53.0
 40
54.0
 40
54.0
 40
54.0
 40
55.0
 40
55.0
 40
55.0
 40
56.0
 40
56.0
 40
56.0
 40
57.0
 40
57.0
 40
57.0
 40
58.0
 40
58.0
 40
58.0
 40
59.0
 40
59.0
 40
59.0
 40
60.0
 40
60.0
 40
60.0
 40
61.0
 40
61.0
 40
61.0
 40
62.0
 40
62.0
 40
62.0
 40
63.0
 40
63.0
 40
63.0
 40
64.0
 40
64.0
 40
64.0
 40
65.0
 40
65.0
 40
65.0
 40
66.0
 40
66.0
 40
66.0
 40
67.0
 40
67.0
 40
67.0
 40
68.0
 40
68.0
 40
68.0
 40
69.0
 40
69.0
 40
69.0
 40
70.0
 40
70.0
 40
70.0
 40
71.0
 40
71.0
 40
71.0
 40
72.0
 40
72.0
 40
72.0
 40
73.0
 40
73.0
 40
73.0
 40
74.0
 40
74.0
 40
74.0
 40
75.0
 40
75.0
 40
75.0
 40
76.0
 40
76.0
 40
76.0
 40
77.0
 40
77.0
 40
77.0
 40
78.0
 40
78.0
 40
78.0
 40
79.0
 40
79.0
 40
79.0
 40
80.0
 40
80.0
 40
80.0
 40
81.0
 40
81.0
 40
81.0
 40
82.0
 40
82.0
 40
82.0
 40
83.0
 40
83.0
 40
83.0
 40
84.0
 40
84.0
 40
84.0
 40
85.0
 40
85.0
 40
85.0
 40
86.0
 40
86.0
 40
86.0
 40
87.0
 40
87.0
 40
87.0
 40
88.0
 40
88.0
 40
88.0
 40
89.0
 40
89.0
 40
89.0
 40
90.0
 40
90.0
 40
90.0
 40
91.0
 40
91.0
 40
91.0
 40
92.0
 40
92.0
 40
92.0
 40
93.0
 40
93.0
 40
93.0
 40
94.0
 40
94.0
 40
94.0
 40
95.0
 40
95.0
 40
95.0
 40
96.0
 40
96.0
 40
96.0
 40
97.0
 40
97.0
 40
97.0
 40
98.0
 40
98.0
 40
98.0
 40
99.0
 40
99.0
 40
99.0
 40
100.0
 40
100.0
 40
100.0
 40
101.0
 40
101.0
 40
101.0
 40
102.0
 40
102.0
 40
102.0
 40
103.0
 40
103.0
 40
103.0
 40
104.0
 40
104.0
 40
104.0
 40
105.0
 40
105.0
 40
105.0
 40
106.0
 40
106.0
 40
106.0
 40
107.0
 40
107.0
 40
107.0
 40
108.0
 40
108.0
 40
108.0
 40
109.0
 40
109.0
 40
109.0
 40
110.0
 40
110.0
 40
110.0
 40
111.0
 40
111.0
 40
111.0
 40
112.0
 40
112.0
 40
112.0
 40
113.0
 40
113.0
 40
113.0
 40
114.0
 40
114.0
 40
114.0
 40
115.0
 40
115.0
 40
115.0
 40
116.0
 40
116.0
 40
116.0
 40
117.0
 40
117.0
 40
117.0
 40
118.0
 40
118.0
 40
118.0
 40
119.0
 40
119.0
 40
119.0
 40
120.0
 40
120.0
 40
120.0
 40
121.0
 40
121.0
 40
121.0
 40
122.0
 40
122.0
 40
122.0
 40
123.0
 40
123.0
 40
123.0
 40
124.0
 40
124.0
 40
124.0
 40
125.0
 40
125.0
 40
125.0
 40
126.0
 40
126.0
 40
126.0
 40
127.0
 40
127.0
 40
127.0
 40
128.0
 40
128.0
 40
128.0
 40
129.0
 40
129.0
 40
129.0
 40
130.0
 40
130.0
 40
130.0
 40
131.0
 40
131.0
 40
131.0
 40
132.0
 40
132.0
 40
132.0
 40
133.0
 40
133.0
 40
133.0
 40
134.0
 40
134.0
 40
134.0
 40
135.0
 40
135.0
 40
135.0
 40
136.0
 40
136.0
 40
136.0
 40
137.0
 40
137.0
 40
137.0
 40
138.0
 40
138.0
 40
138.0
 40
139.0
 40
139.0
 40
139.0
 40
140.0
 40
140.0
 40
140.0
 40
141.0
 40
141.0
 40
141.0
 40
142.0
 40
142.0
 40
142.0
 40
143.0
 40
143.0
 40
143.0
 40
144.0
 40
144.0
 40
144.0
 40
145.0
 40
145.0
 40
145.0
 40
146.0
 40
146.0
 40
146.0
 40
147.0
 40
147.0
 40
147.0
 40
148.0
 40
148.0
 40
148.0
 40
149.0
 40
149.0
 40
149.0
 40
150.0
 40
150.0
 40
150.0
 40
151.0
 40
151.0
 40
151.0
 40
152.0
 40
152.0
 40
152.0
 40
153.0
 40
153.0
 40
153.0
 40
154.0
 40
154.0
 40
154.0
 40
155.0
 40
155.0
 40
155.0
 40
156.0
 40
156.0
 40
156.0
 40
157.0
 40
157.0
 40
157.0
 40
158.0
 40
158.0
 40
158.0
 40
159.0
 40
159.0
 40
159.0
 40
160.0
 40
160.0
 40
160.0
 40
161.0
 40
161.0
 40
161.0
 40
162.0
 40
162.0
 40
162.0
 40
163.0
 40
163.0
 40
163.0
 40
164.0
 40
164.0
 40
164.0
 40
165.0
 40
165.0
 40
165.0
 40
166.0
 40
166.0
 40
166.0
 40
167.0
 40
167.0
 40
167.0
 40
168.0
 40
168.0
 40
168.0
 40
169.0
 40
169.0
 40
169.0
 40
170.0
 40
170.0
 40
170.0
 40
171.0
 40
171.0
 40
171.0
 40
172.0
 40
172.0
 40
172.0
 40
173.0
 40
173.0
 40
173.0
 40
174.0
 40
174.0
 40
174.0
 40
175.0
 40
175.0
 40
175.0
 40
176.0
 40
176.0
 40
176.0
 40
177.0
 40
177.0
 40
177.0
 40
178.0
 40
178.0
 40
178.0
 40
179.0
 40
179.0
 40
179.0
 40
180.0
 40
180.0
 40
180.0
 40
181.0
 40
181.0
 40
181.0
 40
182.0
 40
182.0
 40
182.0
 40
183.0
 40
183.0
 40
183.0
 40
184.0
 40
184.0
 40
184.0
 40
185.0
 40
185.0
 40
185.0
 40
186.0
 40
186.0
 40
186.0
 40
187.0
 40
187.0
 40
187.0
 40
188.0
 40
188.0
 40
188.0
 40
189.0
 40
189.0
 40
189.0
 40
190.0
 40
190.0
 40
190.0
 40
191.0
 40
191.0
 40
191.0
 40
192.0
 40
192.0
 40
192.0
 40
193.0
 40
193.0
 40
193.0
 40
194.0
 40
194.0
 40
194.0
 40
195.0
 40
195.0
 40
195.0
 40
196.0
 40
196.0
 40
196.0
 40
197.0
 40
197.0
 40
197.0
 40
198.0
 40
198.0
 40
198.0
 40
199.0
 40
199.0
 40
199.0
 40
200.0
 40
200.0
 40
200.0
 40
201.0
 40
201.0
 40
201.0
 40
202.0
 40
202.0
 40
202.0
 40
203.0
 40
203.0
 40
203.0
 40
204.0
 40
204.0
 40
204.0
 40
205.0
 40
205.0
 40
205.0
 40
206.0
 40
206.0
 40
206.0
 40
207.0
 40
207.0
 40
207.0
 40
208.0
 40
208.0
 40
208.0
 40
209.0
 40
209.0
 40
209.0
 40
210.0
 40
210.0
 40
210.0
 40
211.0
 40
211.0
 40
211.0
 40
212.0
 40
212.0
 40
212.0
 40
213.0
 40
213.0
 40
213.0
 40
214.0
 40
214.0
 40
214.0
 40
215.0
 40
215.0
 40
215.0
 40
216.0
 40
216.0
 40
216.0
 40
217.0
 40
217.0
 40
217.0
 40
218.0
 40
218.0
 40
218.0
 40
219.0
 40
219.0
 40
219.0
 40
220.0
 40
220.0
 40
220.0
 40
221.0
 40
221.0
 40
221.0
 40
222.0
 40
222.0
 40
222.0
 40
223.0
 40
223.0
 40
223.0
 40
224.0
 40
224.0
 40
224.0
 40
225.0
 40
225.0
 40
225.0
 40
226.0
 40
226.0
 40
226.0
 40
227.0
 40
227.0
 40
227.0
 40
228.0
 40
228.0
 40
228.0
 40
229.0
 40
229.0
 40
229.0
 40
230.0
 40
230.0
 40
230.0
 40
231.0
 40
231.0
 40
231.0
 40
232.0
 40
232.0
 40
232.0
 40
233.0
 40
233.0
 40
233.0
 40
234.0
 40
234.0
 40
234.0
 40
235.0
 40
235.0
 40
235.0
 40
236.0
 40
236.0
 40
236.0
 40
237.0
 40
237.0
 40
237.0
 40
238.0
 40
238.0
 40
238.0
 40
239.0
 40
239.0
 40
239.0
 40
240.0
 40
240.0
 40
240.0
 40
241.0
 40
241.0
 40
241.0
 40
242.0
 40
242.0
 40
242.0
 40
243.0
 40
243.0
 40
243.0
 40
244.0
 40
244.0
 40
244.0
 40
245.0
 40
245.0
 40
245.0
 40
246.0
 40
246.0
 40
246.0
 40
247.0
 40
247.0
 40
247.0
 40
248.0
 40
248.0
 40
248.0
 40
249.0
 40
249.0
 40
249.0
 40
250.0
 40
250.0
 40
250.0
 40
251.0
 40
251.0
 40
251.0
 40
252.0
 40
252.0
 40
252.0
 40
253.0
 40
253.0
 40
253.0
 40
254.0
 40
254.0
 40
254.0
 40
255.0
 40
255.0
 40
255.0
 40
256.0
 40
256.0
 40
256.0
 40
257.0
 40
257.0
 40
257.0
 40
258.0
 40
258.0
 40
258.0
 40
259.0
 40
259.0
 40
259.0
 40
260.0
 40
260.0
 40
260.0
 40
261.0
 40
261.0
 40
261.0
 40
262.0
 40
262.0
 40
262.0
 40
263.0
 40
263.0
 40
263.0
 40
264.0
 40
264.0
 40
264.0
 40
265.0
 40
265.0
 40
265.0
 40
266.0
 40
266.0
 40
266.0
 40
267.0
 40
267.0
 40
267.0
 40
268.0
 40
268.0
 40
268.0
 40
269.0
 40
269.0
 40
269.0
 40
270.0
 40
270.0
 40
270.0
 40
271.0
 40
271.0
 40
271.0
 40
272.0
 40
272.0
 40
272.0
 40
273.0
 40
273.0
 40
273.0
 40
274.0
 40
274.0
 40
274.0
 40
275.0
 40
275.0
 40
275.0
 40
276.0
 40
276.0
 40
276.0
 40
277.0
 40
277.0
 40
277.0
 40
278.0
 40
278.0
 40
278.0
 40
279.0
 40
279.0
 40
279.0
 40
280.0
 40
280.0
 40
280.0
 40
281.0
 40
281.0
 40
281.0
 40
282.0
 40
282.0
 40
282.0
 40
283.0
 40
283.0
 40
283.0
 40
284.0
 40
284.0
 40
284.0
 40
285.0
 40
285.0
 40
285.0
 40
286.0
 40
286.0
 40
286.0
 40
287.0
 40
287.0
 40
287.0
 40
288.0
 40
288.0
 40
288.0
 40
289.0
 40
289.0
 40
289.0
 40
290.0
 40
290.0
 40
290.0
 40
291.0
 40
291.0
 40
291.0
 40
292.0
 40
292.0
 40
292.0
 40
293.0
 40
293.0
 40
293.0
 40
294.0
 40
294.0
 40
294.0
 40
295.0
 40
295.0
 40
295.0
 40
296.0
 40
296.0
 40
296.0
 40
297.0
 40
297.0
 40
297.0
 40
298.0
 40
298.0
 40
298.0
 40
299.0
 40
299.0
 40
299.0
 40
300.0
 40
300.0
 40
300.0
 40
301.0
 40
301.0
 40
301.0
 40
302.0
 40
302.0
 40
302.0
 40
303.0
 40
303.0
 40
303.0
 40
304.0
 40
304.0
 40
304.0
 40
305.0
 40
305.0
 40
305.0
 40
306.0
 40
306.0
 40
306.0
 40
307.0
 40
307.0
 40
307.0
 40
308.0
 40
308.0
 40
308.0
 40
309.0
 40
309.0
 40
309.0
 40
310.0
 40
310.0
 40
310.0
 40
311.0
 40
311.0
 40
311.0
 40
312.0
 40
312.0
 40
312.0
 40
313.0
 40
313.0
 40
313.0
 40
314.0
 40
314.0
 40
314.0
 40
315.0
 40
315.0
 40
315.0
 40
316.0
 40
316.0
 40
316.0
 40
317.0
 40
317.0
 40
317.0
 40
318.0
 40
318.0
 40
318.0
 40
319.0
 40
319.0
 40
319.0
 40
320.0
 40
320.0
 40
320.0
 40
321.0
 40
321.0
 40
321.0
 40
322.0
 40
322.0
 40
322.0
 40
323.0
 40
323.0
 40
323.0
 40
324.0
 40
324.0
 40
324.0
 40
325.0
 40
325.0
 40
325.0
 40
326.0
 40
326.0
 40
326.0
 40
327.0
 40
327.0
 40
327.0
 40
328.0
 40
328.0
 40
328.0
 40
329.0
 40
329.0
 40
329.0
 40
330.0
 40
330.0
 40
330.0
 40
331.0
 40
331.0
 40
331.0
 40
332.0
 40
332.0
 40
332.0
 40
333.0
 40
333.0
 40
333.0
 40
334.0
 40
334.0
 40
334.0
 40
335.0
 40
335.0
 40
335.0
 40
336.0
 40
336.0
 40
336.0
 40
337.0
 40
337.0
 40
337.0
 40
338.0
 40
338.0
 40
338.0
 40
339.0
 40
339.0
 40
339.0
 40
340.0
 40
340.0
 40
340.0
 40
341.0
 40
341.0
 40
341.0
 40
342.0
 40
342.0
 40
342.0
 40
343.0
 40
343.0
 40
343.0
 40
344.0
 40
344.0
 40
344.0
 40
345.0
 40
345.0
 40
345.0
 40
346.0
 40
346.0
 40
346.0
 40
347.0
 40
347.0
 40
347.0
 40
348.0
 40
348.0
 40
348.0
 40
349.0
 40
349.0
 40
349.0
 40
350.0
 40
350.0
 40
350.0
 40
351.0
 40
351.0
 40
351.0
 40
352.0
 40
352.0
 40
352.0
 40
353.0
 40
353.0
 40
353.0
 40
354.0
 40
354.0
 40
354.0
 40
355.0
 40
355.0
 40
355.0
 40
356.0
 40
356.0
 40
356.0
 40
357.0
 40
357.0
 40
357.0
 40
358.0
 40
358.0
 40
358.0
 40
359.0
 40
359.0
 40
359.0
 40
360.0
 40
360.0
 40
360.0
 40
361.0
 40
361.0
 40
361.0
 40
362.0
 40
362.0
 40
362.0
 40
363.0
 40
363.0
 40
363.0
 40
364.0
 40
364.0
 40
364.0
 40
365.0
 40
365.0
 40
365.0
 40
366.0
 40
366.0
 40
366.0
 40
367.0
 40
367.0
 40
367.0
 40
368.0
 40
368.0
 40
368.0
 40
369.0
 40
369.0
 40
369.0
 40
370.0
 40
370.0
 40
370.0
 40
371.0
 40
371.0
 40
371.0
 40
372.0
 40
372.0
 40
372.0
 40
373.0
 40
373.0
 40
373.0
 40
374.0
 40
374.0
 40
374.0
 40
375.0
 40
375.0
 40
375.0
 40
376.0
 40
376.0
 40
376.0
 40
377.0
 40
377.0
 40
377.0
 40
378.0
 40
378.0
 40
378.0
 40
379.0
 40
379.0
 40
379.0
 40
380.0
 40
380.0
 40
380.0
 40
381.0
 40
381.0
 40
381.0
 40
382.0
 40
382.0
 40
382.0
 40
383.0
 40
383.0
 40
383.0
 40
384.0
 40
384.0
 40
384.0
 40
385.0
 40
385.0
 40
385.0
 40
386.0
 40
386.0
 40
386.0
 40
387.0
 40
387.0
 40
387.0
 40
388.0
 40
388.0
 40
388.0
 40
389.0
 40
389.0
 40
389.0
 40
390.0
 40
390.0
 40
390.0
 40
391.0
 40
391.0
 40
391.0
 40
392.0
 40
392.0
 40
392.0
 40
393.0
 40
393.0
 40
393.0
 40
394.0
 40
394.0
 40
394.0
 40
395.0
 40
395.0
 40
395.0
 40
396.0
 40
396.0
 40
396.0
 40
397.0
 40
397.0
 40
397.0
 40
398.0
 40
398.0
 40
398.0
 40
399.0
 40
399.0
 40
399.0
 40
400.0
 40
400.0
 40
400.0
 40
401.0
 40
401.0
 40
401.0
 40
402.0
 40
402.0
 40
402.0
 40
403.0
 40
403.0
 40
403.0
 40
404.0
 40
404.0
 40
404.0
 40
405.0
 40
405.0
 40
405.0
 40
406.0
 40
406.0
 40
406.0
 40
407.0
 40
407.0
 40
407.0
 40
408.0
 40
408.0
 40
408.0
 40
409.0
 40
409.0
 40
409.0
 40
410.0
 40
410.0
 40
410.0
 40
411.0
 40
411.0
 40
411.0
 40
412.0
 40
412.0
 40
412.0
 40
413.0
 40
413.0
 40
413.0
 40
414.0
 40
414.0
 40
414.0
 40
415.0
 40
415.0
 40
415.0
 40
416.0
 40
416.0
 40
416.0
 40
417.0
 40
417.0
 40
417.0
 40
418.0
 40
418.0
 40
418.0
 40
419.0
 40
419.0
 40
419.0
 40
420.0
 40
420.0
 40
420.0
 40
421.0
 40
421.0
 40
421.0
 40
422.0
 40
422.0
 40
422.0
 40
423.0
 40
423.0
 40
423.0
 40
424.0
 40
424.0
 40
424.0
 40
425.0
 40
425.0
 40
425.0
 40
426.0
 40
426.0
 40
426.0
 40
427.0
 40
427.0
 40
427.0
 40
427.0
 10
38.56196576320022
 20
-78.37636153910816
 30
0.0
 10
38.59417309961795
 20
-78.49489004927818
 30
0.0
 10
38.60758744016364
 20
-78.57348129003544
 30
0.0
 10
38.63662098236559
 20
-78.64581106974826
 30
0.0
 10
38.73732112339943
 20
-78.8967087612003
 30
0.0
 10
38.84077303445213
 20
-79.14659876222289
 30
0.0
 10
38.94816957983544
 20
-79.39470592633186
 30
0.0
 10
39.0951761105604
 20
-79.73433205200652
 30
0.0
 10
38.95524925105763
 20
-79.98273204923174
 30
0.0
 10
38.58779536660088
 20
-79.97369728632168
 30
0.0
 10
37.85958400203684
 20
-79.95578278979838
 30
0.0
 10
37.13201859287628
 20
-79.91208175356797
 30
0.0
 10
36.40407422321235
 20
-79.88178213877521
 30
0.0
 10
36.25696864599218
 20
-79.87566709428889
 30
0.0
 10
36.18817008915174
 20
-79.79640405991201
 30
0.0
 10
36.18582311785242
 20
-79.66040891563176
 30
0.0
 10
36.18209810835899
 20
-79.44481484016484
 30
0.0
 10
36.22805137576286
 20
-79.25111434650665
 30
0.0
 10
36.37586750392686
 20
-79.07322684112578
 30
0.0
 10
36.47510778574884
 20
-78.95381983160702
 30
0.0
 10
36.54413027379582
 20
-78.79146109412591
 30
0.0
 10
36.57546772360352
 20
-78.63787012465476
 30
0.0
 10
36.61658063185063
 20
-78.43638371519992
 30
0.0
 10
36.516354191446
 20
-78.32886228510528
 30
0.0
 10
36.30407171401426
 20
-78.32499516542309
 30
0.0
 10
35.57519501538463
 20
-78.31169709685003
 30
0.0
 10
34.84612453013396
 20
-78.30447100906972
 30
0.0
 10
34.11715524456316
 20
-78.30628829693818
 30
0.0
 10
34.00943141510875
 20
-78.30655529183828
 30
0.0
 10
33.90186261495119
 20
-78.36805024624999
 30
0.0
 10
33.78821106807747
 20
-78.40306964185756
 30
0.0
 10
33.82134642709154
 20
-78.68493874172199
 30
0.0
 10
33.89127755907275
 20
-78.91152267178687
 30
0.0
 10
34.04395773142499
 20
-79.11646278946567
 30
0.0
 10
34.12619000747323
 20
-79.22684364881307
 30
0.0
 10
34.19040228094893
 20
-79.35762808617187
 30
0.0
 10
34.23305902261036
 20
-79.48885177320504
 30
0.0
 10
34.29565210120799
 20
-79.68139815987566
 30
0.0
 10
34.21998703842851
 20
-79.81616168251992
 30
0.0
 10
34.02255938209223
 20
-79.85348067936389
 30
0.0
 10
33.80448483787592
 20
-79.89470985958361
 30
0.0
 10
33.58036630426767
 20
-79.92662866925444
 30
0.0
 10
33.35923854417755
 20
-79.92452716100844
 30
0.0
 10
32.83048744228608
 20
-79.91951454707741
 30
0.0
 10
32.30188491013742
 20
-79.89373662010902
 30
0.0
 10
31.77334482034443
 20
-79.87322968923307
 30
0.0
 10
31.41121360841239
 20
-79.85917369965325
 30
0.0
 10
31.30662266266488
 20
-79.67958087200718
 30
0.0
 10
31.46732775431307
 20
-79.33802549286079
 30
0.0
 10
31.562171233022
 20
-79.13644434328012
 30
0.0
 10
31.69006824972722
 20
-78.94916033996323
 30
0.0
 10
31.77207874775359
 20
-78.74311779172915
 30
0.0
 10
31.87979611765396
 20
-78.47248831588534
 30
0.0
 10
31.72121837246792
 20
-78.2275592523615
 30
0.0
 10
31.43480389974764
 20
-78.23194313636648
 30
0.0
 10
30.65918156175252
 20
-78.24382010305189
 30
0.0
 10
29.88384344413494
 20
-78.27424029618665
 30
0.0
 10
29.10843642460765
 20
-78.2987521505642
 30
0.0
 10
29.08689596508613
 20
-78.29943255692253
 30
0.0
 10
29.06587657625675
 20
-78.31667525982621
 30
0.0
 10
29.02833364820624
 20
-78.33348732579422
 30
0.0
 10
28.86790631738154
 20
-78.62919709677065
 30
0.0
 10
29.03000236633191
 20
-78.8623267082575
 30
0.0
 10
29.21093232166319
 20
-79.0824855352424
 30
0.0
 10
29.30865891465634
 20
-79.20141023139321
 30
0.0
 10
29.41280630436012
 20
-79.30435829723119
 30
0.0
 10
29.42440335703734
 20
-79.47355554925053
 30
0.0
 10
29.44169558318862
 20
-79.72590879354507
 30
0.0
 10
29.35081181110305
 20
-79.86608111610118
 30
0.0
 10
29.09863512795212
 20
-79.87006020138665
 30
0.0
 10
28.3462219676042
 20
-79.88192855533333
 30
0.0
 10
27.59352028050939
 20
-79.88332381900486
 30
0.0
 10
26.84101668640498
 20
-79.87757912228321
 30
0.0
 10
26.59361792005515
 20
-79.8756757070276
 30
0.0
 10
26.45796297895409
 20
-79.69195737753794
 30
0.0
 10
26.52255636611784
 20
-79.45012889995083
 30
0.0
 10
26.55761667223429
 20
-79.31887076196281
 30
0.0
 10
26.6336262445623
 20
-79.19490761366481
 30
0.0
 10
26.70859367550601
 20
-79.07891986141516
 30
0.0
 10
26.79111447830114
 20
-78.9512446227318
 30
0.0
 10
26.90571773280265
 20
-78.84385238371784
 30
0.0
 10
26.98450491336564
 20
-78.71433401894988
 30
0.0
 10
27.09423981730955
 20
-78.53396604481962
 30
0.0
 10
27.03156061132479
 20
-78.39507702033178
 30
0.0
 10
26.83069216587262
 20
-78.34810314339041
 30
0.0
 10
26.73967920270636
 20
-78.32681245329155
 30
0.0
 10
26.64450843992633
 20
-78.31594317703559
 30
0.0
 10
26.55094825928566
 20
-78.31407421273484
 30
0.0
 10
25.88099130619251
 20
-78.30070724225207
 30
0.0
 10
25.21096975755902
 20
-78.28332673552899
 30
0.0
 10
24.54096328121827
 20
-78.28320615718701
 30
0.0
 10
24.22666506691425
 20
-78.28315448075473
 30
0.0
 10
24.10508118768575
 20
-78.4377445279166
 30
0.0
 10
24.19667766389983
 20
-78.73636540457805
 30
0.0
 10
24.26034302846725
 20
-78.94393240756436
 30
0.0
 10
24.38534831814954
 20
-79.13358491402736
 30
0.0
 10
24.49020410561248
 20
-79.32731124590167
 30
0.0
 10
24.56146805890954
 20
-79.45897418260921
 30
0.0
 10
24.69132016730265
 20
-79.57726153609526
 30
0.0
 10
24.5936926208047
 20
-79.74349600599729
 30
0.0
 10
24.49665289372393
 20
-79.90874001094728
 30
0.0
 10
24.33754977147638
 20
-79.98514361607141
 30
0.0
 10
24.15022916401995
 20
-79.98217222121539
 30
0.0
 10
23.49197692283794
 20
-79.97175942011122
 30
0.0
 10
22.83365147337687
 20
-79.96015806106465
 30
0.0
 10
22.17571575034257
 20
-79.93817835186874
 30
0.0
 10
21.902039518179
 20
-79.92904023609412
 30
0.0
 10
21.76243994274732
 20
-79.72444462796385
 30
0.0
 10
21.84850704070758
 20
-79.44696802484312
 30
0.0
 10
21.90333142898597
 20
-79.27020878823366
 30
0.0
 10
22.00500480949441
 20
-79.10752276668144
 30
0.0
 10
22.09012019982686
 20
-78.94079737067278
 30
0.0
 10
22.12734230336031
 20
-78.86789053746618
 30
0.0
 10
22.18671421767923
 20
-78.80506060855394
 30
0.0
 10
22.21678344171143
 20
-78.72994891423677
 30
0.0
 10
22.28945127141874
 20
-78.54842683311897
 30
0.0
 10
22.20839678738952
 20
-78.3655611647619
 30
0.0
 10
22.02126566018479
 20
-78.30913911345222
 30
0.0
 10
21.91120347216977
 20
-78.27594561845184
 30
0.0
 10
21.79017080821891
 20
-78.26527443518628
 30
0.0
 10
21.67442851902258
 20
-78.26709172305474
 30
0.0
 10
21.03975365006775
 20
-78.27702221079099
 30
0.0
 10
20.40519720627023
 20
-78.29445439394635
 30
0.0
 10
19.77057832011703
 20
-78.30829506505833
 30
0.0
 10
19.40649847605115
 20
-78.31625323562926
 30
0.0
 10
19.31497090174677
 20
-78.45748492504708
 30
0.0
 10
19.46282578723499
 20
-78.7988680494192
 30
0.0
 10
19.52345516140603
 20
-78.93886811720104
 30
0.0
 10
19.60396273652696
 20
-79.07017793162134
 30
0.0
 10
19.66617039506718
 20
-79.20958372043198
 30
0.0
 10
19.70883359628264
 20
-79.30517650740894
 30
0.0
 10
19.75278870830507
 20
-79.40568716819111
 30
0.0
 10
19.76591882847323
 20
-79.50787731302233
 30
0.0
 10
19.79716799770913
 20
-79.75107521606483
 30
0.0
 10
19.72581361065557
 20
-79.85483287934184
 30
0.0
 10
19.48633641073714
 20
-79.91027307843822
 30
0.0
 10
19.35059534224894
 20
-79.94170096200241
 30
0.0
 10
19.20778536846194
 20
-79.95122665101913
 30
0.0
 10
19.06784128348174
 20
-79.95388798728149
 30
0.0
 10
18.83287069909495
 20
-79.95837522415103
 30
0.0
 10
18.59765465165484
 20
-79.94865144214391
 30
0.0
 10
18.36252473160186
 20
-79.94648964472691
 30
0.0
 10
17.92534534430067
 20
-79.94246749574789
 30
0.0
 10
17.39716806612596
 20
-79.56237872359898
 30
0.0
 10
17.25488239280813
 20
-79.14821795710095
 30
0.0
 10
17.20501140588212
 20
-79.00306747156867
 30
0.0
 10
17.29003420927341
 20
-78.72187016532386
 30
0.0
 10
17.44397399466244
 20
-78.61477937216488
 30
0.0
 10
18.02180694129533
 20
-78.21280563094592
 30
0.0
 10
17.90323644402408
 20
-78.28591916988163
 30
0.0
 10
17.92764817531409
 20
-77.59137069457785
 30
0.0
 10
17.93673138487942
 20
-77.3329110185357
 30
0.0
 10
17.93878336987782
 20
-77.07398625460303
 30
0.0
 10
17.93566986483303
 20
-76.81538016200275
 30
0.0
 10
17.93114817700864
 20
-76.43971833755239
 30
0.0
 10
17.7181616081871
 20
-76.31812369240051
 30
0.0
 10
17.38024726433169
 20
-76.49476235066797
 30
0.0
 10
17.22403586910707
 20
-76.57641972640711
 30
0.0
 10
17.07270359036344
 20
-76.6676372421178
 30
0.0
 10
16.91497419994063
 20
-76.74609929179436
 30
0.0
 10
16.56279716077629
 20
-76.92129962269675
 30
0.0
 10
16.3925889885505
 20
-76.83463824576529
 30
0.0
 10
16.38327646481694
 20
-76.4518622991379
 30
0.0
 10
16.36640733945494
 20
-75.75841625438939
 30
0.0
 10
16.36462234935665
 20
-75.06445344531808
 30
0.0
 10
16.36666679820868
 20
-74.37074901840817
 30
0.0
 10
16.3675366848187
 20
-74.07561630092553
 30
0.0
 10
16.590798250925
 20
-73.9245919275909
 30
0.0
 10
16.86846002792806
 20
-74.03784944166848
 30
0.0
 10
17.07381140388041
 20
-74.1215997129149
 30
0.0
 10
17.26196744699201
 20
-74.24731124717168
 30
0.0
 10
17.45840679156096
 20
-74.35316180595598
 30
0.0
 10
17.74903289351196
 20
-74.50977584671543
 30
0.0
 10
17.87243944357063
 20
-74.4583750220755
 30
0.0
 10
17.90746422213988
 20
-74.13512171269451
 30
0.0
 10
17.93774553486289
 20
-73.85563834145361
 30
0.0
 10
17.93626091402722
 20
-73.57227062505311
 30
0.0
 10
17.94044670504179
 20
-73.29049626531453
 30
0.0
 10
17.94638518838449
 20
-72.89076183616099
 30
0.0
 10
17.94518586451869
 20
-72.49091544140417
 30
0.0
 10
17.94592010049398
 20
-72.09111211034093
 30
0.0
 10
17.94622154634895
 20
-71.92665186461382
 30
0.0
 10
17.97031998926827
 20
-71.7353543250566
 30
0.0
 10
17.80373024389433
 20
-71.6454847029545
 30
0.0
 10
17.62494593709496
 20
-71.54904356121429
 30
0.0
 10
17.47107074724627
 20
-71.68361760360686
 30
0.0
 10
17.31761865818687
 20
-71.76921530730727
 30
0.0
 10
17.12411302774208
 20
-71.87716306796819
 30
0.0
 10
16.92662938860417
 20
-71.97821633128929
 30
0.0
 10
16.72818327591507
 20
-72.07685802777071
 30
0.0
 10
16.68933013498782
 20
-72.09616778796554
 30
0.0
 10
16.63827381989642
 20
-72.09093124282796
 30
0.0
 10
16.59899650158755
 20
-72.09619362618167
 30
0.0
 10
16.44871820674394
 20
-71.98824155915137
 30
0.0
 10
16.42390490651143
 20
-71.84143312141682
 30
0.0
 10
16.42306193470988
 20
-71.68453486027981
 30
0.0
 10
16.41927017649142
 20
-70.97908265776521
 30
0.0
 10
16.40944088843507
 20
-70.27359600429574
 30
0.0
 10
16.41408207800911
 20
-69.56819978458277
 30
0.0
 10
16.41654747446574
 20
-69.193511199607
 30
0.0
 10
16.59183285616291
 20
-69.09123492738864
 30
0.0
 10
16.93730703142376
 20
-69.25481667376702
 30
0.0
 10
17.11725190476474
 20
-69.34002680422532
 30
0.0
 10
17.28099191021697
 20
-69.45931323540209
 30
0.0
 10
17.46052983165375
 20
-69.54556550724467
 30
0.0
 10
17.71925865578069
 20
-69.66986455235249
 30
0.0
 10
17.85984223661034
 20
-69.59758214270259
 30
0.0
 10
17.92514832790261
 20
-69.32171181535186
 30
0.0
 10
17.93852391112409
 20
-69.26520363665504
 30
0.0
 10
17.94118201760943
 20
-69.20525466884234
 30
0.0
 10
17.9419485513549
 20
-69.14680431756572
 30
0.0
 10
17.94998100679723
 20
-68.5354075281678
 30
0.0
 10
17.96331567950982
 20
-67.923976287815
 30
0.0
 10
17.96141011106954
 20
-67.3125967238945
 30
0.0
 10
17.96002130695205
 20
-66.86685304453544
 30
0.0
 10
17.72138707883517
 20
-66.73047032701312
 30
0.0
 10
17.31200745891527
 20
-66.92933415752981
 30
0.0
 10
17.14301475944037
 20
-67.01142647657396
 30
0.0
 10
16.98354882557453
 20
-67.11476211565403
 30
0.0
 10
16.81083004001387
 20
-67.1871564909072
 30
0.0
 10
16.56900371561144
 20
-67.28851120008325
 30
0.0
 10
16.42657485551249
 20
-67.20495902182722
 30
0.0
 10
16.37620971270282
 20
-66.95060762215124
 30
0.0
 10
16.36488719107208
 20
-66.89342764983479
 30
0.0
 10
16.3627975253418
 20
-66.83369830685927
 30
0.0
 10
16.36270170862362
 20
-66.77513598997939
 30
0.0
 10
16.36160466103004
 20
-66.10486682510789
 30
0.0
 10
16.361598201476
 20
-65.43460196660575
 30
0.0
 10
16.36175861373454
 20
-64.76433280173425
 30
0.0
 10
16.36176937965793
 20
-64.71738476300902
 30
0.0
 10
16.35903483511651
 20
-64.66911897526067
 30
0.0
 10
16.36843025646019
 20
-64.62371261676508
 30
0.0
 10
16.41002978444458
 20
-64.4226654569846
 30
0.0
 10
16.59806955558355
 20
-64.32013080260486
 30
0.0
 10
16.78872329292196
 20
-64.40751564958822
 30
0.0
 10
16.98066355810563
 20
-64.49549477554279
 30
0.0
 10
17.1626711823684
 20
-64.60487655719948
 30
0.0
 10
17.35119219028297
 20
-64.70062867984264
 30
0.0
 10
17.7024530493667
 20
-64.8790329495463
 30
0.0
 10
17.83787652311486
 20
-64.82249462626398
 30
0.0
 10
17.93696823519403
 20
-64.44437817128039
 30
0.0
 10
17.96908190807826
 20
-64.32184043123941
 30
0.0
 10
17.98314435721211
 20
-64.19053061681911
 30
0.0
 10
17.98079415613577
 20
-64.06369512016029
 30
0.0
 10
17.97034690407675
 20
-63.50008611151213
 30
0.0
 10
17.94768140556082
 20
-62.93671825954793
 30
0.0
 10
17.93606820399851
 20
-62.37312217000784
 30
0.0
 10
17.92961726270238
 20
-62.06003619867769
 30
0.0
 10
17.82908076370407
 20
-61.97345233639465
 30
0.0
 10
17.51739436241481
 20
-62.05424843826247
 30
0.0
 10
17.4064246070579
 20
-62.08301067919496
 30
0.0
 10
17.30257435683972
 20
-62.14289074509795
 30
0.0
 10
17.19890928050387
 20
-62.19535524296895
 30
0.0
 10
17.03142704008079
 20
-62.28011320464482
 30
0.0
 10
16.87204077404805
 20
-62.38299236857308
 30
0.0
 10
16.69966111507421
 20
-62.45543842025853
 30
0.0
 10
16.46412424311704
 20
-62.55442893265783
 30
0.0
 10
16.34825276284002
 20
-62.48079432302997
 30
0.0
 10
16.30806572400458
 20
-62.22745492015277
 30
0.0
 10
16.29894698689206
 20
-62.16996919561202
 30
0.0
 10
16.30371736754679
 20
-62.11013219340259
 30
0.0
 10
16.30361616786691
 20
-62.05138039627101
 30
0.0
 10
16.30251373731163
 20
-61.40521828705754
 30
0.0
 10
16.30074489609842
 20
-60.75905187147473
 30
0.0
 10
16.30190761582469
 20
-60.11288976226127
 30
0.0
 10
16.3020755642296
 20
-60.01981189498853
 30
0.0
 10
16.29399789190903
 20
-59.91711790494259
 30
0.0
 10
16.32867170137573
 20
-59.8353873209244
 30
0.0
 10
16.47173898073178
 20
-59.49813400476521
 30
0.0
 10
16.56317827446435
 20
-59.47267474912923
 30
0.0
 10
16.8217865202493
 20
-59.62937491727581
 30
0.0
 10
17.00225677065178
 20
-59.73873086071635
 30
0.0
 10
17.19332391944841
 20
-59.83358295216399
 30
0.0
 10
17.3874485904882
 20
-59.91672171896179
 30
0.0
 10
17.68525018037957
 20
-60.04426346019509
 30
0.0
 10
17.85322334690931
 20
-59.94601794969447
 30
0.0
 10
17.90605388617561
 20
-59.62394027914783
 30
0.0
 10
17.92500298793682
 20
-59.50841761478869
 30
0.0
 10
17.93981259215404
 20
-59.39002690843808
 30
0.0
 10
17.93679059745807
 20
-59.27345779632529
 30
0.0
 10
17.92186795104524
 20
-58.69757563501093
 30
0.0
 10
17.90519368889664
 20
-58.12165041000301
 30
0.0
 10
17.87911000970394
 20
-57.54619027288558
 30
0.0
 10
17.86577749017602
 20
-57.25204802035495
 30
0.0
 10
17.73990985003008
 20
-57.16480528356036
 30
0.0
 10
17.46475653317721
 20
-57.27680103141647
 30
0.0
 10
17.21589575443083
 20
-57.37809114505218
 30
0.0
 10
16.98225906795224
 20
-57.51718256889978
 30
0.0
 10
16.74325233888601
 20
-57.642174939474
 30
0.0
 10
16.48511348736092
 20
-57.77717100606352
 30
0.0
 10
16.36862188989656
 20
-57.71910392165963
 30
0.0
 10
16.36393763662896
 20
-57.42896228626125
 30
0.0
 10
16.35558650985424
 20
-56.91169842462841
 30
0.0
 10
16.36747424246303
 20
-56.39408574707768
 30
0.0
 10
16.35765033736837
 20
-55.87686925550777
 30
0.0
 10
16.35428275653154
 20
-55.69957172272875
 30
0.0
 10
16.44786231583432
 20
-55.59521547411117
 30
0.0
 10
16.56242573641929
 20
-55.49003240257714
 30
0.0
 10
16.90010215336775
 20
-55.1799695025353
 30
0.0
 10
17.22921750803536
 20
-54.86010099946856
 30
0.0
 10
17.57578442452044
 20
-54.56037769225183
 30
0.0
 10
17.80472178543868
 20
-54.36238805471452
 30
0.0
 10
17.93468047647336
 20
-54.14598007543919
 30
0.0
 10
17.9130291279409
 20
-53.82923369015596
 30
0.0
 10
17.89063816047146
 20
-53.50162664135549
 30
0.0
 10
17.9158153489146
 20
-53.17103527859092
 30
0.0
 10
17.91061863769356
 20
-52.84190377503822
 30
0.0
 10
17.90641562120156
 20
-52.5756969405236
 30
0.0
 10
17.81733191150703
 20
-52.48427702545314
 30
0.0
 10
17.55132962953686
 20
-52.47479440012999
 30
0.0
 10
17.44867977977682
 20
-52.47112967980756
 30
0.0
 10
17.33727831089191
 20
-52.48518997575674
 30
0.0
 10
17.24315722564255
 20
-52.52368461143504
 30
0.0
 10
17.10318299607685
 20
-52.58092917929182
 30
0.0
 10
16.9724082480491
 20
-52.66277603528266
 30
0.0
 10
16.8425862842415
 20
-52.74211658430796
 30
0.0
 10
16.72613882706304
 20
-52.81328364429451
 30
0.0
 10
16.63039639375092
 20
-52.94444273578732
 30
0.0
 10
16.46788155038064
 20
-52.84659771763687
 30
0.0
 10
16.31320645242398
 20
-52.75347678667056
 30
0.0
 10
16.30806895378159
 20
-52.60729277249271
 30
0.0
 10
16.30875366650929
 20
-52.44722502350928
 30
0.0
 10
16.31152158541322
 20
-51.80065380920694
 30
0.0
 10
16.3054119238886
 20
-51.15404814394977
 30
0.0
 10
16.3026504645387
 20
-50.50745539780065
 30
0.0
 10
16.3022984188438
 20
-50.42514345391932
 30
0.0
 10
16.29867353243791
 20
-50.34264202978629
 30
0.0
 10
16.30292499558518
 20
-50.2605540171115
 30
0.0
 10
16.31564385747979
 20
-50.01500053003097
 30
0.0
 10
16.37572739933488
 20
-49.94600818656948
 30
0.0
 10
16.62505541915645
 20
-49.94581009357908
 30
0.0
 10
16.74980447986203
 20
-49.94571104708388
 30
0.0
 10
16.87964797551641
 20
-49.97964093124423
 30
0.0
 10
16.99820124731023
 20
-50.02284242862927
 30
0.0
 10
17.18536790206216
 20
-50.09104240012915
 30
0.0
 10
17.36195703708203
 20
-50.18802614440828
 30
0.0
 10
17.54856171063293
 20
-50.25807785473148
 30
0.0
 10
17.76168500668154
 20
-50.33809019737641
 30
0.0
 10
17.87841453105285
 20
-50.26941652524731
 30
0.0
 10
17.9298433470936
 20
-50.04698393524216
 30
0.0
 10
17.94285396551211
 20
-49.9907083004906
 30
0.0
 10
17.94064049166284
 20
-49.93022534287768
 30
0.0
 10
17.94044239867244
 20
-49.87168886421393
 30
0.0
 10
17.93833012450305
 20
-49.24847109093223
 30
0.0
 10
17.92545838649628
 20
-48.62507245013756
 30
0.0
 10
17.93684119729801
 20
-48.00211305901726
 30
0.0
 10
17.94188718559157
 20
-47.72593697944221
 30
0.0
 10
17.88188761793892
 20
-47.54673172503823
 30
0.0
 10
17.46735973345325
 20
-47.66964411921323
 30
0.0
 10
17.26848513701317
 20
-47.728615541182
 30
0.0
 10
17.09198320597277
 20
-47.8605282473122
 30
0.0
 10
16.90194204967534
 20
-47.95235726747153
 30
0.0
 10
16.59763461227854
 20
-48.09939824915137
 30
0.0
 10
16.44164499507579
 20
-48.01975194790174
 30
0.0
 10
16.37809267270398
 20
-47.6884241959772
 30
0.0
 10
16.36713188609919
 20
-47.63128298098497
 30
0.0
 10
16.36797808767775
 20
-47.57138568960455
 30
0.0
 10
16.36781552223454
 20
-47.51274585807624
 30
0.0
 10
16.36599500458905
 20
-46.85424169428687
 30
0.0
 10
16.36193732806283
 20
-46.19572030502007
 30
0.0
 10
16.3651132754633
 20
-45.53723336670813
 30
0.0
 10
16.36681752113616
 20
-45.18400772660547
 30
0.0
 10
16.61138484963404
 20
-45.05338262491286
 30
0.0
 10
16.93085393694296
 20
-45.22432826289096
 30
0.0
 10
17.13770285283905
 20
-45.33501056809332
 30
0.0
 10
17.34214235508015
 20
-45.45233329484351
 30
0.0
 10
17.55681594409712
 20
-45.54560494873729
 30
0.0
 10
17.75404120107364
 20
-45.63129739256353
 30
0.0
 10
17.85715075576249
 20
-45.57354897949202
 30
0.0
 10
17.86645036038798
 20
-45.36220959694937
 30
0.0
 10
17.89848974840081
 20
-44.6340111514934
 30
0.0
 10
17.92298007093158
 20
-43.90525718439043
 30
0.0
 10
17.93415940578121
 20
-43.17646876633261
 30
0.0
 10
17.93821385253042
 20
-42.91216104070424
 30
0.0
 10
17.76845461931005
 20
-42.80082847372904
 30
0.0
 10
17.5058500627622
 20
-42.87804167629221
 30
0.0
 10
17.36077924506301
 20
-42.92069626476895
 30
0.0
 10
17.22496819807277
 20
-42.99669937754292
 30
0.0
 10
17.08761977722223
 20
-43.06312081849854
 30
0.0
 10
16.99250822702086
 20
-43.10910853685727
 30
0.0
 10
16.90473150042605
 20
-43.17065086133189
 30
0.0
 10
16.80869192762834
 20
-43.2142614638058
 30
0.0
 10
16.59829348679009
 20
-43.30979826798114
 30
0.0
 10
16.50544924005495
 20
-43.28098004424702
 30
0.0
 10
16.42482862273841
 20
-43.07073878589029
 30
0.0
 10
16.37116910737096
 20
-42.93080762001816
 30
0.0
 10
16.32351051770189
 20
-42.77747933907776
 30
0.0
 10
16.32330273538044
 20
-42.63008092874135
 30
0.0
 10
16.32244146150912
 20
-42.01886070048703
 30
0.0
 10
16.33392331880606
 20
-41.40738639644069
 30
0.0
 10
16.3543419691102
 20
-40.79645469493326
 30
0.0
 10
16.36689395919224
 20
-40.42092636793295
 30
0.0
 10
16.63303727475884
 20
-40.28358763641347
 30
0.0
 10
16.95431611378985
 20
-40.47512633265465
 30
0.0
 10
17.09555749253872
 20
-40.55932877268351
 30
0.0
 10
17.22515444854744
 20
-40.66426207479486
 30
0.0
 10
17.37000671800179
 20
-40.7409628194046
 30
0.0
 10
17.69232662182474
 20
-40.91162854337452
 30
0.0
 10
17.89553557902221
 20
-40.792019134496
 30
0.0
 10
17.90041577209553
 20
-40.43288084926678
 30
0.0
 10
17.90936117784145
 20
-39.77448434471133
 30
0.0
 10
17.9160328205671
 20
-39.11603185735424
 30
0.0
 10
17.91872753119197
 20
-38.45758798273586
 30
0.0
 10
17.92017339470344
 20
-38.10424176429121
 30
0.0
 10
17.82239081890866
 20
-38.03001287569215
 30
0.0
 10
17.49538127885641
 20
-38.14986774762399
 30
0.0
 10
17.32069340590745
 20
-38.21389484721736
 30
0.0
 10
17.15861458243452
 20
-38.31238151440194
 30
0.0
 10
16.9910074573001
 20
-38.39564516591107
 30
0.0
 10
16.89684438494951
 20
-38.44242094986205
 30
0.0
 10
16.80735587653546
 20
-38.50461353610953
 30
0.0
 10
16.7080994458284
 20
-38.53383655856315
 30
0.0
 10
16.52257351780132
 20
-38.58847146658986
 30
0.0
 10
16.4558796989839
 20
-38.53948220878961
 30
0.0
 10
16.42547350154955
 20
-38.34144950755874
 30
0.0
 10
16.40411821591036
 20
-38.20236239008048
 30
0.0
 10
16.38354561290172
 20
-38.06166899683224
 30
0.0
 10
16.38129984128228
 20
-37.92139332141158
 30
0.0
 10
16.37132736644482
 20
-37.29826598188637
 30
0.0
 10
16.36433166942508
 20
-36.67503959586596
 30
0.0
 10
16.36390641545112
 20
-36.05183904806169
 30
0.0
 10
16.36367387150587
 20
-35.70996284439824
 30
0.0
 10
16.50712441773465
 20
-35.60369456778636
 30
0.0
 10
16.82951322346731
 20
-35.7131108003979
 30
0.0
 10
16.98352729372775
 20
-35.76538151164785
 30
0.0
 10
17.12472453219071
 20
-35.85593369329296
 30
0.0
 10
17.27082026579677
 20
-35.93091404334475
 30
0.0
 10
17.55432363283201
 20
-36.07641980434895
 30
0.0
 10
17.55405771452424
 20
-36.07693656867173
 30
0.0
 10
17.92245469387008
 20
-35.93213274587265
 30
0.0
 10
17.94552929747488
 20
-35.45585690777558
 30
0.0
 10
17.97716603995286
 20
-34.96543464634219
 30
0.0
 10
17.99011098623869
 20
-34.47451930561748
 30
0.0
 10
17.99784845538009
 20
-34.18110267632343
 30
0.0
 10
17.98217219432986
 20
-33.88659222921281
 30
0.0
 10
17.96612773869965
 20
-33.5931712935494
 30
0.0
 10
17.95249700309379
 20
-33.34389064379076
 30
0.0
 10
17.86069812751996
 20
-33.28039753399761
 30
0.0
 10
17.62316632995835
 20
-33.35641141269497
 30
0.0
 10
17.37736953300917
 20
-33.43506724899258
 30
0.0
 10
17.13888818100445
 20
-33.53701623713983
 30
0.0
 10
16.89208477021816
 20
-33.61189754069642
 30
0.0
 10
16.77442829984285
 20
-33.64759518947764
 30
0.0
 10
16.64490132233617
 20
-33.64416516628514
 30
0.0
 10
16.48579066394224
 20
-33.66248230834327
 30
0.0
 10
16.44209716385822
 20
-33.00700552221157
 30
0.0
 10
16.35311788362059
 20
-32.38546292660958
 30
0.0
 10
16.60096343579116
 20
-31.7903097624246
 30
0.0
 10
16.67348592553269
 20
-31.61616018564522
 30
0.0
 10
16.82847215867537
 20
-31.46858521416519
 30
0.0
 10
16.96914940303853
 20
-31.33324463802715
 30
0.0
 10
17.06711176975394
 20
-31.2389975914741
 30
0.0
 10
17.20514382673983
 20
-31.18639959615305
 30
0.0
 10
17.343783081805
 20
-31.10422760927581
 30
0.0
 10
17.54356632217932
 20
-31.26850914067463
 30
0.0
 10
17.74313316749347
 20
-31.43048676446768
 30
0.0
 10
17.94029921189133
 20
-31.59533243025221
 30
0.0
 10
18.14572702589976
 20
-31.76708766566934
 30
0.0
 10
18.37075635662692
 20
-31.87026827545257
 30
0.0
 10
18.64857316292683
 20
-31.85456725277854
 30
0.0
 10
18.95332415636735
 20
-31.83734392853697
 30
0.0
 10
19.2603919765217
 20
-31.85462754194954
 30
0.0
 10
19.56423432602799
 20
-31.82977979076217
 30
0.0
 10
19.85364387863576
 20
-31.80610983159383
 30
0.0
 10
19.96700905194726
 20
-31.59075906599554
 30
0.0
 10
19.84178629061247
 20
-31.3308998199125
 30
0.0
 10
19.77569859328198
 20
-31.1937505686447
 30
0.0
 10
19.68566532914434
 20
-31.06832110158079
 30
0.0
 10
19.61058593259735
 20
-30.93526074801705
 30
0.0
 10
19.56454223143699
 20
-30.85366366144891
 30
0.0
 10
19.51559819051498
 20
-30.77118161597799
 30
0.0
 10
19.486558188759
 20
-30.68297425244753
 30
0.0
 10
19.38593986874292
 20
-30.37731246188809
 30
0.0
 10
19.50190608914579
 20
-30.19647078712861
 30
0.0
 10
19.8275968035826
 20
-30.19016626239061
 30
0.0
 10
20.32117132738498
 20
-30.18061042878839
 30
0.0
 10
20.81522601137063
 20
-30.19498078333124
 30
0.0
 10
21.30906322370377
 20
-30.20026685171643
 30
0.0
 10
21.55597752350098
 20
-30.20291096250135
 30
0.0
 10
21.80314374590555
 20
-30.20201954404455
 30
0.0
 10
22.04969631067681
 20
-30.21346802697897
 30
0.0
 10
22.32914523096285
 20
-30.22644742421965
 30
0.0
 10
22.39952853172651
 20
-30.35362527724232
 30
0.0
 10
22.27629315984976
 20
-30.60540577441245
 30
0.0
 10
22.15273911664063
 20
-30.85784083972477
 30
0.0
 10
22.02680149799265
 20
-31.10911964486486
 30
0.0
 10
21.90487310921562
 20
-31.36232985666137
 30
0.0
 10
21.88505519743672
 20
-31.40348582860204
 30
0.0
 10
21.88058087967525
 20
-31.45202937717388
 30
0.0
 10
21.86670360442373
 20
-31.5061776654633
 30
0.0
 10
22.00019459492313
 20
-31.67844751201854
 30
0.0
 10
22.1846450072034
 20
-31.73622391649085
 30
0.0
 10
22.38956359303542
 20
-31.73487602288225
 30
0.0
 10
23.03624677294102
 20
-31.73062132995797
 30
0.0
 10
23.68289765507645
 20
-31.72122052565259
 30
0.0
 10
24.32954853721188
 20
-31.71280372674519
 30
0.0
 10
24.38811300727645
 20
-31.71204149936908
 30
0.0
 10
24.44824714897149
 20
-31.71123836148408
 30
0.0
 10
24.50478977862315
 20
-31.6981103945006
 30
0.0
 10
24.68391105882468
 20
-31.65653024517832
 30
0.0
 10
24.74591847118982
 20
-31.55241515324471
 30
0.0
 10
24.66356776998428
 20
-31.38812931547653
 30
0.0
 10
24.59053605206634
 20
-31.24243622740532
 30
0.0
 10
24.47240372787713
 20
-31.11973915169814
 30
0.0
 10
24.39525942722367
 20
-30.97560927570337
 30
0.0
 10
24.31380445084429
 20
-30.8234264890118
 30
0.0
 10
24.22281517270949
 20
-30.66309820468231
 30
0.0
 10
24.19775856260833
 20
-30.49700799815374
 30
0.0
 10
24.15759951517371
 20
-30.23079901045445
 30
0.0
 10
24.30541994970706
 20
-30.07736307028014
 30
0.0
 10
24.58079289139712
 20
-30.06439874533221
 30
0.0
 10
24.80353123362659
 20
-30.0539105827643
 30
0.0
 10
25.0275248825235
 20
-30.06384968323925
 30
0.0
 10
25.25074984449026
 20
-30.07116405159136
 30
0.0
 10
25.73221916403135
 20
-30.08694043572913
 30
0.0
 10
26.21353560746029
 20
-30.10738277106473
 30
0.0
 10
26.69495109738442
 20
-30.12491184753062
 30
0.0
 10
27.05450279407188
 20
-30.13800536355925
 30
0.0
 10
27.13846838378613
 20
-30.25180117380641
 30
0.0
 10
27.0231825697416
 20
-30.58986193421994
 30
0.0
 10
26.9895648973596
 20
-30.68844118834568
 30
0.0
 10
26.93190045849055
 20
-30.77932280724657
 30
0.0
 10
26.88063743767003
 20
-30.87115398059058
 30
0.0
 10
26.8580268453634
 20
-30.91166615031245
 30
0.0
 10
26.8201760119039
 20
-30.94343854342517
 30
0.0
 10
26.79555219192307
 20
-30.98309374564507
 30
0.0
 10
26.51978306425221
 20
-31.42722038331073
 30
0.0
 10
26.61054410481112
 20
-31.63658098913404
 30
0.0
 10
27.11915001085259
 20
-31.72975144334794
 30
0.0
 10
27.19991166176556
 20
-31.74454597527241
 30
0.0
 10
27.2819049343145
 20
-31.76477729850955
 30
0.0
 10
27.36302832025343
 20
-31.76350261318
 30
0.0
 10
27.93909134908076
 20
-31.75443985886911
 30
0.0
 10
28.51539768777675
 20
-31.7482946697973
 30
0.0
 10
29.09095902457405
 20
-31.72482710998871
 30
0.0
 10
29.39836920109225
 20
-31.71229557516112
 30
0.0
 10
29.49465316035094
 20
-31.56623213932524
 30
0.0
 10
29.37869770587147
 20
-31.28062726404399
 30
0.0
 10
29.29112983819046
 20
-31.06493844845121
 30
0.0
 10
29.15016729685742
 20
-30.87159323026496
 30
0.0
 10
29.04631919982393
 20
-30.66169863464143
 30
0.0
 10
28.88672515146972
 20
-30.33912788480345
 30
0.0
 10
28.96710784187932
 20
-30.19286204960782
 30
0.0
 10
29.32176319660836
 20
-30.18949231558631
 30
0.0
 10
30.07422157383452
 20
-30.1823351297157
 30
0.0
 10
30.82694479277612
 20
-30.18420409401645
 30
0.0
 10
31.57932996172322
 20
-30.1964923189754
 30
0.0
 10
31.94790780858203
 20
-30.20251262333587
 30
0.0
 10
32.04776820759136
 20
-30.37071510403384
 30
0.0
 10
31.87457033843978
 20
-30.69514405224917
 30
0.0
 10
31.78187789122445
 20
-30.86877901789045
 30
0.0
 10
31.6384391875114
 20
-31.01547549002173
 30
0.0
 10
31.5167756404498
 20
-31.17346326260594
 30
0.0
 10
31.31336859026193
 20
-31.43760734619876
 30
0.0
 10
31.37457932429611
 20
-31.5978215117403
 30
0.0
 10
31.70870621630242
 20
-31.65001901471119
 30
0.0
 10
31.84727010990385
 20
-31.67166713346663
 30
0.0
 10
31.98965590630923
 20
-31.67435215476045
 30
0.0
 10
32.13039451643572
 20
-31.67564406556742
 30
0.0
 10
32.67125512895783
 20
-31.68061576898957
 30
0.0
 10
33.21215449880416
 20
-31.68323834792771
 30
0.0
 10
33.75303233680372
 20
-31.68268067309604
 30
0.0
 10
33.87867066278142
 20
-31.68255148201534
 30
0.0
 10
34.00428961009702
 20
-31.66642628195969
 30
0.0
 10
34.12311310656797
 20
-31.65813436776363
 30
0.0
 10
34.20984123222445
 20
-31.42709765178407
 30
0.0
 10
34.2032632530323
 20
-31.24953958365897
 30
0.0
 10
34.06239329864043
 20
-31.06901012067784
 30
0.0
 10
33.95533695643629
 20
-30.9318156525318
 30
0.0
 10
33.87581553989801
 20
-30.76965500804109
 30
0.0
 10
33.80325536942462
 20
-30.60988009217392
 30
0.0
 10
33.70424332517854
 20
-30.3918550712052
 30
0.0
 10
33.77406033837181
 20
-30.21322471711032
 30
0.0
 10
33.99531513635794
 20
-30.12604872904075
 30
0.0
 10
34.10103865724622
 20
-30.08439321825473
 30
0.0
 10
34.2236259205348
 20
-30.06658638096534
 30
0.0
 10
34.33796218013621
 20
-30.06885153124689
 30
0.0
 10
35.00772749979299
 20
-30.08212376160382
 30
0.0
 10
35.67745406212555
 20
-30.10077464728709
 30
0.0
 10
36.34690286363463
 20
-30.12550827968651
 30
0.0
 10
36.65899837001277
 20
-30.13704073682338
 30
0.0
 10
36.77128264461578
 20
-30.31741086413831
 30
0.0
 10
36.63251419846991
 20
-30.59468076152993
 30
0.0
 10
36.53842433439838
 20
-30.78268177534469
 30
0.0
 10
36.40956053777261
 20
-30.95318170409438
 30
0.0
 10
36.29759924087134
 20
-31.13235250754352
 30
0.0
 10
36.12036199726331
 20
-31.41598506565946
 30
0.0
 10
36.19643831831634
 20
-31.60532966671347
 30
0.0
 10
36.53421701153702
 20
-31.64466835078566
 30
0.0
 10
36.87143157037198
 20
-31.68394459250219
 30
0.0
 10
37.21345634377823
 20
-31.68722604595189
 30
0.0
 10
37.55362937836116
 20
-31.6943229426515
 30
0.0
 10
37.90621336942969
 20
-31.70167822151251
 30
0.0
 10
38.25933996303716
 20
-31.70279141799118
 30
0.0
 10
38.61177753754758
 20
-31.69185539301019
 30
0.0
 10
39.03365962430191
 20
-31.67877048972028
 30
0.0
 10
39.14179255884519
 20
-31.4520875131602
 30
0.0
 10
38.909528527599
 20
-31.09144415184085
 30
0.0
 10
38.79500063456123
 20
-30.91361047607693
 30
0.0
 10
38.67291075693334
 20
-30.73976665152187
 30
0.0
 10
38.57130627833461
 20
-30.55474349211718
 30
0.0
 10
38.47117888442517
 20
-30.37240320082161
 30
0.0
 10
38.53109770765238
 20
-30.23484269128026
 30
0.0
 10
38.7335272119963
 20
-30.18466702872228
 30
0.0
 10
38.88043469622607
 20
-30.14825667581254
 30
0.0
 10
39.03529604465741
 20
-30.13383249165274
 30
0.0
 10
39.18716446638593
 20
-30.12962732197606
 30
0.0
 10
39.51620122981278
 20
-30.12051289123289
 30
0.0
 10
39.84584949768828
 20
-30.13138432067353
 30
0.0
 10
40.17474845729572
 20
-30.11984325079795
 30
0.0
 10
40.35232159771356
 20
-30.113611934339
 30
0.0
 10
40.48877752351495
 20
-30.16432804625124
 30
0.0
 10
40.6142134501329
 20
-30.29240808365411
 30
0.0
 10
40.95108349941934
 20
-30.63637718282484
 30
0.0
 10
41.30483882295286
 20
-30.96399284436404
 30
0.0
 10
41.63729053727947
 20
-31.31204438168479
 30
0.0
 10
41.83724818561273
 20
-31.52138345566132
 30
0.0
 10
42.06273399149169
 20
-31.6293376758763
 30
0.0
 10
42.35245360269312
 20
-31.62999655038785
 30
0.0
 10
42.71670354834859
 20
-31.630825526489
 30
0.0
 10
43.08110421693154
 20
-31.65975571582638
 30
0.0
 10
43.44503549125461
 20
-31.65336721688592
 30
0.0
 10
43.57506631397602
 20
-31.65108484112694
 30
0.0
 10
43.74275633672056
 20
-31.61816910695006
 30
0.0
 10
43.82380220801105
 20
-31.53308170801842
 30
0.0
 10
43.93383855780994
 20
-31.41754612455121
 30
0.0
 10
43.8273377372528
 20
-31.26923907028056
 30
0.0
 10
43.74881539840524
 20
-31.15123378398736
 30
0.0
 10
43.65113832865969
 20
-31.00445764402297
 30
0.0
 10
43.53786358910467
 20
-30.86720073352126
 30
0.0
 10
43.44950980901609
 20
-30.715256950329
 30
0.0
 10
43.24814397790324
 20
-30.36895595215169
 30
0.0
 10
43.32006465252718
 20
-30.20068887591337
 30
0.0
 10
43.70657422138672
 20
-30.10402810933597
 30
0.0
 10
43.81919439279953
 20
-30.0758601473747
 30
0.0
 10
43.93816645901329
 20
-30.06125509570192
 30
0.0
 10
44.05428770871298
 20
-30.06092781163081
 30
0.0
 10
44.64221478511765
 20
-30.05926770624386
 30
0.0
 10
45.23015478063039
 20
-30.06547749085603
 30
0.0
 10
45.81809908251248
 20
-30.06671987841539
 30
0.0
 10
46.28394920039732
 20
-30.06770388381337
 30
0.0
 10
46.40278776916101
 20
-30.24207739179929
 30
0.0
 10
46.21052560286794
 20
-30.69116066059435
 30
0.0
 10
46.13263199394643
 20
-30.87310261272443
 30
0.0
 10
46.00397490304978
 20
-31.03263206553828
 30
0.0
 10
45.90948454662809
 20
-31.20831255662392
 30
0.0
 10
45.77803692838839
 20
-31.45270117079351
 30
0.0
 10
45.8289339078136
 20
-31.55149574338708
 30
0.0
 10
46.1076119879848
 20
-31.56575413232666
 30
0.0
 10
46.80005464867324
 20
-31.60118478620777
 30
0.0
 10
47.49301838005382
 20
-31.62721032941416
 30
0.0
 10
48.18596057958762
 20
-31.65169849876025
 30
0.0
 10
48.29877884399084
 20
-31.65568189041507
 30
0.0
 10
48.41255742876057
 20
-31.63250931690741
 30
0.0
 10
48.51702564298141
 20
-31.62271878617526
 30
0.0
 10
48.62477961702132
 20
-31.37876511531069
 30
0.0
 10
48.51032923863196
 20
-31.20317936435089
 30
0.0
 10
48.42418893239265
 20
-31.02788429332267
 30
0.0
 10
48.37278810775272
 20
-30.92328042846709
 30
0.0
 10
48.29184558932677
 20
-30.83364980986428
 30
0.0
 10
48.23195260431571
 20
-30.73267836756097
 30
0.0
 10
47.99831053487542
 20
-30.33878983480896
 30
0.0
 10
48.14835305599676
 20
-30.06423510329666
 30
0.0
 10
48.6041607205421
 20
-30.06033999221365
 30
0.0
 10
49.00388223058756
 20
-30.05692288812922
 30
0.0
 10
49.40375015719116
 20
-30.06312406000267
 30
0.0
 10
49.80348027997534
 20
-30.06969988601014
 30
0.0
 10
50.08550871550596
 20
-30.07433784580715
 30
0.0
 10
50.36812281726907
 20
-30.07710468811874
 30
0.0
 10
50.6491995451719
 20
-30.09794966898919
 30
0.0
 10
51.03613975096709
 20
-30.12664300801196
 30
0.0
 10
51.14193432694976
 20
-30.29675536351956
 30
0.0
 10
51.00059067192867
 20
-30.66238550055381
 30
0.0
 10
50.94203266141813
 20
-30.81387496177895
 30
0.0
 10
50.85104768965269
 20
-30.95277905855955
 30
0.0
 10
50.77561732400314
 20
-31.09782188485792
 30
0.0
 10
50.73283785081505
 20
-31.18006923319891
 30
0.0
 10
50.67271662822808
 20
-31.25905020038294
 30
0.0
 10
50.65372553936565
 20
-31.34671926774383
 30
0.0
 10
50.61309925085584
 20
-31.53427887869955
 30
0.0
 10
50.69509252340478
 20
-31.63538166526823
 30
0.0
 10
50.89188068389161
 20
-31.64411282913867
 30
0.0
 10
51.13841171681609
 20
-31.65505531367369
 30
0.0
 10
51.38562746246826
 20
-31.64985537267564
 30
0.0
 10
51.63250731131062
 20
-31.65400886592005
 30
0.0
 10
52.0792586810991
 20
-31.66152348044725
 30
0.0
 10
52.52595837445531
 20
-31.67508423755106
 30
0.0
 10
52.97271835698251
 20
-31.67677018115416
 30
0.0
 10
53.10787375923822
 20
-31.67727833273823
 30
0.0
 10
53.24314112709719
 20
-31.64694642017528
 30
0.0
 10
53.39149555143077
 20
-31.6291697274714
 30
0.0
 10
53.39934606276778
 20
-31.41173898547389
 30
0.0
 10
53.33797599306741
 20
-31.25549098610974
 30
0.0
 10
53.23945487492798
 20
-31.10645830860251
 30
0.0
 10
53.14885317003526
 20
-30.96940810382991
 30
0.0
 10
53.05345416967934
 20
-30.8329241866277
 30
0.0
 10
52.98420344405646
 20
-30.68494226324347
 30
0.0
 10
52.85962448494047
 20
-30.4187418882829
 30
0.0
 10
52.91804899800095
 20
-30.24832378055098
 30
0.0
 10
53.19104697699086
 20
-30.1558251199567
 30
0.0
 10
53.37460597081433
 20
-30.09363038052455
 30
0.0
 10
53.57939967193501
 20
-30.0697429497037
 30
0.0
 10
53.7744954292647
 20
-30.07064082771454
 30
0.0
 10
54.3140189141016
 20
-30.07312990920264
 30
0.0
 10
54.85344335244332
 20
-30.09781186516977
 30
0.0
 10
55.3929194672173
 20
-30.11307148498475
 30
0.0
 10
55.45153346052948
 20
-30.11472943718703
 30
0.0
 10
55.51062115447087
 20
-30.1076239277487
 30
0.0
 10
55.56888202549579
 20
-30.11224035569894
 30
0.0
 10
55.86607318753087
 20
-30.13579404289465
 30
0.0
 10
55.97919289778905
 20
-30.28125674020529
 30
0.0
 10
55.87525006062971
 20
-30.55836084237669
 30
0.0
 10
55.80708454008468
 20
-30.74007671011554
 30
0.0
 10
55.69372367314254
 20
-30.90962708442211
 30
0.0
 10
55.57680574511187
 20
-31.06693875701733
 30
0.0
 10
55.45699393687359
 20
-31.22814554069556
 30
0.0
 10
55.37086224337299
 20
-31.38059316910255
 30
0.0
 10
55.48677248097423
 20
-31.61053822045023
 30
0.0
 10
55.62851232197612
 20
-31.64068495913084
 30
0.0
 10
55.78631061430862
 20
-31.70033032790391
 30
0.0
 10
55.94521133719641
 20
-31.70342230110192
 30
0.0
 10
56.55644879092815
 20
-31.71531864644942
 30
0.0
 10
57.16813410707298
 20
-31.71559425408825
 30
0.0
 10
57.77947922003863
 20
-31.70735186313978
 30
0.0
 10
58.17991128102793
 20
-31.70195382915133
 30
0.0
 10
58.26178828160426
 20
-31.53682609617395
 30
0.0
 10
58.0553064836958
 20
-31.19950603128975
 30
0.0
 10
57.95175983251726
 20
-31.0303496897793
 30
0.0
 10
57.83804584328787
 20
-30.8626467479267
 30
0.0
 10
57.76695629794975
 20
-30.6795270037776
 30
0.0
 10
57.66253545379182
 20
-30.41054040784333
 30
0.0
 10
57.77447952521566
 20
-30.21982207496457
 30
0.0
 10
58.05040583536804
 20
-30.15116778149758
 30
0.0
 10
58.12865256657677
 20
-30.13169868563656
 30
0.0
 10
58.21350096200912
 20
-30.13180849805515
 30
0.0
 10
58.29506359762241
 20
-30.133757130189
 30
0.0
 10
58.95320172001647
 20
-30.14948399107916
 30
0.0
 10
59.6113829061041
 20
-30.16473930452479
 30
0.0
 10
60.26933154824646
 20
-30.18656183123916
 30
0.0
 10
60.61365592288911
 20
-30.19798016958809
 30
0.0
 10
60.71215550918176
 20
-30.35088642633155
 30
0.0
 10
60.57892505402843
 20
-30.66145747795746
 30
0.0
 10
60.51888995882861
 20
-30.8014080224917
 30
0.0
 10
60.43682778436995
 20
-30.93175105699145
 30
0.0
 10
60.37156045040189
 20
-31.06967114837408
 30
0.0
 10
60.32164101682063
 20
-31.17515351257839
 30
0.0
 10
60.26634723428236
 20
-31.28221200796721
 30
0.0
 10
60.24194303913873
 20
-31.39475035836225
 30
0.0
 10
60.1982247774309
 20
-31.59636811208246
 30
0.0
 10
60.25585691852977
 20
-31.67068097488398
 30
0.0
 10
60.4611027884329
 20
-31.70706333639289
 30
0.0
 10
60.56498103005189
 20
-31.72547737176155
 30
0.0
 10
60.67103829456531
 20
-31.74049798807724
 30
0.0
 10
60.77621275336063
 20
-31.7412063858364
 30
0.0
 10
61.35231884588153
 20
-31.74508427144199
 30
0.0
 10
61.92845938935729
 20
-31.74436726094411
 30
0.0
 10
62.50458701372497
 20
-31.74452444342563
 30
0.0
 10
62.69873536979623
 20
-31.74457611985791
 30
0.0
 10
62.90019163466557
 20
-31.73055673441762
 30
0.0
 10
62.978627846126
 20
-31.5184508181295
 30
0.0
 10
63.0540625181449
 20
-31.31445594852447
 30
0.0
 10
62.98866168672678
 20
-31.1272688385181
 30
0.0
 10
62.82981264027128
 20
-30.97414511012213
 30
0.0
 10
62.74526569069388
 20
-30.89265137641854
 30
0.0
 10
62.63820504212039
 20
-30.81684205026562
 30
0.0
 10
62.59426715557538
 20
-30.71550241338232
 30
0.0
 10
62.5425648850805
 20
-30.59626550545315
 30
0.0
 10
62.50884170664926
 20
-30.44028665417378
 30
0.0
 10
62.5440419697698
 20
-30.32333212200359
 30
0.0
 10
62.56464364077159
 20
-30.25487592152699
 30
0.0
 10
62.73524046283181
 20
-30.19340249896206
 30
0.0
 10
62.83774927899542
 20
-30.19436281932858
 30
0.0
 10
63.28421642840638
 20
-30.19855291671251
 30
0.0
 10
63.73353870070072
 20
-30.20220687111156
 30
0.0
 10
64.17536789031466
 20
-30.25757386192888
 30
0.0
 10
64.37093734827358
 20
-30.28208140993708
 30
0.0
 10
64.5701456883388
 20
-30.40392151814229
 30
0.0
 10
64.7330599474669
 20
-30.52731622568523
 30
0.0
 10
64.8978001072022
 20
-30.65210189053033
 30
0.0
 10
65.01970481094776
 20
-30.83344095095049
 30
0.0
 10
65.18081470131547
 20
-31.01275817095775
 30
0.0
 10
65.05661470270286
 20
-31.19753371412445
 30
0.0
 10
64.97111604549766
 20
-31.4059878291982
 30
0.0
 10
64.8183691244204
 20
-31.53456740544644
 30
0.0
 10
64.52688390178277
 20
-31.77994863775271
 30
0.0
 10
64.50521425118054
 20
-32.10326438948938
 30
0.0
 10
64.50051169584319
 20
-32.42702369726976
 30
0.0
 10
64.49541295452501
 20
-32.77799925938362
 30
0.0
 10
64.53921734361997
 20
-33.12968537244131
 30
0.0
 10
64.56112384453679
 20
-33.47206542131948
 30
0.0
 10
64.69686921939436
 20
-33.62161701633418
 30
0.0
 10
64.84642942714777
 20
-33.64405320068187
 30
0.0
 10
65.01270265437399
 20
-33.55371849068926
 30
0.0
 10
65.21728964976555
 20
-33.44257109759638
 30
0.0
 10
65.42571362025381
 20
-33.33733634963007
 30
0.0
 10
65.62334152276517
 20
-33.21480722232781
 30
0.0
 10
65.89062494961893
 20
-33.04908951674857
 30
0.0
 10
66.05064532853941
 20
-33.1165509459038
 30
0.0
 10
66.05949922393651
 20
-33.43497681523609
 30
0.0
 10
66.08007936309151
 20
-34.17505007419278
 30
0.0
 10
66.08509197702256
 20
-34.91556473600852
 30
0.0
 10
66.09431622018431
 20
-35.65592867489678
 30
0.0
 10
66.09533682972181
 20
-35.73785089235134
 30
0.0
 10
66.09273578263046
 20
-35.82224065944722
 30
0.0
 10
66.07450261477477
 20
-35.9015036938241
 30
0.0
 10
66.02937617028735
 20
-36.09771480081715
 30
0.0
 10
65.88941485982973
 20
-36.17540170400953
 30
0.0
 10
65.70681618637277
 20
-36.09244811109407
 30
0.0
 10
65.60286473647471
 20
-36.04522661791469
 30
0.0
 10
65.52065614545793
 20
-35.95240282643399
 30
0.0
 10
65.42099814580836
 20
-35.89296416339004
 30
0.0
 10
65.26227829043356
 20
-35.79829939900941
 30
0.0
 10
65.1051776299368
 20
-35.69097821508985
 30
0.0
 10
64.93269461809842
 20
-35.6319055934412
 30
0.0
 10
64.7248821520588
 20
-35.56072992071594
 30
0.0
 10
64.60017830823146
 20
-35.65755432932888
 30
0.0
 10
64.55599495863314
 20
-35.87649230060119
 30
0.0
 10
64.54908323581584
 20
-35.91074300927861
 30
0.0
 10
64.54860953518663
 20
-35.94669473385187
 30
0.0
 10
64.54853632690756
 20
-35.98186700557159
 30
0.0
 10
64.54715828871346
 20
-36.65201343891642
 30
0.0
 10
64.5456984295016
 20
-37.32216202544594
 30
0.0
 10
64.54618074286952
 20
-37.99230630560609
 30
0.0
 10
64.5462324193018
 20
-38.06247859427127
 30
0.0
 10
64.54923826511269
 20
-38.13499785423578
 30
0.0
 10
64.5666058527277
 20
-38.20237530918856
 30
0.0
 10
64.62177475055462
 20
-38.41632435156128
 30
0.0
 10
64.74456656638763
 20
-38.47951601549948
 30
0.0
 10
64.95977306861248
 20
-38.39930988623351
 30
0.0
 10
65.05730372179991
 20
-38.36295982249476
 30
0.0
 10
65.14988205022728
 20
-38.30964266349116
 30
0.0
 10
65.23860187171118
 20
-38.25424122171899
 30
0.0
 10
65.34813006992599
 20
-38.18584746359807
 30
0.0
 10
65.45222793638216
 20
-38.10853521453971
 30
0.0
 10
65.5569846773499
 20
-38.03274311386421
 30
0.0
 10
65.6840914752782
 20
-37.94078490262418
 30
0.0
 10
65.80931638979767
 20
-37.85876579185909
 30
0.0
 10
65.97611930045475
 20
-37.94547023248412
 30
0.0
 10
66.13411137940831
 20
-38.02760130885248
 30
0.0
 10
66.11956446372184
 20
-38.17229531923297
 30
0.0
 10
66.12313875028779
 20
-38.31273033031982
 30
0.0
 10
66.12343588977338
 20
-38.32448671866323
 30
0.0
 10
66.12331531143141
 20
-38.33624741337601
 30
0.0
 10
66.12333684327819
 20
-38.34800810808878
 30
0.0
 10
66.12483545981428
 20
-39.05355074435988
 30
0.0
 10
66.12675610054729
 20
-39.75909338063097
 30
0.0
 10
66.12724702665395
 20
-40.46463601690207
 30
0.0
 10
66.12730731582494
 20
-40.54666804677522
 30
0.0
 10
66.13134238391204
 20
-40.63148629762207
 30
0.0
 10
66.11287236574174
 20
-40.71016797213582
 30
0.0
 10
66.07314610842745
 20
-40.87943843243421
 30
0.0
 10
65.96065082172597
 20
-40.95759472988646
 30
0.0
 10
65.80045818803121
 20
-40.88903732972999
 30
0.0
 10
65.53258048220626
 20
-40.77441039019702
 30
0.0
 10
65.27553329531305
 20
-40.63263179187091
 30
0.0
 10
65.02086753067404
 20
-40.48989717954766
 30
0.0
 10
64.92117077370025
 20
-40.43401342440755
 30
0.0
 10
64.82915227328923
 20
-40.29958149220375
 30
0.0
 10
64.71699288339756
 20
-40.39706046895889
 30
0.0
 10
64.63111957205836
 20
-40.47169846264682
 30
0.0
 10
64.55528010131994
 20
-40.60912332155345
 30
0.0
 10
64.55293313002062
 20
-40.7202621019076
 30
0.0
 10
64.53830869968573
 20
-41.41373398487226
 30
0.0
 10
64.53823549140667
 20
-42.10778292133069
 30
0.0
 10
64.54880332180767
 20
-42.80140552722282
 30
0.0
 10
64.55405709242268
 20
-43.14633709994475
 30
0.0
 10
64.69086183414195
 20
-43.21965734460958
 30
0.0
 10
64.99767342531959
 20
-43.06125185419779
 30
0.0
 10
65.14346125351664
 20
-42.98597651784508
 30
0.0
 10
65.27657543669734
 20
-42.8865381430327
 30
0.0
 10
65.41945646557872
 20
-42.80510039213075
 30
0.0
 10
65.5104586628216
 20
-42.75323878596966
 30
0.0
 10
65.6049877765675
 20
-42.70094654287293
 30
0.0
 10
65.70466730806384
 20
-42.67224459111145
 30
0.0
 10
65.94788674295313
 20
-42.6022273317431
 30
0.0
 10
66.09087112469906
 20
-42.70241932119288
 30
0.0
 10
66.1163863631367
 20
-42.95095281586816
 30
0.0
 10
66.12476225153521
 20
-43.03255420880566
 30
0.0
 10
66.1207874726191
 20
-43.1154302870727
 30
0.0
 10
66.12233776558746
 20
-43.19772069910725
 30
0.0
 10
66.13408123482281
 20
-43.82061118831784
 30
0.0
 10
66.15160815810402
 20
-44.44348014568165
 30
0.0
 10
66.15389484023236
 20
-45.06640508584711
 30
0.0
 10
66.15456663385199
 20
-45.24887026185401
 30
0.0
 10
66.11187328805101
 20
-45.4314947735271
 30
0.0
 10
66.08930791262263
 20
-45.61201777695419
 30
0.0
 10
65.76089126638312
 20
-45.68719837318106
 30
0.0
 10
65.49548541656882
 20
-45.67199688935239
 30
0.0
 10
65.26602052540441
 20
-45.45378023494731
 30
0.0
 10
65.20735916202932
 20
-45.39799552630241
 30
0.0
 10
65.13395709634671
 20
-45.35444090663014
 30
0.0
 10
65.06116222874338
 20
-45.31737167920884
 30
0.0
 10
64.77854812698026
 20
-45.17345712168189
 30
0.0
 10
64.58820660142021
 20
-45.27851961487394
 30
0.0
 10
64.54716690145217
 20
-45.59763880967263
 30
0.0
 10
64.54269689006007
 20
-45.63241704859623
 30
0.0
 10
64.54450125882046
 20
-45.66811685056213
 30
0.0
 10
64.54480270467543
 20
-45.70337740285366
 30
0.0
 10
64.55012537720013
 20
-46.32656503154986
 30
0.0
 10
64.55123642049414
 20
-46.94983878763319
 30
0.0
 10
64.56284639227942
 20
-47.57291445072612
 30
0.0
 10
64.56960739216923
 20
-47.93577343907942
 30
0.0
 10
64.69714052066382
 20
-48.01265935757148
 30
0.0
 10
65.02741321209601
 20
-47.85945596134243
 30
0.0
 10
65.13251446261226
 20
-47.81069924748742
 30
0.0
 10
65.22403773054728
 20
-47.73302956977246
 30
0.0
 10
65.3229076646046
 20
-47.67038481474255
 30
0.0
 10
65.44181513527799
 20
-47.5950534955882
 30
0.0
 10
65.55499944107651
 20
-47.50531737093616
 30
0.0
 10
65.6830105765697
 20
-47.45086763679179
 30
0.0
 10
65.93079906934629
 20
-47.34546494042057
 30
0.0
 10
66.0950526093443
 20
-47.44530380758312
 30
0.0
 10
66.12453401395931
 20
-47.71705724582897
 30
0.0
 10
66.15491544976986
 20
-47.99706168776201
 30
0.0
 10
66.17925504937315
 20
-48.27879729017639
 30
0.0
 10
66.18471121934792
 20
-48.56018838304223
 30
0.0
 10
66.19359956569986
 20
-49.01859709467894
 30
0.0
 10
66.18642084798247
 20
-49.47735031586416
 30
0.0
 10
66.18320829644247
 20
-49.93593989501384
 30
0.0
 10
66.18139962131272
 20
-50.19438234557856
 30
0.0
 10
66.17886747613106
 20
-50.19436512010114
 30
0.0
 10
65.95750286572632
 20
-50.43955687215573
 30
0.0
 10
65.68060331609938
 20
-50.39365097481478
 30
0.0
 10
65.44560043394241
 20
-50.24953832429742
 30
0.0
 10
65.22242284203857
 20
-50.07343796219952
 30
0.0
 10
65.09746061604984
 20
-49.9748264103036
 30
0.0
 10
64.97153376332525
 20
-49.82022344403365
 30
0.0
 10
64.79116148282564
 20
-49.90406414903656
 30
0.0
 10
64.60492392726239
 20
-49.99062217310346
 30
0.0
 10
64.59926535792788
 20
-50.18664810621419
 30
0.0
 10
64.60333057060046
 20
-50.36504806954849
 30
0.0
 10
64.61861818181626
 20
-51.03505023951989
 30
0.0
 10
64.63719585922047
 20
-51.70500073305898
 30
0.0
 10
64.65937366140676
 20
-52.37480481003998
 30
0.0
 10
64.66263358300968
 20
-52.47336037913426
 30
0.0
 10
64.69197718380531
 20
-52.57105036798787
 30
0.0
 10
64.71830632605132
 20
-52.72054598020094
 30
0.0
 10
64.88029902213712
 20
-52.64950380492573
 30
0.0
 10
64.99633845081906
 20
-52.60417065470919
 30
0.0
 10
65.10733081461509
 20
-52.54873045561281
 30
0.0
 10
65.30701716167889
 20
-52.44898202220676
 30
0.0
 10
65.49813814009247
 20
-52.33007024516401
 30
0.0
 10
65.70304811318577
 20
-52.24327106441314
 30
0.0
 10
65.94660344488487
 20
-52.14010337373797
 30
0.0
 10
66.11581792238164
 20
-52.2371387944494
 30
0.0
 10
66.17211078261061
 20
-52.49692052588401
 30
0.0
 10
66.19173060139911
 20
-52.58746194160573
 30
0.0
 10
66.1882424422203
 20
-52.68382987506688
 30
0.0
 10
66.18864724093981
 20
-52.77757092322054
 30
0.0
 10
66.19016308295332
 20
-53.13033578180204
 30
0.0
 10
66.18531411105784
 20
-53.48315662318519
 30
0.0
 10
66.18974105875638
 20
-53.83586980533443
 30
0.0
 10
66.1942885847969
 20
-54.19780292427606
 30
0.0
 10
66.0671344168057
 20
-54.49415434428662
 30
0.0
 10
65.79543696136146
 20
-54.73816615113751
 30
0.0
 10
65.50689298899436
 20
-54.99729762079928
 30
0.0
 10
65.23616016028601
 20
-55.27620824491575
 30
0.0
 10
64.94909757897757
 20
-55.53707087505888
 30
0.0
 10
64.75239123950851
 20
-55.71582396068041
 30
0.0
 10
64.65861143403066
 20
-55.93640911823161
 30
0.0
 10
64.6569018053961
 20
-56.192504597497
 30
0.0
 10
64.654473013079
 20
-56.55686220238639
 30
0.0
 10
64.66347763140356
 20
-56.921572929563
 30
0.0
 10
64.67855853689025
 20
-57.2856807650297
 30
0.0
 10
64.68964743798339
 20
-57.55343789251267
 30
0.0
 10
64.8052433106216
 20
-57.60756895532466
 30
0.0
 10
65.04127541505479
 20
-57.46872730089974
 30
0.0
 10
65.23371414249147
 20
-57.35552576962379
 30
0.0
 10
65.4201928547387
 20
-57.23085637675131
 30
0.0
 10
65.61864327379716
 20
-57.12953181216075
 30
0.0
 10
65.87763693963953
 20
-56.9972961283288
 30
0.0
 10
66.14828364096076
 20
-57.13354104203172
 30
0.0
 10
66.14893390273358
 20
-57.42099550295161
 30
0.0
 10
66.15086746257469
 20
-58.27700699091034
 30
0.0
 10
66.12563644451459
 20
-59.13308738077879
 30
0.0
 10
66.11128762181853
 20
-59.97329449319895
 30
0.0
 10
65.9039014863452
 20
-60.15160402277676
 30
0.0
 10
65.70938278250928
 20
-60.13295313709349
 30
0.0
 10
65.51170320356565
 20
-60.00971345884739
 30
0.0
 10
65.34397872986625
 20
-59.90515050450071
 30
0.0
 10
65.17203832056679
 20
-59.80642268063216
 30
0.0
 10
65.01096288115395
 20
-59.69239432643974
 30
0.0
 10
64.82204676385091
 20
-59.55865141333299
 30
0.0
 10
64.68015189355218
 20
-59.59876524388937
 30
0.0
 10
64.62202021360794
 20
-59.82637408986111
 30
0.0
 10
64.59324935993675
 20
-59.93902009949007
 30
0.0
 10
64.57429272202917
 20
-60.05804384213609
 30
0.0
 10
64.57567937296197
 20
-60.17388087145826
 30
0.0
 10
64.58341361232637
 20
-60.82036165200411
 30
0.0
 10
64.59826628023714
 20
-61.46676061153218
 30
0.0
 10
64.61224044879919
 20
-62.11315526469089
 30
0.0
 10
64.61347207043516
 20
-62.17021465866534
 30
0.0
 10
64.62587441418206
 20
-62.22703720232518
 30
0.0
 10
64.63346223698834
 20
-62.28689143001204
 30
0.0
 10
64.82491480584238
 20
-62.40421846313157
 30
0.0
 10
64.98189058162778
 20
-62.29813536040202
 30
0.0
 10
65.13462027722763
 20
-62.22489263038561
 30
0.0
 10
65.29313342687332
 20
-62.1488636793955
 30
0.0
 10
65.43900307608815
 20
-62.04693191672568
 30
0.0
 10
65.59508743341677
 20
-61.96528746009461
 30
0.0
 10
65.9226083548301
 20
-61.79396286161313
 30
0.0
 10
66.20204004963873
 20
-61.94591310435943
 30
0.0
 10
66.1858524072274
 20
-62.31142912260573
 30
0.0
 10
66.1541489160244
 20
-63.02744484915199
 30
0.0
 10
66.17470752333261
 20
-63.74565251770073
 30
0.0
 10
66.15425226888895
 20
-64.46240463340696
 30
0.0
 10
66.15027748997284
 20
-64.6016209419659
 30
0.0
 10
66.09613781442213
 20
-64.80440787496643
 30
0.0
 10
65.99780187016503
 20
-64.861118453023
 30
0.0
 10
65.83910785300637
 20
-64.95264172095801
 30
0.0
 10
65.63421941175985
 20
-64.90074135747272
 30
0.0
 10
65.47301047489693
 20
-64.77471115188357
 30
0.0
 10
65.31557391759037
 20
-64.65163511567303
 30
0.0
 10
65.16061782903318
 20
-64.52436467570918
 30
0.0
 10
64.99534367949769
 20
-64.41258424632088
 30
0.0
 10
64.79051552742216
 20
-64.27406126322836
 30
0.0
 10
64.6758369114569
 20
-64.31198315178225
 30
0.0
 10
64.59857633883082
 20
-64.54213275567436
 30
0.0
 10
64.5658220935048
 20
-64.63969355344727
 30
0.0
 10
64.55046988674865
 20
-64.74849397524081
 30
0.0
 10
64.55285992174156
 20
-64.85158845763692
 30
0.0
 10
64.56838868964132
 20
-65.52154325754539
 30
0.0
 10
64.58808171670887
 20
-66.19144207465222
 30
0.0
 10
64.61264524751872
 20
-66.86112987966058
 30
0.0
 10
64.62309249957773
 20
-67.14595745527296
 30
0.0
 10
64.72890860740718
 20
-67.2193466018475
 30
0.0
 10
64.99812990047138
 20
-67.12464523332734
 30
0.0
 10
65.11772208387248
 20
-67.0825849238218
 30
0.0
 10
65.22616077064006
 20
-67.00685311231729
 30
0.0
 10
65.33657177457297
 20
-66.94120681784585
 30
0.0
 10
65.44759428295449
 20
-66.87519017560976
 30
0.0
 10
65.54942269275978
 20
-66.79176288206507
 30
0.0
 10
65.66477310234465
 20
-66.73538389444896
 30
0.0
 10
65.88851052226485
 20
-66.62602795100842
 30
0.0
 10
66.01858440867982
 20
-66.66416946439949
 30
0.0
 10
66.12098987197886
 20
-66.88885859194748
 30
0.0
 10
66.18209294677912
 20
-67.02292017638662
 30
0.0
 10
66.22758112629249
 20
-67.17832843372625
 30
0.0
 10
66.22687488171802
 20
-67.3238794116087
 30
0.0
 10
66.22367094291674
 20
-67.98203906584953
 30
0.0
 10
66.20309080376173
 20
-68.64014704365811
 30
0.0
 10
66.1854260766611
 20
-69.29818611955695
 30
0.0
 10
66.17734732774819
 20
-69.59922286942745
 30
0.0
 10
66.0330408906098
 20
-69.71024537780897
 30
0.0
 10
65.73048829872579
 20
-69.6271238364886
 30
0.0
 10
65.52857986507401
 20
-69.57164918643738
 30
0.0
 10
65.33586122362914
 20
-69.48200349554181
 30
0.0
 10
65.14030037840893
 20
-69.40442855795271
 30
0.0
 10
65.05330310466766
 20
-69.36992592666793
 30
0.0
 10
64.97274385311445
 20
-69.31535130781222
 30
0.0
 10
64.88349434819969
 20
-69.29114089928963
 30
0.0
 10
64.69755823849141
 20
-69.24070900775491
 30
0.0
 10
64.6197636760651
 20
-69.29763059790996
 30
0.0
 10
64.61182703734095
 20
-69.49349719535447
 30
0.0
 10
64.60373967568934
 20
-69.69301990038272
 30
0.0
 10
64.61267108573484
 20
-69.8932143990306
 30
0.0
 10
64.61322660738185
 20
-70.09311175819286
 30
0.0
 10
64.61458742009852
 20
-70.58699203421956
 30
0.0
 10
64.61064709213727
 20
-71.08094551852532
 30
0.0
 10
64.61800667736763
 20
-71.57473105442619
 30
0.0
 10
64.62370400402637
 20
-71.95676199915491
 30
0.0
 10
64.80124699985871
 20
-72.05643291791253
 30
0.0
 10
65.1363471313396
 20
-71.86687515157537
 30
0.0
 10
65.2995111598904
 20
-71.77457243078682
 30
0.0
 10
65.44540234095201
 20
-71.65146194362141
 30
0.0
 10
65.60943625611283
 20
-71.56102818713361
 30
0.0
 10
65.88881627448916
 20
-71.40701949983487
 30
0.0
 10
66.08558720949857
 20
-71.48920655900487
 30
0.0
 10
66.1780105086291
 20
-71.79031221078506
 30
0.0
 10
66.20872784124945
 20
-71.89039223463156
 30
0.0
 10
66.23825661592741
 20
-71.99715143735009
 30
0.0
 10
66.23581490450224
 20
-72.10008658408
 30
0.0
 10
66.21829228759039
 20
-72.83953326629532
 30
0.0
 10
66.19240239501873
 20
-73.57878185552023
 30
0.0
 10
66.16945805908698
 20
-74.30891816718665
 30
0.0
 10
65.96923341585361
 20
-74.4929551680087
 30
0.0
 10
65.75940987532447
 20
-74.49324800112494
 30
0.0
 10
65.5409434514967
 20
-74.38440020926847
 30
0.0
 10
65.36224634867679
 20
-74.29537894192963
 30
0.0
 10
65.18981501327068
 20
-74.19333521365652
 30
0.0
 10
65.00902501494349
 20
-74.10904233987117
 30
0.0
 10
64.81400246589285
 20
-74.01811765727671
 30
0.0
 10
64.73177234302929
 20
-74.06565997497316
 30
0.0
 10
64.68739090044056
 20
-74.27750750909989
 30
0.0
 10
64.68020356998446
 20
-74.31181204739427
 30
0.0
 10
64.67768434391087
 20
-74.34742572197304
 30
0.0
 10
64.67622879106835
 20
-74.38255708318386
 30
0.0
 10
64.65047670231611
 20
-75.00446572018117
 30
0.0
 10
64.6190703505987
 20
-75.62623655335906
 30
0.0
 10
64.60164247381269
 20
-76.24838634704032
 30
0.0
 10
64.58498113077215
 20
-76.84333711186555
 30
0.0
 10
64.71283723696848
 20
-76.94124672555635
 30
0.0
 10
65.24429489200056
 20
-76.64232440303994
 30
0.0
 10
65.43858105189122
 20
-76.53304597424781
 30
0.0
 10
65.64538152113205
 20
-76.44622095528079
 30
0.0
 10
65.84438746183751
 20
-76.34506433909514
 30
0.0
 10
65.99958901344802
 20
-76.26618026522165
 30
0.0
 10
66.08977300051314
 20
-76.32587515724231
 30
0.0
 10
66.13980009332833
 20
-76.47525449748274
 30
0.0
 10
66.15832609430026
 20
-76.53058273097585
 30
0.0
 10
66.17745068061275
 20
-76.58916657970253
 30
0.0
 10
66.1781009423856
 20
-76.64647574309966
 30
0.0
 10
66.18326427924412
 20
-77.10305424775981
 30
0.0
 10
66.18744145751998
 20
-77.5597188798071
 30
0.0
 10
66.18291115695687
 20
-78.01626293351242
 30
0.0
 10
66.1821446232114
 20
-78.09351919976915
 30
0.0
 10
66.16010893121387
 20
-78.19111875486628
 30
0.0
 10
66.11030146323587
 20
-78.24374258840347
 30
0.0
 10
65.90071046665198
 20
-78.46515887524048
 30
0.0
 10
65.68361777464897
 20
-78.68093381822038
 30
0.0
 10
65.45272316885817
 20
-78.87954357294503
 30
0.0
 10
65.40478897155027
 20
-78.92076414042605
 30
0.0
 10
65.26645977507879
 20
-78.91101452020279
 30
0.0
 10
65.20424565698452
 20
-78.87108586352875
 30
0.0
 10
65.03735231257095
 20
-78.76398645763105
 30
0.0
 10
64.87889083935752
 20
-78.63833521254527
 30
0.0
 10
64.73645767288923
 20
-78.50009214346091
 30
0.0
 10
64.60323152410527
 20
-78.37078909716076
 30
0.0
 10
64.46283527034262
 20
-78.28274106929649
 30
0.0
 10
64.27459094665922
 20
-78.27774568084288
 30
0.0
 10
63.87544218373816
 20
-78.26715201222573
 30
0.0
 10
63.47635370998811
 20
-78.24611109154957
 30
0.0
 10
63.0772221725445
 20
-78.24580103295591
 30
0.0
 10
62.79044811798294
 20
-78.24557710174936
 30
0.0
 10
62.51641661034746
 20
-78.50053139313527
 30
0.0
 10
62.70100913281649
 20
-78.82131284650561
 30
0.0
 10
62.78255884932171
 20
-78.96303546203006
 30
0.0
 10
62.84648690241988
 20
-79.11532590795554
 30
0.0
 10
62.91225808160266
 20
-79.26551484563501
 30
0.0
 10
62.95419350639686
 20
-79.36127988738623
 30
0.0
 10
62.99592653183131
 20
-79.45961152527399
 30
0.0
 10
63.01763063338839
 20
-79.56108681279201
 30
0.0
 10
63.04258604380966
 20
-79.67778942235485
 30
0.0
 10
62.99947498018112
 20
-79.76965289346904
 30
0.0
 10
62.86856135174162
 20
-79.79711891722519
 30
0.0
 10
62.78801932566583
 20
-79.81399988510291
 30
0.0
 10
62.70821799511939
 20
-79.84168984006561
 30
0.0
 10
62.62696972446912
 20
-79.84682303233864
 30
0.0
 10
61.93628836884752
 20
-79.89048100487547
 30
0.0
 10
61.24578357436954
 20
-79.9695803972168
 30
0.0
 10
60.55329354361818
 20
-79.87458188921102
 30
0.0
 10
60.34182496999483
 20
-79.84556557248652
 30
0.0
 10
60.26599841836448
 20
-79.74477930406553
 30
0.0
 10
60.32785510780215
 20
-79.53426674443935
 30
0.0
 10
60.37384282616088
 20
-79.37776466928315
 30
0.0
 10
60.45386808791388
 20
-79.23109834173736
 30
0.0
 10
60.52098716070525
 20
-79.0810472078773
 30
0.0
 10
60.57369712162957
 20
-78.96322494228176
 30
0.0
 10
60.65088448597659
 20
-78.85201726001788
 30
0.0
 10
60.68060274090623
 20
-78.72903596393318
 30
0.0
 10
60.77255664577691
 20
-78.34849071663248
 30
0.0
 10
60.63611794545295
 20
-78.27517047196765
 30
0.0
 10
60.35578621944881
 20
-78.28254297630609
 30
0.0
 10
59.7447640841849
 20
-78.29860573400607
 30
0.0
 10
59.13303570434651
 20
-78.28554882211697
 30
0.0
 10
58.52172073596635
 20
-78.29392040414614
 30
0.0
 10
58.37079110275755
 20
-78.29598746143727
 30
0.0
 10
58.21556801930027
 20
-78.31807052349773
 30
0.0
 10
58.07083094522621
 20
-78.36019542854362
 30
0.0
 10
57.86063275056305
 20
-78.42137171162296
 30
0.0
 10
57.79334572936676
 20
-78.56594514366147
 30
0.0
 10
57.88221627377814
 20
-78.77035127154005
 30
0.0
 10
57.97099638443302
 20
-78.97456791916694
 30
0.0
 10
58.08607549274844
 20
-79.16742436443122
 30
0.0
 10
58.19057385155478
 20
-79.36475082108763
 30
0.0
 10
58.37051549511873
 20
-79.7045319760591
 30
0.0
 10
58.26867847257475
 20
-79.87753605858964
 30
0.0
 10
57.88529963423744
 20
-79.94418143075179
 30
0.0
 10
57.44906441841767
 20
-80.02000798238213
 30
0.0
 10
57.01952130057801
 20
-79.94501686640697
 30
0.0
 10
56.58744603755669
 20
-79.92590519920255
 30
0.0
 10
56.32961939780995
 20
-79.91449332040765
 30
0.0
 10
56.07114249629037
 20
-79.89796547481716
 30
0.0
 10
55.81537860746542
 20
-79.86496146006847
 30
0.0
 10
55.49890352345165
 20
-79.82411124035213
 30
0.0
 10
55.4373439734996
 20
-79.70105242961899
 30
0.0
 10
55.57609519416804
 20
-79.40840018088573
 30
0.0
 10
55.67171381936114
 20
-79.20672429117921
 30
0.0
 10
55.78507037993393
 20
-79.01341998350185
 30
0.0
 10
55.87987079494929
 20
-78.81139097150809
 30
0.0
 10
55.99090191606954
 20
-78.57476458810371
 30
0.0
 10
55.88626575344379
 20
-78.37834246901218
 30
0.0
 10
55.62355999721606
 20
-78.37357101176511
 30
0.0
 10
54.85948518865058
 20
-78.35969588969826
 30
0.0
 10
54.09497974314943
 20
-78.35882600308824
 30
0.0
 10
53.33080588808873
 20
-78.36722342333354
 30
0.0
 10
53.09933422880416
 20
-78.36976418125392
 30
0.0
 10
53.04822193091112
 20
-78.46459043448541
 30
0.0
 10
53.12928502767904
 20
-78.69641952242658
 30
0.0
 10
53.18323952934742
 20
-78.85072534921092
 30
0.0
 10
53.26484522865428
 20
-78.99535045768171
 30
0.0
 10
53.33404858421423
 20
-79.14432499920263
 30
0.0
 10
53.38349001079691
 20
-79.25076122421941
 30
0.0
 10
53.43927041307247
 20
-79.35477726965783
 30
0.0
 10
53.48111109774083
 20
-79.46412460035965
 30
0.0
 10
53.6097466567907
 20
-79.8003400815039
 30
0.0
 10
53.55425478126203
 20
-79.89684581878447
 30
0.0
 10
53.19231304958169
 20
-79.97233647360499
 30
0.0
 10
53.11233946426098
 20
-79.9890107357536
 30
0.0
 10
53.0296743980924
 20
-80.00184371643618
 30
0.0
 10
52.94832708094694
 20
-80.0014044667618
 30
0.0
 10
52.31341751486218
 20
-79.99796798401526
 30
0.0
 10
51.67850794877741
 20
-79.99185293952894
 30
0.0
 10
51.04363283364751
 20
-79.98417037659684
 30
0.0
 10
50.8781605911216
 20
-79.98217222121539
 30
0.0
 10
50.69479538391918
 20
-79.98816668735972
 30
0.0
 10
50.62227612395467
 20
-79.79932377833574
 30
0.0
 10
50.55038559391622
 20
-79.61210006418984
 30
0.0
 10
50.5935224957609
 20
-79.43790742371691
 30
0.0
 10
50.72577109870093
 20
-79.27524724038083
 30
0.0
 10
50.84325746748667
 20
-79.13074271025203
 30
0.0
 10
50.94954296957598
 20
-78.97163958800447
 30
0.0
 10
51.0305371644342
 20
-78.80433713850203
 30
0.0
 10
51.13093585961309
 20
-78.59695100302871
 30
0.0
 10
51.07298504718183
 20
-78.47206629168841
 30
0.0
 10
50.85494495392037
 20
-78.39527511332218
 30
0.0
 10
50.74677326205288
 20
-78.35717235725532
 30
0.0
 10
50.62549728823338
 20
-78.34020526199046
 30
0.0
 10
50.51028898883727
 20
-78.34080815370038
 30
0.0
 10
49.88720040663626
 20
-78.34408099441137
 30
0.0
 10
49.26413335628205
 20
-78.35416651144443
 30
0.0
 10
48.64111798236011
 20
-78.36538029724893
 30
0.0
 10
48.33181300332503
 20
-78.37093551371889
 30
0.0
 10
48.28548508178712
 20
-78.43662487188389
 30
0.0
 10
48.38395882986365
 20
-78.72581479965447
 30
0.0
 10
48.47087428258713
 20
-78.98106192415664
 30
0.0
 10
48.56469284538921
 20
-79.23394915825141
 30
0.0
 10
48.65467012672521
 20
-79.48816275410798
 30
0.0
 10
48.7447206163403
 20
-79.74258305569368
 30
0.0
 10
48.67298511559868
 20
-79.89121308766607
 30
0.0
 10
48.40648975433717
 20
-79.96218205466222
 30
0.0
 10
48.28350845825247
 20
-79.99493629998823
 30
0.0
 10
48.15093257124134
 20
-80.00783818258049
 30
0.0
 10
48.02337360453061
 20
-80.00449643995981
 30
0.0
 10
47.38902817283156
 20
-79.98785662876605
 30
0.0
 10
46.75479901310513
 20
-79.96530847881508
 30
0.0
 10
46.1207593336304
 20
-79.93928939516274
 30
0.0
 10
45.91545317455628
 20
-79.93085752396258
 30
0.0
 10
45.83719352423948
 20
-79.84962217242039
 30
0.0
 10
45.87206219691956
 20
-79.65023727121156
 30
0.0
 10
45.90187519197505
 20
-79.47979117207883
 30
0.0
 10
45.96908469852292
 20
-79.31403040280604
 30
0.0
 10
46.03504105158802
 20
-79.15243819907039
 30
0.0
 10
46.07447878215542
 20
-79.05582910892526
 30
0.0
 10
46.14766983573955
 20
-78.97358606695364
 30
0.0
 10
46.19816201644524
 20
-78.88079242005844
 30
0.0
 10
46.36437495450048
 20
-78.5752899651652
 30
0.0
 10
46.26021679887331
 20
-78.36407116096452
 30
0.0
 10
45.90952761032165
 20
-78.35864513557526
 30
0.0
 10
45.19253433793146
 20
-78.34755192811276
 30
0.0
 10
44.4751405731911
 20
-78.36369220046115
 30
0.0
 10
43.75790183774759
 20
-78.36736122715294
 30
0.0
 10
43.57883008079365
 20
-78.36828279019525
 30
0.0
 10
43.48738863387641
 20
-78.46119701543243
 30
0.0
 10
43.51730498179644
 20
-78.63216849162667
 30
0.0
 10
43.55109275576803
 20
-78.82521441714264
 30
0.0
 10
43.60735547141152
 20
-79.01537507518972
 30
0.0
 10
43.66827767869881
 20
-79.20209063775155
 30
0.0
 10
43.6928756604635
 20
-79.27746932696883
 30
0.0
 10
43.75873727340276
 20
-79.33857670813845
 30
0.0
 10
43.80063394087275
 20
-79.40925284201835
 30
0.0
 10
43.99459712306168
 20
-79.73648523668479
 30
0.0
 10
43.90420212389808
 20
-79.89143701887262
 30
0.0
 10
43.52300230845518
 20
-79.95193289559361
 30
0.0
 10
43.08716327861622
 20
-80.02109318745999
 30
0.0
 10
42.65549281431442
 20
-79.9933343305876
 30
0.0
 10
42.22444677356931
 20
-79.93776494041052
 30
0.0
 10
42.1168133778714
 20
-79.92389843108239
 30
0.0
 10
41.99980501608425
 20
-79.8635317454421
 30
0.0
 10
41.91782896901272
 20
-79.79018566256113
 30
0.0
 10
41.53302472241839
 20
-79.44588281976526
 30
0.0
 10
41.1323730365919
 20
-79.11338804174508
 30
0.0
 10
40.78921999441424
 20
-78.73024174735302
 30
0.0
 10
40.50179137171048
 20
-78.40931387742458
 30
0.0
 10
40.19348977673547
 20
-78.26927074594917
 30
0.0
 10
39.76916167218661
 20
-78.31770878847177
 30
0.0
 10
39.490225209854
 20
-78.34955869623292
 30
0.0
 10
39.2053201195932
 20
-78.32667464947213
 30
0.0
 10
38.92328307132387
 20
-78.33502900602387
 30
0.0
 10
38.81187298970024
 20
-78.33831045947357
 30
0.0
 10
38.70100551061554
 20
-78.35982508077896
 30
0.0
 10
38.56196576320022
 20
-78.37636153910816
 30
0.0
  0
ENDSEC
  0
SECTION
  2
OBJECTS
  0
DICTIONARY
  5
C
330
0
100
AcDbDictionary
281
     1
  3
ACAD_COLOR
350
63
  3
ACAD_DETAILVIEWSTYLE
350
6A
  3
ACAD_GROUP
350
D
  3
ACAD_LAYOUT
350
62
  3
ACAD_MATERIAL
350
10
  3
ACAD_MLEADERSTYLE
350
66
  3
ACAD_MLINESTYLE
350
5F
  3
ACAD_PLOTSETTINGS
350
61
  3
ACAD_PLOTSTYLENAME
350
E
  3
ACAD_SCALELIST
350
42
  3
ACAD_SECTIONVIEWSTYLE
350
68
  3
ACAD_TABLESTYLE
350
64
  3
ACAD_VISUALSTYLE
350
29
  3
ACDB_RECOMPOSE_DATA
350
82
  3
AcDbVariableDictionary
350
7A
  0
DICTIONARY
  5
63
102
{ACAD_REACTORS
330
C
102
}
330
C
100
AcDbDictionary
281
     1
  0
DICTIONARY
  5
6A
102
{ACAD_REACTORS
330
C
102
}
330
C
100
AcDbDictionary
281
     1
  3
Imperial24
350
6B
  0
DICTIONARY
  5
D
102
{ACAD_REACTORS
330
C
102
}
330
C
100
AcDbDictionary
281
     1
  0
DICTIONARY
  5
62
102
{ACAD_REACTORS
330
C
102
}
330
C
100
AcDbDictionary
281
     1
  3
Layout1
350
6F
  3
Layout2
350
77
  3
Model
350
73
  0
DICTIONARY
  5
10
102
{ACAD_REACTORS
330
C
102
}
330
C
100
AcDbDictionary
281
     1
  3
ByBlock
350
19
  3
ByLayer
350
11
  3
Global
350
21
  0
DICTIONARY
  5
66
102
{ACAD_REACTORS
330
C
102
}
330
C
100
AcDbDictionary
281
     1
  3
Standard
350
67
  0
DICTIONARY
  5
5F
102
{ACAD_REACTORS
330
C
102
}
330
C
100
AcDbDictionary
281
     1
  3
Standard
350
60
  0
DICTIONARY
  5
61
102
{ACAD_REACTORS
330
C
102
}
330
C
100
AcDbDictionary
281
     1
  0
ACDBDICTIONARYWDFLT
  5
E
102
{ACAD_REACTORS
330
C
102
}
330
C
100
AcDbDictionary
281
     1
  3
Normal
350
F
100
AcDbDictionaryWithDefault
340
F
  0
DICTIONARY
  5
42
102
{ACAD_REACTORS
330
C
102
}
330
C
100
AcDbDictionary
281
     1
  3
A0
350
43
  3
A1
350
44
  3
A2
350
45
  3
A3
350
46
  3
A4
350
47
  3
A5
350
48
  3
A6
350
49
  3
A7
350
4A
  3
A8
350
4B
  3
A9
350
4C
  3
B0
350
4D
  3
B1
350
4E
  3
B2
350
4F
  3
B3
350
50
  3
B4
350
51
  3
B5
350
52
  3
B6
350
53
  0
DICTIONARY
  5
68
102
{ACAD_REACTORS
330
C
102
}
330
C
100
AcDbDictionary
281
     1
  3
Imperial24
350
69
  0
DICTIONARY
  5
64
102
{ACAD_REACTORS
330
C
102
}
330
C
100
AcDbDictionary
281
     1
  3
Standard
350
65
  0
DICTIONARY
  5
29
102
{ACAD_REACTORS
330
C
102
}
330
C
100
AcDbDictionary
281
     1
  3
2dWireframe
350
2F
  3
Basic
350
2E
  3
Brighten
350
35
  3
ColorChange
350
39
  3
Conceptual
350
32
  3
Dim
350
34
  3
EdgeColorOff
350
41
  3
Facepattern
350
38
  3
Flat
350
2A
  3
FlatWithEdges
350
2B
  3
Gouraud
350
2C
  3
GouraudWithEdges
350
2D
  3
Hidden
350
31
  3
JitterOff
350
3F
  3
Linepattern
350
37
  3
OverhangOff
350
40
  3
Realistic
350
33
  3
Shaded
350
3E
  3
Shaded with edges
350
3D
  3
Shades of Gray
350
3A
  3
Sketchy
350
3B
  3
Thicken
350
36
  3
Wireframe
350
30
  3
X-Ray
350
3C
  0
XRECORD
  5
82
102
{ACAD_REACTORS
330
C
102
}
330
C
100
AcDbXrecord
280
     1
 90
        1
330
65
  0
DICTIONARY
  5
7A
102
{ACAD_REACTORS
330
C
102
}
330
C
100
AcDbDictionary
281
     1
  3
CANNOSCALE
350
7F
  3
CMLEADERSTYLE
350
7C
  3
CTABLESTYLE
350
7B
  3
CVIEWDETAILSTYLE
350
7D
  3
CVIEWSECTIONSTYLE
350
7E
  0
ACDBDETAILVIEWSTYLE
  5
6B
102
{ACAD_REACTORS
330
6A
102
}
330
6A
100
AcDbModelDocViewStyle
 70
     0
  3
Imperial24
290
     1
300
Imperial24
 90
        0
100
AcDbDetailViewStyle
 70
     0
 71
     0
 90
        3
 71
     1
340
55
 62
   256
 40
0.24
340
0
 62
   256
 40
0.24
300

 40
0.36
280
     3
 71
     2
340
5D
 90
       25
 62
   256
 71
     3
340
55
 62
   256
 40
0.24
 90
        1
 40
0.75
 90
        1
300
%<\AcVar ViewType \f "%tc1">% %<\AcVar ViewDetailId>%\PSCALE %<\AcVar ViewScale \f "%sn">%
 71
     4
340
5D
 90
       25
 62
   256
340
5D
 90
       25
 62
   256
280
     0
  0
LAYOUT
  5
6F
102
{ACAD_REACTORS
330
62
102
}
330
62
100
AcDbPlotSettings
  1

  2

  4

  6

 40
0.0
 41
0.0
 42
0.0
 43
0.0
 44
0.0
 45
0.0
 46
0.0
 47
0.0
 48
0.0
 49
0.0
140
0.0
141
0.0
142
1.0
143
1.0
 70
   688
 72
     0
 73
     0
 74
     5
  7

 75
    16
147
1.0
 76
     0
 77
     2
 78
   300
148
0.0
149
0.0
100
AcDbLayout
  1
Layout1
 70
     1
 71
     1
 10
0.0
 20
0.0
 11
12.0
 21
9.0
 12
0.0
 22
0.0
 32
0.0
 14
0.0
 24
0.0
 34
0.0
 15
0.0
 25
0.0
 35
0.0
146
0.0
 13
0.0
 23
0.0
 33
0.0
 16
1.0
 26
0.0
 36
0.0
 17
0.0
 27
1.0
 37
0.0
 76
     0
330
6C
  0
LAYOUT
  5
77
102
{ACAD_REACTORS
330
62
102
}
330
62
100
AcDbPlotSettings
  1

  2

  4

  6

 40
0.0
 41
0.0
 42
0.0
 43
0.0
 44
0.0
 45
0.0
 46
0.0
 47
0.0
 48
0.0
 49
0.0
140
0.0
141
0.0
142
1.0
143
1.0
 70
   688
 72
     0
 73
     0
 74
     5
  7

 75
    16
147
1.0
 76
     0
 77
     2
 78
   300
148
0.0
149
0.0
100
AcDbLayout
  1
Layout2
 70
     1
 71
     2
 10
0.0
 20
0.0
 11
12.0
 21
9.0
 12
0.0
 22
0.0
 32
0.0
 14
0.0
 24
0.0
 34
0.0
 15
0.0
 25
0.0
 35
0.0
146
0.0
 13
0.0
 23
0.0
 33
0.0
 16
1.0
 26
0.0
 36
0.0
 17
0.0
 27
1.0
 37
0.0
 76
     0
330
74
  0
LAYOUT
  5
73
102
{ACAD_REACTORS
330
62
102
}
330
62
100
AcDbPlotSettings
  1

  2

  4

  6

 40
0.0
 41
0.0
 42
0.0
 43
0.0
 44
0.0
 45
0.0
 46
0.0
 47
0.0
 48
0.0
 49
0.0
140
0.0
141
0.0
142
1.0
143
1.0
 70
  1712
 72
     0
 73
     0
 74
     0
  7

 75
     0
147
1.0
 76
     0
 77
     2
 78
   300
148
0.0
149
0.0
100
AcDbLayout
  1
Model
 70
     1
 71
     0
 10
0.0
 20
0.0
 11
12.0
 21
9.0
 12
0.0
 22
0.0
 32
0.0
 14
0.0
 24
0.0
 34
0.0
 15
0.0
 25
0.0
 35
0.0
146
0.0
 13
0.0
 23
0.0
 33
0.0
 16
1.0
 26
0.0
 36
0.0
 17
0.0
 27
1.0
 37
0.0
 76
     0
330
70
  0
MATERIAL
  5
19
102
{ACAD_XDICTIONARY
360
1A
102
}
102
{ACAD_REACTORS
330
10
102
}
330
10
100
AcDbMaterial
  1
ByBlock
 72
     0
 43
0.0208333333333333
 43
0.0
 43
0.0
 43
0.0
 43
0.0
 43
0.0208333333333333
 43
0.0
 43
0.0
 43
0.0
 43
0.0
 43
1.0
 43
0.0
 43
0.0
 43
0.0
 43
0.0
 43
1.0
 77
     0
 47
0.0208333333333333
 47
0.0
 47
0.0
 47
0.0
 47
0.0
 47
0.0208333333333333
 47
0.0
 47
0.0
 47
0.0
 47
0.0
 47
1.0
 47
0.0
 47
0.0
 47
0.0
 47
0.0
 47
1.0
171
     0
 49
0.0208333333333333
 49
0.0
 49
0.0
 49
0.0
 49
0.0
 49
0.0208333333333333
 49
0.0
 49
0.0
 49
0.0
 49
0.0
 49
1.0
 49
0.0
 49
0.0
 49
0.0
 49
0.0
 49
1.0
175
     0
142
0.0208333333333333
142
0.0
142
0.0
142
0.0
142
0.0
142
0.0208333333333333
142
0.0
142
0.0
142
0.0
142
0.0
142
1.0
142
0.0
142
0.0
142
0.0
142
0.0
142
1.0
179
     0
144
0.0208333333333333
144
0.0
144
0.0
144
0.0
144
0.0
144
0.0208333333333333
144
0.0
144
0.0
144
0.0
144
0.0
144
1.0
144
0.0
144
0.0
144
0.0
144
0.0
144
1.0
147
0.0208333333333333
147
0.0
147
0.0
147
0.0
147
0.0
147
0.0208333333333333
147
0.0
147
0.0
147
0.0
147
0.0
147
1.0
147
0.0
147
0.0
147
0.0
147
0.0
147
1.0
  0
MATERIAL
  5
11
102
{ACAD_XDICTIONARY
360
12
102
}
102
{ACAD_REACTORS
330
10
102
}
330
10
100
AcDbMaterial
  1
ByLayer
 72
     0
 43
0.0208333333333333
 43
0.0
 43
0.0
 43
0.0
 43
0.0
 43
0.0208333333333333
 43
0.0
 43
0.0
 43
0.0
 43
0.0
 43
1.0
 43
0.0
 43
0.0
 43
0.0
 43
0.0
 43
1.0
 77
     0
 47
0.0208333333333333
 47
0.0
 47
0.0
 47
0.0
 47
0.0
 47
0.0208333333333333
 47
0.0
 47
0.0
 47
0.0
 47
0.0
 47
1.0
 47
0.0
 47
0.0
 47
0.0
 47
0.0
 47
1.0
171
     0
 49
0.0208333333333333
 49
0.0
 49
0.0
 49
0.0
 49
0.0
 49
0.0208333333333333
 49
0.0
 49
0.0
 49
0.0
 49
0.0
 49
1.0
 49
0.0
 49
0.0
 49
0.0
 49
0.0
 49
1.0
175
     0
142
0.0208333333333333
142
0.0
142
0.0
142
0.0
142
0.0
142
0.0208333333333333
142
0.0
142
0.0
142
0.0
142
0.0
142
1.0
142
0.0
142
0.0
142
0.0
142
0.0
142
1.0
179
     0
144
0.0208333333333333
144
0.0
144
0.0
144
0.0
144
0.0
144
0.0208333333333333
144
0.0
144
0.0
144
0.0
144
0.0
144
1.0
144
0.0
144
0.0
144
0.0
144
0.0
144
1.0
147
0.0208333333333333
147
0.0
147
0.0
147
0.0
147
0.0
147
0.0208333333333333
147
0.0
147
0.0
147
0.0
147
0.0
147
1.0
147
0.0
147
0.0
147
0.0
147
0.0
147
1.0
  0
MATERIAL
  5
21
102
{ACAD_XDICTIONARY
360
22
102
}
102
{ACAD_REACTORS
330
10
102
}
330
10
100
AcDbMaterial
  1
Global
 72
     0
 43
0.0208333333333333
 43
0.0
 43
0.0
 43
0.0
 43
0.0
 43
0.0208333333333333
 43
0.0
 43
0.0
 43
0.0
 43
0.0
 43
1.0
 43
0.0
 43
0.0
 43
0.0
 43
0.0
 43
1.0
 77
     0
 47
0.0208333333333333
 47
0.0
 47
0.0
 47
0.0
 47
0.0
 47
0.0208333333333333
 47
0.0
 47
0.0
 47
0.0
 47
0.0
 47
1.0
 47
0.0
 47
0.0
 47
0.0
 47
0.0
 47
1.0
171
     0
 49
0.0208333333333333
 49
0.0
 49
0.0
 49
0.0
 49
0.0
 49
0.0208333333333333
 49
0.0
 49
0.0
 49
0.0
 49
0.0
 49
1.0
 49
0.0
 49
0.0
 49
0.0
 49
0.0
 49
1.0
175
     0
142
0.0208333333333333
142
0.0
142
0.0
142
0.0
142
0.0
142
0.0208333333333333
142
0.0
142
0.0
142
0.0
142
0.0
142
1.0
142
0.0
142
0.0
142
0.0
142
0.0
142
1.0
179
     0
144
0.0208333333333333
144
0.0
144
0.0
144
0.0
144
0.0
144
0.0208333333333333
144
0.0
144
0.0
144
0.0
144
0.0
144
1.0
144
0.0
144
0.0
144
0.0
144
0.0
144
1.0
147
0.0208333333333333
147
0.0
147
0.0
147
0.0
147
0.0
147
0.0208333333333333
147
0.0
147
0.0
147
0.0
147
0.0
147
1.0
147
0.0
147
0.0
147
0.0
147
0.0
147
1.0
  0
MLEADERSTYLE
  5
67
102
{ACAD_REACTORS
330
66
102
}
330
66
100
AcDbMLeaderStyle
179
     2
170
     2
171
     1
172
     0
 90
        2
 40
0.0
 41
0.0
173
     1
 91
-1056964608
340
5B
 92
       -2
290
     1
 42
0.09
291
     1
 43
0.36
  3
Standard
 44
0.18
300

342
55
174
     1
178
     6
175
     1
176
     0
 93
-1056964608
 45
0.18
292
     0
297
     0
 46
0.18
 94
-1056964608
 47
1.0
 49
1.0
140
1.0
293
     1
141
0.0
294
     1
177
     0
142
1.0
295
     1
296
     0
143
0.125
271
     0
272
     9
273
     9
298
     1
  0
MLINESTYLE
  5
60
102
{ACAD_REACTORS
330
5F
102
}
330
5F
100
AcDbMlineStyle
  2
STANDARD
 70
     0
  3

 62
   256
 51
90.0
 52
90.0
 71
     2
 49
0.5
 62
   256
  6
BYLAYER
 49
-0.5
 62
   256
  6
BYLAYER
  0
ACDBPLACEHOLDER
  5
F
102
{ACAD_REACTORS
330
E
102
}
330
E
  0
SCALE
  5
43
102
{ACAD_REACTORS
330
42
102
}
330
42
100
AcDbScale
 70
     0
300
1:1
140
1.0
141
1.0
290
     1
  0
SCALE
  5
44
102
{ACAD_REACTORS
330
42
102
}
330
42
100
AcDbScale
 70
     0
300
1/128" = 1'-0"
140
0.0078125
141
12.0
290
     0
  0
SCALE
  5
45
102
{ACAD_REACTORS
330
42
102
}
330
42
100
AcDbScale
 70
     0
300
1/64" = 1'-0"
140
0.015625
141
12.0
290
     0
  0
SCALE
  5
46
102
{ACAD_REACTORS
330
42
102
}
330
42
100
AcDbScale
 70
     0
300
1/32" = 1'-0"
140
0.03125
141
12.0
290
     0
  0
SCALE
  5
47
102
{ACAD_REACTORS
330
42
102
}
330
42
100
AcDbScale
 70
     0
300
1/16" = 1'-0"
140
0.0625
141
12.0
290
     0
  0
SCALE
  5
48
102
{ACAD_REACTORS
330
42
102
}
330
42
100
AcDbScale
 70
     0
300
3/32" = 1'-0"
140
0.09375
141
12.0
290
     0
  0
SCALE
  5
49
102
{ACAD_REACTORS
330
42
102
}
330
42
100
AcDbScale
 70
     0
300
1/8" = 1'-0"
140
0.125
141
12.0
290
     0
  0
SCALE
  5
4A
102
{ACAD_REACTORS
330
42
102
}
330
42
100
AcDbScale
 70
     0
300
3/16" = 1'-0"
140
0.1875
141
12.0
290
     0
  0
SCALE
  5
4B
102
{ACAD_REACTORS
330
42
102
}
330
42
100
AcDbScale
 70
     0
300
1/4" = 1'-0"
140
0.25
141
12.0
290
     0
  0
SCALE
  5
4C
102
{ACAD_REACTORS
330
42
102
}
330
42
100
AcDbScale
 70
     0
300
3/8" = 1'-0"
140
0.375
141
12.0
290
     0
  0
SCALE
  5
4D
102
{ACAD_REACTORS
330
42
102
}
330
42
100
AcDbScale
 70
     0
300
1/2" = 1'-0"
140
0.5
141
12.0
290
     0
  0
SCALE
  5
4E
102
{ACAD_REACTORS
330
42
102
}
330
42
100
AcDbScale
 70
     0
300
3/4" = 1'-0"
140
0.75
141
12.0
290
     0
  0
SCALE
  5
4F
102
{ACAD_REACTORS
330
42
102
}
330
42
100
AcDbScale
 70
     0
300
1" = 1'-0"
140
1.0
141
12.0
290
     0
  0
SCALE
  5
50
102
{ACAD_REACTORS
330
42
102
}
330
42
100
AcDbScale
 70
     0
300
1-1/2" = 1'-0"
140
1.5
141
12.0
290
     0
  0
SCALE
  5
51
102
{ACAD_REACTORS
330
42
102
}
330
42
100
AcDbScale
 70
     0
300
3" = 1'-0"
140
3.0
141
12.0
290
     0
  0
SCALE
  5
52
102
{ACAD_REACTORS
330
42
102
}
330
42
100
AcDbScale
 70
     0
300
6" = 1'-0"
140
6.0
141
12.0
290
     0
  0
SCALE
  5
53
102
{ACAD_REACTORS
330
42
102
}
330
42
100
AcDbScale
 70
     0
300
1'-0" = 1'-0"
140
12.0
141
12.0
290
     0
  0
ACDBSECTIONVIEWSTYLE
  5
69
102
{ACAD_REACTORS
330
68
102
}
330
68
100
AcDbModelDocViewStyle
 70
     0
  3
Imperial24
290
     1
300
Imperial24
 90
        0
100
AcDbSectionViewStyle
 70
     0
 71
     0
 90
       78
 71
     1
340
55
 62
   256
 40
0.24
340
0
340
0
 62
   256
 40
0.24
300
I, O, Q, S, X, Z
 40
0.48
 90
        3
 40
0.18
 90
        1
 71
     2
340
5D
 90
       25
 62
   256
340
5D
 90
       50
 62
   256
 40
0.24
 40
0.0
 40
0.24
 71
     3
340
55
 62
   256
 40
0.24
 90
        1
 40
0.75
 90
        1
300
%<\AcVar ViewType \f "%tc1">% %<\AcVar ViewSectionStartId>%-%<\AcVar ViewSectionEndId>%\PSCALE %<\AcVar ViewScale \f "%sn">%
 71
     4
 62
   256
 62
   257
300
ANSI31
 40
1.0
 90
        0
290
     0
290
     0
 90
        6
 40
0.0
 40
1.570796326794896
 40
0.2617993877991494
 40
1.308996938995747
 40
-0.2617993877991494
 40
1.832595714594046
  0
TABLESTYLE
  5
65
102
{ACAD_XDICTIONARY
360
80
102
}
102
{ACAD_REACTORS
330
64
102
}
330
64
100
AcDbTableStyle
280
     0
  3
Standard
 70
     0
 71
     0
 40
0.06
 41
0.06
280
     0
281
     0
  7
Standard
140
0.18
170
     2
 62
     0
 63
     7
283
     0
 90
      512
 91
        0
  1

274
    -2
284
     1
 64
     0
275
    -2
285
     1
 65
     0
276
    -2
286
     1
 66
     0
277
    -2
287
     1
 67
     0
278
    -2
288
     1
 68
     0
279
    -2
289
     1
 69
     0
  7
Standard
140
0.25
170
     5
 62
     0
 63
     7
283
     0
 90
      512
 91
        0
  1

274
    -2
284
     1
 64
     0
275
    -2
285
     1
 65
     0
276
    -2
286
     1
 66
     0
277
    -2
287
     1
 67
     0
278
    -2
288
     1
 68
     0
279
    -2
289
     1
 69
     0
  7
Standard
140
0.18
170
     5
 62
     0
 63
     7
283
     0
 90
      512
 91
        0
  1

274
    -2
284
     1
 64
     0
275
    -2
285
     1
 65
     0
276
    -2
286
     1
 66
     0
277
    -2
287
     1
 67
     0
278
    -2
288
     1
 68
     0
279
    -2
289
     1
 69
     0
  0
VISUALSTYLE
  5
2F
102
{ACAD_REACTORS
330
29
102
}
330
29
100
AcDbVisualStyle
  2
2dWireframe
 70
     4
177
     3
291
     0
 70
    58
 90
        0
176
     1
 90
        2
176
     1
 90
        0
176
     1
 90
        0
176
     1
 40
0.6
176
     1
 40
30.0
176
     1
 62
     7
420
 16777215
176
     1
 90
        1
176
     1
 90
        4
176
     1
 62
     7
176
     1
 62
   257
176
     1
 90
        1
176
     1
 90
        1
176
     1
 40
1.0
176
     1
 90
        0
176
     1
 62
   257
176
     1
 40
1.0
176
     1
 90
        1
176
     1
 90
        6
176
     1
 90
        2
176
     1
 62
     7
176
     1
 90
        5
176
     1
 90
        0
176
     1
 90
        0
176
     1
290
     0
176
     1
 90
        1
176
     1
 40
0.0
176
     1
 90
        0
176
     1
290
     1
176
     1
290
     1
176
     1
290
     0
176
     1
290
     0
176
     1
290
     0
176
     1
290
     0
176
     1
290
     0
176
     1
290
     0
176
     1
290
     0
176
     1
 90
       50
176
     1
 40
0.0
176
     1
 40
1.0
176
     1
 90
        0
176
     1
 62
    18
420
        0
176
     1
 90
       50
176
     1
 90
        3
176
     1
 62
     5
420
      255
176
     1
290
     0
176
     1
 90
       50
176
     1
 90
       50
176
     1
 90
       50
176
     1
290
     0
176
     1
 90
       50
176
     1
 62
   256
176
     0
 40
1.0
176
     0
 90
        2
176
     1
  1
strokes_ogs.tif
176
     1
290
     0
176
     1
 40
1.0
176
     1
 40
1.0
176
     1
  0
VISUALSTYLE
  5
2E
102
{ACAD_REACTORS
330
29
102
}
330
29
100
AcDbVisualStyle
  2
Basic
 70
     7
177
     3
291
     1
 70
    58
 90
        1
176
     1
 90
        0
176
     1
 90
        1
176
     1
 90
        0
176
     1
 40
0.6
176
     1
 40
30.0
176
     1
 62
     7
420
 16777215
176
     1
 90
        0
176
     1
 90
        4
176
     1
 62
     7
176
     1
 62
   257
176
     1
 90
        1
176
     1
 90
        1
176
     1
 40
1.0
176
     1
 90
        8
176
     1
 62
     7
176
     1
 40
1.0
176
     1
 90
        1
176
     1
 90
        6
176
     1
 90
        2
176
     1
 62
     7
176
     1
 90
        5
176
     1
 90
        0
176
     1
 90
        0
176
     1
290
     0
176
     1
 90
        1
176
     1
 40
0.0
176
     1
 90
        0
176
     1
290
     0
176
     1
290
     1
176
     1
290
     1
176
     1
290
     0
176
     1
290
     0
176
     1
290
     0
176
     1
290
     0
176
     1
290
     0
176
     1
290
     0
176
     1
 90
       50
176
     1
 40
0.0
176
     1
 40
1.0
176
     1
 90
        0
176
     1
 62
    18
420
        0
176
     1
 90
       50
176
     1
 90
        3
176
     1
 62
     5
420
      255
176
     1
290
     0
176
     1
 90
       50
176
     1
 90
       50
176
     1
 90
       50
176
     1
290
     0
176
     1
 90
       50
176
     1
 62
   256
176
     0
 40
1.0
176
     0
 90
        2
176
     1
  1
strokes_ogs.tif
176
     1
290
     0
176
     1
 40
1.0
176
     1
 40
1.0
176
     1
  0
VISUALSTYLE
  5
35
102
{ACAD_REACTORS
330
29
102
}
330
29
100
AcDbVisualStyle
  2
Brighten
 70
    12
177
     3
291
     1
 70
    58
 90
        2
176
     1
 90
        2
176
     1
 90
        0
176
     1
 90
        0
176
     1
 40
0.6
176
     1
 40
30.0
176
     1
 62
     7
420
 16777215
176
     1
 90
        1
176
     1
 90
        4
176
     1
 62
     7
176
     1
 62
   257
176
     1
 90
        1
176
     1
 90
        1
176
     1
 40
1.0
176
     1
 90
        8
176
     1
 62
     7
176
     1
 40
1.0
176
     1
 90
        1
176
     1
 90
        6
176
     1
 90
        2
176
     1
 62
     7
176
     1
 90
        5
176
     1
 90
        0
176
     1
 90
        0
176
     1
290
     0
176
     1
 90
        1
176
     1
 40
50.0
176
     1
 90
        0
176
     1
290
     0
176
     1
290
     1
176
     1
290
     1
176
     1
290
     0
176
     1
290
     0
176
     1
290
     0
176
     1
290
     0
176
     1
290
     0
176
     1
290
     0
176
     1
 90
       50
176
     1
 40
0.0
176
     1
 40
1.0
176
     1
 90
        0
176
     1
 62
    18
420
        0
176
     1
 90
       50
176
     1
 90
        3
176
     1
 62
     5
420
      255
176
     1
290
     0
176
     1
 90
       50
176
     1
 90
       50
176
     1
 90
       50
176
     1
290
     0
176
     1
 90
       50
176
     1
 62
   256
176
     0
 40
1.0
176
     0
 90
        2
176
     1
  1
strokes_ogs.tif
176
     1
290
     0
176
     1
 40
1.0
176
     1
 40
1.0
176
     1
  0
VISUALSTYLE
  5
39
102
{ACAD_REACTORS
330
29
102
}
330
29
100
AcDbVisualStyle
  2
ColorChange
 70
    16
177
     3
291
     1
 70
    58
 90
        2
176
     1
 90
        2
176
     1
 90
        3
176
     1
 90
        0
176
     1
 40
0.6
176
     1
 40
30.0
176
     1
 62
     8
420
  8421504
176
     1
 90
        1
176
     1
 90
        4
176
     1
 62
     7
176
     1
 62
   257
176
     1
 90
        1
176
     1
 90
        1
176
     1
 40
1.0
176
     1
 90
        8
176
     1
 62
     8
420
  8421504
176
     1
 40
1.0
176
     1
 90
        1
176
     1
 90
        6
176
     1
 90
        2
176
     1
 62
     7
176
     1
 90
        5
176
     1
 90
        0
176
     1
 90
        0
176
     1
290
     0
176
     1
 90
        1
176
     1
 40
0.0
176
     1
 90
        0
176
     1
290
     0
176
     1
290
     1
176
     1
290
     1
176
     1
290
     0
176
     1
290
     0
176
     1
290
     0
176
     1
290
     0
176
     1
290
     0
176
     1
290
     0
176
     1
 90
       50
176
     1
 40
0.0
176
     1
 40
1.0
176
     1
 90
        0
176
     1
 62
    18
420
        0
176
     1
 90
       50
176
     1
 90
        3
176
     1
 62
     5
420
      255
176
     1
290
     0
176
     1
 90
       50
176
     1
 90
       50
176
     1
 90
       50
176
     1
290
     0
176
     1
 90
       50
176
     1
 62
   256
176
     0
 40
1.0
176
     0
 90
        2
176
     1
  1
strokes_ogs.tif
176
     1
290
     0
176
     1
 40
1.0
176
     1
 40
1.0
176
     1
  0
VISUALSTYLE
  5
32
102
{ACAD_REACTORS
330
29
102
}
330
29
100
AcDbVisualStyle
  2
Conceptual
 70
     9
177
     3
291
     0
 70
    58
 90
        3
176
     1
 90
        2
176
     1
 90
        0
176
     1
 90
        0
176
     1
 40
0.6
176
     1
 40
30.0
176
     1
 62
     7
420
 16777215
176
     1
 90
        2
176
     1
 90
        2
176
     1
 62
     7
176
     1
 62
   257
176
     1
 90
        1
176
     1
 90
        1
176
     1
 40
179.0
176
     1
 90
        8
176
     1
 62
     7
176
     1
 40
1.0
176
     1
 90
        1
176
     1
 90
        6
176
     1
 90
        2
176
     1
 62
     7
176
     1
 90
        3
176
     1
 90
        0
176
     1
 90
        0
176
     1
290
     0
176
     1
 90
        1
176
     1
 40
0.0
176
     1
 90
        0
176
     1
290
     0
176
     1
290
     1
176
     1
290
     1
176
     1
290
     0
176
     1
290
     0
176
     1
290
     0
176
     1
290
     0
176
     1
290
     0
176
     1
290
     0
176
     1
 90
       50
176
     1
 40
0.0
176
     1
 40
1.0
176
     1
 90
        0
176
     1
 62
    18
420
        0
176
     1
 90
       50
176
     1
 90
        3
176
     1
 62
     5
420
      255
176
     1
290
     0
176
     1
 90
       50
176
     1
 90
       50
176
     1
 90
       50
176
     1
290
     0
176
     1
 90
       50
176
     1
 62
   256
176
     0
 40
1.0
176
     0
 90
        2
176
     1
  1
strokes_ogs.tif
176
     1
290
     0
176
     1
 40
1.0
176
     1
 40
1.0
176
     1
  0
VISUALSTYLE
  5
34
102
{ACAD_REACTORS
330
29
102
}
330
29
100
AcDbVisualStyle
  2
Dim
 70
    11
177
     3
291
     1
 70
    58
 90
        2
176
     1
 90
        2
176
     1
 90
        0
176
     1
 90
        0
176
     1
 40
0.6
176
     1
 40
30.0
176
     1
 62
     7
420
 16777215
176
     1
 90
        1
176
     1
 90
        4
176
     1
 62
     7
176
     1
 62
   257
176
     1
 90
        1
176
     1
 90
        1
176
     1
 40
1.0
176
     1
 90
        8
176
     1
 62
     7
176
     1
 40
1.0
176
     1
 90
        1
176
     1
 90
        6
176
     1
 90
        2
176
     1
 62
     7
176
     1
 90
        5
176
     1
 90
        0
176
     1
 90
        0
176
     1
290
     0
176
     1
 90
        1
176
     1
 40
-50.0
176
     1
 90
        0
176
     1
290
     0
176
     1
290
     1
176
     1
290
     1
176
     1
290
     0
176
     1
290
     0
176
     1
290
     0
176
     1
290
     0
176
     1
290
     0
176
     1
290
     0
176
     1
 90
       50
176
     1
 40
0.0
176
     1
 40
1.0
176
     1
 90
        0
176
     1
 62
    18
420
        0
176
     1
 90
       50
176
     1
 90
        3
176
     1
 62
     5
420
      255
176
     1
290
     0
176
     1
 90
       50
176
     1
 90
       50
176
     1
 90
       50
176
     1
290
     0
176
     1
 90
       50
176
     1
 62
   256
176
     0
 40
1.0
176
     0
 90
        2
176
     1
  1
strokes_ogs.tif
176
     1
290
     0
176
     1
 40
1.0
176
     1
 40
1.0
176
     1
  0
VISUALSTYLE
  5
41
102
{ACAD_REACTORS
330
29
102
}
330
29
100
AcDbVisualStyle
  2
EdgeColorOff
 70
    22
177
     3
291
     1
 70
    58
 90
        2
176
     0
 90
        2
176
     0
 90
        0
176
     0
 90
        0
176
     0
 40
0.6
176
     0
 40
30.0
176
     0
 62
     7
420
 16777215
176
     0
 90
        1
176
     0
 90
        4
176
     0
 62
     7
176
     0
 62
   257
176
     0
 90
        1
176
     0
 90
        1
176
     0
 40
1.0
176
     0
 90
        8
176
     2
 62
     7
176
     0
 40
1.0
176
     0
 90
        1
176
     0
 90
        6
176
     0
 90
        2
176
     0
 62
     7
176
     0
 90
        5
176
     0
 90
        0
176
     0
 90
        0
176
     0
290
     0
176
     0
 90
        1
176
     0
 40
0.0
176
     0
 90
        0
176
     0
290
     0
176
     0
290
     1
176
     0
290
     1
176
     0
290
     0
176
     0
290
     0
176
     0
290
     0
176
     0
290
     0
176
     0
290
     0
176
     0
290
     0
176
     0
 90
       50
176
     0
 40
0.0
176
     0
 40
1.0
176
     0
 90
        0
176
     0
 62
    18
420
        0
176
     0
 90
       50
176
     0
 90
        3
176
     0
 62
     5
420
      255
176
     0
290
     0
176
     0
 90
       50
176
     0
 90
       50
176
     0
 90
       50
176
     0
290
     0
176
     0
 90
       50
176
     0
 62
   256
176
     0
 40
1.0
176
     0
 90
        2
176
     0
  1
strokes_ogs.tif
176
     0
290
     0
176
     0
 40
1.0
176
     0
 40
1.0
176
     0
  0
VISUALSTYLE
  5
38
102
{ACAD_REACTORS
330
29
102
}
330
29
100
AcDbVisualStyle
  2
Facepattern
 70
    15
177
     3
291
     1
 70
    58
 90
        2
176
     1
 90
        2
176
     1
 90
        0
176
     1
 90
        0
176
     1
 40
0.6
176
     1
 40
30.0
176
     1
 62
     7
420
 16777215
176
     1
 90
        1
176
     1
 90
        4
176
     1
 62
     7
176
     1
 62
   257
176
     1
 90
        1
176
     1
 90
        1
176
     1
 40
1.0
176
     1
 90
        8
176
     1
 62
     7
176
     1
 40
1.0
176
     1
 90
        1
176
     1
 90
        6
176
     1
 90
        2
176
     1
 62
     7
176
     1
 90
        5
176
     1
 90
        0
176
     1
 90
        0
176
     1
290
     0
176
     1
 90
        1
176
     1
 40
0.0
176
     1
 90
        0
176
     1
290
     0
176
     1
290
     1
176
     1
290
     1
176
     1
290
     0
176
     1
290
     0
176
     1
290
     0
176
     1
290
     0
176
     1
290
     0
176
     1
290
     0
176
     1
 90
       50
176
     1
 40
0.0
176
     1
 40
1.0
176
     1
 90
        0
176
     1
 62
    18
420
        0
176
     1
 90
       50
176
     1
 90
        3
176
     1
 62
     5
420
      255
176
     1
290
     0
176
     1
 90
       50
176
     1
 90
       50
176
     1
 90
       50
176
     1
290
     0
176
     1
 90
       50
176
     1
 62
   256
176
     0
 40
1.0
176
     0
 90
        2
176
     1
  1
strokes_ogs.tif
176
     1
290
     0
176
     1
 40
1.0
176
     1
 40
1.0
176
     1
  0
VISUALSTYLE
  5
2A
102
{ACAD_REACTORS
330
29
102
}
330
29
100
AcDbVisualStyle
  2
Flat
 70
     0
177
     3
291
     1
 70
    58
 90
        2
176
     1
 90
        1
176
     1
 90
        1
176
     1
 90
        2
176
     1
 40
0.6
176
     1
 40
30.0
176
     1
 62
     7
420
 16777215
176
     1
 90
        0
176
     1
 90
        0
176
     1
 62
     7
176
     1
 62
   257
176
     1
 90
        1
176
     1
 90
        1
176
     1
 40
1.0
176
     1
 90
        8
176
     1
 62
     7
176
     1
 40
1.0
176
     1
 90
        1
176
     1
 90
        6
176
     1
 90
        2
176
     1
 62
     7
176
     1
 90
        5
176
     1
 90
        0
176
     1
 90
        0
176
     1
290
     0
176
     1
 90
       13
176
     1
 40
0.0
176
     1
 90
        0
176
     1
290
     0
176
     1
290
     1
176
     1
290
     1
176
     1
290
     0
176
     1
290
     0
176
     1
290
     0
176
     1
290
     0
176
     1
290
     0
176
     1
290
     0
176
     1
 90
       50
176
     1
 40
0.0
176
     1
 40
1.0
176
     1
 90
        0
176
     1
 62
    18
420
        0
176
     1
 90
       50
176
     1
 90
        3
176
     1
 62
     5
420
      255
176
     1
290
     0
176
     1
 90
       50
176
     1
 90
       50
176
     1
 90
       50
176
     1
290
     0
176
     1
 90
       50
176
     1
 62
   256
176
     0
 40
1.0
176
     0
 90
        2
176
     1
  1
strokes_ogs.tif
176
     1
290
     0
176
     1
 40
1.0
176
     1
 40
1.0
176
     1
  0
VISUALSTYLE
  5
2B
102
{ACAD_REACTORS
330
29
102
}
330
29
100
AcDbVisualStyle
  2
FlatWithEdges
 70
     1
177
     3
291
     1
 70
    58
 90
        2
176
     1
 90
        1
176
     1
 90
        1
176
     1
 90
        2
176
     1
 40
0.6
176
     1
 40
30.0
176
     1
 62
     7
420
 16777215
176
     1
 90
        1
176
     1
 90
        0
176
     1
 62
     7
176
     1
 62
   257
176
     1
 90
        1
176
     1
 90
        1
176
     1
 40
1.0
176
     1
 90
        0
176
     1
 62
   257
176
     1
 40
1.0
176
     1
 90
        1
176
     1
 90
        6
176
     1
 90
        2
176
     1
 62
     7
176
     1
 90
        5
176
     1
 90
        0
176
     1
 90
        0
176
     1
290
     0
176
     1
 90
       13
176
     1
 40
0.0
176
     1
 90
        0
176
     1
290
     0
176
     1
290
     1
176
     1
290
     1
176
     1
290
     0
176
     1
290
     0
176
     1
290
     0
176
     1
290
     0
176
     1
290
     0
176
     1
290
     0
176
     1
 90
       50
176
     1
 40
0.0
176
     1
 40
1.0
176
     1
 90
        0
176
     1
 62
    18
420
        0
176
     1
 90
       50
176
     1
 90
        3
176
     1
 62
     5
420
      255
176
     1
290
     0
176
     1
 90
       50
176
     1
 90
       50
176
     1
 90
       50
176
     1
290
     0
176
     1
 90
       50
176
     1
 62
   256
176
     0
 40
1.0
176
     0
 90
        2
176
     1
  1
strokes_ogs.tif
176
     1
290
     0
176
     1
 40
1.0
176
     1
 40
1.0
176
     1
  0
VISUALSTYLE
  5
2C
102
{ACAD_REACTORS
330
29
102
}
330
29
100
AcDbVisualStyle
  2
Gouraud
 70
     2
177
     3
291
     1
 70
    58
 90
        2
176
     1
 90
        2
176
     1
 90
        1
176
     1
 90
        2
176
     1
 40
0.6
176
     1
 40
30.0
176
     1
 62
     7
420
 16777215
176
     1
 90
        0
176
     1
 90
        0
176
     1
 62
     7
176
     1
 62
   257
176
     1
 90
        1
176
     1
 90
        1
176
     1
 40
1.0
176
     1
 90
        0
176
     1
 62
     7
176
     1
 40
1.0
176
     1
 90
        1
176
     1
 90
        6
176
     1
 90
        2
176
     1
 62
     7
176
     1
 90
        5
176
     1
 90
        0
176
     1
 90
        0
176
     1
290
     0
176
     1
 90
       13
176
     1
 40
0.0
176
     1
 90
        0
176
     1
290
     0
176
     1
290
     1
176
     1
290
     1
176
     1
290
     0
176
     1
290
     0
176
     1
290
     0
176
     1
290
     0
176
     1
290
     0
176
     1
290
     0
176
     1
 90
       50
176
     1
 40
0.0
176
     1
 40
1.0
176
     1
 90
        0
176
     1
 62
    18
420
        0
176
     1
 90
       50
176
     1
 90
        3
176
     1
 62
     5
420
      255
176
     1
290
     0
176
     1
 90
       50
176
     1
 90
       50
176
     1
 90
       50
176
     1
290
     0
176
     1
 90
       50
176
     1
 62
   256
176
     0
 40
1.0
176
     0
 90
        2
176
     1
  1
strokes_ogs.tif
176
     1
290
     0
176
     1
 40
1.0
176
     1
 40
1.0
176
     1
  0
VISUALSTYLE
  5
2D
102
{ACAD_REACTORS
330
29
102
}
330
29
100
AcDbVisualStyle
  2
GouraudWithEdges
 70
     3
177
     3
291
     1
 70
    58
 90
        2
176
     1
 90
        2
176
     1
 90
        1
176
     1
 90
        2
176
     1
 40
0.6
176
     1
 40
30.0
176
     1
 62
     7
420
 16777215
176
     1
 90
        1
176
     1
 90
        0
176
     1
 62
     7
176
     1
 62
   257
176
     1
 90
        1
176
     1
 90
        1
176
     1
 40
1.0
176
     1
 90
        0
176
     1
 62
   257
176
     1
 40
1.0
176
     1
 90
        1
176
     1
 90
        6
176
     1
 90
        2
176
     1
 62
     7
176
     1
 90
        5
176
     1
 90
        0
176
     1
 90
        0
176
     1
290
     0
176
     1
 90
       13
176
     1
 40
0.0
176
     1
 90
        0
176
     1
290
     0
176
     1
290
     1
176
     1
290
     1
176
     1
290
     0
176
     1
290
     0
176
     1
290
     0
176
     1
290
     0
176
     1
290
     0
176
     1
290
     0
176
     1
 90
       50
176
     1
 40
0.0
176
     1
 40
1.0
176
     1
 90
        0
176
     1
 62
    18
420
        0
176
     1
 90
       50
176
     1
 90
        3
176
     1
 62
     5
420
      255
176
     1
290
     0
176
     1
 90
       50
176
     1
 90
       50
176
     1
 90
       50
176
     1
290
     0
176
     1
 90
       50
176
     1
 62
   256
176
     0
 40
1.0
176
     0
 90
        2
176
     1
  1
strokes_ogs.tif
176
     1
290
     0
176
     1
 40
1.0
176
     1
 40
1.0
176
     1
  0
VISUALSTYLE
  5
31
102
{ACAD_REACTORS
330
29
102
}
330
29
100
AcDbVisualStyle
  2
Hidden
 70
     6
177
     3
291
     0
 70
    58
 90
        1
176
     1
 90
        2
176
     1
 90
        2
176
     1
 90
        0
176
     1
 40
0.6
176
     1
 40
30.0
176
     1
 62
     7
420
 16777215
176
     1
 90
        2
176
     1
 90
        2
176
     1
 62
     7
176
     1
 62
   257
176
     1
 90
        2
176
     1
 90
        1
176
     1
 40
40.0
176
     1
 90
        0
176
     1
 62
   257
176
     1
 40
1.0
176
     1
 90
        1
176
     1
 90
        6
176
     1
 90
        2
176
     1
 62
     7
176
     1
 90
        3
176
     1
 90
        0
176
     1
 90
        0
176
     1
290
     0
176
     1
 90
        1
176
     1
 40
0.0
176
     1
 90
        0
176
     1
290
     0
176
     1
290
     1
176
     1
290
     1
176
     1
290
     0
176
     1
290
     0
176
     1
290
     0
176
     1
290
     0
176
     1
290
     0
176
     1
290
     0
176
     1
 90
       50
176
     1
 40
0.0
176
     1
 40
1.0
176
     1
 90
        0
176
     1
 62
    18
420
        0
176
     1
 90
       50
176
     1
 90
        3
176
     1
 62
     5
420
      255
176
     1
290
     0
176
     1
 90
       50
176
     1
 90
       50
176
     1
 90
       50
176
     1
290
     0
176
     1
 90
       50
176
     1
 62
   256
176
     0
 40
1.0
176
     0
 90
        2
176
     1
  1
strokes_ogs.tif
176
     1
290
     0
176
     1
 40
1.0
176
     1
 40
1.0
176
     1
  0
VISUALSTYLE
  5
3F
102
{ACAD_REACTORS
330
29
102
}
330
29
100
AcDbVisualStyle
  2
JitterOff
 70
    20
177
     3
291
     1
 70
    58
 90
        2
176
     0
 90
        2
176
     0
 90
        0
176
     0
 90
        0
176
     0
 40
0.6
176
     0
 40
30.0
176
     0
 62
     7
420
 16777215
176
     0
 90
        1
176
     0
 90
        4
176
     0
 62
     7
176
     0
 62
   257
176
     0
 90
        1
176
     0
 90
        1
176
     0
 40
1.0
176
     0
 90
       10
176
     2
 62
     7
176
     0
 40
1.0
176
     0
 90
        1
176
     0
 90
        6
176
     0
 90
        2
176
     0
 62
     7
176
     0
 90
        5
176
     0
 90
        0
176
     0
 90
        0
176
     0
290
     0
176
     0
 90
        1
176
     0
 40
0.0
176
     0
 90
        0
176
     0
290
     0
176
     0
290
     1
176
     0
290
     1
176
     0
290
     0
176
     0
290
     0
176
     0
290
     0
176
     0
290
     0
176
     0
290
     0
176
     0
290
     0
176
     0
 90
       50
176
     0
 40
0.0
176
     0
 40
1.0
176
     0
 90
        0
176
     0
 62
    18
420
        0
176
     0
 90
       50
176
     0
 90
        3
176
     0
 62
     5
420
      255
176
     0
290
     0
176
     0
 90
       50
176
     0
 90
       50
176
     0
 90
       50
176
     0
290
     0
176
     0
 90
       50
176
     0
 62
   256
176
     0
 40
1.0
176
     0
 90
        2
176
     0
  1
strokes_ogs.tif
176
     0
290
     0
176
     0
 40
1.0
176
     0
 40
1.0
176
     0
  0
VISUALSTYLE
  5
37
102
{ACAD_REACTORS
330
29
102
}
330
29
100
AcDbVisualStyle
  2
Linepattern
 70
    14
177
     3
291
     1
 70
    58
 90
        2
176
     1
 90
        2
176
     1
 90
        0
176
     1
 90
        0
176
     1
 40
0.6
176
     1
 40
30.0
176
     1
 62
     7
420
 16777215
176
     1
 90
        1
176
     1
 90
        4
176
     1
 62
     7
176
     1
 62
   257
176
     1
 90
        7
176
     1
 90
        7
176
     1
 40
1.0
176
     1
 90
        8
176
     1
 62
     7
176
     1
 40
1.0
176
     1
 90
        1
176
     1
 90
        6
176
     1
 90
        2
176
     1
 62
     7
176
     1
 90
        5
176
     1
 90
        0
176
     1
 90
        0
176
     1
290
     0
176
     1
 90
        1
176
     1
 40
0.0
176
     1
 90
        0
176
     1
290
     0
176
     1
290
     1
176
     1
290
     1
176
     1
290
     0
176
     1
290
     0
176
     1
290
     0
176
     1
290
     0
176
     1
290
     0
176
     1
290
     0
176
     1
 90
       50
176
     1
 40
0.0
176
     1
 40
1.0
176
     1
 90
        0
176
     1
 62
    18
420
        0
176
     1
 90
       50
176
     1
 90
        3
176
     1
 62
     5
420
      255
176
     1
290
     0
176
     1
 90
       50
176
     1
 90
       50
176
     1
 90
       50
176
     1
290
     0
176
     1
 90
       50
176
     1
 62
   256
176
     0
 40
1.0
176
     0
 90
        2
176
     1
  1
strokes_ogs.tif
176
     1
290
     0
176
     1
 40
1.0
176
     1
 40
1.0
176
     1
  0
VISUALSTYLE
  5
40
102
{ACAD_REACTORS
330
29
102
}
330
29
100
AcDbVisualStyle
  2
OverhangOff
 70
    21
177
     3
291
     1
 70
    58
 90
        2
176
     0
 90
        2
176
     0
 90
        0
176
     0
 90
        0
176
     0
 40
0.6
176
     0
 40
30.0
176
     0
 62
     7
420
 16777215
176
     0
 90
        1
176
     0
 90
        4
176
     0
 62
     7
176
     0
 62
   257
176
     0
 90
        1
176
     0
 90
        1
176
     0
 40
1.0
176
     0
 90
        9
176
     2
 62
     7
176
     0
 40
1.0
176
     0
 90
        1
176
     0
 90
        6
176
     0
 90
        2
176
     0
 62
     7
176
     0
 90
        5
176
     0
 90
        0
176
     0
 90
        0
176
     0
290
     0
176
     0
 90
        1
176
     0
 40
0.0
176
     0
 90
        0
176
     0
290
     0
176
     0
290
     1
176
     0
290
     1
176
     0
290
     0
176
     0
290
     0
176
     0
290
     0
176
     0
290
     0
176
     0
290
     0
176
     0
290
     0
176
     0
 90
       50
176
     0
 40
0.0
176
     0
 40
1.0
176
     0
 90
        0
176
     0
 62
    18
420
        0
176
     0
 90
       50
176
     0
 90
        3
176
     0
 62
     5
420
      255
176
     0
290
     0
176
     0
 90
       50
176
     0
 90
       50
176
     0
 90
       50
176
     0
290
     0
176
     0
 90
       50
176
     0
 62
   256
176
     0
 40
1.0
176
     0
 90
        2
176
     0
  1
strokes_ogs.tif
176
     0
290
     0
176
     0
 40
1.0
176
     0
 40
1.0
176
     0
  0
VISUALSTYLE
  5
33
102
{ACAD_REACTORS
330
29
102
}
330
29
100
AcDbVisualStyle
  2
Realistic
 70
     8
177
     3
291
     0
 70
    58
 90
        2
176
     1
 90
        3
176
     1
 90
        0
176
     1
 90
        2
176
     1
 40
0.6
176
     1
 40
30.0
176
     1
 62
     7
420
 16777215
176
     1
 90
        0
176
     1
 90
        0
176
     1
 62
     7
176
     1
 62
   257
176
     1
 90
        1
176
     1
 90
        1
176
     1
 40
1.0
176
     1
 90
        8
176
     1
 62
   257
176
     1
 40
1.0
176
     1
 90
        1
176
     1
 90
        6
176
     1
 90
        2
176
     1
 62
     7
176
     1
 90
        3
176
     1
 90
        0
176
     1
 90
        0
176
     1
290
     0
176
     1
 90
       13
176
     1
 40
0.0
176
     1
 90
        0
176
     1
290
     0
176
     1
290
     1
176
     1
290
     1
176
     1
290
     0
176
     1
290
     0
176
     1
290
     0
176
     1
290
     0
176
     1
290
     0
176
     1
290
     0
176
     1
 90
       50
176
     1
 40
0.0
176
     1
 40
1.0
176
     1
 90
        0
176
     1
 62
    18
420
        0
176
     1
 90
       50
176
     1
 90
        3
176
     1
 62
     5
420
      255
176
     1
290
     0
176
     1
 90
       50
176
     1
 90
       50
176
     1
 90
       50
176
     1
290
     0
176
     1
 90
       50
176
     1
 62
   256
176
     0
 40
1.0
176
     0
 90
        2
176
     1
  1
strokes_ogs.tif
176
     1
290
     0
176
     1
 40
1.0
176
     1
 40
1.0
176
     1
  0
VISUALSTYLE
  5
3E
102
{ACAD_REACTORS
330
29
102
}
330
29
100
AcDbVisualStyle
  2
Shaded
 70
    27
177
     3
291
     0
 70
    58
 90
        2
176
     1
 90
        2
176
     1
 90
        1
176
     1
 90
        2
176
     1
 40
0.6
176
     1
 40
30.0
176
     1
 62
     7
420
 16777215
176
     1
 90
        0
176
     1
 90
        4
176
     1
 62
     7
176
     1
 62
   257
176
     1
 90
        1
176
     1
 90
        1
176
     1
 40
1.0
176
     1
 90
        8
176
     1
 62
   257
176
     1
 40
1.0
176
     1
 90
        1
176
     1
 90
        6
176
     1
 90
        2
176
     1
 62
     8
420
  7895160
176
     1
 90
        3
176
     1
 90
        0
176
     1
 90
        0
176
     1
290
     0
176
     1
 90
        5
176
     1
 40
0.0
176
     1
 90
        0
176
     1
290
     0
176
     1
290
     1
176
     1
290
     1
176
     1
290
     0
176
     1
290
     0
176
     1
290
     0
176
     1
290
     0
176
     1
290
     0
176
     1
290
     0
176
     1
 90
       50
176
     1
 40
0.0
176
     1
 40
1.0
176
     1
 90
        0
176
     1
 62
    18
420
        0
176
     1
 90
       50
176
     1
 90
        3
176
     1
 62
     5
420
      255
176
     1
290
     0
176
     1
 90
       50
176
     1
 90
       50
176
     1
 90
       50
176
     1
290
     0
176
     1
 90
       50
176
     1
 62
   256
176
     0
 40
1.0
176
     0
 90
        2
176
     1
  1
strokes_ogs.tif
176
     1
290
     0
176
     1
 40
1.0
176
     1
 40
1.0
176
     1
  0
VISUALSTYLE
  5
3D
102
{ACAD_REACTORS
330
29
102
}
330
29
100
AcDbVisualStyle
  2
Shaded with edges
 70
    26
177
     3
291
     0
 70
    58
 90
        2
176
     1
 90
        2
176
     1
 90
        1
176
     1
 90
        2
176
     1
 40
0.6
176
     1
 40
30.0
176
     1
 62
     7
420
 16777215
176
     1
 90
        1
176
     1
 90
        2
176
     1
 62
     7
176
     1
 62
   257
176
     1
 90
        2
176
     1
 90
        1
176
     1
 40
1.0
176
     1
 90
        8
176
     1
 62
   257
176
     1
 40
1.0
176
     1
 90
        1
176
     1
 90
        6
176
     1
 90
        2
176
     1
 62
     7
176
     1
 90
        3
176
     1
 90
        0
176
     1
 90
        0
176
     1
290
     0
176
     1
 90
        5
176
     1
 40
0.0
176
     1
 90
        0
176
     1
290
     0
176
     1
290
     1
176
     1
290
     1
176
     1
290
     0
176
     1
290
     0
176
     1
290
     0
176
     1
290
     0
176
     1
290
     0
176
     1
290
     0
176
     1
 90
       50
176
     1
 40
0.0
176
     1
 40
1.0
176
     1
 90
        0
176
     1
 62
    18
420
        0
176
     1
 90
       50
176
     1
 90
        3
176
     1
 62
     5
420
      255
176
     1
290
     0
176
     1
 90
       50
176
     1
 90
       50
176
     1
 90
       50
176
     1
290
     0
176
     1
 90
       50
176
     1
 62
   256
176
     0
 40
1.0
176
     0
 90
        2
176
     1
  1
strokes_ogs.tif
176
     1
290
     0
176
     1
 40
1.0
176
     1
 40
1.0
176
     1
  0
VISUALSTYLE
  5
3A
102
{ACAD_REACTORS
330
29
102
}
330
29
100
AcDbVisualStyle
  2
Shades of Gray
 70
    23
177
     3
291
     0
 70
    58
 90
        2
176
     1
 90
        2
176
     1
 90
        3
176
     1
 90
        0
176
     1
 40
0.6
176
     1
 40
30.0
176
     1
 62
     7
420
 16777215
176
     1
 90
        2
176
     1
 90
        2
176
     1
 62
     7
176
     1
 62
     7
176
     1
 90
        1
176
     1
 90
        1
176
     1
 40
40.0
176
     1
 90
        8
176
     1
 62
     7
176
     1
 40
1.0
176
     1
 90
        1
176
     1
 90
        6
176
     1
 90
        2
176
     1
 62
     7
176
     1
 90
        3
176
     1
 90
        0
176
     1
 90
        0
176
     1
290
     0
176
     1
 90
        1
176
     1
 40
0.0
176
     1
 90
        0
176
     1
290
     0
176
     1
290
     1
176
     1
290
     1
176
     1
290
     0
176
     1
290
     0
176
     1
290
     0
176
     1
290
     0
176
     1
290
     0
176
     1
290
     0
176
     1
 90
       50
176
     1
 40
0.0
176
     1
 40
1.0
176
     1
 90
        0
176
     1
 62
    18
420
        0
176
     1
 90
       50
176
     1
 90
        3
176
     1
 62
     5
420
      255
176
     1
290
     0
176
     1
 90
       50
176
     1
 90
       50
176
     1
 90
       50
176
     1
290
     0
176
     1
 90
       50
176
     1
 62
   256
176
     0
 40
1.0
176
     0
 90
        2
176
     1
  1
strokes_ogs.tif
176
     1
290
     0
176
     1
 40
1.0
176
     1
 40
1.0
176
     1
  0
VISUALSTYLE
  5
3B
102
{ACAD_REACTORS
330
29
102
}
330
29
100
AcDbVisualStyle
  2
Sketchy
 70
    24
177
     3
291
     0
 70
    58
 90
        1
176
     1
 90
        2
176
     1
 90
        2
176
     1
 90
        0
176
     1
 40
0.6
176
     1
 40
30.0
176
     1
 62
     7
420
 16777215
176
     1
 90
        2
176
     1
 90
        2
176
     1
 62
     7
176
     1
 62
     7
176
     1
 90
        1
176
     1
 90
        1
176
     1
 40
40.0
176
     1
 90
       11
176
     1
 62
     7
176
     1
 40
1.0
176
     1
 90
        1
176
     1
 90
        6
176
     1
 90
        2
176
     1
 62
     7
176
     1
 90
        6
176
     1
 90
        0
176
     1
 90
        0
176
     1
290
     0
176
     1
 90
        1
176
     1
 40
0.0
176
     1
 90
        0
176
     1
290
     0
176
     1
290
     1
176
     1
290
     1
176
     1
290
     0
176
     1
290
     0
176
     1
290
     0
176
     1
290
     0
176
     1
290
     0
176
     1
290
     0
176
     1
 90
       50
176
     1
 40
0.0
176
     1
 40
1.0
176
     1
 90
        0
176
     1
 62
    18
420
        0
176
     1
 90
       50
176
     1
 90
        3
176
     1
 62
     5
420
      255
176
     1
290
     0
176
     1
 90
       50
176
     1
 90
       50
176
     1
 90
       50
176
     1
290
     0
176
     1
 90
       50
176
     1
 62
   256
176
     0
 40
1.0
176
     0
 90
        2
176
     1
  1
strokes_ogs.tif
176
     1
290
     0
176
     1
 40
1.0
176
     1
 40
1.0
176
     1
  0
VISUALSTYLE
  5
36
102
{ACAD_REACTORS
330
29
102
}
330
29
100
AcDbVisualStyle
  2
Thicken
 70
    13
177
     3
291
     1
 70
    58
 90
        2
176
     1
 90
        2
176
     1
 90
        0
176
     1
 90
        0
176
     1
 40
0.6
176
     1
 40
30.0
176
     1
 62
     7
420
 16777215
176
     1
 90
        1
176
     1
 90
        4
176
     1
 62
     7
176
     1
 62
   257
176
     1
 90
        1
176
     1
 90
        1
176
     1
 40
1.0
176
     1
 90
       12
176
     1
 62
     7
176
     1
 40
1.0
176
     1
 90
        1
176
     1
 90
        6
176
     1
 90
        2
176
     1
 62
     7
176
     1
 90
        5
176
     1
 90
        0
176
     1
 90
        0
176
     1
290
     0
176
     1
 90
        1
176
     1
 40
0.0
176
     1
 90
        0
176
     1
290
     0
176
     1
290
     1
176
     1
290
     1
176
     1
290
     0
176
     1
290
     0
176
     1
290
     0
176
     1
290
     0
176
     1
290
     0
176
     1
290
     0
176
     1
 90
       50
176
     1
 40
0.0
176
     1
 40
1.0
176
     1
 90
        0
176
     1
 62
    18
420
        0
176
     1
 90
       50
176
     1
 90
        3
176
     1
 62
     5
420
      255
176
     1
290
     0
176
     1
 90
       50
176
     1
 90
       50
176
     1
 90
       50
176
     1
290
     0
176
     1
 90
       50
176
     1
 62
   256
176
     0
 40
1.0
176
     0
 90
        2
176
     1
  1
strokes_ogs.tif
176
     1
290
     0
176
     1
 40
1.0
176
     1
 40
1.0
176
     1
  0
VISUALSTYLE
  5
30
102
{ACAD_REACTORS
330
29
102
}
330
29
100
AcDbVisualStyle
  2
Wireframe
 70
     5
177
     3
291
     0
 70
    58
 90
        0
176
     1
 90
        2
176
     1
 90
        0
176
     1
 90
        0
176
     1
 40
0.6
176
     1
 40
30.0
176
     1
 62
     7
420
 16777215
176
     1
 90
        1
176
     1
 90
        4
176
     1
 62
     7
176
     1
 62
   257
176
     1
 90
        1
176
     1
 90
        1
176
     1
 40
1.0
176
     1
 90
        0
176
     1
 62
   257
176
     1
 40
1.0
176
     1
 90
        1
176
     1
 90
        6
176
     1
 90
        2
176
     1
 62
     7
176
     1
 90
        3
176
     1
 90
        0
176
     1
 90
        0
176
     1
290
     0
176
     1
 90
        1
176
     1
 40
0.0
176
     1
 90
        0
176
     1
290
     0
176
     1
290
     1
176
     1
290
     1
176
     1
290
     0
176
     1
290
     0
176
     1
290
     0
176
     1
290
     0
176
     1
290
     0
176
     1
290
     0
176
     1
 90
       50
176
     1
 40
0.0
176
     1
 40
1.0
176
     1
 90
        0
176
     1
 62
    18
420
        0
176
     1
 90
       50
176
     1
 90
        3
176
     1
 62
     5
420
      255
176
     1
290
     0
176
     1
 90
       50
176
     1
 90
       50
176
     1
 90
       50
176
     1
290
     0
176
     1
 90
       50
176
     1
 62
   256
176
     0
 40
1.0
176
     0
 90
        2
176
     1
  1
strokes_ogs.tif
176
     1
290
     0
176
     1
 40
1.0
176
     1
 40
1.0
176
     1
  0
VISUALSTYLE
  5
3C
102
{ACAD_REACTORS
330
29
102
}
330
29
100
AcDbVisualStyle
  2
X-Ray
 70
    25
177
     3
291
     0
 70
    58
 90
        2
176
     1
 90
        2
176
     1
 90
        1
176
     1
 90
        1
176
     1
 40
0.5
176
     1
 40
30.0
176
     1
 62
     7
420
 16777215
176
     1
 90
        1
176
     1
 90
        0
176
     1
 62
     7
176
     1
 62
   257
176
     1
 90
        1
176
     1
 90
        1
176
     1
 40
1.0
176
     1
 90
        8
176
     1
 62
     7
176
     1
 40
1.0
176
     1
 90
        1
176
     1
 90
        6
176
     1
 90
        2
176
     1
 62
     7
176
     1
 90
        3
176
     1
 90
        0
176
     1
 90
        0
176
     1
290
     0
176
     1
 90
       13
176
     1
 40
0.0
176
     1
 90
        0
176
     1
290
     0
176
     1
290
     1
176
     1
290
     1
176
     1
290
     0
176
     1
290
     0
176
     1
290
     0
176
     1
290
     0
176
     1
290
     0
176
     1
290
     0
176
     1
 90
       50
176
     1
 40
0.0
176
     1
 40
1.0
176
     1
 90
        0
176
     1
 62
    18
420
        0
176
     1
 90
       50
176
     1
 90
        3
176
     1
 62
     5
420
      255
176
     1
290
     0
176
     1
 90
       50
176
     1
 90
       50
176
     1
 90
       50
176
     1
290
     0
176
     1
 90
       50
176
     1
 62
   256
176
     0
 40
1.0
176
     0
 90
        2
176
     1
  1
strokes_ogs.tif
176
     1
290
     0
176
     1
 40
1.0
176
     1
 40
1.0
176
     1
  0
DICTIONARYVAR
  5
7F
102
{ACAD_REACTORS
330
7A
102
}
330
7A
100
DictionaryVariables
280
     0
  1
1:1
  0
DICTIONARYVAR
  5
7C
102
{ACAD_REACTORS
330
7A
102
}
330
7A
100
DictionaryVariables
280
     0
  1
STANDARD
  0
DICTIONARYVAR
  5
7B
102
{ACAD_REACTORS
330
7A
102
}
330
7A
100
DictionaryVariables
280
     0
  1
STANDARD
  0
DICTIONARYVAR
  5
7D
102
{ACAD_REACTORS
330
7A
102
}
330
7A
100
DictionaryVariables
280
     0
  1
Imperial24
  0
DICTIONARYVAR
  5
7E
102
{ACAD_REACTORS
330
7A
102
}
330
7A
100
DictionaryVariables
280
     0
  1
Imperial24
  0
DICTIONARY
  5
1A
330
19
100
AcDbDictionary
280
     1
281
     1
  3
BUMPTILE
360
1C
  3
DIFFUSETILE
360
1B
  3
OPACITYTILE
360
1F
  3
REFLECTIONTILE
360
1E
  3
REFRACTIONTILE
360
20
  3
SPECULARTILE
360
1D
  0
DICTIONARY
  5
12
330
11
100
AcDbDictionary
280
     1
281
     1
  3
BUMPTILE
360
14
  3
DIFFUSETILE
360
13
  3
OPACITYTILE
360
17
  3
REFLECTIONTILE
360
16
  3
REFRACTIONTILE
360
18
  3
SPECULARTILE
360
15
  0
DICTIONARY
  5
22
330
21
100
AcDbDictionary
280
     1
281
     1
  3
BUMPTILE
360
24
  3
DIFFUSETILE
360
23
  3
OPACITYTILE
360
27
  3
REFLECTIONTILE
360
26
  3
REFRACTIONTILE
360
28
  3
SPECULARTILE
360
25
  0
DICTIONARY
  5
80
330
65
100
AcDbDictionary
280
     1
281
     1
  3
ACAD_ROUNDTRIP_2008_TABLESTYLE_CELLSTYLEMAP
360
81
  0
XRECORD
  5
1C
102
{ACAD_REACTORS
330
1A
102
}
330
1A
100
AcDbXrecord
280
     1
270
     1
271
     1
  0
XRECORD
  5
1B
102
{ACAD_REACTORS
330
1A
102
}
330
1A
100
AcDbXrecord
280
     1
270
     1
271
     1
  0
XRECORD
  5
1F
102
{ACAD_REACTORS
330
1A
102
}
330
1A
100
AcDbXrecord
280
     1
270
     1
271
     1
  0
XRECORD
  5
1E
102
{ACAD_REACTORS
330
1A
102
}
330
1A
100
AcDbXrecord
280
     1
270
     1
271
     1
  0
XRECORD
  5
20
102
{ACAD_REACTORS
330
1A
102
}
330
1A
100
AcDbXrecord
280
     1
270
     1
271
     1
  0
XRECORD
  5
1D
102
{ACAD_REACTORS
330
1A
102
}
330
1A
100
AcDbXrecord
280
     1
270
     1
271
     1
  0
XRECORD
  5
14
102
{ACAD_REACTORS
330
12
102
}
330
12
100
AcDbXrecord
280
     1
270
     1
271
     1
  0
XRECORD
  5
13
102
{ACAD_REACTORS
330
12
102
}
330
12
100
AcDbXrecord
280
     1
270
     1
271
     1
  0
XRECORD
  5
17
102
{ACAD_REACTORS
330
12
102
}
330
12
100
AcDbXrecord
280
     1
270
     1
271
     1
  0
XRECORD
  5
16
102
{ACAD_REACTORS
330
12
102
}
330
12
100
AcDbXrecord
280
     1
270
     1
271
     1
  0
XRECORD
  5
18
102
{ACAD_REACTORS
330
12
102
}
330
12
100
AcDbXrecord
280
     1
270
     1
271
     1
  0
XRECORD
  5
15
102
{ACAD_REACTORS
330
12
102
}
330
12
100
AcDbXrecord
280
     1
270
     1
271
     1
  0
XRECORD
  5
24
102
{ACAD_REACTORS
330
22
102
}
330
22
100
AcDbXrecord
280
     1
270
     1
271
     1
  0
XRECORD
  5
23
102
{ACAD_REACTORS
330
22
102
}
330
22
100
AcDbXrecord
280
     1
270
     1
271
     1
  0
XRECORD
  5
27
102
{ACAD_REACTORS
330
22
102
}
330
22
100
AcDbXrecord
280
     1
270
     1
271
     1
  0
XRECORD
  5
26
102
{ACAD_REACTORS
330
22
102
}
330
22
100
AcDbXrecord
280
     1
270
     1
271
     1
  0
XRECORD
  5
28
102
{ACAD_REACTORS
330
22
102
}
330
22
100
AcDbXrecord
280
     1
270
     1
271
     1
  0
XRECORD
  5
25
102
{ACAD_REACTORS
330
22
102
}
330
22
100
AcDbXrecord
280
     1
270
     1
271
     1
  0
CELLSTYLEMAP
  5
81
102
{ACAD_REACTORS
330
80
102
}
330
80
100
AcDbCellStyleMap
 90
        3
300
CELLSTYLE
  1
TABLEFORMAT_BEGIN
 90
        5
170
     1
 91
        0
 92
    32768
 62
   257
 93
        1
300
CONTENTFORMAT
  1
CONTENTFORMAT_BEGIN
 90
        0
 91
        0
 92
      512
 93
        0
300

 40
0.0
140
1.0
 94
        5
 62
     0
340
55
144
0.25
309
CONTENTFORMAT_END
171
     0
 94
        0
309
TABLEFORMAT_END
  1
CELLSTYLE_BEGIN
 90
        1
 91
        1
300
_TITLE
309
CELLSTYLE_END
300
CELLSTYLE
  1
TABLEFORMAT_BEGIN
 90
        5
170
     1
 91
        0
 92
        0
 62
   257
 93
        1
300
CONTENTFORMAT
  1
CONTENTFORMAT_BEGIN
 90
        0
 91
        0
 92
      512
 93
        0
300

 40
0.0
140
1.0
 94
        5
 62
     0
340
55
144
0.18
309
CONTENTFORMAT_END
171
     0
 94
        0
309
TABLEFORMAT_END
  1
CELLSTYLE_BEGIN
 90
        2
 91
        1
300
_HEADER
309
CELLSTYLE_END
300
CELLSTYLE
  1
TABLEFORMAT_BEGIN
 90
        5
170
     1
 91
        0
 92
        0
 62
   257
 93
        1
300
CONTENTFORMAT
  1
CONTENTFORMAT_BEGIN
 90
        0
 91
        0
 92
      512
 93
        0
300

 40
0.0
140
1.0
 94
        2
 62
     0
340
55
144
0.18
309
CONTENTFORMAT_END
171
     0
 94
        0
309
TABLEFORMAT_END
  1
CELLSTYLE_BEGIN
 90
        3
 91
        2
300
_DATA
309
CELLSTYLE_END
  0
ENDSEC
  0
EOF
