  0
SECTION
  2
HEADER
  9
$ACADVER
  1
AC1032
  9
$ACADMAINTVER
 90
      155
  9
$DWGCODEPAGE
  3
ANSI_1251
  9
$REQUIREDVERSIONS
160
                 0
  9
$INSBASE
 10
0.0
 20
0.0
 30
0.0
  9
$EXTMIN
 10
1.000000000000000E+20
 20
1.000000000000000E+20
 30
1.000000000000000E+20
  9
$EXTMAX
 10
-1.000000000000000E+20
 20
-1.000000000000000E+20
 30
-1.000000000000000E+20
  9
$LIMMIN
 10
0.0
 20
0.0
  9
$LIMMAX
 10
12.0
 20
9.0
  9
$ORTHOMODE
 70
     0
  9
$REGENMODE
 70
     1
  9
$FILLMODE
 70
     1
  9
$QTEXTMODE
 70
     0
  9
$MIRRTEXT
 70
     0
  9
$LTSCALE
 40
1.0
  9
$ATTMODE
 70
     1
  9
$TEXTSIZE
 40
0.2
  9
$TRACEWID
 40
0.05
  9
$TEXTSTYLE
  7
Standard
  9
$CLAYER
  8
0
  9
$CELTYPE
  6
ByLayer
  9
$CECOLOR
 62
   256
  9
$CELTSCALE
 40
1.0
  9
$DISPSILH
 70
     0
  9
$DIMSCALE
 40
1.0
  9
$DIMASZ
 40
0.18
  9
$DIMEXO
 40
0.0625
  9
$DIMDLI
 40
0.38
  9
$DIMRND
 40
0.0
  9
$DIMDLE
 40
0.0
  9
$DIMEXE
 40
0.18
  9
$DIMTP
 40
0.0
  9
$DIMTM
 40
0.0
  9
$DIMTXT
 40
0.18
  9
$DIMCEN
 40
0.09
  9
$DIMTSZ
 40
0.0
  9
$DIMTOL
 70
     0
  9
$DIMLIM
 70
     0
  9
$DIMTIH
 70
     1
  9
$DIMTOH
 70
     1
  9
$DIMSE1
 70
     0
  9
$DIMSE2
 70
     0
  9
$DIMTAD
 70
     0
  9
$DIMZIN
 70
     0
  9
$DIMBLK
  1

  9
$DIMASO
 70
     1
  9
$DIMSHO
 70
     1
  9
$DIMPOST
  1

  9
$DIMAPOST
  1

  9
$DIMALT
 70
     0
  9
$DIMALTD
 70
     2
  9
$DIMALTF
 40
25.4
  9
$DIMLFAC
 40
1.0
  9
$DIMTOFL
 70
     0
  9
$DIMTVP
 40
0.0
  9
$DIMTIX
 70
     0
  9
$DIMSOXD
 70
     0
  9
$DIMSAH
 70
     0
  9
$DIMBLK1
  1

  9
$DIMBLK2
  1

  9
$DIMSTYLE
  2
Standard
  9
$DIMCLRD
 70
     0
  9
$DIMCLRE
 70
     0
  9
$DIMCLRT
 70
     0
  9
$DIMTFAC
 40
1.0
  9
$DIMGAP
 40
0.09
  9
$DIMJUST
 70
     0
  9
$DIMSD1
 70
     0
  9
$DIMSD2
 70
     0
  9
$DIMTOLJ
 70
     1
  9
$DIMTZIN
 70
     0
  9
$DIMALTZ
 70
     0
  9
$DIMALTTZ
 70
     0
  9
$DIMUPT
 70
     0
  9
$DIMDEC
 70
     4
  9
$DIMTDEC
 70
     4
  9
$DIMALTU
 70
     2
  9
$DIMALTTD
 70
     2
  9
$DIMTXSTY
  7
Standard
  9
$DIMAUNIT
 70
     0
  9
$DIMADEC
 70
     0
  9
$DIMALTRND
 40
0.0
  9
$DIMAZIN
 70
     0
  9
$DIMDSEP
 70
    46
  9
$DIMATFIT
 70
     3
  9
$DIMFRAC
 70
     0
  9
$DIMLDRBLK
  1

  9
$DIMLUNIT
 70
     2
  9
$DIMLWD
 70
    -2
  9
$DIMLWE
 70
    -2
  9
$DIMTMOVE
 70
     0
  9
$DIMFXL
 40
1.0
  9
$DIMFXLON
 70
     0
  9
$DIMJOGANG
 40
0.7853981633974483
  9
$DIMTFILL
 70
     0
  9
$DIMTFILLCLR
 70
     0
  9
$DIMARCSYM
 70
     0
  9
$DIMLTYPE
  6

  9
$DIMLTEX1
  6

  9
$DIMLTEX2
  6

  9
$DIMTXTDIRECTION
 70
     0
  9
$LUNITS
 70
     2
  9
$LUPREC
 70
     4
  9
$SKETCHINC
 40
0.1
  9
$FILLETRAD
 40
0.0
  9
$AUNITS
 70
     0
  9
$AUPREC
 70
     0
  9
$MENU
  1
.
  9
$ELEVATION
 40
0.0
  9
$PELEVATION
 40
0.0
  9
$THICKNESS
 40
0.0
  9
$LIMCHECK
 70
     0
  9
$CHAMFERA
 40
0.0
  9
$CHAMFERB
 40
0.0
  9
$CHAMFERC
 40
0.0
  9
$CHAMFERD
 40
0.0
  9
$SKPOLY
 70
     0
  9
$TDCREATE
 40
2459993.375763889
  9
$TDUCREATE
 40
2459993.334097223
  9
$TDUPDATE
 40
2459993.375763889
  9
$TDUUPDATE
 40
2459993.334097223
  9
$TDINDWG
 40
0.0000000000
  9
$TDUSRTIMER
 40
0.0000000000
  9
$USRTIMER
 70
     1
  9
$ANGBASE
 50
0.0
  9
$ANGDIR
 70
     0
  9
$PDMODE
 70
     0
  9
$PDSIZE
 40
0.0
  9
$PLINEWID
 40
0.0
  9
$SPLFRAME
 70
     0
  9
$SPLINETYPE
 70
     6
  9
$SPLINESEGS
 70
     8
  9
$HANDSEED
  5
98
  9
$SURFTAB1
 70
     6
  9
$SURFTAB2
 70
     6
  9
$SURFTYPE
 70
     6
  9
$SURFU
 70
     6
  9
$SURFV
 70
     6
  9
$UCSBASE
  2

  9
$UCSNAME
  2

  9
$UCSORG
 10
0.0
 20
0.0
 30
0.0
  9
$UCSXDIR
 10
1.0
 20
0.0
 30
0.0
  9
$UCSYDIR
 10
0.0
 20
1.0
 30
0.0
  9
$UCSORTHOREF
  2

  9
$UCSORTHOVIEW
 70
     0
  9
$UCSORGTOP
 10
0.0
 20
0.0
 30
0.0
  9
$UCSORGBOTTOM
 10
0.0
 20
0.0
 30
0.0
  9
$UCSORGLEFT
 10
0.0
 20
0.0
 30
0.0
  9
$UCSORGRIGHT
 10
0.0
 20
0.0
 30
0.0
  9
$UCSORGFRONT
 10
0.0
 20
0.0
 30
0.0
  9
$UCSORGBACK
 10
0.0
 20
0.0
 30
0.0
  9
$PUCSBASE
  2

  9
$PUCSNAME
  2

  9
$PUCSORG
 10
0.0
 20
0.0
 30
0.0
  9
$PUCSXDIR
 10
1.0
 20
0.0
 30
0.0
  9
$PUCSYDIR
 10
0.0
 20
1.0
 30
0.0
  9
$PUCSORTHOREF
  2

  9
$PUCSORTHOVIEW
 70
     0
  9
$PUCSORGTOP
 10
0.0
 20
0.0
 30
0.0
  9
$PUCSORGBOTTOM
 10
0.0
 20
0.0
 30
0.0
  9
$PUCSORGLEFT
 10
0.0
 20
0.0
 30
0.0
  9
$PUCSORGRIGHT
 10
0.0
 20
0.0
 30
0.0
  9
$PUCSORGFRONT
 10
0.0
 20
0.0
 30
0.0
  9
$PUCSORGBACK
 10
0.0
 20
0.0
 30
0.0
  9
$USERI1
 70
     0
  9
$USERI2
 70
     0
  9
$USERI3
 70
     0
  9
$USERI4
 70
     0
  9
$USERI5
 70
     0
  9
$USERR1
 40
0.0
  9
$USERR2
 40
0.0
  9
$USERR3
 40
0.0
  9
$USERR4
 40
0.0
  9
$USERR5
 40
0.0
  9
$WORLDVIEW
 70
     1
  9
$SHADEDGE
 70
     3
  9
$SHADEDIF
 70
    70
  9
$TILEMODE
 70
     1
  9
$MAXACTVP
 70
    64
  9
$PINSBASE
 10
0.0
 20
0.0
 30
0.0
  9
$PLIMCHECK
 70
     0
  9
$PEXTMIN
 10
1.000000000000000E+20
 20
1.000000000000000E+20
 30
1.000000000000000E+20
  9
$PEXTMAX
 10
-1.000000000000000E+20
 20
-1.000000000000000E+20
 30
-1.000000000000000E+20
  9
$PLIMMIN
 10
0.0
 20
0.0
  9
$PLIMMAX
 10
12.0
 20
9.0
  9
$UNITMODE
 70
     0
  9
$VISRETAIN
 70
     1
  9
$PLINEGEN
 70
     0
  9
$PSLTSCALE
 70
     1
  9
$TREEDEPTH
 70
  3020
  9
$CMLSTYLE
  2
Standard
  9
$CMLJUST
 70
     0
  9
$CMLSCALE
 40
1.0
  9
$PROXYGRAPHICS
 70
     1
  9
$MEASUREMENT
 70
     0
  9
$CELWEIGHT
370
    -1
  9
$ENDCAPS
280
     0
  9
$JOINSTYLE
280
     0
  9
$LWDISPLAY
290
     1
  9
$INSUNITS
 70
     5
  9
$HYPERLINKBASE
  1

  9
$STYLESHEET
  1

  9
$XEDIT
290
     1
  9
$CEPSNTYPE
380
     0
  9
$PSTYLEMODE
290
     1
  9
$FINGERPRINTGUID
  2
{0283DCF0-DABA-5545-94B5-AADBCD351E22}
  9
$VERSIONGUID
  2
{918FE47E-1CC8-FF4B-A691-CDFD089BD108}
  9
$EXTNAMES
290
     1
  9
$PSVPSCALE
 40
0.0
  9
$OLESTARTUP
290
     0
  9
$SORTENTS
280
   127
  9
$INDEXCTL
280
     0
  9
$HIDETEXT
280
     1
  9
$XCLIPFRAME
280
     2
  9
$HALOGAP
280
     0
  9
$OBSCOLOR
 70
   257
  9
$OBSLTYPE
280
     0
  9
$INTERSECTIONDISPLAY
280
     0
  9
$INTERSECTIONCOLOR
 70
   257
  9
$DIMASSOC
280
     2
  9
$PROJECTNAME
  1

  9
$CAMERADISPLAY
290
     0
  9
$LENSLENGTH
 40
50.0
  9
$CAMERAHEIGHT
 40
0.0
  9
$STEPSPERSEC
 40
2.0
  9
$STEPSIZE
 40
6.0
  9
$3DDWFPREC
 40
2.0
  9
$PSOLWIDTH
 40
0.25
  9
$PSOLHEIGHT
 40
4.0
  9
$LOFTANG1
 40
1.570796326794896
  9
$LOFTANG2
 40
1.570796326794896
  9
$LOFTMAG1
 40
0.0
  9
$LOFTMAG2
 40
0.0
  9
$LOFTPARAM
 70
     7
  9
$LOFTNORMALS
280
     1
  9
$LATITUDE
 40
37.795
  9
$LONGITUDE
 40
-122.394
  9
$NORTHDIRECTION
 40
0.0
  9
$TIMEZONE
 70
 -8000
  9
$LIGHTGLYPHDISPLAY
280
     1
  9
$TILEMODELIGHTSYNCH
280
     1
  9
$CMATERIAL
347
11
  9
$SOLIDHIST
280
     0
  9
$SHOWHIST
280
     1
  9
$DWFFRAME
280
     2
  9
$DGNFRAME
280
     0
  9
$REALWORLDSCALE
290
     1
  9
$INTERFERECOLOR
 62
     1
  9
$INTERFEREOBJVS
345
33
  9
$INTERFEREVPVS
346
30
  9
$CSHADOW
280
     0
  9
$SHADOWPLANELOCATION
 40
0.0
  0
ENDSEC
  0
SECTION
  2
CLASSES
  0
CLASS
  1
ACDBDICTIONARYWDFLT
  2
AcDbDictionaryWithDefault
  3
ObjectDBX Classes
 90
        0
 91
        1
280
     0
281
     0
  0
CLASS
  1
MATERIAL
  2
AcDbMaterial
  3
ObjectDBX Classes
 90
     1153
 91
        3
280
     0
281
     0
  0
CLASS
  1
VISUALSTYLE
  2
AcDbVisualStyle
  3
ObjectDBX Classes
 90
     4095
 91
       24
280
     0
281
     0
  0
CLASS
  1
SCALE
  2
AcDbScale
  3
ObjectDBX Classes
 90
     1153
 91
       17
280
     0
281
     0
  0
CLASS
  1
TABLESTYLE
  2
AcDbTableStyle
  3
ObjectDBX Classes
 90
     4095
 91
        1
280
     0
281
     0
  0
CLASS
  1
MLEADERSTYLE
  2
AcDbMLeaderStyle
  3
ACDB_MLEADERSTYLE_CLASS
 90
     4095
 91
        1
280
     0
281
     0
  0
CLASS
  1
ACDBSECTIONVIEWSTYLE
  2
AcDbSectionViewStyle
  3
ObjectDBX Classes
 90
     1025
 91
        1
280
     0
281
     0
  0
CLASS
  1
ACDBDETAILVIEWSTYLE
  2
AcDbDetailViewStyle
  3
ObjectDBX Classes
 90
     1025
 91
        1
280
     0
281
     0
  0
CLASS
  1
DICTIONARYVAR
  2
AcDbDictionaryVar
  3
ObjectDBX Classes
 90
        0
 91
        5
280
     0
281
     0
  0
CLASS
  1
CELLSTYLEMAP
  2
AcDbCellStyleMap
  3
ObjectDBX Classes
 90
     1152
 91
        1
280
     0
281
     0
  0
ENDSEC
  0
SECTION
  2
TABLES
  0
TABLE
  2
VPORT
  5
8
330
0
100
AcDbSymbolTable
 70
     1
  0
VPORT
  5
57
330
8
100
AcDbSymbolTableRecord
100
AcDbViewportTableRecord
  2
*Active
 70
     0
 10
0.0
 20
0.0
 11
1.0
 21
1.0
 12
0.0
 22
0.0
 13
0.0
 23
0.0
 14
1.0
 24
1.0
 15
0.0
 25
0.0
 16
0.0
 26
0.0
 36
1.0
 17
39.99999999000053
 27
-54.99999998625049
 37
0.0
 40
112.199999971951
 41
0.7272727272727304
 42
50.0
 43
0.0
 44
0.0
 50
0.0
 51
0.0
 71
     0
 72
   100
 73
     1
 74
     0
 75
     1
 76
     0
 77
     0
 78
     0
281
     0
 65
     1
110
0.0
120
0.0
130
0.0
111
1.0
121
0.0
131
0.0
112
0.0
122
1.0
132
0.0
 79
     0
146
0.0
 60
     3
 61
     5
292
     1
282
     1
141
0.0
142
0.0
 63
   250
421
  3355443
  0
ENDTAB
  0
TABLE
  2
LTYPE
  5
5
330
0
100
AcDbSymbolTable
 70
     1
  0
LTYPE
  5
5B
330
5
100
AcDbSymbolTableRecord
100
AcDbLinetypeTableRecord
  2
ByBlock
 70
     0
  3

 72
    65
 73
     0
 40
0.0
  0
LTYPE
  5
5C
330
5
100
AcDbSymbolTableRecord
100
AcDbLinetypeTableRecord
  2
ByLayer
 70
     0
  3

 72
    65
 73
     0
 40
0.0
  0
LTYPE
  5
5D
330
5
100
AcDbSymbolTableRecord
100
AcDbLinetypeTableRecord
  2
Continuous
 70
     0
  3
Solid line
 72
    65
 73
     0
 40
0.0
  0
ENDTAB
  0
TABLE
  2
LAYER
  5
2
330
0
100
AcDbSymbolTable
 70
     2
  0
LAYER
  5
54
330
2
100
AcDbSymbolTableRecord
100
AcDbLayerTableRecord
  2
0
 70
     0
 62
     7
  6
Continuous
370
    -3
390
F
347
21
348
0
  0
LAYER
  5
78
330
2
100
AcDbSymbolTableRecord
100
AcDbLayerTableRecord
  2
Слой 1
 70
     0
 62
     7
  6
Continuous
370
     0
390
F
347
21
348
0
  0
ENDTAB
  0
TABLE
  2
STYLE
  5
3
330
0
100
AcDbSymbolTable
 70
     2
  0
STYLE
  5
55
330
3
100
AcDbSymbolTableRecord
100
AcDbTextStyleTableRecord
  2
Standard
 70
     0
 40
0.0
 41
1.0
 50
0.0
 71
     0
 42
0.2
  3
txt
  4

  0
STYLE
  5
5A
330
3
100
AcDbSymbolTableRecord
100
AcDbTextStyleTableRecord
  2
Annotative
 70
     0
 40
0.0
 41
1.0
 50
0.0
 71
     0
 42
0.2
  3
txt
  4

1001
AcadAnnotative
1000
AnnotativeData
1002
{
1070
     1
1070
     1
1002
}
  0
ENDTAB
  0
TABLE
  2
VIEW
  5
6
330
0
100
AcDbSymbolTable
 70
     0
  0
ENDTAB
  0
TABLE
  2
UCS
  5
7
330
0
100
AcDbSymbolTable
 70
     0
  0
ENDTAB
  0
TABLE
  2
APPID
  5
9
330
0
100
AcDbSymbolTable
 70
     2
  0
APPID
  5
56
330
9
100
AcDbSymbolTableRecord
100
AcDbRegAppTableRecord
  2
ACAD
 70
     0
  0
APPID
  5
5E
330
9
100
AcDbSymbolTableRecord
100
AcDbRegAppTableRecord
  2
AcadAnnotative
 70
     0
  0
ENDTAB
  0
TABLE
  2
DIMSTYLE
  5
A
330
0
100
AcDbSymbolTable
 70
     2
100
AcDbDimStyleTable
 71
     0
  0
DIMSTYLE
105
58
330
A
100
AcDbSymbolTableRecord
100
AcDbDimStyleTableRecord
  2
Standard
 70
     0
340
55
  0
DIMSTYLE
105
59
330
A
100
AcDbSymbolTableRecord
100
AcDbDimStyleTableRecord
  2
Annotative
 70
     0
340
55
1001
AcadAnnotative
1000
AnnotativeData
1002
{
1070
     1
1070
     1
1002
}
  0
ENDTAB
  0
TABLE
  2
BLOCK_RECORD
  5
1
330
0
100
AcDbSymbolTable
 70
     3
  0
BLOCK_RECORD
  5
70
330
1
100
AcDbSymbolTableRecord
100
AcDbBlockTableRecord
  2
*Model_Space
340
73
 70
     0
280
     1
281
     0
  0
BLOCK_RECORD
  5
6C
330
1
100
AcDbSymbolTableRecord
100
AcDbBlockTableRecord
  2
*Paper_Space
340
6F
 70
     0
280
     1
281
     0
  0
BLOCK_RECORD
  5
74
330
1
100
AcDbSymbolTableRecord
100
AcDbBlockTableRecord
  2
*Paper_Space0
340
77
 70
     0
280
     1
281
     0
  0
BLOCK_RECORD
  5
7C
330
1
100
AcDbSymbolTableRecord
100
AcDbBlockTableRecord
  2
Block_0
340
0
102
{BLKREFS
331
7D
102
}
 70
     0
280
     1
281
     0
  0
BLOCK_RECORD
  5
80
330
1
100
AcDbSymbolTableRecord
100
AcDbBlockTableRecord
  2
Block_1
340
0
102
{BLKREFS
331
81
102
}
 70
     0
280
     1
281
     0
  0
ENDTAB
  0
ENDSEC
  0
SECTION
  2
BLOCKS
  0
BLOCK
  5
71
330
70
100
AcDbEntity
  8
0
100
AcDbBlockBegin
  2
*Model_Space
 70
     0
 10
0.0
 20
0.0
 30
0.0
  3
*Model_Space
  1

  0
ENDBLK
  5
72
330
70
100
AcDbEntity
  8
0
100
AcDbBlockEnd
  0
BLOCK
  5
6D
330
6C
100
AcDbEntity
 67
     1
  8
0
100
AcDbBlockBegin
  2
*Paper_Space
 70
     0
 10
0.0
 20
0.0
 30
0.0
  3
*Paper_Space
  1

  0
ENDBLK
  5
6E
330
6C
100
AcDbEntity
 67
     1
  8
0
100
AcDbBlockEnd
  0
BLOCK
  5
75
330
74
100
AcDbEntity
 67
     1
  8
0
100
AcDbBlockBegin
  2
*Paper_Space0
 70
     0
 10
0.0
 20
0.0
 30
0.0
  3
*Paper_Space0
  1

  0
ENDBLK
  5
76
330
74
100
AcDbEntity
 67
     1
  8
0
100
AcDbBlockEnd
  0
BLOCK
  5
7E
330
7C
100
AcDbEntity
  8
0
100
AcDbBlockBegin
  2
Block_0
 70
     0
 10
0.0
 20
0.0
 30
0.0
  3
Block_0
  1

  0
INSERT
  5
81
330
7C
100
AcDbEntity
  8
Слой 1
100
AcDbBlockReference
  2
Block_1
 10
0.0
 20
0.0
 30
0.0
  0
ENDBLK
  5
7F
330
7C
100
AcDbEntity
  8
0
100
AcDbBlockEnd
  0
BLOCK
  5
82
330
80
100
AcDbEntity
  8
0
100
AcDbBlockBegin
  2
Block_1
 70
     0
 10
0.0
 20
0.0
 30
0.0
  3
Block_1
  1

  0
SPLINE
  5
84
330
80
100
AcDbEntity
  8
Слой 1
100
AcDbSpline
210
0.0
220
0.0
230
1.0
 70
     9
 71
     3
 72
    59
 73
    55
 74
     0
 42
0.0000000001
 43
0.0000000001
 40
0.0
 40
0.0
 40
0.0
 40
0.0
 40
1.0
 40
1.0
 40
1.0
 40
2.0
 40
2.0
 40
2.0
 40
3.0
 40
3.0
 40
3.0
 40
4.0
 40
4.0
 40
4.0
 40
5.0
 40
5.0
 40
5.0
 40
6.0
 40
6.0
 40
6.0
 40
7.0
 40
7.0
 40
7.0
 40
8.0
 40
8.0
 40
8.0
 40
9.0
 40
9.0
 40
9.0
 40
10.0
 40
10.0
 40
10.0
 40
11.0
 40
11.0
 40
11.0
 40
12.0
 40
12.0
 40
12.0
 40
13.0
 40
13.0
 40
13.0
 40
14.0
 40
14.0
 40
14.0
 40
15.0
 40
15.0
 40
15.0
 40
16.0
 40
16.0
 40
16.0
 40
17.0
 40
17.0
 40
17.0
 40
18.0
 40
18.0
 40
18.0
 40
18.0
 10
39.08167994899694
 20
-86.91703746742005
 30
0.0
 10
39.1769368391641
 20
-86.97801565750896
 30
0.0
 10
39.39792248906544
 20
-87.07323809672127
 30
0.0
 10
39.6303286305004
 20
-87.07323809672127
 30
0.0
 10
40.06087943876949
 20
-87.07323809672127
 30
0.0
 10
40.19420463404866
 20
-86.79893959418567
 30
0.0
 10
40.19041502901489
 20
-86.59319849180656
 30
0.0
 10
40.18662542398112
 20
-86.24648408217101
 30
0.0
 10
39.87417248894639
 20
-86.09786266293733
 30
0.0
 10
39.55031628785548
 20
-86.09786266293733
 30
0.0
 10
39.55031628785548
 20
-86.09786266293733
 30
0.0
 10
39.36362656350978
 20
-86.09786266293733
 30
0.0
 10
39.36362656350978
 20
-86.09786266293733
 30
0.0
 10
39.36362656350978
 20
-86.09786266293733
 30
0.0
 10
39.36362656350978
 20
-85.84640514346894
 30
0.0
 10
39.36362656350978
 20
-85.84640514346894
 30
0.0
 10
39.36362656350978
 20
-85.84640514346894
 30
0.0
 10
39.55031628785548
 20
-85.84640514346894
 30
0.0
 10
39.55031628785548
 20
-85.84640514346894
 30
0.0
 10
39.79416014630146
 20
-85.84640514346894
 30
0.0
 10
40.10277179987014
 20
-85.72069360921217
 30
0.0
 10
40.10277179987014
 20
-85.42730927768831
 30
0.0
 10
40.10277179987014
 20
-85.22918183633159
 30
0.0
 10
39.97704304013595
 20
-85.05392982899692
 30
0.0
 10
39.66843138656726
 20
-85.05392982899692
 30
0.0
 10
39.47032117068797
 20
-85.05392982899692
 30
0.0
 10
39.27980739035366
 20
-85.14153860718684
 30
0.0
 10
39.1731300086529
 20
-85.21774411932055
 30
0.0
 10
39.1731300086529
 20
-85.21774411932055
 30
0.0
 10
39.08550400498557
 20
-84.97390026087456
 30
0.0
 10
39.08550400498557
 20
-84.97390026087456
 30
0.0
 10
39.21503959523096
 20
-84.87864337070742
 30
0.0
 10
39.46649711469934
 20
-84.78342093149512
 30
0.0
 10
39.73319918168996
 20
-84.78342093149512
 30
0.0
 10
40.2208696731045
 20
-84.78342093149512
 30
0.0
 10
40.44187254848328
 20
-85.07298120703037
 30
0.0
 10
40.44187254848328
 20
-85.37397919957664
 30
0.0
 10
40.44187254848328
 20
-85.62922632407881
 30
0.0
 10
40.28949597517068
 20
-85.84640514346894
 30
0.0
 10
39.98467392663577
 20
-85.95688935568091
 30
0.0
 10
39.98467392663577
 20
-85.95688935568091
 30
0.0
 10
39.98467392663577
 20
-85.96453746765815
 30
0.0
 10
39.98467392663577
 20
-85.96453746765815
 30
0.0
 10
40.28949597517068
 20
-86.02548120679223
 30
0.0
 10
40.53712943865043
 20
-86.25409774319342
 30
0.0
 10
40.53712943865043
 20
-86.60081215282895
 30
0.0
 10
40.53712943865043
 20
-86.99703258458754
 30
0.0
 10
40.22851778508175
 20
-87.34378144517794
 30
0.0
 10
39.63415268648903
 20
-87.34378144517794
 30
0.0
 10
39.35601290248739
 20
-87.34378144517794
 30
0.0
 10
39.1121690440414
 20
-87.25613821603317
 30
0.0
 10
38.99024711481841
 20
-87.17610864791081
 30
0.0
 10
38.99024711481841
 20
-87.17610864791081
 30
0.0
 10
39.08167994899694
 20
-86.91703746742005
 30
0.0
 10
39.08167994899694
 20
-86.91703746742005
 30
0.0
  0
HATCH
  5
85
330
80
100
AcDbEntity
  8
Слой 1
 62
     5
440
 33554687
100
AcDbHatch
 10
0.0
 20
0.0
 30
0.0
210
0.0
220
0.0
230
1.0
  2
SOLID
 70
     1
 71
     1
 91
        1
 92
        1
 93
        1
 72
     4
 94
        3
 73
     0
 74
     0
 95
       59
 96
       55
 40
0.0
 40
0.0
 40
0.0
 40
0.0
 40
1.0
 40
1.0
 40
1.0
 40
2.0
 40
2.0
 40
2.0
 40
3.0
 40
3.0
 40
3.0
 40
4.0
 40
4.0
 40
4.0
 40
5.0
 40
5.0
 40
5.0
 40
6.0
 40
6.0
 40
6.0
 40
7.0
 40
7.0
 40
7.0
 40
8.0
 40
8.0
 40
8.0
 40
9.0
 40
9.0
 40
9.0
 40
10.0
 40
10.0
 40
10.0
 40
11.0
 40
11.0
 40
11.0
 40
12.0
 40
12.0
 40
12.0
 40
13.0
 40
13.0
 40
13.0
 40
14.0
 40
14.0
 40
14.0
 40
15.0
 40
15.0
 40
15.0
 40
16.0
 40
16.0
 40
16.0
 40
17.0
 40
17.0
 40
17.0
 40
18.0
 40
18.0
 40
18.0
 40
18.0
 10
39.08167994899694
 20
-86.91703746742005
 10
39.1769368391641
 20
-86.97801565750896
 10
39.39792248906544
 20
-87.07323809672127
 10
39.6303286305004
 20
-87.07323809672127
 10
40.06087943876949
 20
-87.07323809672127
 10
40.19420463404866
 20
-86.79893959418567
 10
40.19041502901489
 20
-86.59319849180656
 10
40.18662542398112
 20
-86.24648408217101
 10
39.87417248894639
 20
-86.09786266293733
 10
39.55031628785548
 20
-86.09786266293733
 10
39.55031628785548
 20
-86.09786266293733
 10
39.36362656350978
 20
-86.09786266293733
 10
39.36362656350978
 20
-86.09786266293733
 10
39.36362656350978
 20
-86.09786266293733
 10
39.36362656350978
 20
-85.84640514346894
 10
39.36362656350978
 20
-85.84640514346894
 10
39.36362656350978
 20
-85.84640514346894
 10
39.55031628785548
 20
-85.84640514346894
 10
39.55031628785548
 20
-85.84640514346894
 10
39.79416014630146
 20
-85.84640514346894
 10
40.10277179987014
 20
-85.72069360921217
 10
40.10277179987014
 20
-85.42730927768831
 10
40.10277179987014
 20
-85.22918183633159
 10
39.97704304013595
 20
-85.05392982899692
 10
39.66843138656726
 20
-85.05392982899692
 10
39.47032117068797
 20
-85.05392982899692
 10
39.27980739035366
 20
-85.14153860718684
 10
39.1731300086529
 20
-85.21774411932055
 10
39.1731300086529
 20
-85.21774411932055
 10
39.08550400498557
 20
-84.97390026087456
 10
39.08550400498557
 20
-84.97390026087456
 10
39.21503959523096
 20
-84.87864337070742
 10
39.46649711469934
 20
-84.78342093149512
 10
39.73319918168996
 20
-84.78342093149512
 10
40.2208696731045
 20
-84.78342093149512
 10
40.44187254848328
 20
-85.07298120703037
 10
40.44187254848328
 20
-85.37397919957664
 10
40.44187254848328
 20
-85.62922632407881
 10
40.28949597517068
 20
-85.84640514346894
 10
39.98467392663577
 20
-85.95688935568091
 10
39.98467392663577
 20
-85.95688935568091
 10
39.98467392663577
 20
-85.96453746765815
 10
39.98467392663577
 20
-85.96453746765815
 10
40.28949597517068
 20
-86.02548120679223
 10
40.53712943865043
 20
-86.25409774319342
 10
40.53712943865043
 20
-86.60081215282895
 10
40.53712943865043
 20
-86.99703258458754
 10
40.22851778508175
 20
-87.34378144517794
 10
39.63415268648903
 20
-87.34378144517794
 10
39.35601290248739
 20
-87.34378144517794
 10
39.1121690440414
 20
-87.25613821603317
 10
38.99024711481841
 20
-87.17610864791081
 10
38.99024711481841
 20
-87.17610864791081
 10
39.08167994899694
 20
-86.91703746742005
 10
39.08167994899694
 20
-86.91703746742005
 97
        0
 97
        1
330
84
 75
     2
 76
     1
 98
        1
 10
0.0
 20
0.0
450
        0
451
        0
460
0.0
461
0.0
452
        0
462
0.0
453
        0
470

  0
SPLINE
  5
86
330
80
100
AcDbEntity
  8
Слой 1
100
AcDbSpline
210
0.0
220
0.0
230
1.0
 70
     9
 71
     3
 72
    17
 73
    13
 74
     0
 42
0.0000000001
 43
0.0000000001
 40
0.0
 40
0.0
 40
0.0
 40
0.0
 40
1.0
 40
1.0
 40
1.0
 40
2.0
 40
2.0
 40
2.0
 40
3.0
 40
3.0
 40
3.0
 40
4.0
 40
4.0
 40
4.0
 40
4.0
 10
41.33714951223516
 20
-85.4196956166659
 30
0.0
 10
41.33714951223516
 20
-85.66732908014566
 30
0.0
 10
41.52383923658084
 20
-85.80068872637969
 30
0.0
 10
41.80960990708231
 20
-85.87689423851342
 30
0.0
 10
42.02296467048383
 20
-85.8045127823683
 30
0.0
 10
42.18677896080746
 20
-85.65210175810085
 30
0.0
 10
42.18677896080746
 20
-85.42730927768831
 30
0.0
 10
42.18677896080746
 20
-85.22918183633159
 30
0.0
 10
42.0686810875731
 20
-85.02344073395248
 30
0.0
 10
41.76768309502683
 20
-85.02344073395248
 30
0.0
 10
41.48956053650261
 20
-85.02344073395248
 30
0.0
 10
41.33714951223516
 20
-85.20630640230953
 30
0.0
 10
41.33714951223516
 20
-85.4196956166659
 30
0.0
  0
SPLINE
  5
87
330
80
100
AcDbEntity
  8
Слой 1
100
AcDbSpline
210
0.0
220
0.0
230
1.0
 70
     9
 71
     3
 72
    17
 73
    13
 74
     0
 42
0.0000000001
 43
0.0000000001
 40
0.0
 40
0.0
 40
0.0
 40
0.0
 40
1.0
 40
1.0
 40
1.0
 40
2.0
 40
2.0
 40
2.0
 40
3.0
 40
3.0
 40
3.0
 40
4.0
 40
4.0
 40
4.0
 40
4.0
 10
42.25919486790742
 20
-86.65796628692925
 30
0.0
 10
42.25919486790742
 20
-86.35696829438298
 30
0.0
 10
42.04962970953967
 20
-86.21217093113791
 30
0.0
 10
41.71435301691515
 20
-86.11691404097078
 30
0.0
 10
41.42479274137991
 20
-86.20073321412689
 30
0.0
 10
41.26859211207868
 20
-86.39124699446121
 30
0.0
 10
41.26859211207868
 20
-86.62747719188478
 30
0.0
 10
41.25715439506765
 20
-86.87893471135318
 30
0.0
 10
41.44766817540197
 20
-87.09993758673196
 30
0.0
 10
41.7638590390382
 20
-87.09993758673196
 30
0.0
 10
42.06489148253933
 20
-87.09993758673196
 30
0.0
 10
42.25919486790742
 20
-86.91321341143142
 30
0.0
 10
42.25919486790742
 20
-86.65796628692925
 30
0.0
  0
SPLINE
  5
88
330
80
100
AcDbEntity
  8
Слой 1
100
AcDbSpline
210
0.0
220
0.0
230
1.0
 70
     9
 71
     3
 72
    35
 73
    31
 74
     0
 42
0.0000000001
 43
0.0000000001
 40
0.0
 40
0.0
 40
0.0
 40
0.0
 40
1.0
 40
1.0
 40
1.0
 40
2.0
 40
2.0
 40
2.0
 40
3.0
 40
3.0
 40
3.0
 40
4.0
 40
4.0
 40
4.0
 40
5.0
 40
5.0
 40
5.0
 40
6.0
 40
6.0
 40
6.0
 40
7.0
 40
7.0
 40
7.0
 40
8.0
 40
8.0
 40
8.0
 40
9.0
 40
9.0
 40
9.0
 40
10.0
 40
10.0
 40
10.0
 40
10.0
 10
40.92566730747691
 20
-86.67319360897407
 30
0.0
 10
40.92566730747691
 20
-86.36075789941676
 30
0.0
 10
41.1123570318226
 20
-86.13978947499282
 30
0.0
 10
41.41714462940266
 20
-86.01025388474743
 30
0.0
 10
41.41714462940266
 20
-86.01025388474743
 30
0.0
 10
41.41335502436888
 20
-85.99881616773641
 30
0.0
 10
41.41335502436888
 20
-85.99881616773641
 30
0.0
 10
41.13902207087843
 20
-85.86928057749101
 30
0.0
 10
41.02092419764407
 20
-85.65592581408948
 30
0.0
 10
41.02092419764407
 20
-85.4425365997331
 30
0.0
 10
41.02092419764407
 20
-85.05010577300829
 30
0.0
 10
41.35237683427996
 20
-84.78342093149512
 30
0.0
 10
41.78673447306025
 20
-84.78342093149512
 30
0.0
 10
42.26680852892982
 20
-84.78342093149512
 30
0.0
 10
42.50682833138717
 20
-85.08438447308654
 30
0.0
 10
42.50682833138717
 20
-85.39303057761006
 30
0.0
 10
42.50682833138717
 20
-85.60256128502295
 30
0.0
 10
42.40395778019761
 20
-85.82735376543551
 30
0.0
 10
42.09917018261756
 20
-85.97215112868056
 30
0.0
 10
42.09917018261756
 20
-85.97215112868056
 30
0.0
 10
42.09917018261756
 20
-85.9835888456916
 30
0.0
 10
42.09917018261756
 20
-85.9835888456916
 30
0.0
 10
42.40778183618624
 20
-86.10551077491459
 30
0.0
 10
42.5982611655657
 20
-86.32265514334989
 30
0.0
 10
42.5982611655657
 20
-86.62365313589615
 30
0.0
 10
42.5982611655657
 20
-87.05418671868782
 30
0.0
 10
42.22870577286296
 20
-87.34378144517794
 30
0.0
 10
41.75627982897064
 20
-87.34378144517794
 30
0.0
 10
41.23806856607937
 20
-87.34378144517794
 30
0.0
 10
40.92566730747691
 20
-87.03513534065441
 30
0.0
 10
40.92566730747691
 20
-86.67319360897407
 30
0.0
  0
HATCH
  5
89
330
80
100
AcDbEntity
  8
Слой 1
 62
     5
440
 33554687
100
AcDbHatch
 10
0.0
 20
0.0
 30
0.0
210
0.0
220
0.0
230
1.0
  2
SOLID
 70
     1
 71
     1
 91
        3
 92
        1
 93
        1
 72
     4
 94
        3
 73
     0
 74
     0
 95
       17
 96
       13
 40
0.0
 40
0.0
 40
0.0
 40
0.0
 40
1.0
 40
1.0
 40
1.0
 40
2.0
 40
2.0
 40
2.0
 40
3.0
 40
3.0
 40
3.0
 40
4.0
 40
4.0
 40
4.0
 40
4.0
 10
41.33714951223516
 20
-85.4196956166659
 10
41.33714951223516
 20
-85.66732908014566
 10
41.52383923658084
 20
-85.80068872637969
 10
41.80960990708231
 20
-85.87689423851342
 10
42.02296467048383
 20
-85.8045127823683
 10
42.18677896080746
 20
-85.65210175810085
 10
42.18677896080746
 20
-85.42730927768831
 10
42.18677896080746
 20
-85.22918183633159
 10
42.0686810875731
 20
-85.02344073395248
 10
41.76768309502683
 20
-85.02344073395248
 10
41.48956053650261
 20
-85.02344073395248
 10
41.33714951223516
 20
-85.20630640230953
 10
41.33714951223516
 20
-85.4196956166659
 97
        0
 97
        1
330
86
 92
        1
 93
        1
 72
     4
 94
        3
 73
     0
 74
     0
 95
       17
 96
       13
 40
0.0
 40
0.0
 40
0.0
 40
0.0
 40
1.0
 40
1.0
 40
1.0
 40
2.0
 40
2.0
 40
2.0
 40
3.0
 40
3.0
 40
3.0
 40
4.0
 40
4.0
 40
4.0
 40
4.0
 10
42.25919486790742
 20
-86.65796628692925
 10
42.25919486790742
 20
-86.35696829438298
 10
42.04962970953967
 20
-86.21217093113791
 10
41.71435301691515
 20
-86.11691404097078
 10
41.42479274137991
 20
-86.20073321412689
 10
41.26859211207868
 20
-86.39124699446121
 10
41.26859211207868
 20
-86.62747719188478
 10
41.25715439506765
 20
-86.87893471135318
 10
41.44766817540197
 20
-87.09993758673196
 10
41.7638590390382
 20
-87.09993758673196
 10
42.06489148253933
 20
-87.09993758673196
 10
42.25919486790742
 20
-86.91321341143142
 10
42.25919486790742
 20
-86.65796628692925
 97
        0
 97
        1
330
87
 92
        1
 93
        1
 72
     4
 94
        3
 73
     0
 74
     0
 95
       35
 96
       31
 40
0.0
 40
0.0
 40
0.0
 40
0.0
 40
1.0
 40
1.0
 40
1.0
 40
2.0
 40
2.0
 40
2.0
 40
3.0
 40
3.0
 40
3.0
 40
4.0
 40
4.0
 40
4.0
 40
5.0
 40
5.0
 40
5.0
 40
6.0
 40
6.0
 40
6.0
 40
7.0
 40
7.0
 40
7.0
 40
8.0
 40
8.0
 40
8.0
 40
9.0
 40
9.0
 40
9.0
 40
10.0
 40
10.0
 40
10.0
 40
10.0
 10
40.92566730747691
 20
-86.67319360897407
 10
40.92566730747691
 20
-86.36075789941676
 10
41.1123570318226
 20
-86.13978947499282
 10
41.41714462940266
 20
-86.01025388474743
 10
41.41714462940266
 20
-86.01025388474743
 10
41.41335502436888
 20
-85.99881616773641
 10
41.41335502436888
 20
-85.99881616773641
 10
41.13902207087843
 20
-85.86928057749101
 10
41.02092419764407
 20
-85.65592581408948
 10
41.02092419764407
 20
-85.4425365997331
 10
41.02092419764407
 20
-85.05010577300829
 10
41.35237683427996
 20
-84.78342093149512
 10
41.78673447306025
 20
-84.78342093149512
 10
42.26680852892982
 20
-84.78342093149512
 10
42.50682833138717
 20
-85.08438447308654
 10
42.50682833138717
 20
-85.39303057761006
 10
42.50682833138717
 20
-85.60256128502295
 10
42.40395778019761
 20
-85.82735376543551
 10
42.09917018261756
 20
-85.97215112868056
 10
42.09917018261756
 20
-85.97215112868056
 10
42.09917018261756
 20
-85.9835888456916
 10
42.09917018261756
 20
-85.9835888456916
 10
42.40778183618624
 20
-86.10551077491459
 10
42.5982611655657
 20
-86.32265514334989
 10
42.5982611655657
 20
-86.62365313589615
 10
42.5982611655657
 20
-87.05418671868782
 10
42.22870577286296
 20
-87.34378144517794
 10
41.75627982897064
 20
-87.34378144517794
 10
41.23806856607937
 20
-87.34378144517794
 10
40.92566730747691
 20
-87.03513534065441
 10
40.92566730747691
 20
-86.67319360897407
 97
        0
 97
        1
330
88
 75
     2
 76
     1
 98
        1
 10
0.0
 20
0.0
450
        0
451
        0
460
0.0
461
0.0
452
        0
462
0.0
453
        0
470

  0
SPLINE
  5
8A
330
80
100
AcDbEntity
  8
Слой 1
100
AcDbSpline
210
0.0
220
0.0
230
1.0
 70
    11
 71
     3
 72
    29
 73
    25
 74
     0
 42
0.0000000001
 43
0.0000000001
 40
0.0
 40
0.0
 40
0.0
 40
0.0
 40
1.0
 40
1.0
 40
1.0
 40
2.0
 40
2.0
 40
2.0
 40
3.0
 40
3.0
 40
3.0
 40
4.0
 40
4.0
 40
4.0
 40
5.0
 40
5.0
 40
5.0
 40
6.0
 40
6.0
 40
6.0
 40
7.0
 40
7.0
 40
7.0
 40
8.0
 40
8.0
 40
8.0
 40
8.0
 10
44.51848848713426
 20
-84.82531329259575
 30
0.0
 10
44.51848848713426
 20
-84.82531329259575
 30
0.0
 10
44.51848848713426
 20
-85.04628171701966
 30
0.0
 10
44.51848848713426
 20
-85.04628171701966
 30
0.0
 10
44.51848848713426
 20
-85.04628171701966
 30
0.0
 10
43.44020805120591
 20
-87.30185463312244
 30
0.0
 10
43.44020805120591
 20
-87.30185463312244
 30
0.0
 10
43.44020805120591
 20
-87.30185463312244
 30
0.0
 10
43.09349364157037
 20
-87.30185463312244
 30
0.0
 10
43.09349364157037
 20
-87.30185463312244
 30
0.0
 10
43.09349364157037
 20
-87.30185463312244
 30
0.0
 10
44.16791557055524
 20
-85.11108396309722
 30
0.0
 10
44.16791557055524
 20
-85.11108396309722
 30
0.0
 10
44.16791557055524
 20
-85.11108396309722
 30
0.0
 10
44.16791557055524
 20
-85.10343585111996
 30
0.0
 10
44.16791557055524
 20
-85.10343585111996
 30
0.0
 10
44.16791557055524
 20
-85.10343585111996
 30
0.0
 10
42.95634439030258
 20
-85.10343585111996
 30
0.0
 10
42.95634439030258
 20
-85.10343585111996
 30
0.0
 10
42.95634439030258
 20
-85.10343585111996
 30
0.0
 10
42.95634439030258
 20
-84.82531329259575
 30
0.0
 10
42.95634439030258
 20
-84.82531329259575
 30
0.0
 10
42.95634439030258
 20
-84.82531329259575
 30
0.0
 10
44.51848848713426
 20
-84.82531329259575
 30
0.0
 10
44.51848848713426
 20
-84.82531329259575
 30
0.0
  0
HATCH
  5
8B
330
80
100
AcDbEntity
  8
Слой 1
 62
     5
440
 33554687
100
AcDbHatch
 10
0.0
 20
0.0
 30
0.0
210
0.0
220
0.0
230
1.0
  2
SOLID
 70
     1
 71
     1
 91
        1
 92
        1
 93
        1
 72
     4
 94
        3
 73
     0
 74
     0
 95
       29
 96
       25
 40
0.0
 40
0.0
 40
0.0
 40
0.0
 40
1.0
 40
1.0
 40
1.0
 40
2.0
 40
2.0
 40
2.0
 40
3.0
 40
3.0
 40
3.0
 40
4.0
 40
4.0
 40
4.0
 40
5.0
 40
5.0
 40
5.0
 40
6.0
 40
6.0
 40
6.0
 40
7.0
 40
7.0
 40
7.0
 40
8.0
 40
8.0
 40
8.0
 40
8.0
 10
44.51848848713426
 20
-84.82531329259575
 10
44.51848848713426
 20
-84.82531329259575
 10
44.51848848713426
 20
-85.04628171701966
 10
44.51848848713426
 20
-85.04628171701966
 10
44.51848848713426
 20
-85.04628171701966
 10
43.44020805120591
 20
-87.30185463312244
 10
43.44020805120591
 20
-87.30185463312244
 10
43.44020805120591
 20
-87.30185463312244
 10
43.09349364157037
 20
-87.30185463312244
 10
43.09349364157037
 20
-87.30185463312244
 10
43.09349364157037
 20
-87.30185463312244
 10
44.16791557055524
 20
-85.11108396309722
 10
44.16791557055524
 20
-85.11108396309722
 10
44.16791557055524
 20
-85.11108396309722
 10
44.16791557055524
 20
-85.10343585111996
 10
44.16791557055524
 20
-85.10343585111996
 10
44.16791557055524
 20
-85.10343585111996
 10
42.95634439030258
 20
-85.10343585111996
 10
42.95634439030258
 20
-85.10343585111996
 10
42.95634439030258
 20
-85.10343585111996
 10
42.95634439030258
 20
-84.82531329259575
 10
42.95634439030258
 20
-84.82531329259575
 10
42.95634439030258
 20
-84.82531329259575
 10
44.51848848713426
 20
-84.82531329259575
 10
44.51848848713426
 20
-84.82531329259575
 97
        0
 97
        1
330
8A
 75
     2
 76
     1
 98
        1
 10
0.0
 20
0.0
450
        0
451
        0
460
0.0
461
0.0
452
        0
462
0.0
453
        0
470

  0
SPLINE
  5
8C
330
80
100
AcDbEntity
  8
Слой 1
100
AcDbSpline
210
0.0
220
0.0
230
1.0
 70
     9
 71
     3
 72
    20
 73
    16
 74
     0
 42
0.0000000001
 43
0.0000000001
 40
0.0
 40
0.0
 40
0.0
 40
0.0
 40
1.0
 40
1.0
 40
1.0
 40
2.0
 40
2.0
 40
2.0
 40
3.0
 40
3.0
 40
3.0
 40
4.0
 40
4.0
 40
4.0
 40
5.0
 40
5.0
 40
5.0
 40
5.0
 10
46.1833653313361
 20
-86.490327940617
 30
0.0
 10
46.1833653313361
 20
-86.13596541900419
 30
0.0
 10
45.98141383399076
 20
-85.92261065560267
 30
0.0
 10
45.67280218042207
 20
-85.92261065560267
 30
0.0
 10
45.47088513403158
 20
-85.92261065560267
 30
0.0
 10
45.28419540968589
 20
-86.04835664081429
 30
0.0
 10
45.19276257550735
 20
-86.22743270413758
 30
0.0
 10
45.1698871414853
 20
-86.26550100924958
 30
0.0
 10
45.15465981944049
 20
-86.31504148232748
 30
0.0
 10
45.15465981944049
 20
-86.37601967241641
 30
0.0
 10
45.1622734804629
 20
-86.78367782118602
 30
0.0
 10
45.34896320480859
 20
-87.08467581373231
 30
0.0
 10
45.69950167043276
 20
-87.08467581373231
 30
0.0
 10
45.98906194596801
 20
-87.08467581373231
 30
0.0
 10
46.1833653313361
 20
-86.84465601127493
 30
0.0
 10
46.1833653313361
 20
-86.490327940617
 30
0.0
  0
SPLINE
  5
8D
330
80
100
AcDbEntity
  8
Слой 1
100
AcDbSpline
210
0.0
220
0.0
230
1.0
 70
     9
 71
     3
 72
    38
 73
    34
 74
     0
 42
0.0000000001
 43
0.0000000001
 40
0.0
 40
0.0
 40
0.0
 40
0.0
 40
1.0
 40
1.0
 40
1.0
 40
2.0
 40
2.0
 40
2.0
 40
3.0
 40
3.0
 40
3.0
 40
4.0
 40
4.0
 40
4.0
 40
5.0
 40
5.0
 40
5.0
 40
6.0
 40
6.0
 40
6.0
 40
7.0
 40
7.0
 40
7.0
 40
8.0
 40
8.0
 40
8.0
 40
9.0
 40
9.0
 40
9.0
 40
10.0
 40
10.0
 40
10.0
 40
11.0
 40
11.0
 40
11.0
 40
11.0
 10
46.27862222150326
 20
-85.06154349001933
 30
0.0
 10
46.21003037039193
 20
-85.0577194340307
 30
0.0
 10
46.12238714124718
 20
-85.06154349001933
 30
0.0
 10
46.02716470203487
 20
-85.07677081206415
 30
0.0
 10
45.50137422907604
 20
-85.16441404120888
 30
0.0
 10
45.22321721959697
 20
-85.5492312069113
 30
0.0
 10
45.16609753645153
 20
-85.95688935568091
 30
0.0
 10
45.16609753645153
 20
-85.95688935568091
 30
0.0
 10
45.17753525346256
 20
-85.95688935568091
 30
0.0
 10
45.17753525346256
 20
-85.95688935568091
 30
0.0
 10
45.29563312669692
 20
-85.80068872637969
 30
0.0
 10
45.50137422907604
 20
-85.67115313613429
 30
0.0
 10
45.77567273161164
 20
-85.67115313613429
 30
0.0
 10
46.21385442638056
 20
-85.67115313613429
 30
0.0
 10
46.52246607994924
 20
-85.98737845072538
 30
0.0
 10
46.52246607994924
 20
-86.47127656258357
 30
0.0
 10
46.52246607994924
 20
-86.92465112844244
 30
0.0
 10
46.21385442638056
 20
-87.34378144517794
 30
0.0
 10
45.69950167043276
 20
-87.34378144517794
 30
0.0
 10
45.1698871414853
 20
-87.34378144517794
 30
0.0
 10
44.82317273184976
 20
-86.93226478946483
 30
0.0
 10
44.82317273184976
 20
-86.28837644327164
 30
0.0
 10
44.82317273184976
 20
-85.80068872637969
 30
0.0
 10
44.99845919013927
 20
-85.41587156067727
 30
0.0
 10
45.24230304858526
 20
-85.17202770223128
 30
0.0
 10
45.44804415096437
 20
-84.9701106558408
 30
0.0
 10
45.72234265349996
 20
-84.84436467062918
 30
0.0
 10
46.03477836305727
 20
-84.80626191456231
 30
0.0
 10
46.1338248582582
 20
-84.79103459251751
 30
0.0
 10
46.21767848236919
 20
-84.78721053652888
 30
0.0
 10
46.27862222150326
 20
-84.78721053652888
 30
0.0
 10
46.27862222150326
 20
-84.78721053652888
 30
0.0
 10
46.27862222150326
 20
-85.06154349001933
 30
0.0
 10
46.27862222150326
 20
-85.06154349001933
 30
0.0
  0
HATCH
  5
8E
330
80
100
AcDbEntity
  8
Слой 1
 62
     5
440
 33554687
100
AcDbHatch
 10
0.0
 20
0.0
 30
0.0
210
0.0
220
0.0
230
1.0
  2
SOLID
 70
     1
 71
     1
 91
        2
 92
        1
 93
        1
 72
     4
 94
        3
 73
     0
 74
     0
 95
       20
 96
       16
 40
0.0
 40
0.0
 40
0.0
 40
0.0
 40
1.0
 40
1.0
 40
1.0
 40
2.0
 40
2.0
 40
2.0
 40
3.0
 40
3.0
 40
3.0
 40
4.0
 40
4.0
 40
4.0
 40
5.0
 40
5.0
 40
5.0
 40
5.0
 10
46.1833653313361
 20
-86.490327940617
 10
46.1833653313361
 20
-86.13596541900419
 10
45.98141383399076
 20
-85.92261065560267
 10
45.67280218042207
 20
-85.92261065560267
 10
45.47088513403158
 20
-85.92261065560267
 10
45.28419540968589
 20
-86.04835664081429
 10
45.19276257550735
 20
-86.22743270413758
 10
45.1698871414853
 20
-86.26550100924958
 10
45.15465981944049
 20
-86.31504148232748
 10
45.15465981944049
 20
-86.37601967241641
 10
45.1622734804629
 20
-86.78367782118602
 10
45.34896320480859
 20
-87.08467581373231
 10
45.69950167043276
 20
-87.08467581373231
 10
45.98906194596801
 20
-87.08467581373231
 10
46.1833653313361
 20
-86.84465601127493
 10
46.1833653313361
 20
-86.490327940617
 97
        0
 97
        1
330
8C
 92
        1
 93
        1
 72
     4
 94
        3
 73
     0
 74
     0
 95
       38
 96
       34
 40
0.0
 40
0.0
 40
0.0
 40
0.0
 40
1.0
 40
1.0
 40
1.0
 40
2.0
 40
2.0
 40
2.0
 40
3.0
 40
3.0
 40
3.0
 40
4.0
 40
4.0
 40
4.0
 40
5.0
 40
5.0
 40
5.0
 40
6.0
 40
6.0
 40
6.0
 40
7.0
 40
7.0
 40
7.0
 40
8.0
 40
8.0
 40
8.0
 40
9.0
 40
9.0
 40
9.0
 40
10.0
 40
10.0
 40
10.0
 40
11.0
 40
11.0
 40
11.0
 40
11.0
 10
46.27862222150326
 20
-85.06154349001933
 10
46.21003037039193
 20
-85.0577194340307
 10
46.12238714124718
 20
-85.06154349001933
 10
46.02716470203487
 20
-85.07677081206415
 10
45.50137422907604
 20
-85.16441404120888
 10
45.22321721959697
 20
-85.5492312069113
 10
45.16609753645153
 20
-85.95688935568091
 10
45.16609753645153
 20
-85.95688935568091
 10
45.17753525346256
 20
-85.95688935568091
 10
45.17753525346256
 20
-85.95688935568091
 10
45.29563312669692
 20
-85.80068872637969
 10
45.50137422907604
 20
-85.67115313613429
 10
45.77567273161164
 20
-85.67115313613429
 10
46.21385442638056
 20
-85.67115313613429
 10
46.52246607994924
 20
-85.98737845072538
 10
46.52246607994924
 20
-86.47127656258357
 10
46.52246607994924
 20
-86.92465112844244
 10
46.21385442638056
 20
-87.34378144517794
 10
45.69950167043276
 20
-87.34378144517794
 10
45.1698871414853
 20
-87.34378144517794
 10
44.82317273184976
 20
-86.93226478946483
 10
44.82317273184976
 20
-86.28837644327164
 10
44.82317273184976
 20
-85.80068872637969
 10
44.99845919013927
 20
-85.41587156067727
 10
45.24230304858526
 20
-85.17202770223128
 10
45.44804415096437
 20
-84.9701106558408
 10
45.72234265349996
 20
-84.84436467062918
 10
46.03477836305727
 20
-84.80626191456231
 10
46.1338248582582
 20
-84.79103459251751
 10
46.21767848236919
 20
-84.78721053652888
 10
46.27862222150326
 20
-84.78721053652888
 10
46.27862222150326
 20
-84.78721053652888
 10
46.27862222150326
 20
-85.06154349001933
 10
46.27862222150326
 20
-85.06154349001933
 97
        0
 97
        1
330
8D
 75
     2
 76
     1
 98
        1
 10
0.0
 20
0.0
450
        0
451
        0
460
0.0
461
0.0
452
        0
462
0.0
453
        0
470

  0
ENDBLK
  5
83
330
80
100
AcDbEntity
  8
0
100
AcDbBlockEnd
  0
ENDSEC
  0
SECTION
  2
ENTITIES
  0
SPLINE
  5
79
330
70
100
AcDbEntity
  8
Слой 1
 62
     7
370
    35
100
AcDbSpline
210
0.0
220
0.0
230
1.0
 70
     9
 71
     3
 72
    17
 73
    13
 74
     0
 42
0.0000000001
 43
0.0000000001
 40
0.0
 40
0.0
 40
0.0
 40
0.0
 40
1.0
 40
1.0
 40
1.0
 40
2.0
 40
2.0
 40
2.0
 40
3.0
 40
3.0
 40
3.0
 40
4.0
 40
4.0
 40
4.0
 40
4.0
 10
33.2062907082655
 20
-84.73990937088084
 30
0.0
 10
33.78916210704569
 20
-84.73834185246124
 30
0.0
 10
34.28295194933812
 20
-84.24295434718187
 30
0.0
 10
34.28235336402373
 20
-83.66035424967128
 30
0.0
 10
34.28174616597096
 20
-83.06965817777033
 30
0.0
 10
33.80062135599976
 20
-82.59449338294562
 30
0.0
 10
33.20279393644436
 20
-82.59417471158641
 30
0.0
 10
32.59902372717689
 20
-82.59385604022687
 30
0.0
 10
32.1348229487347
 20
-83.05959849885695
 30
0.0
 10
32.13674789580994
 20
-83.66376489410534
 30
0.0
 10
32.13865131103871
 20
-84.26116167672516
 30
0.0
 10
32.61603819240823
 20
-84.74149411477755
 30
0.0
 10
33.2062907082655
 20
-84.73990937088084
 30
0.0
  0
SPLINE
  5
7A
330
70
100
AcDbEntity
  8
Слой 1
 62
     7
370
    35
100
AcDbSpline
210
0.0
220
0.0
230
1.0
 70
     9
 71
     3
 72
    17
 73
    13
 74
     0
 42
0.0000000001
 43
0.0000000001
 40
0.0
 40
0.0
 40
0.0
 40
0.0
 40
1.0
 40
1.0
 40
1.0
 40
2.0
 40
2.0
 40
2.0
 40
3.0
 40
3.0
 40
3.0
 40
4.0
 40
4.0
 40
4.0
 40
4.0
 10
51.1389062807287
 20
-82.59433835442724
 30
0.0
 10
50.54515053339954
 20
-82.60381236698497
 30
0.0
 10
50.06843544560609
 20
-83.09439396406318
 30
0.0
 10
50.08153111479302
 20
-83.68248898887333
 30
0.0
 10
50.09453419703885
 20
-84.26667383030773
 30
0.0
 10
50.5985473601398
 20
-84.75204472050851
 30
0.0
 10
51.17956917328179
 20
-84.73990075894906
 30
0.0
 10
51.77108345536098
 20
-84.727550091661
 30
0.0
 10
52.23445525770294
 20
-84.24173133909057
 30
0.0
 10
52.2270483024366
 20
-83.64168183294687
 30
0.0
 10
52.21963488761623
 20
-83.04100359687708
 30
0.0
 10
51.74550577466394
 20
-82.58465763614088
 30
0.0
 10
51.1389062807287
 20
-82.59433835442724
 30
0.0
  0
SPLINE
  5
7B
330
70
100
AcDbEntity
  8
Слой 1
 62
     7
370
    35
100
AcDbSpline
210
0.0
220
0.0
230
1.0
 70
     9
 71
     3
 72
   344
 73
   340
 74
     0
 42
0.0000000001
 43
0.0000000001
 40
0.0
 40
0.0
 40
0.0
 40
0.0
 40
1.0
 40
1.0
 40
1.0
 40
2.0
 40
2.0
 40
2.0
 40
3.0
 40
3.0
 40
3.0
 40
4.0
 40
4.0
 40
4.0
 40
5.0
 40
5.0
 40
5.0
 40
6.0
 40
6.0
 40
6.0
 40
7.0
 40
7.0
 40
7.0
 40
8.0
 40
8.0
 40
8.0
 40
9.0
 40
9.0
 40
9.0
 40
10.0
 40
10.0
 40
10.0
 40
11.0
 40
11.0
 40
11.0
 40
12.0
 40
12.0
 40
12.0
 40
13.0
 40
13.0
 40
13.0
 40
14.0
 40
14.0
 40
14.0
 40
15.0
 40
15.0
 40
15.0
 40
16.0
 40
16.0
 40
16.0
 40
17.0
 40
17.0
 40
17.0
 40
18.0
 40
18.0
 40
18.0
 40
19.0
 40
19.0
 40
19.0
 40
20.0
 40
20.0
 40
20.0
 40
21.0
 40
21.0
 40
21.0
 40
22.0
 40
22.0
 40
22.0
 40
23.0
 40
23.0
 40
23.0
 40
24.0
 40
24.0
 40
24.0
 40
25.0
 40
25.0
 40
25.0
 40
26.0
 40
26.0
 40
26.0
 40
27.0
 40
27.0
 40
27.0
 40
28.0
 40
28.0
 40
28.0
 40
29.0
 40
29.0
 40
29.0
 40
30.0
 40
30.0
 40
30.0
 40
31.0
 40
31.0
 40
31.0
 40
32.0
 40
32.0
 40
32.0
 40
33.0
 40
33.0
 40
33.0
 40
34.0
 40
34.0
 40
34.0
 40
35.0
 40
35.0
 40
35.0
 40
36.0
 40
36.0
 40
36.0
 40
37.0
 40
37.0
 40
37.0
 40
38.0
 40
38.0
 40
38.0
 40
39.0
 40
39.0
 40
39.0
 40
40.0
 40
40.0
 40
40.0
 40
41.0
 40
41.0
 40
41.0
 40
42.0
 40
42.0
 40
42.0
 40
43.0
 40
43.0
 40
43.0
 40
44.0
 40
44.0
 40
44.0
 40
45.0
 40
45.0
 40
45.0
 40
46.0
 40
46.0
 40
46.0
 40
47.0
 40
47.0
 40
47.0
 40
48.0
 40
48.0
 40
48.0
 40
49.0
 40
49.0
 40
49.0
 40
50.0
 40
50.0
 40
50.0
 40
51.0
 40
51.0
 40
51.0
 40
52.0
 40
52.0
 40
52.0
 40
53.0
 40
53.0
 40
53.0
 40
54.0
 40
54.0
 40
54.0
 40
55.0
 40
55.0
 40
55.0
 40
56.0
 40
56.0
 40
56.0
 40
57.0
 40
57.0
 40
57.0
 40
58.0
 40
58.0
 40
58.0
 40
59.0
 40
59.0
 40
59.0
 40
60.0
 40
60.0
 40
60.0
 40
61.0
 40
61.0
 40
61.0
 40
62.0
 40
62.0
 40
62.0
 40
63.0
 40
63.0
 40
63.0
 40
64.0
 40
64.0
 40
64.0
 40
65.0
 40
65.0
 40
65.0
 40
66.0
 40
66.0
 40
66.0
 40
67.0
 40
67.0
 40
67.0
 40
68.0
 40
68.0
 40
68.0
 40
69.0
 40
69.0
 40
69.0
 40
70.0
 40
70.0
 40
70.0
 40
71.0
 40
71.0
 40
71.0
 40
72.0
 40
72.0
 40
72.0
 40
73.0
 40
73.0
 40
73.0
 40
74.0
 40
74.0
 40
74.0
 40
75.0
 40
75.0
 40
75.0
 40
76.0
 40
76.0
 40
76.0
 40
77.0
 40
77.0
 40
77.0
 40
78.0
 40
78.0
 40
78.0
 40
79.0
 40
79.0
 40
79.0
 40
80.0
 40
80.0
 40
80.0
 40
81.0
 40
81.0
 40
81.0
 40
82.0
 40
82.0
 40
82.0
 40
83.0
 40
83.0
 40
83.0
 40
84.0
 40
84.0
 40
84.0
 40
85.0
 40
85.0
 40
85.0
 40
86.0
 40
86.0
 40
86.0
 40
87.0
 40
87.0
 40
87.0
 40
88.0
 40
88.0
 40
88.0
 40
89.0
 40
89.0
 40
89.0
 40
90.0
 40
90.0
 40
90.0
 40
91.0
 40
91.0
 40
91.0
 40
92.0
 40
92.0
 40
92.0
 40
93.0
 40
93.0
 40
93.0
 40
94.0
 40
94.0
 40
94.0
 40
95.0
 40
95.0
 40
95.0
 40
96.0
 40
96.0
 40
96.0
 40
97.0
 40
97.0
 40
97.0
 40
98.0
 40
98.0
 40
98.0
 40
99.0
 40
99.0
 40
99.0
 40
100.0
 40
100.0
 40
100.0
 40
101.0
 40
101.0
 40
101.0
 40
102.0
 40
102.0
 40
102.0
 40
103.0
 40
103.0
 40
103.0
 40
104.0
 40
104.0
 40
104.0
 40
105.0
 40
105.0
 40
105.0
 40
106.0
 40
106.0
 40
106.0
 40
107.0
 40
107.0
 40
107.0
 40
108.0
 40
108.0
 40
108.0
 40
109.0
 40
109.0
 40
109.0
 40
110.0
 40
110.0
 40
110.0
 40
111.0
 40
111.0
 40
111.0
 40
112.0
 40
112.0
 40
112.0
 40
113.0
 40
113.0
 40
113.0
 40
113.0
 10
44.12709267688815
 20
-11.05719006165328
 30
0.0
 10
44.53828204853021
 20
-11.05605533334627
 30
0.0
 10
44.9496049176227
 20
-11.04471450966425
 30
0.0
 10
45.36062634085953
 20
-11.0517285087722
 30
0.0
 10
46.95854775430426
 20
-11.07898998005566
 30
0.0
 10
48.5563270575599
 20
-11.11552844752549
 30
0.0
 10
50.15431521972996
 20
-11.1371582642829
 30
0.0
 10
50.32986006018075
 20
-11.13953430358325
 30
0.0
 10
50.42739071336534
 20
-11.202075705753
 30
0.0
 10
50.53415852881695
 20
-11.3292740140349
 30
0.0
 10
50.94489142528513
 20
-11.81862291292461
 30
0.0
 10
51.2675913661793
 20
-12.36426144226234
 30
0.0
 10
51.58205537567884
 20
-12.91579862102583
 30
0.0
 10
51.76250301762795
 20
-13.23228339437873
 30
0.0
 10
51.92255354111917
 20
-13.56098749077998
 30
0.0
 10
52.11399965040533
 20
-13.87044857571284
 30
0.0
 10
52.30171213745954
 20
-14.17387536058466
 30
0.0
 10
52.35949715466306
 20
-14.34041666351134
 30
0.0
 10
52.59607401479841
 20
-14.81830415614529
 30
0.0
 10
52.60438961402567
 20
-14.8234018208715
 30
0.0
 10
52.60739330665124
 20
-14.83862914291644
 30
0.0
 10
52.61099773780216
 20
-14.84974065244887
 30
0.0
 10
52.82820024219375
 20
-15.51960717179528
 30
0.0
 10
53.10443661091027
 20
-16.17737064006773
 30
0.0
 10
53.24527642068584
 20
-16.86294679482345
 30
0.0
 10
53.38140936875571
 20
-17.52558292001653
 30
0.0
 10
53.40489630719541
 20
-18.21593806816044
 30
0.0
 10
53.42880311664789
 20
-18.89584058128365
 30
0.0
 10
53.45591817126683
 20
-19.66700367381126
 30
0.0
 10
53.45312333751964
 20
-20.44114462074759
 30
0.0
 10
53.41992768929999
 20
-21.21212038620547
 30
0.0
 10
53.34061297840811
 20
-23.05425385267388
 30
0.0
 10
53.23610815996508
 20
-24.89530211406332
 30
0.0
 10
53.14009980826256
 20
-26.73670349774038
 30
0.0
 10
53.13648461118457
 20
-26.80607695488976
 30
0.0
 10
53.11535971630288
 20
-26.87452884899603
 30
0.0
 10
53.10255903338742
 20
-26.94343937143916
 30
0.0
 10
53.06891336959645
 20
-27.12459110479081
 30
0.0
 10
53.00696194002486
 20
-27.30577082954198
 30
0.0
 10
53.00701361644892
 20
-27.48692256289516
 30
0.0
 10
53.007175105274
 20
-28.06250543153924
 30
0.0
 10
53.03230277044368
 20
-28.63804954286024
 30
0.0
 10
53.04338521195693
 20
-29.21369054749112
 30
0.0
 10
53.04586137433118
 20
-29.34221629412253
 30
0.0
 10
53.02785213767626
 20
-29.47100257609907
 30
0.0
 10
53.02361251703895
 20
-29.5998125431077
 30
0.0
 10
52.99936550434377
 20
-30.33666463778459
 30
0.0
 10
52.92670628734232
 20
-31.06848904623551
 30
0.0
 10
53.32808359637427
 20
-31.76133650566149
 30
0.0
 10
53.46879852145839
 20
-32.00423726922471
 30
0.0
 10
53.60397330237159
 20
-32.10736835576641
 30
0.0
 10
53.8553425412672
 20
-32.12883991338952
 30
0.0
 10
54.48760369019524
 20
-32.18284178514917
 30
0.0
 10
55.11979809039818
 20
-32.23842409446272
 30
0.0
 10
55.75118935271581
 20
-32.30163944346071
 30
0.0
 10
56.70995727307186
 20
-32.39762841646154
 30
0.0
 10
57.66655047690169
 20
-32.51893668809418
 30
0.0
 10
58.6267438055156
 20
-32.59623386490289
 30
0.0
 10
59.98802376325953
 20
-32.70581589279577
 30
0.0
 10
61.3278838398179
 20
-32.95140167770664
 30
0.0
 10
62.67141078988413
 20
-33.17801575241734
 30
0.0
 10
62.88786613922077
 20
-33.21452730501667
 30
0.0
 10
62.99944847561378
 20
-33.32214347524217
 30
0.0
 10
63.02823224838309
 20
-33.54361143851274
 30
0.0
 10
63.08876903559205
 20
-34.00939911404464
 30
0.0
 10
63.17125969378096
 20
-34.47232736032474
 30
0.0
 10
63.23219912652476
 20
-34.93806981897843
 30
0.0
 10
63.42272797908636
 20
-36.39419110226008
 30
0.0
 10
63.57546413417465
 20
-37.85610445232465
 30
0.0
 10
63.80324092848617
 20
-39.30628294589595
 30
0.0
 10
64.03794021153643
 20
-40.80055004894002
 30
0.0
 10
64.08903097751545
 20
-42.29837851943376
 30
0.0
 10
64.05606787320801
 20
-43.8043675598544
 30
0.0
 10
64.04501126986231
 20
-44.30955636181091
 30
0.0
 10
64.04633117204745
 20
-44.81505952873106
 30
0.0
 10
64.03204263849971
 20
-45.32013636508417
 30
0.0
 10
64.00745542261941
 20
-46.1891143311744
 30
0.0
 10
63.97776085268223
 20
-47.05797171892245
 30
0.0
 10
63.94504751782609
 20
-47.92668269011222
 30
0.0
 10
63.92118377200819
 20
-48.56040800462286
 30
0.0
 10
63.90829265531084
 20
-49.19547690637324
 30
0.0
 10
63.85407331189868
 20
-49.82682079862833
 30
0.0
 10
63.81507698416998
 20
-50.28090591542928
 30
0.0
 10
63.73691422714336
 20
-50.73444412332021
 30
0.0
 10
63.63875484400986
 20
-51.17996817783768
 30
0.0
 10
63.49738319755914
 20
-51.82163443743654
 30
0.0
 10
63.29510010974511
 20
-52.45048924819689
 30
0.0
 10
63.16772847007245
 20
-53.0944809472489
 30
0.0
 10
62.99694647409114
 20
-53.95796398603361
 30
0.0
 10
62.83144193375604
 20
-54.82632614129956
 30
0.0
 10
62.73954831801715
 20
-55.70057079710984
 30
0.0
 10
62.63165438692702
 20
-56.72701546508843
 30
0.0
 10
62.57186906110348
 20
-57.76132786988359
 30
0.0
 10
62.55048147764778
 20
-58.79345263904734
 30
0.0
 10
62.5100705075182
 20
-60.74363075948898
 30
0.0
 10
62.49888686621169
 20
-62.69470029838872
 30
0.0
 10
62.50108526768055
 20
-64.64537365130823
 30
0.0
 10
62.50250206314245
 20
-65.90248468750662
 30
0.0
 10
62.56650763083264
 20
-67.15948375810454
 30
0.0
 10
62.57131138579342
 20
-68.41665077710468
 30
0.0
 10
62.57656515634669
 20
-69.79165728717784
 30
0.0
 10
62.54085889476502
 20
-71.16677145648307
 30
0.0
 10
62.53218156044981
 20
-72.54189423852823
 30
0.0
 10
62.52033043189623
 20
-74.4201430716085
 30
0.0
 10
62.5232264652042
 20
-76.29850387029268
 30
0.0
 10
62.50780750963872
 20
-78.17671825241792
 30
0.0
 10
62.49950913584318
 20
-79.18736285123171
 30
0.0
 10
62.49555588872843
 20
-80.19954051753662
 30
0.0
 10
62.43580070749146
 20
-81.2078424514182
 30
0.0
 10
62.37724700330601
 20
-82.19584416015294
 30
0.0
 10
62.37586896506764
 20
-83.18019406767589
 30
0.0
 10
62.43363245038761
 20
-84.1665335178442
 30
0.0
 10
62.45903572320252
 20
-84.60029687765446
 30
0.0
 10
62.53306651879149
 20
-85.0390556259205
 30
0.0
 10
62.4935125162322
 20
-85.46709151448357
 30
0.0
 10
62.4190273986203
 20
-86.27309744147057
 30
0.0
 10
62.28000918301582
 20
-87.07322948065232
 30
0.0
 10
62.16369845302843
 20
-87.87521325865837
 30
0.0
 10
62.13227272263917
 20
-88.09189253920175
 30
0.0
 10
62.02004012446061
 20
-88.26565454273405
 30
0.0
 10
61.86272414548916
 20
-88.41975366378219
 30
0.0
 10
61.44797125318633
 20
-88.82602516160032
 30
0.0
 10
60.90755419670145
 20
-88.9711325834148
 30
0.0
 10
60.37549149676934
 20
-89.09180566550052
 30
0.0
 10
59.67835704665986
 20
-89.24992693550345
 30
0.0
 10
58.95495804984974
 20
-89.29496294620191
 30
0.0
 10
58.26077130956438
 20
-89.46274770904116
 30
0.0
 10
57.07933610205618
 20
-89.74830306102175
 30
0.0
 10
55.87179783670131
 20
-89.85130280323778
 30
0.0
 10
54.67448289219674
 20
-90.00122474596336
 30
0.0
 10
53.34893934054586
 20
-90.16719222090578
 30
0.0
 10
52.01686948613568
 20
-90.32033532790405
 30
0.0
 10
50.67116351316592
 20
-90.29711538427303
 30
0.0
 10
49.73209077305844
 20
-90.28089759723405
 30
0.0
 10
48.79167875207722
 20
-90.35396807243397
 30
0.0
 10
47.85163277249337
 20
-90.37809235352728
 30
0.0
 10
47.19423103925858
 20
-90.39497332137548
 30
0.0
 10
46.53518427292893
 20
-90.42575524950661
 30
0.0
 10
45.87912182056596
 20
-90.39770355948851
 30
0.0
 10
45.02266247019581
 20
-90.36109080718052
 30
0.0
 10
44.16693089625082
 20
-90.23597355185657
 30
0.0
 10
43.31010119811056
 20
-90.32077457718751
 30
0.0
 10
42.67973485169414
 20
-90.38316525639707
 30
0.0
 10
42.0506302715026
 20
-90.37038395211856
 30
0.0
 10
41.42113811806827
 20
-90.3731830921721
 30
0.0
 10
39.7524458306162
 20
-90.38060727286786
 30
0.0
 10
38.08369325399378
 20
-90.37371708182247
 30
0.0
 10
36.41496220921788
 20
-90.3717275391048
 30
0.0
 10
36.30922792240621
 20
-90.37159834801935
 30
0.0
 10
36.20348071648679
 20
-90.36528521053787
 30
0.0
 10
36.0977765742608
 20
-90.36087548831201
 30
0.0
 10
35.62827896153179
 20
-90.34131595867345
 30
0.0
 10
35.15896221631614
 20
-90.3142547336157
 30
0.0
 10
34.68927081696576
 20
-90.30317013887087
 30
0.0
 10
33.83193727361545
 20
-90.28294742833393
 30
0.0
 10
32.97429367167089
 20
-90.27632423222504
 30
0.0
 10
32.11695582195123
 20
-90.25640296754309
 30
0.0
 10
30.69557832664833
 20
-90.22339895273061
 30
0.0
 10
29.27439892433621
 20
-90.18216115970833
 30
0.0
 10
27.85303434814138
 20
-90.14864899331177
 30
0.0
 10
26.85563183509972
 20
-90.12512760384144
 30
0.0
 10
25.85785036155
 20
-90.20497630440603
 30
0.0
 10
24.85990093960423
 20
-90.0868956566043
 30
0.0
 10
24.21974190927722
 20
-90.01113800685491
 30
0.0
 10
23.57059548609953
 20
-90.01391130869139
 30
0.0
 10
22.92623774564846
 20
-89.97028778708047
 30
0.0
 10
22.44419567898442
 20
-89.93763689459733
 30
0.0
 10
22.06515766097052
 20
-89.67075396007674
 30
0.0
 10
21.71727191888347
 20
-89.37032440826994
 30
0.0
 10
21.48243267877117
 20
-89.16752024978146
 30
0.0
 10
21.46914322295049
 20
-88.86245704456195
 30
0.0
 10
21.65525589381382
 20
-88.60826928692985
 30
0.0
 10
21.80062169782285
 20
-88.40971982138274
 30
0.0
 10
21.95075465270967
 20
-88.20895688198653
 30
0.0
 10
22.12874551096267
 20
-88.04092234970148
 30
0.0
 10
23.21349842007988
 20
-87.01691939319196
 30
0.0
 10
24.29698525660639
 20
-85.99115943798489
 30
0.0
 10
25.40127616349341
 20
-84.98842133335889
 30
0.0
 10
25.98823861318609
 20
-84.455439223601
 30
0.0
 10
26.56015030197814
 20
-83.91147587198313
 30
0.0
 10
26.91269122938527
 20
-83.19510271679613
 30
0.0
 10
27.21282794808763
 20
-82.58523468853324
 30
0.0
 10
27.47509014829999
 20
-81.9538089752697
 30
0.0
 10
27.71041170181796
 20
-81.31580312962816
 30
0.0
 10
27.9316514275383
 20
-80.71596894196252
 30
0.0
 10
28.01809317966081
 20
-80.08728207960185
 30
0.0
 10
27.93398547978673
 20
-79.44267026335296
 30
0.0
 10
27.9113124451322
 20
-79.26890825981472
 30
0.0
 10
27.91766003357179
 20
-79.09028867164349
 30
0.0
 10
27.92218172140407
 20
-78.91419261591512
 30
0.0
 10
27.9611026877167
 20
-77.39911713615241
 30
0.0
 10
28.00919191438945
 20
-75.88424836211924
 30
0.0
 10
28.04135618718164
 20
-74.36903507853678
 30
0.0
 10
28.06728053076301
 20
-73.14772289080079
 30
0.0
 10
28.06941218364937
 20
-71.92591116421829
 30
0.0
 10
28.09295941134586
 20
-70.70453007457247
 30
0.0
 10
28.10473302519417
 20
-70.09377493420918
 30
0.0
 10
28.15332179067166
 20
-69.48368728109783
 30
0.0
 10
28.16288193067063
 20
-68.87294075347319
 30
0.0
 10
28.17703696678627
 20
-67.96843093382142
 30
0.0
 10
28.18357834187951
 20
-67.06341726895468
 30
0.0
 10
28.16939746762896
 20
-66.15899357668881
 30
0.0
 10
28.16093975823687
 20
-65.61937104535633
 30
0.0
 10
28.10134391273559
 20
-65.08073467260418
 30
0.0
 10
28.07421378581351
 20
-64.54118104318055
 30
0.0
 10
28.02762317578644
 20
-63.61484223725774
 30
0.0
 10
28.08112120234492
 20
-62.68151850024302
 30
0.0
 10
27.90315618235676
 20
-61.76451590307932
 30
0.0
 10
27.77116596160867
 20
-61.08444544154632
 30
0.0
 10
27.61718741892533
 20
-60.41818981290828
 30
0.0
 10
27.18148188656241
 20
-59.83891423252138
 30
0.0
 10
26.71605379290231
 20
-59.22014063239473
 30
0.0
 10
26.29847807553398
 20
-58.56446575325389
 30
0.0
 10
25.87628162384581
 20
-57.91432886510539
 30
0.0
 10
25.38879199997794
 20
-57.16364686521693
 30
0.0
 10
24.81906794687433
 20
-56.47616514200165
 30
0.0
 10
24.28294649386119
 20
-55.76243609755966
 30
0.0
 10
23.6242097861659
 20
-54.88546550991295
 30
0.0
 10
22.8878636899244
 20
-54.05941343353476
 30
0.0
 10
22.51574600750282
 20
-52.98337230965511
 30
0.0
 10
22.31584003562776
 20
-52.405306819068
 30
0.0
 10
22.14447667984833
 20
-51.822022008822
 30
0.0
 10
21.97626558643789
 20
-51.23628256804292
 30
0.0
 10
21.9280902324536
 20
-51.06852364338653
 30
0.0
 10
21.89981461126631
 20
-50.89199264435169
 30
0.0
 10
21.88711082167228
 20
-50.7176880382749
 30
0.0
 10
21.85211726430241
 20
-50.23751493590856
 30
0.0
 10
21.83071460862192
 20
-49.75635136859082
 30
0.0
 10
21.80300742820336
 20
-49.27563566368591
 30
0.0
 10
21.75028885458139
 20
-48.36110492253848
 30
0.0
 10
21.68359611239732
 20
-47.44712970303742
 30
0.0
 10
21.64772405569829
 20
-46.53194870011787
 30
0.0
 10
21.61413006838619
 20
-45.6749682790524
 30
0.0
 10
21.61774311231491
 20
-44.81660120705578
 30
0.0
 10
21.59618973372381
 20
-43.9590609579745
 30
0.0
 10
21.57021802018078
 20
-42.92571748628073
 30
0.0
 10
21.51612140837004
 20
-41.89273144324227
 30
0.0
 10
21.50911063910395
 20
-40.85935352059447
 30
0.0
 10
21.50226351187232
 20
-39.84932473259799
 30
0.0
 10
21.54735981181961
 20
-38.83906340065858
 30
0.0
 10
21.55489595823896
 20
-37.82879345597873
 30
0.0
 10
21.56233305816254
 20
-36.83100767606361
 30
0.0
 10
21.52187471810249
 20
-35.83202903183452
 30
0.0
 10
21.55753145641955
 20
-34.83554377546633
 30
0.0
 10
21.58689228272943
 20
-34.01520625125866
 30
0.0
 10
21.69333281415228
 20
-33.19740517860548
 30
0.0
 10
21.77350449250017
 20
-32.37925098366388
 30
0.0
 10
21.79544975075122
 20
-32.15528101979942
 30
0.0
 10
21.87297731827947
 20
-32.11052276989548
 30
0.0
 10
22.10633947371113
 20
-32.11980514905402
 30
0.0
 10
22.26854318189515
 20
-32.12626039672679
 30
0.0
 10
22.4318407078958
 20
-32.12997033393481
 30
0.0
 10
22.59357071545136
 20
-32.11900631756026
 30
0.0
 10
23.20320619978432
 20
-32.0776673249493
 30
0.0
 10
23.81192012107658
 20
-32.00055532209336
 30
0.0
 10
24.42186135763245
 20
-31.99051071559654
 30
0.0
 10
25.69111635541716
 20
-31.9696054456121
 30
0.0
 10
26.96093548758617
 20
-31.981820462349
 30
0.0
 10
28.23052207581037
 20
-31.98273987226364
 30
0.0
 10
28.7240535359192
 20
-31.98309730094238
 30
0.0
 10
29.21762805972101
 20
-31.99509484599193
 30
0.0
 10
29.71110784339774
 20
-31.99171649925384
 30
0.0
 10
30.08985733467688
 20
-31.98912621810288
 30
0.0
 10
30.24913271170434
 20
-31.86215507081647
 30
0.0
 10
30.30308721338965
 20
-31.48592695879817
 30
0.0
 10
30.33774918035147
 20
-31.24419537452312
 30
0.0
 10
30.30255752998093
 20
-30.99302638180005
 30
0.0
 10
30.3290417015347
 20
-30.74938492271501
 30
0.0
 10
30.35835085138759
 20
-30.47975667774793
 30
0.0
 10
30.28146923927554
 20
-30.24241974339628
 30
0.0
 10
30.18960146180297
 20
-29.99794715502009
 30
0.0
 10
30.13404499074057
 20
-29.85010734182213
 30
0.0
 10
30.10295731036292
 20
-29.68623276232613
 30
0.0
 10
30.09664417289326
 20
-29.52813302413837
 30
0.0
 10
30.08292838650807
 20
-29.18470868069063
 30
0.0
 10
30.09757865507566
 20
-28.81627940357526
 30
0.0
 10
29.84909253047472
 20
-28.56055211887871
 30
0.0
 10
29.47666478942841
 20
-28.17726371428113
 30
0.0
 10
29.10205371911851
 20
-27.78737795182924
 30
0.0
 10
28.53553360479115
 20
-27.65756244755023
 30
0.0
 10
28.18476259522532
 20
-27.57718406349427
 30
0.0
 10
27.84768153384727
 20
-27.42475150736489
 30
0.0
 10
27.51637100740676
 20
-27.27779449987263
 30
0.0
 10
27.38561240826673
 20
-27.21979201100323
 30
0.0
 10
27.23148744900024
 20
-27.1101367748855
 30
0.0
 10
27.18434993002883
 20
-26.98708873007366
 30
0.0
 10
27.03008286058679
 20
-26.5844087442733
 30
0.0
 10
26.88812770113562
 20
-26.17113293667166
 30
0.0
 10
26.80408029042253
 20
-25.7494467897193
 30
0.0
 10
26.74556103724942
 20
-25.45585575246367
 30
0.0
 10
26.77198922600476
 20
-25.14060583053304
 30
0.0
 10
26.79168225308599
 20
-24.83705631414386
 30
0.0
 10
26.84868997066756
 20
-23.95838255744878
 30
0.0
 10
26.92345715547559
 20
-23.08087582685013
 30
0.0
 10
26.98704500543406
 20
-22.20260686887485
 30
0.0
 10
27.01155685982682
 20
-21.86411331834208
 30
0.0
 10
27.01896381513531
 20
-21.52436876751045
 30
0.0
 10
27.04425081601226
 20
-21.18594627207212
 30
0.0
 10
27.1019604717942
 20
-20.41376902956482
 30
0.0
 10
27.16629763001589
 20
-19.64208701953388
 30
0.0
 10
27.22718969275233
 20
-18.87014662734136
 30
0.0
 10
27.26973231565007
 20
-18.33078678454189
 30
0.0
 10
27.27855176011637
 20
-17.79416686924406
 30
0.0
 10
27.14681992152307
 20
-17.26191038269042
 30
0.0
 10
27.11993956400428
 20
-17.15331343684779
 30
0.0
 10
27.15510537617549
 20
-17.02958283249661
 30
0.0
 10
27.16034192131833
 20
-16.91276718073839
 30
0.0
 10
27.17132316318854
 20
-16.6677401473122
 30
0.0
 10
27.19352249723265
 20
-16.42248702949528
 30
0.0
 10
27.1897285858405
 20
-16.17765701246645
 30
0.0
 10
27.1755347924824
 20
-15.26186450509927
 30
0.0
 10
27.11804906798278
 20
-14.34524086844435
 30
0.0
 10
27.14352985550663
 20
-13.4307887185412
 30
0.0
 10
27.16594450804366
 20
-12.62649349677875
 30
0.0
 10
27.54492223692584
 20
-12.01914038822363
 30
0.0
 10
28.35015301744439
 20
-11.74325391202396
 30
0.0
 10
28.80536640302551
 20
-11.58729013305779
 30
0.0
 10
29.25692798739272
 20
-11.42067347289565
 30
0.0
 10
29.71245573793688
 20
-11.26566032496493
 30
0.0
 10
29.81086058410515
 20
-11.23217399685273
 30
0.0
 10
29.91932510908979
 20
-11.21198358412937
 30
0.0
 10
30.02294496854739
 20
-11.21279425816539
 30
0.0
 10
30.62126331420925
 20
-11.21747958805219
 30
0.0
 10
31.21990894394227
 20
-11.21999773756032
 30
0.0
 10
31.81768468706437
 20
-11.24303035409072
 30
0.0
 10
32.53332575947533
 20
-11.27060188392826
 30
0.0
 10
33.24778688668091
 20
-11.33693935071348
 30
0.0
 10
33.9635011673715
 20
-11.35255316944018
 30
0.0
 10
35.09104216236848
 20
-11.37714899807082
 30
0.0
 10
36.21919035544581
 20
-11.37651057886434
 30
0.0
 10
37.3471060045777
 20
-11.38095582868331
 30
0.0
 10
38.98125690342021
 20
-11.38739708072173
 30
0.0
 10
40.61543794684827
 20
-11.3916765353432
 30
0.0
 10
42.24959315206046
 20
-11.38927250472328
 30
0.0
 10
42.48626259915847
 20
-11.38892476540835
 30
0.0
 10
42.7266226047966
 20
-11.35244443400735
 30
0.0
 10
42.77895360523083
 20
-11.05745920967752
 30
0.0
 10
43.25984156490878
 20
-11.05745920969911
 30
0.0
 10
43.69347142726776
 20
-11.05838615572259
 30
0.0
 10
44.12709267688815
 20
-11.05719006165328
 30
0.0
  0
INSERT
  5
7D
330
70
100
AcDbEntity
  8
Слой 1
100
AcDbBlockReference
  2
Block_0
 10
0.0
 20
0.0
 30
0.0
  0
ENDSEC
  0
SECTION
  2
OBJECTS
  0
DICTIONARY
  5
C
330
0
100
AcDbDictionary
281
     1
  3
ACAD_COLOR
350
63
  3
ACAD_DETAILVIEWSTYLE
350
6A
  3
ACAD_GROUP
350
D
  3
ACAD_LAYOUT
350
62
  3
ACAD_MATERIAL
350
10
  3
ACAD_MLEADERSTYLE
350
66
  3
ACAD_MLINESTYLE
350
5F
  3
ACAD_PLOTSETTINGS
350
61
  3
ACAD_PLOTSTYLENAME
350
E
  3
ACAD_SCALELIST
350
42
  3
ACAD_SECTIONVIEWSTYLE
350
68
  3
ACAD_TABLESTYLE
350
64
  3
ACAD_VISUALSTYLE
350
29
  3
ACDB_RECOMPOSE_DATA
350
97
  3
AcDbVariableDictionary
350
8F
  0
DICTIONARY
  5
63
102
{ACAD_REACTORS
330
C
102
}
330
C
100
AcDbDictionary
281
     1
  0
DICTIONARY
  5
6A
102
{ACAD_REACTORS
330
C
102
}
330
C
100
AcDbDictionary
281
     1
  3
Imperial24
350
6B
  0
DICTIONARY
  5
D
102
{ACAD_REACTORS
330
C
102
}
330
C
100
AcDbDictionary
281
     1
  0
DICTIONARY
  5
62
102
{ACAD_REACTORS
330
C
102
}
330
C
100
AcDbDictionary
281
     1
  3
Layout1
350
6F
  3
Layout2
350
77
  3
Model
350
73
  0
DICTIONARY
  5
10
102
{ACAD_REACTORS
330
C
102
}
330
C
100
AcDbDictionary
281
     1
  3
ByBlock
350
19
  3
ByLayer
350
11
  3
Global
350
21
  0
DICTIONARY
  5
66
102
{ACAD_REACTORS
330
C
102
}
330
C
100
AcDbDictionary
281
     1
  3
Standard
350
67
  0
DICTIONARY
  5
5F
102
{ACAD_REACTORS
330
C
102
}
330
C
100
AcDbDictionary
281
     1
  3
Standard
350
60
  0
DICTIONARY
  5
61
102
{ACAD_REACTORS
330
C
102
}
330
C
100
AcDbDictionary
281
     1
  0
ACDBDICTIONARYWDFLT
  5
E
102
{ACAD_REACTORS
330
C
102
}
330
C
100
AcDbDictionary
281
     1
  3
Normal
350
F
100
AcDbDictionaryWithDefault
340
F
  0
DICTIONARY
  5
42
102
{ACAD_REACTORS
330
C
102
}
330
C
100
AcDbDictionary
281
     1
  3
A0
350
43
  3
A1
350
44
  3
A2
350
45
  3
A3
350
46
  3
A4
350
47
  3
A5
350
48
  3
A6
350
49
  3
A7
350
4A
  3
A8
350
4B
  3
A9
350
4C
  3
B0
350
4D
  3
B1
350
4E
  3
B2
350
4F
  3
B3
350
50
  3
B4
350
51
  3
B5
350
52
  3
B6
350
53
  0
DICTIONARY
  5
68
102
{ACAD_REACTORS
330
C
102
}
330
C
100
AcDbDictionary
281
     1
  3
Imperial24
350
69
  0
DICTIONARY
  5
64
102
{ACAD_REACTORS
330
C
102
}
330
C
100
AcDbDictionary
281
     1
  3
Standard
350
65
  0
DICTIONARY
  5
29
102
{ACAD_REACTORS
330
C
102
}
330
C
100
AcDbDictionary
281
     1
  3
2dWireframe
350
2F
  3
Basic
350
2E
  3
Brighten
350
35
  3
ColorChange
350
39
  3
Conceptual
350
32
  3
Dim
350
34
  3
EdgeColorOff
350
41
  3
Facepattern
350
38
  3
Flat
350
2A
  3
FlatWithEdges
350
2B
  3
Gouraud
350
2C
  3
GouraudWithEdges
350
2D
  3
Hidden
350
31
  3
JitterOff
350
3F
  3
Linepattern
350
37
  3
OverhangOff
350
40
  3
Realistic
350
33
  3
Shaded
350
3E
  3
Shaded with edges
350
3D
  3
Shades of Gray
350
3A
  3
Sketchy
350
3B
  3
Thicken
350
36
  3
Wireframe
350
30
  3
X-Ray
350
3C
  0
XRECORD
  5
97
102
{ACAD_REACTORS
330
C
102
}
330
C
100
AcDbXrecord
280
     1
 90
        1
330
65
  0
DICTIONARY
  5
8F
102
{ACAD_REACTORS
330
C
102
}
330
C
100
AcDbDictionary
281
     1
  3
CANNOSCALE
350
94
  3
CMLEADERSTYLE
350
91
  3
CTABLESTYLE
350
90
  3
CVIEWDETAILSTYLE
350
92
  3
CVIEWSECTIONSTYLE
350
93
  0
ACDBDETAILVIEWSTYLE
  5
6B
102
{ACAD_REACTORS
330
6A
102
}
330
6A
100
AcDbModelDocViewStyle
 70
     0
  3
Imperial24
290
     1
300
Imperial24
 90
        0
100
AcDbDetailViewStyle
 70
     0
 71
     0
 90
        3
 71
     1
340
55
 62
   256
 40
0.24
340
0
 62
   256
 40
0.24
300

 40
0.36
280
     3
 71
     2
340
5D
 90
       25
 62
   256
 71
     3
340
55
 62
   256
 40
0.24
 90
        1
 40
0.75
 90
        1
300
%<\AcVar ViewType \f "%tc1">% %<\AcVar ViewDetailId>%\PSCALE %<\AcVar ViewScale \f "%sn">%
 71
     4
340
5D
 90
       25
 62
   256
340
5D
 90
       25
 62
   256
280
     0
  0
LAYOUT
  5
6F
102
{ACAD_REACTORS
330
62
102
}
330
62
100
AcDbPlotSettings
  1

  2

  4

  6

 40
0.0
 41
0.0
 42
0.0
 43
0.0
 44
0.0
 45
0.0
 46
0.0
 47
0.0
 48
0.0
 49
0.0
140
0.0
141
0.0
142
1.0
143
1.0
 70
   688
 72
     0
 73
     0
 74
     5
  7

 75
    16
147
1.0
 76
     0
 77
     2
 78
   300
148
0.0
149
0.0
100
AcDbLayout
  1
Layout1
 70
     1
 71
     1
 10
0.0
 20
0.0
 11
12.0
 21
9.0
 12
0.0
 22
0.0
 32
0.0
 14
0.0
 24
0.0
 34
0.0
 15
0.0
 25
0.0
 35
0.0
146
0.0
 13
0.0
 23
0.0
 33
0.0
 16
1.0
 26
0.0
 36
0.0
 17
0.0
 27
1.0
 37
0.0
 76
     0
330
6C
  0
LAYOUT
  5
77
102
{ACAD_REACTORS
330
62
102
}
330
62
100
AcDbPlotSettings
  1

  2

  4

  6

 40
0.0
 41
0.0
 42
0.0
 43
0.0
 44
0.0
 45
0.0
 46
0.0
 47
0.0
 48
0.0
 49
0.0
140
0.0
141
0.0
142
1.0
143
1.0
 70
   688
 72
     0
 73
     0
 74
     5
  7

 75
    16
147
1.0
 76
     0
 77
     2
 78
   300
148
0.0
149
0.0
100
AcDbLayout
  1
Layout2
 70
     1
 71
     2
 10
0.0
 20
0.0
 11
12.0
 21
9.0
 12
0.0
 22
0.0
 32
0.0
 14
0.0
 24
0.0
 34
0.0
 15
0.0
 25
0.0
 35
0.0
146
0.0
 13
0.0
 23
0.0
 33
0.0
 16
1.0
 26
0.0
 36
0.0
 17
0.0
 27
1.0
 37
0.0
 76
     0
330
74
  0
LAYOUT
  5
73
102
{ACAD_REACTORS
330
62
102
}
330
62
100
AcDbPlotSettings
  1

  2

  4

  6

 40
0.0
 41
0.0
 42
0.0
 43
0.0
 44
0.0
 45
0.0
 46
0.0
 47
0.0
 48
0.0
 49
0.0
140
0.0
141
0.0
142
1.0
143
1.0
 70
  1712
 72
     0
 73
     0
 74
     0
  7

 75
     0
147
1.0
 76
     0
 77
     2
 78
   300
148
0.0
149
0.0
100
AcDbLayout
  1
Model
 70
     1
 71
     0
 10
0.0
 20
0.0
 11
12.0
 21
9.0
 12
0.0
 22
0.0
 32
0.0
 14
0.0
 24
0.0
 34
0.0
 15
0.0
 25
0.0
 35
0.0
146
0.0
 13
0.0
 23
0.0
 33
0.0
 16
1.0
 26
0.0
 36
0.0
 17
0.0
 27
1.0
 37
0.0
 76
     0
330
70
  0
MATERIAL
  5
19
102
{ACAD_XDICTIONARY
360
1A
102
}
102
{ACAD_REACTORS
330
10
102
}
330
10
100
AcDbMaterial
  1
ByBlock
 72
     0
 43
0.0208333333333333
 43
0.0
 43
0.0
 43
0.0
 43
0.0
 43
0.0208333333333333
 43
0.0
 43
0.0
 43
0.0
 43
0.0
 43
1.0
 43
0.0
 43
0.0
 43
0.0
 43
0.0
 43
1.0
 77
     0
 47
0.0208333333333333
 47
0.0
 47
0.0
 47
0.0
 47
0.0
 47
0.0208333333333333
 47
0.0
 47
0.0
 47
0.0
 47
0.0
 47
1.0
 47
0.0
 47
0.0
 47
0.0
 47
0.0
 47
1.0
171
     0
 49
0.0208333333333333
 49
0.0
 49
0.0
 49
0.0
 49
0.0
 49
0.0208333333333333
 49
0.0
 49
0.0
 49
0.0
 49
0.0
 49
1.0
 49
0.0
 49
0.0
 49
0.0
 49
0.0
 49
1.0
175
     0
142
0.0208333333333333
142
0.0
142
0.0
142
0.0
142
0.0
142
0.0208333333333333
142
0.0
142
0.0
142
0.0
142
0.0
142
1.0
142
0.0
142
0.0
142
0.0
142
0.0
142
1.0
179
     0
144
0.0208333333333333
144
0.0
144
0.0
144
0.0
144
0.0
144
0.0208333333333333
144
0.0
144
0.0
144
0.0
144
0.0
144
1.0
144
0.0
144
0.0
144
0.0
144
0.0
144
1.0
147
0.0208333333333333
147
0.0
147
0.0
147
0.0
147
0.0
147
0.0208333333333333
147
0.0
147
0.0
147
0.0
147
0.0
147
1.0
147
0.0
147
0.0
147
0.0
147
0.0
147
1.0
  0
MATERIAL
  5
11
102
{ACAD_XDICTIONARY
360
12
102
}
102
{ACAD_REACTORS
330
10
102
}
330
10
100
AcDbMaterial
  1
ByLayer
 72
     0
 43
0.0208333333333333
 43
0.0
 43
0.0
 43
0.0
 43
0.0
 43
0.0208333333333333
 43
0.0
 43
0.0
 43
0.0
 43
0.0
 43
1.0
 43
0.0
 43
0.0
 43
0.0
 43
0.0
 43
1.0
 77
     0
 47
0.0208333333333333
 47
0.0
 47
0.0
 47
0.0
 47
0.0
 47
0.0208333333333333
 47
0.0
 47
0.0
 47
0.0
 47
0.0
 47
1.0
 47
0.0
 47
0.0
 47
0.0
 47
0.0
 47
1.0
171
     0
 49
0.0208333333333333
 49
0.0
 49
0.0
 49
0.0
 49
0.0
 49
0.0208333333333333
 49
0.0
 49
0.0
 49
0.0
 49
0.0
 49
1.0
 49
0.0
 49
0.0
 49
0.0
 49
0.0
 49
1.0
175
     0
142
0.0208333333333333
142
0.0
142
0.0
142
0.0
142
0.0
142
0.0208333333333333
142
0.0
142
0.0
142
0.0
142
0.0
142
1.0
142
0.0
142
0.0
142
0.0
142
0.0
142
1.0
179
     0
144
0.0208333333333333
144
0.0
144
0.0
144
0.0
144
0.0
144
0.0208333333333333
144
0.0
144
0.0
144
0.0
144
0.0
144
1.0
144
0.0
144
0.0
144
0.0
144
0.0
144
1.0
147
0.0208333333333333
147
0.0
147
0.0
147
0.0
147
0.0
147
0.0208333333333333
147
0.0
147
0.0
147
0.0
147
0.0
147
1.0
147
0.0
147
0.0
147
0.0
147
0.0
147
1.0
  0
MATERIAL
  5
21
102
{ACAD_XDICTIONARY
360
22
102
}
102
{ACAD_REACTORS
330
10
102
}
330
10
100
AcDbMaterial
  1
Global
 72
     0
 43
0.0208333333333333
 43
0.0
 43
0.0
 43
0.0
 43
0.0
 43
0.0208333333333333
 43
0.0
 43
0.0
 43
0.0
 43
0.0
 43
1.0
 43
0.0
 43
0.0
 43
0.0
 43
0.0
 43
1.0
 77
     0
 47
0.0208333333333333
 47
0.0
 47
0.0
 47
0.0
 47
0.0
 47
0.0208333333333333
 47
0.0
 47
0.0
 47
0.0
 47
0.0
 47
1.0
 47
0.0
 47
0.0
 47
0.0
 47
0.0
 47
1.0
171
     0
 49
0.0208333333333333
 49
0.0
 49
0.0
 49
0.0
 49
0.0
 49
0.0208333333333333
 49
0.0
 49
0.0
 49
0.0
 49
0.0
 49
1.0
 49
0.0
 49
0.0
 49
0.0
 49
0.0
 49
1.0
175
     0
142
0.0208333333333333
142
0.0
142
0.0
142
0.0
142
0.0
142
0.0208333333333333
142
0.0
142
0.0
142
0.0
142
0.0
142
1.0
142
0.0
142
0.0
142
0.0
142
0.0
142
1.0
179
     0
144
0.0208333333333333
144
0.0
144
0.0
144
0.0
144
0.0
144
0.0208333333333333
144
0.0
144
0.0
144
0.0
144
0.0
144
1.0
144
0.0
144
0.0
144
0.0
144
0.0
144
1.0
147
0.0208333333333333
147
0.0
147
0.0
147
0.0
147
0.0
147
0.0208333333333333
147
0.0
147
0.0
147
0.0
147
0.0
147
1.0
147
0.0
147
0.0
147
0.0
147
0.0
147
1.0
  0
MLEADERSTYLE
  5
67
102
{ACAD_REACTORS
330
66
102
}
330
66
100
AcDbMLeaderStyle
179
     2
170
     2
171
     1
172
     0
 90
        2
 40
0.0
 41
0.0
173
     1
 91
-1056964608
340
5B
 92
       -2
290
     1
 42
0.09
291
     1
 43
0.36
  3
Standard
 44
0.18
300

342
55
174
     1
178
     6
175
     1
176
     0
 93
-1056964608
 45
0.18
292
     0
297
     0
 46
0.18
 94
-1056964608
 47
1.0
 49
1.0
140
1.0
293
     1
141
0.0
294
     1
177
     0
142
1.0
295
     1
296
     0
143
0.125
271
     0
272
     9
273
     9
298
     1
  0
MLINESTYLE
  5
60
102
{ACAD_REACTORS
330
5F
102
}
330
5F
100
AcDbMlineStyle
  2
STANDARD
 70
     0
  3

 62
   256
 51
90.0
 52
90.0
 71
     2
 49
0.5
 62
   256
  6
BYLAYER
 49
-0.5
 62
   256
  6
BYLAYER
  0
ACDBPLACEHOLDER
  5
F
102
{ACAD_REACTORS
330
E
102
}
330
E
  0
SCALE
  5
43
102
{ACAD_REACTORS
330
42
102
}
330
42
100
AcDbScale
 70
     0
300
1:1
140
1.0
141
1.0
290
     1
  0
SCALE
  5
44
102
{ACAD_REACTORS
330
42
102
}
330
42
100
AcDbScale
 70
     0
300
1/128" = 1'-0"
140
0.0078125
141
12.0
290
     0
  0
SCALE
  5
45
102
{ACAD_REACTORS
330
42
102
}
330
42
100
AcDbScale
 70
     0
300
1/64" = 1'-0"
140
0.015625
141
12.0
290
     0
  0
SCALE
  5
46
102
{ACAD_REACTORS
330
42
102
}
330
42
100
AcDbScale
 70
     0
300
1/32" = 1'-0"
140
0.03125
141
12.0
290
     0
  0
SCALE
  5
47
102
{ACAD_REACTORS
330
42
102
}
330
42
100
AcDbScale
 70
     0
300
1/16" = 1'-0"
140
0.0625
141
12.0
290
     0
  0
SCALE
  5
48
102
{ACAD_REACTORS
330
42
102
}
330
42
100
AcDbScale
 70
     0
300
3/32" = 1'-0"
140
0.09375
141
12.0
290
     0
  0
SCALE
  5
49
102
{ACAD_REACTORS
330
42
102
}
330
42
100
AcDbScale
 70
     0
300
1/8" = 1'-0"
140
0.125
141
12.0
290
     0
  0
SCALE
  5
4A
102
{ACAD_REACTORS
330
42
102
}
330
42
100
AcDbScale
 70
     0
300
3/16" = 1'-0"
140
0.1875
141
12.0
290
     0
  0
SCALE
  5
4B
102
{ACAD_REACTORS
330
42
102
}
330
42
100
AcDbScale
 70
     0
300
1/4" = 1'-0"
140
0.25
141
12.0
290
     0
  0
SCALE
  5
4C
102
{ACAD_REACTORS
330
42
102
}
330
42
100
AcDbScale
 70
     0
300
3/8" = 1'-0"
140
0.375
141
12.0
290
     0
  0
SCALE
  5
4D
102
{ACAD_REACTORS
330
42
102
}
330
42
100
AcDbScale
 70
     0
300
1/2" = 1'-0"
140
0.5
141
12.0
290
     0
  0
SCALE
  5
4E
102
{ACAD_REACTORS
330
42
102
}
330
42
100
AcDbScale
 70
     0
300
3/4" = 1'-0"
140
0.75
141
12.0
290
     0
  0
SCALE
  5
4F
102
{ACAD_REACTORS
330
42
102
}
330
42
100
AcDbScale
 70
     0
300
1" = 1'-0"
140
1.0
141
12.0
290
     0
  0
SCALE
  5
50
102
{ACAD_REACTORS
330
42
102
}
330
42
100
AcDbScale
 70
     0
300
1-1/2" = 1'-0"
140
1.5
141
12.0
290
     0
  0
SCALE
  5
51
102
{ACAD_REACTORS
330
42
102
}
330
42
100
AcDbScale
 70
     0
300
3" = 1'-0"
140
3.0
141
12.0
290
     0
  0
SCALE
  5
52
102
{ACAD_REACTORS
330
42
102
}
330
42
100
AcDbScale
 70
     0
300
6" = 1'-0"
140
6.0
141
12.0
290
     0
  0
SCALE
  5
53
102
{ACAD_REACTORS
330
42
102
}
330
42
100
AcDbScale
 70
     0
300
1'-0" = 1'-0"
140
12.0
141
12.0
290
     0
  0
ACDBSECTIONVIEWSTYLE
  5
69
102
{ACAD_REACTORS
330
68
102
}
330
68
100
AcDbModelDocViewStyle
 70
     0
  3
Imperial24
290
     1
300
Imperial24
 90
        0
100
AcDbSectionViewStyle
 70
     0
 71
     0
 90
       78
 71
     1
340
55
 62
   256
 40
0.24
340
0
340
0
 62
   256
 40
0.24
300
I, O, Q, S, X, Z
 40
0.48
 90
        3
 40
0.18
 90
        1
 71
     2
340
5D
 90
       25
 62
   256
340
5D
 90
       50
 62
   256
 40
0.24
 40
0.0
 40
0.24
 71
     3
340
55
 62
   256
 40
0.24
 90
        1
 40
0.75
 90
        1
300
%<\AcVar ViewType \f "%tc1">% %<\AcVar ViewSectionStartId>%-%<\AcVar ViewSectionEndId>%\PSCALE %<\AcVar ViewScale \f "%sn">%
 71
     4
 62
   256
 62
   257
300
ANSI31
 40
1.0
 90
        0
290
     0
290
     0
 90
        6
 40
0.0
 40
1.570796326794896
 40
0.2617993877991494
 40
1.308996938995747
 40
-0.2617993877991494
 40
1.832595714594046
  0
TABLESTYLE
  5
65
102
{ACAD_XDICTIONARY
360
95
102
}
102
{ACAD_REACTORS
330
64
102
}
330
64
100
AcDbTableStyle
280
     0
  3
Standard
 70
     0
 71
     0
 40
0.06
 41
0.06
280
     0
281
     0
  7
Standard
140
0.18
170
     2
 62
     0
 63
     7
283
     0
 90
      512
 91
        0
  1

274
    -2
284
     1
 64
     0
275
    -2
285
     1
 65
     0
276
    -2
286
     1
 66
     0
277
    -2
287
     1
 67
     0
278
    -2
288
     1
 68
     0
279
    -2
289
     1
 69
     0
  7
Standard
140
0.25
170
     5
 62
     0
 63
     7
283
     0
 90
      512
 91
        0
  1

274
    -2
284
     1
 64
     0
275
    -2
285
     1
 65
     0
276
    -2
286
     1
 66
     0
277
    -2
287
     1
 67
     0
278
    -2
288
     1
 68
     0
279
    -2
289
     1
 69
     0
  7
Standard
140
0.18
170
     5
 62
     0
 63
     7
283
     0
 90
      512
 91
        0
  1

274
    -2
284
     1
 64
     0
275
    -2
285
     1
 65
     0
276
    -2
286
     1
 66
     0
277
    -2
287
     1
 67
     0
278
    -2
288
     1
 68
     0
279
    -2
289
     1
 69
     0
  0
VISUALSTYLE
  5
2F
102
{ACAD_REACTORS
330
29
102
}
330
29
100
AcDbVisualStyle
  2
2dWireframe
 70
     4
177
     3
291
     0
 70
    58
 90
        0
176
     1
 90
        2
176
     1
 90
        0
176
     1
 90
        0
176
     1
 40
0.6
176
     1
 40
30.0
176
     1
 62
     7
420
 16777215
176
     1
 90
        1
176
     1
 90
        4
176
     1
 62
     7
176
     1
 62
   257
176
     1
 90
        1
176
     1
 90
        1
176
     1
 40
1.0
176
     1
 90
        0
176
     1
 62
   257
176
     1
 40
1.0
176
     1
 90
        1
176
     1
 90
        6
176
     1
 90
        2
176
     1
 62
     7
176
     1
 90
        5
176
     1
 90
        0
176
     1
 90
        0
176
     1
290
     0
176
     1
 90
        1
176
     1
 40
0.0
176
     1
 90
        0
176
     1
290
     1
176
     1
290
     1
176
     1
290
     0
176
     1
290
     0
176
     1
290
     0
176
     1
290
     0
176
     1
290
     0
176
     1
290
     0
176
     1
290
     0
176
     1
 90
       50
176
     1
 40
0.0
176
     1
 40
1.0
176
     1
 90
        0
176
     1
 62
    18
420
        0
176
     1
 90
       50
176
     1
 90
        3
176
     1
 62
     5
420
      255
176
     1
290
     0
176
     1
 90
       50
176
     1
 90
       50
176
     1
 90
       50
176
     1
290
     0
176
     1
 90
       50
176
     1
 62
   256
176
     0
 40
1.0
176
     0
 90
        2
176
     1
  1
strokes_ogs.tif
176
     1
290
     0
176
     1
 40
1.0
176
     1
 40
1.0
176
     1
  0
VISUALSTYLE
  5
2E
102
{ACAD_REACTORS
330
29
102
}
330
29
100
AcDbVisualStyle
  2
Basic
 70
     7
177
     3
291
     1
 70
    58
 90
        1
176
     1
 90
        0
176
     1
 90
        1
176
     1
 90
        0
176
     1
 40
0.6
176
     1
 40
30.0
176
     1
 62
     7
420
 16777215
176
     1
 90
        0
176
     1
 90
        4
176
     1
 62
     7
176
     1
 62
   257
176
     1
 90
        1
176
     1
 90
        1
176
     1
 40
1.0
176
     1
 90
        8
176
     1
 62
     7
176
     1
 40
1.0
176
     1
 90
        1
176
     1
 90
        6
176
     1
 90
        2
176
     1
 62
     7
176
     1
 90
        5
176
     1
 90
        0
176
     1
 90
        0
176
     1
290
     0
176
     1
 90
        1
176
     1
 40
0.0
176
     1
 90
        0
176
     1
290
     0
176
     1
290
     1
176
     1
290
     1
176
     1
290
     0
176
     1
290
     0
176
     1
290
     0
176
     1
290
     0
176
     1
290
     0
176
     1
290
     0
176
     1
 90
       50
176
     1
 40
0.0
176
     1
 40
1.0
176
     1
 90
        0
176
     1
 62
    18
420
        0
176
     1
 90
       50
176
     1
 90
        3
176
     1
 62
     5
420
      255
176
     1
290
     0
176
     1
 90
       50
176
     1
 90
       50
176
     1
 90
       50
176
     1
290
     0
176
     1
 90
       50
176
     1
 62
   256
176
     0
 40
1.0
176
     0
 90
        2
176
     1
  1
strokes_ogs.tif
176
     1
290
     0
176
     1
 40
1.0
176
     1
 40
1.0
176
     1
  0
VISUALSTYLE
  5
35
102
{ACAD_REACTORS
330
29
102
}
330
29
100
AcDbVisualStyle
  2
Brighten
 70
    12
177
     3
291
     1
 70
    58
 90
        2
176
     1
 90
        2
176
     1
 90
        0
176
     1
 90
        0
176
     1
 40
0.6
176
     1
 40
30.0
176
     1
 62
     7
420
 16777215
176
     1
 90
        1
176
     1
 90
        4
176
     1
 62
     7
176
     1
 62
   257
176
     1
 90
        1
176
     1
 90
        1
176
     1
 40
1.0
176
     1
 90
        8
176
     1
 62
     7
176
     1
 40
1.0
176
     1
 90
        1
176
     1
 90
        6
176
     1
 90
        2
176
     1
 62
     7
176
     1
 90
        5
176
     1
 90
        0
176
     1
 90
        0
176
     1
290
     0
176
     1
 90
        1
176
     1
 40
50.0
176
     1
 90
        0
176
     1
290
     0
176
     1
290
     1
176
     1
290
     1
176
     1
290
     0
176
     1
290
     0
176
     1
290
     0
176
     1
290
     0
176
     1
290
     0
176
     1
290
     0
176
     1
 90
       50
176
     1
 40
0.0
176
     1
 40
1.0
176
     1
 90
        0
176
     1
 62
    18
420
        0
176
     1
 90
       50
176
     1
 90
        3
176
     1
 62
     5
420
      255
176
     1
290
     0
176
     1
 90
       50
176
     1
 90
       50
176
     1
 90
       50
176
     1
290
     0
176
     1
 90
       50
176
     1
 62
   256
176
     0
 40
1.0
176
     0
 90
        2
176
     1
  1
strokes_ogs.tif
176
     1
290
     0
176
     1
 40
1.0
176
     1
 40
1.0
176
     1
  0
VISUALSTYLE
  5
39
102
{ACAD_REACTORS
330
29
102
}
330
29
100
AcDbVisualStyle
  2
ColorChange
 70
    16
177
     3
291
     1
 70
    58
 90
        2
176
     1
 90
        2
176
     1
 90
        3
176
     1
 90
        0
176
     1
 40
0.6
176
     1
 40
30.0
176
     1
 62
     8
420
  8421504
176
     1
 90
        1
176
     1
 90
        4
176
     1
 62
     7
176
     1
 62
   257
176
     1
 90
        1
176
     1
 90
        1
176
     1
 40
1.0
176
     1
 90
        8
176
     1
 62
     8
420
  8421504
176
     1
 40
1.0
176
     1
 90
        1
176
     1
 90
        6
176
     1
 90
        2
176
     1
 62
     7
176
     1
 90
        5
176
     1
 90
        0
176
     1
 90
        0
176
     1
290
     0
176
     1
 90
        1
176
     1
 40
0.0
176
     1
 90
        0
176
     1
290
     0
176
     1
290
     1
176
     1
290
     1
176
     1
290
     0
176
     1
290
     0
176
     1
290
     0
176
     1
290
     0
176
     1
290
     0
176
     1
290
     0
176
     1
 90
       50
176
     1
 40
0.0
176
     1
 40
1.0
176
     1
 90
        0
176
     1
 62
    18
420
        0
176
     1
 90
       50
176
     1
 90
        3
176
     1
 62
     5
420
      255
176
     1
290
     0
176
     1
 90
       50
176
     1
 90
       50
176
     1
 90
       50
176
     1
290
     0
176
     1
 90
       50
176
     1
 62
   256
176
     0
 40
1.0
176
     0
 90
        2
176
     1
  1
strokes_ogs.tif
176
     1
290
     0
176
     1
 40
1.0
176
     1
 40
1.0
176
     1
  0
VISUALSTYLE
  5
32
102
{ACAD_REACTORS
330
29
102
}
330
29
100
AcDbVisualStyle
  2
Conceptual
 70
     9
177
     3
291
     0
 70
    58
 90
        3
176
     1
 90
        2
176
     1
 90
        0
176
     1
 90
        0
176
     1
 40
0.6
176
     1
 40
30.0
176
     1
 62
     7
420
 16777215
176
     1
 90
        2
176
     1
 90
        2
176
     1
 62
     7
176
     1
 62
   257
176
     1
 90
        1
176
     1
 90
        1
176
     1
 40
179.0
176
     1
 90
        8
176
     1
 62
     7
176
     1
 40
1.0
176
     1
 90
        1
176
     1
 90
        6
176
     1
 90
        2
176
     1
 62
     7
176
     1
 90
        3
176
     1
 90
        0
176
     1
 90
        0
176
     1
290
     0
176
     1
 90
        1
176
     1
 40
0.0
176
     1
 90
        0
176
     1
290
     0
176
     1
290
     1
176
     1
290
     1
176
     1
290
     0
176
     1
290
     0
176
     1
290
     0
176
     1
290
     0
176
     1
290
     0
176
     1
290
     0
176
     1
 90
       50
176
     1
 40
0.0
176
     1
 40
1.0
176
     1
 90
        0
176
     1
 62
    18
420
        0
176
     1
 90
       50
176
     1
 90
        3
176
     1
 62
     5
420
      255
176
     1
290
     0
176
     1
 90
       50
176
     1
 90
       50
176
     1
 90
       50
176
     1
290
     0
176
     1
 90
       50
176
     1
 62
   256
176
     0
 40
1.0
176
     0
 90
        2
176
     1
  1
strokes_ogs.tif
176
     1
290
     0
176
     1
 40
1.0
176
     1
 40
1.0
176
     1
  0
VISUALSTYLE
  5
34
102
{ACAD_REACTORS
330
29
102
}
330
29
100
AcDbVisualStyle
  2
Dim
 70
    11
177
     3
291
     1
 70
    58
 90
        2
176
     1
 90
        2
176
     1
 90
        0
176
     1
 90
        0
176
     1
 40
0.6
176
     1
 40
30.0
176
     1
 62
     7
420
 16777215
176
     1
 90
        1
176
     1
 90
        4
176
     1
 62
     7
176
     1
 62
   257
176
     1
 90
        1
176
     1
 90
        1
176
     1
 40
1.0
176
     1
 90
        8
176
     1
 62
     7
176
     1
 40
1.0
176
     1
 90
        1
176
     1
 90
        6
176
     1
 90
        2
176
     1
 62
     7
176
     1
 90
        5
176
     1
 90
        0
176
     1
 90
        0
176
     1
290
     0
176
     1
 90
        1
176
     1
 40
-50.0
176
     1
 90
        0
176
     1
290
     0
176
     1
290
     1
176
     1
290
     1
176
     1
290
     0
176
     1
290
     0
176
     1
290
     0
176
     1
290
     0
176
     1
290
     0
176
     1
290
     0
176
     1
 90
       50
176
     1
 40
0.0
176
     1
 40
1.0
176
     1
 90
        0
176
     1
 62
    18
420
        0
176
     1
 90
       50
176
     1
 90
        3
176
     1
 62
     5
420
      255
176
     1
290
     0
176
     1
 90
       50
176
     1
 90
       50
176
     1
 90
       50
176
     1
290
     0
176
     1
 90
       50
176
     1
 62
   256
176
     0
 40
1.0
176
     0
 90
        2
176
     1
  1
strokes_ogs.tif
176
     1
290
     0
176
     1
 40
1.0
176
     1
 40
1.0
176
     1
  0
VISUALSTYLE
  5
41
102
{ACAD_REACTORS
330
29
102
}
330
29
100
AcDbVisualStyle
  2
EdgeColorOff
 70
    22
177
     3
291
     1
 70
    58
 90
        2
176
     0
 90
        2
176
     0
 90
        0
176
     0
 90
        0
176
     0
 40
0.6
176
     0
 40
30.0
176
     0
 62
     7
420
 16777215
176
     0
 90
        1
176
     0
 90
        4
176
     0
 62
     7
176
     0
 62
   257
176
     0
 90
        1
176
     0
 90
        1
176
     0
 40
1.0
176
     0
 90
        8
176
     2
 62
     7
176
     0
 40
1.0
176
     0
 90
        1
176
     0
 90
        6
176
     0
 90
        2
176
     0
 62
     7
176
     0
 90
        5
176
     0
 90
        0
176
     0
 90
        0
176
     0
290
     0
176
     0
 90
        1
176
     0
 40
0.0
176
     0
 90
        0
176
     0
290
     0
176
     0
290
     1
176
     0
290
     1
176
     0
290
     0
176
     0
290
     0
176
     0
290
     0
176
     0
290
     0
176
     0
290
     0
176
     0
290
     0
176
     0
 90
       50
176
     0
 40
0.0
176
     0
 40
1.0
176
     0
 90
        0
176
     0
 62
    18
420
        0
176
     0
 90
       50
176
     0
 90
        3
176
     0
 62
     5
420
      255
176
     0
290
     0
176
     0
 90
       50
176
     0
 90
       50
176
     0
 90
       50
176
     0
290
     0
176
     0
 90
       50
176
     0
 62
   256
176
     0
 40
1.0
176
     0
 90
        2
176
     0
  1
strokes_ogs.tif
176
     0
290
     0
176
     0
 40
1.0
176
     0
 40
1.0
176
     0
  0
VISUALSTYLE
  5
38
102
{ACAD_REACTORS
330
29
102
}
330
29
100
AcDbVisualStyle
  2
Facepattern
 70
    15
177
     3
291
     1
 70
    58
 90
        2
176
     1
 90
        2
176
     1
 90
        0
176
     1
 90
        0
176
     1
 40
0.6
176
     1
 40
30.0
176
     1
 62
     7
420
 16777215
176
     1
 90
        1
176
     1
 90
        4
176
     1
 62
     7
176
     1
 62
   257
176
     1
 90
        1
176
     1
 90
        1
176
     1
 40
1.0
176
     1
 90
        8
176
     1
 62
     7
176
     1
 40
1.0
176
     1
 90
        1
176
     1
 90
        6
176
     1
 90
        2
176
     1
 62
     7
176
     1
 90
        5
176
     1
 90
        0
176
     1
 90
        0
176
     1
290
     0
176
     1
 90
        1
176
     1
 40
0.0
176
     1
 90
        0
176
     1
290
     0
176
     1
290
     1
176
     1
290
     1
176
     1
290
     0
176
     1
290
     0
176
     1
290
     0
176
     1
290
     0
176
     1
290
     0
176
     1
290
     0
176
     1
 90
       50
176
     1
 40
0.0
176
     1
 40
1.0
176
     1
 90
        0
176
     1
 62
    18
420
        0
176
     1
 90
       50
176
     1
 90
        3
176
     1
 62
     5
420
      255
176
     1
290
     0
176
     1
 90
       50
176
     1
 90
       50
176
     1
 90
       50
176
     1
290
     0
176
     1
 90
       50
176
     1
 62
   256
176
     0
 40
1.0
176
     0
 90
        2
176
     1
  1
strokes_ogs.tif
176
     1
290
     0
176
     1
 40
1.0
176
     1
 40
1.0
176
     1
  0
VISUALSTYLE
  5
2A
102
{ACAD_REACTORS
330
29
102
}
330
29
100
AcDbVisualStyle
  2
Flat
 70
     0
177
     3
291
     1
 70
    58
 90
        2
176
     1
 90
        1
176
     1
 90
        1
176
     1
 90
        2
176
     1
 40
0.6
176
     1
 40
30.0
176
     1
 62
     7
420
 16777215
176
     1
 90
        0
176
     1
 90
        0
176
     1
 62
     7
176
     1
 62
   257
176
     1
 90
        1
176
     1
 90
        1
176
     1
 40
1.0
176
     1
 90
        8
176
     1
 62
     7
176
     1
 40
1.0
176
     1
 90
        1
176
     1
 90
        6
176
     1
 90
        2
176
     1
 62
     7
176
     1
 90
        5
176
     1
 90
        0
176
     1
 90
        0
176
     1
290
     0
176
     1
 90
       13
176
     1
 40
0.0
176
     1
 90
        0
176
     1
290
     0
176
     1
290
     1
176
     1
290
     1
176
     1
290
     0
176
     1
290
     0
176
     1
290
     0
176
     1
290
     0
176
     1
290
     0
176
     1
290
     0
176
     1
 90
       50
176
     1
 40
0.0
176
     1
 40
1.0
176
     1
 90
        0
176
     1
 62
    18
420
        0
176
     1
 90
       50
176
     1
 90
        3
176
     1
 62
     5
420
      255
176
     1
290
     0
176
     1
 90
       50
176
     1
 90
       50
176
     1
 90
       50
176
     1
290
     0
176
     1
 90
       50
176
     1
 62
   256
176
     0
 40
1.0
176
     0
 90
        2
176
     1
  1
strokes_ogs.tif
176
     1
290
     0
176
     1
 40
1.0
176
     1
 40
1.0
176
     1
  0
VISUALSTYLE
  5
2B
102
{ACAD_REACTORS
330
29
102
}
330
29
100
AcDbVisualStyle
  2
FlatWithEdges
 70
     1
177
     3
291
     1
 70
    58
 90
        2
176
     1
 90
        1
176
     1
 90
        1
176
     1
 90
        2
176
     1
 40
0.6
176
     1
 40
30.0
176
     1
 62
     7
420
 16777215
176
     1
 90
        1
176
     1
 90
        0
176
     1
 62
     7
176
     1
 62
   257
176
     1
 90
        1
176
     1
 90
        1
176
     1
 40
1.0
176
     1
 90
        0
176
     1
 62
   257
176
     1
 40
1.0
176
     1
 90
        1
176
     1
 90
        6
176
     1
 90
        2
176
     1
 62
     7
176
     1
 90
        5
176
     1
 90
        0
176
     1
 90
        0
176
     1
290
     0
176
     1
 90
       13
176
     1
 40
0.0
176
     1
 90
        0
176
     1
290
     0
176
     1
290
     1
176
     1
290
     1
176
     1
290
     0
176
     1
290
     0
176
     1
290
     0
176
     1
290
     0
176
     1
290
     0
176
     1
290
     0
176
     1
 90
       50
176
     1
 40
0.0
176
     1
 40
1.0
176
     1
 90
        0
176
     1
 62
    18
420
        0
176
     1
 90
       50
176
     1
 90
        3
176
     1
 62
     5
420
      255
176
     1
290
     0
176
     1
 90
       50
176
     1
 90
       50
176
     1
 90
       50
176
     1
290
     0
176
     1
 90
       50
176
     1
 62
   256
176
     0
 40
1.0
176
     0
 90
        2
176
     1
  1
strokes_ogs.tif
176
     1
290
     0
176
     1
 40
1.0
176
     1
 40
1.0
176
     1
  0
VISUALSTYLE
  5
2C
102
{ACAD_REACTORS
330
29
102
}
330
29
100
AcDbVisualStyle
  2
Gouraud
 70
     2
177
     3
291
     1
 70
    58
 90
        2
176
     1
 90
        2
176
     1
 90
        1
176
     1
 90
        2
176
     1
 40
0.6
176
     1
 40
30.0
176
     1
 62
     7
420
 16777215
176
     1
 90
        0
176
     1
 90
        0
176
     1
 62
     7
176
     1
 62
   257
176
     1
 90
        1
176
     1
 90
        1
176
     1
 40
1.0
176
     1
 90
        0
176
     1
 62
     7
176
     1
 40
1.0
176
     1
 90
        1
176
     1
 90
        6
176
     1
 90
        2
176
     1
 62
     7
176
     1
 90
        5
176
     1
 90
        0
176
     1
 90
        0
176
     1
290
     0
176
     1
 90
       13
176
     1
 40
0.0
176
     1
 90
        0
176
     1
290
     0
176
     1
290
     1
176
     1
290
     1
176
     1
290
     0
176
     1
290
     0
176
     1
290
     0
176
     1
290
     0
176
     1
290
     0
176
     1
290
     0
176
     1
 90
       50
176
     1
 40
0.0
176
     1
 40
1.0
176
     1
 90
        0
176
     1
 62
    18
420
        0
176
     1
 90
       50
176
     1
 90
        3
176
     1
 62
     5
420
      255
176
     1
290
     0
176
     1
 90
       50
176
     1
 90
       50
176
     1
 90
       50
176
     1
290
     0
176
     1
 90
       50
176
     1
 62
   256
176
     0
 40
1.0
176
     0
 90
        2
176
     1
  1
strokes_ogs.tif
176
     1
290
     0
176
     1
 40
1.0
176
     1
 40
1.0
176
     1
  0
VISUALSTYLE
  5
2D
102
{ACAD_REACTORS
330
29
102
}
330
29
100
AcDbVisualStyle
  2
GouraudWithEdges
 70
     3
177
     3
291
     1
 70
    58
 90
        2
176
     1
 90
        2
176
     1
 90
        1
176
     1
 90
        2
176
     1
 40
0.6
176
     1
 40
30.0
176
     1
 62
     7
420
 16777215
176
     1
 90
        1
176
     1
 90
        0
176
     1
 62
     7
176
     1
 62
   257
176
     1
 90
        1
176
     1
 90
        1
176
     1
 40
1.0
176
     1
 90
        0
176
     1
 62
   257
176
     1
 40
1.0
176
     1
 90
        1
176
     1
 90
        6
176
     1
 90
        2
176
     1
 62
     7
176
     1
 90
        5
176
     1
 90
        0
176
     1
 90
        0
176
     1
290
     0
176
     1
 90
       13
176
     1
 40
0.0
176
     1
 90
        0
176
     1
290
     0
176
     1
290
     1
176
     1
290
     1
176
     1
290
     0
176
     1
290
     0
176
     1
290
     0
176
     1
290
     0
176
     1
290
     0
176
     1
290
     0
176
     1
 90
       50
176
     1
 40
0.0
176
     1
 40
1.0
176
     1
 90
        0
176
     1
 62
    18
420
        0
176
     1
 90
       50
176
     1
 90
        3
176
     1
 62
     5
420
      255
176
     1
290
     0
176
     1
 90
       50
176
     1
 90
       50
176
     1
 90
       50
176
     1
290
     0
176
     1
 90
       50
176
     1
 62
   256
176
     0
 40
1.0
176
     0
 90
        2
176
     1
  1
strokes_ogs.tif
176
     1
290
     0
176
     1
 40
1.0
176
     1
 40
1.0
176
     1
  0
VISUALSTYLE
  5
31
102
{ACAD_REACTORS
330
29
102
}
330
29
100
AcDbVisualStyle
  2
Hidden
 70
     6
177
     3
291
     0
 70
    58
 90
        1
176
     1
 90
        2
176
     1
 90
        2
176
     1
 90
        0
176
     1
 40
0.6
176
     1
 40
30.0
176
     1
 62
     7
420
 16777215
176
     1
 90
        2
176
     1
 90
        2
176
     1
 62
     7
176
     1
 62
   257
176
     1
 90
        2
176
     1
 90
        1
176
     1
 40
40.0
176
     1
 90
        0
176
     1
 62
   257
176
     1
 40
1.0
176
     1
 90
        1
176
     1
 90
        6
176
     1
 90
        2
176
     1
 62
     7
176
     1
 90
        3
176
     1
 90
        0
176
     1
 90
        0
176
     1
290
     0
176
     1
 90
        1
176
     1
 40
0.0
176
     1
 90
        0
176
     1
290
     0
176
     1
290
     1
176
     1
290
     1
176
     1
290
     0
176
     1
290
     0
176
     1
290
     0
176
     1
290
     0
176
     1
290
     0
176
     1
290
     0
176
     1
 90
       50
176
     1
 40
0.0
176
     1
 40
1.0
176
     1
 90
        0
176
     1
 62
    18
420
        0
176
     1
 90
       50
176
     1
 90
        3
176
     1
 62
     5
420
      255
176
     1
290
     0
176
     1
 90
       50
176
     1
 90
       50
176
     1
 90
       50
176
     1
290
     0
176
     1
 90
       50
176
     1
 62
   256
176
     0
 40
1.0
176
     0
 90
        2
176
     1
  1
strokes_ogs.tif
176
     1
290
     0
176
     1
 40
1.0
176
     1
 40
1.0
176
     1
  0
VISUALSTYLE
  5
3F
102
{ACAD_REACTORS
330
29
102
}
330
29
100
AcDbVisualStyle
  2
JitterOff
 70
    20
177
     3
291
     1
 70
    58
 90
        2
176
     0
 90
        2
176
     0
 90
        0
176
     0
 90
        0
176
     0
 40
0.6
176
     0
 40
30.0
176
     0
 62
     7
420
 16777215
176
     0
 90
        1
176
     0
 90
        4
176
     0
 62
     7
176
     0
 62
   257
176
     0
 90
        1
176
     0
 90
        1
176
     0
 40
1.0
176
     0
 90
       10
176
     2
 62
     7
176
     0
 40
1.0
176
     0
 90
        1
176
     0
 90
        6
176
     0
 90
        2
176
     0
 62
     7
176
     0
 90
        5
176
     0
 90
        0
176
     0
 90
        0
176
     0
290
     0
176
     0
 90
        1
176
     0
 40
0.0
176
     0
 90
        0
176
     0
290
     0
176
     0
290
     1
176
     0
290
     1
176
     0
290
     0
176
     0
290
     0
176
     0
290
     0
176
     0
290
     0
176
     0
290
     0
176
     0
290
     0
176
     0
 90
       50
176
     0
 40
0.0
176
     0
 40
1.0
176
     0
 90
        0
176
     0
 62
    18
420
        0
176
     0
 90
       50
176
     0
 90
        3
176
     0
 62
     5
420
      255
176
     0
290
     0
176
     0
 90
       50
176
     0
 90
       50
176
     0
 90
       50
176
     0
290
     0
176
     0
 90
       50
176
     0
 62
   256
176
     0
 40
1.0
176
     0
 90
        2
176
     0
  1
strokes_ogs.tif
176
     0
290
     0
176
     0
 40
1.0
176
     0
 40
1.0
176
     0
  0
VISUALSTYLE
  5
37
102
{ACAD_REACTORS
330
29
102
}
330
29
100
AcDbVisualStyle
  2
Linepattern
 70
    14
177
     3
291
     1
 70
    58
 90
        2
176
     1
 90
        2
176
     1
 90
        0
176
     1
 90
        0
176
     1
 40
0.6
176
     1
 40
30.0
176
     1
 62
     7
420
 16777215
176
     1
 90
        1
176
     1
 90
        4
176
     1
 62
     7
176
     1
 62
   257
176
     1
 90
        7
176
     1
 90
        7
176
     1
 40
1.0
176
     1
 90
        8
176
     1
 62
     7
176
     1
 40
1.0
176
     1
 90
        1
176
     1
 90
        6
176
     1
 90
        2
176
     1
 62
     7
176
     1
 90
        5
176
     1
 90
        0
176
     1
 90
        0
176
     1
290
     0
176
     1
 90
        1
176
     1
 40
0.0
176
     1
 90
        0
176
     1
290
     0
176
     1
290
     1
176
     1
290
     1
176
     1
290
     0
176
     1
290
     0
176
     1
290
     0
176
     1
290
     0
176
     1
290
     0
176
     1
290
     0
176
     1
 90
       50
176
     1
 40
0.0
176
     1
 40
1.0
176
     1
 90
        0
176
     1
 62
    18
420
        0
176
     1
 90
       50
176
     1
 90
        3
176
     1
 62
     5
420
      255
176
     1
290
     0
176
     1
 90
       50
176
     1
 90
       50
176
     1
 90
       50
176
     1
290
     0
176
     1
 90
       50
176
     1
 62
   256
176
     0
 40
1.0
176
     0
 90
        2
176
     1
  1
strokes_ogs.tif
176
     1
290
     0
176
     1
 40
1.0
176
     1
 40
1.0
176
     1
  0
VISUALSTYLE
  5
40
102
{ACAD_REACTORS
330
29
102
}
330
29
100
AcDbVisualStyle
  2
OverhangOff
 70
    21
177
     3
291
     1
 70
    58
 90
        2
176
     0
 90
        2
176
     0
 90
        0
176
     0
 90
        0
176
     0
 40
0.6
176
     0
 40
30.0
176
     0
 62
     7
420
 16777215
176
     0
 90
        1
176
     0
 90
        4
176
     0
 62
     7
176
     0
 62
   257
176
     0
 90
        1
176
     0
 90
        1
176
     0
 40
1.0
176
     0
 90
        9
176
     2
 62
     7
176
     0
 40
1.0
176
     0
 90
        1
176
     0
 90
        6
176
     0
 90
        2
176
     0
 62
     7
176
     0
 90
        5
176
     0
 90
        0
176
     0
 90
        0
176
     0
290
     0
176
     0
 90
        1
176
     0
 40
0.0
176
     0
 90
        0
176
     0
290
     0
176
     0
290
     1
176
     0
290
     1
176
     0
290
     0
176
     0
290
     0
176
     0
290
     0
176
     0
290
     0
176
     0
290
     0
176
     0
290
     0
176
     0
 90
       50
176
     0
 40
0.0
176
     0
 40
1.0
176
     0
 90
        0
176
     0
 62
    18
420
        0
176
     0
 90
       50
176
     0
 90
        3
176
     0
 62
     5
420
      255
176
     0
290
     0
176
     0
 90
       50
176
     0
 90
       50
176
     0
 90
       50
176
     0
290
     0
176
     0
 90
       50
176
     0
 62
   256
176
     0
 40
1.0
176
     0
 90
        2
176
     0
  1
strokes_ogs.tif
176
     0
290
     0
176
     0
 40
1.0
176
     0
 40
1.0
176
     0
  0
VISUALSTYLE
  5
33
102
{ACAD_REACTORS
330
29
102
}
330
29
100
AcDbVisualStyle
  2
Realistic
 70
     8
177
     3
291
     0
 70
    58
 90
        2
176
     1
 90
        3
176
     1
 90
        0
176
     1
 90
        2
176
     1
 40
0.6
176
     1
 40
30.0
176
     1
 62
     7
420
 16777215
176
     1
 90
        0
176
     1
 90
        0
176
     1
 62
     7
176
     1
 62
   257
176
     1
 90
        1
176
     1
 90
        1
176
     1
 40
1.0
176
     1
 90
        8
176
     1
 62
   257
176
     1
 40
1.0
176
     1
 90
        1
176
     1
 90
        6
176
     1
 90
        2
176
     1
 62
     7
176
     1
 90
        3
176
     1
 90
        0
176
     1
 90
        0
176
     1
290
     0
176
     1
 90
       13
176
     1
 40
0.0
176
     1
 90
        0
176
     1
290
     0
176
     1
290
     1
176
     1
290
     1
176
     1
290
     0
176
     1
290
     0
176
     1
290
     0
176
     1
290
     0
176
     1
290
     0
176
     1
290
     0
176
     1
 90
       50
176
     1
 40
0.0
176
     1
 40
1.0
176
     1
 90
        0
176
     1
 62
    18
420
        0
176
     1
 90
       50
176
     1
 90
        3
176
     1
 62
     5
420
      255
176
     1
290
     0
176
     1
 90
       50
176
     1
 90
       50
176
     1
 90
       50
176
     1
290
     0
176
     1
 90
       50
176
     1
 62
   256
176
     0
 40
1.0
176
     0
 90
        2
176
     1
  1
strokes_ogs.tif
176
     1
290
     0
176
     1
 40
1.0
176
     1
 40
1.0
176
     1
  0
VISUALSTYLE
  5
3E
102
{ACAD_REACTORS
330
29
102
}
330
29
100
AcDbVisualStyle
  2
Shaded
 70
    27
177
     3
291
     0
 70
    58
 90
        2
176
     1
 90
        2
176
     1
 90
        1
176
     1
 90
        2
176
     1
 40
0.6
176
     1
 40
30.0
176
     1
 62
     7
420
 16777215
176
     1
 90
        0
176
     1
 90
        4
176
     1
 62
     7
176
     1
 62
   257
176
     1
 90
        1
176
     1
 90
        1
176
     1
 40
1.0
176
     1
 90
        8
176
     1
 62
   257
176
     1
 40
1.0
176
     1
 90
        1
176
     1
 90
        6
176
     1
 90
        2
176
     1
 62
     8
420
  7895160
176
     1
 90
        3
176
     1
 90
        0
176
     1
 90
        0
176
     1
290
     0
176
     1
 90
        5
176
     1
 40
0.0
176
     1
 90
        0
176
     1
290
     0
176
     1
290
     1
176
     1
290
     1
176
     1
290
     0
176
     1
290
     0
176
     1
290
     0
176
     1
290
     0
176
     1
290
     0
176
     1
290
     0
176
     1
 90
       50
176
     1
 40
0.0
176
     1
 40
1.0
176
     1
 90
        0
176
     1
 62
    18
420
        0
176
     1
 90
       50
176
     1
 90
        3
176
     1
 62
     5
420
      255
176
     1
290
     0
176
     1
 90
       50
176
     1
 90
       50
176
     1
 90
       50
176
     1
290
     0
176
     1
 90
       50
176
     1
 62
   256
176
     0
 40
1.0
176
     0
 90
        2
176
     1
  1
strokes_ogs.tif
176
     1
290
     0
176
     1
 40
1.0
176
     1
 40
1.0
176
     1
  0
VISUALSTYLE
  5
3D
102
{ACAD_REACTORS
330
29
102
}
330
29
100
AcDbVisualStyle
  2
Shaded with edges
 70
    26
177
     3
291
     0
 70
    58
 90
        2
176
     1
 90
        2
176
     1
 90
        1
176
     1
 90
        2
176
     1
 40
0.6
176
     1
 40
30.0
176
     1
 62
     7
420
 16777215
176
     1
 90
        1
176
     1
 90
        2
176
     1
 62
     7
176
     1
 62
   257
176
     1
 90
        2
176
     1
 90
        1
176
     1
 40
1.0
176
     1
 90
        8
176
     1
 62
   257
176
     1
 40
1.0
176
     1
 90
        1
176
     1
 90
        6
176
     1
 90
        2
176
     1
 62
     7
176
     1
 90
        3
176
     1
 90
        0
176
     1
 90
        0
176
     1
290
     0
176
     1
 90
        5
176
     1
 40
0.0
176
     1
 90
        0
176
     1
290
     0
176
     1
290
     1
176
     1
290
     1
176
     1
290
     0
176
     1
290
     0
176
     1
290
     0
176
     1
290
     0
176
     1
290
     0
176
     1
290
     0
176
     1
 90
       50
176
     1
 40
0.0
176
     1
 40
1.0
176
     1
 90
        0
176
     1
 62
    18
420
        0
176
     1
 90
       50
176
     1
 90
        3
176
     1
 62
     5
420
      255
176
     1
290
     0
176
     1
 90
       50
176
     1
 90
       50
176
     1
 90
       50
176
     1
290
     0
176
     1
 90
       50
176
     1
 62
   256
176
     0
 40
1.0
176
     0
 90
        2
176
     1
  1
strokes_ogs.tif
176
     1
290
     0
176
     1
 40
1.0
176
     1
 40
1.0
176
     1
  0
VISUALSTYLE
  5
3A
102
{ACAD_REACTORS
330
29
102
}
330
29
100
AcDbVisualStyle
  2
Shades of Gray
 70
    23
177
     3
291
     0
 70
    58
 90
        2
176
     1
 90
        2
176
     1
 90
        3
176
     1
 90
        0
176
     1
 40
0.6
176
     1
 40
30.0
176
     1
 62
     7
420
 16777215
176
     1
 90
        2
176
     1
 90
        2
176
     1
 62
     7
176
     1
 62
     7
176
     1
 90
        1
176
     1
 90
        1
176
     1
 40
40.0
176
     1
 90
        8
176
     1
 62
     7
176
     1
 40
1.0
176
     1
 90
        1
176
     1
 90
        6
176
     1
 90
        2
176
     1
 62
     7
176
     1
 90
        3
176
     1
 90
        0
176
     1
 90
        0
176
     1
290
     0
176
     1
 90
        1
176
     1
 40
0.0
176
     1
 90
        0
176
     1
290
     0
176
     1
290
     1
176
     1
290
     1
176
     1
290
     0
176
     1
290
     0
176
     1
290
     0
176
     1
290
     0
176
     1
290
     0
176
     1
290
     0
176
     1
 90
       50
176
     1
 40
0.0
176
     1
 40
1.0
176
     1
 90
        0
176
     1
 62
    18
420
        0
176
     1
 90
       50
176
     1
 90
        3
176
     1
 62
     5
420
      255
176
     1
290
     0
176
     1
 90
       50
176
     1
 90
       50
176
     1
 90
       50
176
     1
290
     0
176
     1
 90
       50
176
     1
 62
   256
176
     0
 40
1.0
176
     0
 90
        2
176
     1
  1
strokes_ogs.tif
176
     1
290
     0
176
     1
 40
1.0
176
     1
 40
1.0
176
     1
  0
VISUALSTYLE
  5
3B
102
{ACAD_REACTORS
330
29
102
}
330
29
100
AcDbVisualStyle
  2
Sketchy
 70
    24
177
     3
291
     0
 70
    58
 90
        1
176
     1
 90
        2
176
     1
 90
        2
176
     1
 90
        0
176
     1
 40
0.6
176
     1
 40
30.0
176
     1
 62
     7
420
 16777215
176
     1
 90
        2
176
     1
 90
        2
176
     1
 62
     7
176
     1
 62
     7
176
     1
 90
        1
176
     1
 90
        1
176
     1
 40
40.0
176
     1
 90
       11
176
     1
 62
     7
176
     1
 40
1.0
176
     1
 90
        1
176
     1
 90
        6
176
     1
 90
        2
176
     1
 62
     7
176
     1
 90
        6
176
     1
 90
        0
176
     1
 90
        0
176
     1
290
     0
176
     1
 90
        1
176
     1
 40
0.0
176
     1
 90
        0
176
     1
290
     0
176
     1
290
     1
176
     1
290
     1
176
     1
290
     0
176
     1
290
     0
176
     1
290
     0
176
     1
290
     0
176
     1
290
     0
176
     1
290
     0
176
     1
 90
       50
176
     1
 40
0.0
176
     1
 40
1.0
176
     1
 90
        0
176
     1
 62
    18
420
        0
176
     1
 90
       50
176
     1
 90
        3
176
     1
 62
     5
420
      255
176
     1
290
     0
176
     1
 90
       50
176
     1
 90
       50
176
     1
 90
       50
176
     1
290
     0
176
     1
 90
       50
176
     1
 62
   256
176
     0
 40
1.0
176
     0
 90
        2
176
     1
  1
strokes_ogs.tif
176
     1
290
     0
176
     1
 40
1.0
176
     1
 40
1.0
176
     1
  0
VISUALSTYLE
  5
36
102
{ACAD_REACTORS
330
29
102
}
330
29
100
AcDbVisualStyle
  2
Thicken
 70
    13
177
     3
291
     1
 70
    58
 90
        2
176
     1
 90
        2
176
     1
 90
        0
176
     1
 90
        0
176
     1
 40
0.6
176
     1
 40
30.0
176
     1
 62
     7
420
 16777215
176
     1
 90
        1
176
     1
 90
        4
176
     1
 62
     7
176
     1
 62
   257
176
     1
 90
        1
176
     1
 90
        1
176
     1
 40
1.0
176
     1
 90
       12
176
     1
 62
     7
176
     1
 40
1.0
176
     1
 90
        1
176
     1
 90
        6
176
     1
 90
        2
176
     1
 62
     7
176
     1
 90
        5
176
     1
 90
        0
176
     1
 90
        0
176
     1
290
     0
176
     1
 90
        1
176
     1
 40
0.0
176
     1
 90
        0
176
     1
290
     0
176
     1
290
     1
176
     1
290
     1
176
     1
290
     0
176
     1
290
     0
176
     1
290
     0
176
     1
290
     0
176
     1
290
     0
176
     1
290
     0
176
     1
 90
       50
176
     1
 40
0.0
176
     1
 40
1.0
176
     1
 90
        0
176
     1
 62
    18
420
        0
176
     1
 90
       50
176
     1
 90
        3
176
     1
 62
     5
420
      255
176
     1
290
     0
176
     1
 90
       50
176
     1
 90
       50
176
     1
 90
       50
176
     1
290
     0
176
     1
 90
       50
176
     1
 62
   256
176
     0
 40
1.0
176
     0
 90
        2
176
     1
  1
strokes_ogs.tif
176
     1
290
     0
176
     1
 40
1.0
176
     1
 40
1.0
176
     1
  0
VISUALSTYLE
  5
30
102
{ACAD_REACTORS
330
29
102
}
330
29
100
AcDbVisualStyle
  2
Wireframe
 70
     5
177
     3
291
     0
 70
    58
 90
        0
176
     1
 90
        2
176
     1
 90
        0
176
     1
 90
        0
176
     1
 40
0.6
176
     1
 40
30.0
176
     1
 62
     7
420
 16777215
176
     1
 90
        1
176
     1
 90
        4
176
     1
 62
     7
176
     1
 62
   257
176
     1
 90
        1
176
     1
 90
        1
176
     1
 40
1.0
176
     1
 90
        0
176
     1
 62
   257
176
     1
 40
1.0
176
     1
 90
        1
176
     1
 90
        6
176
     1
 90
        2
176
     1
 62
     7
176
     1
 90
        3
176
     1
 90
        0
176
     1
 90
        0
176
     1
290
     0
176
     1
 90
        1
176
     1
 40
0.0
176
     1
 90
        0
176
     1
290
     0
176
     1
290
     1
176
     1
290
     1
176
     1
290
     0
176
     1
290
     0
176
     1
290
     0
176
     1
290
     0
176
     1
290
     0
176
     1
290
     0
176
     1
 90
       50
176
     1
 40
0.0
176
     1
 40
1.0
176
     1
 90
        0
176
     1
 62
    18
420
        0
176
     1
 90
       50
176
     1
 90
        3
176
     1
 62
     5
420
      255
176
     1
290
     0
176
     1
 90
       50
176
     1
 90
       50
176
     1
 90
       50
176
     1
290
     0
176
     1
 90
       50
176
     1
 62
   256
176
     0
 40
1.0
176
     0
 90
        2
176
     1
  1
strokes_ogs.tif
176
     1
290
     0
176
     1
 40
1.0
176
     1
 40
1.0
176
     1
  0
VISUALSTYLE
  5
3C
102
{ACAD_REACTORS
330
29
102
}
330
29
100
AcDbVisualStyle
  2
X-Ray
 70
    25
177
     3
291
     0
 70
    58
 90
        2
176
     1
 90
        2
176
     1
 90
        1
176
     1
 90
        1
176
     1
 40
0.5
176
     1
 40
30.0
176
     1
 62
     7
420
 16777215
176
     1
 90
        1
176
     1
 90
        0
176
     1
 62
     7
176
     1
 62
   257
176
     1
 90
        1
176
     1
 90
        1
176
     1
 40
1.0
176
     1
 90
        8
176
     1
 62
     7
176
     1
 40
1.0
176
     1
 90
        1
176
     1
 90
        6
176
     1
 90
        2
176
     1
 62
     7
176
     1
 90
        3
176
     1
 90
        0
176
     1
 90
        0
176
     1
290
     0
176
     1
 90
       13
176
     1
 40
0.0
176
     1
 90
        0
176
     1
290
     0
176
     1
290
     1
176
     1
290
     1
176
     1
290
     0
176
     1
290
     0
176
     1
290
     0
176
     1
290
     0
176
     1
290
     0
176
     1
290
     0
176
     1
 90
       50
176
     1
 40
0.0
176
     1
 40
1.0
176
     1
 90
        0
176
     1
 62
    18
420
        0
176
     1
 90
       50
176
     1
 90
        3
176
     1
 62
     5
420
      255
176
     1
290
     0
176
     1
 90
       50
176
     1
 90
       50
176
     1
 90
       50
176
     1
290
     0
176
     1
 90
       50
176
     1
 62
   256
176
     0
 40
1.0
176
     0
 90
        2
176
     1
  1
strokes_ogs.tif
176
     1
290
     0
176
     1
 40
1.0
176
     1
 40
1.0
176
     1
  0
DICTIONARYVAR
  5
94
102
{ACAD_REACTORS
330
8F
102
}
330
8F
100
DictionaryVariables
280
     0
  1
1:1
  0
DICTIONARYVAR
  5
91
102
{ACAD_REACTORS
330
8F
102
}
330
8F
100
DictionaryVariables
280
     0
  1
STANDARD
  0
DICTIONARYVAR
  5
90
102
{ACAD_REACTORS
330
8F
102
}
330
8F
100
DictionaryVariables
280
     0
  1
STANDARD
  0
DICTIONARYVAR
  5
92
102
{ACAD_REACTORS
330
8F
102
}
330
8F
100
DictionaryVariables
280
     0
  1
Imperial24
  0
DICTIONARYVAR
  5
93
102
{ACAD_REACTORS
330
8F
102
}
330
8F
100
DictionaryVariables
280
     0
  1
Imperial24
  0
DICTIONARY
  5
1A
330
19
100
AcDbDictionary
280
     1
281
     1
  3
BUMPTILE
360
1C
  3
DIFFUSETILE
360
1B
  3
OPACITYTILE
360
1F
  3
REFLECTIONTILE
360
1E
  3
REFRACTIONTILE
360
20
  3
SPECULARTILE
360
1D
  0
DICTIONARY
  5
12
330
11
100
AcDbDictionary
280
     1
281
     1
  3
BUMPTILE
360
14
  3
DIFFUSETILE
360
13
  3
OPACITYTILE
360
17
  3
REFLECTIONTILE
360
16
  3
REFRACTIONTILE
360
18
  3
SPECULARTILE
360
15
  0
DICTIONARY
  5
22
330
21
100
AcDbDictionary
280
     1
281
     1
  3
BUMPTILE
360
24
  3
DIFFUSETILE
360
23
  3
OPACITYTILE
360
27
  3
REFLECTIONTILE
360
26
  3
REFRACTIONTILE
360
28
  3
SPECULARTILE
360
25
  0
DICTIONARY
  5
95
330
65
100
AcDbDictionary
280
     1
281
     1
  3
ACAD_ROUNDTRIP_2008_TABLESTYLE_CELLSTYLEMAP
360
96
  0
XRECORD
  5
1C
102
{ACAD_REACTORS
330
1A
102
}
330
1A
100
AcDbXrecord
280
     1
270
     1
271
     1
  0
XRECORD
  5
1B
102
{ACAD_REACTORS
330
1A
102
}
330
1A
100
AcDbXrecord
280
     1
270
     1
271
     1
  0
XRECORD
  5
1F
102
{ACAD_REACTORS
330
1A
102
}
330
1A
100
AcDbXrecord
280
     1
270
     1
271
     1
  0
XRECORD
  5
1E
102
{ACAD_REACTORS
330
1A
102
}
330
1A
100
AcDbXrecord
280
     1
270
     1
271
     1
  0
XRECORD
  5
20
102
{ACAD_REACTORS
330
1A
102
}
330
1A
100
AcDbXrecord
280
     1
270
     1
271
     1
  0
XRECORD
  5
1D
102
{ACAD_REACTORS
330
1A
102
}
330
1A
100
AcDbXrecord
280
     1
270
     1
271
     1
  0
XRECORD
  5
14
102
{ACAD_REACTORS
330
12
102
}
330
12
100
AcDbXrecord
280
     1
270
     1
271
     1
  0
XRECORD
  5
13
102
{ACAD_REACTORS
330
12
102
}
330
12
100
AcDbXrecord
280
     1
270
     1
271
     1
  0
XRECORD
  5
17
102
{ACAD_REACTORS
330
12
102
}
330
12
100
AcDbXrecord
280
     1
270
     1
271
     1
  0
XRECORD
  5
16
102
{ACAD_REACTORS
330
12
102
}
330
12
100
AcDbXrecord
280
     1
270
     1
271
     1
  0
XRECORD
  5
18
102
{ACAD_REACTORS
330
12
102
}
330
12
100
AcDbXrecord
280
     1
270
     1
271
     1
  0
XRECORD
  5
15
102
{ACAD_REACTORS
330
12
102
}
330
12
100
AcDbXrecord
280
     1
270
     1
271
     1
  0
XRECORD
  5
24
102
{ACAD_REACTORS
330
22
102
}
330
22
100
AcDbXrecord
280
     1
270
     1
271
     1
  0
XRECORD
  5
23
102
{ACAD_REACTORS
330
22
102
}
330
22
100
AcDbXrecord
280
     1
270
     1
271
     1
  0
XRECORD
  5
27
102
{ACAD_REACTORS
330
22
102
}
330
22
100
AcDbXrecord
280
     1
270
     1
271
     1
  0
XRECORD
  5
26
102
{ACAD_REACTORS
330
22
102
}
330
22
100
AcDbXrecord
280
     1
270
     1
271
     1
  0
XRECORD
  5
28
102
{ACAD_REACTORS
330
22
102
}
330
22
100
AcDbXrecord
280
     1
270
     1
271
     1
  0
XRECORD
  5
25
102
{ACAD_REACTORS
330
22
102
}
330
22
100
AcDbXrecord
280
     1
270
     1
271
     1
  0
CELLSTYLEMAP
  5
96
102
{ACAD_REACTORS
330
95
102
}
330
95
100
AcDbCellStyleMap
 90
        3
300
CELLSTYLE
  1
TABLEFORMAT_BEGIN
 90
        5
170
     1
 91
        0
 92
    32768
 62
   257
 93
        1
300
CONTENTFORMAT
  1
CONTENTFORMAT_BEGIN
 90
        0
 91
        0
 92
      512
 93
        0
300

 40
0.0
140
1.0
 94
        5
 62
     0
340
55
144
0.25
309
CONTENTFORMAT_END
171
     0
 94
        0
309
TABLEFORMAT_END
  1
CELLSTYLE_BEGIN
 90
        1
 91
        1
300
_TITLE
309
CELLSTYLE_END
300
CELLSTYLE
  1
TABLEFORMAT_BEGIN
 90
        5
170
     1
 91
        0
 92
        0
 62
   257
 93
        1
300
CONTENTFORMAT
  1
CONTENTFORMAT_BEGIN
 90
        0
 91
        0
 92
      512
 93
        0
300

 40
0.0
140
1.0
 94
        5
 62
     0
340
55
144
0.18
309
CONTENTFORMAT_END
171
     0
 94
        0
309
TABLEFORMAT_END
  1
CELLSTYLE_BEGIN
 90
        2
 91
        1
300
_HEADER
309
CELLSTYLE_END
300
CELLSTYLE
  1
TABLEFORMAT_BEGIN
 90
        5
170
     1
 91
        0
 92
        0
 62
   257
 93
        1
300
CONTENTFORMAT
  1
CONTENTFORMAT_BEGIN
 90
        0
 91
        0
 92
      512
 93
        0
300

 40
0.0
140
1.0
 94
        2
 62
     0
340
55
144
0.18
309
CONTENTFORMAT_END
171
     0
 94
        0
309
TABLEFORMAT_END
  1
CELLSTYLE_BEGIN
 90
        3
 91
        2
300
_DATA
309
CELLSTYLE_END
  0
ENDSEC
  0
EOF
