  0
SECTION
  2
HEADER
  9
$ACADVER
  1
AC1032
  9
$ACADMAINTVER
 90
      155
  9
$DWGCODEPAGE
  3
ANSI_1251
  9
$REQUIREDVERSIONS
160
                 0
  9
$INSBASE
 10
0.0
 20
0.0
 30
0.0
  9
$EXTMIN
 10
1.000000000000000E+20
 20
1.000000000000000E+20
 30
1.000000000000000E+20
  9
$EXTMAX
 10
-1.000000000000000E+20
 20
-1.000000000000000E+20
 30
-1.000000000000000E+20
  9
$LIMMIN
 10
0.0
 20
0.0
  9
$LIMMAX
 10
12.0
 20
9.0
  9
$ORTHOMODE
 70
     0
  9
$REGENMODE
 70
     1
  9
$FILLMODE
 70
     1
  9
$QTEXTMODE
 70
     0
  9
$MIRRTEXT
 70
     0
  9
$LTSCALE
 40
1.0
  9
$ATTMODE
 70
     1
  9
$TEXTSIZE
 40
0.2
  9
$TRACEWID
 40
0.05
  9
$TEXTSTYLE
  7
Standard
  9
$CLAYER
  8
0
  9
$CELTYPE
  6
ByLayer
  9
$CECOLOR
 62
   256
  9
$CELTSCALE
 40
1.0
  9
$DISPSILH
 70
     0
  9
$DIMSCALE
 40
1.0
  9
$DIMASZ
 40
0.18
  9
$DIMEXO
 40
0.0625
  9
$DIMDLI
 40
0.38
  9
$DIMRND
 40
0.0
  9
$DIMDLE
 40
0.0
  9
$DIMEXE
 40
0.18
  9
$DIMTP
 40
0.0
  9
$DIMTM
 40
0.0
  9
$DIMTXT
 40
0.18
  9
$DIMCEN
 40
0.09
  9
$DIMTSZ
 40
0.0
  9
$DIMTOL
 70
     0
  9
$DIMLIM
 70
     0
  9
$DIMTIH
 70
     1
  9
$DIMTOH
 70
     1
  9
$DIMSE1
 70
     0
  9
$DIMSE2
 70
     0
  9
$DIMTAD
 70
     0
  9
$DIMZIN
 70
     0
  9
$DIMBLK
  1

  9
$DIMASO
 70
     1
  9
$DIMSHO
 70
     1
  9
$DIMPOST
  1

  9
$DIMAPOST
  1

  9
$DIMALT
 70
     0
  9
$DIMALTD
 70
     2
  9
$DIMALTF
 40
25.4
  9
$DIMLFAC
 40
1.0
  9
$DIMTOFL
 70
     0
  9
$DIMTVP
 40
0.0
  9
$DIMTIX
 70
     0
  9
$DIMSOXD
 70
     0
  9
$DIMSAH
 70
     0
  9
$DIMBLK1
  1

  9
$DIMBLK2
  1

  9
$DIMSTYLE
  2
Standard
  9
$DIMCLRD
 70
     0
  9
$DIMCLRE
 70
     0
  9
$DIMCLRT
 70
     0
  9
$DIMTFAC
 40
1.0
  9
$DIMGAP
 40
0.09
  9
$DIMJUST
 70
     0
  9
$DIMSD1
 70
     0
  9
$DIMSD2
 70
     0
  9
$DIMTOLJ
 70
     1
  9
$DIMTZIN
 70
     0
  9
$DIMALTZ
 70
     0
  9
$DIMALTTZ
 70
     0
  9
$DIMUPT
 70
     0
  9
$DIMDEC
 70
     4
  9
$DIMTDEC
 70
     4
  9
$DIMALTU
 70
     2
  9
$DIMALTTD
 70
     2
  9
$DIMTXSTY
  7
Standard
  9
$DIMAUNIT
 70
     0
  9
$DIMADEC
 70
     0
  9
$DIMALTRND
 40
0.0
  9
$DIMAZIN
 70
     0
  9
$DIMDSEP
 70
    46
  9
$DIMATFIT
 70
     3
  9
$DIMFRAC
 70
     0
  9
$DIMLDRBLK
  1

  9
$DIMLUNIT
 70
     2
  9
$DIMLWD
 70
    -2
  9
$DIMLWE
 70
    -2
  9
$DIMTMOVE
 70
     0
  9
$DIMFXL
 40
1.0
  9
$DIMFXLON
 70
     0
  9
$DIMJOGANG
 40
0.7853981633974483
  9
$DIMTFILL
 70
     0
  9
$DIMTFILLCLR
 70
     0
  9
$DIMARCSYM
 70
     0
  9
$DIMLTYPE
  6

  9
$DIMLTEX1
  6

  9
$DIMLTEX2
  6

  9
$DIMTXTDIRECTION
 70
     0
  9
$LUNITS
 70
     2
  9
$LUPREC
 70
     4
  9
$SKETCHINC
 40
0.1
  9
$FILLETRAD
 40
0.0
  9
$AUNITS
 70
     0
  9
$AUPREC
 70
     0
  9
$MENU
  1
.
  9
$ELEVATION
 40
0.0
  9
$PELEVATION
 40
0.0
  9
$THICKNESS
 40
0.0
  9
$LIMCHECK
 70
     0
  9
$CHAMFERA
 40
0.0
  9
$CHAMFERB
 40
0.0
  9
$CHAMFERC
 40
0.0
  9
$CHAMFERD
 40
0.0
  9
$SKPOLY
 70
     0
  9
$TDCREATE
 40
2459993.375891204
  9
$TDUCREATE
 40
2459993.334224537
  9
$TDUPDATE
 40
2459993.375891204
  9
$TDUUPDATE
 40
2459993.334224537
  9
$TDINDWG
 40
0.0000000000
  9
$TDUSRTIMER
 40
0.0000000000
  9
$USRTIMER
 70
     1
  9
$ANGBASE
 50
0.0
  9
$ANGDIR
 70
     0
  9
$PDMODE
 70
     0
  9
$PDSIZE
 40
0.0
  9
$PLINEWID
 40
0.0
  9
$SPLFRAME
 70
     0
  9
$SPLINETYPE
 70
     6
  9
$SPLINESEGS
 70
     8
  9
$HANDSEED
  5
98
  9
$SURFTAB1
 70
     6
  9
$SURFTAB2
 70
     6
  9
$SURFTYPE
 70
     6
  9
$SURFU
 70
     6
  9
$SURFV
 70
     6
  9
$UCSBASE
  2

  9
$UCSNAME
  2

  9
$UCSORG
 10
0.0
 20
0.0
 30
0.0
  9
$UCSXDIR
 10
1.0
 20
0.0
 30
0.0
  9
$UCSYDIR
 10
0.0
 20
1.0
 30
0.0
  9
$UCSORTHOREF
  2

  9
$UCSORTHOVIEW
 70
     0
  9
$UCSORGTOP
 10
0.0
 20
0.0
 30
0.0
  9
$UCSORGBOTTOM
 10
0.0
 20
0.0
 30
0.0
  9
$UCSORGLEFT
 10
0.0
 20
0.0
 30
0.0
  9
$UCSORGRIGHT
 10
0.0
 20
0.0
 30
0.0
  9
$UCSORGFRONT
 10
0.0
 20
0.0
 30
0.0
  9
$UCSORGBACK
 10
0.0
 20
0.0
 30
0.0
  9
$PUCSBASE
  2

  9
$PUCSNAME
  2

  9
$PUCSORG
 10
0.0
 20
0.0
 30
0.0
  9
$PUCSXDIR
 10
1.0
 20
0.0
 30
0.0
  9
$PUCSYDIR
 10
0.0
 20
1.0
 30
0.0
  9
$PUCSORTHOREF
  2

  9
$PUCSORTHOVIEW
 70
     0
  9
$PUCSORGTOP
 10
0.0
 20
0.0
 30
0.0
  9
$PUCSORGBOTTOM
 10
0.0
 20
0.0
 30
0.0
  9
$PUCSORGLEFT
 10
0.0
 20
0.0
 30
0.0
  9
$PUCSORGRIGHT
 10
0.0
 20
0.0
 30
0.0
  9
$PUCSORGFRONT
 10
0.0
 20
0.0
 30
0.0
  9
$PUCSORGBACK
 10
0.0
 20
0.0
 30
0.0
  9
$USERI1
 70
     0
  9
$USERI2
 70
     0
  9
$USERI3
 70
     0
  9
$USERI4
 70
     0
  9
$USERI5
 70
     0
  9
$USERR1
 40
0.0
  9
$USERR2
 40
0.0
  9
$USERR3
 40
0.0
  9
$USERR4
 40
0.0
  9
$USERR5
 40
0.0
  9
$WORLDVIEW
 70
     1
  9
$SHADEDGE
 70
     3
  9
$SHADEDIF
 70
    70
  9
$TILEMODE
 70
     1
  9
$MAXACTVP
 70
    64
  9
$PINSBASE
 10
0.0
 20
0.0
 30
0.0
  9
$PLIMCHECK
 70
     0
  9
$PEXTMIN
 10
1.000000000000000E+20
 20
1.000000000000000E+20
 30
1.000000000000000E+20
  9
$PEXTMAX
 10
-1.000000000000000E+20
 20
-1.000000000000000E+20
 30
-1.000000000000000E+20
  9
$PLIMMIN
 10
0.0
 20
0.0
  9
$PLIMMAX
 10
12.0
 20
9.0
  9
$UNITMODE
 70
     0
  9
$VISRETAIN
 70
     1
  9
$PLINEGEN
 70
     0
  9
$PSLTSCALE
 70
     1
  9
$TREEDEPTH
 70
  3020
  9
$CMLSTYLE
  2
Standard
  9
$CMLJUST
 70
     0
  9
$CMLSCALE
 40
1.0
  9
$PROXYGRAPHICS
 70
     1
  9
$MEASUREMENT
 70
     0
  9
$CELWEIGHT
370
    -1
  9
$ENDCAPS
280
     0
  9
$JOINSTYLE
280
     0
  9
$LWDISPLAY
290
     1
  9
$INSUNITS
 70
     5
  9
$HYPERLINKBASE
  1

  9
$STYLESHEET
  1

  9
$XEDIT
290
     1
  9
$CEPSNTYPE
380
     0
  9
$PSTYLEMODE
290
     1
  9
$FINGERPRINTGUID
  2
{EE32D429-914B-C540-AED9-464727D87866}
  9
$VERSIONGUID
  2
{7B147A6F-9976-EF4B-BF13-E0B318ACDD2D}
  9
$EXTNAMES
290
     1
  9
$PSVPSCALE
 40
0.0
  9
$OLESTARTUP
290
     0
  9
$SORTENTS
280
   127
  9
$INDEXCTL
280
     0
  9
$HIDETEXT
280
     1
  9
$XCLIPFRAME
280
     2
  9
$HALOGAP
280
     0
  9
$OBSCOLOR
 70
   257
  9
$OBSLTYPE
280
     0
  9
$INTERSECTIONDISPLAY
280
     0
  9
$INTERSECTIONCOLOR
 70
   257
  9
$DIMASSOC
280
     2
  9
$PROJECTNAME
  1

  9
$CAMERADISPLAY
290
     0
  9
$LENSLENGTH
 40
50.0
  9
$CAMERAHEIGHT
 40
0.0
  9
$STEPSPERSEC
 40
2.0
  9
$STEPSIZE
 40
6.0
  9
$3DDWFPREC
 40
2.0
  9
$PSOLWIDTH
 40
0.25
  9
$PSOLHEIGHT
 40
4.0
  9
$LOFTANG1
 40
1.570796326794896
  9
$LOFTANG2
 40
1.570796326794896
  9
$LOFTMAG1
 40
0.0
  9
$LOFTMAG2
 40
0.0
  9
$LOFTPARAM
 70
     7
  9
$LOFTNORMALS
280
     1
  9
$LATITUDE
 40
37.795
  9
$LONGITUDE
 40
-122.394
  9
$NORTHDIRECTION
 40
0.0
  9
$TIMEZONE
 70
 -8000
  9
$LIGHTGLYPHDISPLAY
280
     1
  9
$TILEMODELIGHTSYNCH
280
     1
  9
$CMATERIAL
347
11
  9
$SOLIDHIST
280
     0
  9
$SHOWHIST
280
     1
  9
$DWFFRAME
280
     2
  9
$DGNFRAME
280
     0
  9
$REALWORLDSCALE
290
     1
  9
$INTERFERECOLOR
 62
     1
  9
$INTERFEREOBJVS
345
33
  9
$INTERFEREVPVS
346
30
  9
$CSHADOW
280
     0
  9
$SHADOWPLANELOCATION
 40
0.0
  0
ENDSEC
  0
SECTION
  2
CLASSES
  0
CLASS
  1
ACDBDICTIONARYWDFLT
  2
AcDbDictionaryWithDefault
  3
ObjectDBX Classes
 90
        0
 91
        1
280
     0
281
     0
  0
CLASS
  1
MATERIAL
  2
AcDbMaterial
  3
ObjectDBX Classes
 90
     1153
 91
        3
280
     0
281
     0
  0
CLASS
  1
VISUALSTYLE
  2
AcDbVisualStyle
  3
ObjectDBX Classes
 90
     4095
 91
       24
280
     0
281
     0
  0
CLASS
  1
SCALE
  2
AcDbScale
  3
ObjectDBX Classes
 90
     1153
 91
       17
280
     0
281
     0
  0
CLASS
  1
TABLESTYLE
  2
AcDbTableStyle
  3
ObjectDBX Classes
 90
     4095
 91
        1
280
     0
281
     0
  0
CLASS
  1
MLEADERSTYLE
  2
AcDbMLeaderStyle
  3
ACDB_MLEADERSTYLE_CLASS
 90
     4095
 91
        1
280
     0
281
     0
  0
CLASS
  1
ACDBSECTIONVIEWSTYLE
  2
AcDbSectionViewStyle
  3
ObjectDBX Classes
 90
     1025
 91
        1
280
     0
281
     0
  0
CLASS
  1
ACDBDETAILVIEWSTYLE
  2
AcDbDetailViewStyle
  3
ObjectDBX Classes
 90
     1025
 91
        1
280
     0
281
     0
  0
CLASS
  1
DICTIONARYVAR
  2
AcDbDictionaryVar
  3
ObjectDBX Classes
 90
        0
 91
        5
280
     0
281
     0
  0
CLASS
  1
CELLSTYLEMAP
  2
AcDbCellStyleMap
  3
ObjectDBX Classes
 90
     1152
 91
        1
280
     0
281
     0
  0
ENDSEC
  0
SECTION
  2
TABLES
  0
TABLE
  2
VPORT
  5
8
330
0
100
AcDbSymbolTable
 70
     1
  0
VPORT
  5
57
330
8
100
AcDbSymbolTableRecord
100
AcDbViewportTableRecord
  2
*Active
 70
     0
 10
0.0
 20
0.0
 11
1.0
 21
1.0
 12
0.0
 22
0.0
 13
0.0
 23
0.0
 14
1.0
 24
1.0
 15
0.0
 25
0.0
 16
0.0
 26
0.0
 36
1.0
 17
39.99999999000053
 27
-54.99999998625049
 37
0.0
 40
112.199999971951
 41
0.7272727272727304
 42
50.0
 43
0.0
 44
0.0
 50
0.0
 51
0.0
 71
     0
 72
   100
 73
     1
 74
     0
 75
     1
 76
     0
 77
     0
 78
     0
281
     0
 65
     1
110
0.0
120
0.0
130
0.0
111
1.0
121
0.0
131
0.0
112
0.0
122
1.0
132
0.0
 79
     0
146
0.0
 60
     3
 61
     5
292
     1
282
     1
141
0.0
142
0.0
 63
   250
421
  3355443
  0
ENDTAB
  0
TABLE
  2
LTYPE
  5
5
330
0
100
AcDbSymbolTable
 70
     1
  0
LTYPE
  5
5B
330
5
100
AcDbSymbolTableRecord
100
AcDbLinetypeTableRecord
  2
ByBlock
 70
     0
  3

 72
    65
 73
     0
 40
0.0
  0
LTYPE
  5
5C
330
5
100
AcDbSymbolTableRecord
100
AcDbLinetypeTableRecord
  2
ByLayer
 70
     0
  3

 72
    65
 73
     0
 40
0.0
  0
LTYPE
  5
5D
330
5
100
AcDbSymbolTableRecord
100
AcDbLinetypeTableRecord
  2
Continuous
 70
     0
  3
Solid line
 72
    65
 73
     0
 40
0.0
  0
ENDTAB
  0
TABLE
  2
LAYER
  5
2
330
0
100
AcDbSymbolTable
 70
     2
  0
LAYER
  5
54
330
2
100
AcDbSymbolTableRecord
100
AcDbLayerTableRecord
  2
0
 70
     0
 62
     7
  6
Continuous
370
    -3
390
F
347
21
348
0
  0
LAYER
  5
78
330
2
100
AcDbSymbolTableRecord
100
AcDbLayerTableRecord
  2
Слой 1
 70
     0
 62
     7
  6
Continuous
370
     0
390
F
347
21
348
0
  0
ENDTAB
  0
TABLE
  2
STYLE
  5
3
330
0
100
AcDbSymbolTable
 70
     2
  0
STYLE
  5
55
330
3
100
AcDbSymbolTableRecord
100
AcDbTextStyleTableRecord
  2
Standard
 70
     0
 40
0.0
 41
1.0
 50
0.0
 71
     0
 42
0.2
  3
txt
  4

  0
STYLE
  5
5A
330
3
100
AcDbSymbolTableRecord
100
AcDbTextStyleTableRecord
  2
Annotative
 70
     0
 40
0.0
 41
1.0
 50
0.0
 71
     0
 42
0.2
  3
txt
  4

1001
AcadAnnotative
1000
AnnotativeData
1002
{
1070
     1
1070
     1
1002
}
  0
ENDTAB
  0
TABLE
  2
VIEW
  5
6
330
0
100
AcDbSymbolTable
 70
     0
  0
ENDTAB
  0
TABLE
  2
UCS
  5
7
330
0
100
AcDbSymbolTable
 70
     0
  0
ENDTAB
  0
TABLE
  2
APPID
  5
9
330
0
100
AcDbSymbolTable
 70
     2
  0
APPID
  5
56
330
9
100
AcDbSymbolTableRecord
100
AcDbRegAppTableRecord
  2
ACAD
 70
     0
  0
APPID
  5
5E
330
9
100
AcDbSymbolTableRecord
100
AcDbRegAppTableRecord
  2
AcadAnnotative
 70
     0
  0
ENDTAB
  0
TABLE
  2
DIMSTYLE
  5
A
330
0
100
AcDbSymbolTable
 70
     2
100
AcDbDimStyleTable
 71
     0
  0
DIMSTYLE
105
58
330
A
100
AcDbSymbolTableRecord
100
AcDbDimStyleTableRecord
  2
Standard
 70
     0
340
55
  0
DIMSTYLE
105
59
330
A
100
AcDbSymbolTableRecord
100
AcDbDimStyleTableRecord
  2
Annotative
 70
     0
340
55
1001
AcadAnnotative
1000
AnnotativeData
1002
{
1070
     1
1070
     1
1002
}
  0
ENDTAB
  0
TABLE
  2
BLOCK_RECORD
  5
1
330
0
100
AcDbSymbolTable
 70
     3
  0
BLOCK_RECORD
  5
70
330
1
100
AcDbSymbolTableRecord
100
AcDbBlockTableRecord
  2
*Model_Space
340
73
 70
     0
280
     1
281
     0
  0
BLOCK_RECORD
  5
6C
330
1
100
AcDbSymbolTableRecord
100
AcDbBlockTableRecord
  2
*Paper_Space
340
6F
 70
     0
280
     1
281
     0
  0
BLOCK_RECORD
  5
74
330
1
100
AcDbSymbolTableRecord
100
AcDbBlockTableRecord
  2
*Paper_Space0
340
77
 70
     0
280
     1
281
     0
  0
BLOCK_RECORD
  5
7C
330
1
100
AcDbSymbolTableRecord
100
AcDbBlockTableRecord
  2
Block_0
340
0
102
{BLKREFS
331
7D
102
}
 70
     0
280
     1
281
     0
  0
BLOCK_RECORD
  5
80
330
1
100
AcDbSymbolTableRecord
100
AcDbBlockTableRecord
  2
Block_1
340
0
102
{BLKREFS
331
81
102
}
 70
     0
280
     1
281
     0
  0
ENDTAB
  0
ENDSEC
  0
SECTION
  2
BLOCKS
  0
BLOCK
  5
71
330
70
100
AcDbEntity
  8
0
100
AcDbBlockBegin
  2
*Model_Space
 70
     0
 10
0.0
 20
0.0
 30
0.0
  3
*Model_Space
  1

  0
ENDBLK
  5
72
330
70
100
AcDbEntity
  8
0
100
AcDbBlockEnd
  0
BLOCK
  5
6D
330
6C
100
AcDbEntity
 67
     1
  8
0
100
AcDbBlockBegin
  2
*Paper_Space
 70
     0
 10
0.0
 20
0.0
 30
0.0
  3
*Paper_Space
  1

  0
ENDBLK
  5
6E
330
6C
100
AcDbEntity
 67
     1
  8
0
100
AcDbBlockEnd
  0
BLOCK
  5
75
330
74
100
AcDbEntity
 67
     1
  8
0
100
AcDbBlockBegin
  2
*Paper_Space0
 70
     0
 10
0.0
 20
0.0
 30
0.0
  3
*Paper_Space0
  1

  0
ENDBLK
  5
76
330
74
100
AcDbEntity
 67
     1
  8
0
100
AcDbBlockEnd
  0
BLOCK
  5
7E
330
7C
100
AcDbEntity
  8
0
100
AcDbBlockBegin
  2
Block_0
 70
     0
 10
0.0
 20
0.0
 30
0.0
  3
Block_0
  1

  0
INSERT
  5
81
330
7C
100
AcDbEntity
  8
Слой 1
100
AcDbBlockReference
  2
Block_1
 10
0.0
 20
0.0
 30
0.0
  0
ENDBLK
  5
7F
330
7C
100
AcDbEntity
  8
0
100
AcDbBlockEnd
  0
BLOCK
  5
82
330
80
100
AcDbEntity
  8
0
100
AcDbBlockBegin
  2
Block_1
 70
     0
 10
0.0
 20
0.0
 30
0.0
  3
Block_1
  1

  0
SPLINE
  5
84
330
80
100
AcDbEntity
  8
Слой 1
100
AcDbSpline
210
0.0
220
0.0
230
1.0
 70
     9
 71
     3
 72
    59
 73
    55
 74
     0
 42
0.0000000001
 43
0.0000000001
 40
0.0
 40
0.0
 40
0.0
 40
0.0
 40
1.0
 40
1.0
 40
1.0
 40
2.0
 40
2.0
 40
2.0
 40
3.0
 40
3.0
 40
3.0
 40
4.0
 40
4.0
 40
4.0
 40
5.0
 40
5.0
 40
5.0
 40
6.0
 40
6.0
 40
6.0
 40
7.0
 40
7.0
 40
7.0
 40
8.0
 40
8.0
 40
8.0
 40
9.0
 40
9.0
 40
9.0
 40
10.0
 40
10.0
 40
10.0
 40
11.0
 40
11.0
 40
11.0
 40
12.0
 40
12.0
 40
12.0
 40
13.0
 40
13.0
 40
13.0
 40
14.0
 40
14.0
 40
14.0
 40
15.0
 40
15.0
 40
15.0
 40
16.0
 40
16.0
 40
16.0
 40
17.0
 40
17.0
 40
17.0
 40
18.0
 40
18.0
 40
18.0
 40
18.0
 10
36.2712227285624
 20
-88.72795190924161
 30
0.0
 10
36.36647961872956
 20
-88.78893009933054
 30
0.0
 10
36.58746526863091
 20
-88.88415253854285
 30
0.0
 10
36.81987141006587
 20
-88.88415253854285
 30
0.0
 10
37.25042221833496
 20
-88.88415253854285
 30
0.0
 10
37.38376463909156
 20
-88.60985403600725
 30
0.0
 10
37.37995780858036
 20
-88.40411293362812
 30
0.0
 10
37.37615097806916
 20
-88.05739852399259
 30
0.0
 10
37.06371526851185
 20
-87.90877710475891
 30
0.0
 10
36.73985906742094
 20
-87.90877710475891
 30
0.0
 10
36.73985906742094
 20
-87.90877710475891
 30
0.0
 10
36.55316934307525
 20
-87.90877710475891
 30
0.0
 10
36.55316934307525
 20
-87.90877710475891
 30
0.0
 10
36.55316934307525
 20
-87.90877710475891
 30
0.0
 10
36.55316934307525
 20
-87.65731958529052
 30
0.0
 10
36.55316934307525
 20
-87.65731958529052
 30
0.0
 10
36.55316934307525
 20
-87.65731958529052
 30
0.0
 10
36.73985906742094
 20
-87.65731958529052
 30
0.0
 10
36.73985906742094
 20
-87.65731958529052
 30
0.0
 10
36.98370292586692
 20
-87.65731958529052
 30
0.0
 10
37.29233180491303
 20
-87.53160805103375
 30
0.0
 10
37.29233180491303
 20
-87.23822371950987
 30
0.0
 10
37.29233180491303
 20
-87.04009627815315
 30
0.0
 10
37.1665858197014
 20
-86.8648442708185
 30
0.0
 10
36.85797416613273
 20
-86.8648442708185
 30
0.0
 10
36.65986395025343
 20
-86.8648442708185
 30
0.0
 10
36.46935016991912
 20
-86.95245304900842
 30
0.0
 10
36.36267278821835
 20
-87.02865856114213
 30
0.0
 10
36.36267278821835
 20
-87.02865856114213
 30
0.0
 10
36.27504678455103
 20
-86.78481470269614
 30
0.0
 10
36.27504678455103
 20
-86.78481470269614
 30
0.0
 10
36.40458237479642
 20
-86.68955781252899
 30
0.0
 10
36.65603989426481
 20
-86.59433537331668
 30
0.0
 10
36.92274196125543
 20
-86.59433537331668
 30
0.0
 10
37.41042967814739
 20
-86.59433537331668
 30
0.0
 10
37.63141532804874
 20
-86.88389564885193
 30
0.0
 10
37.63141532804874
 20
-87.18489364139822
 30
0.0
 10
37.63141532804874
 20
-87.44014076590039
 30
0.0
 10
37.47902152925872
 20
-87.65731958529052
 30
0.0
 10
37.17421670620124
 20
-87.76780379750247
 30
0.0
 10
37.17421670620124
 20
-87.76780379750247
 30
0.0
 10
37.17421670620124
 20
-87.77545190947973
 30
0.0
 10
37.17421670620124
 20
-87.77545190947973
 30
0.0
 10
37.47902152925872
 20
-87.83639564861381
 30
0.0
 10
37.7266722182159
 20
-88.065012185015
 30
0.0
 10
37.7266722182159
 20
-88.41172659465053
 30
0.0
 10
37.7266722182159
 20
-88.80794702640912
 30
0.0
 10
37.41806056464722
 20
-89.15469588699952
 30
0.0
 10
36.82369546605449
 20
-89.15469588699952
 30
0.0
 10
36.54555568205284
 20
-89.15469588699952
 30
0.0
 10
36.30171182360686
 20
-89.06705265785475
 30
0.0
 10
36.17978989438387
 20
-88.98702308973239
 30
0.0
 10
36.17978989438387
 20
-88.98702308973239
 30
0.0
 10
36.2712227285624
 20
-88.72795190924161
 30
0.0
 10
36.2712227285624
 20
-88.72795190924161
 30
0.0
  0
HATCH
  5
85
330
80
100
AcDbEntity
  8
Слой 1
 62
     5
440
 33554687
100
AcDbHatch
 10
0.0
 20
0.0
 30
0.0
210
0.0
220
0.0
230
1.0
  2
SOLID
 70
     1
 71
     1
 91
        1
 92
        1
 93
        1
 72
     4
 94
        3
 73
     0
 74
     0
 95
       59
 96
       55
 40
0.0
 40
0.0
 40
0.0
 40
0.0
 40
1.0
 40
1.0
 40
1.0
 40
2.0
 40
2.0
 40
2.0
 40
3.0
 40
3.0
 40
3.0
 40
4.0
 40
4.0
 40
4.0
 40
5.0
 40
5.0
 40
5.0
 40
6.0
 40
6.0
 40
6.0
 40
7.0
 40
7.0
 40
7.0
 40
8.0
 40
8.0
 40
8.0
 40
9.0
 40
9.0
 40
9.0
 40
10.0
 40
10.0
 40
10.0
 40
11.0
 40
11.0
 40
11.0
 40
12.0
 40
12.0
 40
12.0
 40
13.0
 40
13.0
 40
13.0
 40
14.0
 40
14.0
 40
14.0
 40
15.0
 40
15.0
 40
15.0
 40
16.0
 40
16.0
 40
16.0
 40
17.0
 40
17.0
 40
17.0
 40
18.0
 40
18.0
 40
18.0
 40
18.0
 10
36.2712227285624
 20
-88.72795190924161
 10
36.36647961872956
 20
-88.78893009933054
 10
36.58746526863091
 20
-88.88415253854285
 10
36.81987141006587
 20
-88.88415253854285
 10
37.25042221833496
 20
-88.88415253854285
 10
37.38376463909156
 20
-88.60985403600725
 10
37.37995780858036
 20
-88.40411293362812
 10
37.37615097806916
 20
-88.05739852399259
 10
37.06371526851185
 20
-87.90877710475891
 10
36.73985906742094
 20
-87.90877710475891
 10
36.73985906742094
 20
-87.90877710475891
 10
36.55316934307525
 20
-87.90877710475891
 10
36.55316934307525
 20
-87.90877710475891
 10
36.55316934307525
 20
-87.90877710475891
 10
36.55316934307525
 20
-87.65731958529052
 10
36.55316934307525
 20
-87.65731958529052
 10
36.55316934307525
 20
-87.65731958529052
 10
36.73985906742094
 20
-87.65731958529052
 10
36.73985906742094
 20
-87.65731958529052
 10
36.98370292586692
 20
-87.65731958529052
 10
37.29233180491303
 20
-87.53160805103375
 10
37.29233180491303
 20
-87.23822371950987
 10
37.29233180491303
 20
-87.04009627815315
 10
37.1665858197014
 20
-86.8648442708185
 10
36.85797416613273
 20
-86.8648442708185
 10
36.65986395025343
 20
-86.8648442708185
 10
36.46935016991912
 20
-86.95245304900842
 10
36.36267278821835
 20
-87.02865856114213
 10
36.36267278821835
 20
-87.02865856114213
 10
36.27504678455103
 20
-86.78481470269614
 10
36.27504678455103
 20
-86.78481470269614
 10
36.40458237479642
 20
-86.68955781252899
 10
36.65603989426481
 20
-86.59433537331668
 10
36.92274196125543
 20
-86.59433537331668
 10
37.41042967814739
 20
-86.59433537331668
 10
37.63141532804874
 20
-86.88389564885193
 10
37.63141532804874
 20
-87.18489364139822
 10
37.63141532804874
 20
-87.44014076590039
 10
37.47902152925872
 20
-87.65731958529052
 10
37.17421670620124
 20
-87.76780379750247
 10
37.17421670620124
 20
-87.76780379750247
 10
37.17421670620124
 20
-87.77545190947973
 10
37.17421670620124
 20
-87.77545190947973
 10
37.47902152925872
 20
-87.83639564861381
 10
37.7266722182159
 20
-88.065012185015
 10
37.7266722182159
 20
-88.41172659465053
 10
37.7266722182159
 20
-88.80794702640912
 10
37.41806056464722
 20
-89.15469588699952
 10
36.82369546605449
 20
-89.15469588699952
 10
36.54555568205284
 20
-89.15469588699952
 10
36.30171182360686
 20
-89.06705265785475
 10
36.17978989438387
 20
-88.98702308973239
 10
36.17978989438387
 20
-88.98702308973239
 10
36.2712227285624
 20
-88.72795190924161
 10
36.2712227285624
 20
-88.72795190924161
 97
        0
 97
        1
330
84
 75
     2
 76
     1
 98
        1
 10
0.0
 20
0.0
450
        0
451
        0
460
0.0
461
0.0
452
        0
462
0.0
453
        0
470

  0
SPLINE
  5
86
330
80
100
AcDbEntity
  8
Слой 1
100
AcDbSpline
210
0.0
220
0.0
230
1.0
 70
     9
 71
     3
 72
    17
 73
    13
 74
     0
 42
0.0000000001
 43
0.0000000001
 40
0.0
 40
0.0
 40
0.0
 40
0.0
 40
1.0
 40
1.0
 40
1.0
 40
2.0
 40
2.0
 40
2.0
 40
3.0
 40
3.0
 40
3.0
 40
4.0
 40
4.0
 40
4.0
 40
4.0
 10
38.52669229180062
 20
-87.23061005848748
 30
0.0
 10
38.52669229180062
 20
-87.47824352196724
 30
0.0
 10
38.7133820161463
 20
-87.61160316820125
 30
0.0
 10
38.99913546117036
 20
-87.68780868033498
 30
0.0
 10
39.2125074500493
 20
-87.61542722418989
 30
0.0
 10
39.37633896585036
 20
-87.46301619992243
 30
0.0
 10
39.37633896585036
 20
-87.23822371950987
 30
0.0
 10
39.37633896585036
 20
-87.04009627815315
 30
0.0
 10
39.25822386713857
 20
-86.83435517577406
 30
0.0
 10
38.95722587459229
 20
-86.83435517577406
 30
0.0
 10
38.67910331606807
 20
-86.83435517577406
 30
0.0
 10
38.52669229180062
 20
-87.01722084413111
 30
0.0
 10
38.52669229180062
 20
-87.23061005848748
 30
0.0
  0
SPLINE
  5
87
330
80
100
AcDbEntity
  8
Слой 1
100
AcDbSpline
210
0.0
220
0.0
230
1.0
 70
     9
 71
     3
 72
    17
 73
    13
 74
     0
 42
0.0000000001
 43
0.0000000001
 40
0.0
 40
0.0
 40
0.0
 40
0.0
 40
1.0
 40
1.0
 40
1.0
 40
2.0
 40
2.0
 40
2.0
 40
3.0
 40
3.0
 40
3.0
 40
4.0
 40
4.0
 40
4.0
 40
4.0
 10
39.44873764747288
 20
-88.46888072875083
 30
0.0
 10
39.44873764747288
 20
-88.16788273620455
 30
0.0
 10
39.23917248910514
 20
-88.02308537295949
 30
0.0
 10
38.90389579648062
 20
-87.92782848279234
 30
0.0
 10
38.61433552094537
 20
-88.01164765594846
 30
0.0
 10
38.45811766616672
 20
-88.20216143628279
 30
0.0
 10
38.45811766616672
 20
-88.43839163370637
 30
0.0
 10
38.44667994915569
 20
-88.68984915317474
 30
0.0
 10
38.63719372949001
 20
-88.91085202855354
 30
0.0
 10
38.95341904408109
 20
-88.91085202855354
 30
0.0
 10
39.25441703662737
 20
-88.91085202855354
 30
0.0
 10
39.44873764747288
 20
-88.724127853253
 30
0.0
 10
39.44873764747288
 20
-88.46888072875083
 30
0.0
  0
SPLINE
  5
88
330
80
100
AcDbEntity
  8
Слой 1
100
AcDbSpline
210
0.0
220
0.0
230
1.0
 70
     9
 71
     3
 72
    35
 73
    31
 74
     0
 42
0.0000000001
 43
0.0000000001
 40
0.0
 40
0.0
 40
0.0
 40
0.0
 40
1.0
 40
1.0
 40
1.0
 40
2.0
 40
2.0
 40
2.0
 40
3.0
 40
3.0
 40
3.0
 40
4.0
 40
4.0
 40
4.0
 40
5.0
 40
5.0
 40
5.0
 40
6.0
 40
6.0
 40
6.0
 40
7.0
 40
7.0
 40
7.0
 40
8.0
 40
8.0
 40
8.0
 40
9.0
 40
9.0
 40
9.0
 40
10.0
 40
10.0
 40
10.0
 40
10.0
 10
38.11521008704238
 20
-88.48410805079563
 30
0.0
 10
38.11521008704238
 20
-88.17167234123832
 30
0.0
 10
38.30189981138806
 20
-87.9507039168144
 30
0.0
 10
38.60670463444554
 20
-87.82116832656901
 30
0.0
 10
38.60670463444554
 20
-87.82116832656901
 30
0.0
 10
38.60289780393434
 20
-87.80973060955798
 30
0.0
 10
38.60289780393434
 20
-87.80973060955798
 30
0.0
 10
38.3285648504439
 20
-87.68019501931258
 30
0.0
 10
38.21046697720954
 20
-87.46684025591106
 30
0.0
 10
38.21046697720954
 20
-87.25345104155469
 30
0.0
 10
38.21046697720954
 20
-86.86102021482987
 30
0.0
 10
38.54193683932285
 20
-86.59433537331668
 30
0.0
 10
38.97627725262572
 20
-86.59433537331668
 30
0.0
 10
39.45635130849529
 20
-86.59433537331668
 30
0.0
 10
39.69638833643007
 20
-86.89529891490812
 30
0.0
 10
39.69638833643007
 20
-87.20394501943165
 30
0.0
 10
39.69638833643007
 20
-87.41347572684453
 30
0.0
 10
39.59351778524051
 20
-87.63826820725709
 30
0.0
 10
39.28871296218303
 20
-87.78306557050214
 30
0.0
 10
39.28871296218303
 20
-87.78306557050214
 30
0.0
 10
39.28871296218303
 20
-87.79450328751318
 30
0.0
 10
39.28871296218303
 20
-87.79450328751318
 30
0.0
 10
39.59732461575171
 20
-87.91642521673615
 30
0.0
 10
39.78782117060859
 20
-88.13356958517145
 30
0.0
 10
39.78782117060859
 20
-88.43456757771773
 30
0.0
 10
39.78782117060859
 20
-88.8651011605094
 30
0.0
 10
39.41824855242842
 20
-89.15469588699952
 30
0.0
 10
38.94580538305869
 20
-89.15469588699952
 30
0.0
 10
38.42762857112226
 20
-89.15469588699952
 30
0.0
 10
38.11521008704238
 20
-88.84604978247599
 30
0.0
 10
38.11521008704238
 20
-88.48410805079563
 30
0.0
  0
HATCH
  5
89
330
80
100
AcDbEntity
  8
Слой 1
 62
     5
440
 33554687
100
AcDbHatch
 10
0.0
 20
0.0
 30
0.0
210
0.0
220
0.0
230
1.0
  2
SOLID
 70
     1
 71
     1
 91
        3
 92
        1
 93
        1
 72
     4
 94
        3
 73
     0
 74
     0
 95
       17
 96
       13
 40
0.0
 40
0.0
 40
0.0
 40
0.0
 40
1.0
 40
1.0
 40
1.0
 40
2.0
 40
2.0
 40
2.0
 40
3.0
 40
3.0
 40
3.0
 40
4.0
 40
4.0
 40
4.0
 40
4.0
 10
38.52669229180062
 20
-87.23061005848748
 10
38.52669229180062
 20
-87.47824352196724
 10
38.7133820161463
 20
-87.61160316820125
 10
38.99913546117036
 20
-87.68780868033498
 10
39.2125074500493
 20
-87.61542722418989
 10
39.37633896585036
 20
-87.46301619992243
 10
39.37633896585036
 20
-87.23822371950987
 10
39.37633896585036
 20
-87.04009627815315
 10
39.25822386713857
 20
-86.83435517577406
 10
38.95722587459229
 20
-86.83435517577406
 10
38.67910331606807
 20
-86.83435517577406
 10
38.52669229180062
 20
-87.01722084413111
 10
38.52669229180062
 20
-87.23061005848748
 97
        0
 97
        1
330
86
 92
        1
 93
        1
 72
     4
 94
        3
 73
     0
 74
     0
 95
       17
 96
       13
 40
0.0
 40
0.0
 40
0.0
 40
0.0
 40
1.0
 40
1.0
 40
1.0
 40
2.0
 40
2.0
 40
2.0
 40
3.0
 40
3.0
 40
3.0
 40
4.0
 40
4.0
 40
4.0
 40
4.0
 10
39.44873764747288
 20
-88.46888072875083
 10
39.44873764747288
 20
-88.16788273620455
 10
39.23917248910514
 20
-88.02308537295949
 10
38.90389579648062
 20
-87.92782848279234
 10
38.61433552094537
 20
-88.01164765594846
 10
38.45811766616672
 20
-88.20216143628279
 10
38.45811766616672
 20
-88.43839163370637
 10
38.44667994915569
 20
-88.68984915317474
 10
38.63719372949001
 20
-88.91085202855354
 10
38.95341904408109
 20
-88.91085202855354
 10
39.25441703662737
 20
-88.91085202855354
 10
39.44873764747288
 20
-88.724127853253
 10
39.44873764747288
 20
-88.46888072875083
 97
        0
 97
        1
330
87
 92
        1
 93
        1
 72
     4
 94
        3
 73
     0
 74
     0
 95
       35
 96
       31
 40
0.0
 40
0.0
 40
0.0
 40
0.0
 40
1.0
 40
1.0
 40
1.0
 40
2.0
 40
2.0
 40
2.0
 40
3.0
 40
3.0
 40
3.0
 40
4.0
 40
4.0
 40
4.0
 40
5.0
 40
5.0
 40
5.0
 40
6.0
 40
6.0
 40
6.0
 40
7.0
 40
7.0
 40
7.0
 40
8.0
 40
8.0
 40
8.0
 40
9.0
 40
9.0
 40
9.0
 40
10.0
 40
10.0
 40
10.0
 40
10.0
 10
38.11521008704238
 20
-88.48410805079563
 10
38.11521008704238
 20
-88.17167234123832
 10
38.30189981138806
 20
-87.9507039168144
 10
38.60670463444554
 20
-87.82116832656901
 10
38.60670463444554
 20
-87.82116832656901
 10
38.60289780393434
 20
-87.80973060955798
 10
38.60289780393434
 20
-87.80973060955798
 10
38.3285648504439
 20
-87.68019501931258
 10
38.21046697720954
 20
-87.46684025591106
 10
38.21046697720954
 20
-87.25345104155469
 10
38.21046697720954
 20
-86.86102021482987
 10
38.54193683932285
 20
-86.59433537331668
 10
38.97627725262572
 20
-86.59433537331668
 10
39.45635130849529
 20
-86.59433537331668
 10
39.69638833643007
 20
-86.89529891490812
 10
39.69638833643007
 20
-87.20394501943165
 10
39.69638833643007
 20
-87.41347572684453
 10
39.59351778524051
 20
-87.63826820725709
 10
39.28871296218303
 20
-87.78306557050214
 10
39.28871296218303
 20
-87.78306557050214
 10
39.28871296218303
 20
-87.79450328751318
 10
39.28871296218303
 20
-87.79450328751318
 10
39.59732461575171
 20
-87.91642521673615
 10
39.78782117060859
 20
-88.13356958517145
 10
39.78782117060859
 20
-88.43456757771773
 10
39.78782117060859
 20
-88.8651011605094
 10
39.41824855242842
 20
-89.15469588699952
 10
38.94580538305869
 20
-89.15469588699952
 10
38.42762857112226
 20
-89.15469588699952
 10
38.11521008704238
 20
-88.84604978247599
 10
38.11521008704238
 20
-88.48410805079563
 97
        0
 97
        1
330
88
 75
     2
 76
     1
 98
        1
 10
0.0
 20
0.0
450
        0
451
        0
460
0.0
461
0.0
452
        0
462
0.0
453
        0
470

  0
SPLINE
  5
8A
330
80
100
AcDbEntity
  8
Слой 1
100
AcDbSpline
210
0.0
220
0.0
230
1.0
 70
    11
 71
     3
 72
    29
 73
    25
 74
     0
 42
0.0000000001
 43
0.0000000001
 40
0.0
 40
0.0
 40
0.0
 40
0.0
 40
1.0
 40
1.0
 40
1.0
 40
2.0
 40
2.0
 40
2.0
 40
3.0
 40
3.0
 40
3.0
 40
4.0
 40
4.0
 40
4.0
 40
5.0
 40
5.0
 40
5.0
 40
6.0
 40
6.0
 40
6.0
 40
7.0
 40
7.0
 40
7.0
 40
8.0
 40
8.0
 40
8.0
 40
8.0
 10
41.70801404122229
 20
-86.63622773441733
 30
0.0
 10
41.70801404122229
 20
-86.63622773441733
 30
0.0
 10
41.70801404122229
 20
-86.85719615884124
 30
0.0
 10
41.70801404122229
 20
-86.85719615884124
 30
0.0
 10
41.70801404122229
 20
-86.85719615884124
 30
0.0
 10
40.62973360529395
 20
-89.11276907494402
 30
0.0
 10
40.62973360529395
 20
-89.11276907494402
 30
0.0
 10
40.62973360529395
 20
-89.11276907494402
 30
0.0
 10
40.28301919565841
 20
-89.11276907494402
 30
0.0
 10
40.28301919565841
 20
-89.11276907494402
 30
0.0
 10
40.28301919565841
 20
-89.11276907494402
 30
0.0
 10
41.35747557559812
 20
-86.92199840491879
 30
0.0
 10
41.35747557559812
 20
-86.92199840491879
 30
0.0
 10
41.35747557559812
 20
-86.92199840491879
 30
0.0
 10
41.35747557559812
 20
-86.91435029294154
 30
0.0
 10
41.35747557559812
 20
-86.91435029294154
 30
0.0
 10
41.35747557559812
 20
-86.91435029294154
 30
0.0
 10
40.14586994439061
 20
-86.91435029294154
 30
0.0
 10
40.14586994439061
 20
-86.91435029294154
 30
0.0
 10
40.14586994439061
 20
-86.91435029294154
 30
0.0
 10
40.14586994439061
 20
-86.63622773441733
 30
0.0
 10
40.14586994439061
 20
-86.63622773441733
 30
0.0
 10
40.14586994439061
 20
-86.63622773441733
 30
0.0
 10
41.70801404122229
 20
-86.63622773441733
 30
0.0
 10
41.70801404122229
 20
-86.63622773441733
 30
0.0
  0
HATCH
  5
8B
330
80
100
AcDbEntity
  8
Слой 1
 62
     5
440
 33554687
100
AcDbHatch
 10
0.0
 20
0.0
 30
0.0
210
0.0
220
0.0
230
1.0
  2
SOLID
 70
     1
 71
     1
 91
        1
 92
        1
 93
        1
 72
     4
 94
        3
 73
     0
 74
     0
 95
       29
 96
       25
 40
0.0
 40
0.0
 40
0.0
 40
0.0
 40
1.0
 40
1.0
 40
1.0
 40
2.0
 40
2.0
 40
2.0
 40
3.0
 40
3.0
 40
3.0
 40
4.0
 40
4.0
 40
4.0
 40
5.0
 40
5.0
 40
5.0
 40
6.0
 40
6.0
 40
6.0
 40
7.0
 40
7.0
 40
7.0
 40
8.0
 40
8.0
 40
8.0
 40
8.0
 10
41.70801404122229
 20
-86.63622773441733
 10
41.70801404122229
 20
-86.63622773441733
 10
41.70801404122229
 20
-86.85719615884124
 10
41.70801404122229
 20
-86.85719615884124
 10
41.70801404122229
 20
-86.85719615884124
 10
40.62973360529395
 20
-89.11276907494402
 10
40.62973360529395
 20
-89.11276907494402
 10
40.62973360529395
 20
-89.11276907494402
 10
40.28301919565841
 20
-89.11276907494402
 10
40.28301919565841
 20
-89.11276907494402
 10
40.28301919565841
 20
-89.11276907494402
 10
41.35747557559812
 20
-86.92199840491879
 10
41.35747557559812
 20
-86.92199840491879
 10
41.35747557559812
 20
-86.92199840491879
 10
41.35747557559812
 20
-86.91435029294154
 10
41.35747557559812
 20
-86.91435029294154
 10
41.35747557559812
 20
-86.91435029294154
 10
40.14586994439061
 20
-86.91435029294154
 10
40.14586994439061
 20
-86.91435029294154
 10
40.14586994439061
 20
-86.91435029294154
 10
40.14586994439061
 20
-86.63622773441733
 10
40.14586994439061
 20
-86.63622773441733
 10
40.14586994439061
 20
-86.63622773441733
 10
41.70801404122229
 20
-86.63622773441733
 10
41.70801404122229
 20
-86.63622773441733
 97
        0
 97
        1
330
8A
 75
     2
 76
     1
 98
        1
 10
0.0
 20
0.0
450
        0
451
        0
460
0.0
461
0.0
452
        0
462
0.0
453
        0
470

  0
SPLINE
  5
8C
330
80
100
AcDbEntity
  8
Слой 1
100
AcDbSpline
210
0.0
220
0.0
230
1.0
 70
     9
 71
     3
 72
    20
 73
    16
 74
     0
 42
0.0000000001
 43
0.0000000001
 40
0.0
 40
0.0
 40
0.0
 40
0.0
 40
1.0
 40
1.0
 40
1.0
 40
2.0
 40
2.0
 40
2.0
 40
3.0
 40
3.0
 40
3.0
 40
4.0
 40
4.0
 40
4.0
 40
5.0
 40
5.0
 40
5.0
 40
5.0
 10
43.37289088542413
 20
-88.30124238243858
 30
0.0
 10
43.37289088542413
 20
-87.94687986082577
 30
0.0
 10
43.17097383903364
 20
-87.73352509742425
 30
0.0
 10
42.86236218546496
 20
-87.73352509742425
 30
0.0
 10
42.66041068811961
 20
-87.73352509742425
 30
0.0
 10
42.47372096377392
 20
-87.85927108263587
 30
0.0
 10
42.3822881295954
 20
-88.03834714595915
 30
0.0
 10
42.35941269557334
 20
-88.07641545107117
 30
0.0
 10
42.34418537352853
 20
-88.12595592414906
 30
0.0
 10
42.34418537352853
 20
-88.18693411423799
 30
0.0
 10
42.35179903455093
 20
-88.5945922630076
 30
0.0
 10
42.53848875889662
 20
-88.89559025555387
 30
0.0
 10
42.88902722452079
 20
-88.89559025555387
 30
0.0
 10
43.17858750005604
 20
-88.89559025555387
 30
0.0
 10
43.37289088542413
 20
-88.65557045309651
 30
0.0
 10
43.37289088542413
 20
-88.30124238243858
 30
0.0
  0
SPLINE
  5
8D
330
80
100
AcDbEntity
  8
Слой 1
100
AcDbSpline
210
0.0
220
0.0
230
1.0
 70
     9
 71
     3
 72
    38
 73
    34
 74
     0
 42
0.0000000001
 43
0.0000000001
 40
0.0
 40
0.0
 40
0.0
 40
0.0
 40
1.0
 40
1.0
 40
1.0
 40
2.0
 40
2.0
 40
2.0
 40
3.0
 40
3.0
 40
3.0
 40
4.0
 40
4.0
 40
4.0
 40
5.0
 40
5.0
 40
5.0
 40
6.0
 40
6.0
 40
6.0
 40
7.0
 40
7.0
 40
7.0
 40
8.0
 40
8.0
 40
8.0
 40
9.0
 40
9.0
 40
9.0
 40
10.0
 40
10.0
 40
10.0
 40
11.0
 40
11.0
 40
11.0
 40
11.0
 10
43.46814777559129
 20
-86.87245793184091
 30
0.0
 10
43.39959037543482
 20
-86.86863387585228
 30
0.0
 10
43.31194714629006
 20
-86.87245793184091
 30
0.0
 10
43.2166902561229
 20
-86.88768525388571
 30
0.0
 10
42.69089978316407
 20
-86.97532848303046
 30
0.0
 10
42.41277722463986
 20
-87.36014564873286
 30
0.0
 10
42.35562309053956
 20
-87.76780379750247
 30
0.0
 10
42.35562309053956
 20
-87.76780379750247
 30
0.0
 10
42.36706080755059
 20
-87.76780379750247
 30
0.0
 10
42.36706080755059
 20
-87.76780379750247
 30
0.0
 10
42.48515868078495
 20
-87.61160316820125
 30
0.0
 10
42.69089978316407
 20
-87.48206757795585
 30
0.0
 10
42.96523273665452
 20
-87.48206757795585
 30
0.0
 10
43.4033799804686
 20
-87.48206757795585
 30
0.0
 10
43.71199163403727
 20
-87.79829289254696
 30
0.0
 10
43.71199163403727
 20
-88.28219100440513
 30
0.0
 10
43.71199163403727
 20
-88.73556557026402
 30
0.0
 10
43.4033799804686
 20
-89.15469588699952
 30
0.0
 10
42.88902722452079
 20
-89.15469588699952
 30
0.0
 10
42.35941269557334
 20
-89.15469588699952
 30
0.0
 10
42.01269828593779
 20
-88.74317923128641
 30
0.0
 10
42.01269828593779
 20
-88.09929088509322
 30
0.0
 10
42.01269828593779
 20
-87.61160316820125
 30
0.0
 10
42.1879847442273
 20
-87.22678600249885
 30
0.0
 10
42.43182860267329
 20
-86.98294214405287
 30
0.0
 10
42.6375697050524
 20
-86.78102509766238
 30
0.0
 10
42.91190265854285
 20
-86.65527911245076
 30
0.0
 10
43.2243039171453
 20
-86.61717635638389
 30
0.0
 10
43.32338486330109
 20
-86.60194903433909
 30
0.0
 10
43.40720403645722
 20
-86.59812497835046
 30
0.0
 10
43.46814777559129
 20
-86.59812497835046
 30
0.0
 10
43.46814777559129
 20
-86.59812497835046
 30
0.0
 10
43.46814777559129
 20
-86.87245793184091
 30
0.0
 10
43.46814777559129
 20
-86.87245793184091
 30
0.0
  0
HATCH
  5
8E
330
80
100
AcDbEntity
  8
Слой 1
 62
     5
440
 33554687
100
AcDbHatch
 10
0.0
 20
0.0
 30
0.0
210
0.0
220
0.0
230
1.0
  2
SOLID
 70
     1
 71
     1
 91
        2
 92
        1
 93
        1
 72
     4
 94
        3
 73
     0
 74
     0
 95
       20
 96
       16
 40
0.0
 40
0.0
 40
0.0
 40
0.0
 40
1.0
 40
1.0
 40
1.0
 40
2.0
 40
2.0
 40
2.0
 40
3.0
 40
3.0
 40
3.0
 40
4.0
 40
4.0
 40
4.0
 40
5.0
 40
5.0
 40
5.0
 40
5.0
 10
43.37289088542413
 20
-88.30124238243858
 10
43.37289088542413
 20
-87.94687986082577
 10
43.17097383903364
 20
-87.73352509742425
 10
42.86236218546496
 20
-87.73352509742425
 10
42.66041068811961
 20
-87.73352509742425
 10
42.47372096377392
 20
-87.85927108263587
 10
42.3822881295954
 20
-88.03834714595915
 10
42.35941269557334
 20
-88.07641545107117
 10
42.34418537352853
 20
-88.12595592414906
 10
42.34418537352853
 20
-88.18693411423799
 10
42.35179903455093
 20
-88.5945922630076
 10
42.53848875889662
 20
-88.89559025555387
 10
42.88902722452079
 20
-88.89559025555387
 10
43.17858750005604
 20
-88.89559025555387
 10
43.37289088542413
 20
-88.65557045309651
 10
43.37289088542413
 20
-88.30124238243858
 97
        0
 97
        1
330
8C
 92
        1
 93
        1
 72
     4
 94
        3
 73
     0
 74
     0
 95
       38
 96
       34
 40
0.0
 40
0.0
 40
0.0
 40
0.0
 40
1.0
 40
1.0
 40
1.0
 40
2.0
 40
2.0
 40
2.0
 40
3.0
 40
3.0
 40
3.0
 40
4.0
 40
4.0
 40
4.0
 40
5.0
 40
5.0
 40
5.0
 40
6.0
 40
6.0
 40
6.0
 40
7.0
 40
7.0
 40
7.0
 40
8.0
 40
8.0
 40
8.0
 40
9.0
 40
9.0
 40
9.0
 40
10.0
 40
10.0
 40
10.0
 40
11.0
 40
11.0
 40
11.0
 40
11.0
 10
43.46814777559129
 20
-86.87245793184091
 10
43.39959037543482
 20
-86.86863387585228
 10
43.31194714629006
 20
-86.87245793184091
 10
43.2166902561229
 20
-86.88768525388571
 10
42.69089978316407
 20
-86.97532848303046
 10
42.41277722463986
 20
-87.36014564873286
 10
42.35562309053956
 20
-87.76780379750247
 10
42.35562309053956
 20
-87.76780379750247
 10
42.36706080755059
 20
-87.76780379750247
 10
42.36706080755059
 20
-87.76780379750247
 10
42.48515868078495
 20
-87.61160316820125
 10
42.69089978316407
 20
-87.48206757795585
 10
42.96523273665452
 20
-87.48206757795585
 10
43.4033799804686
 20
-87.48206757795585
 10
43.71199163403727
 20
-87.79829289254696
 10
43.71199163403727
 20
-88.28219100440513
 10
43.71199163403727
 20
-88.73556557026402
 10
43.4033799804686
 20
-89.15469588699952
 10
42.88902722452079
 20
-89.15469588699952
 10
42.35941269557334
 20
-89.15469588699952
 10
42.01269828593779
 20
-88.74317923128641
 10
42.01269828593779
 20
-88.09929088509322
 10
42.01269828593779
 20
-87.61160316820125
 10
42.1879847442273
 20
-87.22678600249885
 10
42.43182860267329
 20
-86.98294214405287
 10
42.6375697050524
 20
-86.78102509766238
 10
42.91190265854285
 20
-86.65527911245076
 10
43.2243039171453
 20
-86.61717635638389
 10
43.32338486330109
 20
-86.60194903433909
 10
43.40720403645722
 20
-86.59812497835046
 10
43.46814777559129
 20
-86.59812497835046
 10
43.46814777559129
 20
-86.59812497835046
 10
43.46814777559129
 20
-86.87245793184091
 10
43.46814777559129
 20
-86.87245793184091
 97
        0
 97
        1
330
8D
 75
     2
 76
     1
 98
        1
 10
0.0
 20
0.0
450
        0
451
        0
460
0.0
461
0.0
452
        0
462
0.0
453
        0
470

  0
ENDBLK
  5
83
330
80
100
AcDbEntity
  8
0
100
AcDbBlockEnd
  0
ENDSEC
  0
SECTION
  2
ENTITIES
  0
SPLINE
  5
79
330
70
100
AcDbEntity
  8
Слой 1
 62
     7
370
    35
100
AcDbSpline
210
0.0
220
0.0
230
1.0
 70
     9
 71
     3
 72
    17
 73
    13
 74
     0
 42
0.0000000001
 43
0.0000000001
 40
0.0
 40
0.0
 40
0.0
 40
0.0
 40
1.0
 40
1.0
 40
1.0
 40
2.0
 40
2.0
 40
2.0
 40
3.0
 40
3.0
 40
3.0
 40
4.0
 40
4.0
 40
4.0
 40
4.0
 10
33.39503877449127
 20
-83.86408858827794
 30
0.0
 10
32.79662568870363
 20
-83.85919655266198
 30
0.0
 10
32.3115863889449
 20
-84.32730751443726
 30
0.0
 10
32.30298226294399
 20
-84.91803803729267
 30
0.0
 10
32.29451594076286
 20
-85.49929454756364
 30
0.0
 10
32.78303909328748
 20
-86.0006679062927
 30
0.0
 10
33.36680191052397
 20
-86.00983186030966
 30
0.0
 10
33.95617592703199
 20
-86.01908194171405
 30
0.0
 10
34.44148652806056
 20
-85.54189315333514
 30
0.0
 10
34.4485877311563
 20
-84.9461327910712
 30
0.0
 10
34.45580951259446
 20
-84.3402093971258
 30
0.0
 10
33.99701753410621
 20
-83.86901507484886
 30
0.0
 10
33.39503877449127
 20
-83.86408858827794
 30
0.0
  0
SPLINE
  5
7A
330
70
100
AcDbEntity
  8
Слой 1
 62
     7
370
    35
100
AcDbSpline
210
0.0
220
0.0
230
1.0
 70
     9
 71
     3
 72
    17
 73
    13
 74
     0
 42
0.0000000001
 43
0.0000000001
 40
0.0
 40
0.0
 40
0.0
 40
0.0
 40
1.0
 40
1.0
 40
1.0
 40
2.0
 40
2.0
 40
2.0
 40
3.0
 40
3.0
 40
3.0
 40
4.0
 40
4.0
 40
4.0
 40
4.0
 10
45.07354642804567
 20
-84.91641023024925
 30
0.0
 10
45.06412409186739
 20
-85.49770980421373
 30
0.0
 10
45.55174075364246
 20
-85.99966882917522
 30
0.0
 10
46.1357296552701
 20
-86.00982324814424
 30
0.0
 10
46.72495725522
 20
-86.02008101997801
 30
0.0
 10
47.21134444858765
 20
-85.54326257936388
 30
0.0
 10
47.21913251759576
 20
-84.94776059926135
 30
0.0
 10
47.22705839042371
 20
-84.34175107792887
 30
0.0
 10
46.76886930364545
 20
-83.86972131999675
 30
0.0
 10
46.16722213447096
 20
-83.86407997611263
 30
0.0
 10
45.56868631715666
 20
-83.8584644704448
 30
0.0
 10
45.08312164033649
 20
-84.32567970739391
 30
0.0
 10
45.07354642804567
 20
-84.91641023024925
 30
0.0
  0
SPLINE
  5
7B
330
70
100
AcDbEntity
  8
Слой 1
 62
     7
370
    35
100
AcDbSpline
210
0.0
220
0.0
230
1.0
 70
     9
 71
     3
 72
   278
 73
   274
 74
     0
 42
0.0000000001
 43
0.0000000001
 40
0.0
 40
0.0
 40
0.0
 40
0.0
 40
1.0
 40
1.0
 40
1.0
 40
2.0
 40
2.0
 40
2.0
 40
3.0
 40
3.0
 40
3.0
 40
4.0
 40
4.0
 40
4.0
 40
5.0
 40
5.0
 40
5.0
 40
6.0
 40
6.0
 40
6.0
 40
7.0
 40
7.0
 40
7.0
 40
8.0
 40
8.0
 40
8.0
 40
9.0
 40
9.0
 40
9.0
 40
10.0
 40
10.0
 40
10.0
 40
11.0
 40
11.0
 40
11.0
 40
12.0
 40
12.0
 40
12.0
 40
13.0
 40
13.0
 40
13.0
 40
14.0
 40
14.0
 40
14.0
 40
15.0
 40
15.0
 40
15.0
 40
16.0
 40
16.0
 40
16.0
 40
17.0
 40
17.0
 40
17.0
 40
18.0
 40
18.0
 40
18.0
 40
19.0
 40
19.0
 40
19.0
 40
20.0
 40
20.0
 40
20.0
 40
21.0
 40
21.0
 40
21.0
 40
22.0
 40
22.0
 40
22.0
 40
23.0
 40
23.0
 40
23.0
 40
24.0
 40
24.0
 40
24.0
 40
25.0
 40
25.0
 40
25.0
 40
26.0
 40
26.0
 40
26.0
 40
27.0
 40
27.0
 40
27.0
 40
28.0
 40
28.0
 40
28.0
 40
29.0
 40
29.0
 40
29.0
 40
30.0
 40
30.0
 40
30.0
 40
31.0
 40
31.0
 40
31.0
 40
32.0
 40
32.0
 40
32.0
 40
33.0
 40
33.0
 40
33.0
 40
34.0
 40
34.0
 40
34.0
 40
35.0
 40
35.0
 40
35.0
 40
36.0
 40
36.0
 40
36.0
 40
37.0
 40
37.0
 40
37.0
 40
38.0
 40
38.0
 40
38.0
 40
39.0
 40
39.0
 40
39.0
 40
40.0
 40
40.0
 40
40.0
 40
41.0
 40
41.0
 40
41.0
 40
42.0
 40
42.0
 40
42.0
 40
43.0
 40
43.0
 40
43.0
 40
44.0
 40
44.0
 40
44.0
 40
45.0
 40
45.0
 40
45.0
 40
46.0
 40
46.0
 40
46.0
 40
47.0
 40
47.0
 40
47.0
 40
48.0
 40
48.0
 40
48.0
 40
49.0
 40
49.0
 40
49.0
 40
50.0
 40
50.0
 40
50.0
 40
51.0
 40
51.0
 40
51.0
 40
52.0
 40
52.0
 40
52.0
 40
53.0
 40
53.0
 40
53.0
 40
54.0
 40
54.0
 40
54.0
 40
55.0
 40
55.0
 40
55.0
 40
56.0
 40
56.0
 40
56.0
 40
57.0
 40
57.0
 40
57.0
 40
58.0
 40
58.0
 40
58.0
 40
59.0
 40
59.0
 40
59.0
 40
60.0
 40
60.0
 40
60.0
 40
61.0
 40
61.0
 40
61.0
 40
62.0
 40
62.0
 40
62.0
 40
63.0
 40
63.0
 40
63.0
 40
64.0
 40
64.0
 40
64.0
 40
65.0
 40
65.0
 40
65.0
 40
66.0
 40
66.0
 40
66.0
 40
67.0
 40
67.0
 40
67.0
 40
68.0
 40
68.0
 40
68.0
 40
69.0
 40
69.0
 40
69.0
 40
70.0
 40
70.0
 40
70.0
 40
71.0
 40
71.0
 40
71.0
 40
72.0
 40
72.0
 40
72.0
 40
73.0
 40
73.0
 40
73.0
 40
74.0
 40
74.0
 40
74.0
 40
75.0
 40
75.0
 40
75.0
 40
76.0
 40
76.0
 40
76.0
 40
77.0
 40
77.0
 40
77.0
 40
78.0
 40
78.0
 40
78.0
 40
79.0
 40
79.0
 40
79.0
 40
80.0
 40
80.0
 40
80.0
 40
81.0
 40
81.0
 40
81.0
 40
82.0
 40
82.0
 40
82.0
 40
83.0
 40
83.0
 40
83.0
 40
84.0
 40
84.0
 40
84.0
 40
85.0
 40
85.0
 40
85.0
 40
86.0
 40
86.0
 40
86.0
 40
87.0
 40
87.0
 40
87.0
 40
88.0
 40
88.0
 40
88.0
 40
89.0
 40
89.0
 40
89.0
 40
90.0
 40
90.0
 40
90.0
 40
91.0
 40
91.0
 40
91.0
 40
91.0
 10
51.15451461681546
 20
-14.31373116932908
 30
0.0
 10
52.08298292238265
 20
-14.32295864230953
 30
0.0
 10
53.01164286138558
 20
-14.34653493798605
 30
0.0
 10
53.93981402746806
 20
-14.33393773106744
 30
0.0
 10
54.28297137601535
 20
-14.32927931603138
 30
0.0
 10
54.52905239333718
 20
-14.43748761204947
 30
0.0
 10
54.71849173450472
 20
-14.71176888911614
 30
0.0
 10
54.7783911790659
 20
-14.79849486159064
 30
0.0
 10
54.84287260062248
 20
-14.88665700824575
 30
0.0
 10
54.9219741461454
 20
-14.95474070777656
 30
0.0
 10
55.31251232352286
 20
-15.29088190406693
 30
0.0
 10
55.6711036998261
 20
-15.6860924922275
 30
0.0
 10
56.11106823149735
 20
-15.93804201441461
 30
0.0
 10
56.8969160435094
 20
-16.3880640717647
 30
0.0
 10
57.73853349187837
 20
-16.73301825296354
 30
0.0
 10
58.66526633059256
 20
-16.79209302783848
 30
0.0
 10
58.8059812556872
 20
-16.80106211862215
 30
0.0
 10
58.94619879512077
 20
-16.81836618729547
 30
0.0
 10
59.08648954283354
 20
-16.83330067623032
 30
0.0
 10
59.3813122017211
 20
-16.86468334292952
 30
0.0
 10
59.40300553735408
 20
-16.8795424703953
 30
0.0
 10
59.4514155884633
 20
-17.15971809051244
 30
0.0
 10
59.53766032413711
 20
-17.65887474559712
 30
0.0
 10
59.60116850620056
 20
-18.15980024189402
 30
0.0
 10
59.54548392062035
 20
-18.66853749219836
 30
0.0
 10
59.53403220790416
 20
-18.77316504208488
 30
0.0
 10
59.53697561135462
 20
-18.88007066136167
 30
0.0
 10
59.54122492131246
 20
-18.98560685518313
 30
0.0
 10
59.57054591363623
 20
-19.71368041592908
 30
0.0
 10
59.5996203663144
 20
-20.44177550852181
 30
0.0
 10
59.63336830633677
 20
-21.16965097627755
 30
0.0
 10
59.66875481989771
 20
-21.93287312371205
 30
0.0
 10
59.68209056916826
 20
-22.69839271919724
 30
0.0
 10
59.75295403008103
 20
-23.45844322560223
 30
0.0
 10
59.92420219042397
 20
-25.29518081127811
 30
0.0
 10
60.12622904915073
 20
-27.12902666993246
 30
0.0
 10
60.30980957473857
 20
-28.9646445995762
 30
0.0
 10
60.38114027672859
 20
-29.67787841152132
 30
0.0
 10
60.44528687803958
 20
-30.39208976931004
 30
0.0
 10
60.49623445727265
 20
-31.10703105670414
 30
0.0
 10
60.55044518788353
 20
-31.86778350131348
 30
0.0
 10
60.63761148658791
 20
-32.62804071344826
 30
0.0
 10
60.52989088687625
 20
-33.39314905065452
 30
0.0
 10
60.46773598134076
 20
-33.83462081160907
 30
0.0
 10
60.40477901451254
 20
-34.27997045816917
 30
0.0
 10
60.39756584582034
 20
-34.72447174996853
 30
0.0
 10
60.37138634983707
 20
-36.33752359214764
 30
0.0
 10
60.23641289161468
 20
-37.94017770551044
 30
0.0
 10
60.00608134354564
 20
-39.53608804445659
 30
0.0
 10
59.96352580155081
 20
-39.83094515429849
 30
0.0
 10
59.89269571495377
 20
-40.11279702868232
 30
0.0
 10
59.73340418903545
 20
-40.36683406338812
 30
0.0
 10
59.32149027071969
 20
-41.02374917686644
 30
0.0
 10
58.92831013569681
 20
-41.69356617293785
 30
0.0
 10
58.49073348579373
 20
-42.33296297587248
 30
0.0
 10
57.80745693223595
 20
-43.33139471116077
 30
0.0
 10
57.09434154540744
 20
-44.30941856206697
 30
0.0
 10
56.39233874470317
 20
-45.29500009119445
 30
0.0
 10
56.25600124405048
 20
-45.48642251545688
 30
0.0
 10
56.11990274689709
 20
-45.67876650276163
 30
0.0
 10
55.97134161682618
 20
-45.86059433609709
 30
0.0
 10
55.29439327304551
 20
-46.68913980026929
 30
0.0
 10
54.6084123195397
 20
-47.51032998558007
 30
0.0
 10
53.93465714863673
 20
-48.34144635225826
 30
0.0
 10
53.34942370623224
 20
-49.06336611116609
 30
0.0
 10
52.76773655899264
 20
-49.78945443561123
 30
0.0
 10
52.43498555195596
 20
-50.67485258804423
 30
0.0
 10
52.41037895744961
 20
-50.74032232137092
 30
0.0
 10
52.37094983961823
 20
-50.80044354395613
 30
0.0
 10
52.33639983826783
 20
-50.86192127288887
 30
0.0
 10
51.54727703227682
 20
-52.26596993786699
 30
0.0
 10
50.75187769294881
 20
-53.66653044366604
 30
0.0
 10
49.97123197503606
 20
-55.07527735761254
 30
0.0
 10
49.61819796834114
 20
-55.71235302746781
 30
0.0
 10
49.28065612540606
 20
-56.358924241755
 30
0.0
 10
48.96137974809647
 20
-57.013526834893
 30
0.0
 10
48.66780162992447
 20
-57.61544099895463
 30
0.0
 10
48.40697775707784
 20
-58.2333834697628
 30
0.0
 10
48.13382044239427
 20
-58.8451936706067
 30
0.0
 10
47.60594353342905
 20
-60.0275073774272
 30
0.0
 10
47.12493930172515
 20
-61.21608685166355
 30
0.0
 10
46.98257719029226
 20
-62.52846583217756
 30
0.0
 10
46.82767277810332
 20
-63.95648374902283
 30
0.0
 10
46.68977852487286
 20
-65.38096613662713
 30
0.0
 10
46.75453555400767
 20
-66.81842792148116
 30
0.0
 10
46.77461830748198
 20
-67.26423619638146
 30
0.0
 10
46.81274905492964
 20
-67.70930377575325
 30
0.0
 10
46.82902282470807
 20
-68.15520248440986
 30
0.0
 10
46.85003360077288
 20
-68.73084779541057
 30
0.0
 10
46.86520493999018
 20
-69.30693666245469
 30
0.0
 10
46.86894286856581
 20
-69.88293078937251
 30
0.0
 10
46.87580937445737
 20
-70.94079042181236
 30
0.0
 10
46.91301425246584
 20
-72.00064390326564
 30
0.0
 10
46.86292687043224
 20
-73.05611780707939
 30
0.0
 10
46.8030747958734
 20
-74.31735865148795
 30
0.0
 10
46.83476106154278
 20
-75.57031404125858
 30
0.0
 10
46.98015701007217
 20
-76.82217561321779
 30
0.0
 10
47.00314225650397
 20
-77.02008773610771
 30
0.0
 10
47.02392479500949
 20
-77.22464028054531
 30
0.0
 10
47.09053140983917
 20
-77.41002948134833
 30
0.0
 10
47.43613692932221
 20
-78.37199488097147
 30
0.0
 10
47.77548744731466
 20
-79.33712115570199
 30
0.0
 10
48.15762174486544
 20
-80.28477218358558
 30
0.0
 10
48.4927412549711
 20
-81.11582395476871
 30
0.0
 10
48.98252832689063
 20
-81.8670011871333
 30
0.0
 10
49.48592998553152
 20
-82.60649954580348
 30
0.0
 10
49.92894988624335
 20
-83.2573039212032
 30
0.0
 10
50.38684183352845
 20
-83.8988754407031
 30
0.0
 10
50.80643508493987
 20
-84.56452817764322
 30
0.0
 10
51.35127047633927
 20
-85.42887679670071
 30
0.0
 10
51.85739591359145
 20
-86.31757362809848
 30
0.0
 10
52.39626267706253
 20
-87.18579797957662
 30
0.0
 10
52.54986441244597
 20
-87.43330225198262
 30
0.0
 10
52.75116564800859
 20
-87.65334911337323
 30
0.0
 10
52.94558745852411
 20
-87.87270695566657
 30
0.0
 10
53.10900986922807
 20
-88.05709707878317
 30
0.0
 10
53.29151595573629
 20
-88.22501964548118
 30
0.0
 10
53.47060063179066
 20
-88.39493175482173
 30
0.0
 10
53.62444137067794
 20
-88.54089183779992
 30
0.0
 10
53.70605137634646
 20
-88.71286239168858
 30
0.0
 10
53.70186343213757
 20
-88.92664779202558
 30
0.0
 10
53.69611012266405
 20
-89.22045414774613
 30
0.0
 10
53.70468625722442
 20
-89.5148892333934
 30
0.0
 10
53.68870316734433
 20
-89.80804963370998
 30
0.0
 10
53.66372837824041
 20
-90.26609230395028
 30
0.0
 10
53.59327832874813
 20
-90.34644054340187
 30
0.0
 10
53.14674873698049
 20
-90.36892840416175
 30
0.0
 10
52.03150673286226
 20
-90.4251092987374
 30
0.0
 10
50.91567260295803
 20
-90.47011085846337
 30
0.0
 10
49.79987723037793
 20
-90.51455259017304
 30
0.0
 10
49.01297866422125
 20
-90.54589434631473
 30
0.0
 10
48.22570975030035
 20
-90.56774486439458
 30
0.0
 10
47.43868629943245
 20
-90.59605493650932
 30
0.0
 10
46.05268132202063
 20
-90.64591408085737
 30
0.0
 10
44.6667064891943
 20
-90.69657420990571
 30
0.0
 10
43.28079409872352
 20
-90.74888798478706
 30
0.0
 10
42.89329837128069
 20
-90.76350380236577
 30
0.0
 10
42.49660208570936
 20
-90.73834599256697
 30
0.0
 10
42.12095533354829
 20
-90.8144826027741
 30
0.0
 10
41.57028911799627
 20
-90.92606924551665
 30
0.0
 10
41.02439651288152
 20
-90.91576840999122
 30
0.0
 10
40.47261279448751
 20
-90.89270349569272
 30
0.0
 10
40.13208233124863
 20
-90.87845802584594
 30
0.0
 10
39.79115998839843
 20
-90.86071578408157
 30
0.0
 10
39.45056923598779
 20
-90.86354937510291
 30
0.0
 10
38.3220679206228
 20
-90.87291142203339
 30
0.0
 10
37.19516857465967
 20
-90.85483328342396
 30
0.0
 10
36.06832090513148
 20
-90.7778267865393
 30
0.0
 10
34.59981019722402
 20
-90.67747976772677
 30
0.0
 10
33.13008509315204
 20
-90.71069048813861
 30
0.0
 10
31.66285768330366
 20
-90.815610871076
 30
0.0
 10
31.07200751846709
 20
-90.85786980126229
 30
0.0
 10
29.67796623664423
 20
-90.73516387815946
 30
0.0
 10
29.47166283525043
 20
-90.73177675096262
 30
0.0
 10
29.46470672678925
 20
-90.73166254429423
 30
0.0
 10
27.20233752926066
 20
-90.66290701349201
 30
0.0
 10
26.07958091062249
 20
-90.55824501259975
 30
0.0
 10
25.8339456025252
 20
-90.53535235308924
 30
0.0
 10
25.58675569508943
 20
-90.52940095062735
 30
0.0
 10
25.34039691693992
 20
-90.51384634450036
 30
0.0
 10
24.74079527321128
 20
-90.47601058330672
 30
0.0
 10
24.21605986075745
 20
-90.1951061101546
 30
0.0
 10
23.66622692768985
 20
-89.99588485095662
 30
0.0
 10
23.64464340447514
 20
-89.98807309694285
 30
0.0
 10
23.62342161628658
 20
-89.97460277359456
 30
0.0
 10
23.60665692038219
 20
-89.95883284901006
 30
0.0
 10
23.11092059918373
 20
-89.49251333684314
 30
0.0
 10
22.60318242658801
 20
-89.03804495314487
 30
0.0
 10
22.12435721785354
 20
-88.55492198774935
 30
0.0
 10
21.71175105071197
 20
-88.13859942381586
 30
0.0
 10
21.51330924441514
 20
-87.62794153276706
 30
0.0
 10
21.51301641132584
 20
-87.02681543428452
 30
0.0
 10
21.51252548526405
 20
-86.02803918941697
 30
0.0
 10
21.47915112279555
 20
-85.02922849359315
 30
0.0
 10
21.45593117926981
 20
-84.03051253789563
 30
0.0
 10
21.42914986829308
 20
-82.87879989169796
 30
0.0
 10
21.43619078224284
 20
-81.72467567866217
 30
0.0
 10
21.35985607908001
 20
-80.57615835852482
 30
0.0
 10
21.26148999030383
 20
-79.0960678234087
 30
0.0
 10
21.24572437215587
 20
-77.61637347427705
 30
0.0
 10
21.23689200867211
 20
-76.1348015481062
 30
0.0
 10
21.22806395155763
 20
-74.65375499899692
 30
0.0
 10
21.19444843242679
 20
-73.17284625370594
 30
0.0
 10
21.17229646852317
 20
-71.69186860650571
 30
0.0
 10
21.15049762690565
 20
-70.23449847611823
 30
0.0
 10
21.10657696590352
 20
-68.77700346101836
 30
0.0
 10
21.11393224482992
 20
-67.31977544082093
 30
0.0
 10
21.12282059126105
 20
-65.55724736509013
 30
0.0
 10
21.2018812263573
 20
-63.79493460783026
 30
0.0
 10
21.20156255510403
 20
-62.0325357231797
 30
0.0
 10
21.20125249658839
 20
-60.29360224515307
 30
0.0
 10
21.14117433777308
 20
-58.55465154164624
 30
0.0
 10
21.10466493844624
 20
-56.81576112731157
 30
0.0
 10
21.07160494096663
 20
-55.24079696890392
 30
0.0
 10
21.04012107467152
 20
-53.66576821495598
 30
0.0
 10
20.99774209390424
 20
-52.09104521323186
 30
0.0
 10
20.97656336944403
 20
-51.30399161777882
 30
0.0
 10
20.93945538473382
 20
-50.51717917900901
 30
0.0
 10
20.89710224214739
 20
-49.73093087462466
 30
0.0
 10
20.85220403527328
 20
-48.89747184298425
 30
0.0
 10
20.7870228287297
 20
-48.06511524189815
 30
0.0
 10
20.74062600531951
 20
-47.23172511216734
 30
0.0
 10
20.67462228224474
 20
-46.04608258180759
 30
0.0
 10
20.61025928589469
 20
-44.8620161826324
 30
0.0
 10
20.39170673473242
 20
-43.69005498771158
 30
0.0
 10
20.15053713171493
 20
-42.39682212533962
 30
0.0
 10
19.92399626540182
 20
-41.10031211588795
 30
0.0
 10
19.72297063752653
 20
-39.80030102815052
 30
0.0
 10
19.50745407677058
 20
-38.40658764958304
 30
0.0
 10
19.29953395155967
 20
-37.0104540914375
 30
0.0
 10
19.14210170068541
 20
-35.60933375757933
 30
0.0
 10
18.95441720509331
 20
-33.93890600326844
 30
0.0
 10
18.79129193394187
 20
-32.26648870631596
 30
0.0
 10
18.48240897917797
 20
-30.61226581988839
 30
0.0
 10
18.25165648363145
 20
-29.37644762696324
 30
0.0
 10
18.0996459517703
 20
-28.12572724288323
 30
0.0
 10
17.7677799037308
 20
-26.90904009582009
 30
0.0
 10
17.68441289937084
 20
-26.60338476481094
 30
0.0
 10
17.62093270869974
 20
-26.29147227912759
 30
0.0
 10
17.56417045422488
 20
-25.97954902752118
 30
0.0
 10
17.40222082187262
 20
-25.08958612354802
 30
0.0
 10
17.26772860053799
 20
-24.19411321998439
 30
0.0
 10
17.08326957555879
 20
-23.30897129650491
 30
0.0
 10
16.99179367770639
 20
-22.86998646384688
 30
0.0
 10
16.92963123606412
 20
-22.43122340921202
 30
0.0
 10
16.90543374666955
 20
-21.98706447377509
 30
0.0
 10
16.8837210323916
 20
-21.58865640638241
 30
0.0
 10
16.86678408173034
 20
-21.18661376325299
 30
0.0
 10
16.89495635007874
 20
-20.78952344488563
 30
0.0
 10
16.96808711453822
 20
-19.7588283903506
 30
0.0
 10
17.06634554419304
 20
-18.72990325362221
 30
0.0
 10
17.15625823003497
 20
-17.70041936546945
 30
0.0
 10
17.21238744825722
 20
-17.05779601527725
 30
0.0
 10
17.221344696548
 20
-16.4100879194652
 30
0.0
 10
17.43585356696499
 20
-15.78778632627374
 30
0.0
 10
17.51889328727837
 20
-15.5468998669871
 30
0.0
 10
17.63766295413838
 20
-15.41380721565851
 30
0.0
 10
17.90015769826873
 20
-15.38887872005752
 30
0.0
 10
19.11687929627704
 20
-15.27332268139047
 30
0.0
 10
20.3310127663034
 20
-15.12743257697571
 30
0.0
 10
21.54908225791948
 20
-15.02999558737649
 30
0.0
 10
22.75547718220992
 20
-14.93349200333477
 30
0.0
 10
23.96514494720955
 20
-14.87591261531483
 30
0.0
 10
25.17397297018491
 20
-14.81249163726266
 30
0.0
 10
26.253584074247
 20
-14.75584996116428
 30
0.0
 10
27.33356121970459
 20
-14.69414399470258
 30
0.0
 10
28.41415417597844
 20
-14.67093804688091
 30
0.0
 10
30.34068602228686
 20
-14.62956029700488
 30
0.0
 10
32.27015050612062
 20
-14.73301866769824
 30
0.0
 10
34.1935257836978
 20
-14.53301580257308
 30
0.0
 10
35.05785287088811
 20
-14.44313972095577
 30
0.0
 10
35.93215350950494
 20
-14.4254394663472
 30
0.0
 10
36.7887506637022
 20
-14.29101184055122
 30
0.0
 10
37.86860723082265
 20
-14.12154651708793
 30
0.0
 10
38.94394641647597
 20
-14.22216376055992
 30
0.0
 10
40.02067225306609
 20
-14.23312670039774
 30
0.0
 10
40.91316730221321
 20
-14.24221313978016
 30
0.0
 10
41.80483337525627
 20
-14.31599416600619
 30
0.0
 10
42.69743177726746
 20
-14.33634391444069
 30
0.0
 10
43.52011842595968
 20
-14.35509922961779
 30
0.0
 10
44.34368788037095
 20
-14.35010168801646
 30
0.0
 10
45.16663075804116
 20
-14.3386090648331
 30
0.0
 10
46.00051396706171
 20
-14.3269646421304
 30
0.0
 10
46.83420984901609
 20
-14.29753491398506
 30
0.0
 10
47.66776577396632
 20
-14.26937556479995
 30
0.0
 10
47.9140319651757
 20
-14.26105673580644
 30
0.0
 10
48.15974909429403
 20
-14.21125034443182
 30
0.0
 10
48.40537363646882
 20
-14.21379217895557
 30
0.0
 10
49.32203172407565
 20
-14.22327695750456
 30
0.0
 10
50.23854554830831
 20
-14.24660456035019
 30
0.0
 10
51.15511104897352
 20
-14.26473975834418
 30
0.0
 10
51.15491295598242
 20
-14.28106951094423
 30
0.0
 10
51.15471486299131
 20
-14.29740034013666
 30
0.0
 10
51.15451461681546
 20
-14.31373116932908
 30
0.0
  0
INSERT
  5
7D
330
70
100
AcDbEntity
  8
Слой 1
100
AcDbBlockReference
  2
Block_0
 10
0.0
 20
0.0
 30
0.0
  0
ENDSEC
  0
SECTION
  2
OBJECTS
  0
DICTIONARY
  5
C
330
0
100
AcDbDictionary
281
     1
  3
ACAD_COLOR
350
63
  3
ACAD_DETAILVIEWSTYLE
350
6A
  3
ACAD_GROUP
350
D
  3
ACAD_LAYOUT
350
62
  3
ACAD_MATERIAL
350
10
  3
ACAD_MLEADERSTYLE
350
66
  3
ACAD_MLINESTYLE
350
5F
  3
ACAD_PLOTSETTINGS
350
61
  3
ACAD_PLOTSTYLENAME
350
E
  3
ACAD_SCALELIST
350
42
  3
ACAD_SECTIONVIEWSTYLE
350
68
  3
ACAD_TABLESTYLE
350
64
  3
ACAD_VISUALSTYLE
350
29
  3
ACDB_RECOMPOSE_DATA
350
97
  3
AcDbVariableDictionary
350
8F
  0
DICTIONARY
  5
63
102
{ACAD_REACTORS
330
C
102
}
330
C
100
AcDbDictionary
281
     1
  0
DICTIONARY
  5
6A
102
{ACAD_REACTORS
330
C
102
}
330
C
100
AcDbDictionary
281
     1
  3
Imperial24
350
6B
  0
DICTIONARY
  5
D
102
{ACAD_REACTORS
330
C
102
}
330
C
100
AcDbDictionary
281
     1
  0
DICTIONARY
  5
62
102
{ACAD_REACTORS
330
C
102
}
330
C
100
AcDbDictionary
281
     1
  3
Layout1
350
6F
  3
Layout2
350
77
  3
Model
350
73
  0
DICTIONARY
  5
10
102
{ACAD_REACTORS
330
C
102
}
330
C
100
AcDbDictionary
281
     1
  3
ByBlock
350
19
  3
ByLayer
350
11
  3
Global
350
21
  0
DICTIONARY
  5
66
102
{ACAD_REACTORS
330
C
102
}
330
C
100
AcDbDictionary
281
     1
  3
Standard
350
67
  0
DICTIONARY
  5
5F
102
{ACAD_REACTORS
330
C
102
}
330
C
100
AcDbDictionary
281
     1
  3
Standard
350
60
  0
DICTIONARY
  5
61
102
{ACAD_REACTORS
330
C
102
}
330
C
100
AcDbDictionary
281
     1
  0
ACDBDICTIONARYWDFLT
  5
E
102
{ACAD_REACTORS
330
C
102
}
330
C
100
AcDbDictionary
281
     1
  3
Normal
350
F
100
AcDbDictionaryWithDefault
340
F
  0
DICTIONARY
  5
42
102
{ACAD_REACTORS
330
C
102
}
330
C
100
AcDbDictionary
281
     1
  3
A0
350
43
  3
A1
350
44
  3
A2
350
45
  3
A3
350
46
  3
A4
350
47
  3
A5
350
48
  3
A6
350
49
  3
A7
350
4A
  3
A8
350
4B
  3
A9
350
4C
  3
B0
350
4D
  3
B1
350
4E
  3
B2
350
4F
  3
B3
350
50
  3
B4
350
51
  3
B5
350
52
  3
B6
350
53
  0
DICTIONARY
  5
68
102
{ACAD_REACTORS
330
C
102
}
330
C
100
AcDbDictionary
281
     1
  3
Imperial24
350
69
  0
DICTIONARY
  5
64
102
{ACAD_REACTORS
330
C
102
}
330
C
100
AcDbDictionary
281
     1
  3
Standard
350
65
  0
DICTIONARY
  5
29
102
{ACAD_REACTORS
330
C
102
}
330
C
100
AcDbDictionary
281
     1
  3
2dWireframe
350
2F
  3
Basic
350
2E
  3
Brighten
350
35
  3
ColorChange
350
39
  3
Conceptual
350
32
  3
Dim
350
34
  3
EdgeColorOff
350
41
  3
Facepattern
350
38
  3
Flat
350
2A
  3
FlatWithEdges
350
2B
  3
Gouraud
350
2C
  3
GouraudWithEdges
350
2D
  3
Hidden
350
31
  3
JitterOff
350
3F
  3
Linepattern
350
37
  3
OverhangOff
350
40
  3
Realistic
350
33
  3
Shaded
350
3E
  3
Shaded with edges
350
3D
  3
Shades of Gray
350
3A
  3
Sketchy
350
3B
  3
Thicken
350
36
  3
Wireframe
350
30
  3
X-Ray
350
3C
  0
XRECORD
  5
97
102
{ACAD_REACTORS
330
C
102
}
330
C
100
AcDbXrecord
280
     1
 90
        1
330
65
  0
DICTIONARY
  5
8F
102
{ACAD_REACTORS
330
C
102
}
330
C
100
AcDbDictionary
281
     1
  3
CANNOSCALE
350
94
  3
CMLEADERSTYLE
350
91
  3
CTABLESTYLE
350
90
  3
CVIEWDETAILSTYLE
350
92
  3
CVIEWSECTIONSTYLE
350
93
  0
ACDBDETAILVIEWSTYLE
  5
6B
102
{ACAD_REACTORS
330
6A
102
}
330
6A
100
AcDbModelDocViewStyle
 70
     0
  3
Imperial24
290
     1
300
Imperial24
 90
        0
100
AcDbDetailViewStyle
 70
     0
 71
     0
 90
        3
 71
     1
340
55
 62
   256
 40
0.24
340
0
 62
   256
 40
0.24
300

 40
0.36
280
     3
 71
     2
340
5D
 90
       25
 62
   256
 71
     3
340
55
 62
   256
 40
0.24
 90
        1
 40
0.75
 90
        1
300
%<\AcVar ViewType \f "%tc1">% %<\AcVar ViewDetailId>%\PSCALE %<\AcVar ViewScale \f "%sn">%
 71
     4
340
5D
 90
       25
 62
   256
340
5D
 90
       25
 62
   256
280
     0
  0
LAYOUT
  5
6F
102
{ACAD_REACTORS
330
62
102
}
330
62
100
AcDbPlotSettings
  1

  2

  4

  6

 40
0.0
 41
0.0
 42
0.0
 43
0.0
 44
0.0
 45
0.0
 46
0.0
 47
0.0
 48
0.0
 49
0.0
140
0.0
141
0.0
142
1.0
143
1.0
 70
   688
 72
     0
 73
     0
 74
     5
  7

 75
    16
147
1.0
 76
     0
 77
     2
 78
   300
148
0.0
149
0.0
100
AcDbLayout
  1
Layout1
 70
     1
 71
     1
 10
0.0
 20
0.0
 11
12.0
 21
9.0
 12
0.0
 22
0.0
 32
0.0
 14
0.0
 24
0.0
 34
0.0
 15
0.0
 25
0.0
 35
0.0
146
0.0
 13
0.0
 23
0.0
 33
0.0
 16
1.0
 26
0.0
 36
0.0
 17
0.0
 27
1.0
 37
0.0
 76
     0
330
6C
  0
LAYOUT
  5
77
102
{ACAD_REACTORS
330
62
102
}
330
62
100
AcDbPlotSettings
  1

  2

  4

  6

 40
0.0
 41
0.0
 42
0.0
 43
0.0
 44
0.0
 45
0.0
 46
0.0
 47
0.0
 48
0.0
 49
0.0
140
0.0
141
0.0
142
1.0
143
1.0
 70
   688
 72
     0
 73
     0
 74
     5
  7

 75
    16
147
1.0
 76
     0
 77
     2
 78
   300
148
0.0
149
0.0
100
AcDbLayout
  1
Layout2
 70
     1
 71
     2
 10
0.0
 20
0.0
 11
12.0
 21
9.0
 12
0.0
 22
0.0
 32
0.0
 14
0.0
 24
0.0
 34
0.0
 15
0.0
 25
0.0
 35
0.0
146
0.0
 13
0.0
 23
0.0
 33
0.0
 16
1.0
 26
0.0
 36
0.0
 17
0.0
 27
1.0
 37
0.0
 76
     0
330
74
  0
LAYOUT
  5
73
102
{ACAD_REACTORS
330
62
102
}
330
62
100
AcDbPlotSettings
  1

  2

  4

  6

 40
0.0
 41
0.0
 42
0.0
 43
0.0
 44
0.0
 45
0.0
 46
0.0
 47
0.0
 48
0.0
 49
0.0
140
0.0
141
0.0
142
1.0
143
1.0
 70
  1712
 72
     0
 73
     0
 74
     0
  7

 75
     0
147
1.0
 76
     0
 77
     2
 78
   300
148
0.0
149
0.0
100
AcDbLayout
  1
Model
 70
     1
 71
     0
 10
0.0
 20
0.0
 11
12.0
 21
9.0
 12
0.0
 22
0.0
 32
0.0
 14
0.0
 24
0.0
 34
0.0
 15
0.0
 25
0.0
 35
0.0
146
0.0
 13
0.0
 23
0.0
 33
0.0
 16
1.0
 26
0.0
 36
0.0
 17
0.0
 27
1.0
 37
0.0
 76
     0
330
70
  0
MATERIAL
  5
19
102
{ACAD_XDICTIONARY
360
1A
102
}
102
{ACAD_REACTORS
330
10
102
}
330
10
100
AcDbMaterial
  1
ByBlock
 72
     0
 43
0.0208333333333333
 43
0.0
 43
0.0
 43
0.0
 43
0.0
 43
0.0208333333333333
 43
0.0
 43
0.0
 43
0.0
 43
0.0
 43
1.0
 43
0.0
 43
0.0
 43
0.0
 43
0.0
 43
1.0
 77
     0
 47
0.0208333333333333
 47
0.0
 47
0.0
 47
0.0
 47
0.0
 47
0.0208333333333333
 47
0.0
 47
0.0
 47
0.0
 47
0.0
 47
1.0
 47
0.0
 47
0.0
 47
0.0
 47
0.0
 47
1.0
171
     0
 49
0.0208333333333333
 49
0.0
 49
0.0
 49
0.0
 49
0.0
 49
0.0208333333333333
 49
0.0
 49
0.0
 49
0.0
 49
0.0
 49
1.0
 49
0.0
 49
0.0
 49
0.0
 49
0.0
 49
1.0
175
     0
142
0.0208333333333333
142
0.0
142
0.0
142
0.0
142
0.0
142
0.0208333333333333
142
0.0
142
0.0
142
0.0
142
0.0
142
1.0
142
0.0
142
0.0
142
0.0
142
0.0
142
1.0
179
     0
144
0.0208333333333333
144
0.0
144
0.0
144
0.0
144
0.0
144
0.0208333333333333
144
0.0
144
0.0
144
0.0
144
0.0
144
1.0
144
0.0
144
0.0
144
0.0
144
0.0
144
1.0
147
0.0208333333333333
147
0.0
147
0.0
147
0.0
147
0.0
147
0.0208333333333333
147
0.0
147
0.0
147
0.0
147
0.0
147
1.0
147
0.0
147
0.0
147
0.0
147
0.0
147
1.0
  0
MATERIAL
  5
11
102
{ACAD_XDICTIONARY
360
12
102
}
102
{ACAD_REACTORS
330
10
102
}
330
10
100
AcDbMaterial
  1
ByLayer
 72
     0
 43
0.0208333333333333
 43
0.0
 43
0.0
 43
0.0
 43
0.0
 43
0.0208333333333333
 43
0.0
 43
0.0
 43
0.0
 43
0.0
 43
1.0
 43
0.0
 43
0.0
 43
0.0
 43
0.0
 43
1.0
 77
     0
 47
0.0208333333333333
 47
0.0
 47
0.0
 47
0.0
 47
0.0
 47
0.0208333333333333
 47
0.0
 47
0.0
 47
0.0
 47
0.0
 47
1.0
 47
0.0
 47
0.0
 47
0.0
 47
0.0
 47
1.0
171
     0
 49
0.0208333333333333
 49
0.0
 49
0.0
 49
0.0
 49
0.0
 49
0.0208333333333333
 49
0.0
 49
0.0
 49
0.0
 49
0.0
 49
1.0
 49
0.0
 49
0.0
 49
0.0
 49
0.0
 49
1.0
175
     0
142
0.0208333333333333
142
0.0
142
0.0
142
0.0
142
0.0
142
0.0208333333333333
142
0.0
142
0.0
142
0.0
142
0.0
142
1.0
142
0.0
142
0.0
142
0.0
142
0.0
142
1.0
179
     0
144
0.0208333333333333
144
0.0
144
0.0
144
0.0
144
0.0
144
0.0208333333333333
144
0.0
144
0.0
144
0.0
144
0.0
144
1.0
144
0.0
144
0.0
144
0.0
144
0.0
144
1.0
147
0.0208333333333333
147
0.0
147
0.0
147
0.0
147
0.0
147
0.0208333333333333
147
0.0
147
0.0
147
0.0
147
0.0
147
1.0
147
0.0
147
0.0
147
0.0
147
0.0
147
1.0
  0
MATERIAL
  5
21
102
{ACAD_XDICTIONARY
360
22
102
}
102
{ACAD_REACTORS
330
10
102
}
330
10
100
AcDbMaterial
  1
Global
 72
     0
 43
0.0208333333333333
 43
0.0
 43
0.0
 43
0.0
 43
0.0
 43
0.0208333333333333
 43
0.0
 43
0.0
 43
0.0
 43
0.0
 43
1.0
 43
0.0
 43
0.0
 43
0.0
 43
0.0
 43
1.0
 77
     0
 47
0.0208333333333333
 47
0.0
 47
0.0
 47
0.0
 47
0.0
 47
0.0208333333333333
 47
0.0
 47
0.0
 47
0.0
 47
0.0
 47
1.0
 47
0.0
 47
0.0
 47
0.0
 47
0.0
 47
1.0
171
     0
 49
0.0208333333333333
 49
0.0
 49
0.0
 49
0.0
 49
0.0
 49
0.0208333333333333
 49
0.0
 49
0.0
 49
0.0
 49
0.0
 49
1.0
 49
0.0
 49
0.0
 49
0.0
 49
0.0
 49
1.0
175
     0
142
0.0208333333333333
142
0.0
142
0.0
142
0.0
142
0.0
142
0.0208333333333333
142
0.0
142
0.0
142
0.0
142
0.0
142
1.0
142
0.0
142
0.0
142
0.0
142
0.0
142
1.0
179
     0
144
0.0208333333333333
144
0.0
144
0.0
144
0.0
144
0.0
144
0.0208333333333333
144
0.0
144
0.0
144
0.0
144
0.0
144
1.0
144
0.0
144
0.0
144
0.0
144
0.0
144
1.0
147
0.0208333333333333
147
0.0
147
0.0
147
0.0
147
0.0
147
0.0208333333333333
147
0.0
147
0.0
147
0.0
147
0.0
147
1.0
147
0.0
147
0.0
147
0.0
147
0.0
147
1.0
  0
MLEADERSTYLE
  5
67
102
{ACAD_REACTORS
330
66
102
}
330
66
100
AcDbMLeaderStyle
179
     2
170
     2
171
     1
172
     0
 90
        2
 40
0.0
 41
0.0
173
     1
 91
-1056964608
340
5B
 92
       -2
290
     1
 42
0.09
291
     1
 43
0.36
  3
Standard
 44
0.18
300

342
55
174
     1
178
     6
175
     1
176
     0
 93
-1056964608
 45
0.18
292
     0
297
     0
 46
0.18
 94
-1056964608
 47
1.0
 49
1.0
140
1.0
293
     1
141
0.0
294
     1
177
     0
142
1.0
295
     1
296
     0
143
0.125
271
     0
272
     9
273
     9
298
     1
  0
MLINESTYLE
  5
60
102
{ACAD_REACTORS
330
5F
102
}
330
5F
100
AcDbMlineStyle
  2
STANDARD
 70
     0
  3

 62
   256
 51
90.0
 52
90.0
 71
     2
 49
0.5
 62
   256
  6
BYLAYER
 49
-0.5
 62
   256
  6
BYLAYER
  0
ACDBPLACEHOLDER
  5
F
102
{ACAD_REACTORS
330
E
102
}
330
E
  0
SCALE
  5
43
102
{ACAD_REACTORS
330
42
102
}
330
42
100
AcDbScale
 70
     0
300
1:1
140
1.0
141
1.0
290
     1
  0
SCALE
  5
44
102
{ACAD_REACTORS
330
42
102
}
330
42
100
AcDbScale
 70
     0
300
1/128" = 1'-0"
140
0.0078125
141
12.0
290
     0
  0
SCALE
  5
45
102
{ACAD_REACTORS
330
42
102
}
330
42
100
AcDbScale
 70
     0
300
1/64" = 1'-0"
140
0.015625
141
12.0
290
     0
  0
SCALE
  5
46
102
{ACAD_REACTORS
330
42
102
}
330
42
100
AcDbScale
 70
     0
300
1/32" = 1'-0"
140
0.03125
141
12.0
290
     0
  0
SCALE
  5
47
102
{ACAD_REACTORS
330
42
102
}
330
42
100
AcDbScale
 70
     0
300
1/16" = 1'-0"
140
0.0625
141
12.0
290
     0
  0
SCALE
  5
48
102
{ACAD_REACTORS
330
42
102
}
330
42
100
AcDbScale
 70
     0
300
3/32" = 1'-0"
140
0.09375
141
12.0
290
     0
  0
SCALE
  5
49
102
{ACAD_REACTORS
330
42
102
}
330
42
100
AcDbScale
 70
     0
300
1/8" = 1'-0"
140
0.125
141
12.0
290
     0
  0
SCALE
  5
4A
102
{ACAD_REACTORS
330
42
102
}
330
42
100
AcDbScale
 70
     0
300
3/16" = 1'-0"
140
0.1875
141
12.0
290
     0
  0
SCALE
  5
4B
102
{ACAD_REACTORS
330
42
102
}
330
42
100
AcDbScale
 70
     0
300
1/4" = 1'-0"
140
0.25
141
12.0
290
     0
  0
SCALE
  5
4C
102
{ACAD_REACTORS
330
42
102
}
330
42
100
AcDbScale
 70
     0
300
3/8" = 1'-0"
140
0.375
141
12.0
290
     0
  0
SCALE
  5
4D
102
{ACAD_REACTORS
330
42
102
}
330
42
100
AcDbScale
 70
     0
300
1/2" = 1'-0"
140
0.5
141
12.0
290
     0
  0
SCALE
  5
4E
102
{ACAD_REACTORS
330
42
102
}
330
42
100
AcDbScale
 70
     0
300
3/4" = 1'-0"
140
0.75
141
12.0
290
     0
  0
SCALE
  5
4F
102
{ACAD_REACTORS
330
42
102
}
330
42
100
AcDbScale
 70
     0
300
1" = 1'-0"
140
1.0
141
12.0
290
     0
  0
SCALE
  5
50
102
{ACAD_REACTORS
330
42
102
}
330
42
100
AcDbScale
 70
     0
300
1-1/2" = 1'-0"
140
1.5
141
12.0
290
     0
  0
SCALE
  5
51
102
{ACAD_REACTORS
330
42
102
}
330
42
100
AcDbScale
 70
     0
300
3" = 1'-0"
140
3.0
141
12.0
290
     0
  0
SCALE
  5
52
102
{ACAD_REACTORS
330
42
102
}
330
42
100
AcDbScale
 70
     0
300
6" = 1'-0"
140
6.0
141
12.0
290
     0
  0
SCALE
  5
53
102
{ACAD_REACTORS
330
42
102
}
330
42
100
AcDbScale
 70
     0
300
1'-0" = 1'-0"
140
12.0
141
12.0
290
     0
  0
ACDBSECTIONVIEWSTYLE
  5
69
102
{ACAD_REACTORS
330
68
102
}
330
68
100
AcDbModelDocViewStyle
 70
     0
  3
Imperial24
290
     1
300
Imperial24
 90
        0
100
AcDbSectionViewStyle
 70
     0
 71
     0
 90
       78
 71
     1
340
55
 62
   256
 40
0.24
340
0
340
0
 62
   256
 40
0.24
300
I, O, Q, S, X, Z
 40
0.48
 90
        3
 40
0.18
 90
        1
 71
     2
340
5D
 90
       25
 62
   256
340
5D
 90
       50
 62
   256
 40
0.24
 40
0.0
 40
0.24
 71
     3
340
55
 62
   256
 40
0.24
 90
        1
 40
0.75
 90
        1
300
%<\AcVar ViewType \f "%tc1">% %<\AcVar ViewSectionStartId>%-%<\AcVar ViewSectionEndId>%\PSCALE %<\AcVar ViewScale \f "%sn">%
 71
     4
 62
   256
 62
   257
300
ANSI31
 40
1.0
 90
        0
290
     0
290
     0
 90
        6
 40
0.0
 40
1.570796326794896
 40
0.2617993877991494
 40
1.308996938995747
 40
-0.2617993877991494
 40
1.832595714594046
  0
TABLESTYLE
  5
65
102
{ACAD_XDICTIONARY
360
95
102
}
102
{ACAD_REACTORS
330
64
102
}
330
64
100
AcDbTableStyle
280
     0
  3
Standard
 70
     0
 71
     0
 40
0.06
 41
0.06
280
     0
281
     0
  7
Standard
140
0.18
170
     2
 62
     0
 63
     7
283
     0
 90
      512
 91
        0
  1

274
    -2
284
     1
 64
     0
275
    -2
285
     1
 65
     0
276
    -2
286
     1
 66
     0
277
    -2
287
     1
 67
     0
278
    -2
288
     1
 68
     0
279
    -2
289
     1
 69
     0
  7
Standard
140
0.25
170
     5
 62
     0
 63
     7
283
     0
 90
      512
 91
        0
  1

274
    -2
284
     1
 64
     0
275
    -2
285
     1
 65
     0
276
    -2
286
     1
 66
     0
277
    -2
287
     1
 67
     0
278
    -2
288
     1
 68
     0
279
    -2
289
     1
 69
     0
  7
Standard
140
0.18
170
     5
 62
     0
 63
     7
283
     0
 90
      512
 91
        0
  1

274
    -2
284
     1
 64
     0
275
    -2
285
     1
 65
     0
276
    -2
286
     1
 66
     0
277
    -2
287
     1
 67
     0
278
    -2
288
     1
 68
     0
279
    -2
289
     1
 69
     0
  0
VISUALSTYLE
  5
2F
102
{ACAD_REACTORS
330
29
102
}
330
29
100
AcDbVisualStyle
  2
2dWireframe
 70
     4
177
     3
291
     0
 70
    58
 90
        0
176
     1
 90
        2
176
     1
 90
        0
176
     1
 90
        0
176
     1
 40
0.6
176
     1
 40
30.0
176
     1
 62
     7
420
 16777215
176
     1
 90
        1
176
     1
 90
        4
176
     1
 62
     7
176
     1
 62
   257
176
     1
 90
        1
176
     1
 90
        1
176
     1
 40
1.0
176
     1
 90
        0
176
     1
 62
   257
176
     1
 40
1.0
176
     1
 90
        1
176
     1
 90
        6
176
     1
 90
        2
176
     1
 62
     7
176
     1
 90
        5
176
     1
 90
        0
176
     1
 90
        0
176
     1
290
     0
176
     1
 90
        1
176
     1
 40
0.0
176
     1
 90
        0
176
     1
290
     1
176
     1
290
     1
176
     1
290
     0
176
     1
290
     0
176
     1
290
     0
176
     1
290
     0
176
     1
290
     0
176
     1
290
     0
176
     1
290
     0
176
     1
 90
       50
176
     1
 40
0.0
176
     1
 40
1.0
176
     1
 90
        0
176
     1
 62
    18
420
        0
176
     1
 90
       50
176
     1
 90
        3
176
     1
 62
     5
420
      255
176
     1
290
     0
176
     1
 90
       50
176
     1
 90
       50
176
     1
 90
       50
176
     1
290
     0
176
     1
 90
       50
176
     1
 62
   256
176
     0
 40
1.0
176
     0
 90
        2
176
     1
  1
strokes_ogs.tif
176
     1
290
     0
176
     1
 40
1.0
176
     1
 40
1.0
176
     1
  0
VISUALSTYLE
  5
2E
102
{ACAD_REACTORS
330
29
102
}
330
29
100
AcDbVisualStyle
  2
Basic
 70
     7
177
     3
291
     1
 70
    58
 90
        1
176
     1
 90
        0
176
     1
 90
        1
176
     1
 90
        0
176
     1
 40
0.6
176
     1
 40
30.0
176
     1
 62
     7
420
 16777215
176
     1
 90
        0
176
     1
 90
        4
176
     1
 62
     7
176
     1
 62
   257
176
     1
 90
        1
176
     1
 90
        1
176
     1
 40
1.0
176
     1
 90
        8
176
     1
 62
     7
176
     1
 40
1.0
176
     1
 90
        1
176
     1
 90
        6
176
     1
 90
        2
176
     1
 62
     7
176
     1
 90
        5
176
     1
 90
        0
176
     1
 90
        0
176
     1
290
     0
176
     1
 90
        1
176
     1
 40
0.0
176
     1
 90
        0
176
     1
290
     0
176
     1
290
     1
176
     1
290
     1
176
     1
290
     0
176
     1
290
     0
176
     1
290
     0
176
     1
290
     0
176
     1
290
     0
176
     1
290
     0
176
     1
 90
       50
176
     1
 40
0.0
176
     1
 40
1.0
176
     1
 90
        0
176
     1
 62
    18
420
        0
176
     1
 90
       50
176
     1
 90
        3
176
     1
 62
     5
420
      255
176
     1
290
     0
176
     1
 90
       50
176
     1
 90
       50
176
     1
 90
       50
176
     1
290
     0
176
     1
 90
       50
176
     1
 62
   256
176
     0
 40
1.0
176
     0
 90
        2
176
     1
  1
strokes_ogs.tif
176
     1
290
     0
176
     1
 40
1.0
176
     1
 40
1.0
176
     1
  0
VISUALSTYLE
  5
35
102
{ACAD_REACTORS
330
29
102
}
330
29
100
AcDbVisualStyle
  2
Brighten
 70
    12
177
     3
291
     1
 70
    58
 90
        2
176
     1
 90
        2
176
     1
 90
        0
176
     1
 90
        0
176
     1
 40
0.6
176
     1
 40
30.0
176
     1
 62
     7
420
 16777215
176
     1
 90
        1
176
     1
 90
        4
176
     1
 62
     7
176
     1
 62
   257
176
     1
 90
        1
176
     1
 90
        1
176
     1
 40
1.0
176
     1
 90
        8
176
     1
 62
     7
176
     1
 40
1.0
176
     1
 90
        1
176
     1
 90
        6
176
     1
 90
        2
176
     1
 62
     7
176
     1
 90
        5
176
     1
 90
        0
176
     1
 90
        0
176
     1
290
     0
176
     1
 90
        1
176
     1
 40
50.0
176
     1
 90
        0
176
     1
290
     0
176
     1
290
     1
176
     1
290
     1
176
     1
290
     0
176
     1
290
     0
176
     1
290
     0
176
     1
290
     0
176
     1
290
     0
176
     1
290
     0
176
     1
 90
       50
176
     1
 40
0.0
176
     1
 40
1.0
176
     1
 90
        0
176
     1
 62
    18
420
        0
176
     1
 90
       50
176
     1
 90
        3
176
     1
 62
     5
420
      255
176
     1
290
     0
176
     1
 90
       50
176
     1
 90
       50
176
     1
 90
       50
176
     1
290
     0
176
     1
 90
       50
176
     1
 62
   256
176
     0
 40
1.0
176
     0
 90
        2
176
     1
  1
strokes_ogs.tif
176
     1
290
     0
176
     1
 40
1.0
176
     1
 40
1.0
176
     1
  0
VISUALSTYLE
  5
39
102
{ACAD_REACTORS
330
29
102
}
330
29
100
AcDbVisualStyle
  2
ColorChange
 70
    16
177
     3
291
     1
 70
    58
 90
        2
176
     1
 90
        2
176
     1
 90
        3
176
     1
 90
        0
176
     1
 40
0.6
176
     1
 40
30.0
176
     1
 62
     8
420
  8421504
176
     1
 90
        1
176
     1
 90
        4
176
     1
 62
     7
176
     1
 62
   257
176
     1
 90
        1
176
     1
 90
        1
176
     1
 40
1.0
176
     1
 90
        8
176
     1
 62
     8
420
  8421504
176
     1
 40
1.0
176
     1
 90
        1
176
     1
 90
        6
176
     1
 90
        2
176
     1
 62
     7
176
     1
 90
        5
176
     1
 90
        0
176
     1
 90
        0
176
     1
290
     0
176
     1
 90
        1
176
     1
 40
0.0
176
     1
 90
        0
176
     1
290
     0
176
     1
290
     1
176
     1
290
     1
176
     1
290
     0
176
     1
290
     0
176
     1
290
     0
176
     1
290
     0
176
     1
290
     0
176
     1
290
     0
176
     1
 90
       50
176
     1
 40
0.0
176
     1
 40
1.0
176
     1
 90
        0
176
     1
 62
    18
420
        0
176
     1
 90
       50
176
     1
 90
        3
176
     1
 62
     5
420
      255
176
     1
290
     0
176
     1
 90
       50
176
     1
 90
       50
176
     1
 90
       50
176
     1
290
     0
176
     1
 90
       50
176
     1
 62
   256
176
     0
 40
1.0
176
     0
 90
        2
176
     1
  1
strokes_ogs.tif
176
     1
290
     0
176
     1
 40
1.0
176
     1
 40
1.0
176
     1
  0
VISUALSTYLE
  5
32
102
{ACAD_REACTORS
330
29
102
}
330
29
100
AcDbVisualStyle
  2
Conceptual
 70
     9
177
     3
291
     0
 70
    58
 90
        3
176
     1
 90
        2
176
     1
 90
        0
176
     1
 90
        0
176
     1
 40
0.6
176
     1
 40
30.0
176
     1
 62
     7
420
 16777215
176
     1
 90
        2
176
     1
 90
        2
176
     1
 62
     7
176
     1
 62
   257
176
     1
 90
        1
176
     1
 90
        1
176
     1
 40
179.0
176
     1
 90
        8
176
     1
 62
     7
176
     1
 40
1.0
176
     1
 90
        1
176
     1
 90
        6
176
     1
 90
        2
176
     1
 62
     7
176
     1
 90
        3
176
     1
 90
        0
176
     1
 90
        0
176
     1
290
     0
176
     1
 90
        1
176
     1
 40
0.0
176
     1
 90
        0
176
     1
290
     0
176
     1
290
     1
176
     1
290
     1
176
     1
290
     0
176
     1
290
     0
176
     1
290
     0
176
     1
290
     0
176
     1
290
     0
176
     1
290
     0
176
     1
 90
       50
176
     1
 40
0.0
176
     1
 40
1.0
176
     1
 90
        0
176
     1
 62
    18
420
        0
176
     1
 90
       50
176
     1
 90
        3
176
     1
 62
     5
420
      255
176
     1
290
     0
176
     1
 90
       50
176
     1
 90
       50
176
     1
 90
       50
176
     1
290
     0
176
     1
 90
       50
176
     1
 62
   256
176
     0
 40
1.0
176
     0
 90
        2
176
     1
  1
strokes_ogs.tif
176
     1
290
     0
176
     1
 40
1.0
176
     1
 40
1.0
176
     1
  0
VISUALSTYLE
  5
34
102
{ACAD_REACTORS
330
29
102
}
330
29
100
AcDbVisualStyle
  2
Dim
 70
    11
177
     3
291
     1
 70
    58
 90
        2
176
     1
 90
        2
176
     1
 90
        0
176
     1
 90
        0
176
     1
 40
0.6
176
     1
 40
30.0
176
     1
 62
     7
420
 16777215
176
     1
 90
        1
176
     1
 90
        4
176
     1
 62
     7
176
     1
 62
   257
176
     1
 90
        1
176
     1
 90
        1
176
     1
 40
1.0
176
     1
 90
        8
176
     1
 62
     7
176
     1
 40
1.0
176
     1
 90
        1
176
     1
 90
        6
176
     1
 90
        2
176
     1
 62
     7
176
     1
 90
        5
176
     1
 90
        0
176
     1
 90
        0
176
     1
290
     0
176
     1
 90
        1
176
     1
 40
-50.0
176
     1
 90
        0
176
     1
290
     0
176
     1
290
     1
176
     1
290
     1
176
     1
290
     0
176
     1
290
     0
176
     1
290
     0
176
     1
290
     0
176
     1
290
     0
176
     1
290
     0
176
     1
 90
       50
176
     1
 40
0.0
176
     1
 40
1.0
176
     1
 90
        0
176
     1
 62
    18
420
        0
176
     1
 90
       50
176
     1
 90
        3
176
     1
 62
     5
420
      255
176
     1
290
     0
176
     1
 90
       50
176
     1
 90
       50
176
     1
 90
       50
176
     1
290
     0
176
     1
 90
       50
176
     1
 62
   256
176
     0
 40
1.0
176
     0
 90
        2
176
     1
  1
strokes_ogs.tif
176
     1
290
     0
176
     1
 40
1.0
176
     1
 40
1.0
176
     1
  0
VISUALSTYLE
  5
41
102
{ACAD_REACTORS
330
29
102
}
330
29
100
AcDbVisualStyle
  2
EdgeColorOff
 70
    22
177
     3
291
     1
 70
    58
 90
        2
176
     0
 90
        2
176
     0
 90
        0
176
     0
 90
        0
176
     0
 40
0.6
176
     0
 40
30.0
176
     0
 62
     7
420
 16777215
176
     0
 90
        1
176
     0
 90
        4
176
     0
 62
     7
176
     0
 62
   257
176
     0
 90
        1
176
     0
 90
        1
176
     0
 40
1.0
176
     0
 90
        8
176
     2
 62
     7
176
     0
 40
1.0
176
     0
 90
        1
176
     0
 90
        6
176
     0
 90
        2
176
     0
 62
     7
176
     0
 90
        5
176
     0
 90
        0
176
     0
 90
        0
176
     0
290
     0
176
     0
 90
        1
176
     0
 40
0.0
176
     0
 90
        0
176
     0
290
     0
176
     0
290
     1
176
     0
290
     1
176
     0
290
     0
176
     0
290
     0
176
     0
290
     0
176
     0
290
     0
176
     0
290
     0
176
     0
290
     0
176
     0
 90
       50
176
     0
 40
0.0
176
     0
 40
1.0
176
     0
 90
        0
176
     0
 62
    18
420
        0
176
     0
 90
       50
176
     0
 90
        3
176
     0
 62
     5
420
      255
176
     0
290
     0
176
     0
 90
       50
176
     0
 90
       50
176
     0
 90
       50
176
     0
290
     0
176
     0
 90
       50
176
     0
 62
   256
176
     0
 40
1.0
176
     0
 90
        2
176
     0
  1
strokes_ogs.tif
176
     0
290
     0
176
     0
 40
1.0
176
     0
 40
1.0
176
     0
  0
VISUALSTYLE
  5
38
102
{ACAD_REACTORS
330
29
102
}
330
29
100
AcDbVisualStyle
  2
Facepattern
 70
    15
177
     3
291
     1
 70
    58
 90
        2
176
     1
 90
        2
176
     1
 90
        0
176
     1
 90
        0
176
     1
 40
0.6
176
     1
 40
30.0
176
     1
 62
     7
420
 16777215
176
     1
 90
        1
176
     1
 90
        4
176
     1
 62
     7
176
     1
 62
   257
176
     1
 90
        1
176
     1
 90
        1
176
     1
 40
1.0
176
     1
 90
        8
176
     1
 62
     7
176
     1
 40
1.0
176
     1
 90
        1
176
     1
 90
        6
176
     1
 90
        2
176
     1
 62
     7
176
     1
 90
        5
176
     1
 90
        0
176
     1
 90
        0
176
     1
290
     0
176
     1
 90
        1
176
     1
 40
0.0
176
     1
 90
        0
176
     1
290
     0
176
     1
290
     1
176
     1
290
     1
176
     1
290
     0
176
     1
290
     0
176
     1
290
     0
176
     1
290
     0
176
     1
290
     0
176
     1
290
     0
176
     1
 90
       50
176
     1
 40
0.0
176
     1
 40
1.0
176
     1
 90
        0
176
     1
 62
    18
420
        0
176
     1
 90
       50
176
     1
 90
        3
176
     1
 62
     5
420
      255
176
     1
290
     0
176
     1
 90
       50
176
     1
 90
       50
176
     1
 90
       50
176
     1
290
     0
176
     1
 90
       50
176
     1
 62
   256
176
     0
 40
1.0
176
     0
 90
        2
176
     1
  1
strokes_ogs.tif
176
     1
290
     0
176
     1
 40
1.0
176
     1
 40
1.0
176
     1
  0
VISUALSTYLE
  5
2A
102
{ACAD_REACTORS
330
29
102
}
330
29
100
AcDbVisualStyle
  2
Flat
 70
     0
177
     3
291
     1
 70
    58
 90
        2
176
     1
 90
        1
176
     1
 90
        1
176
     1
 90
        2
176
     1
 40
0.6
176
     1
 40
30.0
176
     1
 62
     7
420
 16777215
176
     1
 90
        0
176
     1
 90
        0
176
     1
 62
     7
176
     1
 62
   257
176
     1
 90
        1
176
     1
 90
        1
176
     1
 40
1.0
176
     1
 90
        8
176
     1
 62
     7
176
     1
 40
1.0
176
     1
 90
        1
176
     1
 90
        6
176
     1
 90
        2
176
     1
 62
     7
176
     1
 90
        5
176
     1
 90
        0
176
     1
 90
        0
176
     1
290
     0
176
     1
 90
       13
176
     1
 40
0.0
176
     1
 90
        0
176
     1
290
     0
176
     1
290
     1
176
     1
290
     1
176
     1
290
     0
176
     1
290
     0
176
     1
290
     0
176
     1
290
     0
176
     1
290
     0
176
     1
290
     0
176
     1
 90
       50
176
     1
 40
0.0
176
     1
 40
1.0
176
     1
 90
        0
176
     1
 62
    18
420
        0
176
     1
 90
       50
176
     1
 90
        3
176
     1
 62
     5
420
      255
176
     1
290
     0
176
     1
 90
       50
176
     1
 90
       50
176
     1
 90
       50
176
     1
290
     0
176
     1
 90
       50
176
     1
 62
   256
176
     0
 40
1.0
176
     0
 90
        2
176
     1
  1
strokes_ogs.tif
176
     1
290
     0
176
     1
 40
1.0
176
     1
 40
1.0
176
     1
  0
VISUALSTYLE
  5
2B
102
{ACAD_REACTORS
330
29
102
}
330
29
100
AcDbVisualStyle
  2
FlatWithEdges
 70
     1
177
     3
291
     1
 70
    58
 90
        2
176
     1
 90
        1
176
     1
 90
        1
176
     1
 90
        2
176
     1
 40
0.6
176
     1
 40
30.0
176
     1
 62
     7
420
 16777215
176
     1
 90
        1
176
     1
 90
        0
176
     1
 62
     7
176
     1
 62
   257
176
     1
 90
        1
176
     1
 90
        1
176
     1
 40
1.0
176
     1
 90
        0
176
     1
 62
   257
176
     1
 40
1.0
176
     1
 90
        1
176
     1
 90
        6
176
     1
 90
        2
176
     1
 62
     7
176
     1
 90
        5
176
     1
 90
        0
176
     1
 90
        0
176
     1
290
     0
176
     1
 90
       13
176
     1
 40
0.0
176
     1
 90
        0
176
     1
290
     0
176
     1
290
     1
176
     1
290
     1
176
     1
290
     0
176
     1
290
     0
176
     1
290
     0
176
     1
290
     0
176
     1
290
     0
176
     1
290
     0
176
     1
 90
       50
176
     1
 40
0.0
176
     1
 40
1.0
176
     1
 90
        0
176
     1
 62
    18
420
        0
176
     1
 90
       50
176
     1
 90
        3
176
     1
 62
     5
420
      255
176
     1
290
     0
176
     1
 90
       50
176
     1
 90
       50
176
     1
 90
       50
176
     1
290
     0
176
     1
 90
       50
176
     1
 62
   256
176
     0
 40
1.0
176
     0
 90
        2
176
     1
  1
strokes_ogs.tif
176
     1
290
     0
176
     1
 40
1.0
176
     1
 40
1.0
176
     1
  0
VISUALSTYLE
  5
2C
102
{ACAD_REACTORS
330
29
102
}
330
29
100
AcDbVisualStyle
  2
Gouraud
 70
     2
177
     3
291
     1
 70
    58
 90
        2
176
     1
 90
        2
176
     1
 90
        1
176
     1
 90
        2
176
     1
 40
0.6
176
     1
 40
30.0
176
     1
 62
     7
420
 16777215
176
     1
 90
        0
176
     1
 90
        0
176
     1
 62
     7
176
     1
 62
   257
176
     1
 90
        1
176
     1
 90
        1
176
     1
 40
1.0
176
     1
 90
        0
176
     1
 62
     7
176
     1
 40
1.0
176
     1
 90
        1
176
     1
 90
        6
176
     1
 90
        2
176
     1
 62
     7
176
     1
 90
        5
176
     1
 90
        0
176
     1
 90
        0
176
     1
290
     0
176
     1
 90
       13
176
     1
 40
0.0
176
     1
 90
        0
176
     1
290
     0
176
     1
290
     1
176
     1
290
     1
176
     1
290
     0
176
     1
290
     0
176
     1
290
     0
176
     1
290
     0
176
     1
290
     0
176
     1
290
     0
176
     1
 90
       50
176
     1
 40
0.0
176
     1
 40
1.0
176
     1
 90
        0
176
     1
 62
    18
420
        0
176
     1
 90
       50
176
     1
 90
        3
176
     1
 62
     5
420
      255
176
     1
290
     0
176
     1
 90
       50
176
     1
 90
       50
176
     1
 90
       50
176
     1
290
     0
176
     1
 90
       50
176
     1
 62
   256
176
     0
 40
1.0
176
     0
 90
        2
176
     1
  1
strokes_ogs.tif
176
     1
290
     0
176
     1
 40
1.0
176
     1
 40
1.0
176
     1
  0
VISUALSTYLE
  5
2D
102
{ACAD_REACTORS
330
29
102
}
330
29
100
AcDbVisualStyle
  2
GouraudWithEdges
 70
     3
177
     3
291
     1
 70
    58
 90
        2
176
     1
 90
        2
176
     1
 90
        1
176
     1
 90
        2
176
     1
 40
0.6
176
     1
 40
30.0
176
     1
 62
     7
420
 16777215
176
     1
 90
        1
176
     1
 90
        0
176
     1
 62
     7
176
     1
 62
   257
176
     1
 90
        1
176
     1
 90
        1
176
     1
 40
1.0
176
     1
 90
        0
176
     1
 62
   257
176
     1
 40
1.0
176
     1
 90
        1
176
     1
 90
        6
176
     1
 90
        2
176
     1
 62
     7
176
     1
 90
        5
176
     1
 90
        0
176
     1
 90
        0
176
     1
290
     0
176
     1
 90
       13
176
     1
 40
0.0
176
     1
 90
        0
176
     1
290
     0
176
     1
290
     1
176
     1
290
     1
176
     1
290
     0
176
     1
290
     0
176
     1
290
     0
176
     1
290
     0
176
     1
290
     0
176
     1
290
     0
176
     1
 90
       50
176
     1
 40
0.0
176
     1
 40
1.0
176
     1
 90
        0
176
     1
 62
    18
420
        0
176
     1
 90
       50
176
     1
 90
        3
176
     1
 62
     5
420
      255
176
     1
290
     0
176
     1
 90
       50
176
     1
 90
       50
176
     1
 90
       50
176
     1
290
     0
176
     1
 90
       50
176
     1
 62
   256
176
     0
 40
1.0
176
     0
 90
        2
176
     1
  1
strokes_ogs.tif
176
     1
290
     0
176
     1
 40
1.0
176
     1
 40
1.0
176
     1
  0
VISUALSTYLE
  5
31
102
{ACAD_REACTORS
330
29
102
}
330
29
100
AcDbVisualStyle
  2
Hidden
 70
     6
177
     3
291
     0
 70
    58
 90
        1
176
     1
 90
        2
176
     1
 90
        2
176
     1
 90
        0
176
     1
 40
0.6
176
     1
 40
30.0
176
     1
 62
     7
420
 16777215
176
     1
 90
        2
176
     1
 90
        2
176
     1
 62
     7
176
     1
 62
   257
176
     1
 90
        2
176
     1
 90
        1
176
     1
 40
40.0
176
     1
 90
        0
176
     1
 62
   257
176
     1
 40
1.0
176
     1
 90
        1
176
     1
 90
        6
176
     1
 90
        2
176
     1
 62
     7
176
     1
 90
        3
176
     1
 90
        0
176
     1
 90
        0
176
     1
290
     0
176
     1
 90
        1
176
     1
 40
0.0
176
     1
 90
        0
176
     1
290
     0
176
     1
290
     1
176
     1
290
     1
176
     1
290
     0
176
     1
290
     0
176
     1
290
     0
176
     1
290
     0
176
     1
290
     0
176
     1
290
     0
176
     1
 90
       50
176
     1
 40
0.0
176
     1
 40
1.0
176
     1
 90
        0
176
     1
 62
    18
420
        0
176
     1
 90
       50
176
     1
 90
        3
176
     1
 62
     5
420
      255
176
     1
290
     0
176
     1
 90
       50
176
     1
 90
       50
176
     1
 90
       50
176
     1
290
     0
176
     1
 90
       50
176
     1
 62
   256
176
     0
 40
1.0
176
     0
 90
        2
176
     1
  1
strokes_ogs.tif
176
     1
290
     0
176
     1
 40
1.0
176
     1
 40
1.0
176
     1
  0
VISUALSTYLE
  5
3F
102
{ACAD_REACTORS
330
29
102
}
330
29
100
AcDbVisualStyle
  2
JitterOff
 70
    20
177
     3
291
     1
 70
    58
 90
        2
176
     0
 90
        2
176
     0
 90
        0
176
     0
 90
        0
176
     0
 40
0.6
176
     0
 40
30.0
176
     0
 62
     7
420
 16777215
176
     0
 90
        1
176
     0
 90
        4
176
     0
 62
     7
176
     0
 62
   257
176
     0
 90
        1
176
     0
 90
        1
176
     0
 40
1.0
176
     0
 90
       10
176
     2
 62
     7
176
     0
 40
1.0
176
     0
 90
        1
176
     0
 90
        6
176
     0
 90
        2
176
     0
 62
     7
176
     0
 90
        5
176
     0
 90
        0
176
     0
 90
        0
176
     0
290
     0
176
     0
 90
        1
176
     0
 40
0.0
176
     0
 90
        0
176
     0
290
     0
176
     0
290
     1
176
     0
290
     1
176
     0
290
     0
176
     0
290
     0
176
     0
290
     0
176
     0
290
     0
176
     0
290
     0
176
     0
290
     0
176
     0
 90
       50
176
     0
 40
0.0
176
     0
 40
1.0
176
     0
 90
        0
176
     0
 62
    18
420
        0
176
     0
 90
       50
176
     0
 90
        3
176
     0
 62
     5
420
      255
176
     0
290
     0
176
     0
 90
       50
176
     0
 90
       50
176
     0
 90
       50
176
     0
290
     0
176
     0
 90
       50
176
     0
 62
   256
176
     0
 40
1.0
176
     0
 90
        2
176
     0
  1
strokes_ogs.tif
176
     0
290
     0
176
     0
 40
1.0
176
     0
 40
1.0
176
     0
  0
VISUALSTYLE
  5
37
102
{ACAD_REACTORS
330
29
102
}
330
29
100
AcDbVisualStyle
  2
Linepattern
 70
    14
177
     3
291
     1
 70
    58
 90
        2
176
     1
 90
        2
176
     1
 90
        0
176
     1
 90
        0
176
     1
 40
0.6
176
     1
 40
30.0
176
     1
 62
     7
420
 16777215
176
     1
 90
        1
176
     1
 90
        4
176
     1
 62
     7
176
     1
 62
   257
176
     1
 90
        7
176
     1
 90
        7
176
     1
 40
1.0
176
     1
 90
        8
176
     1
 62
     7
176
     1
 40
1.0
176
     1
 90
        1
176
     1
 90
        6
176
     1
 90
        2
176
     1
 62
     7
176
     1
 90
        5
176
     1
 90
        0
176
     1
 90
        0
176
     1
290
     0
176
     1
 90
        1
176
     1
 40
0.0
176
     1
 90
        0
176
     1
290
     0
176
     1
290
     1
176
     1
290
     1
176
     1
290
     0
176
     1
290
     0
176
     1
290
     0
176
     1
290
     0
176
     1
290
     0
176
     1
290
     0
176
     1
 90
       50
176
     1
 40
0.0
176
     1
 40
1.0
176
     1
 90
        0
176
     1
 62
    18
420
        0
176
     1
 90
       50
176
     1
 90
        3
176
     1
 62
     5
420
      255
176
     1
290
     0
176
     1
 90
       50
176
     1
 90
       50
176
     1
 90
       50
176
     1
290
     0
176
     1
 90
       50
176
     1
 62
   256
176
     0
 40
1.0
176
     0
 90
        2
176
     1
  1
strokes_ogs.tif
176
     1
290
     0
176
     1
 40
1.0
176
     1
 40
1.0
176
     1
  0
VISUALSTYLE
  5
40
102
{ACAD_REACTORS
330
29
102
}
330
29
100
AcDbVisualStyle
  2
OverhangOff
 70
    21
177
     3
291
     1
 70
    58
 90
        2
176
     0
 90
        2
176
     0
 90
        0
176
     0
 90
        0
176
     0
 40
0.6
176
     0
 40
30.0
176
     0
 62
     7
420
 16777215
176
     0
 90
        1
176
     0
 90
        4
176
     0
 62
     7
176
     0
 62
   257
176
     0
 90
        1
176
     0
 90
        1
176
     0
 40
1.0
176
     0
 90
        9
176
     2
 62
     7
176
     0
 40
1.0
176
     0
 90
        1
176
     0
 90
        6
176
     0
 90
        2
176
     0
 62
     7
176
     0
 90
        5
176
     0
 90
        0
176
     0
 90
        0
176
     0
290
     0
176
     0
 90
        1
176
     0
 40
0.0
176
     0
 90
        0
176
     0
290
     0
176
     0
290
     1
176
     0
290
     1
176
     0
290
     0
176
     0
290
     0
176
     0
290
     0
176
     0
290
     0
176
     0
290
     0
176
     0
290
     0
176
     0
 90
       50
176
     0
 40
0.0
176
     0
 40
1.0
176
     0
 90
        0
176
     0
 62
    18
420
        0
176
     0
 90
       50
176
     0
 90
        3
176
     0
 62
     5
420
      255
176
     0
290
     0
176
     0
 90
       50
176
     0
 90
       50
176
     0
 90
       50
176
     0
290
     0
176
     0
 90
       50
176
     0
 62
   256
176
     0
 40
1.0
176
     0
 90
        2
176
     0
  1
strokes_ogs.tif
176
     0
290
     0
176
     0
 40
1.0
176
     0
 40
1.0
176
     0
  0
VISUALSTYLE
  5
33
102
{ACAD_REACTORS
330
29
102
}
330
29
100
AcDbVisualStyle
  2
Realistic
 70
     8
177
     3
291
     0
 70
    58
 90
        2
176
     1
 90
        3
176
     1
 90
        0
176
     1
 90
        2
176
     1
 40
0.6
176
     1
 40
30.0
176
     1
 62
     7
420
 16777215
176
     1
 90
        0
176
     1
 90
        0
176
     1
 62
     7
176
     1
 62
   257
176
     1
 90
        1
176
     1
 90
        1
176
     1
 40
1.0
176
     1
 90
        8
176
     1
 62
   257
176
     1
 40
1.0
176
     1
 90
        1
176
     1
 90
        6
176
     1
 90
        2
176
     1
 62
     7
176
     1
 90
        3
176
     1
 90
        0
176
     1
 90
        0
176
     1
290
     0
176
     1
 90
       13
176
     1
 40
0.0
176
     1
 90
        0
176
     1
290
     0
176
     1
290
     1
176
     1
290
     1
176
     1
290
     0
176
     1
290
     0
176
     1
290
     0
176
     1
290
     0
176
     1
290
     0
176
     1
290
     0
176
     1
 90
       50
176
     1
 40
0.0
176
     1
 40
1.0
176
     1
 90
        0
176
     1
 62
    18
420
        0
176
     1
 90
       50
176
     1
 90
        3
176
     1
 62
     5
420
      255
176
     1
290
     0
176
     1
 90
       50
176
     1
 90
       50
176
     1
 90
       50
176
     1
290
     0
176
     1
 90
       50
176
     1
 62
   256
176
     0
 40
1.0
176
     0
 90
        2
176
     1
  1
strokes_ogs.tif
176
     1
290
     0
176
     1
 40
1.0
176
     1
 40
1.0
176
     1
  0
VISUALSTYLE
  5
3E
102
{ACAD_REACTORS
330
29
102
}
330
29
100
AcDbVisualStyle
  2
Shaded
 70
    27
177
     3
291
     0
 70
    58
 90
        2
176
     1
 90
        2
176
     1
 90
        1
176
     1
 90
        2
176
     1
 40
0.6
176
     1
 40
30.0
176
     1
 62
     7
420
 16777215
176
     1
 90
        0
176
     1
 90
        4
176
     1
 62
     7
176
     1
 62
   257
176
     1
 90
        1
176
     1
 90
        1
176
     1
 40
1.0
176
     1
 90
        8
176
     1
 62
   257
176
     1
 40
1.0
176
     1
 90
        1
176
     1
 90
        6
176
     1
 90
        2
176
     1
 62
     8
420
  7895160
176
     1
 90
        3
176
     1
 90
        0
176
     1
 90
        0
176
     1
290
     0
176
     1
 90
        5
176
     1
 40
0.0
176
     1
 90
        0
176
     1
290
     0
176
     1
290
     1
176
     1
290
     1
176
     1
290
     0
176
     1
290
     0
176
     1
290
     0
176
     1
290
     0
176
     1
290
     0
176
     1
290
     0
176
     1
 90
       50
176
     1
 40
0.0
176
     1
 40
1.0
176
     1
 90
        0
176
     1
 62
    18
420
        0
176
     1
 90
       50
176
     1
 90
        3
176
     1
 62
     5
420
      255
176
     1
290
     0
176
     1
 90
       50
176
     1
 90
       50
176
     1
 90
       50
176
     1
290
     0
176
     1
 90
       50
176
     1
 62
   256
176
     0
 40
1.0
176
     0
 90
        2
176
     1
  1
strokes_ogs.tif
176
     1
290
     0
176
     1
 40
1.0
176
     1
 40
1.0
176
     1
  0
VISUALSTYLE
  5
3D
102
{ACAD_REACTORS
330
29
102
}
330
29
100
AcDbVisualStyle
  2
Shaded with edges
 70
    26
177
     3
291
     0
 70
    58
 90
        2
176
     1
 90
        2
176
     1
 90
        1
176
     1
 90
        2
176
     1
 40
0.6
176
     1
 40
30.0
176
     1
 62
     7
420
 16777215
176
     1
 90
        1
176
     1
 90
        2
176
     1
 62
     7
176
     1
 62
   257
176
     1
 90
        2
176
     1
 90
        1
176
     1
 40
1.0
176
     1
 90
        8
176
     1
 62
   257
176
     1
 40
1.0
176
     1
 90
        1
176
     1
 90
        6
176
     1
 90
        2
176
     1
 62
     7
176
     1
 90
        3
176
     1
 90
        0
176
     1
 90
        0
176
     1
290
     0
176
     1
 90
        5
176
     1
 40
0.0
176
     1
 90
        0
176
     1
290
     0
176
     1
290
     1
176
     1
290
     1
176
     1
290
     0
176
     1
290
     0
176
     1
290
     0
176
     1
290
     0
176
     1
290
     0
176
     1
290
     0
176
     1
 90
       50
176
     1
 40
0.0
176
     1
 40
1.0
176
     1
 90
        0
176
     1
 62
    18
420
        0
176
     1
 90
       50
176
     1
 90
        3
176
     1
 62
     5
420
      255
176
     1
290
     0
176
     1
 90
       50
176
     1
 90
       50
176
     1
 90
       50
176
     1
290
     0
176
     1
 90
       50
176
     1
 62
   256
176
     0
 40
1.0
176
     0
 90
        2
176
     1
  1
strokes_ogs.tif
176
     1
290
     0
176
     1
 40
1.0
176
     1
 40
1.0
176
     1
  0
VISUALSTYLE
  5
3A
102
{ACAD_REACTORS
330
29
102
}
330
29
100
AcDbVisualStyle
  2
Shades of Gray
 70
    23
177
     3
291
     0
 70
    58
 90
        2
176
     1
 90
        2
176
     1
 90
        3
176
     1
 90
        0
176
     1
 40
0.6
176
     1
 40
30.0
176
     1
 62
     7
420
 16777215
176
     1
 90
        2
176
     1
 90
        2
176
     1
 62
     7
176
     1
 62
     7
176
     1
 90
        1
176
     1
 90
        1
176
     1
 40
40.0
176
     1
 90
        8
176
     1
 62
     7
176
     1
 40
1.0
176
     1
 90
        1
176
     1
 90
        6
176
     1
 90
        2
176
     1
 62
     7
176
     1
 90
        3
176
     1
 90
        0
176
     1
 90
        0
176
     1
290
     0
176
     1
 90
        1
176
     1
 40
0.0
176
     1
 90
        0
176
     1
290
     0
176
     1
290
     1
176
     1
290
     1
176
     1
290
     0
176
     1
290
     0
176
     1
290
     0
176
     1
290
     0
176
     1
290
     0
176
     1
290
     0
176
     1
 90
       50
176
     1
 40
0.0
176
     1
 40
1.0
176
     1
 90
        0
176
     1
 62
    18
420
        0
176
     1
 90
       50
176
     1
 90
        3
176
     1
 62
     5
420
      255
176
     1
290
     0
176
     1
 90
       50
176
     1
 90
       50
176
     1
 90
       50
176
     1
290
     0
176
     1
 90
       50
176
     1
 62
   256
176
     0
 40
1.0
176
     0
 90
        2
176
     1
  1
strokes_ogs.tif
176
     1
290
     0
176
     1
 40
1.0
176
     1
 40
1.0
176
     1
  0
VISUALSTYLE
  5
3B
102
{ACAD_REACTORS
330
29
102
}
330
29
100
AcDbVisualStyle
  2
Sketchy
 70
    24
177
     3
291
     0
 70
    58
 90
        1
176
     1
 90
        2
176
     1
 90
        2
176
     1
 90
        0
176
     1
 40
0.6
176
     1
 40
30.0
176
     1
 62
     7
420
 16777215
176
     1
 90
        2
176
     1
 90
        2
176
     1
 62
     7
176
     1
 62
     7
176
     1
 90
        1
176
     1
 90
        1
176
     1
 40
40.0
176
     1
 90
       11
176
     1
 62
     7
176
     1
 40
1.0
176
     1
 90
        1
176
     1
 90
        6
176
     1
 90
        2
176
     1
 62
     7
176
     1
 90
        6
176
     1
 90
        0
176
     1
 90
        0
176
     1
290
     0
176
     1
 90
        1
176
     1
 40
0.0
176
     1
 90
        0
176
     1
290
     0
176
     1
290
     1
176
     1
290
     1
176
     1
290
     0
176
     1
290
     0
176
     1
290
     0
176
     1
290
     0
176
     1
290
     0
176
     1
290
     0
176
     1
 90
       50
176
     1
 40
0.0
176
     1
 40
1.0
176
     1
 90
        0
176
     1
 62
    18
420
        0
176
     1
 90
       50
176
     1
 90
        3
176
     1
 62
     5
420
      255
176
     1
290
     0
176
     1
 90
       50
176
     1
 90
       50
176
     1
 90
       50
176
     1
290
     0
176
     1
 90
       50
176
     1
 62
   256
176
     0
 40
1.0
176
     0
 90
        2
176
     1
  1
strokes_ogs.tif
176
     1
290
     0
176
     1
 40
1.0
176
     1
 40
1.0
176
     1
  0
VISUALSTYLE
  5
36
102
{ACAD_REACTORS
330
29
102
}
330
29
100
AcDbVisualStyle
  2
Thicken
 70
    13
177
     3
291
     1
 70
    58
 90
        2
176
     1
 90
        2
176
     1
 90
        0
176
     1
 90
        0
176
     1
 40
0.6
176
     1
 40
30.0
176
     1
 62
     7
420
 16777215
176
     1
 90
        1
176
     1
 90
        4
176
     1
 62
     7
176
     1
 62
   257
176
     1
 90
        1
176
     1
 90
        1
176
     1
 40
1.0
176
     1
 90
       12
176
     1
 62
     7
176
     1
 40
1.0
176
     1
 90
        1
176
     1
 90
        6
176
     1
 90
        2
176
     1
 62
     7
176
     1
 90
        5
176
     1
 90
        0
176
     1
 90
        0
176
     1
290
     0
176
     1
 90
        1
176
     1
 40
0.0
176
     1
 90
        0
176
     1
290
     0
176
     1
290
     1
176
     1
290
     1
176
     1
290
     0
176
     1
290
     0
176
     1
290
     0
176
     1
290
     0
176
     1
290
     0
176
     1
290
     0
176
     1
 90
       50
176
     1
 40
0.0
176
     1
 40
1.0
176
     1
 90
        0
176
     1
 62
    18
420
        0
176
     1
 90
       50
176
     1
 90
        3
176
     1
 62
     5
420
      255
176
     1
290
     0
176
     1
 90
       50
176
     1
 90
       50
176
     1
 90
       50
176
     1
290
     0
176
     1
 90
       50
176
     1
 62
   256
176
     0
 40
1.0
176
     0
 90
        2
176
     1
  1
strokes_ogs.tif
176
     1
290
     0
176
     1
 40
1.0
176
     1
 40
1.0
176
     1
  0
VISUALSTYLE
  5
30
102
{ACAD_REACTORS
330
29
102
}
330
29
100
AcDbVisualStyle
  2
Wireframe
 70
     5
177
     3
291
     0
 70
    58
 90
        0
176
     1
 90
        2
176
     1
 90
        0
176
     1
 90
        0
176
     1
 40
0.6
176
     1
 40
30.0
176
     1
 62
     7
420
 16777215
176
     1
 90
        1
176
     1
 90
        4
176
     1
 62
     7
176
     1
 62
   257
176
     1
 90
        1
176
     1
 90
        1
176
     1
 40
1.0
176
     1
 90
        0
176
     1
 62
   257
176
     1
 40
1.0
176
     1
 90
        1
176
     1
 90
        6
176
     1
 90
        2
176
     1
 62
     7
176
     1
 90
        3
176
     1
 90
        0
176
     1
 90
        0
176
     1
290
     0
176
     1
 90
        1
176
     1
 40
0.0
176
     1
 90
        0
176
     1
290
     0
176
     1
290
     1
176
     1
290
     1
176
     1
290
     0
176
     1
290
     0
176
     1
290
     0
176
     1
290
     0
176
     1
290
     0
176
     1
290
     0
176
     1
 90
       50
176
     1
 40
0.0
176
     1
 40
1.0
176
     1
 90
        0
176
     1
 62
    18
420
        0
176
     1
 90
       50
176
     1
 90
        3
176
     1
 62
     5
420
      255
176
     1
290
     0
176
     1
 90
       50
176
     1
 90
       50
176
     1
 90
       50
176
     1
290
     0
176
     1
 90
       50
176
     1
 62
   256
176
     0
 40
1.0
176
     0
 90
        2
176
     1
  1
strokes_ogs.tif
176
     1
290
     0
176
     1
 40
1.0
176
     1
 40
1.0
176
     1
  0
VISUALSTYLE
  5
3C
102
{ACAD_REACTORS
330
29
102
}
330
29
100
AcDbVisualStyle
  2
X-Ray
 70
    25
177
     3
291
     0
 70
    58
 90
        2
176
     1
 90
        2
176
     1
 90
        1
176
     1
 90
        1
176
     1
 40
0.5
176
     1
 40
30.0
176
     1
 62
     7
420
 16777215
176
     1
 90
        1
176
     1
 90
        0
176
     1
 62
     7
176
     1
 62
   257
176
     1
 90
        1
176
     1
 90
        1
176
     1
 40
1.0
176
     1
 90
        8
176
     1
 62
     7
176
     1
 40
1.0
176
     1
 90
        1
176
     1
 90
        6
176
     1
 90
        2
176
     1
 62
     7
176
     1
 90
        3
176
     1
 90
        0
176
     1
 90
        0
176
     1
290
     0
176
     1
 90
       13
176
     1
 40
0.0
176
     1
 90
        0
176
     1
290
     0
176
     1
290
     1
176
     1
290
     1
176
     1
290
     0
176
     1
290
     0
176
     1
290
     0
176
     1
290
     0
176
     1
290
     0
176
     1
290
     0
176
     1
 90
       50
176
     1
 40
0.0
176
     1
 40
1.0
176
     1
 90
        0
176
     1
 62
    18
420
        0
176
     1
 90
       50
176
     1
 90
        3
176
     1
 62
     5
420
      255
176
     1
290
     0
176
     1
 90
       50
176
     1
 90
       50
176
     1
 90
       50
176
     1
290
     0
176
     1
 90
       50
176
     1
 62
   256
176
     0
 40
1.0
176
     0
 90
        2
176
     1
  1
strokes_ogs.tif
176
     1
290
     0
176
     1
 40
1.0
176
     1
 40
1.0
176
     1
  0
DICTIONARYVAR
  5
94
102
{ACAD_REACTORS
330
8F
102
}
330
8F
100
DictionaryVariables
280
     0
  1
1:1
  0
DICTIONARYVAR
  5
91
102
{ACAD_REACTORS
330
8F
102
}
330
8F
100
DictionaryVariables
280
     0
  1
STANDARD
  0
DICTIONARYVAR
  5
90
102
{ACAD_REACTORS
330
8F
102
}
330
8F
100
DictionaryVariables
280
     0
  1
STANDARD
  0
DICTIONARYVAR
  5
92
102
{ACAD_REACTORS
330
8F
102
}
330
8F
100
DictionaryVariables
280
     0
  1
Imperial24
  0
DICTIONARYVAR
  5
93
102
{ACAD_REACTORS
330
8F
102
}
330
8F
100
DictionaryVariables
280
     0
  1
Imperial24
  0
DICTIONARY
  5
1A
330
19
100
AcDbDictionary
280
     1
281
     1
  3
BUMPTILE
360
1C
  3
DIFFUSETILE
360
1B
  3
OPACITYTILE
360
1F
  3
REFLECTIONTILE
360
1E
  3
REFRACTIONTILE
360
20
  3
SPECULARTILE
360
1D
  0
DICTIONARY
  5
12
330
11
100
AcDbDictionary
280
     1
281
     1
  3
BUMPTILE
360
14
  3
DIFFUSETILE
360
13
  3
OPACITYTILE
360
17
  3
REFLECTIONTILE
360
16
  3
REFRACTIONTILE
360
18
  3
SPECULARTILE
360
15
  0
DICTIONARY
  5
22
330
21
100
AcDbDictionary
280
     1
281
     1
  3
BUMPTILE
360
24
  3
DIFFUSETILE
360
23
  3
OPACITYTILE
360
27
  3
REFLECTIONTILE
360
26
  3
REFRACTIONTILE
360
28
  3
SPECULARTILE
360
25
  0
DICTIONARY
  5
95
330
65
100
AcDbDictionary
280
     1
281
     1
  3
ACAD_ROUNDTRIP_2008_TABLESTYLE_CELLSTYLEMAP
360
96
  0
XRECORD
  5
1C
102
{ACAD_REACTORS
330
1A
102
}
330
1A
100
AcDbXrecord
280
     1
270
     1
271
     1
  0
XRECORD
  5
1B
102
{ACAD_REACTORS
330
1A
102
}
330
1A
100
AcDbXrecord
280
     1
270
     1
271
     1
  0
XRECORD
  5
1F
102
{ACAD_REACTORS
330
1A
102
}
330
1A
100
AcDbXrecord
280
     1
270
     1
271
     1
  0
XRECORD
  5
1E
102
{ACAD_REACTORS
330
1A
102
}
330
1A
100
AcDbXrecord
280
     1
270
     1
271
     1
  0
XRECORD
  5
20
102
{ACAD_REACTORS
330
1A
102
}
330
1A
100
AcDbXrecord
280
     1
270
     1
271
     1
  0
XRECORD
  5
1D
102
{ACAD_REACTORS
330
1A
102
}
330
1A
100
AcDbXrecord
280
     1
270
     1
271
     1
  0
XRECORD
  5
14
102
{ACAD_REACTORS
330
12
102
}
330
12
100
AcDbXrecord
280
     1
270
     1
271
     1
  0
XRECORD
  5
13
102
{ACAD_REACTORS
330
12
102
}
330
12
100
AcDbXrecord
280
     1
270
     1
271
     1
  0
XRECORD
  5
17
102
{ACAD_REACTORS
330
12
102
}
330
12
100
AcDbXrecord
280
     1
270
     1
271
     1
  0
XRECORD
  5
16
102
{ACAD_REACTORS
330
12
102
}
330
12
100
AcDbXrecord
280
     1
270
     1
271
     1
  0
XRECORD
  5
18
102
{ACAD_REACTORS
330
12
102
}
330
12
100
AcDbXrecord
280
     1
270
     1
271
     1
  0
XRECORD
  5
15
102
{ACAD_REACTORS
330
12
102
}
330
12
100
AcDbXrecord
280
     1
270
     1
271
     1
  0
XRECORD
  5
24
102
{ACAD_REACTORS
330
22
102
}
330
22
100
AcDbXrecord
280
     1
270
     1
271
     1
  0
XRECORD
  5
23
102
{ACAD_REACTORS
330
22
102
}
330
22
100
AcDbXrecord
280
     1
270
     1
271
     1
  0
XRECORD
  5
27
102
{ACAD_REACTORS
330
22
102
}
330
22
100
AcDbXrecord
280
     1
270
     1
271
     1
  0
XRECORD
  5
26
102
{ACAD_REACTORS
330
22
102
}
330
22
100
AcDbXrecord
280
     1
270
     1
271
     1
  0
XRECORD
  5
28
102
{ACAD_REACTORS
330
22
102
}
330
22
100
AcDbXrecord
280
     1
270
     1
271
     1
  0
XRECORD
  5
25
102
{ACAD_REACTORS
330
22
102
}
330
22
100
AcDbXrecord
280
     1
270
     1
271
     1
  0
CELLSTYLEMAP
  5
96
102
{ACAD_REACTORS
330
95
102
}
330
95
100
AcDbCellStyleMap
 90
        3
300
CELLSTYLE
  1
TABLEFORMAT_BEGIN
 90
        5
170
     1
 91
        0
 92
    32768
 62
   257
 93
        1
300
CONTENTFORMAT
  1
CONTENTFORMAT_BEGIN
 90
        0
 91
        0
 92
      512
 93
        0
300

 40
0.0
140
1.0
 94
        5
 62
     0
340
55
144
0.25
309
CONTENTFORMAT_END
171
     0
 94
        0
309
TABLEFORMAT_END
  1
CELLSTYLE_BEGIN
 90
        1
 91
        1
300
_TITLE
309
CELLSTYLE_END
300
CELLSTYLE
  1
TABLEFORMAT_BEGIN
 90
        5
170
     1
 91
        0
 92
        0
 62
   257
 93
        1
300
CONTENTFORMAT
  1
CONTENTFORMAT_BEGIN
 90
        0
 91
        0
 92
      512
 93
        0
300

 40
0.0
140
1.0
 94
        5
 62
     0
340
55
144
0.18
309
CONTENTFORMAT_END
171
     0
 94
        0
309
TABLEFORMAT_END
  1
CELLSTYLE_BEGIN
 90
        2
 91
        1
300
_HEADER
309
CELLSTYLE_END
300
CELLSTYLE
  1
TABLEFORMAT_BEGIN
 90
        5
170
     1
 91
        0
 92
        0
 62
   257
 93
        1
300
CONTENTFORMAT
  1
CONTENTFORMAT_BEGIN
 90
        0
 91
        0
 92
      512
 93
        0
300

 40
0.0
140
1.0
 94
        2
 62
     0
340
55
144
0.18
309
CONTENTFORMAT_END
171
     0
 94
        0
309
TABLEFORMAT_END
  1
CELLSTYLE_BEGIN
 90
        3
 91
        2
300
_DATA
309
CELLSTYLE_END
  0
ENDSEC
  0
EOF
