  0
SECTION
  2
HEADER
  9
$ACADVER
  1
AC1032
  9
$ACADMAINTVER
 90
      155
  9
$DWGCODEPAGE
  3
ANSI_1251
  9
$REQUIREDVERSIONS
160
                 0
  9
$INSBASE
 10
0.0
 20
0.0
 30
0.0
  9
$EXTMIN
 10
1.000000000000000E+20
 20
1.000000000000000E+20
 30
1.000000000000000E+20
  9
$EXTMAX
 10
-1.000000000000000E+20
 20
-1.000000000000000E+20
 30
-1.000000000000000E+20
  9
$LIMMIN
 10
0.0
 20
0.0
  9
$LIMMAX
 10
12.0
 20
9.0
  9
$ORTHOMODE
 70
     0
  9
$REGENMODE
 70
     1
  9
$FILLMODE
 70
     1
  9
$QTEXTMODE
 70
     0
  9
$MIRRTEXT
 70
     0
  9
$LTSCALE
 40
1.0
  9
$ATTMODE
 70
     1
  9
$TEXTSIZE
 40
0.2
  9
$TRACEWID
 40
0.05
  9
$TEXTSTYLE
  7
Standard
  9
$CLAYER
  8
0
  9
$CELTYPE
  6
ByLayer
  9
$CECOLOR
 62
   256
  9
$CELTSCALE
 40
1.0
  9
$DISPSILH
 70
     0
  9
$DIMSCALE
 40
1.0
  9
$DIMASZ
 40
0.18
  9
$DIMEXO
 40
0.0625
  9
$DIMDLI
 40
0.38
  9
$DIMRND
 40
0.0
  9
$DIMDLE
 40
0.0
  9
$DIMEXE
 40
0.18
  9
$DIMTP
 40
0.0
  9
$DIMTM
 40
0.0
  9
$DIMTXT
 40
0.18
  9
$DIMCEN
 40
0.09
  9
$DIMTSZ
 40
0.0
  9
$DIMTOL
 70
     0
  9
$DIMLIM
 70
     0
  9
$DIMTIH
 70
     1
  9
$DIMTOH
 70
     1
  9
$DIMSE1
 70
     0
  9
$DIMSE2
 70
     0
  9
$DIMTAD
 70
     0
  9
$DIMZIN
 70
     0
  9
$DIMBLK
  1

  9
$DIMASO
 70
     1
  9
$DIMSHO
 70
     1
  9
$DIMPOST
  1

  9
$DIMAPOST
  1

  9
$DIMALT
 70
     0
  9
$DIMALTD
 70
     2
  9
$DIMALTF
 40
25.4
  9
$DIMLFAC
 40
1.0
  9
$DIMTOFL
 70
     0
  9
$DIMTVP
 40
0.0
  9
$DIMTIX
 70
     0
  9
$DIMSOXD
 70
     0
  9
$DIMSAH
 70
     0
  9
$DIMBLK1
  1

  9
$DIMBLK2
  1

  9
$DIMSTYLE
  2
Standard
  9
$DIMCLRD
 70
     0
  9
$DIMCLRE
 70
     0
  9
$DIMCLRT
 70
     0
  9
$DIMTFAC
 40
1.0
  9
$DIMGAP
 40
0.09
  9
$DIMJUST
 70
     0
  9
$DIMSD1
 70
     0
  9
$DIMSD2
 70
     0
  9
$DIMTOLJ
 70
     1
  9
$DIMTZIN
 70
     0
  9
$DIMALTZ
 70
     0
  9
$DIMALTTZ
 70
     0
  9
$DIMUPT
 70
     0
  9
$DIMDEC
 70
     4
  9
$DIMTDEC
 70
     4
  9
$DIMALTU
 70
     2
  9
$DIMALTTD
 70
     2
  9
$DIMTXSTY
  7
Standard
  9
$DIMAUNIT
 70
     0
  9
$DIMADEC
 70
     0
  9
$DIMALTRND
 40
0.0
  9
$DIMAZIN
 70
     0
  9
$DIMDSEP
 70
    46
  9
$DIMATFIT
 70
     3
  9
$DIMFRAC
 70
     0
  9
$DIMLDRBLK
  1

  9
$DIMLUNIT
 70
     2
  9
$DIMLWD
 70
    -2
  9
$DIMLWE
 70
    -2
  9
$DIMTMOVE
 70
     0
  9
$DIMFXL
 40
1.0
  9
$DIMFXLON
 70
     0
  9
$DIMJOGANG
 40
0.7853981633974483
  9
$DIMTFILL
 70
     0
  9
$DIMTFILLCLR
 70
     0
  9
$DIMARCSYM
 70
     0
  9
$DIMLTYPE
  6

  9
$DIMLTEX1
  6

  9
$DIMLTEX2
  6

  9
$DIMTXTDIRECTION
 70
     0
  9
$LUNITS
 70
     2
  9
$LUPREC
 70
     4
  9
$SKETCHINC
 40
0.1
  9
$FILLETRAD
 40
0.0
  9
$AUNITS
 70
     0
  9
$AUPREC
 70
     0
  9
$MENU
  1
.
  9
$ELEVATION
 40
0.0
  9
$PELEVATION
 40
0.0
  9
$THICKNESS
 40
0.0
  9
$LIMCHECK
 70
     0
  9
$CHAMFERA
 40
0.0
  9
$CHAMFERB
 40
0.0
  9
$CHAMFERC
 40
0.0
  9
$CHAMFERD
 40
0.0
  9
$SKPOLY
 70
     0
  9
$TDCREATE
 40
2459993.375648148
  9
$TDUCREATE
 40
2459993.333981481
  9
$TDUPDATE
 40
2459993.375648148
  9
$TDUUPDATE
 40
2459993.333981481
  9
$TDINDWG
 40
0.0000000000
  9
$TDUSRTIMER
 40
0.0000000000
  9
$USRTIMER
 70
     1
  9
$ANGBASE
 50
0.0
  9
$ANGDIR
 70
     0
  9
$PDMODE
 70
     0
  9
$PDSIZE
 40
0.0
  9
$PLINEWID
 40
0.0
  9
$SPLFRAME
 70
     0
  9
$SPLINETYPE
 70
     6
  9
$SPLINESEGS
 70
     8
  9
$HANDSEED
  5
98
  9
$SURFTAB1
 70
     6
  9
$SURFTAB2
 70
     6
  9
$SURFTYPE
 70
     6
  9
$SURFU
 70
     6
  9
$SURFV
 70
     6
  9
$UCSBASE
  2

  9
$UCSNAME
  2

  9
$UCSORG
 10
0.0
 20
0.0
 30
0.0
  9
$UCSXDIR
 10
1.0
 20
0.0
 30
0.0
  9
$UCSYDIR
 10
0.0
 20
1.0
 30
0.0
  9
$UCSORTHOREF
  2

  9
$UCSORTHOVIEW
 70
     0
  9
$UCSORGTOP
 10
0.0
 20
0.0
 30
0.0
  9
$UCSORGBOTTOM
 10
0.0
 20
0.0
 30
0.0
  9
$UCSORGLEFT
 10
0.0
 20
0.0
 30
0.0
  9
$UCSORGRIGHT
 10
0.0
 20
0.0
 30
0.0
  9
$UCSORGFRONT
 10
0.0
 20
0.0
 30
0.0
  9
$UCSORGBACK
 10
0.0
 20
0.0
 30
0.0
  9
$PUCSBASE
  2

  9
$PUCSNAME
  2

  9
$PUCSORG
 10
0.0
 20
0.0
 30
0.0
  9
$PUCSXDIR
 10
1.0
 20
0.0
 30
0.0
  9
$PUCSYDIR
 10
0.0
 20
1.0
 30
0.0
  9
$PUCSORTHOREF
  2

  9
$PUCSORTHOVIEW
 70
     0
  9
$PUCSORGTOP
 10
0.0
 20
0.0
 30
0.0
  9
$PUCSORGBOTTOM
 10
0.0
 20
0.0
 30
0.0
  9
$PUCSORGLEFT
 10
0.0
 20
0.0
 30
0.0
  9
$PUCSORGRIGHT
 10
0.0
 20
0.0
 30
0.0
  9
$PUCSORGFRONT
 10
0.0
 20
0.0
 30
0.0
  9
$PUCSORGBACK
 10
0.0
 20
0.0
 30
0.0
  9
$USERI1
 70
     0
  9
$USERI2
 70
     0
  9
$USERI3
 70
     0
  9
$USERI4
 70
     0
  9
$USERI5
 70
     0
  9
$USERR1
 40
0.0
  9
$USERR2
 40
0.0
  9
$USERR3
 40
0.0
  9
$USERR4
 40
0.0
  9
$USERR5
 40
0.0
  9
$WORLDVIEW
 70
     1
  9
$SHADEDGE
 70
     3
  9
$SHADEDIF
 70
    70
  9
$TILEMODE
 70
     1
  9
$MAXACTVP
 70
    64
  9
$PINSBASE
 10
0.0
 20
0.0
 30
0.0
  9
$PLIMCHECK
 70
     0
  9
$PEXTMIN
 10
1.000000000000000E+20
 20
1.000000000000000E+20
 30
1.000000000000000E+20
  9
$PEXTMAX
 10
-1.000000000000000E+20
 20
-1.000000000000000E+20
 30
-1.000000000000000E+20
  9
$PLIMMIN
 10
0.0
 20
0.0
  9
$PLIMMAX
 10
12.0
 20
9.0
  9
$UNITMODE
 70
     0
  9
$VISRETAIN
 70
     1
  9
$PLINEGEN
 70
     0
  9
$PSLTSCALE
 70
     1
  9
$TREEDEPTH
 70
  3020
  9
$CMLSTYLE
  2
Standard
  9
$CMLJUST
 70
     0
  9
$CMLSCALE
 40
1.0
  9
$PROXYGRAPHICS
 70
     1
  9
$MEASUREMENT
 70
     0
  9
$CELWEIGHT
370
    -1
  9
$ENDCAPS
280
     0
  9
$JOINSTYLE
280
     0
  9
$LWDISPLAY
290
     1
  9
$INSUNITS
 70
     5
  9
$HYPERLINKBASE
  1

  9
$STYLESHEET
  1

  9
$XEDIT
290
     1
  9
$CEPSNTYPE
380
     0
  9
$PSTYLEMODE
290
     1
  9
$FINGERPRINTGUID
  2
{C5F65DCE-3F1A-844E-94CF-01020514D6A7}
  9
$VERSIONGUID
  2
{2D3D48F2-8F63-9B4A-B76E-16728E55761A}
  9
$EXTNAMES
290
     1
  9
$PSVPSCALE
 40
0.0
  9
$OLESTARTUP
290
     0
  9
$SORTENTS
280
   127
  9
$INDEXCTL
280
     0
  9
$HIDETEXT
280
     1
  9
$XCLIPFRAME
280
     2
  9
$HALOGAP
280
     0
  9
$OBSCOLOR
 70
   257
  9
$OBSLTYPE
280
     0
  9
$INTERSECTIONDISPLAY
280
     0
  9
$INTERSECTIONCOLOR
 70
   257
  9
$DIMASSOC
280
     2
  9
$PROJECTNAME
  1

  9
$CAMERADISPLAY
290
     0
  9
$LENSLENGTH
 40
50.0
  9
$CAMERAHEIGHT
 40
0.0
  9
$STEPSPERSEC
 40
2.0
  9
$STEPSIZE
 40
6.0
  9
$3DDWFPREC
 40
2.0
  9
$PSOLWIDTH
 40
0.25
  9
$PSOLHEIGHT
 40
4.0
  9
$LOFTANG1
 40
1.570796326794896
  9
$LOFTANG2
 40
1.570796326794896
  9
$LOFTMAG1
 40
0.0
  9
$LOFTMAG2
 40
0.0
  9
$LOFTPARAM
 70
     7
  9
$LOFTNORMALS
280
     1
  9
$LATITUDE
 40
37.795
  9
$LONGITUDE
 40
-122.394
  9
$NORTHDIRECTION
 40
0.0
  9
$TIMEZONE
 70
 -8000
  9
$LIGHTGLYPHDISPLAY
280
     1
  9
$TILEMODELIGHTSYNCH
280
     1
  9
$CMATERIAL
347
11
  9
$SOLIDHIST
280
     0
  9
$SHOWHIST
280
     1
  9
$DWFFRAME
280
     2
  9
$DGNFRAME
280
     0
  9
$REALWORLDSCALE
290
     1
  9
$INTERFERECOLOR
 62
     1
  9
$INTERFEREOBJVS
345
33
  9
$INTERFEREVPVS
346
30
  9
$CSHADOW
280
     0
  9
$SHADOWPLANELOCATION
 40
0.0
  0
ENDSEC
  0
SECTION
  2
CLASSES
  0
CLASS
  1
ACDBDICTIONARYWDFLT
  2
AcDbDictionaryWithDefault
  3
ObjectDBX Classes
 90
        0
 91
        1
280
     0
281
     0
  0
CLASS
  1
MATERIAL
  2
AcDbMaterial
  3
ObjectDBX Classes
 90
     1153
 91
        3
280
     0
281
     0
  0
CLASS
  1
VISUALSTYLE
  2
AcDbVisualStyle
  3
ObjectDBX Classes
 90
     4095
 91
       24
280
     0
281
     0
  0
CLASS
  1
SCALE
  2
AcDbScale
  3
ObjectDBX Classes
 90
     1153
 91
       17
280
     0
281
     0
  0
CLASS
  1
TABLESTYLE
  2
AcDbTableStyle
  3
ObjectDBX Classes
 90
     4095
 91
        1
280
     0
281
     0
  0
CLASS
  1
MLEADERSTYLE
  2
AcDbMLeaderStyle
  3
ACDB_MLEADERSTYLE_CLASS
 90
     4095
 91
        1
280
     0
281
     0
  0
CLASS
  1
ACDBSECTIONVIEWSTYLE
  2
AcDbSectionViewStyle
  3
ObjectDBX Classes
 90
     1025
 91
        1
280
     0
281
     0
  0
CLASS
  1
ACDBDETAILVIEWSTYLE
  2
AcDbDetailViewStyle
  3
ObjectDBX Classes
 90
     1025
 91
        1
280
     0
281
     0
  0
CLASS
  1
DICTIONARYVAR
  2
AcDbDictionaryVar
  3
ObjectDBX Classes
 90
        0
 91
        5
280
     0
281
     0
  0
CLASS
  1
CELLSTYLEMAP
  2
AcDbCellStyleMap
  3
ObjectDBX Classes
 90
     1152
 91
        1
280
     0
281
     0
  0
ENDSEC
  0
SECTION
  2
TABLES
  0
TABLE
  2
VPORT
  5
8
330
0
100
AcDbSymbolTable
 70
     1
  0
VPORT
  5
57
330
8
100
AcDbSymbolTableRecord
100
AcDbViewportTableRecord
  2
*Active
 70
     0
 10
0.0
 20
0.0
 11
1.0
 21
1.0
 12
0.0
 22
0.0
 13
0.0
 23
0.0
 14
1.0
 24
1.0
 15
0.0
 25
0.0
 16
0.0
 26
0.0
 36
1.0
 17
39.99999999000053
 27
-54.99999998625049
 37
0.0
 40
112.199999971951
 41
0.7272727272727304
 42
50.0
 43
0.0
 44
0.0
 50
0.0
 51
0.0
 71
     0
 72
   100
 73
     1
 74
     0
 75
     1
 76
     0
 77
     0
 78
     0
281
     0
 65
     1
110
0.0
120
0.0
130
0.0
111
1.0
121
0.0
131
0.0
112
0.0
122
1.0
132
0.0
 79
     0
146
0.0
 60
     3
 61
     5
292
     1
282
     1
141
0.0
142
0.0
 63
   250
421
  3355443
  0
ENDTAB
  0
TABLE
  2
LTYPE
  5
5
330
0
100
AcDbSymbolTable
 70
     1
  0
LTYPE
  5
5B
330
5
100
AcDbSymbolTableRecord
100
AcDbLinetypeTableRecord
  2
ByBlock
 70
     0
  3

 72
    65
 73
     0
 40
0.0
  0
LTYPE
  5
5C
330
5
100
AcDbSymbolTableRecord
100
AcDbLinetypeTableRecord
  2
ByLayer
 70
     0
  3

 72
    65
 73
     0
 40
0.0
  0
LTYPE
  5
5D
330
5
100
AcDbSymbolTableRecord
100
AcDbLinetypeTableRecord
  2
Continuous
 70
     0
  3
Solid line
 72
    65
 73
     0
 40
0.0
  0
ENDTAB
  0
TABLE
  2
LAYER
  5
2
330
0
100
AcDbSymbolTable
 70
     2
  0
LAYER
  5
54
330
2
100
AcDbSymbolTableRecord
100
AcDbLayerTableRecord
  2
0
 70
     0
 62
     7
  6
Continuous
370
    -3
390
F
347
21
348
0
  0
LAYER
  5
78
330
2
100
AcDbSymbolTableRecord
100
AcDbLayerTableRecord
  2
Слой 1
 70
     0
 62
     7
  6
Continuous
370
     0
390
F
347
21
348
0
  0
ENDTAB
  0
TABLE
  2
STYLE
  5
3
330
0
100
AcDbSymbolTable
 70
     2
  0
STYLE
  5
55
330
3
100
AcDbSymbolTableRecord
100
AcDbTextStyleTableRecord
  2
Standard
 70
     0
 40
0.0
 41
1.0
 50
0.0
 71
     0
 42
0.2
  3
txt
  4

  0
STYLE
  5
5A
330
3
100
AcDbSymbolTableRecord
100
AcDbTextStyleTableRecord
  2
Annotative
 70
     0
 40
0.0
 41
1.0
 50
0.0
 71
     0
 42
0.2
  3
txt
  4

1001
AcadAnnotative
1000
AnnotativeData
1002
{
1070
     1
1070
     1
1002
}
  0
ENDTAB
  0
TABLE
  2
VIEW
  5
6
330
0
100
AcDbSymbolTable
 70
     0
  0
ENDTAB
  0
TABLE
  2
UCS
  5
7
330
0
100
AcDbSymbolTable
 70
     0
  0
ENDTAB
  0
TABLE
  2
APPID
  5
9
330
0
100
AcDbSymbolTable
 70
     2
  0
APPID
  5
56
330
9
100
AcDbSymbolTableRecord
100
AcDbRegAppTableRecord
  2
ACAD
 70
     0
  0
APPID
  5
5E
330
9
100
AcDbSymbolTableRecord
100
AcDbRegAppTableRecord
  2
AcadAnnotative
 70
     0
  0
ENDTAB
  0
TABLE
  2
DIMSTYLE
  5
A
330
0
100
AcDbSymbolTable
 70
     2
100
AcDbDimStyleTable
 71
     0
  0
DIMSTYLE
105
58
330
A
100
AcDbSymbolTableRecord
100
AcDbDimStyleTableRecord
  2
Standard
 70
     0
340
55
  0
DIMSTYLE
105
59
330
A
100
AcDbSymbolTableRecord
100
AcDbDimStyleTableRecord
  2
Annotative
 70
     0
340
55
1001
AcadAnnotative
1000
AnnotativeData
1002
{
1070
     1
1070
     1
1002
}
  0
ENDTAB
  0
TABLE
  2
BLOCK_RECORD
  5
1
330
0
100
AcDbSymbolTable
 70
     3
  0
BLOCK_RECORD
  5
70
330
1
100
AcDbSymbolTableRecord
100
AcDbBlockTableRecord
  2
*Model_Space
340
73
 70
     0
280
     1
281
     0
  0
BLOCK_RECORD
  5
6C
330
1
100
AcDbSymbolTableRecord
100
AcDbBlockTableRecord
  2
*Paper_Space
340
6F
 70
     0
280
     1
281
     0
  0
BLOCK_RECORD
  5
74
330
1
100
AcDbSymbolTableRecord
100
AcDbBlockTableRecord
  2
*Paper_Space0
340
77
 70
     0
280
     1
281
     0
  0
BLOCK_RECORD
  5
7C
330
1
100
AcDbSymbolTableRecord
100
AcDbBlockTableRecord
  2
Block_0
340
0
102
{BLKREFS
331
7D
102
}
 70
     0
280
     1
281
     0
  0
BLOCK_RECORD
  5
80
330
1
100
AcDbSymbolTableRecord
100
AcDbBlockTableRecord
  2
Block_1
340
0
102
{BLKREFS
331
81
102
}
 70
     0
280
     1
281
     0
  0
ENDTAB
  0
ENDSEC
  0
SECTION
  2
BLOCKS
  0
BLOCK
  5
71
330
70
100
AcDbEntity
  8
0
100
AcDbBlockBegin
  2
*Model_Space
 70
     0
 10
0.0
 20
0.0
 30
0.0
  3
*Model_Space
  1

  0
ENDBLK
  5
72
330
70
100
AcDbEntity
  8
0
100
AcDbBlockEnd
  0
BLOCK
  5
6D
330
6C
100
AcDbEntity
 67
     1
  8
0
100
AcDbBlockBegin
  2
*Paper_Space
 70
     0
 10
0.0
 20
0.0
 30
0.0
  3
*Paper_Space
  1

  0
ENDBLK
  5
6E
330
6C
100
AcDbEntity
 67
     1
  8
0
100
AcDbBlockEnd
  0
BLOCK
  5
75
330
74
100
AcDbEntity
 67
     1
  8
0
100
AcDbBlockBegin
  2
*Paper_Space0
 70
     0
 10
0.0
 20
0.0
 30
0.0
  3
*Paper_Space0
  1

  0
ENDBLK
  5
76
330
74
100
AcDbEntity
 67
     1
  8
0
100
AcDbBlockEnd
  0
BLOCK
  5
7E
330
7C
100
AcDbEntity
  8
0
100
AcDbBlockBegin
  2
Block_0
 70
     0
 10
0.0
 20
0.0
 30
0.0
  3
Block_0
  1

  0
INSERT
  5
81
330
7C
100
AcDbEntity
  8
Слой 1
100
AcDbBlockReference
  2
Block_1
 10
0.0
 20
0.0
 30
0.0
  0
ENDBLK
  5
7F
330
7C
100
AcDbEntity
  8
0
100
AcDbBlockEnd
  0
BLOCK
  5
82
330
80
100
AcDbEntity
  8
0
100
AcDbBlockBegin
  2
Block_1
 70
     0
 10
0.0
 20
0.0
 30
0.0
  3
Block_1
  1

  0
SPLINE
  5
84
330
80
100
AcDbEntity
  8
Слой 1
100
AcDbSpline
210
0.0
220
0.0
230
1.0
 70
     9
 71
     3
 72
    59
 73
    55
 74
     0
 42
0.0000000001
 43
0.0000000001
 40
0.0
 40
0.0
 40
0.0
 40
0.0
 40
1.0
 40
1.0
 40
1.0
 40
2.0
 40
2.0
 40
2.0
 40
3.0
 40
3.0
 40
3.0
 40
4.0
 40
4.0
 40
4.0
 40
5.0
 40
5.0
 40
5.0
 40
6.0
 40
6.0
 40
6.0
 40
7.0
 40
7.0
 40
7.0
 40
8.0
 40
8.0
 40
8.0
 40
9.0
 40
9.0
 40
9.0
 40
10.0
 40
10.0
 40
10.0
 40
11.0
 40
11.0
 40
11.0
 40
12.0
 40
12.0
 40
12.0
 40
13.0
 40
13.0
 40
13.0
 40
14.0
 40
14.0
 40
14.0
 40
15.0
 40
15.0
 40
15.0
 40
16.0
 40
16.0
 40
16.0
 40
17.0
 40
17.0
 40
17.0
 40
18.0
 40
18.0
 40
18.0
 40
18.0
 10
35.97723550532861
 20
-88.61037080033005
 30
0.0
 10
36.07249239549576
 20
-88.67134899041897
 30
0.0
 10
36.29347804539712
 20
-88.76657142963127
 30
0.0
 10
36.52588418683207
 20
-88.76657142963127
 30
0.0
 10
36.95643499510117
 20
-88.76657142963127
 30
0.0
 10
37.08977741585776
 20
-88.49227292709567
 30
0.0
 10
37.08597058534656
 20
-88.28653182471656
 30
0.0
 10
37.08216375483536
 20
-87.93981741508101
 30
0.0
 10
36.76972804527805
 20
-87.79119599584733
 30
0.0
 10
36.44587184418714
 20
-87.79119599584733
 30
0.0
 10
36.44587184418714
 20
-87.79119599584733
 30
0.0
 10
36.25918211984146
 20
-87.79119599584733
 30
0.0
 10
36.25918211984146
 20
-87.79119599584733
 30
0.0
 10
36.25918211984146
 20
-87.79119599584733
 30
0.0
 10
36.25918211984146
 20
-87.53973847637894
 30
0.0
 10
36.25918211984146
 20
-87.53973847637894
 30
0.0
 10
36.25918211984146
 20
-87.53973847637894
 30
0.0
 10
36.44587184418714
 20
-87.53973847637894
 30
0.0
 10
36.44587184418714
 20
-87.53973847637894
 30
0.0
 10
36.68971570263312
 20
-87.53973847637894
 30
0.0
 10
36.99834458167924
 20
-87.41402694212217
 30
0.0
 10
36.99834458167924
 20
-87.12064261059831
 30
0.0
 10
36.99834458167924
 20
-86.92251516924159
 30
0.0
 10
36.87259859646761
 20
-86.74726316190692
 30
0.0
 10
36.56398694289893
 20
-86.74726316190692
 30
0.0
 10
36.36587672701964
 20
-86.74726316190692
 30
0.0
 10
36.17536294668532
 20
-86.83487194009684
 30
0.0
 10
36.06868556498457
 20
-86.91107745223055
 30
0.0
 10
36.06868556498457
 20
-86.91107745223055
 30
0.0
 10
35.98105956131723
 20
-86.66723359378456
 30
0.0
 10
35.98105956131723
 20
-86.66723359378456
 30
0.0
 10
36.11059515156263
 20
-86.57197670361743
 30
0.0
 10
36.36205267103101
 20
-86.47675426440512
 30
0.0
 10
36.62875473802163
 20
-86.47675426440512
 30
0.0
 10
37.1164424549136
 20
-86.47675426440512
 30
0.0
 10
37.33742810481495
 20
-86.76631453994035
 30
0.0
 10
37.33742810481495
 20
-87.06731253248664
 30
0.0
 10
37.33742810481495
 20
-87.32255965698881
 30
0.0
 10
37.18503430602492
 20
-87.53973847637894
 30
0.0
 10
36.88022948296744
 20
-87.65022268859091
 30
0.0
 10
36.88022948296744
 20
-87.65022268859091
 30
0.0
 10
36.88022948296744
 20
-87.65787080056815
 30
0.0
 10
36.88022948296744
 20
-87.65787080056815
 30
0.0
 10
37.18503430602492
 20
-87.71881453970223
 30
0.0
 10
37.4326849949821
 20
-87.94743107610342
 30
0.0
 10
37.4326849949821
 20
-88.29414548573895
 30
0.0
 10
37.4326849949821
 20
-88.69036591749754
 30
0.0
 10
37.12407334141342
 20
-89.03711477808794
 30
0.0
 10
36.5297082428207
 20
-89.03711477808794
 30
0.0
 10
36.25156845881905
 20
-89.03711477808794
 30
0.0
 10
36.00772460037307
 20
-88.94947154894317
 30
0.0
 10
35.88580267115008
 20
-88.86944198082082
 30
0.0
 10
35.88580267115008
 20
-88.86944198082082
 30
0.0
 10
35.97723550532861
 20
-88.61037080033005
 30
0.0
 10
35.97723550532861
 20
-88.61037080033005
 30
0.0
  0
HATCH
  5
85
330
80
100
AcDbEntity
  8
Слой 1
 62
     5
440
 33554687
100
AcDbHatch
 10
0.0
 20
0.0
 30
0.0
210
0.0
220
0.0
230
1.0
  2
SOLID
 70
     1
 71
     1
 91
        1
 92
        1
 93
        1
 72
     4
 94
        3
 73
     0
 74
     0
 95
       59
 96
       55
 40
0.0
 40
0.0
 40
0.0
 40
0.0
 40
1.0
 40
1.0
 40
1.0
 40
2.0
 40
2.0
 40
2.0
 40
3.0
 40
3.0
 40
3.0
 40
4.0
 40
4.0
 40
4.0
 40
5.0
 40
5.0
 40
5.0
 40
6.0
 40
6.0
 40
6.0
 40
7.0
 40
7.0
 40
7.0
 40
8.0
 40
8.0
 40
8.0
 40
9.0
 40
9.0
 40
9.0
 40
10.0
 40
10.0
 40
10.0
 40
11.0
 40
11.0
 40
11.0
 40
12.0
 40
12.0
 40
12.0
 40
13.0
 40
13.0
 40
13.0
 40
14.0
 40
14.0
 40
14.0
 40
15.0
 40
15.0
 40
15.0
 40
16.0
 40
16.0
 40
16.0
 40
17.0
 40
17.0
 40
17.0
 40
18.0
 40
18.0
 40
18.0
 40
18.0
 10
35.97723550532861
 20
-88.61037080033005
 10
36.07249239549576
 20
-88.67134899041897
 10
36.29347804539712
 20
-88.76657142963127
 10
36.52588418683207
 20
-88.76657142963127
 10
36.95643499510117
 20
-88.76657142963127
 10
37.08977741585776
 20
-88.49227292709567
 10
37.08597058534656
 20
-88.28653182471656
 10
37.08216375483536
 20
-87.93981741508101
 10
36.76972804527805
 20
-87.79119599584733
 10
36.44587184418714
 20
-87.79119599584733
 10
36.44587184418714
 20
-87.79119599584733
 10
36.25918211984146
 20
-87.79119599584733
 10
36.25918211984146
 20
-87.79119599584733
 10
36.25918211984146
 20
-87.79119599584733
 10
36.25918211984146
 20
-87.53973847637894
 10
36.25918211984146
 20
-87.53973847637894
 10
36.25918211984146
 20
-87.53973847637894
 10
36.44587184418714
 20
-87.53973847637894
 10
36.44587184418714
 20
-87.53973847637894
 10
36.68971570263312
 20
-87.53973847637894
 10
36.99834458167924
 20
-87.41402694212217
 10
36.99834458167924
 20
-87.12064261059831
 10
36.99834458167924
 20
-86.92251516924159
 10
36.87259859646761
 20
-86.74726316190692
 10
36.56398694289893
 20
-86.74726316190692
 10
36.36587672701964
 20
-86.74726316190692
 10
36.17536294668532
 20
-86.83487194009684
 10
36.06868556498457
 20
-86.91107745223055
 10
36.06868556498457
 20
-86.91107745223055
 10
35.98105956131723
 20
-86.66723359378456
 10
35.98105956131723
 20
-86.66723359378456
 10
36.11059515156263
 20
-86.57197670361743
 10
36.36205267103101
 20
-86.47675426440512
 10
36.62875473802163
 20
-86.47675426440512
 10
37.1164424549136
 20
-86.47675426440512
 10
37.33742810481495
 20
-86.76631453994035
 10
37.33742810481495
 20
-87.06731253248664
 10
37.33742810481495
 20
-87.32255965698881
 10
37.18503430602492
 20
-87.53973847637894
 10
36.88022948296744
 20
-87.65022268859091
 10
36.88022948296744
 20
-87.65022268859091
 10
36.88022948296744
 20
-87.65787080056815
 10
36.88022948296744
 20
-87.65787080056815
 10
37.18503430602492
 20
-87.71881453970223
 10
37.4326849949821
 20
-87.94743107610342
 10
37.4326849949821
 20
-88.29414548573895
 10
37.4326849949821
 20
-88.69036591749754
 10
37.12407334141342
 20
-89.03711477808794
 10
36.5297082428207
 20
-89.03711477808794
 10
36.25156845881905
 20
-89.03711477808794
 10
36.00772460037307
 20
-88.94947154894317
 10
35.88580267115008
 20
-88.86944198082082
 10
35.88580267115008
 20
-88.86944198082082
 10
35.97723550532861
 20
-88.61037080033005
 10
35.97723550532861
 20
-88.61037080033005
 97
        0
 97
        1
330
84
 75
     2
 76
     1
 98
        1
 10
0.0
 20
0.0
450
        0
451
        0
460
0.0
461
0.0
452
        0
462
0.0
453
        0
470

  0
SPLINE
  5
86
330
80
100
AcDbEntity
  8
Слой 1
100
AcDbSpline
210
0.0
220
0.0
230
1.0
 70
     9
 71
     3
 72
    17
 73
    13
 74
     0
 42
0.0000000001
 43
0.0000000001
 40
0.0
 40
0.0
 40
0.0
 40
0.0
 40
1.0
 40
1.0
 40
1.0
 40
2.0
 40
2.0
 40
2.0
 40
3.0
 40
3.0
 40
3.0
 40
4.0
 40
4.0
 40
4.0
 40
4.0
 10
38.23270506856682
 20
-87.1130289495759
 30
0.0
 10
38.23270506856682
 20
-87.36066241305566
 30
0.0
 10
38.41939479291252
 20
-87.49402205928968
 30
0.0
 10
38.70514823793655
 20
-87.5702275714234
 30
0.0
 10
38.91852022681551
 20
-87.49784611527831
 30
0.0
 10
39.08235174261656
 20
-87.34543509101085
 30
0.0
 10
39.08235174261656
 20
-87.12064261059831
 30
0.0
 10
39.08235174261656
 20
-86.92251516924159
 30
0.0
 10
38.96423664390477
 20
-86.71677406686248
 30
0.0
 10
38.66323865135849
 20
-86.71677406686248
 30
0.0
 10
38.38511609283428
 20
-86.71677406686248
 30
0.0
 10
38.23270506856682
 20
-86.89963973521953
 30
0.0
 10
38.23270506856682
 20
-87.1130289495759
 30
0.0
  0
SPLINE
  5
87
330
80
100
AcDbEntity
  8
Слой 1
100
AcDbSpline
210
0.0
220
0.0
230
1.0
 70
     9
 71
     3
 72
    17
 73
    13
 74
     0
 42
0.0000000001
 43
0.0000000001
 40
0.0
 40
0.0
 40
0.0
 40
0.0
 40
1.0
 40
1.0
 40
1.0
 40
2.0
 40
2.0
 40
2.0
 40
3.0
 40
3.0
 40
3.0
 40
4.0
 40
4.0
 40
4.0
 40
4.0
 10
39.15475042423909
 20
-88.35129961983925
 30
0.0
 10
39.15475042423909
 20
-88.05030162729297
 30
0.0
 10
38.94518526587134
 20
-87.90550426404792
 30
0.0
 10
38.60990857324683
 20
-87.81024737388078
 30
0.0
 10
38.32034829771158
 20
-87.89406654703689
 30
0.0
 10
38.16413044293292
 20
-88.08458032737121
 30
0.0
 10
38.16413044293292
 20
-88.32081052479479
 30
0.0
 10
38.15269272592189
 20
-88.57226804426318
 30
0.0
 10
38.34320650625621
 20
-88.79327091964196
 30
0.0
 10
38.6594318208473
 20
-88.79327091964196
 30
0.0
 10
38.96042981339357
 20
-88.79327091964196
 30
0.0
 10
39.15475042423909
 20
-88.60654674434142
 30
0.0
 10
39.15475042423909
 20
-88.35129961983925
 30
0.0
  0
SPLINE
  5
88
330
80
100
AcDbEntity
  8
Слой 1
100
AcDbSpline
210
0.0
220
0.0
230
1.0
 70
     9
 71
     3
 72
    35
 73
    31
 74
     0
 42
0.0000000001
 43
0.0000000001
 40
0.0
 40
0.0
 40
0.0
 40
0.0
 40
1.0
 40
1.0
 40
1.0
 40
2.0
 40
2.0
 40
2.0
 40
3.0
 40
3.0
 40
3.0
 40
4.0
 40
4.0
 40
4.0
 40
5.0
 40
5.0
 40
5.0
 40
6.0
 40
6.0
 40
6.0
 40
7.0
 40
7.0
 40
7.0
 40
8.0
 40
8.0
 40
8.0
 40
9.0
 40
9.0
 40
9.0
 40
10.0
 40
10.0
 40
10.0
 40
10.0
 10
37.82122286380858
 20
-88.36652694188407
 30
0.0
 10
37.82122286380858
 20
-88.05409123232676
 30
0.0
 10
38.00791258815427
 20
-87.83312280790282
 30
0.0
 10
38.31271741121175
 20
-87.70358721765743
 30
0.0
 10
38.31271741121175
 20
-87.70358721765743
 30
0.0
 10
38.30891058070055
 20
-87.6921495006464
 30
0.0
 10
38.30891058070055
 20
-87.6921495006464
 30
0.0
 10
38.03457762721011
 20
-87.56261391040101
 30
0.0
 10
37.91647975397574
 20
-87.34925914699948
 30
0.0
 10
37.91647975397574
 20
-87.13586993264311
 30
0.0
 10
37.91647975397574
 20
-86.74343910591829
 30
0.0
 10
38.24794961608905
 20
-86.47675426440512
 30
0.0
 10
38.68229002939192
 20
-86.47675426440512
 30
0.0
 10
39.16236408526149
 20
-86.47675426440512
 30
0.0
 10
39.40240111319627
 20
-86.77771780599654
 30
0.0
 10
39.40240111319627
 20
-87.08636391052007
 30
0.0
 10
39.40240111319627
 20
-87.29589461793295
 30
0.0
 10
39.29953056200671
 20
-87.52068709834551
 30
0.0
 10
38.99472573894924
 20
-87.66548446159056
 30
0.0
 10
38.99472573894924
 20
-87.66548446159056
 30
0.0
 10
38.99472573894924
 20
-87.6769221786016
 30
0.0
 10
38.99472573894924
 20
-87.6769221786016
 30
0.0
 10
39.30333739251791
 20
-87.79884410782459
 30
0.0
 10
39.49383394737481
 20
-88.01598847625989
 30
0.0
 10
39.49383394737481
 20
-88.31698646880616
 30
0.0
 10
39.49383394737481
 20
-88.74752005159782
 30
0.0
 10
39.12426132919462
 20
-89.03711477808794
 30
0.0
 10
38.65181815982489
 20
-89.03711477808794
 30
0.0
 10
38.13364134788847
 20
-89.03711477808794
 30
0.0
 10
37.82122286380858
 20
-88.72846867356441
 30
0.0
 10
37.82122286380858
 20
-88.36652694188407
 30
0.0
  0
HATCH
  5
89
330
80
100
AcDbEntity
  8
Слой 1
 62
     5
440
 33554687
100
AcDbHatch
 10
0.0
 20
0.0
 30
0.0
210
0.0
220
0.0
230
1.0
  2
SOLID
 70
     1
 71
     1
 91
        3
 92
        1
 93
        1
 72
     4
 94
        3
 73
     0
 74
     0
 95
       17
 96
       13
 40
0.0
 40
0.0
 40
0.0
 40
0.0
 40
1.0
 40
1.0
 40
1.0
 40
2.0
 40
2.0
 40
2.0
 40
3.0
 40
3.0
 40
3.0
 40
4.0
 40
4.0
 40
4.0
 40
4.0
 10
38.23270506856682
 20
-87.1130289495759
 10
38.23270506856682
 20
-87.36066241305566
 10
38.41939479291252
 20
-87.49402205928968
 10
38.70514823793655
 20
-87.5702275714234
 10
38.91852022681551
 20
-87.49784611527831
 10
39.08235174261656
 20
-87.34543509101085
 10
39.08235174261656
 20
-87.12064261059831
 10
39.08235174261656
 20
-86.92251516924159
 10
38.96423664390477
 20
-86.71677406686248
 10
38.66323865135849
 20
-86.71677406686248
 10
38.38511609283428
 20
-86.71677406686248
 10
38.23270506856682
 20
-86.89963973521953
 10
38.23270506856682
 20
-87.1130289495759
 97
        0
 97
        1
330
86
 92
        1
 93
        1
 72
     4
 94
        3
 73
     0
 74
     0
 95
       17
 96
       13
 40
0.0
 40
0.0
 40
0.0
 40
0.0
 40
1.0
 40
1.0
 40
1.0
 40
2.0
 40
2.0
 40
2.0
 40
3.0
 40
3.0
 40
3.0
 40
4.0
 40
4.0
 40
4.0
 40
4.0
 10
39.15475042423909
 20
-88.35129961983925
 10
39.15475042423909
 20
-88.05030162729297
 10
38.94518526587134
 20
-87.90550426404792
 10
38.60990857324683
 20
-87.81024737388078
 10
38.32034829771158
 20
-87.89406654703689
 10
38.16413044293292
 20
-88.08458032737121
 10
38.16413044293292
 20
-88.32081052479479
 10
38.15269272592189
 20
-88.57226804426318
 10
38.34320650625621
 20
-88.79327091964196
 10
38.6594318208473
 20
-88.79327091964196
 10
38.96042981339357
 20
-88.79327091964196
 10
39.15475042423909
 20
-88.60654674434142
 10
39.15475042423909
 20
-88.35129961983925
 97
        0
 97
        1
330
87
 92
        1
 93
        1
 72
     4
 94
        3
 73
     0
 74
     0
 95
       35
 96
       31
 40
0.0
 40
0.0
 40
0.0
 40
0.0
 40
1.0
 40
1.0
 40
1.0
 40
2.0
 40
2.0
 40
2.0
 40
3.0
 40
3.0
 40
3.0
 40
4.0
 40
4.0
 40
4.0
 40
5.0
 40
5.0
 40
5.0
 40
6.0
 40
6.0
 40
6.0
 40
7.0
 40
7.0
 40
7.0
 40
8.0
 40
8.0
 40
8.0
 40
9.0
 40
9.0
 40
9.0
 40
10.0
 40
10.0
 40
10.0
 40
10.0
 10
37.82122286380858
 20
-88.36652694188407
 10
37.82122286380858
 20
-88.05409123232676
 10
38.00791258815427
 20
-87.83312280790282
 10
38.31271741121175
 20
-87.70358721765743
 10
38.31271741121175
 20
-87.70358721765743
 10
38.30891058070055
 20
-87.6921495006464
 10
38.30891058070055
 20
-87.6921495006464
 10
38.03457762721011
 20
-87.56261391040101
 10
37.91647975397574
 20
-87.34925914699948
 10
37.91647975397574
 20
-87.13586993264311
 10
37.91647975397574
 20
-86.74343910591829
 10
38.24794961608905
 20
-86.47675426440512
 10
38.68229002939192
 20
-86.47675426440512
 10
39.16236408526149
 20
-86.47675426440512
 10
39.40240111319627
 20
-86.77771780599654
 10
39.40240111319627
 20
-87.08636391052007
 10
39.40240111319627
 20
-87.29589461793295
 10
39.29953056200671
 20
-87.52068709834551
 10
38.99472573894924
 20
-87.66548446159056
 10
38.99472573894924
 20
-87.66548446159056
 10
38.99472573894924
 20
-87.6769221786016
 10
38.99472573894924
 20
-87.6769221786016
 10
39.30333739251791
 20
-87.79884410782459
 10
39.49383394737481
 20
-88.01598847625989
 10
39.49383394737481
 20
-88.31698646880616
 10
39.49383394737481
 20
-88.74752005159782
 10
39.12426132919462
 20
-89.03711477808794
 10
38.65181815982489
 20
-89.03711477808794
 10
38.13364134788847
 20
-89.03711477808794
 10
37.82122286380858
 20
-88.72846867356441
 10
37.82122286380858
 20
-88.36652694188407
 97
        0
 97
        1
330
88
 75
     2
 76
     1
 98
        1
 10
0.0
 20
0.0
450
        0
451
        0
460
0.0
461
0.0
452
        0
462
0.0
453
        0
470

  0
SPLINE
  5
8A
330
80
100
AcDbEntity
  8
Слой 1
100
AcDbSpline
210
0.0
220
0.0
230
1.0
 70
    11
 71
     3
 72
    29
 73
    25
 74
     0
 42
0.0000000001
 43
0.0000000001
 40
0.0
 40
0.0
 40
0.0
 40
0.0
 40
1.0
 40
1.0
 40
1.0
 40
2.0
 40
2.0
 40
2.0
 40
3.0
 40
3.0
 40
3.0
 40
4.0
 40
4.0
 40
4.0
 40
5.0
 40
5.0
 40
5.0
 40
6.0
 40
6.0
 40
6.0
 40
7.0
 40
7.0
 40
7.0
 40
8.0
 40
8.0
 40
8.0
 40
8.0
 10
41.41404404346593
 20
-86.51864662550575
 30
0.0
 10
41.41404404346593
 20
-86.51864662550575
 30
0.0
 10
41.41404404346593
 20
-86.73961504992966
 30
0.0
 10
41.41404404346593
 20
-86.73961504992966
 30
0.0
 10
41.41404404346593
 20
-86.73961504992966
 30
0.0
 10
40.33576360753758
 20
-88.99518796603244
 30
0.0
 10
40.33576360753758
 20
-88.99518796603244
 30
0.0
 10
40.33576360753758
 20
-88.99518796603244
 30
0.0
 10
39.98904919790204
 20
-88.99518796603244
 30
0.0
 10
39.98904919790204
 20
-88.99518796603244
 30
0.0
 10
39.98904919790204
 20
-88.99518796603244
 30
0.0
 10
41.0634711268869
 20
-86.80441729600721
 30
0.0
 10
41.0634711268869
 20
-86.80441729600721
 30
0.0
 10
41.0634711268869
 20
-86.80441729600721
 30
0.0
 10
41.0634711268869
 20
-86.79676918402996
 30
0.0
 10
41.0634711268869
 20
-86.79676918402996
 30
0.0
 10
41.0634711268869
 20
-86.79676918402996
 30
0.0
 10
39.85189994663425
 20
-86.79676918402996
 30
0.0
 10
39.85189994663425
 20
-86.79676918402996
 30
0.0
 10
39.85189994663425
 20
-86.79676918402996
 30
0.0
 10
39.85189994663425
 20
-86.51864662550575
 30
0.0
 10
39.85189994663425
 20
-86.51864662550575
 30
0.0
 10
39.85189994663425
 20
-86.51864662550575
 30
0.0
 10
41.41404404346593
 20
-86.51864662550575
 30
0.0
 10
41.41404404346593
 20
-86.51864662550575
 30
0.0
  0
HATCH
  5
8B
330
80
100
AcDbEntity
  8
Слой 1
 62
     5
440
 33554687
100
AcDbHatch
 10
0.0
 20
0.0
 30
0.0
210
0.0
220
0.0
230
1.0
  2
SOLID
 70
     1
 71
     1
 91
        1
 92
        1
 93
        1
 72
     4
 94
        3
 73
     0
 74
     0
 95
       29
 96
       25
 40
0.0
 40
0.0
 40
0.0
 40
0.0
 40
1.0
 40
1.0
 40
1.0
 40
2.0
 40
2.0
 40
2.0
 40
3.0
 40
3.0
 40
3.0
 40
4.0
 40
4.0
 40
4.0
 40
5.0
 40
5.0
 40
5.0
 40
6.0
 40
6.0
 40
6.0
 40
7.0
 40
7.0
 40
7.0
 40
8.0
 40
8.0
 40
8.0
 40
8.0
 10
41.41404404346593
 20
-86.51864662550575
 10
41.41404404346593
 20
-86.51864662550575
 10
41.41404404346593
 20
-86.73961504992966
 10
41.41404404346593
 20
-86.73961504992966
 10
41.41404404346593
 20
-86.73961504992966
 10
40.33576360753758
 20
-88.99518796603244
 10
40.33576360753758
 20
-88.99518796603244
 10
40.33576360753758
 20
-88.99518796603244
 10
39.98904919790204
 20
-88.99518796603244
 10
39.98904919790204
 20
-88.99518796603244
 10
39.98904919790204
 20
-88.99518796603244
 10
41.0634711268869
 20
-86.80441729600721
 10
41.0634711268869
 20
-86.80441729600721
 10
41.0634711268869
 20
-86.80441729600721
 10
41.0634711268869
 20
-86.79676918402996
 10
41.0634711268869
 20
-86.79676918402996
 10
41.0634711268869
 20
-86.79676918402996
 10
39.85189994663425
 20
-86.79676918402996
 10
39.85189994663425
 20
-86.79676918402996
 10
39.85189994663425
 20
-86.79676918402996
 10
39.85189994663425
 20
-86.51864662550575
 10
39.85189994663425
 20
-86.51864662550575
 10
39.85189994663425
 20
-86.51864662550575
 10
41.41404404346593
 20
-86.51864662550575
 10
41.41404404346593
 20
-86.51864662550575
 97
        0
 97
        1
330
8A
 75
     2
 76
     1
 98
        1
 10
0.0
 20
0.0
450
        0
451
        0
460
0.0
461
0.0
452
        0
462
0.0
453
        0
470

  0
SPLINE
  5
8C
330
80
100
AcDbEntity
  8
Слой 1
100
AcDbSpline
210
0.0
220
0.0
230
1.0
 70
     9
 71
     3
 72
    20
 73
    16
 74
     0
 42
0.0000000001
 43
0.0000000001
 40
0.0
 40
0.0
 40
0.0
 40
0.0
 40
1.0
 40
1.0
 40
1.0
 40
2.0
 40
2.0
 40
2.0
 40
3.0
 40
3.0
 40
3.0
 40
4.0
 40
4.0
 40
4.0
 40
5.0
 40
5.0
 40
5.0
 40
5.0
 10
43.07892088766776
 20
-88.183661273527
 30
0.0
 10
43.07892088766776
 20
-87.82929875191419
 30
0.0
 10
42.87696939032242
 20
-87.61594398851267
 30
0.0
 10
42.56835773675374
 20
-87.61594398851267
 30
0.0
 10
42.36644069036325
 20
-87.61594398851267
 30
0.0
 10
42.17975096601755
 20
-87.74168997372429
 30
0.0
 10
42.08831813183903
 20
-87.92076603704758
 30
0.0
 10
42.06544269781697
 20
-87.95883434215959
 30
0.0
 10
42.05021537577216
 20
-88.00837481523748
 30
0.0
 10
42.05021537577216
 20
-88.06935300532641
 30
0.0
 10
42.05782903679456
 20
-88.47701115409602
 30
0.0
 10
42.24451876114025
 20
-88.77800914664229
 30
0.0
 10
42.59505722676443
 20
-88.77800914664229
 30
0.0
 10
42.88461750229967
 20
-88.77800914664229
 30
0.0
 10
43.07892088766776
 20
-88.53798934418493
 30
0.0
 10
43.07892088766776
 20
-88.183661273527
 30
0.0
  0
SPLINE
  5
8D
330
80
100
AcDbEntity
  8
Слой 1
100
AcDbSpline
210
0.0
220
0.0
230
1.0
 70
     9
 71
     3
 72
    38
 73
    34
 74
     0
 42
0.0000000001
 43
0.0000000001
 40
0.0
 40
0.0
 40
0.0
 40
0.0
 40
1.0
 40
1.0
 40
1.0
 40
2.0
 40
2.0
 40
2.0
 40
3.0
 40
3.0
 40
3.0
 40
4.0
 40
4.0
 40
4.0
 40
5.0
 40
5.0
 40
5.0
 40
6.0
 40
6.0
 40
6.0
 40
7.0
 40
7.0
 40
7.0
 40
8.0
 40
8.0
 40
8.0
 40
9.0
 40
9.0
 40
9.0
 40
10.0
 40
10.0
 40
10.0
 40
11.0
 40
11.0
 40
11.0
 40
11.0
 10
43.17417777783492
 20
-86.75487682292933
 30
0.0
 10
43.1055859267236
 20
-86.7510527669407
 30
0.0
 10
43.01794269757884
 20
-86.75487682292933
 30
0.0
 10
42.92272025836654
 20
-86.77010414497415
 30
0.0
 10
42.3969297854077
 20
-86.85774737411888
 30
0.0
 10
42.11877277592864
 20
-87.2425645398213
 30
0.0
 10
42.06165309278319
 20
-87.65022268859091
 30
0.0
 10
42.06165309278319
 20
-87.65022268859091
 30
0.0
 10
42.07309080979422
 20
-87.65022268859091
 30
0.0
 10
42.07309080979422
 20
-87.65022268859091
 30
0.0
 10
42.19118868302858
 20
-87.49402205928968
 30
0.0
 10
42.3969297854077
 20
-87.36448646904429
 30
0.0
 10
42.6712282879433
 20
-87.36448646904429
 30
0.0
 10
43.10940998271223
 20
-87.36448646904429
 30
0.0
 10
43.41802163628091
 20
-87.68071178363538
 30
0.0
 10
43.41802163628091
 20
-88.16460989549357
 30
0.0
 10
43.41802163628091
 20
-88.61798446135244
 30
0.0
 10
43.10940998271223
 20
-89.03711477808794
 30
0.0
 10
42.59505722676443
 20
-89.03711477808794
 30
0.0
 10
42.06544269781697
 20
-89.03711477808794
 30
0.0
 10
41.71872828818142
 20
-88.62559812237483
 30
0.0
 10
41.71872828818142
 20
-87.98170977618164
 30
0.0
 10
41.71872828818142
 20
-87.49402205928968
 30
0.0
 10
41.89401474647094
 20
-87.10920489358727
 30
0.0
 10
42.13785860491692
 20
-86.86536103514129
 30
0.0
 10
42.34359970729604
 20
-86.66344398875081
 30
0.0
 10
42.61789820983163
 20
-86.53769800353918
 30
0.0
 10
42.93033391938894
 20
-86.49959524747231
 30
0.0
 10
43.02938041458987
 20
-86.48436792542751
 30
0.0
 10
43.11323403870085
 20
-86.48054386943888
 30
0.0
 10
43.17417777783492
 20
-86.48054386943888
 30
0.0
 10
43.17417777783492
 20
-86.48054386943888
 30
0.0
 10
43.17417777783492
 20
-86.75487682292933
 30
0.0
 10
43.17417777783492
 20
-86.75487682292933
 30
0.0
  0
HATCH
  5
8E
330
80
100
AcDbEntity
  8
Слой 1
 62
     5
440
 33554687
100
AcDbHatch
 10
0.0
 20
0.0
 30
0.0
210
0.0
220
0.0
230
1.0
  2
SOLID
 70
     1
 71
     1
 91
        2
 92
        1
 93
        1
 72
     4
 94
        3
 73
     0
 74
     0
 95
       20
 96
       16
 40
0.0
 40
0.0
 40
0.0
 40
0.0
 40
1.0
 40
1.0
 40
1.0
 40
2.0
 40
2.0
 40
2.0
 40
3.0
 40
3.0
 40
3.0
 40
4.0
 40
4.0
 40
4.0
 40
5.0
 40
5.0
 40
5.0
 40
5.0
 10
43.07892088766776
 20
-88.183661273527
 10
43.07892088766776
 20
-87.82929875191419
 10
42.87696939032242
 20
-87.61594398851267
 10
42.56835773675374
 20
-87.61594398851267
 10
42.36644069036325
 20
-87.61594398851267
 10
42.17975096601755
 20
-87.74168997372429
 10
42.08831813183903
 20
-87.92076603704758
 10
42.06544269781697
 20
-87.95883434215959
 10
42.05021537577216
 20
-88.00837481523748
 10
42.05021537577216
 20
-88.06935300532641
 10
42.05782903679456
 20
-88.47701115409602
 10
42.24451876114025
 20
-88.77800914664229
 10
42.59505722676443
 20
-88.77800914664229
 10
42.88461750229967
 20
-88.77800914664229
 10
43.07892088766776
 20
-88.53798934418493
 10
43.07892088766776
 20
-88.183661273527
 97
        0
 97
        1
330
8C
 92
        1
 93
        1
 72
     4
 94
        3
 73
     0
 74
     0
 95
       38
 96
       34
 40
0.0
 40
0.0
 40
0.0
 40
0.0
 40
1.0
 40
1.0
 40
1.0
 40
2.0
 40
2.0
 40
2.0
 40
3.0
 40
3.0
 40
3.0
 40
4.0
 40
4.0
 40
4.0
 40
5.0
 40
5.0
 40
5.0
 40
6.0
 40
6.0
 40
6.0
 40
7.0
 40
7.0
 40
7.0
 40
8.0
 40
8.0
 40
8.0
 40
9.0
 40
9.0
 40
9.0
 40
10.0
 40
10.0
 40
10.0
 40
11.0
 40
11.0
 40
11.0
 40
11.0
 10
43.17417777783492
 20
-86.75487682292933
 10
43.1055859267236
 20
-86.7510527669407
 10
43.01794269757884
 20
-86.75487682292933
 10
42.92272025836654
 20
-86.77010414497415
 10
42.3969297854077
 20
-86.85774737411888
 10
42.11877277592864
 20
-87.2425645398213
 10
42.06165309278319
 20
-87.65022268859091
 10
42.06165309278319
 20
-87.65022268859091
 10
42.07309080979422
 20
-87.65022268859091
 10
42.07309080979422
 20
-87.65022268859091
 10
42.19118868302858
 20
-87.49402205928968
 10
42.3969297854077
 20
-87.36448646904429
 10
42.6712282879433
 20
-87.36448646904429
 10
43.10940998271223
 20
-87.36448646904429
 10
43.41802163628091
 20
-87.68071178363538
 10
43.41802163628091
 20
-88.16460989549357
 10
43.41802163628091
 20
-88.61798446135244
 10
43.10940998271223
 20
-89.03711477808794
 10
42.59505722676443
 20
-89.03711477808794
 10
42.06544269781697
 20
-89.03711477808794
 10
41.71872828818142
 20
-88.62559812237483
 10
41.71872828818142
 20
-87.98170977618164
 10
41.71872828818142
 20
-87.49402205928968
 10
41.89401474647094
 20
-87.10920489358727
 10
42.13785860491692
 20
-86.86536103514129
 10
42.34359970729604
 20
-86.66344398875081
 10
42.61789820983163
 20
-86.53769800353918
 10
42.93033391938894
 20
-86.49959524747231
 10
43.02938041458987
 20
-86.48436792542751
 10
43.11323403870085
 20
-86.48054386943888
 10
43.17417777783492
 20
-86.48054386943888
 10
43.17417777783492
 20
-86.48054386943888
 10
43.17417777783492
 20
-86.75487682292933
 10
43.17417777783492
 20
-86.75487682292933
 97
        0
 97
        1
330
8D
 75
     2
 76
     1
 98
        1
 10
0.0
 20
0.0
450
        0
451
        0
460
0.0
461
0.0
452
        0
462
0.0
453
        0
470

  0
ENDBLK
  5
83
330
80
100
AcDbEntity
  8
0
100
AcDbBlockEnd
  0
ENDSEC
  0
SECTION
  2
ENTITIES
  0
SPLINE
  5
79
330
70
100
AcDbEntity
  8
Слой 1
 62
     7
370
    35
100
AcDbSpline
210
0.0
220
0.0
230
1.0
 70
     9
 71
     3
 72
    17
 73
    13
 74
     0
 42
0.0000000001
 43
0.0000000001
 40
0.0
 40
0.0
 40
0.0
 40
0.0
 40
1.0
 40
1.0
 40
1.0
 40
2.0
 40
2.0
 40
2.0
 40
3.0
 40
3.0
 40
3.0
 40
4.0
 40
4.0
 40
4.0
 40
4.0
 10
29.08148617097251
 20
-83.65303342580563
 30
0.0
 10
29.07896263850268
 20
-84.25184269757421
 30
0.0
 10
29.5494851671177
 20
-84.73483647188862
 30
0.0
 10
30.14037502563942
 20
-84.73997827692693
 30
0.0
 10
30.72220858940437
 20
-84.74504256731636
 30
0.0
 10
31.22101104562763
 20
-84.25443513202305
 30
0.0
 10
31.22710886466271
 20
-83.67109433898338
 30
0.0
 10
31.23327127923845
 20
-83.08140595751213
 30
0.0
 10
30.75446760235069
 20
-82.5989892366911
 30
0.0
 10
30.15834550506074
 20
-82.59425223037212
 30
0.0
 10
29.55335228689621
 20
-82.58944632214305
 30
0.0
 10
29.08402262255054
 20
-83.05089963689379
 30
0.0
 10
29.08148617097251
 20
-83.65303342580563
 30
0.0
  0
SPLINE
  5
7A
330
70
100
AcDbEntity
  8
Слой 1
 62
     7
370
    35
100
AcDbSpline
210
0.0
220
0.0
230
1.0
 70
     9
 71
     3
 72
    17
 73
    13
 74
     0
 42
0.0000000001
 43
0.0000000001
 40
0.0
 40
0.0
 40
0.0
 40
0.0
 40
1.0
 40
1.0
 40
1.0
 40
2.0
 40
2.0
 40
2.0
 40
3.0
 40
3.0
 40
3.0
 40
4.0
 40
4.0
 40
4.0
 40
4.0
 10
48.09154889684474
 20
-82.5942780693934
 30
0.0
 10
47.49646248138453
 20
-82.60045340302403
 30
0.0
 10
47.01814973056005
 20
-83.08556591101925
 30
0.0
 10
47.02630384091025
 20
-83.67466862625866
 30
0.0
 10
47.03437828342756
 20
-84.25798358108282
 30
0.0
 10
47.53510353352457
 20
-84.74726465465918
 30
0.0
 10
48.11656459634075
 20
-84.7399868904727
 30
0.0
 10
48.70757933957433
 20
-84.73259716068335
 30
0.0
 10
49.17593361126177
 20
-84.24865598515264
 30
0.0
 10
49.17192222823302
 20
-83.64950220383523
 30
0.0
 10
49.16789577291164
 20
-83.04803159580398
 30
0.0
 10
48.69689739048169
 20
-82.58799938289874
 30
0.0
 10
48.09154889684474
 20
-82.5942780693934
 30
0.0
  0
SPLINE
  5
7B
330
70
100
AcDbEntity
  8
Слой 1
 62
     7
370
    35
100
AcDbSpline
210
0.0
220
0.0
230
1.0
 70
     9
 71
     3
 72
   401
 73
   397
 74
     0
 42
0.0000000001
 43
0.0000000001
 40
0.0
 40
0.0
 40
0.0
 40
0.0
 40
1.0
 40
1.0
 40
1.0
 40
2.0
 40
2.0
 40
2.0
 40
3.0
 40
3.0
 40
3.0
 40
4.0
 40
4.0
 40
4.0
 40
5.0
 40
5.0
 40
5.0
 40
6.0
 40
6.0
 40
6.0
 40
7.0
 40
7.0
 40
7.0
 40
8.0
 40
8.0
 40
8.0
 40
9.0
 40
9.0
 40
9.0
 40
10.0
 40
10.0
 40
10.0
 40
11.0
 40
11.0
 40
11.0
 40
12.0
 40
12.0
 40
12.0
 40
13.0
 40
13.0
 40
13.0
 40
14.0
 40
14.0
 40
14.0
 40
15.0
 40
15.0
 40
15.0
 40
16.0
 40
16.0
 40
16.0
 40
17.0
 40
17.0
 40
17.0
 40
18.0
 40
18.0
 40
18.0
 40
19.0
 40
19.0
 40
19.0
 40
20.0
 40
20.0
 40
20.0
 40
21.0
 40
21.0
 40
21.0
 40
22.0
 40
22.0
 40
22.0
 40
23.0
 40
23.0
 40
23.0
 40
24.0
 40
24.0
 40
24.0
 40
25.0
 40
25.0
 40
25.0
 40
26.0
 40
26.0
 40
26.0
 40
27.0
 40
27.0
 40
27.0
 40
28.0
 40
28.0
 40
28.0
 40
29.0
 40
29.0
 40
29.0
 40
30.0
 40
30.0
 40
30.0
 40
31.0
 40
31.0
 40
31.0
 40
32.0
 40
32.0
 40
32.0
 40
33.0
 40
33.0
 40
33.0
 40
34.0
 40
34.0
 40
34.0
 40
35.0
 40
35.0
 40
35.0
 40
36.0
 40
36.0
 40
36.0
 40
37.0
 40
37.0
 40
37.0
 40
38.0
 40
38.0
 40
38.0
 40
39.0
 40
39.0
 40
39.0
 40
40.0
 40
40.0
 40
40.0
 40
41.0
 40
41.0
 40
41.0
 40
42.0
 40
42.0
 40
42.0
 40
43.0
 40
43.0
 40
43.0
 40
44.0
 40
44.0
 40
44.0
 40
45.0
 40
45.0
 40
45.0
 40
46.0
 40
46.0
 40
46.0
 40
47.0
 40
47.0
 40
47.0
 40
48.0
 40
48.0
 40
48.0
 40
49.0
 40
49.0
 40
49.0
 40
50.0
 40
50.0
 40
50.0
 40
51.0
 40
51.0
 40
51.0
 40
52.0
 40
52.0
 40
52.0
 40
53.0
 40
53.0
 40
53.0
 40
54.0
 40
54.0
 40
54.0
 40
55.0
 40
55.0
 40
55.0
 40
56.0
 40
56.0
 40
56.0
 40
57.0
 40
57.0
 40
57.0
 40
58.0
 40
58.0
 40
58.0
 40
59.0
 40
59.0
 40
59.0
 40
60.0
 40
60.0
 40
60.0
 40
61.0
 40
61.0
 40
61.0
 40
62.0
 40
62.0
 40
62.0
 40
63.0
 40
63.0
 40
63.0
 40
64.0
 40
64.0
 40
64.0
 40
65.0
 40
65.0
 40
65.0
 40
66.0
 40
66.0
 40
66.0
 40
67.0
 40
67.0
 40
67.0
 40
68.0
 40
68.0
 40
68.0
 40
69.0
 40
69.0
 40
69.0
 40
70.0
 40
70.0
 40
70.0
 40
71.0
 40
71.0
 40
71.0
 40
72.0
 40
72.0
 40
72.0
 40
73.0
 40
73.0
 40
73.0
 40
74.0
 40
74.0
 40
74.0
 40
75.0
 40
75.0
 40
75.0
 40
76.0
 40
76.0
 40
76.0
 40
77.0
 40
77.0
 40
77.0
 40
78.0
 40
78.0
 40
78.0
 40
79.0
 40
79.0
 40
79.0
 40
80.0
 40
80.0
 40
80.0
 40
81.0
 40
81.0
 40
81.0
 40
82.0
 40
82.0
 40
82.0
 40
83.0
 40
83.0
 40
83.0
 40
84.0
 40
84.0
 40
84.0
 40
85.0
 40
85.0
 40
85.0
 40
86.0
 40
86.0
 40
86.0
 40
87.0
 40
87.0
 40
87.0
 40
88.0
 40
88.0
 40
88.0
 40
89.0
 40
89.0
 40
89.0
 40
90.0
 40
90.0
 40
90.0
 40
91.0
 40
91.0
 40
91.0
 40
92.0
 40
92.0
 40
92.0
 40
93.0
 40
93.0
 40
93.0
 40
94.0
 40
94.0
 40
94.0
 40
95.0
 40
95.0
 40
95.0
 40
96.0
 40
96.0
 40
96.0
 40
97.0
 40
97.0
 40
97.0
 40
98.0
 40
98.0
 40
98.0
 40
99.0
 40
99.0
 40
99.0
 40
100.0
 40
100.0
 40
100.0
 40
101.0
 40
101.0
 40
101.0
 40
102.0
 40
102.0
 40
102.0
 40
103.0
 40
103.0
 40
103.0
 40
104.0
 40
104.0
 40
104.0
 40
105.0
 40
105.0
 40
105.0
 40
106.0
 40
106.0
 40
106.0
 40
107.0
 40
107.0
 40
107.0
 40
108.0
 40
108.0
 40
108.0
 40
109.0
 40
109.0
 40
109.0
 40
110.0
 40
110.0
 40
110.0
 40
111.0
 40
111.0
 40
111.0
 40
112.0
 40
112.0
 40
112.0
 40
113.0
 40
113.0
 40
113.0
 40
114.0
 40
114.0
 40
114.0
 40
115.0
 40
115.0
 40
115.0
 40
116.0
 40
116.0
 40
116.0
 40
117.0
 40
117.0
 40
117.0
 40
118.0
 40
118.0
 40
118.0
 40
119.0
 40
119.0
 40
119.0
 40
120.0
 40
120.0
 40
120.0
 40
121.0
 40
121.0
 40
121.0
 40
122.0
 40
122.0
 40
122.0
 40
123.0
 40
123.0
 40
123.0
 40
124.0
 40
124.0
 40
124.0
 40
125.0
 40
125.0
 40
125.0
 40
126.0
 40
126.0
 40
126.0
 40
127.0
 40
127.0
 40
127.0
 40
128.0
 40
128.0
 40
128.0
 40
129.0
 40
129.0
 40
129.0
 40
130.0
 40
130.0
 40
130.0
 40
131.0
 40
131.0
 40
131.0
 40
132.0
 40
132.0
 40
132.0
 40
132.0
 10
56.91034738700368
 20
-8.585100973593037
 30
0.0
 10
57.81993656930394
 20
-8.765921116546543
 30
0.0
 10
58.73129997577949
 20
-8.938765863451825
 30
0.0
 10
59.63760985781402
 20
-9.134902147317987
 30
0.0
 10
60.76234094679602
 20
-9.378307832732442
 30
0.0
 10
61.88302620176669
 20
-9.64047098647155
 30
0.0
 10
63.00487417646389
 20
-9.89708861307181
 30
0.0
 10
63.30903950366871
 20
-9.966665546187083
 30
0.0
 10
63.33234342144073
 20
-9.989870417465978
 30
0.0
 10
63.3228414174416
 20
-10.29885349539124
 30
0.0
 10
63.30260794099029
 20
-10.95673431221532
 30
0.0
 10
63.27329017838128
 20
-11.61435674687761
 30
0.0
 10
63.24456238837414
 20
-12.27194903695444
 30
0.0
 10
63.1933036738703
 20
-13.44532595078911
 30
0.0
 10
63.15257187925857
 20
-14.61936066254347
 30
0.0
 10
63.08326301759669
 20
-15.79169220521602
 30
0.0
 10
63.02226329561472
 20
-16.82345200957504
 30
0.0
 10
62.93729216860938
 20
-17.8540630899071
 30
0.0
 10
62.84585933438465
 20
-18.88366863299411
 30
0.0
 10
62.77424441194883
 20
-19.69014180105643
 30
0.0
 10
62.66522651846671
 20
-20.49329260515846
 30
0.0
 10
62.59371279571077
 20
-21.29977223277482
 30
0.0
 10
62.52530396526244
 20
-22.07123677115312
 30
0.0
 10
62.45899018350616
 20
-22.84094861720337
 30
0.0
 10
62.31453302340607
 20
-23.60407602450393
 30
0.0
 10
62.157251495359
 20
-24.43494477496733
 30
0.0
 10
62.04963532510078
 20
-25.27519279789153
 30
0.0
 10
61.89341747028477
 20
-26.10628763274617
 30
0.0
 10
61.68724788410546
 20
-27.20311990785335
 30
0.0
 10
61.45675161743112
 20
-28.29541111647291
 30
0.0
 10
61.23321659682159
 20
-29.38894040628283
 30
0.0
 10
60.98416418458417
 20
-30.60730488418427
 30
0.0
 10
60.64364018084465
 20
-31.80930300534202
 30
0.0
 10
60.5799037611267
 20
-33.06045402634796
 30
0.0
 10
60.57663092041283
 20
-33.12466845300821
 30
0.0
 10
60.58399696519422
 20
-33.19221385636621
 30
0.0
 10
60.60114923433864
 20
-33.25412868179095
 30
0.0
 10
60.64444547184246
 20
-33.41042189803531
 30
0.0
 10
60.71407085159256
 20
-33.56134076532382
 30
0.0
 10
60.7409964259874
 20
-33.71987114044817
 30
0.0
 10
60.80980574873301
 20
-34.1250380545481
 30
0.0
 10
60.8655732318822
 20
-34.53259500364033
 30
0.0
 10
60.91857171953513
 20
-34.94023592693489
 30
0.0
 10
61.10639832532608
 20
-36.38496255689898
 30
0.0
 10
61.2664057850735
 20
-37.83384483329092
 30
0.0
 10
61.48561290436591
 20
-39.27374832957708
 30
0.0
 10
61.62219156165366
 20
-40.17089425763582
 30
0.0
 10
61.73408395660485
 20
-41.07043883342505
 30
0.0
 10
61.74033895805477
 20
-41.97306246329952
 30
0.0
 10
61.75214271638462
 20
-43.6769205629175
 30
0.0
 10
61.71666469236395
 20
-45.38144614978359
 30
0.0
 10
61.67827986902775
 20
-47.08517936468797
 30
0.0
 10
61.65712052315218
 20
-48.02436407039841
 30
0.0
 10
61.60550438000221
 20
-48.96363490349463
 30
0.0
 10
61.5369276011416
 20
-49.90062336083108
 30
0.0
 10
61.50540713061692
 20
-50.33126890922458
 30
0.0
 10
61.41877805143632
 20
-50.76070006145709
 30
0.0
 10
61.32388720264554
 20
-51.18321949087193
 30
0.0
 10
61.17988221133329
 20
-51.82442496894954
 30
0.0
 10
60.98009466456132
 20
-52.45383099498763
 30
0.0
 10
60.85280269272182
 20
-53.09789159594938
 30
0.0
 10
60.68212620278974
 20
-53.96146076212122
 30
0.0
 10
60.51515749687342
 20
-54.82980138554032
 30
0.0
 10
60.42493905881417
 20
-55.70418384517008
 30
0.0
 10
60.31658865257128
 20
-56.75424894906935
 30
0.0
 10
60.27018536952216
 20
-57.81212580698426
 30
0.0
 10
60.23473749011619
 20
-58.86789685028425
 30
0.0
 10
60.19887189288213
 20
-59.93610899465535
 30
0.0
 10
60.20588481533123
 20
-61.00585420651931
 30
0.0
 10
60.20009920805269
 20
-62.07496207571792
 30
0.0
 10
60.19316380014639
 20
-63.35639117967241
 30
0.0
 10
60.1831493381502
 20
-64.63791933012199
 30
0.0
 10
60.19246186182627
 20
-65.91927522579819
 30
0.0
 10
60.19886758620456
 20
-66.8003670088898
 30
0.0
 10
60.25114691015364
 20
-67.68116165249793
 30
0.0
 10
60.25532193520529
 20
-68.56222329100399
 30
0.0
 10
60.26039053188998
 20
-69.63164121879671
 30
0.0
 10
60.23600356217576
 20
-70.70118833766887
 30
0.0
 10
60.22512782631777
 20
-71.77068808647867
 30
0.0
 10
60.21496264140668
 20
-72.76991650012816
 30
0.0
 10
60.20160428361776
 20
-73.76914060740815
 30
0.0
 10
60.19730868013974
 20
-74.76839916564339
 30
0.0
 10
60.19241879768429
 20
-75.90620223881794
 30
0.0
 10
60.20460797609696
 20
-77.04413450307391
 30
0.0
 10
60.19335973928654
 20
-78.18185144886101
 30
0.0
 10
60.18336465596452
 20
-79.19255633684574
 30
0.0
 10
60.18064303048575
 20
-80.20478567958299
 30
0.0
 10
60.1208921556182
 20
-81.21314790263557
 30
0.0
 10
60.06303823645364
 20
-82.18945351219788
 30
0.0
 10
60.06314158927455
 20
-83.16222789889046
 30
0.0
 10
60.11690230427812
 20
-84.13689708810236
 30
0.0
 10
60.14148090736068
 20
-84.5825029636431
 30
0.0
 10
60.21836897901714
 20
-85.0329061346494
 30
0.0
 10
60.17844893506211
 20
-85.47268979881717
 30
0.0
 10
60.10527726010389
 20
-86.2787990786688
 30
0.0
 10
59.96505541426425
 20
-87.0789311178505
 30
0.0
 10
59.84828605594039
 20
-87.88090628311783
 30
0.0
 10
59.816713908993
 20
-88.09773198021934
 30
0.0
 10
59.70207405034418
 20
-88.27064132261888
 30
0.0
 10
59.54411211596926
 20
-88.42374997871498
 30
0.0
 10
59.12773787560387
 20
-88.8273343020546
 30
0.0
 10
58.58731005319554
 20
-88.97194218502372
 30
0.0
 10
58.05525811918688
 20
-89.09252052698354
 30
0.0
 10
57.3580353885056
 20
-89.25054705686068
 30
0.0
 10
56.6346923744971
 20
-89.29602231723345
 30
0.0
 10
55.94041089408584
 20
-89.46370372720815
 30
0.0
 10
54.7590079843478
 20
-89.74903514798219
 30
0.0
 10
53.55155799956468
 20
-89.85213824306278
 30
0.0
 10
52.35427535283043
 20
-90.00187931827545
 30
0.0
 10
51.02860906965288
 20
-90.16767453844355
 30
0.0
 10
49.69653060250393
 20
-90.32134302250332
 30
0.0
 10
48.35063945565188
 20
-90.29726180500096
 30
0.0
 10
47.41154518369769
 20
-90.28044112625208
 30
0.0
 10
46.47104057577524
 20
-90.3541661695942
 30
0.0
 10
45.53093000065104
 20
-90.37815264686809
 30
0.0
 10
44.87350673556947
 20
-90.39493887459045
 30
0.0
 10
44.21445566287047
 20
-90.42481646515669
 30
0.0
 10
43.55833722770593
 20
-90.39696286812901
 30
0.0
 10
42.70180466905665
 20
-90.36060849798239
 30
0.0
 10
41.84566829639227
 20
-90.23375146943834
 30
0.0
 10
40.98920463964712
 20
-90.32167030618349
 30
0.0
 10
40.37021572107074
 20
-90.38521509238114
 30
0.0
 10
39.75306992858244
 20
-90.37065956392822
 30
0.0
 10
39.13528248705924
 20
-90.37328644920801
 30
0.0
 10
37.45471753929113
 20
-90.38041779678701
 30
0.0
 10
35.77409230235267
 20
-90.37371708599275
 30
0.0
 10
34.09349290363009
 20
-90.37166725410356
 30
0.0
 10
33.98775861681841
 20
-90.37153806301811
 30
0.0
 10
33.88201141089899
 20
-90.36482012681712
 30
0.0
 10
33.776307268673
 20
-90.36035011542033
 30
0.0
 10
33.31853159333262
 20
-90.34104896794362
 30
0.0
 10
32.86093247913611
 20
-90.31423751230914
 30
0.0
 10
32.40296301717429
 20
-90.30351465259075
 30
0.0
 10
31.53367929885952
 20
-90.28316275097257
 30
0.0
 10
30.66408121558115
 20
-90.27612614340492
 30
0.0
 10
29.79478888452767
 20
-90.25600678573205
 30
0.0
 10
28.37331664909892
 20
-90.22312334926148
 30
0.0
 10
26.95203820029161
 20
-90.18194584541026
 30
0.0
 10
25.53057888397093
 20
-90.14858870831046
 30
0.0
 10
24.53310316265021
 20
-90.12517928444342
 30
0.0
 10
23.53517957891172
 20
-90.20487295571117
 30
0.0
 10
22.5372646079208
 20
-90.08687843529656
 30
0.0
 10
21.92038150396589
 20
-90.01393715110745
 30
0.0
 10
21.29506222243831
 20
-90.01190454474304
 30
0.0
 10
20.67344211218931
 20
-89.97968428918934
 30
0.0
 10
20.1753114496089
 20
-89.95387191124377
 30
0.0
 10
19.78510701585331
 20
-89.68903019579768
 30
0.0
 10
19.42217481923442
 20
-89.38866954589988
 30
0.0
 10
19.16680711639978
 20
-89.17731293786831
 30
0.0
 10
19.14827250270293
 20
-88.86993290593476
 30
0.0
 10
19.34585303516343
 20
-88.6012585217877
 30
0.0
 10
19.49164947610812
 20
-88.40299327661812
 30
0.0
 10
19.64237240359679
 20
-88.20279016523834
 30
0.0
 10
19.82045369560621
 20
-88.03476424569195
 30
0.0
 10
20.90550805057844
 20
-87.01093354395668
 30
0.0
 10
21.98989491830041
 20
-85.98601763714356
 30
0.0
 10
23.09344943602747
 20
-84.98231490578168
 30
0.0
 10
23.6709852431983
 20
-84.45704119717158
 30
0.0
 10
24.23735463462801
 20
-83.92265521100252
 30
0.0
 10
24.5857442219749
 20
-83.21804705689739
 30
0.0
 10
24.89219838452379
 20
-82.59825715363732
 30
0.0
 10
25.1588229368948
 20
-81.95578990934372
 30
0.0
 10
25.39877814384094
 20
-81.30696646387869
 30
0.0
 10
25.62060784216313
 20
-80.70717533990665
 30
0.0
 10
25.70301021982918
 20
-80.07767888010681
 30
0.0
 10
25.61918243396328
 20
-79.43332544601931
 30
0.0
 10
25.59657830121852
 20
-79.25955482974234
 30
0.0
 10
25.60332207563891
 20
-79.08091801609369
 30
0.0
 10
25.60786098894862
 20
-78.9048047348879
 30
0.0
 10
25.64664845781069
 20
-77.40139090334281
 30
0.0
 10
25.69465586346515
 20
-75.89816655204973
 30
0.0
 10
25.72657467320349
 20
-74.39461491668492
 30
0.0
 10
25.75250332315416
 20
-73.17321660156172
 30
0.0
 10
25.75487613272449
 20
-71.95133166670015
 30
0.0
 10
25.77798411074667
 20
-70.72986014329778
 30
0.0
 10
25.78953809975772
 20
-70.11901026280871
 30
0.0
 10
25.83595214871015
 20
-69.50878049950846
 30
0.0
 10
25.84541754858328
 20
-68.89794353812733
 30
0.0
 10
25.85961134202364
 20
-67.98169455560965
 30
0.0
 10
25.86721639034853
 20
-67.06497617883177
 30
0.0
 10
25.8540173683118
 20
-66.14880040459192
 30
0.0
 10
25.84641232005179
 20
-65.62090842338669
 30
0.0
 10
25.78740214078249
 20
-65.09393800522154
 30
0.0
 10
25.76028923933725
 20
-64.56610631318648
 30
0.0
 10
25.71270816435818
 20
-63.63978473274103
 30
0.0
 10
25.76704162657183
 20
-62.70675813521197
 30
0.0
 10
25.59213843519625
 20
-61.78896316608674
 30
0.0
 10
25.46010945712453
 20
-61.09614585125838
 30
0.0
 10
25.30515767496712
 20
-60.41877117694163
 30
0.0
 10
24.86104610962065
 20
-59.83013785594252
 30
0.0
 10
24.40178043050932
 20
-59.22141532189442
 30
0.0
 10
23.99016903469933
 20
-58.57571399418363
 30
0.0
 10
23.57512546251202
 20
-57.93490470206171
 30
0.0
 10
23.08206770306656
 20
-57.17364625903327
 30
0.0
 10
22.50488932460719
 20
-56.47707379010596
 30
0.0
 10
21.96171834495774
 20
-55.75387073307922
 30
0.0
 10
21.30306776464959
 20
-54.87690014543254
 30
0.0
 10
20.56696713146148
 20
-54.05016335632666
 30
0.0
 10
20.19692942543911
 20
-52.97302410826119
 30
0.0
 10
20.00208774392693
 20
-52.40585803851578
 30
0.0
 10
19.83449676770332
 20
-51.83333915166135
 30
0.0
 10
19.66691871058779
 20
-51.25962740049519
 30
0.0
 10
19.61476857768784
 20
-51.08108532696977
 30
0.0
 10
19.58709584821104
 20
-50.89227256253004
 30
0.0
 10
19.57313459876541
 20
-50.70629338912755
 30
0.0
 10
19.53709890001126
 20
-50.2261676568241
 30
0.0
 10
19.51495554880144
 20
-49.74499547676762
 30
0.0
 10
19.4872957384458
 20
-49.26424101453847
 30
0.0
 10
19.43468051768839
 20
-48.34963706511199
 30
0.0
 10
19.36902991688867
 20
-47.43554557363835
 30
0.0
 10
19.33329135763963
 20
-46.52028705607042
 30
0.0
 10
19.29981794866957
 20
-45.66323773309524
 30
0.0
 10
19.30298313018514
 20
-44.80483190377438
 30
0.0
 10
19.28102064650518
 20
-43.94725289736888
 30
0.0
 10
19.25546665078813
 20
-42.94909246331823
 30
0.0
 10
19.19966902308001
 20
-41.95129376429217
 30
0.0
 10
19.19444539709529
 20
-40.9531376366118
 30
0.0
 10
19.18854567112743
 20
-39.82542008046983
 30
0.0
 10
19.23076100998044
 20
-38.69753026955578
 30
0.0
 10
19.23982591752663
 20
-37.56961892679347
 30
0.0
 10
19.24690128241899
 20
-36.68934966024953
 30
0.0
 10
19.20506059779022
 20
-35.80770450869397
 30
0.0
 10
19.24065704693103
 20
-34.92892739913337
 30
0.0
 10
19.27484531329064
 20
-34.0849780517439
 30
0.0
 10
19.37769863904057
 20
-33.24365343648033
 30
0.0
 10
19.45682386963584
 20
-32.40177975912275
 30
0.0
 10
19.48003520047882
 20
-32.15485684658785
 30
0.0
 10
19.55436744194449
 20
-32.10899831931315
 30
0.0
 10
19.80456750156018
 20
-32.12093126881142
 30
0.0
 10
19.96662479318602
 20
-32.12865904862905
 30
0.0
 10
20.13004289752884
 20
-32.1289066648744
 30
0.0
 10
20.29182027514733
 20
-32.11770579818523
 30
0.0
 10
20.87800757833374
 20
-32.07711180747191
 30
0.0
 10
21.46343265414578
 20
-31.99798873012542
 30
0.0
 10
22.0497405356727
 20
-31.99203517451628
 30
0.0
 10
23.60137278490572
 20
-31.9762760159256
 30
0.0
 10
25.15331509273101
 20
-31.99128371320291
 30
0.0
 10
26.70513682221489
 20
-31.99374265017516
 30
0.0
 10
26.96357927277962
 20
-31.99415390846033
 30
0.0
 10
27.22237053926191
 20
-32.00125511154091
 30
0.0
 10
27.48037374015278
 20
-31.99038798848121
 30
0.0
 10
27.74782511541195
 20
-31.97912252625644
 30
0.0
 10
27.93045823983005
 20
-31.83924734319416
 30
0.0
 10
27.96807006980207
 20
-31.57626382614463
 30
0.0
 10
28.00761976598512
 20
-31.29968294785183
 30
0.0
 10
27.98399933007721
 20
-31.01453454772132
 30
0.0
 10
28.01491906206978
 20
-30.73612130926691
 30
0.0
 10
28.0435391928251
 20
-30.47843032015619
 30
0.0
 10
27.98700086955332
 20
-30.24362768417177
 30
0.0
 10
27.87747267134853
 20
-30.02080752091961
 30
0.0
 10
27.79712873827046
 20
-29.85735711880299
 30
0.0
 10
27.76331081972044
 20
-29.70000884206673
 30
0.0
 10
27.77353844695062
 20
-29.51471438139301
 30
0.0
 10
27.79248647213489
 20
-29.17146229272102
 30
0.0
 10
27.77792663735684
 20
-28.8045725426493
 30
0.0
 10
27.52706339687108
 20
-28.54951920475692
 30
0.0
 10
27.1436242693803
 20
-28.15967219962886
 30
0.0
 10
26.7562362011896
 20
-27.76863663655818
 30
0.0
 10
26.17353275081991
 20
-27.64628191718867
 30
0.0
 10
25.83388078693233
 20
-27.57495982789005
 30
0.0
 10
25.51339216668569
 20
-27.40852726498326
 30
0.0
 10
25.18752058474188
 20
-27.27685571552238
 30
0.0
 10
24.9788296193573
 20
-27.19253054395748
 30
0.0
 10
24.85569329398269
 20
-27.03826562767648
 30
0.0
 10
24.79701901150967
 20
-26.81200036894135
 30
0.0
 10
24.71208018233552
 20
-26.48444930293869
 30
0.0
 10
24.59576514602909
 20
-26.16510833011294
 30
0.0
 10
24.49708038586867
 20
-25.84097436819411
 30
0.0
 10
24.48048363837092
 20
-25.78645788532393
 30
0.0
 10
24.4816808090548
 20
-25.72546892931169
 30
0.0
 10
24.48090566257326
 20
-25.66738461943034
 30
0.0
 10
24.47855438491246
 20
-25.4916847496825
 30
0.0
 10
24.46905453411978
 20
-25.31527863535984
 30
0.0
 10
24.480496557508
 20
-25.14033453343468
 30
0.0
 10
24.54867930357729
 20
-24.09788955011005
 30
0.0
 10
24.62356276036533
 20
-23.05588381646007
 30
0.0
 10
24.69245175100904
 20
-22.01348189682901
 30
0.0
 10
24.71019399277014
 20
-21.74504005661914
 30
0.0
 10
24.70528903808514
 20
-21.47497040879147
 30
0.0
 10
24.72679935303317
 20
-21.20693336730128
 30
0.0
 10
24.7793456719514
 20
-20.55213052797626
 30
0.0
 10
24.85962931589505
 20
-19.89905238957975
 30
0.0
 10
24.89428697650612
 20
-19.24345717829227
 30
0.0
 10
24.92944417596293
 20
-18.57840948626722
 30
0.0
 10
25.00872874221669
 20
-17.90894776565364
 30
0.0
 10
24.83050964642501
 20
-17.24773381893864
 30
0.0
 10
24.80439151628182
 20
-17.1508286658991
 30
0.0
 10
24.83614668392219
 20
-17.03836029400751
 30
0.0
 10
24.8409482857595
 20
-16.9330835589402
 30
0.0
 10
24.85265299768212
 20
-16.67651437904608
 30
0.0
 10
24.87715193296315
 20
-16.41976002527022
 30
0.0
 10
24.87355180819255
 20
-16.16340078088156
 30
0.0
 10
24.86070590844307
 20
-15.24752322271966
 30
0.0
 10
24.80229862090114
 20
-14.33066919530413
 30
0.0
 10
24.8304751956422
 20
-13.41632147485797
 30
0.0
 10
24.85476311884863
 20
-12.62817406159038
 30
0.0
 10
25.22476206762219
 20
-12.02434248657621
 30
0.0
 10
26.0168368897563
 20
-11.75132728214443
 30
0.0
 10
26.27226057540606
 20
-11.66328786703035
 30
0.0
 10
26.52836036104473
 20
-11.57621630842917
 30
0.0
 10
26.77943892001417
 20
-11.47679408251314
 30
0.0
 10
27.36686645758394
 20
-11.24418231196778
 30
0.0
 10
27.96445272045986
 20
-11.14365765551203
 30
0.0
 10
28.60235951961384
 20
-11.20988208009824
 30
0.0
 10
29.32623437023242
 20
-11.28503145517977
 30
0.0
 10
30.05552232713387
 20
-11.32467158513968
 30
0.0
 10
30.78333750571634
 20
-11.3415450169037
 30
0.0
 10
32.05184750160012
 20
-11.37095751966597
 30
0.0
 10
33.32100775925783
 20
-11.37676465880027
 30
0.0
 10
34.58993977933965
 20
-11.38213793122191
 30
0.0
 10
36.35340233722095
 20
-11.389604099173
 30
0.0
 10
38.1169036524269
 20
-11.38764470119495
 30
0.0
 10
39.88038774215517
 20
-11.38945552958857
 30
0.0
 10
40.14849799192538
 20
-11.38973113723942
 30
0.0
 10
40.40324988395269
 20
-11.3647520417981
 30
0.0
 10
40.47748738530497
 20
-11.04078710488428
 30
0.0
 10
40.53854739641199
 20
-11.03409393031457
 30
0.0
 10
40.58486670521162
 20
-11.02388998812628
 30
0.0
 10
40.63099653375906
 20
-11.02471465786015
 30
0.0
 10
41.6173187584466
 20
-11.04236538930464
 30
0.0
 10
42.60358069396295
 20
-11.06398444011119
 30
0.0
 10
43.58993736960542
 20
-11.07925051952448
 30
0.0
 10
45.02365261311538
 20
-11.10144016429087
 30
0.0
 10
46.45747551585952
 20
-11.11707228511959
 30
0.0
 10
47.89109386605871
 20
-11.14393434063785
 30
0.0
 10
47.98226831807578
 20
-11.14564396927648
 30
0.0
 10
48.10270885623787
 20
-11.19576257244591
 30
0.0
 10
48.1572382582122
 20
-11.2647183117703
 30
0.0
 10
48.39741308995279
 20
-11.56843147020667
 30
0.0
 10
48.64827633043643
 20
-11.87014216689272
 30
0.0
 10
48.84034255690878
 20
-12.20416139967375
 30
0.0
 10
49.29097181226768
 20
-12.98785387386331
 30
0.0
 10
49.7082977602067
 20
-13.79064617274005
 30
0.0
 10
50.14258865022636
 20
-14.58379974040521
 30
0.0
 10
50.53575801926361
 20
-15.30184807330544
 30
0.0
 10
50.76290393049436
 20
-16.08583661037819
 30
0.0
 10
50.93137125287245
 20
-16.87213982097748
 30
0.0
 10
51.07535040590954
 20
-17.54414660589083
 30
0.0
 10
51.08973367952883
 20
-18.24847915237338
 30
0.0
 10
51.11466109851822
 20
-18.94020049619571
 30
0.0
 10
51.14160389836399
 20
-19.68788095662196
 30
0.0
 10
51.13478691563887
 20
-20.43829596158815
 30
0.0
 10
51.1062852100189
 20
-21.18613145130876
 30
0.0
 10
51.04991052870573
 20
-22.66541884853297
 30
0.0
 10
50.99777977439338
 20
-24.14606490528937
 30
0.0
 10
50.88149272940723
 20
-25.62122895385199
 30
0.0
 10
50.84071787113138
 20
-26.13850788777574
 30
0.0
 10
50.70819150726365
 20
-28.46006084196915
 30
0.0
 10
50.71746527364657
 20
-29.04759173239343
 30
0.0
 10
50.71968951341295
 20
-29.18847245270879
 30
0.0
 10
50.7307590358377
 20
-29.32940915582616
 30
0.0
 10
50.72803310402864
 20
-29.4701326936598
 30
0.0
 10
50.71962061147115
 20
-29.90422118435493
 30
0.0
 10
50.69600663508494
 20
-30.33828814320261
 30
0.0
 10
50.69869380954393
 20
-30.77223667689416
 30
0.0
 10
50.70067689261826
 20
-31.09253581689662
 30
0.0
 10
50.8104333283958
 20
-31.38513423601786
 30
0.0
 10
51.02480870132058
 20
-31.70265361461022
 30
0.0
 10
51.08477489461616
 20
-31.58119892646511
 30
0.0
 10
51.13420340209412
 20
-31.50756862320882
 30
0.0
 10
51.1590188555149
 20
-31.42641078631617
 30
0.0
 10
51.29259812660575
 20
-30.98949947051343
 30
0.0
 10
51.41460618323564
 20
-30.54900956177484
 30
0.0
 10
51.5511202450429
 20
-30.11304564723067
 30
0.0
 10
51.69844114075202
 20
-29.64257479503288
 30
0.0
 10
51.88547106829754
 20
-29.18273206240882
 30
0.0
 10
52.00418905874069
 20
-28.70556695904494
 30
0.0
 10
52.15690368207536
 20
-28.09174353052145
 30
0.0
 10
52.25866318999904
 20
-27.46525291653332
 30
0.0
 10
52.38277490806769
 20
-26.84430029353876
 30
0.0
 10
52.5232120723708
 20
-26.14166660977434
 30
0.0
 10
52.65499558745195
 20
-25.43714242986198
 30
0.0
 10
52.80734201621044
 20
-24.73709687408137
 30
0.0
 10
52.96222059015115
 20
-24.02541550829945
 30
0.0
 10
53.15655627332099
 20
-23.32196146117501
 30
0.0
 10
53.29854373059297
 20
-22.60793097090852
 30
0.0
 10
53.43796889809722
 20
-21.90676575909462
 30
0.0
 10
53.50827253105986
 20
-21.19161991916154
 30
0.0
 10
53.65395485323906
 20
-20.49198992802354
 30
0.0
 10
53.86444157469455
 20
-19.48115369578243
 30
0.0
 10
54.10550136539662
 20
-18.47630116376367
 30
0.0
 10
54.35234891651379
 20
-17.47353506769839
 30
0.0
 10
54.56844899041953
 20
-16.59568705733458
 30
0.0
 10
54.81980961661647
 20
-15.72654329603427
 30
0.0
 10
55.03817699398837
 20
-14.84921958613972
 30
0.0
 10
55.21117461699611
 20
-14.15417480177535
 30
0.0
 10
55.3482592727552
 20
-13.45023305831871
 30
0.0
 10
55.51837593466334
 20
-12.75441958702407
 30
0.0
 10
55.76383468166309
 20
-11.75044124798485
 30
0.0
 10
56.0235388984942
 20
-10.74993168946302
 30
0.0
 10
56.27969466697564
 20
-9.748588848470504
 30
0.0
 10
56.38086420228708
 20
-9.353112342022821
 30
0.0
 10
56.48882703525848
 20
-8.95937507049931
 30
0.0
 10
56.59685877014011
 20
-8.55294746677818
 30
0.0
 10
56.72718457916185
 20
-8.565813283532918
 30
0.0
 10
56.82040455662329
 20
-8.567220928020548
 30
0.0
 10
56.91034738700368
 20
-8.585100973593037
 30
0.0
  0
INSERT
  5
7D
330
70
100
AcDbEntity
  8
Слой 1
100
AcDbBlockReference
  2
Block_0
 10
0.0
 20
0.0
 30
0.0
  0
ENDSEC
  0
SECTION
  2
OBJECTS
  0
DICTIONARY
  5
C
330
0
100
AcDbDictionary
281
     1
  3
ACAD_COLOR
350
63
  3
ACAD_DETAILVIEWSTYLE
350
6A
  3
ACAD_GROUP
350
D
  3
ACAD_LAYOUT
350
62
  3
ACAD_MATERIAL
350
10
  3
ACAD_MLEADERSTYLE
350
66
  3
ACAD_MLINESTYLE
350
5F
  3
ACAD_PLOTSETTINGS
350
61
  3
ACAD_PLOTSTYLENAME
350
E
  3
ACAD_SCALELIST
350
42
  3
ACAD_SECTIONVIEWSTYLE
350
68
  3
ACAD_TABLESTYLE
350
64
  3
ACAD_VISUALSTYLE
350
29
  3
ACDB_RECOMPOSE_DATA
350
97
  3
AcDbVariableDictionary
350
8F
  0
DICTIONARY
  5
63
102
{ACAD_REACTORS
330
C
102
}
330
C
100
AcDbDictionary
281
     1
  0
DICTIONARY
  5
6A
102
{ACAD_REACTORS
330
C
102
}
330
C
100
AcDbDictionary
281
     1
  3
Imperial24
350
6B
  0
DICTIONARY
  5
D
102
{ACAD_REACTORS
330
C
102
}
330
C
100
AcDbDictionary
281
     1
  0
DICTIONARY
  5
62
102
{ACAD_REACTORS
330
C
102
}
330
C
100
AcDbDictionary
281
     1
  3
Layout1
350
6F
  3
Layout2
350
77
  3
Model
350
73
  0
DICTIONARY
  5
10
102
{ACAD_REACTORS
330
C
102
}
330
C
100
AcDbDictionary
281
     1
  3
ByBlock
350
19
  3
ByLayer
350
11
  3
Global
350
21
  0
DICTIONARY
  5
66
102
{ACAD_REACTORS
330
C
102
}
330
C
100
AcDbDictionary
281
     1
  3
Standard
350
67
  0
DICTIONARY
  5
5F
102
{ACAD_REACTORS
330
C
102
}
330
C
100
AcDbDictionary
281
     1
  3
Standard
350
60
  0
DICTIONARY
  5
61
102
{ACAD_REACTORS
330
C
102
}
330
C
100
AcDbDictionary
281
     1
  0
ACDBDICTIONARYWDFLT
  5
E
102
{ACAD_REACTORS
330
C
102
}
330
C
100
AcDbDictionary
281
     1
  3
Normal
350
F
100
AcDbDictionaryWithDefault
340
F
  0
DICTIONARY
  5
42
102
{ACAD_REACTORS
330
C
102
}
330
C
100
AcDbDictionary
281
     1
  3
A0
350
43
  3
A1
350
44
  3
A2
350
45
  3
A3
350
46
  3
A4
350
47
  3
A5
350
48
  3
A6
350
49
  3
A7
350
4A
  3
A8
350
4B
  3
A9
350
4C
  3
B0
350
4D
  3
B1
350
4E
  3
B2
350
4F
  3
B3
350
50
  3
B4
350
51
  3
B5
350
52
  3
B6
350
53
  0
DICTIONARY
  5
68
102
{ACAD_REACTORS
330
C
102
}
330
C
100
AcDbDictionary
281
     1
  3
Imperial24
350
69
  0
DICTIONARY
  5
64
102
{ACAD_REACTORS
330
C
102
}
330
C
100
AcDbDictionary
281
     1
  3
Standard
350
65
  0
DICTIONARY
  5
29
102
{ACAD_REACTORS
330
C
102
}
330
C
100
AcDbDictionary
281
     1
  3
2dWireframe
350
2F
  3
Basic
350
2E
  3
Brighten
350
35
  3
ColorChange
350
39
  3
Conceptual
350
32
  3
Dim
350
34
  3
EdgeColorOff
350
41
  3
Facepattern
350
38
  3
Flat
350
2A
  3
FlatWithEdges
350
2B
  3
Gouraud
350
2C
  3
GouraudWithEdges
350
2D
  3
Hidden
350
31
  3
JitterOff
350
3F
  3
Linepattern
350
37
  3
OverhangOff
350
40
  3
Realistic
350
33
  3
Shaded
350
3E
  3
Shaded with edges
350
3D
  3
Shades of Gray
350
3A
  3
Sketchy
350
3B
  3
Thicken
350
36
  3
Wireframe
350
30
  3
X-Ray
350
3C
  0
XRECORD
  5
97
102
{ACAD_REACTORS
330
C
102
}
330
C
100
AcDbXrecord
280
     1
 90
        1
330
65
  0
DICTIONARY
  5
8F
102
{ACAD_REACTORS
330
C
102
}
330
C
100
AcDbDictionary
281
     1
  3
CANNOSCALE
350
94
  3
CMLEADERSTYLE
350
91
  3
CTABLESTYLE
350
90
  3
CVIEWDETAILSTYLE
350
92
  3
CVIEWSECTIONSTYLE
350
93
  0
ACDBDETAILVIEWSTYLE
  5
6B
102
{ACAD_REACTORS
330
6A
102
}
330
6A
100
AcDbModelDocViewStyle
 70
     0
  3
Imperial24
290
     1
300
Imperial24
 90
        0
100
AcDbDetailViewStyle
 70
     0
 71
     0
 90
        3
 71
     1
340
55
 62
   256
 40
0.24
340
0
 62
   256
 40
0.24
300

 40
0.36
280
     3
 71
     2
340
5D
 90
       25
 62
   256
 71
     3
340
55
 62
   256
 40
0.24
 90
        1
 40
0.75
 90
        1
300
%<\AcVar ViewType \f "%tc1">% %<\AcVar ViewDetailId>%\PSCALE %<\AcVar ViewScale \f "%sn">%
 71
     4
340
5D
 90
       25
 62
   256
340
5D
 90
       25
 62
   256
280
     0
  0
LAYOUT
  5
6F
102
{ACAD_REACTORS
330
62
102
}
330
62
100
AcDbPlotSettings
  1

  2

  4

  6

 40
0.0
 41
0.0
 42
0.0
 43
0.0
 44
0.0
 45
0.0
 46
0.0
 47
0.0
 48
0.0
 49
0.0
140
0.0
141
0.0
142
1.0
143
1.0
 70
   688
 72
     0
 73
     0
 74
     5
  7

 75
    16
147
1.0
 76
     0
 77
     2
 78
   300
148
0.0
149
0.0
100
AcDbLayout
  1
Layout1
 70
     1
 71
     1
 10
0.0
 20
0.0
 11
12.0
 21
9.0
 12
0.0
 22
0.0
 32
0.0
 14
0.0
 24
0.0
 34
0.0
 15
0.0
 25
0.0
 35
0.0
146
0.0
 13
0.0
 23
0.0
 33
0.0
 16
1.0
 26
0.0
 36
0.0
 17
0.0
 27
1.0
 37
0.0
 76
     0
330
6C
  0
LAYOUT
  5
77
102
{ACAD_REACTORS
330
62
102
}
330
62
100
AcDbPlotSettings
  1

  2

  4

  6

 40
0.0
 41
0.0
 42
0.0
 43
0.0
 44
0.0
 45
0.0
 46
0.0
 47
0.0
 48
0.0
 49
0.0
140
0.0
141
0.0
142
1.0
143
1.0
 70
   688
 72
     0
 73
     0
 74
     5
  7

 75
    16
147
1.0
 76
     0
 77
     2
 78
   300
148
0.0
149
0.0
100
AcDbLayout
  1
Layout2
 70
     1
 71
     2
 10
0.0
 20
0.0
 11
12.0
 21
9.0
 12
0.0
 22
0.0
 32
0.0
 14
0.0
 24
0.0
 34
0.0
 15
0.0
 25
0.0
 35
0.0
146
0.0
 13
0.0
 23
0.0
 33
0.0
 16
1.0
 26
0.0
 36
0.0
 17
0.0
 27
1.0
 37
0.0
 76
     0
330
74
  0
LAYOUT
  5
73
102
{ACAD_REACTORS
330
62
102
}
330
62
100
AcDbPlotSettings
  1

  2

  4

  6

 40
0.0
 41
0.0
 42
0.0
 43
0.0
 44
0.0
 45
0.0
 46
0.0
 47
0.0
 48
0.0
 49
0.0
140
0.0
141
0.0
142
1.0
143
1.0
 70
  1712
 72
     0
 73
     0
 74
     0
  7

 75
     0
147
1.0
 76
     0
 77
     2
 78
   300
148
0.0
149
0.0
100
AcDbLayout
  1
Model
 70
     1
 71
     0
 10
0.0
 20
0.0
 11
12.0
 21
9.0
 12
0.0
 22
0.0
 32
0.0
 14
0.0
 24
0.0
 34
0.0
 15
0.0
 25
0.0
 35
0.0
146
0.0
 13
0.0
 23
0.0
 33
0.0
 16
1.0
 26
0.0
 36
0.0
 17
0.0
 27
1.0
 37
0.0
 76
     0
330
70
  0
MATERIAL
  5
19
102
{ACAD_XDICTIONARY
360
1A
102
}
102
{ACAD_REACTORS
330
10
102
}
330
10
100
AcDbMaterial
  1
ByBlock
 72
     0
 43
0.0208333333333333
 43
0.0
 43
0.0
 43
0.0
 43
0.0
 43
0.0208333333333333
 43
0.0
 43
0.0
 43
0.0
 43
0.0
 43
1.0
 43
0.0
 43
0.0
 43
0.0
 43
0.0
 43
1.0
 77
     0
 47
0.0208333333333333
 47
0.0
 47
0.0
 47
0.0
 47
0.0
 47
0.0208333333333333
 47
0.0
 47
0.0
 47
0.0
 47
0.0
 47
1.0
 47
0.0
 47
0.0
 47
0.0
 47
0.0
 47
1.0
171
     0
 49
0.0208333333333333
 49
0.0
 49
0.0
 49
0.0
 49
0.0
 49
0.0208333333333333
 49
0.0
 49
0.0
 49
0.0
 49
0.0
 49
1.0
 49
0.0
 49
0.0
 49
0.0
 49
0.0
 49
1.0
175
     0
142
0.0208333333333333
142
0.0
142
0.0
142
0.0
142
0.0
142
0.0208333333333333
142
0.0
142
0.0
142
0.0
142
0.0
142
1.0
142
0.0
142
0.0
142
0.0
142
0.0
142
1.0
179
     0
144
0.0208333333333333
144
0.0
144
0.0
144
0.0
144
0.0
144
0.0208333333333333
144
0.0
144
0.0
144
0.0
144
0.0
144
1.0
144
0.0
144
0.0
144
0.0
144
0.0
144
1.0
147
0.0208333333333333
147
0.0
147
0.0
147
0.0
147
0.0
147
0.0208333333333333
147
0.0
147
0.0
147
0.0
147
0.0
147
1.0
147
0.0
147
0.0
147
0.0
147
0.0
147
1.0
  0
MATERIAL
  5
11
102
{ACAD_XDICTIONARY
360
12
102
}
102
{ACAD_REACTORS
330
10
102
}
330
10
100
AcDbMaterial
  1
ByLayer
 72
     0
 43
0.0208333333333333
 43
0.0
 43
0.0
 43
0.0
 43
0.0
 43
0.0208333333333333
 43
0.0
 43
0.0
 43
0.0
 43
0.0
 43
1.0
 43
0.0
 43
0.0
 43
0.0
 43
0.0
 43
1.0
 77
     0
 47
0.0208333333333333
 47
0.0
 47
0.0
 47
0.0
 47
0.0
 47
0.0208333333333333
 47
0.0
 47
0.0
 47
0.0
 47
0.0
 47
1.0
 47
0.0
 47
0.0
 47
0.0
 47
0.0
 47
1.0
171
     0
 49
0.0208333333333333
 49
0.0
 49
0.0
 49
0.0
 49
0.0
 49
0.0208333333333333
 49
0.0
 49
0.0
 49
0.0
 49
0.0
 49
1.0
 49
0.0
 49
0.0
 49
0.0
 49
0.0
 49
1.0
175
     0
142
0.0208333333333333
142
0.0
142
0.0
142
0.0
142
0.0
142
0.0208333333333333
142
0.0
142
0.0
142
0.0
142
0.0
142
1.0
142
0.0
142
0.0
142
0.0
142
0.0
142
1.0
179
     0
144
0.0208333333333333
144
0.0
144
0.0
144
0.0
144
0.0
144
0.0208333333333333
144
0.0
144
0.0
144
0.0
144
0.0
144
1.0
144
0.0
144
0.0
144
0.0
144
0.0
144
1.0
147
0.0208333333333333
147
0.0
147
0.0
147
0.0
147
0.0
147
0.0208333333333333
147
0.0
147
0.0
147
0.0
147
0.0
147
1.0
147
0.0
147
0.0
147
0.0
147
0.0
147
1.0
  0
MATERIAL
  5
21
102
{ACAD_XDICTIONARY
360
22
102
}
102
{ACAD_REACTORS
330
10
102
}
330
10
100
AcDbMaterial
  1
Global
 72
     0
 43
0.0208333333333333
 43
0.0
 43
0.0
 43
0.0
 43
0.0
 43
0.0208333333333333
 43
0.0
 43
0.0
 43
0.0
 43
0.0
 43
1.0
 43
0.0
 43
0.0
 43
0.0
 43
0.0
 43
1.0
 77
     0
 47
0.0208333333333333
 47
0.0
 47
0.0
 47
0.0
 47
0.0
 47
0.0208333333333333
 47
0.0
 47
0.0
 47
0.0
 47
0.0
 47
1.0
 47
0.0
 47
0.0
 47
0.0
 47
0.0
 47
1.0
171
     0
 49
0.0208333333333333
 49
0.0
 49
0.0
 49
0.0
 49
0.0
 49
0.0208333333333333
 49
0.0
 49
0.0
 49
0.0
 49
0.0
 49
1.0
 49
0.0
 49
0.0
 49
0.0
 49
0.0
 49
1.0
175
     0
142
0.0208333333333333
142
0.0
142
0.0
142
0.0
142
0.0
142
0.0208333333333333
142
0.0
142
0.0
142
0.0
142
0.0
142
1.0
142
0.0
142
0.0
142
0.0
142
0.0
142
1.0
179
     0
144
0.0208333333333333
144
0.0
144
0.0
144
0.0
144
0.0
144
0.0208333333333333
144
0.0
144
0.0
144
0.0
144
0.0
144
1.0
144
0.0
144
0.0
144
0.0
144
0.0
144
1.0
147
0.0208333333333333
147
0.0
147
0.0
147
0.0
147
0.0
147
0.0208333333333333
147
0.0
147
0.0
147
0.0
147
0.0
147
1.0
147
0.0
147
0.0
147
0.0
147
0.0
147
1.0
  0
MLEADERSTYLE
  5
67
102
{ACAD_REACTORS
330
66
102
}
330
66
100
AcDbMLeaderStyle
179
     2
170
     2
171
     1
172
     0
 90
        2
 40
0.0
 41
0.0
173
     1
 91
-1056964608
340
5B
 92
       -2
290
     1
 42
0.09
291
     1
 43
0.36
  3
Standard
 44
0.18
300

342
55
174
     1
178
     6
175
     1
176
     0
 93
-1056964608
 45
0.18
292
     0
297
     0
 46
0.18
 94
-1056964608
 47
1.0
 49
1.0
140
1.0
293
     1
141
0.0
294
     1
177
     0
142
1.0
295
     1
296
     0
143
0.125
271
     0
272
     9
273
     9
298
     1
  0
MLINESTYLE
  5
60
102
{ACAD_REACTORS
330
5F
102
}
330
5F
100
AcDbMlineStyle
  2
STANDARD
 70
     0
  3

 62
   256
 51
90.0
 52
90.0
 71
     2
 49
0.5
 62
   256
  6
BYLAYER
 49
-0.5
 62
   256
  6
BYLAYER
  0
ACDBPLACEHOLDER
  5
F
102
{ACAD_REACTORS
330
E
102
}
330
E
  0
SCALE
  5
43
102
{ACAD_REACTORS
330
42
102
}
330
42
100
AcDbScale
 70
     0
300
1:1
140
1.0
141
1.0
290
     1
  0
SCALE
  5
44
102
{ACAD_REACTORS
330
42
102
}
330
42
100
AcDbScale
 70
     0
300
1/128" = 1'-0"
140
0.0078125
141
12.0
290
     0
  0
SCALE
  5
45
102
{ACAD_REACTORS
330
42
102
}
330
42
100
AcDbScale
 70
     0
300
1/64" = 1'-0"
140
0.015625
141
12.0
290
     0
  0
SCALE
  5
46
102
{ACAD_REACTORS
330
42
102
}
330
42
100
AcDbScale
 70
     0
300
1/32" = 1'-0"
140
0.03125
141
12.0
290
     0
  0
SCALE
  5
47
102
{ACAD_REACTORS
330
42
102
}
330
42
100
AcDbScale
 70
     0
300
1/16" = 1'-0"
140
0.0625
141
12.0
290
     0
  0
SCALE
  5
48
102
{ACAD_REACTORS
330
42
102
}
330
42
100
AcDbScale
 70
     0
300
3/32" = 1'-0"
140
0.09375
141
12.0
290
     0
  0
SCALE
  5
49
102
{ACAD_REACTORS
330
42
102
}
330
42
100
AcDbScale
 70
     0
300
1/8" = 1'-0"
140
0.125
141
12.0
290
     0
  0
SCALE
  5
4A
102
{ACAD_REACTORS
330
42
102
}
330
42
100
AcDbScale
 70
     0
300
3/16" = 1'-0"
140
0.1875
141
12.0
290
     0
  0
SCALE
  5
4B
102
{ACAD_REACTORS
330
42
102
}
330
42
100
AcDbScale
 70
     0
300
1/4" = 1'-0"
140
0.25
141
12.0
290
     0
  0
SCALE
  5
4C
102
{ACAD_REACTORS
330
42
102
}
330
42
100
AcDbScale
 70
     0
300
3/8" = 1'-0"
140
0.375
141
12.0
290
     0
  0
SCALE
  5
4D
102
{ACAD_REACTORS
330
42
102
}
330
42
100
AcDbScale
 70
     0
300
1/2" = 1'-0"
140
0.5
141
12.0
290
     0
  0
SCALE
  5
4E
102
{ACAD_REACTORS
330
42
102
}
330
42
100
AcDbScale
 70
     0
300
3/4" = 1'-0"
140
0.75
141
12.0
290
     0
  0
SCALE
  5
4F
102
{ACAD_REACTORS
330
42
102
}
330
42
100
AcDbScale
 70
     0
300
1" = 1'-0"
140
1.0
141
12.0
290
     0
  0
SCALE
  5
50
102
{ACAD_REACTORS
330
42
102
}
330
42
100
AcDbScale
 70
     0
300
1-1/2" = 1'-0"
140
1.5
141
12.0
290
     0
  0
SCALE
  5
51
102
{ACAD_REACTORS
330
42
102
}
330
42
100
AcDbScale
 70
     0
300
3" = 1'-0"
140
3.0
141
12.0
290
     0
  0
SCALE
  5
52
102
{ACAD_REACTORS
330
42
102
}
330
42
100
AcDbScale
 70
     0
300
6" = 1'-0"
140
6.0
141
12.0
290
     0
  0
SCALE
  5
53
102
{ACAD_REACTORS
330
42
102
}
330
42
100
AcDbScale
 70
     0
300
1'-0" = 1'-0"
140
12.0
141
12.0
290
     0
  0
ACDBSECTIONVIEWSTYLE
  5
69
102
{ACAD_REACTORS
330
68
102
}
330
68
100
AcDbModelDocViewStyle
 70
     0
  3
Imperial24
290
     1
300
Imperial24
 90
        0
100
AcDbSectionViewStyle
 70
     0
 71
     0
 90
       78
 71
     1
340
55
 62
   256
 40
0.24
340
0
340
0
 62
   256
 40
0.24
300
I, O, Q, S, X, Z
 40
0.48
 90
        3
 40
0.18
 90
        1
 71
     2
340
5D
 90
       25
 62
   256
340
5D
 90
       50
 62
   256
 40
0.24
 40
0.0
 40
0.24
 71
     3
340
55
 62
   256
 40
0.24
 90
        1
 40
0.75
 90
        1
300
%<\AcVar ViewType \f "%tc1">% %<\AcVar ViewSectionStartId>%-%<\AcVar ViewSectionEndId>%\PSCALE %<\AcVar ViewScale \f "%sn">%
 71
     4
 62
   256
 62
   257
300
ANSI31
 40
1.0
 90
        0
290
     0
290
     0
 90
        6
 40
0.0
 40
1.570796326794896
 40
0.2617993877991494
 40
1.308996938995747
 40
-0.2617993877991494
 40
1.832595714594046
  0
TABLESTYLE
  5
65
102
{ACAD_XDICTIONARY
360
95
102
}
102
{ACAD_REACTORS
330
64
102
}
330
64
100
AcDbTableStyle
280
     0
  3
Standard
 70
     0
 71
     0
 40
0.06
 41
0.06
280
     0
281
     0
  7
Standard
140
0.18
170
     2
 62
     0
 63
     7
283
     0
 90
      512
 91
        0
  1

274
    -2
284
     1
 64
     0
275
    -2
285
     1
 65
     0
276
    -2
286
     1
 66
     0
277
    -2
287
     1
 67
     0
278
    -2
288
     1
 68
     0
279
    -2
289
     1
 69
     0
  7
Standard
140
0.25
170
     5
 62
     0
 63
     7
283
     0
 90
      512
 91
        0
  1

274
    -2
284
     1
 64
     0
275
    -2
285
     1
 65
     0
276
    -2
286
     1
 66
     0
277
    -2
287
     1
 67
     0
278
    -2
288
     1
 68
     0
279
    -2
289
     1
 69
     0
  7
Standard
140
0.18
170
     5
 62
     0
 63
     7
283
     0
 90
      512
 91
        0
  1

274
    -2
284
     1
 64
     0
275
    -2
285
     1
 65
     0
276
    -2
286
     1
 66
     0
277
    -2
287
     1
 67
     0
278
    -2
288
     1
 68
     0
279
    -2
289
     1
 69
     0
  0
VISUALSTYLE
  5
2F
102
{ACAD_REACTORS
330
29
102
}
330
29
100
AcDbVisualStyle
  2
2dWireframe
 70
     4
177
     3
291
     0
 70
    58
 90
        0
176
     1
 90
        2
176
     1
 90
        0
176
     1
 90
        0
176
     1
 40
0.6
176
     1
 40
30.0
176
     1
 62
     7
420
 16777215
176
     1
 90
        1
176
     1
 90
        4
176
     1
 62
     7
176
     1
 62
   257
176
     1
 90
        1
176
     1
 90
        1
176
     1
 40
1.0
176
     1
 90
        0
176
     1
 62
   257
176
     1
 40
1.0
176
     1
 90
        1
176
     1
 90
        6
176
     1
 90
        2
176
     1
 62
     7
176
     1
 90
        5
176
     1
 90
        0
176
     1
 90
        0
176
     1
290
     0
176
     1
 90
        1
176
     1
 40
0.0
176
     1
 90
        0
176
     1
290
     1
176
     1
290
     1
176
     1
290
     0
176
     1
290
     0
176
     1
290
     0
176
     1
290
     0
176
     1
290
     0
176
     1
290
     0
176
     1
290
     0
176
     1
 90
       50
176
     1
 40
0.0
176
     1
 40
1.0
176
     1
 90
        0
176
     1
 62
    18
420
        0
176
     1
 90
       50
176
     1
 90
        3
176
     1
 62
     5
420
      255
176
     1
290
     0
176
     1
 90
       50
176
     1
 90
       50
176
     1
 90
       50
176
     1
290
     0
176
     1
 90
       50
176
     1
 62
   256
176
     0
 40
1.0
176
     0
 90
        2
176
     1
  1
strokes_ogs.tif
176
     1
290
     0
176
     1
 40
1.0
176
     1
 40
1.0
176
     1
  0
VISUALSTYLE
  5
2E
102
{ACAD_REACTORS
330
29
102
}
330
29
100
AcDbVisualStyle
  2
Basic
 70
     7
177
     3
291
     1
 70
    58
 90
        1
176
     1
 90
        0
176
     1
 90
        1
176
     1
 90
        0
176
     1
 40
0.6
176
     1
 40
30.0
176
     1
 62
     7
420
 16777215
176
     1
 90
        0
176
     1
 90
        4
176
     1
 62
     7
176
     1
 62
   257
176
     1
 90
        1
176
     1
 90
        1
176
     1
 40
1.0
176
     1
 90
        8
176
     1
 62
     7
176
     1
 40
1.0
176
     1
 90
        1
176
     1
 90
        6
176
     1
 90
        2
176
     1
 62
     7
176
     1
 90
        5
176
     1
 90
        0
176
     1
 90
        0
176
     1
290
     0
176
     1
 90
        1
176
     1
 40
0.0
176
     1
 90
        0
176
     1
290
     0
176
     1
290
     1
176
     1
290
     1
176
     1
290
     0
176
     1
290
     0
176
     1
290
     0
176
     1
290
     0
176
     1
290
     0
176
     1
290
     0
176
     1
 90
       50
176
     1
 40
0.0
176
     1
 40
1.0
176
     1
 90
        0
176
     1
 62
    18
420
        0
176
     1
 90
       50
176
     1
 90
        3
176
     1
 62
     5
420
      255
176
     1
290
     0
176
     1
 90
       50
176
     1
 90
       50
176
     1
 90
       50
176
     1
290
     0
176
     1
 90
       50
176
     1
 62
   256
176
     0
 40
1.0
176
     0
 90
        2
176
     1
  1
strokes_ogs.tif
176
     1
290
     0
176
     1
 40
1.0
176
     1
 40
1.0
176
     1
  0
VISUALSTYLE
  5
35
102
{ACAD_REACTORS
330
29
102
}
330
29
100
AcDbVisualStyle
  2
Brighten
 70
    12
177
     3
291
     1
 70
    58
 90
        2
176
     1
 90
        2
176
     1
 90
        0
176
     1
 90
        0
176
     1
 40
0.6
176
     1
 40
30.0
176
     1
 62
     7
420
 16777215
176
     1
 90
        1
176
     1
 90
        4
176
     1
 62
     7
176
     1
 62
   257
176
     1
 90
        1
176
     1
 90
        1
176
     1
 40
1.0
176
     1
 90
        8
176
     1
 62
     7
176
     1
 40
1.0
176
     1
 90
        1
176
     1
 90
        6
176
     1
 90
        2
176
     1
 62
     7
176
     1
 90
        5
176
     1
 90
        0
176
     1
 90
        0
176
     1
290
     0
176
     1
 90
        1
176
     1
 40
50.0
176
     1
 90
        0
176
     1
290
     0
176
     1
290
     1
176
     1
290
     1
176
     1
290
     0
176
     1
290
     0
176
     1
290
     0
176
     1
290
     0
176
     1
290
     0
176
     1
290
     0
176
     1
 90
       50
176
     1
 40
0.0
176
     1
 40
1.0
176
     1
 90
        0
176
     1
 62
    18
420
        0
176
     1
 90
       50
176
     1
 90
        3
176
     1
 62
     5
420
      255
176
     1
290
     0
176
     1
 90
       50
176
     1
 90
       50
176
     1
 90
       50
176
     1
290
     0
176
     1
 90
       50
176
     1
 62
   256
176
     0
 40
1.0
176
     0
 90
        2
176
     1
  1
strokes_ogs.tif
176
     1
290
     0
176
     1
 40
1.0
176
     1
 40
1.0
176
     1
  0
VISUALSTYLE
  5
39
102
{ACAD_REACTORS
330
29
102
}
330
29
100
AcDbVisualStyle
  2
ColorChange
 70
    16
177
     3
291
     1
 70
    58
 90
        2
176
     1
 90
        2
176
     1
 90
        3
176
     1
 90
        0
176
     1
 40
0.6
176
     1
 40
30.0
176
     1
 62
     8
420
  8421504
176
     1
 90
        1
176
     1
 90
        4
176
     1
 62
     7
176
     1
 62
   257
176
     1
 90
        1
176
     1
 90
        1
176
     1
 40
1.0
176
     1
 90
        8
176
     1
 62
     8
420
  8421504
176
     1
 40
1.0
176
     1
 90
        1
176
     1
 90
        6
176
     1
 90
        2
176
     1
 62
     7
176
     1
 90
        5
176
     1
 90
        0
176
     1
 90
        0
176
     1
290
     0
176
     1
 90
        1
176
     1
 40
0.0
176
     1
 90
        0
176
     1
290
     0
176
     1
290
     1
176
     1
290
     1
176
     1
290
     0
176
     1
290
     0
176
     1
290
     0
176
     1
290
     0
176
     1
290
     0
176
     1
290
     0
176
     1
 90
       50
176
     1
 40
0.0
176
     1
 40
1.0
176
     1
 90
        0
176
     1
 62
    18
420
        0
176
     1
 90
       50
176
     1
 90
        3
176
     1
 62
     5
420
      255
176
     1
290
     0
176
     1
 90
       50
176
     1
 90
       50
176
     1
 90
       50
176
     1
290
     0
176
     1
 90
       50
176
     1
 62
   256
176
     0
 40
1.0
176
     0
 90
        2
176
     1
  1
strokes_ogs.tif
176
     1
290
     0
176
     1
 40
1.0
176
     1
 40
1.0
176
     1
  0
VISUALSTYLE
  5
32
102
{ACAD_REACTORS
330
29
102
}
330
29
100
AcDbVisualStyle
  2
Conceptual
 70
     9
177
     3
291
     0
 70
    58
 90
        3
176
     1
 90
        2
176
     1
 90
        0
176
     1
 90
        0
176
     1
 40
0.6
176
     1
 40
30.0
176
     1
 62
     7
420
 16777215
176
     1
 90
        2
176
     1
 90
        2
176
     1
 62
     7
176
     1
 62
   257
176
     1
 90
        1
176
     1
 90
        1
176
     1
 40
179.0
176
     1
 90
        8
176
     1
 62
     7
176
     1
 40
1.0
176
     1
 90
        1
176
     1
 90
        6
176
     1
 90
        2
176
     1
 62
     7
176
     1
 90
        3
176
     1
 90
        0
176
     1
 90
        0
176
     1
290
     0
176
     1
 90
        1
176
     1
 40
0.0
176
     1
 90
        0
176
     1
290
     0
176
     1
290
     1
176
     1
290
     1
176
     1
290
     0
176
     1
290
     0
176
     1
290
     0
176
     1
290
     0
176
     1
290
     0
176
     1
290
     0
176
     1
 90
       50
176
     1
 40
0.0
176
     1
 40
1.0
176
     1
 90
        0
176
     1
 62
    18
420
        0
176
     1
 90
       50
176
     1
 90
        3
176
     1
 62
     5
420
      255
176
     1
290
     0
176
     1
 90
       50
176
     1
 90
       50
176
     1
 90
       50
176
     1
290
     0
176
     1
 90
       50
176
     1
 62
   256
176
     0
 40
1.0
176
     0
 90
        2
176
     1
  1
strokes_ogs.tif
176
     1
290
     0
176
     1
 40
1.0
176
     1
 40
1.0
176
     1
  0
VISUALSTYLE
  5
34
102
{ACAD_REACTORS
330
29
102
}
330
29
100
AcDbVisualStyle
  2
Dim
 70
    11
177
     3
291
     1
 70
    58
 90
        2
176
     1
 90
        2
176
     1
 90
        0
176
     1
 90
        0
176
     1
 40
0.6
176
     1
 40
30.0
176
     1
 62
     7
420
 16777215
176
     1
 90
        1
176
     1
 90
        4
176
     1
 62
     7
176
     1
 62
   257
176
     1
 90
        1
176
     1
 90
        1
176
     1
 40
1.0
176
     1
 90
        8
176
     1
 62
     7
176
     1
 40
1.0
176
     1
 90
        1
176
     1
 90
        6
176
     1
 90
        2
176
     1
 62
     7
176
     1
 90
        5
176
     1
 90
        0
176
     1
 90
        0
176
     1
290
     0
176
     1
 90
        1
176
     1
 40
-50.0
176
     1
 90
        0
176
     1
290
     0
176
     1
290
     1
176
     1
290
     1
176
     1
290
     0
176
     1
290
     0
176
     1
290
     0
176
     1
290
     0
176
     1
290
     0
176
     1
290
     0
176
     1
 90
       50
176
     1
 40
0.0
176
     1
 40
1.0
176
     1
 90
        0
176
     1
 62
    18
420
        0
176
     1
 90
       50
176
     1
 90
        3
176
     1
 62
     5
420
      255
176
     1
290
     0
176
     1
 90
       50
176
     1
 90
       50
176
     1
 90
       50
176
     1
290
     0
176
     1
 90
       50
176
     1
 62
   256
176
     0
 40
1.0
176
     0
 90
        2
176
     1
  1
strokes_ogs.tif
176
     1
290
     0
176
     1
 40
1.0
176
     1
 40
1.0
176
     1
  0
VISUALSTYLE
  5
41
102
{ACAD_REACTORS
330
29
102
}
330
29
100
AcDbVisualStyle
  2
EdgeColorOff
 70
    22
177
     3
291
     1
 70
    58
 90
        2
176
     0
 90
        2
176
     0
 90
        0
176
     0
 90
        0
176
     0
 40
0.6
176
     0
 40
30.0
176
     0
 62
     7
420
 16777215
176
     0
 90
        1
176
     0
 90
        4
176
     0
 62
     7
176
     0
 62
   257
176
     0
 90
        1
176
     0
 90
        1
176
     0
 40
1.0
176
     0
 90
        8
176
     2
 62
     7
176
     0
 40
1.0
176
     0
 90
        1
176
     0
 90
        6
176
     0
 90
        2
176
     0
 62
     7
176
     0
 90
        5
176
     0
 90
        0
176
     0
 90
        0
176
     0
290
     0
176
     0
 90
        1
176
     0
 40
0.0
176
     0
 90
        0
176
     0
290
     0
176
     0
290
     1
176
     0
290
     1
176
     0
290
     0
176
     0
290
     0
176
     0
290
     0
176
     0
290
     0
176
     0
290
     0
176
     0
290
     0
176
     0
 90
       50
176
     0
 40
0.0
176
     0
 40
1.0
176
     0
 90
        0
176
     0
 62
    18
420
        0
176
     0
 90
       50
176
     0
 90
        3
176
     0
 62
     5
420
      255
176
     0
290
     0
176
     0
 90
       50
176
     0
 90
       50
176
     0
 90
       50
176
     0
290
     0
176
     0
 90
       50
176
     0
 62
   256
176
     0
 40
1.0
176
     0
 90
        2
176
     0
  1
strokes_ogs.tif
176
     0
290
     0
176
     0
 40
1.0
176
     0
 40
1.0
176
     0
  0
VISUALSTYLE
  5
38
102
{ACAD_REACTORS
330
29
102
}
330
29
100
AcDbVisualStyle
  2
Facepattern
 70
    15
177
     3
291
     1
 70
    58
 90
        2
176
     1
 90
        2
176
     1
 90
        0
176
     1
 90
        0
176
     1
 40
0.6
176
     1
 40
30.0
176
     1
 62
     7
420
 16777215
176
     1
 90
        1
176
     1
 90
        4
176
     1
 62
     7
176
     1
 62
   257
176
     1
 90
        1
176
     1
 90
        1
176
     1
 40
1.0
176
     1
 90
        8
176
     1
 62
     7
176
     1
 40
1.0
176
     1
 90
        1
176
     1
 90
        6
176
     1
 90
        2
176
     1
 62
     7
176
     1
 90
        5
176
     1
 90
        0
176
     1
 90
        0
176
     1
290
     0
176
     1
 90
        1
176
     1
 40
0.0
176
     1
 90
        0
176
     1
290
     0
176
     1
290
     1
176
     1
290
     1
176
     1
290
     0
176
     1
290
     0
176
     1
290
     0
176
     1
290
     0
176
     1
290
     0
176
     1
290
     0
176
     1
 90
       50
176
     1
 40
0.0
176
     1
 40
1.0
176
     1
 90
        0
176
     1
 62
    18
420
        0
176
     1
 90
       50
176
     1
 90
        3
176
     1
 62
     5
420
      255
176
     1
290
     0
176
     1
 90
       50
176
     1
 90
       50
176
     1
 90
       50
176
     1
290
     0
176
     1
 90
       50
176
     1
 62
   256
176
     0
 40
1.0
176
     0
 90
        2
176
     1
  1
strokes_ogs.tif
176
     1
290
     0
176
     1
 40
1.0
176
     1
 40
1.0
176
     1
  0
VISUALSTYLE
  5
2A
102
{ACAD_REACTORS
330
29
102
}
330
29
100
AcDbVisualStyle
  2
Flat
 70
     0
177
     3
291
     1
 70
    58
 90
        2
176
     1
 90
        1
176
     1
 90
        1
176
     1
 90
        2
176
     1
 40
0.6
176
     1
 40
30.0
176
     1
 62
     7
420
 16777215
176
     1
 90
        0
176
     1
 90
        0
176
     1
 62
     7
176
     1
 62
   257
176
     1
 90
        1
176
     1
 90
        1
176
     1
 40
1.0
176
     1
 90
        8
176
     1
 62
     7
176
     1
 40
1.0
176
     1
 90
        1
176
     1
 90
        6
176
     1
 90
        2
176
     1
 62
     7
176
     1
 90
        5
176
     1
 90
        0
176
     1
 90
        0
176
     1
290
     0
176
     1
 90
       13
176
     1
 40
0.0
176
     1
 90
        0
176
     1
290
     0
176
     1
290
     1
176
     1
290
     1
176
     1
290
     0
176
     1
290
     0
176
     1
290
     0
176
     1
290
     0
176
     1
290
     0
176
     1
290
     0
176
     1
 90
       50
176
     1
 40
0.0
176
     1
 40
1.0
176
     1
 90
        0
176
     1
 62
    18
420
        0
176
     1
 90
       50
176
     1
 90
        3
176
     1
 62
     5
420
      255
176
     1
290
     0
176
     1
 90
       50
176
     1
 90
       50
176
     1
 90
       50
176
     1
290
     0
176
     1
 90
       50
176
     1
 62
   256
176
     0
 40
1.0
176
     0
 90
        2
176
     1
  1
strokes_ogs.tif
176
     1
290
     0
176
     1
 40
1.0
176
     1
 40
1.0
176
     1
  0
VISUALSTYLE
  5
2B
102
{ACAD_REACTORS
330
29
102
}
330
29
100
AcDbVisualStyle
  2
FlatWithEdges
 70
     1
177
     3
291
     1
 70
    58
 90
        2
176
     1
 90
        1
176
     1
 90
        1
176
     1
 90
        2
176
     1
 40
0.6
176
     1
 40
30.0
176
     1
 62
     7
420
 16777215
176
     1
 90
        1
176
     1
 90
        0
176
     1
 62
     7
176
     1
 62
   257
176
     1
 90
        1
176
     1
 90
        1
176
     1
 40
1.0
176
     1
 90
        0
176
     1
 62
   257
176
     1
 40
1.0
176
     1
 90
        1
176
     1
 90
        6
176
     1
 90
        2
176
     1
 62
     7
176
     1
 90
        5
176
     1
 90
        0
176
     1
 90
        0
176
     1
290
     0
176
     1
 90
       13
176
     1
 40
0.0
176
     1
 90
        0
176
     1
290
     0
176
     1
290
     1
176
     1
290
     1
176
     1
290
     0
176
     1
290
     0
176
     1
290
     0
176
     1
290
     0
176
     1
290
     0
176
     1
290
     0
176
     1
 90
       50
176
     1
 40
0.0
176
     1
 40
1.0
176
     1
 90
        0
176
     1
 62
    18
420
        0
176
     1
 90
       50
176
     1
 90
        3
176
     1
 62
     5
420
      255
176
     1
290
     0
176
     1
 90
       50
176
     1
 90
       50
176
     1
 90
       50
176
     1
290
     0
176
     1
 90
       50
176
     1
 62
   256
176
     0
 40
1.0
176
     0
 90
        2
176
     1
  1
strokes_ogs.tif
176
     1
290
     0
176
     1
 40
1.0
176
     1
 40
1.0
176
     1
  0
VISUALSTYLE
  5
2C
102
{ACAD_REACTORS
330
29
102
}
330
29
100
AcDbVisualStyle
  2
Gouraud
 70
     2
177
     3
291
     1
 70
    58
 90
        2
176
     1
 90
        2
176
     1
 90
        1
176
     1
 90
        2
176
     1
 40
0.6
176
     1
 40
30.0
176
     1
 62
     7
420
 16777215
176
     1
 90
        0
176
     1
 90
        0
176
     1
 62
     7
176
     1
 62
   257
176
     1
 90
        1
176
     1
 90
        1
176
     1
 40
1.0
176
     1
 90
        0
176
     1
 62
     7
176
     1
 40
1.0
176
     1
 90
        1
176
     1
 90
        6
176
     1
 90
        2
176
     1
 62
     7
176
     1
 90
        5
176
     1
 90
        0
176
     1
 90
        0
176
     1
290
     0
176
     1
 90
       13
176
     1
 40
0.0
176
     1
 90
        0
176
     1
290
     0
176
     1
290
     1
176
     1
290
     1
176
     1
290
     0
176
     1
290
     0
176
     1
290
     0
176
     1
290
     0
176
     1
290
     0
176
     1
290
     0
176
     1
 90
       50
176
     1
 40
0.0
176
     1
 40
1.0
176
     1
 90
        0
176
     1
 62
    18
420
        0
176
     1
 90
       50
176
     1
 90
        3
176
     1
 62
     5
420
      255
176
     1
290
     0
176
     1
 90
       50
176
     1
 90
       50
176
     1
 90
       50
176
     1
290
     0
176
     1
 90
       50
176
     1
 62
   256
176
     0
 40
1.0
176
     0
 90
        2
176
     1
  1
strokes_ogs.tif
176
     1
290
     0
176
     1
 40
1.0
176
     1
 40
1.0
176
     1
  0
VISUALSTYLE
  5
2D
102
{ACAD_REACTORS
330
29
102
}
330
29
100
AcDbVisualStyle
  2
GouraudWithEdges
 70
     3
177
     3
291
     1
 70
    58
 90
        2
176
     1
 90
        2
176
     1
 90
        1
176
     1
 90
        2
176
     1
 40
0.6
176
     1
 40
30.0
176
     1
 62
     7
420
 16777215
176
     1
 90
        1
176
     1
 90
        0
176
     1
 62
     7
176
     1
 62
   257
176
     1
 90
        1
176
     1
 90
        1
176
     1
 40
1.0
176
     1
 90
        0
176
     1
 62
   257
176
     1
 40
1.0
176
     1
 90
        1
176
     1
 90
        6
176
     1
 90
        2
176
     1
 62
     7
176
     1
 90
        5
176
     1
 90
        0
176
     1
 90
        0
176
     1
290
     0
176
     1
 90
       13
176
     1
 40
0.0
176
     1
 90
        0
176
     1
290
     0
176
     1
290
     1
176
     1
290
     1
176
     1
290
     0
176
     1
290
     0
176
     1
290
     0
176
     1
290
     0
176
     1
290
     0
176
     1
290
     0
176
     1
 90
       50
176
     1
 40
0.0
176
     1
 40
1.0
176
     1
 90
        0
176
     1
 62
    18
420
        0
176
     1
 90
       50
176
     1
 90
        3
176
     1
 62
     5
420
      255
176
     1
290
     0
176
     1
 90
       50
176
     1
 90
       50
176
     1
 90
       50
176
     1
290
     0
176
     1
 90
       50
176
     1
 62
   256
176
     0
 40
1.0
176
     0
 90
        2
176
     1
  1
strokes_ogs.tif
176
     1
290
     0
176
     1
 40
1.0
176
     1
 40
1.0
176
     1
  0
VISUALSTYLE
  5
31
102
{ACAD_REACTORS
330
29
102
}
330
29
100
AcDbVisualStyle
  2
Hidden
 70
     6
177
     3
291
     0
 70
    58
 90
        1
176
     1
 90
        2
176
     1
 90
        2
176
     1
 90
        0
176
     1
 40
0.6
176
     1
 40
30.0
176
     1
 62
     7
420
 16777215
176
     1
 90
        2
176
     1
 90
        2
176
     1
 62
     7
176
     1
 62
   257
176
     1
 90
        2
176
     1
 90
        1
176
     1
 40
40.0
176
     1
 90
        0
176
     1
 62
   257
176
     1
 40
1.0
176
     1
 90
        1
176
     1
 90
        6
176
     1
 90
        2
176
     1
 62
     7
176
     1
 90
        3
176
     1
 90
        0
176
     1
 90
        0
176
     1
290
     0
176
     1
 90
        1
176
     1
 40
0.0
176
     1
 90
        0
176
     1
290
     0
176
     1
290
     1
176
     1
290
     1
176
     1
290
     0
176
     1
290
     0
176
     1
290
     0
176
     1
290
     0
176
     1
290
     0
176
     1
290
     0
176
     1
 90
       50
176
     1
 40
0.0
176
     1
 40
1.0
176
     1
 90
        0
176
     1
 62
    18
420
        0
176
     1
 90
       50
176
     1
 90
        3
176
     1
 62
     5
420
      255
176
     1
290
     0
176
     1
 90
       50
176
     1
 90
       50
176
     1
 90
       50
176
     1
290
     0
176
     1
 90
       50
176
     1
 62
   256
176
     0
 40
1.0
176
     0
 90
        2
176
     1
  1
strokes_ogs.tif
176
     1
290
     0
176
     1
 40
1.0
176
     1
 40
1.0
176
     1
  0
VISUALSTYLE
  5
3F
102
{ACAD_REACTORS
330
29
102
}
330
29
100
AcDbVisualStyle
  2
JitterOff
 70
    20
177
     3
291
     1
 70
    58
 90
        2
176
     0
 90
        2
176
     0
 90
        0
176
     0
 90
        0
176
     0
 40
0.6
176
     0
 40
30.0
176
     0
 62
     7
420
 16777215
176
     0
 90
        1
176
     0
 90
        4
176
     0
 62
     7
176
     0
 62
   257
176
     0
 90
        1
176
     0
 90
        1
176
     0
 40
1.0
176
     0
 90
       10
176
     2
 62
     7
176
     0
 40
1.0
176
     0
 90
        1
176
     0
 90
        6
176
     0
 90
        2
176
     0
 62
     7
176
     0
 90
        5
176
     0
 90
        0
176
     0
 90
        0
176
     0
290
     0
176
     0
 90
        1
176
     0
 40
0.0
176
     0
 90
        0
176
     0
290
     0
176
     0
290
     1
176
     0
290
     1
176
     0
290
     0
176
     0
290
     0
176
     0
290
     0
176
     0
290
     0
176
     0
290
     0
176
     0
290
     0
176
     0
 90
       50
176
     0
 40
0.0
176
     0
 40
1.0
176
     0
 90
        0
176
     0
 62
    18
420
        0
176
     0
 90
       50
176
     0
 90
        3
176
     0
 62
     5
420
      255
176
     0
290
     0
176
     0
 90
       50
176
     0
 90
       50
176
     0
 90
       50
176
     0
290
     0
176
     0
 90
       50
176
     0
 62
   256
176
     0
 40
1.0
176
     0
 90
        2
176
     0
  1
strokes_ogs.tif
176
     0
290
     0
176
     0
 40
1.0
176
     0
 40
1.0
176
     0
  0
VISUALSTYLE
  5
37
102
{ACAD_REACTORS
330
29
102
}
330
29
100
AcDbVisualStyle
  2
Linepattern
 70
    14
177
     3
291
     1
 70
    58
 90
        2
176
     1
 90
        2
176
     1
 90
        0
176
     1
 90
        0
176
     1
 40
0.6
176
     1
 40
30.0
176
     1
 62
     7
420
 16777215
176
     1
 90
        1
176
     1
 90
        4
176
     1
 62
     7
176
     1
 62
   257
176
     1
 90
        7
176
     1
 90
        7
176
     1
 40
1.0
176
     1
 90
        8
176
     1
 62
     7
176
     1
 40
1.0
176
     1
 90
        1
176
     1
 90
        6
176
     1
 90
        2
176
     1
 62
     7
176
     1
 90
        5
176
     1
 90
        0
176
     1
 90
        0
176
     1
290
     0
176
     1
 90
        1
176
     1
 40
0.0
176
     1
 90
        0
176
     1
290
     0
176
     1
290
     1
176
     1
290
     1
176
     1
290
     0
176
     1
290
     0
176
     1
290
     0
176
     1
290
     0
176
     1
290
     0
176
     1
290
     0
176
     1
 90
       50
176
     1
 40
0.0
176
     1
 40
1.0
176
     1
 90
        0
176
     1
 62
    18
420
        0
176
     1
 90
       50
176
     1
 90
        3
176
     1
 62
     5
420
      255
176
     1
290
     0
176
     1
 90
       50
176
     1
 90
       50
176
     1
 90
       50
176
     1
290
     0
176
     1
 90
       50
176
     1
 62
   256
176
     0
 40
1.0
176
     0
 90
        2
176
     1
  1
strokes_ogs.tif
176
     1
290
     0
176
     1
 40
1.0
176
     1
 40
1.0
176
     1
  0
VISUALSTYLE
  5
40
102
{ACAD_REACTORS
330
29
102
}
330
29
100
AcDbVisualStyle
  2
OverhangOff
 70
    21
177
     3
291
     1
 70
    58
 90
        2
176
     0
 90
        2
176
     0
 90
        0
176
     0
 90
        0
176
     0
 40
0.6
176
     0
 40
30.0
176
     0
 62
     7
420
 16777215
176
     0
 90
        1
176
     0
 90
        4
176
     0
 62
     7
176
     0
 62
   257
176
     0
 90
        1
176
     0
 90
        1
176
     0
 40
1.0
176
     0
 90
        9
176
     2
 62
     7
176
     0
 40
1.0
176
     0
 90
        1
176
     0
 90
        6
176
     0
 90
        2
176
     0
 62
     7
176
     0
 90
        5
176
     0
 90
        0
176
     0
 90
        0
176
     0
290
     0
176
     0
 90
        1
176
     0
 40
0.0
176
     0
 90
        0
176
     0
290
     0
176
     0
290
     1
176
     0
290
     1
176
     0
290
     0
176
     0
290
     0
176
     0
290
     0
176
     0
290
     0
176
     0
290
     0
176
     0
290
     0
176
     0
 90
       50
176
     0
 40
0.0
176
     0
 40
1.0
176
     0
 90
        0
176
     0
 62
    18
420
        0
176
     0
 90
       50
176
     0
 90
        3
176
     0
 62
     5
420
      255
176
     0
290
     0
176
     0
 90
       50
176
     0
 90
       50
176
     0
 90
       50
176
     0
290
     0
176
     0
 90
       50
176
     0
 62
   256
176
     0
 40
1.0
176
     0
 90
        2
176
     0
  1
strokes_ogs.tif
176
     0
290
     0
176
     0
 40
1.0
176
     0
 40
1.0
176
     0
  0
VISUALSTYLE
  5
33
102
{ACAD_REACTORS
330
29
102
}
330
29
100
AcDbVisualStyle
  2
Realistic
 70
     8
177
     3
291
     0
 70
    58
 90
        2
176
     1
 90
        3
176
     1
 90
        0
176
     1
 90
        2
176
     1
 40
0.6
176
     1
 40
30.0
176
     1
 62
     7
420
 16777215
176
     1
 90
        0
176
     1
 90
        0
176
     1
 62
     7
176
     1
 62
   257
176
     1
 90
        1
176
     1
 90
        1
176
     1
 40
1.0
176
     1
 90
        8
176
     1
 62
   257
176
     1
 40
1.0
176
     1
 90
        1
176
     1
 90
        6
176
     1
 90
        2
176
     1
 62
     7
176
     1
 90
        3
176
     1
 90
        0
176
     1
 90
        0
176
     1
290
     0
176
     1
 90
       13
176
     1
 40
0.0
176
     1
 90
        0
176
     1
290
     0
176
     1
290
     1
176
     1
290
     1
176
     1
290
     0
176
     1
290
     0
176
     1
290
     0
176
     1
290
     0
176
     1
290
     0
176
     1
290
     0
176
     1
 90
       50
176
     1
 40
0.0
176
     1
 40
1.0
176
     1
 90
        0
176
     1
 62
    18
420
        0
176
     1
 90
       50
176
     1
 90
        3
176
     1
 62
     5
420
      255
176
     1
290
     0
176
     1
 90
       50
176
     1
 90
       50
176
     1
 90
       50
176
     1
290
     0
176
     1
 90
       50
176
     1
 62
   256
176
     0
 40
1.0
176
     0
 90
        2
176
     1
  1
strokes_ogs.tif
176
     1
290
     0
176
     1
 40
1.0
176
     1
 40
1.0
176
     1
  0
VISUALSTYLE
  5
3E
102
{ACAD_REACTORS
330
29
102
}
330
29
100
AcDbVisualStyle
  2
Shaded
 70
    27
177
     3
291
     0
 70
    58
 90
        2
176
     1
 90
        2
176
     1
 90
        1
176
     1
 90
        2
176
     1
 40
0.6
176
     1
 40
30.0
176
     1
 62
     7
420
 16777215
176
     1
 90
        0
176
     1
 90
        4
176
     1
 62
     7
176
     1
 62
   257
176
     1
 90
        1
176
     1
 90
        1
176
     1
 40
1.0
176
     1
 90
        8
176
     1
 62
   257
176
     1
 40
1.0
176
     1
 90
        1
176
     1
 90
        6
176
     1
 90
        2
176
     1
 62
     8
420
  7895160
176
     1
 90
        3
176
     1
 90
        0
176
     1
 90
        0
176
     1
290
     0
176
     1
 90
        5
176
     1
 40
0.0
176
     1
 90
        0
176
     1
290
     0
176
     1
290
     1
176
     1
290
     1
176
     1
290
     0
176
     1
290
     0
176
     1
290
     0
176
     1
290
     0
176
     1
290
     0
176
     1
290
     0
176
     1
 90
       50
176
     1
 40
0.0
176
     1
 40
1.0
176
     1
 90
        0
176
     1
 62
    18
420
        0
176
     1
 90
       50
176
     1
 90
        3
176
     1
 62
     5
420
      255
176
     1
290
     0
176
     1
 90
       50
176
     1
 90
       50
176
     1
 90
       50
176
     1
290
     0
176
     1
 90
       50
176
     1
 62
   256
176
     0
 40
1.0
176
     0
 90
        2
176
     1
  1
strokes_ogs.tif
176
     1
290
     0
176
     1
 40
1.0
176
     1
 40
1.0
176
     1
  0
VISUALSTYLE
  5
3D
102
{ACAD_REACTORS
330
29
102
}
330
29
100
AcDbVisualStyle
  2
Shaded with edges
 70
    26
177
     3
291
     0
 70
    58
 90
        2
176
     1
 90
        2
176
     1
 90
        1
176
     1
 90
        2
176
     1
 40
0.6
176
     1
 40
30.0
176
     1
 62
     7
420
 16777215
176
     1
 90
        1
176
     1
 90
        2
176
     1
 62
     7
176
     1
 62
   257
176
     1
 90
        2
176
     1
 90
        1
176
     1
 40
1.0
176
     1
 90
        8
176
     1
 62
   257
176
     1
 40
1.0
176
     1
 90
        1
176
     1
 90
        6
176
     1
 90
        2
176
     1
 62
     7
176
     1
 90
        3
176
     1
 90
        0
176
     1
 90
        0
176
     1
290
     0
176
     1
 90
        5
176
     1
 40
0.0
176
     1
 90
        0
176
     1
290
     0
176
     1
290
     1
176
     1
290
     1
176
     1
290
     0
176
     1
290
     0
176
     1
290
     0
176
     1
290
     0
176
     1
290
     0
176
     1
290
     0
176
     1
 90
       50
176
     1
 40
0.0
176
     1
 40
1.0
176
     1
 90
        0
176
     1
 62
    18
420
        0
176
     1
 90
       50
176
     1
 90
        3
176
     1
 62
     5
420
      255
176
     1
290
     0
176
     1
 90
       50
176
     1
 90
       50
176
     1
 90
       50
176
     1
290
     0
176
     1
 90
       50
176
     1
 62
   256
176
     0
 40
1.0
176
     0
 90
        2
176
     1
  1
strokes_ogs.tif
176
     1
290
     0
176
     1
 40
1.0
176
     1
 40
1.0
176
     1
  0
VISUALSTYLE
  5
3A
102
{ACAD_REACTORS
330
29
102
}
330
29
100
AcDbVisualStyle
  2
Shades of Gray
 70
    23
177
     3
291
     0
 70
    58
 90
        2
176
     1
 90
        2
176
     1
 90
        3
176
     1
 90
        0
176
     1
 40
0.6
176
     1
 40
30.0
176
     1
 62
     7
420
 16777215
176
     1
 90
        2
176
     1
 90
        2
176
     1
 62
     7
176
     1
 62
     7
176
     1
 90
        1
176
     1
 90
        1
176
     1
 40
40.0
176
     1
 90
        8
176
     1
 62
     7
176
     1
 40
1.0
176
     1
 90
        1
176
     1
 90
        6
176
     1
 90
        2
176
     1
 62
     7
176
     1
 90
        3
176
     1
 90
        0
176
     1
 90
        0
176
     1
290
     0
176
     1
 90
        1
176
     1
 40
0.0
176
     1
 90
        0
176
     1
290
     0
176
     1
290
     1
176
     1
290
     1
176
     1
290
     0
176
     1
290
     0
176
     1
290
     0
176
     1
290
     0
176
     1
290
     0
176
     1
290
     0
176
     1
 90
       50
176
     1
 40
0.0
176
     1
 40
1.0
176
     1
 90
        0
176
     1
 62
    18
420
        0
176
     1
 90
       50
176
     1
 90
        3
176
     1
 62
     5
420
      255
176
     1
290
     0
176
     1
 90
       50
176
     1
 90
       50
176
     1
 90
       50
176
     1
290
     0
176
     1
 90
       50
176
     1
 62
   256
176
     0
 40
1.0
176
     0
 90
        2
176
     1
  1
strokes_ogs.tif
176
     1
290
     0
176
     1
 40
1.0
176
     1
 40
1.0
176
     1
  0
VISUALSTYLE
  5
3B
102
{ACAD_REACTORS
330
29
102
}
330
29
100
AcDbVisualStyle
  2
Sketchy
 70
    24
177
     3
291
     0
 70
    58
 90
        1
176
     1
 90
        2
176
     1
 90
        2
176
     1
 90
        0
176
     1
 40
0.6
176
     1
 40
30.0
176
     1
 62
     7
420
 16777215
176
     1
 90
        2
176
     1
 90
        2
176
     1
 62
     7
176
     1
 62
     7
176
     1
 90
        1
176
     1
 90
        1
176
     1
 40
40.0
176
     1
 90
       11
176
     1
 62
     7
176
     1
 40
1.0
176
     1
 90
        1
176
     1
 90
        6
176
     1
 90
        2
176
     1
 62
     7
176
     1
 90
        6
176
     1
 90
        0
176
     1
 90
        0
176
     1
290
     0
176
     1
 90
        1
176
     1
 40
0.0
176
     1
 90
        0
176
     1
290
     0
176
     1
290
     1
176
     1
290
     1
176
     1
290
     0
176
     1
290
     0
176
     1
290
     0
176
     1
290
     0
176
     1
290
     0
176
     1
290
     0
176
     1
 90
       50
176
     1
 40
0.0
176
     1
 40
1.0
176
     1
 90
        0
176
     1
 62
    18
420
        0
176
     1
 90
       50
176
     1
 90
        3
176
     1
 62
     5
420
      255
176
     1
290
     0
176
     1
 90
       50
176
     1
 90
       50
176
     1
 90
       50
176
     1
290
     0
176
     1
 90
       50
176
     1
 62
   256
176
     0
 40
1.0
176
     0
 90
        2
176
     1
  1
strokes_ogs.tif
176
     1
290
     0
176
     1
 40
1.0
176
     1
 40
1.0
176
     1
  0
VISUALSTYLE
  5
36
102
{ACAD_REACTORS
330
29
102
}
330
29
100
AcDbVisualStyle
  2
Thicken
 70
    13
177
     3
291
     1
 70
    58
 90
        2
176
     1
 90
        2
176
     1
 90
        0
176
     1
 90
        0
176
     1
 40
0.6
176
     1
 40
30.0
176
     1
 62
     7
420
 16777215
176
     1
 90
        1
176
     1
 90
        4
176
     1
 62
     7
176
     1
 62
   257
176
     1
 90
        1
176
     1
 90
        1
176
     1
 40
1.0
176
     1
 90
       12
176
     1
 62
     7
176
     1
 40
1.0
176
     1
 90
        1
176
     1
 90
        6
176
     1
 90
        2
176
     1
 62
     7
176
     1
 90
        5
176
     1
 90
        0
176
     1
 90
        0
176
     1
290
     0
176
     1
 90
        1
176
     1
 40
0.0
176
     1
 90
        0
176
     1
290
     0
176
     1
290
     1
176
     1
290
     1
176
     1
290
     0
176
     1
290
     0
176
     1
290
     0
176
     1
290
     0
176
     1
290
     0
176
     1
290
     0
176
     1
 90
       50
176
     1
 40
0.0
176
     1
 40
1.0
176
     1
 90
        0
176
     1
 62
    18
420
        0
176
     1
 90
       50
176
     1
 90
        3
176
     1
 62
     5
420
      255
176
     1
290
     0
176
     1
 90
       50
176
     1
 90
       50
176
     1
 90
       50
176
     1
290
     0
176
     1
 90
       50
176
     1
 62
   256
176
     0
 40
1.0
176
     0
 90
        2
176
     1
  1
strokes_ogs.tif
176
     1
290
     0
176
     1
 40
1.0
176
     1
 40
1.0
176
     1
  0
VISUALSTYLE
  5
30
102
{ACAD_REACTORS
330
29
102
}
330
29
100
AcDbVisualStyle
  2
Wireframe
 70
     5
177
     3
291
     0
 70
    58
 90
        0
176
     1
 90
        2
176
     1
 90
        0
176
     1
 90
        0
176
     1
 40
0.6
176
     1
 40
30.0
176
     1
 62
     7
420
 16777215
176
     1
 90
        1
176
     1
 90
        4
176
     1
 62
     7
176
     1
 62
   257
176
     1
 90
        1
176
     1
 90
        1
176
     1
 40
1.0
176
     1
 90
        0
176
     1
 62
   257
176
     1
 40
1.0
176
     1
 90
        1
176
     1
 90
        6
176
     1
 90
        2
176
     1
 62
     7
176
     1
 90
        3
176
     1
 90
        0
176
     1
 90
        0
176
     1
290
     0
176
     1
 90
        1
176
     1
 40
0.0
176
     1
 90
        0
176
     1
290
     0
176
     1
290
     1
176
     1
290
     1
176
     1
290
     0
176
     1
290
     0
176
     1
290
     0
176
     1
290
     0
176
     1
290
     0
176
     1
290
     0
176
     1
 90
       50
176
     1
 40
0.0
176
     1
 40
1.0
176
     1
 90
        0
176
     1
 62
    18
420
        0
176
     1
 90
       50
176
     1
 90
        3
176
     1
 62
     5
420
      255
176
     1
290
     0
176
     1
 90
       50
176
     1
 90
       50
176
     1
 90
       50
176
     1
290
     0
176
     1
 90
       50
176
     1
 62
   256
176
     0
 40
1.0
176
     0
 90
        2
176
     1
  1
strokes_ogs.tif
176
     1
290
     0
176
     1
 40
1.0
176
     1
 40
1.0
176
     1
  0
VISUALSTYLE
  5
3C
102
{ACAD_REACTORS
330
29
102
}
330
29
100
AcDbVisualStyle
  2
X-Ray
 70
    25
177
     3
291
     0
 70
    58
 90
        2
176
     1
 90
        2
176
     1
 90
        1
176
     1
 90
        1
176
     1
 40
0.5
176
     1
 40
30.0
176
     1
 62
     7
420
 16777215
176
     1
 90
        1
176
     1
 90
        0
176
     1
 62
     7
176
     1
 62
   257
176
     1
 90
        1
176
     1
 90
        1
176
     1
 40
1.0
176
     1
 90
        8
176
     1
 62
     7
176
     1
 40
1.0
176
     1
 90
        1
176
     1
 90
        6
176
     1
 90
        2
176
     1
 62
     7
176
     1
 90
        3
176
     1
 90
        0
176
     1
 90
        0
176
     1
290
     0
176
     1
 90
       13
176
     1
 40
0.0
176
     1
 90
        0
176
     1
290
     0
176
     1
290
     1
176
     1
290
     1
176
     1
290
     0
176
     1
290
     0
176
     1
290
     0
176
     1
290
     0
176
     1
290
     0
176
     1
290
     0
176
     1
 90
       50
176
     1
 40
0.0
176
     1
 40
1.0
176
     1
 90
        0
176
     1
 62
    18
420
        0
176
     1
 90
       50
176
     1
 90
        3
176
     1
 62
     5
420
      255
176
     1
290
     0
176
     1
 90
       50
176
     1
 90
       50
176
     1
 90
       50
176
     1
290
     0
176
     1
 90
       50
176
     1
 62
   256
176
     0
 40
1.0
176
     0
 90
        2
176
     1
  1
strokes_ogs.tif
176
     1
290
     0
176
     1
 40
1.0
176
     1
 40
1.0
176
     1
  0
DICTIONARYVAR
  5
94
102
{ACAD_REACTORS
330
8F
102
}
330
8F
100
DictionaryVariables
280
     0
  1
1:1
  0
DICTIONARYVAR
  5
91
102
{ACAD_REACTORS
330
8F
102
}
330
8F
100
DictionaryVariables
280
     0
  1
STANDARD
  0
DICTIONARYVAR
  5
90
102
{ACAD_REACTORS
330
8F
102
}
330
8F
100
DictionaryVariables
280
     0
  1
STANDARD
  0
DICTIONARYVAR
  5
92
102
{ACAD_REACTORS
330
8F
102
}
330
8F
100
DictionaryVariables
280
     0
  1
Imperial24
  0
DICTIONARYVAR
  5
93
102
{ACAD_REACTORS
330
8F
102
}
330
8F
100
DictionaryVariables
280
     0
  1
Imperial24
  0
DICTIONARY
  5
1A
330
19
100
AcDbDictionary
280
     1
281
     1
  3
BUMPTILE
360
1C
  3
DIFFUSETILE
360
1B
  3
OPACITYTILE
360
1F
  3
REFLECTIONTILE
360
1E
  3
REFRACTIONTILE
360
20
  3
SPECULARTILE
360
1D
  0
DICTIONARY
  5
12
330
11
100
AcDbDictionary
280
     1
281
     1
  3
BUMPTILE
360
14
  3
DIFFUSETILE
360
13
  3
OPACITYTILE
360
17
  3
REFLECTIONTILE
360
16
  3
REFRACTIONTILE
360
18
  3
SPECULARTILE
360
15
  0
DICTIONARY
  5
22
330
21
100
AcDbDictionary
280
     1
281
     1
  3
BUMPTILE
360
24
  3
DIFFUSETILE
360
23
  3
OPACITYTILE
360
27
  3
REFLECTIONTILE
360
26
  3
REFRACTIONTILE
360
28
  3
SPECULARTILE
360
25
  0
DICTIONARY
  5
95
330
65
100
AcDbDictionary
280
     1
281
     1
  3
ACAD_ROUNDTRIP_2008_TABLESTYLE_CELLSTYLEMAP
360
96
  0
XRECORD
  5
1C
102
{ACAD_REACTORS
330
1A
102
}
330
1A
100
AcDbXrecord
280
     1
270
     1
271
     1
  0
XRECORD
  5
1B
102
{ACAD_REACTORS
330
1A
102
}
330
1A
100
AcDbXrecord
280
     1
270
     1
271
     1
  0
XRECORD
  5
1F
102
{ACAD_REACTORS
330
1A
102
}
330
1A
100
AcDbXrecord
280
     1
270
     1
271
     1
  0
XRECORD
  5
1E
102
{ACAD_REACTORS
330
1A
102
}
330
1A
100
AcDbXrecord
280
     1
270
     1
271
     1
  0
XRECORD
  5
20
102
{ACAD_REACTORS
330
1A
102
}
330
1A
100
AcDbXrecord
280
     1
270
     1
271
     1
  0
XRECORD
  5
1D
102
{ACAD_REACTORS
330
1A
102
}
330
1A
100
AcDbXrecord
280
     1
270
     1
271
     1
  0
XRECORD
  5
14
102
{ACAD_REACTORS
330
12
102
}
330
12
100
AcDbXrecord
280
     1
270
     1
271
     1
  0
XRECORD
  5
13
102
{ACAD_REACTORS
330
12
102
}
330
12
100
AcDbXrecord
280
     1
270
     1
271
     1
  0
XRECORD
  5
17
102
{ACAD_REACTORS
330
12
102
}
330
12
100
AcDbXrecord
280
     1
270
     1
271
     1
  0
XRECORD
  5
16
102
{ACAD_REACTORS
330
12
102
}
330
12
100
AcDbXrecord
280
     1
270
     1
271
     1
  0
XRECORD
  5
18
102
{ACAD_REACTORS
330
12
102
}
330
12
100
AcDbXrecord
280
     1
270
     1
271
     1
  0
XRECORD
  5
15
102
{ACAD_REACTORS
330
12
102
}
330
12
100
AcDbXrecord
280
     1
270
     1
271
     1
  0
XRECORD
  5
24
102
{ACAD_REACTORS
330
22
102
}
330
22
100
AcDbXrecord
280
     1
270
     1
271
     1
  0
XRECORD
  5
23
102
{ACAD_REACTORS
330
22
102
}
330
22
100
AcDbXrecord
280
     1
270
     1
271
     1
  0
XRECORD
  5
27
102
{ACAD_REACTORS
330
22
102
}
330
22
100
AcDbXrecord
280
     1
270
     1
271
     1
  0
XRECORD
  5
26
102
{ACAD_REACTORS
330
22
102
}
330
22
100
AcDbXrecord
280
     1
270
     1
271
     1
  0
XRECORD
  5
28
102
{ACAD_REACTORS
330
22
102
}
330
22
100
AcDbXrecord
280
     1
270
     1
271
     1
  0
XRECORD
  5
25
102
{ACAD_REACTORS
330
22
102
}
330
22
100
AcDbXrecord
280
     1
270
     1
271
     1
  0
CELLSTYLEMAP
  5
96
102
{ACAD_REACTORS
330
95
102
}
330
95
100
AcDbCellStyleMap
 90
        3
300
CELLSTYLE
  1
TABLEFORMAT_BEGIN
 90
        5
170
     1
 91
        0
 92
    32768
 62
   257
 93
        1
300
CONTENTFORMAT
  1
CONTENTFORMAT_BEGIN
 90
        0
 91
        0
 92
      512
 93
        0
300

 40
0.0
140
1.0
 94
        5
 62
     0
340
55
144
0.25
309
CONTENTFORMAT_END
171
     0
 94
        0
309
TABLEFORMAT_END
  1
CELLSTYLE_BEGIN
 90
        1
 91
        1
300
_TITLE
309
CELLSTYLE_END
300
CELLSTYLE
  1
TABLEFORMAT_BEGIN
 90
        5
170
     1
 91
        0
 92
        0
 62
   257
 93
        1
300
CONTENTFORMAT
  1
CONTENTFORMAT_BEGIN
 90
        0
 91
        0
 92
      512
 93
        0
300

 40
0.0
140
1.0
 94
        5
 62
     0
340
55
144
0.18
309
CONTENTFORMAT_END
171
     0
 94
        0
309
TABLEFORMAT_END
  1
CELLSTYLE_BEGIN
 90
        2
 91
        1
300
_HEADER
309
CELLSTYLE_END
300
CELLSTYLE
  1
TABLEFORMAT_BEGIN
 90
        5
170
     1
 91
        0
 92
        0
 62
   257
 93
        1
300
CONTENTFORMAT
  1
CONTENTFORMAT_BEGIN
 90
        0
 91
        0
 92
      512
 93
        0
300

 40
0.0
140
1.0
 94
        2
 62
     0
340
55
144
0.18
309
CONTENTFORMAT_END
171
     0
 94
        0
309
TABLEFORMAT_END
  1
CELLSTYLE_BEGIN
 90
        3
 91
        2
300
_DATA
309
CELLSTYLE_END
  0
ENDSEC
  0
EOF
